<?xml version="1.0" encoding="UTF-8" standalone="no"?>
<!-- Created with Inkscape (http://www.inkscape.org/) -->

<svg
   width="55.880001mm"
   height="128.5mm"
   viewBox="0 0 55.880001 128.5"
   version="1.1"
   id="svg5"
   inkscape:version="1.2.1 (9c6d41e410, 2022-07-14)"
   sodipodi:docname="Adder8.svg"
   xmlns:inkscape="http://www.inkscape.org/namespaces/inkscape"
   xmlns:sodipodi="http://sodipodi.sourceforge.net/DTD/sodipodi-0.dtd"
   xmlns="http://www.w3.org/2000/svg"
   xmlns:svg="http://www.w3.org/2000/svg">
  <sodipodi:namedview
     id="namedview7"
     pagecolor="#ffffff"
     bordercolor="#000000"
     borderopacity="0.25"
     inkscape:showpageshadow="2"
     inkscape:pageopacity="0.0"
     inkscape:pagecheckerboard="0"
     inkscape:deskcolor="#d1d1d1"
     inkscape:document-units="mm"
     showgrid="false"
     inkscape:zoom="0.70710683"
     inkscape:cx="-224.15284"
     inkscape:cy="231.93101"
     inkscape:window-width="1366"
     inkscape:window-height="705"
     inkscape:window-x="-8"
     inkscape:window-y="-8"
     inkscape:window-maximized="1"
     inkscape:current-layer="g7864"
     showguides="true" />
  <defs
     id="defs2">
    <rect
       x="22.799086"
       y="440.55881"
       width="6.0350523"
       height="22.128525"
       id="rect289" />
  </defs>
  <g
     inkscape:groupmode="layer"
     id="layer3"
     inkscape:label="Sfondo">
    <rect
       style="fill:#00001f;fill-opacity:1;stroke-width:0.31;image-rendering:auto;stroke-dasharray:none"
       id="sfondo"
       width="55.880001"
       height="128.5"
       x="0"
       y="6.6613381e-16"
       inkscape:label="background"
       ry="0"
       sodipodi:insensitive="true" />
  </g>
  <g
     inkscape:groupmode="layer"
     id="g7864"
     inkscape:label="stripes copy"
     transform="matrix(0.58485573,0,0,0.77278577,8.6280641,123.58213)">
    <rect
       style="display:inline;fill:#0088ff;fill-opacity:1;stroke-width:0.384391"
       id="rect7854"
       width="54.714348"
       height="0.40000001"
       x="5.6628265"
       y="5.0580001"
       inkscape:label="azzurro" />
    <rect
       style="display:inline;fill:#00cc55;fill-opacity:1;stroke-width:0.384391"
       id="rect7856"
       width="54.714348"
       height="0.40000001"
       x="5.6628265"
       y="4.0580001"
       inkscape:label="verde" />
    <rect
       style="display:inline;fill:#eeee77;fill-opacity:1;stroke-width:0.384391"
       id="rect7858"
       width="54.714348"
       height="0.40000001"
       x="5.6628265"
       y="3.0580001"
       inkscape:label="giallo" />
    <rect
       style="display:inline;fill:#ff7777;fill-opacity:1;stroke-width:0.384391"
       id="rect7860"
       width="54.714348"
       height="0.40000001"
       x="5.6628265"
       y="2.0580001"
       inkscape:label="rosa" />
    <rect
       style="display:inline;fill:#bd0000;fill-opacity:1;stroke-width:0.384391"
       id="rect7862"
       width="54.714348"
       height="0.40000001"
       x="5.6628265"
       y="1.0583332"
       inkscape:label="rosso" />
  </g>
  <g
     inkscape:groupmode="layer"
     id="layer7"
     inkscape:label="stripes"
     transform="matrix(0.6214092,0,0,1,7.4210685,0.59166683)">
    <rect
       style="display:inline;fill:#0088ff;fill-opacity:1;stroke-width:0.384391"
       id="rect1316"
       width="54.714348"
       height="0.40000001"
       x="5.6628265"
       y="5.0580001"
       inkscape:label="azzurro" />
    <rect
       style="display:inline;fill:#00cc55;fill-opacity:1;stroke-width:0.384391"
       id="rect1313"
       width="54.714348"
       height="0.40000001"
       x="5.6628265"
       y="4.0580001"
       inkscape:label="verde" />
    <rect
       style="display:inline;fill:#eeee77;fill-opacity:1;stroke-width:0.384391"
       id="rect1310"
       width="54.714348"
       height="0.40000001"
       x="5.6628265"
       y="3.0580001"
       inkscape:label="giallo" />
    <rect
       style="display:inline;fill:#ff7777;fill-opacity:1;stroke-width:0.384391"
       id="rect989"
       width="54.714348"
       height="0.40000001"
       x="5.6628265"
       y="2.0580001"
       inkscape:label="rosa" />
    <rect
       style="display:inline;fill:#bd0000;fill-opacity:1;stroke-width:0.384391"
       id="rect1308"
       width="54.714348"
       height="0.40000001"
       x="5.6628265"
       y="1.0583332"
       inkscape:label="rosso" />
  </g>
  <g
     inkscape:groupmode="layer"
     id="layer4"
     inkscape:label="Elementi"
     style="fill:#f9f9f9">
    <rect
       style="fill:#000033;fill-opacity:1;stroke:#666699;stroke-width:0.495;stroke-dasharray:none;stroke-dashoffset:0;stroke-opacity:1"
       id="rect1002"
       width="53.262325"
       height="10.703184"
       x="1.289"
       y="17.631186"
       ry="2.5010042"
       inkscape:label="line 1" />
    <rect
       style="fill:#484884;fill-opacity:1;stroke:#666699;stroke-width:0.494963;stroke-dasharray:none;stroke-dashoffset:0;stroke-opacity:1"
       id="rect3708"
       width="9.2102146"
       height="10.704037"
       x="45.470695"
       y="17.647459"
       ry="2.4485462"
       inkscape:label="out line 1" />
    <rect
       style="fill:#484884;fill-opacity:1;stroke:none;stroke-width:0.206745;stroke-dasharray:none;stroke-dashoffset:0;stroke-opacity:1"
       id="rect5393"
       width="3.1872845"
       height="10.25"
       x="44.613319"
       y="17.874479"
       inkscape:label="rettifica 1" />
    <rect
       style="fill:#000033;fill-opacity:1;stroke:#666699;stroke-width:0.495;stroke-dasharray:none;stroke-dashoffset:0;stroke-opacity:1"
       id="rect790"
       width="53.262325"
       height="10.703184"
       x="1.2890002"
       y="30.68643"
       ry="2.5010042"
       inkscape:label="line 2" />
    <rect
       style="fill:#484884;fill-opacity:1;stroke:#666699;stroke-width:0.494963;stroke-dasharray:none;stroke-dashoffset:0;stroke-opacity:1"
       id="rect5746"
       width="9.2102146"
       height="10.704037"
       x="45.470695"
       y="30.69792"
       ry="2.4485462"
       inkscape:label="out line 2" />
    <rect
       style="fill:#484884;fill-opacity:1;stroke:none;stroke-width:0.211247;stroke-dasharray:none;stroke-dashoffset:0;stroke-opacity:1"
       id="rect5748"
       width="3.327601"
       height="10.25"
       x="44.613319"
       y="30.92494"
       inkscape:label="rettifica 2" />
    <rect
       style="fill:#000033;fill-opacity:1;stroke:#666699;stroke-width:0.495;stroke-dasharray:none;stroke-dashoffset:0;stroke-opacity:1"
       id="rect1115"
       width="53.262325"
       height="10.703185"
       x="1.2890002"
       y="43.69165"
       ry="2.5010042"
       inkscape:label="line 3" />
    <rect
       style="fill:#484884;fill-opacity:1;stroke:#666699;stroke-width:0.494963;stroke-dasharray:none;stroke-dashoffset:0;stroke-opacity:1"
       id="rect5872"
       width="9.2102146"
       height="10.704037"
       x="45.470695"
       y="43.698364"
       ry="2.4485462"
       inkscape:label="out line 3" />
    <rect
       style="fill:#484884;fill-opacity:1;stroke:none;stroke-width:0.211247;stroke-dasharray:none;stroke-dashoffset:0;stroke-opacity:1"
       id="rect5874"
       width="3.327601"
       height="10.25"
       x="44.613319"
       y="43.925385"
       inkscape:label="rettifica 3" />
    <rect
       style="fill:#000033;fill-opacity:1;stroke:#666699;stroke-width:0.495;stroke-dasharray:none;stroke-dashoffset:0;stroke-opacity:1"
       id="rect1118"
       width="53.262325"
       height="10.703185"
       x="1.2890002"
       y="56.696869"
       ry="2.5010042"
       inkscape:label="line 4" />
    <rect
       style="fill:#484884;fill-opacity:1;stroke:#666699;stroke-width:0.494963;stroke-dasharray:none;stroke-dashoffset:0;stroke-opacity:1"
       id="rect5998"
       width="9.2102146"
       height="10.704037"
       x="45.470695"
       y="56.698822"
       ry="2.4485462"
       inkscape:label="out line 4" />
    <rect
       style="fill:#484884;fill-opacity:1;stroke:none;stroke-width:0.211247;stroke-dasharray:none;stroke-dashoffset:0;stroke-opacity:1"
       id="rect6000"
       width="3.327601"
       height="10.25"
       x="44.613319"
       y="56.925842"
       inkscape:label="rettifica 4" />
    <rect
       style="fill:#000033;fill-opacity:1;stroke:#666699;stroke-width:0.495;stroke-dasharray:none;stroke-dashoffset:0;stroke-opacity:1"
       id="rect1122"
       width="53.262325"
       height="10.703185"
       x="1.2890002"
       y="69.702087"
       ry="2.5010042"
       inkscape:label="line 5" />
    <rect
       style="fill:#484884;fill-opacity:1;stroke:#666699;stroke-width:0.494963;stroke-dasharray:none;stroke-dashoffset:0;stroke-opacity:1"
       id="rect6004"
       width="9.2102146"
       height="10.704037"
       x="45.470695"
       y="69.699265"
       ry="2.4485462"
       inkscape:label="out line 5" />
    <rect
       style="fill:#484884;fill-opacity:1;stroke:none;stroke-width:0.211247;stroke-dasharray:none;stroke-dashoffset:0;stroke-opacity:1"
       id="rect6006"
       width="3.327601"
       height="10.25"
       x="44.613319"
       y="69.926285"
       inkscape:label="rettifica 5" />
    <rect
       style="fill:#000033;fill-opacity:1;stroke:#666699;stroke-width:0.495;stroke-dasharray:none;stroke-dashoffset:0;stroke-opacity:1"
       id="rect6008"
       width="53.262325"
       height="10.703185"
       x="1.2890002"
       y="82.707321"
       ry="2.5010042"
       inkscape:label="line 6" />
    <rect
       style="fill:#484884;fill-opacity:1;stroke:#666699;stroke-width:0.494963;stroke-dasharray:none;stroke-dashoffset:0;stroke-opacity:1"
       id="rect6010"
       width="9.2102146"
       height="10.704037"
       x="45.470695"
       y="82.699722"
       ry="2.4485462"
       inkscape:label="out line 6" />
    <rect
       style="fill:#484884;fill-opacity:1;stroke:none;stroke-width:0.211247;stroke-dasharray:none;stroke-dashoffset:0;stroke-opacity:1"
       id="rect6012"
       width="3.327601"
       height="10.25"
       x="44.613319"
       y="82.926743"
       inkscape:label="rettifica 6" />
    <rect
       style="fill:#000033;fill-opacity:1;stroke:#666699;stroke-width:0.495;stroke-dasharray:none;stroke-dashoffset:0;stroke-opacity:1"
       id="rect6014"
       width="53.262325"
       height="10.703185"
       x="1.2890002"
       y="95.71254"
       ry="2.5010042"
       inkscape:label="line 7" />
    <rect
       style="fill:#484884;fill-opacity:1;stroke:#666699;stroke-width:0.494963;stroke-dasharray:none;stroke-dashoffset:0;stroke-opacity:1"
       id="rect6016"
       width="9.2102146"
       height="10.704037"
       x="45.470695"
       y="95.70018"
       ry="2.4485462"
       inkscape:label="out line 7" />
    <rect
       style="fill:#484884;fill-opacity:1;stroke:none;stroke-width:0.211247;stroke-dasharray:none;stroke-dashoffset:0;stroke-opacity:1"
       id="rect6018"
       width="3.327601"
       height="10.25"
       x="44.613319"
       y="95.9272"
       inkscape:label="rettifica 7" />
    <rect
       style="fill:#000033;fill-opacity:1;stroke:#666699;stroke-width:0.495;stroke-dasharray:none;stroke-dashoffset:0;stroke-opacity:1"
       id="rect6020"
       width="53.262325"
       height="10.703185"
       x="1.2890002"
       y="108.71776"
       ry="2.5010042"
       inkscape:label="line 8" />
    <rect
       style="fill:#484884;fill-opacity:1;stroke:#666699;stroke-width:0.494963;stroke-dasharray:none;stroke-dashoffset:0;stroke-opacity:1"
       id="rect6022"
       width="9.2102146"
       height="10.704037"
       x="45.470695"
       y="108.70062"
       ry="2.4485462"
       inkscape:label="out line 8" />
    <rect
       style="display:inline;fill:#484884;fill-opacity:1;stroke:none;stroke-width:0.211247;stroke-dasharray:none;stroke-dashoffset:0;stroke-opacity:1"
       id="rect6024"
       width="3.327601"
       height="10.25"
       x="44.613319"
       y="108.92764"
       inkscape:label="rettifica 8" />
  </g>
  <g
     inkscape:groupmode="layer"
     id="layer6"
     inkscape:label="Cornici">
    <path
       style="display:inline;fill:none;stroke:#ededed;stroke-width:0.4;stroke-dasharray:none;stroke-dashoffset:0;stroke-opacity:1"
       id="path15596"
       inkscape:label="circle MIX 2"
       sodipodi:type="arc"
       sodipodi:cx="15.400308"
       sodipodi:cy="36.051956"
       sodipodi:rx="3.5"
       sodipodi:ry="3.5"
       sodipodi:start="2.268928"
       sodipodi:end="0.87266463"
       sodipodi:arc-type="arc"
       d="m 13.150551,38.733112 a 3.5,3.5 0 0 1 -1.039168,-3.878226 3.5,3.5 0 0 1 3.288925,-2.30293 3.5,3.5 0 0 1 3.288924,2.30293 3.5,3.5 0 0 1 -1.039168,3.878226"
       sodipodi:open="true" />
    <rect
       style="fill:#f2f2f2;stroke:none;stroke-width:0.375045;stroke-dasharray:none"
       id="rect15598"
       width="0.62838537"
       height="0.95759505"
       x="15.086114"
       y="31.700071"
       ry="0.087054096"
       inkscape:label="line circle MIX 2" />
    <path
       style="display:inline;fill:none;stroke:#ededed;stroke-width:0.4;stroke-dasharray:none;stroke-dashoffset:0;stroke-opacity:1"
       id="path15960"
       inkscape:label="circle MIX 2"
       sodipodi:type="arc"
       sodipodi:cx="15.400308"
       sodipodi:cy="49.051956"
       sodipodi:rx="3.5"
       sodipodi:ry="3.5"
       sodipodi:start="2.268928"
       sodipodi:end="0.87266463"
       sodipodi:arc-type="arc"
       d="m 13.150551,51.733112 a 3.5,3.5 0 0 1 -1.039168,-3.878226 3.5,3.5 0 0 1 3.288925,-2.30293 3.5,3.5 0 0 1 3.288924,2.30293 3.5,3.5 0 0 1 -1.039168,3.878226"
       sodipodi:open="true" />
    <rect
       style="fill:#f2f2f2;stroke:none;stroke-width:0.375045;stroke-dasharray:none"
       id="rect15962"
       width="0.62838537"
       height="0.95759505"
       x="15.086114"
       y="44.700073"
       ry="0.087054096"
       inkscape:label="line circle MIX 2" />
    <path
       style="display:inline;fill:none;stroke:#ededed;stroke-width:0.4;stroke-dasharray:none;stroke-dashoffset:0;stroke-opacity:1"
       id="path15968"
       inkscape:label="circle MIX 2"
       sodipodi:type="arc"
       sodipodi:cx="15.400308"
       sodipodi:cy="62.051956"
       sodipodi:rx="3.5"
       sodipodi:ry="3.5"
       sodipodi:start="2.268928"
       sodipodi:end="0.87266463"
       sodipodi:arc-type="arc"
       d="m 13.150551,64.733112 a 3.5,3.5 0 0 1 -1.039168,-3.878226 3.5,3.5 0 0 1 3.288925,-2.30293 3.5,3.5 0 0 1 3.288924,2.30293 3.5,3.5 0 0 1 -1.039168,3.878226"
       sodipodi:open="true" />
    <rect
       style="fill:#f2f2f2;stroke:none;stroke-width:0.375045;stroke-dasharray:none"
       id="rect15970"
       width="0.62838537"
       height="0.95759505"
       x="15.086114"
       y="57.700073"
       ry="0.087054096"
       inkscape:label="line circle MIX 2" />
    <path
       style="display:inline;fill:none;stroke:#ededed;stroke-width:0.4;stroke-dasharray:none;stroke-dashoffset:0;stroke-opacity:1"
       id="path15976"
       inkscape:label="circle MIX 2"
       sodipodi:type="arc"
       sodipodi:cx="15.400308"
       sodipodi:cy="75.051956"
       sodipodi:rx="3.5"
       sodipodi:ry="3.5"
       sodipodi:start="2.268928"
       sodipodi:end="0.87266463"
       sodipodi:arc-type="arc"
       d="m 13.150551,77.733112 a 3.5,3.5 0 0 1 -1.039168,-3.878226 3.5,3.5 0 0 1 3.288925,-2.30293 3.5,3.5 0 0 1 3.288924,2.30293 3.5,3.5 0 0 1 -1.039168,3.878226"
       sodipodi:open="true" />
    <rect
       style="fill:#f2f2f2;stroke:none;stroke-width:0.375045;stroke-dasharray:none"
       id="rect15978"
       width="0.62838537"
       height="0.95759505"
       x="15.086114"
       y="70.700058"
       ry="0.087054096"
       inkscape:label="line circle MIX 2" />
    <path
       style="display:inline;fill:none;stroke:#ededed;stroke-width:0.4;stroke-dasharray:none;stroke-dashoffset:0;stroke-opacity:1"
       id="path16186"
       inkscape:label="circle MIX 2"
       sodipodi:type="arc"
       sodipodi:cx="15.400308"
       sodipodi:cy="88.051956"
       sodipodi:rx="3.5"
       sodipodi:ry="3.5"
       sodipodi:start="2.268928"
       sodipodi:end="0.87266463"
       sodipodi:arc-type="arc"
       d="m 13.150551,90.733112 a 3.5,3.5 0 0 1 -1.039168,-3.878226 3.5,3.5 0 0 1 3.288925,-2.30293 3.5,3.5 0 0 1 3.288924,2.30293 3.5,3.5 0 0 1 -1.039168,3.878226"
       sodipodi:open="true" />
    <rect
       style="fill:#f2f2f2;stroke:none;stroke-width:0.375045;stroke-dasharray:none"
       id="rect16188"
       width="0.62838537"
       height="0.95759505"
       x="15.086114"
       y="83.700058"
       ry="0.087054096"
       inkscape:label="line circle MIX 2" />
    <path
       style="display:inline;fill:none;stroke:#ededed;stroke-width:0.4;stroke-dasharray:none;stroke-dashoffset:0;stroke-opacity:1"
       id="path16194"
       inkscape:label="circle MIX 2"
       sodipodi:type="arc"
       sodipodi:cx="15.400308"
       sodipodi:cy="101.05196"
       sodipodi:rx="3.5"
       sodipodi:ry="3.5"
       sodipodi:start="2.268928"
       sodipodi:end="0.87266463"
       sodipodi:arc-type="arc"
       d="m 13.150551,103.73312 a 3.5,3.5 0 0 1 -1.039168,-3.878227 3.5,3.5 0 0 1 3.288925,-2.302929 3.5,3.5 0 0 1 3.288924,2.302929 3.5,3.5 0 0 1 -1.039168,3.878227"
       sodipodi:open="true" />
    <rect
       style="fill:#f2f2f2;stroke:none;stroke-width:0.375045;stroke-dasharray:none"
       id="rect16196"
       width="0.62838537"
       height="0.95759505"
       x="15.086114"
       y="96.700058"
       ry="0.087054096"
       inkscape:label="line circle MIX 2" />
    <path
       style="display:inline;fill:none;stroke:#ededed;stroke-width:0.4;stroke-dasharray:none;stroke-dashoffset:0;stroke-opacity:1"
       id="path16202"
       inkscape:label="circle MIX 2"
       sodipodi:type="arc"
       sodipodi:cx="15.400308"
       sodipodi:cy="114.05196"
       sodipodi:rx="3.5"
       sodipodi:ry="3.5"
       sodipodi:start="2.268928"
       sodipodi:end="0.87266463"
       sodipodi:arc-type="arc"
       d="m 13.150551,116.73312 a 3.5,3.5 0 0 1 -1.039168,-3.87823 3.5,3.5 0 0 1 3.288925,-2.30293 3.5,3.5 0 0 1 3.288924,2.30293 3.5,3.5 0 0 1 -1.039168,3.87823"
       sodipodi:open="true" />
    <rect
       style="fill:#f2f2f2;stroke:none;stroke-width:0.375045;stroke-dasharray:none"
       id="rect16204"
       width="0.62838537"
       height="0.95759505"
       x="15.086114"
       y="109.70007"
       ry="0.087054096"
       inkscape:label="line circle MIX 2" />
    <path
       style="display:inline;fill:none;stroke:#ededed;stroke-width:0.4;stroke-dasharray:none;stroke-dashoffset:0;stroke-opacity:1"
       id="path1438"
       inkscape:label="circle MIX 2"
       sodipodi:type="arc"
       sodipodi:cx="15.400308"
       sodipodi:cy="23.051962"
       sodipodi:rx="3.5"
       sodipodi:ry="3.5"
       sodipodi:start="2.268928"
       sodipodi:end="0.87266463"
       sodipodi:arc-type="arc"
       d="m 13.150551,25.733118 a 3.5,3.5 0 0 1 -1.039168,-3.878227 3.5,3.5 0 0 1 3.288925,-2.302929 3.5,3.5 0 0 1 3.288924,2.302929 3.5,3.5 0 0 1 -1.039168,3.878226"
       sodipodi:open="true" />
    <rect
       style="fill:#f2f2f2;stroke:none;stroke-width:0.375045;stroke-dasharray:none"
       id="rect1440"
       width="0.62838537"
       height="0.95759505"
       x="15.086114"
       y="18.700071"
       ry="0.087054096"
       inkscape:label="line circle MIX 2" />
    <rect
       style="display:inline;fill:none;stroke:#a3a3c2;stroke-width:0.637353;stroke-dasharray:none;stroke-opacity:1"
       id="rect25822"
       width="4.9626465"
       height="10.362647"
       x="-25.48139"
       y="32.018993"
       ry="0.32487991"
       inkscape:label="switchChoke"
       transform="rotate(-90)" />
    <rect
       style="display:inline;fill:none;stroke:#a3a3c2;stroke-width:0.637353;stroke-dasharray:none;stroke-opacity:1"
       id="rect5775"
       width="4.9626465"
       height="10.362647"
       x="-38.481384"
       y="32.018993"
       ry="0.32487991"
       inkscape:label="switchChoke"
       transform="rotate(-90)" />
    <rect
       style="display:inline;fill:none;stroke:#a3a3c2;stroke-width:0.637353;stroke-dasharray:none;stroke-opacity:1"
       id="rect5777"
       width="4.9626465"
       height="10.362647"
       x="-51.431396"
       y="32.018993"
       ry="0.32487991"
       inkscape:label="switchChoke"
       transform="rotate(-90)" />
    <rect
       style="display:inline;fill:none;stroke:#a3a3c2;stroke-width:0.637353;stroke-dasharray:none;stroke-opacity:1"
       id="rect5927"
       width="4.9626465"
       height="10.362647"
       x="-64.381393"
       y="32.018993"
       ry="0.32487991"
       inkscape:label="switchChoke"
       transform="rotate(-90)" />
    <rect
       style="display:inline;fill:none;stroke:#a3a3c2;stroke-width:0.637353;stroke-dasharray:none;stroke-opacity:1"
       id="rect5929"
       width="4.9626465"
       height="10.362647"
       x="-77.481384"
       y="32.018993"
       ry="0.32487991"
       inkscape:label="switchChoke"
       transform="rotate(-90)" />
    <rect
       style="display:inline;fill:none;stroke:#a3a3c2;stroke-width:0.637353;stroke-dasharray:none;stroke-opacity:1"
       id="rect5931"
       width="4.9626465"
       height="10.362647"
       x="-90.481384"
       y="32.018993"
       ry="0.32487991"
       inkscape:label="switchChoke"
       transform="rotate(-90)" />
    <rect
       style="display:inline;fill:none;stroke:#a3a3c2;stroke-width:0.637353;stroke-dasharray:none;stroke-opacity:1"
       id="rect5933"
       width="4.9626465"
       height="10.362647"
       x="-103.53137"
       y="32.018993"
       ry="0.32487991"
       inkscape:label="switchChoke"
       transform="rotate(-90)" />
    <rect
       style="display:inline;fill:none;stroke:#a3a3c2;stroke-width:0.637353;stroke-dasharray:none;stroke-opacity:1"
       id="rect5935"
       width="4.9626465"
       height="10.362647"
       x="-116.58139"
       y="32.018993"
       ry="0.32487991"
       inkscape:label="switchChoke"
       transform="rotate(-90)" />
  </g>
  <g
     inkscape:groupmode="layer"
     id="layer5"
     inkscape:label="Etichette testo"
     style="display:none">
    <text
       xml:space="preserve"
       style="font-size:2.82222px;font-family:'C64 User';-inkscape-font-specification:'C64 User';text-align:center;text-anchor:middle;display:inline;fill:#ffffff;stroke:none;stroke-width:0.264999;stroke-dasharray:0.264999, 0.264999"
       x="49.928158"
       y="14.98693"
       id="text1443"
       inkscape:label="OUT"><tspan
         sodipodi:role="line"
         id="tspan1441"
         style="font-size:2.82222px;text-align:center;text-anchor:middle;fill:#ffffff;stroke:none;stroke-width:0.265"
         x="49.928158"
         y="14.98693">OUT</tspan></text>
    <text
       xml:space="preserve"
       style="font-style:normal;font-variant:normal;font-weight:normal;font-stretch:normal;font-size:2.82222px;font-family:'C64 User';-inkscape-font-specification:'C64 User';text-align:center;text-anchor:middle;fill:#ffffff;stroke:none;stroke-width:0.264999;stroke-dasharray:0.264999, 0.264999;stroke-dashoffset:0;stroke-opacity:1"
       x="37.376705"
       y="14.987105"
       id="text1189"
       inkscape:label="RNG"><tspan
         sodipodi:role="line"
         id="tspan1187"
         style="font-size:2.82222px;text-align:center;text-anchor:middle;stroke:none;stroke-width:0.265"
         x="37.376705"
         y="14.987105">MODE</tspan></text>
    <text
       xml:space="preserve"
       style="font-style:normal;font-variant:normal;font-weight:normal;font-stretch:normal;font-size:2.82222px;font-family:'C64 User';-inkscape-font-specification:'C64 User';text-align:center;text-anchor:middle;display:inline;fill:#ffffff;stroke:none;stroke-width:0.264999;stroke-dasharray:0.264999, 0.264999;stroke-dashoffset:0;stroke-opacity:1"
       x="26.104481"
       y="14.987105"
       id="text2531"
       inkscape:label="CV"><tspan
         sodipodi:role="line"
         id="tspan2529"
         style="font-size:2.82222px;text-align:center;text-anchor:middle;stroke:none;stroke-width:0.265"
         x="26.104481"
         y="14.987105">-0+</tspan></text>
    <text
       xml:space="preserve"
       style="font-style:normal;font-variant:normal;font-weight:normal;font-stretch:normal;font-size:2.46944px;font-family:'C64 User';-inkscape-font-specification:'C64 User';text-align:center;text-anchor:middle;display:inline;fill:#ffffff;stroke:none;stroke-width:0.264999;stroke-dasharray:0.264999, 0.264999;stroke-dashoffset:0;stroke-opacity:1"
       x="15.576695"
       y="15.86076"
       id="text2513"
       inkscape:label="MIX"><tspan
         sodipodi:role="line"
         id="tspan2511"
         style="font-size:2.46944px;text-align:center;text-anchor:middle;stroke:none;stroke-width:0.265"
         x="15.576695"
         y="15.86076">ATNV</tspan></text>
    <text
       xml:space="preserve"
       style="font-style:normal;font-variant:normal;font-weight:normal;font-stretch:normal;font-size:2.82222px;font-family:'C64 User';-inkscape-font-specification:'C64 User';text-align:center;text-anchor:middle;display:inline;fill:#ffffff;stroke:none;stroke-width:0.264999;stroke-dasharray:0.264999, 0.264999;stroke-dashoffset:0;stroke-opacity:1"
       x="6.6211491"
       y="14.940352"
       id="text2449"
       inkscape:label="in1"><tspan
         sodipodi:role="line"
         id="tspan2447"
         style="font-size:2.82222px;text-align:center;text-anchor:middle;stroke:none;stroke-width:0.265"
         x="6.6211491"
         y="14.940352">CV</tspan></text>
    <text
       xml:space="preserve"
       style="font-style:normal;font-variant:normal;font-weight:normal;font-stretch:normal;font-size:2.46944px;font-family:'C64 User';-inkscape-font-specification:'C64 User';text-align:center;text-anchor:middle;display:inline;fill:#ffffff;stroke:none;stroke-width:0.264999;stroke-dasharray:0.264999, 0.264999;stroke-dashoffset:0;stroke-opacity:1"
       x="15.576695"
       y="13.060764"
       id="text4909"
       inkscape:label="MIX"><tspan
         sodipodi:role="line"
         id="tspan4907"
         style="font-size:2.46944px;text-align:center;text-anchor:middle;stroke:none;stroke-width:0.265"
         x="15.576695"
         y="13.060764">VLT</tspan></text>
  </g>
  <g
     inkscape:groupmode="layer"
     id="g1286"
     inkscape:label="Etichette nere"
     style="display:inline;fill:#000000"
     transform="translate(0.3002935,0.299996)">
    <g
       aria-label="OUT"
       id="text1264"
       style="font-size:2.82222px;font-family:'C64 User';-inkscape-font-specification:'C64 User';text-align:center;text-anchor:middle;display:inline;fill:#000000;stroke-width:0.264999;stroke-dasharray:0.264999, 0.264999"
       inkscape:label="OUT">
      <path
         d="m 46.576771,14.98693 v -0.352778 h -0.352777 v -1.763887 h 0.352777 v -0.352778 h 1.41111 v 0.352778 h 0.352778 v 1.763887 h -0.352778 v 0.352778 z m 0.352778,-0.352778 h 0.705555 v -1.763887 h -0.705555 z"
         style="fill:#000000;stroke-width:0.265"
         id="path1288" />
      <path
         d="m 49.046214,14.98693 v -0.352778 h -0.352777 v -2.116665 h 0.705555 v 2.116665 h 0.705555 v -2.116665 h 0.705555 v 2.116665 h -0.352778 v 0.352778 z"
         style="fill:#000000;stroke-width:0.265"
         id="path1290" />
      <path
         d="m 51.868434,14.98693 v -2.116665 h -0.705555 v -0.352778 h 2.116665 v 0.352778 h -0.705555 v 2.116665 z"
         style="fill:#000000;stroke-width:0.265"
         id="path1292" />
    </g>
    <g
       aria-label="MODE"
       id="text1268"
       style="font-size:2.82222px;font-family:'C64 User';-inkscape-font-specification:'C64 User';text-align:center;text-anchor:middle;fill:#000000;stroke-width:0.264999;stroke-dasharray:0.264999, 0.264999"
       inkscape:label="RNG">
      <path
         d="m 32.261431,14.987105 v -2.469442 h 0.705555 v 0.352777 h 0.352778 v 0.352778 h 0.352777 V 12.87044 h 0.352778 v -0.352777 h 0.705555 v 2.469442 h -0.705555 v -1.41111 h -0.352778 v 0.352778 h -0.352777 v -0.352778 h -0.352778 v 1.41111 z"
         style="fill:#000000;stroke-width:0.265"
         id="path1295" />
      <path
         d="M 35.436429,14.987105 V 14.634328 H 35.083651 V 12.87044 h 0.352778 v -0.352777 h 1.41111 v 0.352777 h 0.352777 v 1.763888 h -0.352777 v 0.352777 z m 0.352777,-0.352777 h 0.705555 V 12.87044 h -0.705555 z"
         style="fill:#000000;stroke-width:0.265"
         id="path1297" />
      <path
         d="m 37.553094,14.987105 v -2.469442 h 1.41111 v 0.352777 h 0.352778 v 0.352778 h 0.352777 v 1.058332 h -0.352777 v 0.352778 h -0.352778 v 0.352777 z m 0.705555,-0.352777 h 0.352777 V 14.28155 h 0.352778 V 13.223218 H 38.611426 V 12.87044 h -0.352777 z"
         style="fill:#000000;stroke-width:0.265"
         id="path1299" />
      <path
         d="m 42.139202,12.517663 v 0.352777 h -1.41111 v 0.705555 h 0.705555 v 0.352778 h -0.705555 v 0.705555 h 1.41111 v 0.352777 h -2.116665 v -2.469442 z"
         style="fill:#000000;stroke-width:0.265"
         id="path1301" />
    </g>
    <g
       aria-label="-0+"
       id="text1272"
       style="font-size:2.82222px;font-family:'C64 User';-inkscape-font-specification:'C64 User';text-align:center;text-anchor:middle;display:inline;fill:#000000;stroke-width:0.264999;stroke-dasharray:0.264999, 0.264999"
       inkscape:label="CV">
      <path
         d="m 22.400317,13.928773 v -0.352778 h 2.116665 v 0.352778 z"
         style="fill:#000000;stroke-width:0.265"
         id="path1304" />
      <path
         d="M 25.222537,14.987105 V 14.634328 H 24.869759 V 12.87044 h 0.352778 v -0.352777 h 1.41111 v 0.352777 h 0.352778 v 1.763888 h -0.352778 v 0.352777 z m 0.352778,-0.352777 H 26.28087 V 13.575995 H 25.928092 V 13.223218 H 26.28087 V 12.87044 h -0.705555 v 0.705555 h 0.352777 v 0.352778 h -0.352777 z"
         style="fill:#000000;stroke-width:0.265"
         id="path1306" />
      <path
         d="m 28.044757,14.634328 v -0.705555 h -0.705555 v -0.352778 h 0.705555 V 12.87044 h 0.705555 v 0.705555 h 0.705555 v 0.352778 h -0.705555 v 0.705555 z"
         style="fill:#000000;stroke-width:0.265"
         id="path1308" />
    </g>
    <g
       aria-label="ATNV"
       id="text1276"
       style="font-size:2.46944px;font-family:'C64 User';-inkscape-font-specification:'C64 User';text-align:center;text-anchor:middle;display:inline;fill:#000000;stroke-width:0.264999;stroke-dasharray:0.264999, 0.264999"
       inkscape:label="MIX">
      <path
         d="m 11.255175,15.86076 v -1.5434 h 0.30868 v -0.30868 h 0.30868 V 13.7 h 0.61736 v 0.30868 h 0.30868 v 0.30868 h 0.30868 v 1.5434 h -0.61736 v -0.92604 h -0.61736 v 0.92604 z m 0.61736,-1.23472 h 0.61736 v -0.30868 h -0.61736 z"
         style="fill:#000000;stroke-width:0.265"
         id="path1311" />
      <path
         d="m 14.033295,15.86076 v -1.85208 h -0.61736 V 13.7 h 1.85208 v 0.30868 h -0.61736 v 1.85208 z"
         style="fill:#000000;stroke-width:0.265"
         id="path1313" />
      <path
         d="M 15.576695,15.86076 V 13.7 h 0.61736 v 0.30868 h 0.30868 v 0.30868 h 0.30868 V 13.7 h 0.61736 v 2.16076 h -0.61736 V 15.2434 h -0.30868 v -0.30868 h -0.30868 v 0.92604 z"
         style="fill:#000000;stroke-width:0.265"
         id="path1315" />
      <path
         d="m 18.354815,15.86076 v -0.30868 h -0.30868 V 15.2434 h -0.30868 V 13.7 h 0.61736 v 1.5434 h 0.61736 V 13.7 h 0.61736 v 1.5434 h -0.30868 v 0.30868 h -0.30868 v 0.30868 z"
         style="fill:#000000;stroke-width:0.265"
         id="path1317" />
    </g>
    <g
       aria-label="CV"
       id="text1280"
       style="font-size:2.82222px;font-family:'C64 User';-inkscape-font-specification:'C64 User';text-align:center;text-anchor:middle;display:inline;fill:#000000;stroke-width:0.264999;stroke-dasharray:0.264999, 0.264999"
       inkscape:label="in1">
      <path
         d="M 4.504484,14.940352 V 14.587575 H 4.1517065 V 12.823687 H 4.504484 V 12.47091 h 1.41111 v 0.352777 h 0.3527776 v 0.352778 H 5.5628165 v -0.352778 h -0.705555 v 1.763888 h 0.705555 v -0.352778 h 0.7055551 v 0.352778 H 5.915594 v 0.352777 z"
         style="fill:#000000;stroke-width:0.265"
         id="path1321" />
      <path
         d="M 7.3267041,14.940352 V 14.587575 H 6.9739266 V 14.234797 H 6.6211491 V 12.47091 h 0.705555 v 1.763887 h 0.705555 V 12.47091 h 0.7055551 v 1.763887 H 8.3850366 v 0.352778 H 8.0322591 v 0.352777 z"
         style="fill:#000000;stroke-width:0.265"
         id="path1323" />
    </g>
    <g
       aria-label="VLT"
       id="text1284"
       style="font-size:2.46944px;font-family:'C64 User';-inkscape-font-specification:'C64 User';text-align:center;text-anchor:middle;display:inline;fill:#000000;stroke-width:0.264999;stroke-dasharray:0.264999, 0.264999"
       inkscape:label="MIX">
      <path
         d="m 12.952915,13.060764 v -0.30868 h -0.30868 v -0.30868 h -0.30868 v -1.5434 h 0.61736 v 1.5434 h 0.61736 v -1.5434 h 0.61736 v 1.5434 h -0.30868 v 0.30868 h -0.30868 v 0.30868 z"
         style="fill:#000000;stroke-width:0.265"
         id="path1327" />
      <path
         d="m 15.113675,10.900004 v 1.85208 h 1.23472 v 0.30868 h -1.85208 v -2.16076 z"
         style="fill:#000000;stroke-width:0.265"
         id="path1329" />
      <path
         d="m 17.274435,13.060764 v -1.85208 h -0.61736 v -0.30868 h 1.85208 v 0.30868 h -0.61736 v 1.85208 z"
         style="fill:#000000;stroke-width:0.265"
         id="path1331" />
    </g>
  </g>
  <g
     inkscape:groupmode="layer"
     id="g1384"
     inkscape:label="Etichette testo path"
     style="display:inline">
    <g
       aria-label="OUT"
       id="g1340"
       style="font-size:2.82222px;font-family:'C64 User';-inkscape-font-specification:'C64 User';text-align:center;text-anchor:middle;display:inline;fill:#ffffff;stroke-width:0.264999;stroke-dasharray:0.264999, 0.264999"
       inkscape:label="OUT">
      <path
         d="m 46.576771,14.98693 v -0.352778 h -0.352777 v -1.763887 h 0.352777 v -0.352778 h 1.41111 v 0.352778 h 0.352778 v 1.763887 h -0.352778 v 0.352778 z m 0.352778,-0.352778 h 0.705555 v -1.763887 h -0.705555 z"
         style="stroke-width:0.265"
         id="path1334" />
      <path
         d="m 49.046214,14.98693 v -0.352778 h -0.352777 v -2.116665 h 0.705555 v 2.116665 h 0.705555 v -2.116665 h 0.705555 v 2.116665 h -0.352778 v 0.352778 z"
         style="stroke-width:0.265"
         id="path1336" />
      <path
         d="m 51.868434,14.98693 v -2.116665 h -0.705555 v -0.352778 h 2.116665 v 0.352778 h -0.705555 v 2.116665 z"
         style="stroke-width:0.265"
         id="path1338" />
    </g>
    <g
       aria-label="MODE"
       id="g1350"
       style="font-size:2.82222px;font-family:'C64 User';-inkscape-font-specification:'C64 User';text-align:center;text-anchor:middle;fill:#ffffff;stroke-width:0.264999;stroke-dasharray:0.264999, 0.264999"
       inkscape:label="RNG">
      <path
         d="m 32.261431,14.987105 v -2.469442 h 0.705555 v 0.352777 h 0.352778 v 0.352778 h 0.352777 V 12.87044 h 0.352778 v -0.352777 h 0.705555 v 2.469442 h -0.705555 v -1.41111 h -0.352778 v 0.352778 h -0.352777 v -0.352778 h -0.352778 v 1.41111 z"
         style="stroke-width:0.265"
         id="path1342" />
      <path
         d="M 35.436429,14.987105 V 14.634328 H 35.083651 V 12.87044 h 0.352778 v -0.352777 h 1.41111 v 0.352777 h 0.352777 v 1.763888 h -0.352777 v 0.352777 z m 0.352777,-0.352777 h 0.705555 V 12.87044 h -0.705555 z"
         style="stroke-width:0.265"
         id="path1344" />
      <path
         d="m 37.553094,14.987105 v -2.469442 h 1.41111 v 0.352777 h 0.352778 v 0.352778 h 0.352777 v 1.058332 h -0.352777 v 0.352778 h -0.352778 v 0.352777 z m 0.705555,-0.352777 h 0.352777 V 14.28155 h 0.352778 V 13.223218 H 38.611426 V 12.87044 h -0.352777 z"
         style="stroke-width:0.265"
         id="path1346" />
      <path
         d="m 42.139202,12.517663 v 0.352777 h -1.41111 v 0.705555 h 0.705555 v 0.352778 h -0.705555 v 0.705555 h 1.41111 v 0.352777 h -2.116665 v -2.469442 z"
         style="stroke-width:0.265"
         id="path1348" />
    </g>
    <g
       aria-label="-0+"
       id="g1358"
       style="font-size:2.82222px;font-family:'C64 User';-inkscape-font-specification:'C64 User';text-align:center;text-anchor:middle;display:inline;fill:#ffffff;stroke-width:0.264999;stroke-dasharray:0.264999, 0.264999"
       inkscape:label="CV">
      <path
         d="m 22.400317,13.928773 v -0.352778 h 2.116665 v 0.352778 z"
         style="stroke-width:0.265"
         id="path1352" />
      <path
         d="M 25.222537,14.987105 V 14.634328 H 24.869759 V 12.87044 h 0.352778 v -0.352777 h 1.41111 v 0.352777 h 0.352778 v 1.763888 h -0.352778 v 0.352777 z m 0.352778,-0.352777 H 26.28087 V 13.575995 H 25.928092 V 13.223218 H 26.28087 V 12.87044 h -0.705555 v 0.705555 h 0.352777 v 0.352778 h -0.352777 z"
         style="stroke-width:0.265"
         id="path1354" />
      <path
         d="m 28.044757,14.634328 v -0.705555 h -0.705555 v -0.352778 h 0.705555 V 12.87044 h 0.705555 v 0.705555 h 0.705555 v 0.352778 h -0.705555 v 0.705555 z"
         style="stroke-width:0.265"
         id="path1356" />
    </g>
    <g
       aria-label="ATNV"
       id="g1368"
       style="font-size:2.46944px;font-family:'C64 User';-inkscape-font-specification:'C64 User';text-align:center;text-anchor:middle;display:inline;fill:#ffffff;stroke-width:0.264999;stroke-dasharray:0.264999, 0.264999"
       inkscape:label="MIX">
      <path
         d="m 11.255175,15.86076 v -1.5434 h 0.30868 v -0.30868 h 0.30868 V 13.7 h 0.61736 v 0.30868 h 0.30868 v 0.30868 h 0.30868 v 1.5434 h -0.61736 v -0.92604 h -0.61736 v 0.92604 z m 0.61736,-1.23472 h 0.61736 v -0.30868 h -0.61736 z"
         style="stroke-width:0.265"
         id="path1360" />
      <path
         d="m 14.033295,15.86076 v -1.85208 h -0.61736 V 13.7 h 1.85208 v 0.30868 h -0.61736 v 1.85208 z"
         style="stroke-width:0.265"
         id="path1362" />
      <path
         d="M 15.576695,15.86076 V 13.7 h 0.61736 v 0.30868 h 0.30868 v 0.30868 h 0.30868 V 13.7 h 0.61736 v 2.16076 h -0.61736 V 15.2434 h -0.30868 v -0.30868 h -0.30868 v 0.92604 z"
         style="stroke-width:0.265"
         id="path1364" />
      <path
         d="m 18.354815,15.86076 v -0.30868 h -0.30868 V 15.2434 h -0.30868 V 13.7 h 0.61736 v 1.5434 h 0.61736 V 13.7 h 0.61736 v 1.5434 h -0.30868 v 0.30868 h -0.30868 v 0.30868 z"
         style="stroke-width:0.265"
         id="path1366" />
    </g>
    <g
       aria-label="CV"
       id="g1374"
       style="font-size:2.82222px;font-family:'C64 User';-inkscape-font-specification:'C64 User';text-align:center;text-anchor:middle;display:inline;fill:#ffffff;stroke-width:0.264999;stroke-dasharray:0.264999, 0.264999"
       inkscape:label="in1">
      <path
         d="M 4.504484,14.940352 V 14.587575 H 4.1517065 V 12.823687 H 4.504484 V 12.47091 h 1.41111 v 0.352777 h 0.3527776 v 0.352778 H 5.5628165 v -0.352778 h -0.705555 v 1.763888 h 0.705555 v -0.352778 h 0.7055551 v 0.352778 H 5.915594 v 0.352777 z"
         style="stroke-width:0.265"
         id="path1370" />
      <path
         d="M 7.3267041,14.940352 V 14.587575 H 6.9739266 V 14.234797 H 6.6211491 V 12.47091 h 0.705555 v 1.763887 h 0.705555 V 12.47091 h 0.7055551 v 1.763887 H 8.3850366 v 0.352778 H 8.0322591 v 0.352777 z"
         style="stroke-width:0.265"
         id="path1372" />
    </g>
    <g
       aria-label="VLT"
       id="g1382"
       style="font-size:2.46944px;font-family:'C64 User';-inkscape-font-specification:'C64 User';text-align:center;text-anchor:middle;display:inline;fill:#ffffff;stroke-width:0.264999;stroke-dasharray:0.264999, 0.264999"
       inkscape:label="MIX">
      <path
         d="m 12.952915,13.060764 v -0.30868 h -0.30868 v -0.30868 h -0.30868 v -1.5434 h 0.61736 v 1.5434 h 0.61736 v -1.5434 h 0.61736 v 1.5434 h -0.30868 v 0.30868 h -0.30868 v 0.30868 z"
         style="stroke-width:0.265"
         id="path1376" />
      <path
         d="m 15.113675,10.900004 v 1.85208 h 1.23472 v 0.30868 h -1.85208 v -2.16076 z"
         style="stroke-width:0.265"
         id="path1378" />
      <path
         d="m 17.274435,13.060764 v -1.85208 h -0.61736 v -0.30868 h 1.85208 v 0.30868 h -0.61736 v 1.85208 z"
         style="stroke-width:0.265"
         id="path1380" />
    </g>
  </g>
  <g
     inkscape:label="header footer"
     inkscape:groupmode="layer"
     id="layer1"
     style="display:inline"
     transform="translate(-5.079999)">
    <text
       xml:space="preserve"
       style="font-style:normal;font-variant:normal;font-weight:normal;font-stretch:normal;font-size:3.175px;font-family:'C64 User';-inkscape-font-specification:'C64 User';text-align:center;text-anchor:middle;display:none;fill:#ffffff;stroke-width:0.264583"
       x="33.218437"
       y="4.9781251"
       id="text1341"
       inkscape:label="adder8"><tspan
         sodipodi:role="line"
         id="tspan1339"
         style="font-size:3.175px;text-align:center;text-anchor:middle;fill:#ffffff;stroke-width:0.264583"
         x="33.218437"
         y="4.9781251">adder8</tspan></text>
    <rect
       style="display:inline;fill:#00000a;fill-opacity:1;stroke:#666699;stroke-width:0.4;stroke-dasharray:none;stroke-dashoffset:0;stroke-opacity:1"
       id="rect2138"
       width="24.753433"
       height="5.241539"
       x="20.643282"
       y="1.2083986"
       ry="1.8"
       inkscape:label="header rect" />
    <g
       aria-label="adder8"
       id="text1051"
       style="font-size:3.175px;font-family:'C64 User';-inkscape-font-specification:'C64 User';text-align:center;text-anchor:middle;display:inline;fill:#ffffff;stroke-width:0.264583"
       inkscape:label="adder8"
       transform="translate(0,0.0867137)">
      <path
         d="m 25.280937,4.8914113 v -0.396875 h -0.396875 v -0.396875 h 0.396875 v -0.396875 h 1.190625 v -0.396875 h -1.190625 v -0.396875 h 1.5875 v 0.396875 h 0.396875 v 1.5875 z m 0.396875,-0.396875 h 0.79375 v -0.396875 h -0.79375 z"
         id="path1053" />
      <path
         d="m 28.059062,4.8914113 v -0.396875 h -0.396875 v -0.79375 h 0.396875 v -0.396875 h 1.190625 v -0.79375 h 0.79375 v 2.38125 z m 0.396875,-0.396875 h 0.79375 v -0.79375 h -0.79375 z"
         id="path1055" />
      <path
         d="m 30.837187,4.8914113 v -0.396875 h -0.396875 v -0.79375 h 0.396875 v -0.396875 h 1.190625 v -0.79375 h 0.79375 v 2.38125 z m 0.396875,-0.396875 h 0.79375 v -0.79375 h -0.79375 z"
         id="path1057" />
      <path
         d="m 34.805938,3.3039113 h -0.79375 v 0.396875 h 0.79375 z m 0.396875,-0.396875 v 0.396875 h 0.396875 v 0.79375 h -1.5875 v 0.396875 h 1.190625 v 0.396875 h -1.5875 v -0.396875 h -0.396875 v -1.190625 h 0.396875 v -0.396875 z"
         id="path1059" />
      <path
         d="m 35.996563,4.8914113 v -1.984375 h 1.984374 v 0.396875 h 0.396875 v 0.396875 h -0.79375 v -0.396875 h -0.79375 v 1.5875 z"
         id="path1061" />
      <path
         d="m 39.171562,4.8914113 v -0.396875 h -0.396875 v -0.79375 h 0.396875 v -0.396875 h -0.396875 v -0.79375 h 0.396875 v -0.396875 h 1.5875 v 0.396875 h 0.396875 v 0.79375 h -0.396875 v 0.396875 h 0.396875 v 0.79375 h -0.396875 v 0.396875 z m 0.396875,-1.5875 h 0.79375 v -0.79375 h -0.79375 z m 0,1.190625 h 0.79375 v -0.79375 h -0.79375 z"
         id="path1063" />
    </g>
    <rect
       style="display:inline;fill:#00000a;fill-opacity:1;stroke:#666699;stroke-width:0.4;stroke-dasharray:none;stroke-dashoffset:0;stroke-opacity:1"
       id="rect1447-8"
       width="24.287165"
       height="3.6871655"
       x="20.876419"
       y="124.256"
       inkscape:label="footer rect"
       ry="1.2" />
    <g
       aria-label="sickozell"
       id="text1308"
       style="font-size:3.175px;font-family:'C64 User';-inkscape-font-specification:'C64 User';display:inline;fill:#cccccc;fill-opacity:1;stroke-width:0.264583"
       inkscape:label="sickozell"
       transform="translate(20.425848,0.78404723)">
      <path
         d="m 4.0613409,124.52178 v 0.39688 h -1.5875 v 0.39687 h 1.190625 v 0.39688 h 0.396875 v 0.39687 h -0.396875 v 0.39688 h -1.984375 v -0.39688 h 1.5875 v -0.39687 h -1.190625 v -0.39688 h -0.396875 v -0.39687 h 0.396875 v -0.39688 z"
         style="fill:#cccccc;fill-opacity:1"
         id="path1312" />
      <path
         d="m 4.458216,126.50616 v -0.39688 h 0.3968749 v -0.79375 H 4.458216 v -0.39687 h 1.1906249 v 1.19062 h 0.396875 v 0.39688 z m 0.3968749,-1.98438 v -0.39687 h 0.79375 v 0.39687 z"
         style="fill:#cccccc;fill-opacity:1"
         id="path1314" />
      <path
         d="m 6.8394657,126.50616 v -0.39688 h -0.396875 v -1.19062 h 0.396875 v -0.39688 h 1.5875 v 0.39688 h -1.190625 v 1.19062 h 1.190625 v 0.39688 z"
         style="fill:#cccccc;fill-opacity:1"
         id="path1316" />
      <path
         d="m 8.8238411,126.50616 v -2.38125 h 0.79375 v 1.19062 h 0.3968749 v -0.39687 h 0.79375 v 0.39687 h -0.396875 v 0.39688 h 0.396875 v 0.39687 h 0.396875 v 0.39688 h -0.79375 v -0.39688 h -0.396875 v -0.39687 H 9.6175911 v 0.79375 z"
         style="fill:#cccccc;fill-opacity:1"
         id="path1318" />
      <path
         d="m 11.998841,126.50616 v -0.39688 h -0.396875 v -1.19062 h 0.396875 v -0.39688 h 1.5875 v 0.39688 h 0.396875 v 1.19062 h -0.396875 v 0.39688 z m 0.396875,-0.39688 h 0.79375 v -1.19062 h -0.79375 z"
         style="fill:#cccccc;fill-opacity:1"
         id="path1320" />
      <path
         d="m 14.380091,126.50616 v -0.39688 h 0.396875 v -0.39687 h 0.396875 v -0.39688 h 0.396875 v -0.39687 h -1.190625 v -0.39688 h 2.38125 v 0.39688 h -0.396875 v 0.39687 h -0.396875 v 0.39688 h -0.396875 v 0.39687 h 1.190625 v 0.39688 z"
         style="fill:#cccccc;fill-opacity:1"
         id="path1322" />
      <path
         d="m 18.745715,124.91866 h -0.793749 v 0.39687 h 0.793749 z m 0.396875,-0.39688 v 0.39688 h 0.396875 v 0.79375 h -1.587499 v 0.39687 h 1.190624 v 0.39688 h -1.587499 v -0.39688 h -0.396875 v -1.19062 h 0.396875 v -0.39688 z"
         style="fill:#cccccc;fill-opacity:1"
         id="path1324" />
      <path
         d="m 21.126966,124.12491 v 1.98437 h 0.396875 v 0.39688 h -1.5875 v -0.39688 h 0.396875 v -1.5875 h -0.396875 v -0.39687 z"
         style="fill:#cccccc;fill-opacity:1"
         id="path1326" />
      <path
         d="m 23.111341,124.12491 v 1.98437 h 0.396875 v 0.39688 h -1.5875 v -0.39688 h 0.396875 v -1.5875 h -0.396875 v -0.39687 z"
         style="fill:#cccccc;fill-opacity:1"
         id="path1328" />
    </g>
  </g>
</svg>
