<?xml version="1.0" encoding="UTF-8" standalone="no"?>
<!-- Created with Inkscape (http://www.inkscape.org/) -->

<svg
   width="66.040001mm"
   height="128.5mm"
   viewBox="0 0 66.040001 128.5"
   version="1.1"
   id="svg5"
   inkscape:version="1.2.1 (9c6d41e410, 2022-07-14)"
   sodipodi:docname="Blender8.svg"
   xmlns:inkscape="http://www.inkscape.org/namespaces/inkscape"
   xmlns:sodipodi="http://sodipodi.sourceforge.net/DTD/sodipodi-0.dtd"
   xmlns="http://www.w3.org/2000/svg"
   xmlns:svg="http://www.w3.org/2000/svg">
  <sodipodi:namedview
     id="namedview7"
     pagecolor="#ffffff"
     bordercolor="#000000"
     borderopacity="0.25"
     inkscape:showpageshadow="2"
     inkscape:pageopacity="0.0"
     inkscape:pagecheckerboard="0"
     inkscape:deskcolor="#d1d1d1"
     inkscape:document-units="mm"
     showgrid="false"
     inkscape:zoom="1"
     inkscape:cx="13.5"
     inkscape:cy="236"
     inkscape:window-width="1920"
     inkscape:window-height="1017"
     inkscape:window-x="-8"
     inkscape:window-y="-8"
     inkscape:window-maximized="1"
     inkscape:current-layer="layer1"
     showguides="true" />
  <defs
     id="defs2">
    <rect
       x="22.799086"
       y="440.55881"
       width="6.0350523"
       height="22.128525"
       id="rect289" />
  </defs>
  <g
     inkscape:groupmode="layer"
     id="layer3"
     inkscape:label="Sfondo">
    <rect
       style="fill:#000000;stroke-width:0.337279;image-rendering:auto"
       id="sfondo"
       width="66.040001"
       height="128.5"
       x="0"
       y="6.6613381e-16"
       inkscape:label="background"
       ry="0"
       sodipodi:insensitive="true" />
  </g>
  <g
     inkscape:groupmode="layer"
     id="layer4"
     inkscape:label="Elementi"
     style="fill:#f9f9f9">
    <rect
       style="display:none;fill:#e6e6e6;stroke:none;stroke-width:0.4;stroke-dasharray:0.4, 0.4;stroke-dashoffset:0;stroke-opacity:1"
       id="rect2291"
       width="8.3999996"
       height="110"
       x="55.338001"
       y="10.501718"
       ry="2.5"
       inkscape:label="out rect" />
    <rect
       style="display:none;fill:none;stroke:#ececec;stroke-width:0.4;stroke-dasharray:none;stroke-dashoffset:0;stroke-opacity:1"
       id="rect2705"
       width="25.043421"
       height="109.59632"
       x="1.9048288"
       y="10.646674"
       ry="2.5"
       inkscape:label="in rect" />
    <rect
       style="display:none;fill:none;stroke:#ececec;stroke-width:0.4;stroke-dasharray:none;stroke-dashoffset:0;stroke-opacity:1"
       id="rect2759"
       width="25.930243"
       height="109.60052"
       x="28.344023"
       y="10.650233"
       ry="2.5000963"
       inkscape:label="mix rect" />
    <rect
       style="fill:#00001a;stroke:#808080;stroke-width:0.5;stroke-dasharray:none;stroke-dashoffset:0;stroke-opacity:1;fill-opacity:1"
       id="rect1002"
       width="62.225304"
       height="10.69926"
       x="1.907347"
       y="16.649784"
       ry="2.500087"
       inkscape:label="line 1" />
    <rect
       style="fill:#e6e6e6;stroke:none;stroke-width:0.362802;stroke-dasharray:none;stroke-dashoffset:0;stroke-opacity:1"
       id="rect3708"
       width="9.2051783"
       height="10.928971"
       x="55.072842"
       y="16.536512"
       ry="2.5"
       inkscape:label="out line 1" />
    <rect
       style="fill:#e6e6e6;stroke:none;stroke-width:0.213483;stroke-dasharray:none;stroke-dashoffset:0;stroke-opacity:1"
       id="rect5393"
       width="3.1872845"
       height="10.928971"
       x="54.212948"
       y="16.536512"
       inkscape:label="rettifica 1" />
    <rect
       style="fill:#00001a;stroke:#808080;stroke-width:0.5;stroke-dasharray:none;stroke-dashoffset:0;stroke-opacity:1;fill-opacity:1"
       id="rect790"
       width="62.225304"
       height="10.69926"
       x="1.9073471"
       y="29.700239"
       ry="2.500087"
       inkscape:label="line 2" />
    <rect
       style="fill:#e6e6e6;stroke:none;stroke-width:0.362802;stroke-dasharray:none;stroke-dashoffset:0;stroke-opacity:1"
       id="rect5746"
       width="9.2051783"
       height="10.928971"
       x="55.072842"
       y="29.586514"
       ry="2.5"
       inkscape:label="out line 2" />
    <rect
       style="fill:#e6e6e6;stroke:none;stroke-width:0.218131;stroke-dasharray:none;stroke-dashoffset:0;stroke-opacity:1"
       id="rect5748"
       width="3.327601"
       height="10.928971"
       x="54.212948"
       y="29.586514"
       inkscape:label="rettifica 2" />
    <rect
       style="fill:#00001a;stroke:#808080;stroke-width:0.5;stroke-dasharray:none;stroke-dashoffset:0;stroke-opacity:1;fill-opacity:1"
       id="rect1115"
       width="62.225304"
       height="10.699261"
       x="1.9073471"
       y="42.700691"
       ry="2.500087"
       inkscape:label="line 3" />
    <rect
       style="fill:#e6e6e6;stroke:none;stroke-width:0.362802;stroke-dasharray:none;stroke-dashoffset:0;stroke-opacity:1"
       id="rect5872"
       width="9.2051783"
       height="10.928971"
       x="55.072842"
       y="42.586517"
       ry="2.5"
       inkscape:label="out line 3" />
    <rect
       style="fill:#e6e6e6;stroke:none;stroke-width:0.218131;stroke-dasharray:none;stroke-dashoffset:0;stroke-opacity:1"
       id="rect5874"
       width="3.327601"
       height="10.928971"
       x="54.212948"
       y="42.586517"
       inkscape:label="rettifica 3" />
    <rect
       style="fill:#00001a;stroke:#808080;stroke-width:0.5;stroke-dasharray:none;stroke-dashoffset:0;stroke-opacity:1;fill-opacity:1"
       id="rect1118"
       width="62.225304"
       height="10.699261"
       x="1.9073471"
       y="55.701145"
       ry="2.500087"
       inkscape:label="line 4" />
    <rect
       style="fill:#e6e6e6;stroke:none;stroke-width:0.362802;stroke-dasharray:none;stroke-dashoffset:0;stroke-opacity:1"
       id="rect5998"
       width="9.2051783"
       height="10.928971"
       x="55.072842"
       y="55.586517"
       ry="2.5"
       inkscape:label="out line 4" />
    <rect
       style="fill:#e6e6e6;stroke:none;stroke-width:0.218131;stroke-dasharray:none;stroke-dashoffset:0;stroke-opacity:1"
       id="rect6000"
       width="3.327601"
       height="10.928971"
       x="54.212948"
       y="55.586517"
       inkscape:label="rettifica 4" />
    <rect
       style="fill:#00001a;stroke:#808080;stroke-width:0.5;stroke-dasharray:none;stroke-dashoffset:0;stroke-opacity:1;fill-opacity:1"
       id="rect1122"
       width="62.225304"
       height="10.699261"
       x="1.9073471"
       y="68.701591"
       ry="2.500087"
       inkscape:label="line 5" />
    <rect
       style="fill:#e6e6e6;stroke:none;stroke-width:0.362802;stroke-dasharray:none;stroke-dashoffset:0;stroke-opacity:1"
       id="rect6004"
       width="9.2051783"
       height="10.928971"
       x="55.072842"
       y="68.58651"
       ry="2.5"
       inkscape:label="out line 5" />
    <rect
       style="fill:#e6e6e6;stroke:none;stroke-width:0.218131;stroke-dasharray:none;stroke-dashoffset:0;stroke-opacity:1"
       id="rect6006"
       width="3.327601"
       height="10.928971"
       x="54.212948"
       y="68.58651"
       inkscape:label="rettifica 5" />
    <rect
       style="fill:#00001a;stroke:#808080;stroke-width:0.5;stroke-dasharray:none;stroke-dashoffset:0;stroke-opacity:1;fill-opacity:1"
       id="rect6008"
       width="62.225304"
       height="10.699261"
       x="1.9073471"
       y="81.702049"
       ry="2.500087"
       inkscape:label="line 6" />
    <rect
       style="fill:#e6e6e6;stroke:none;stroke-width:0.362802;stroke-dasharray:none;stroke-dashoffset:0;stroke-opacity:1"
       id="rect6010"
       width="9.2051783"
       height="10.928971"
       x="55.072842"
       y="81.58651"
       ry="2.5"
       inkscape:label="out line 6" />
    <rect
       style="fill:#e6e6e6;stroke:none;stroke-width:0.218131;stroke-dasharray:none;stroke-dashoffset:0;stroke-opacity:1"
       id="rect6012"
       width="3.327601"
       height="10.928971"
       x="54.212948"
       y="81.58651"
       inkscape:label="rettifica 6" />
    <rect
       style="fill:#00001a;stroke:#808080;stroke-width:0.5;stroke-dasharray:none;stroke-dashoffset:0;stroke-opacity:1;fill-opacity:1"
       id="rect6014"
       width="62.225304"
       height="10.699261"
       x="1.9073471"
       y="94.702499"
       ry="2.500087"
       inkscape:label="line 7" />
    <rect
       style="fill:#e6e6e6;stroke:none;stroke-width:0.362802;stroke-dasharray:none;stroke-dashoffset:0;stroke-opacity:1"
       id="rect6016"
       width="9.2051783"
       height="10.928971"
       x="55.072842"
       y="94.58651"
       ry="2.5"
       inkscape:label="out line 7" />
    <rect
       style="fill:#e6e6e6;stroke:none;stroke-width:0.218131;stroke-dasharray:none;stroke-dashoffset:0;stroke-opacity:1"
       id="rect6018"
       width="3.327601"
       height="10.928971"
       x="54.212948"
       y="94.58651"
       inkscape:label="rettifica 7" />
    <rect
       style="fill:#00001a;stroke:#808080;stroke-width:0.5;stroke-dasharray:none;stroke-dashoffset:0;stroke-opacity:1;fill-opacity:1"
       id="rect6020"
       width="62.225304"
       height="10.699261"
       x="1.9073471"
       y="107.70295"
       ry="2.500087"
       inkscape:label="line 8" />
    <rect
       style="fill:#e6e6e6;stroke:none;stroke-width:0.362802;stroke-dasharray:none;stroke-dashoffset:0;stroke-opacity:1"
       id="rect6022"
       width="9.2051783"
       height="10.928971"
       x="55.072842"
       y="107.58651"
       ry="2.5"
       inkscape:label="out line 8" />
    <rect
       style="fill:#e6e6e6;stroke:none;stroke-width:0.218131;stroke-dasharray:none;stroke-dashoffset:0;stroke-opacity:1"
       id="rect6024"
       width="3.327601"
       height="10.928971"
       x="54.212948"
       y="107.58651"
       inkscape:label="rettifica 8" />
  </g>
  <g
     inkscape:groupmode="layer"
     id="layer6"
     inkscape:label="Cornici">
    <rect
       style="fill:none;display:inline;stroke:#b3b3b3;stroke-width:0.6;stroke-dasharray:none"
       id="rect13719"
       width="5.056448"
       height="7.4019966"
       x="47.5"
       y="18.299999"
       ry="0.30000001"
       inkscape:label="switch Range 1" />
    <path
       style="fill:none;display:inline;stroke:#ededed;stroke-width:0.4;stroke-dasharray:none;stroke-dashoffset:0;stroke-opacity:1"
       id="path896-0"
       inkscape:label="circle MIX 1"
       sodipodi:type="arc"
       sodipodi:cx="32.999992"
       sodipodi:cy="22.001884"
       sodipodi:rx="3.5"
       sodipodi:ry="3.5"
       sodipodi:start="2.268928"
       sodipodi:end="0.87266463"
       sodipodi:arc-type="arc"
       d="m 30.750236,24.68304 a 3.5,3.5 0 0 1 -1.039168,-3.878226 3.5,3.5 0 0 1 3.288924,-2.30293 3.5,3.5 0 0 1 3.288925,2.30293 3.5,3.5 0 0 1 -1.039168,3.878226"
       sodipodi:open="true" />
    <rect
       style="fill:#f2f2f2;stroke:none;stroke-width:0.375045;stroke-dasharray:none"
       id="rect21577"
       width="0.62838537"
       height="0.95759505"
       x="32.685799"
       y="17.65"
       ry="0.087054096"
       inkscape:label="line circle MIX 1" />
    <rect
       style="fill:none;display:inline;stroke:#b3b3b3;stroke-width:0.6;stroke-dasharray:none"
       id="rect13511"
       width="5.056448"
       height="7.4019966"
       x="20.6"
       y="18.299999"
       ry="0.30000001"
       inkscape:label="switch Phase 1" />
    <rect
       style="display:inline;fill:none;stroke:#b3b3b3;stroke-width:0.6;stroke-dasharray:none"
       id="rect15594"
       width="5.056448"
       height="7.4019966"
       x="47.5"
       y="31.35"
       ry="0.30000001"
       inkscape:label="switch Range 2" />
    <path
       style="display:inline;fill:none;stroke:#ededed;stroke-width:0.4;stroke-dasharray:none;stroke-dashoffset:0;stroke-opacity:1"
       id="path15596"
       inkscape:label="circle MIX 2"
       sodipodi:type="arc"
       sodipodi:cx="32.999992"
       sodipodi:cy="35.051888"
       sodipodi:rx="3.5"
       sodipodi:ry="3.5"
       sodipodi:start="2.268928"
       sodipodi:end="0.87266463"
       sodipodi:arc-type="arc"
       d="m 30.750236,37.733043 a 3.5,3.5 0 0 1 -1.039168,-3.878226 3.5,3.5 0 0 1 3.288924,-2.302929 3.5,3.5 0 0 1 3.288925,2.302929 3.5,3.5 0 0 1 -1.039168,3.878226"
       sodipodi:open="true" />
    <rect
       style="fill:#f2f2f2;stroke:none;stroke-width:0.375045;stroke-dasharray:none"
       id="rect15598"
       width="0.62838537"
       height="0.95759505"
       x="32.685799"
       y="30.700001"
       ry="0.087054096"
       inkscape:label="line circle MIX 2" />
    <rect
       style="display:inline;fill:none;stroke:#b3b3b3;stroke-width:0.6;stroke-dasharray:none"
       id="rect15600"
       width="5.056448"
       height="7.4019966"
       x="20.6"
       y="31.35"
       ry="0.30000001"
       inkscape:label="switch Phase 2" />
    <rect
       style="display:inline;fill:none;stroke:#b3b3b3;stroke-width:0.6;stroke-dasharray:none"
       id="rect15958"
       width="5.056448"
       height="7.4019966"
       x="47.5"
       y="44.350002"
       ry="0.30000001"
       inkscape:label="switch Range 2" />
    <path
       style="display:inline;fill:none;stroke:#ededed;stroke-width:0.4;stroke-dasharray:none;stroke-dashoffset:0;stroke-opacity:1"
       id="path15960"
       inkscape:label="circle MIX 2"
       sodipodi:type="arc"
       sodipodi:cx="32.999992"
       sodipodi:cy="48.051888"
       sodipodi:rx="3.5"
       sodipodi:ry="3.5"
       sodipodi:start="2.268928"
       sodipodi:end="0.87266463"
       sodipodi:arc-type="arc"
       d="m 30.750236,50.733043 a 3.5,3.5 0 0 1 -1.039168,-3.878226 3.5,3.5 0 0 1 3.288924,-2.302929 3.5,3.5 0 0 1 3.288925,2.302929 3.5,3.5 0 0 1 -1.039168,3.878226"
       sodipodi:open="true" />
    <rect
       style="fill:#f2f2f2;stroke:none;stroke-width:0.375045;stroke-dasharray:none"
       id="rect15962"
       width="0.62838537"
       height="0.95759505"
       x="32.685799"
       y="43.700001"
       ry="0.087054096"
       inkscape:label="line circle MIX 2" />
    <rect
       style="display:inline;fill:none;stroke:#b3b3b3;stroke-width:0.6;stroke-dasharray:none"
       id="rect15964"
       width="5.056448"
       height="7.4019966"
       x="20.6"
       y="44.350002"
       ry="0.30000001"
       inkscape:label="switch Phase 2" />
    <rect
       style="display:inline;fill:none;stroke:#b3b3b3;stroke-width:0.6;stroke-dasharray:none"
       id="rect15966"
       width="5.056448"
       height="7.4019966"
       x="47.5"
       y="57.350002"
       ry="0.30000001"
       inkscape:label="switch Range 2" />
    <path
       style="display:inline;fill:none;stroke:#ededed;stroke-width:0.4;stroke-dasharray:none;stroke-dashoffset:0;stroke-opacity:1"
       id="path15968"
       inkscape:label="circle MIX 2"
       sodipodi:type="arc"
       sodipodi:cx="32.999992"
       sodipodi:cy="61.051888"
       sodipodi:rx="3.5"
       sodipodi:ry="3.5"
       sodipodi:start="2.268928"
       sodipodi:end="0.87266463"
       sodipodi:arc-type="arc"
       d="m 30.750236,63.733043 a 3.5,3.5 0 0 1 -1.039168,-3.878226 3.5,3.5 0 0 1 3.288924,-2.302929 3.5,3.5 0 0 1 3.288925,2.302929 3.5,3.5 0 0 1 -1.039168,3.878226"
       sodipodi:open="true" />
    <rect
       style="fill:#f2f2f2;stroke:none;stroke-width:0.375045;stroke-dasharray:none"
       id="rect15970"
       width="0.62838537"
       height="0.95759505"
       x="32.685799"
       y="56.700001"
       ry="0.087054096"
       inkscape:label="line circle MIX 2" />
    <rect
       style="display:inline;fill:none;stroke:#b3b3b3;stroke-width:0.6;stroke-dasharray:none"
       id="rect15972"
       width="5.056448"
       height="7.4019966"
       x="20.6"
       y="57.350002"
       ry="0.30000001"
       inkscape:label="switch Phase 2" />
    <rect
       style="display:inline;fill:none;stroke:#b3b3b3;stroke-width:0.6;stroke-dasharray:none"
       id="rect15974"
       width="5.056448"
       height="7.4019966"
       x="47.5"
       y="70.349998"
       ry="0.30000001"
       inkscape:label="switch Range 2" />
    <path
       style="display:inline;fill:none;stroke:#ededed;stroke-width:0.4;stroke-dasharray:none;stroke-dashoffset:0;stroke-opacity:1"
       id="path15976"
       inkscape:label="circle MIX 2"
       sodipodi:type="arc"
       sodipodi:cx="32.999992"
       sodipodi:cy="74.051888"
       sodipodi:rx="3.5"
       sodipodi:ry="3.5"
       sodipodi:start="2.268928"
       sodipodi:end="0.87266463"
       sodipodi:arc-type="arc"
       d="m 30.750236,76.733043 a 3.5,3.5 0 0 1 -1.039168,-3.878226 3.5,3.5 0 0 1 3.288924,-2.302929 3.5,3.5 0 0 1 3.288925,2.302929 3.5,3.5 0 0 1 -1.039168,3.878226"
       sodipodi:open="true" />
    <rect
       style="fill:#f2f2f2;stroke:none;stroke-width:0.375045;stroke-dasharray:none"
       id="rect15978"
       width="0.62838537"
       height="0.95759505"
       x="32.685799"
       y="69.699997"
       ry="0.087054096"
       inkscape:label="line circle MIX 2" />
    <rect
       style="display:inline;fill:none;stroke:#b3b3b3;stroke-width:0.6;stroke-dasharray:none"
       id="rect15980"
       width="5.056448"
       height="7.4019966"
       x="20.6"
       y="70.349998"
       ry="0.30000001"
       inkscape:label="switch Phase 2" />
    <rect
       style="display:inline;fill:none;stroke:#b3b3b3;stroke-width:0.6;stroke-dasharray:none"
       id="rect16184"
       width="5.056448"
       height="7.4019966"
       x="47.5"
       y="83.349998"
       ry="0.30000001"
       inkscape:label="switch Range 2" />
    <path
       style="display:inline;fill:none;stroke:#ededed;stroke-width:0.4;stroke-dasharray:none;stroke-dashoffset:0;stroke-opacity:1"
       id="path16186"
       inkscape:label="circle MIX 2"
       sodipodi:type="arc"
       sodipodi:cx="32.999992"
       sodipodi:cy="87.051888"
       sodipodi:rx="3.5"
       sodipodi:ry="3.5"
       sodipodi:start="2.268928"
       sodipodi:end="0.87266463"
       sodipodi:arc-type="arc"
       d="m 30.750236,89.733043 a 3.5,3.5 0 0 1 -1.039168,-3.878226 3.5,3.5 0 0 1 3.288924,-2.302929 3.5,3.5 0 0 1 3.288925,2.302929 3.5,3.5 0 0 1 -1.039168,3.878226"
       sodipodi:open="true" />
    <rect
       style="fill:#f2f2f2;stroke:none;stroke-width:0.375045;stroke-dasharray:none"
       id="rect16188"
       width="0.62838537"
       height="0.95759505"
       x="32.685799"
       y="82.699997"
       ry="0.087054096"
       inkscape:label="line circle MIX 2" />
    <rect
       style="display:inline;fill:none;stroke:#b3b3b3;stroke-width:0.6;stroke-dasharray:none"
       id="rect16190"
       width="5.056448"
       height="7.4019966"
       x="20.6"
       y="83.349998"
       ry="0.30000001"
       inkscape:label="switch Phase 2" />
    <rect
       style="display:inline;fill:none;stroke:#b3b3b3;stroke-width:0.6;stroke-dasharray:none"
       id="rect16192"
       width="5.056448"
       height="7.4019966"
       x="47.5"
       y="96.349998"
       ry="0.30000001"
       inkscape:label="switch Range 2" />
    <path
       style="display:inline;fill:none;stroke:#ededed;stroke-width:0.4;stroke-dasharray:none;stroke-dashoffset:0;stroke-opacity:1"
       id="path16194"
       inkscape:label="circle MIX 2"
       sodipodi:type="arc"
       sodipodi:cx="32.999992"
       sodipodi:cy="100.05189"
       sodipodi:rx="3.5"
       sodipodi:ry="3.5"
       sodipodi:start="2.268928"
       sodipodi:end="0.87266463"
       sodipodi:arc-type="arc"
       d="m 30.750236,102.73304 a 3.5,3.5 0 0 1 -1.039168,-3.878223 3.5,3.5 0 0 1 3.288924,-2.302929 3.5,3.5 0 0 1 3.288925,2.302929 3.5,3.5 0 0 1 -1.039168,3.878223"
       sodipodi:open="true" />
    <rect
       style="fill:#f2f2f2;stroke:none;stroke-width:0.375045;stroke-dasharray:none"
       id="rect16196"
       width="0.62838537"
       height="0.95759505"
       x="32.685799"
       y="95.699997"
       ry="0.087054096"
       inkscape:label="line circle MIX 2" />
    <rect
       style="display:inline;fill:none;stroke:#b3b3b3;stroke-width:0.6;stroke-dasharray:none"
       id="rect16198"
       width="5.056448"
       height="7.4019966"
       x="20.6"
       y="96.349998"
       ry="0.30000001"
       inkscape:label="switch Phase 2" />
    <rect
       style="display:inline;fill:none;stroke:#b3b3b3;stroke-width:0.6;stroke-dasharray:none"
       id="rect16200"
       width="5.056448"
       height="7.4019966"
       x="47.5"
       y="109.35"
       ry="0.30000001"
       inkscape:label="switch Range 2" />
    <path
       style="display:inline;fill:none;stroke:#ededed;stroke-width:0.4;stroke-dasharray:none;stroke-dashoffset:0;stroke-opacity:1"
       id="path16202"
       inkscape:label="circle MIX 2"
       sodipodi:type="arc"
       sodipodi:cx="32.999992"
       sodipodi:cy="113.05189"
       sodipodi:rx="3.5"
       sodipodi:ry="3.5"
       sodipodi:start="2.268928"
       sodipodi:end="0.87266463"
       sodipodi:arc-type="arc"
       d="m 30.750236,115.73304 a 3.5,3.5 0 0 1 -1.039168,-3.87822 3.5,3.5 0 0 1 3.288924,-2.30293 3.5,3.5 0 0 1 3.288925,2.30293 3.5,3.5 0 0 1 -1.039168,3.87822"
       sodipodi:open="true" />
    <rect
       style="fill:#f2f2f2;stroke:none;stroke-width:0.375045;stroke-dasharray:none"
       id="rect16204"
       width="0.62838537"
       height="0.95759505"
       x="32.685799"
       y="108.7"
       ry="0.087054096"
       inkscape:label="line circle MIX 2" />
    <rect
       style="display:inline;fill:none;stroke:#b3b3b3;stroke-width:0.6;stroke-dasharray:none"
       id="rect16206"
       width="5.056448"
       height="7.4019966"
       x="20.6"
       y="109.35"
       ry="0.30000001"
       inkscape:label="switch Phase 2" />
  </g>
  <g
     inkscape:groupmode="layer"
     id="layer5"
     inkscape:label="Etichette testo"
     style="display:none">
    <text
       xml:space="preserve"
       style="font-style:normal;font-variant:normal;font-weight:normal;font-stretch:normal;font-size:3.175px;font-family:'C64 User';-inkscape-font-specification:'C64 User';fill:#ffffff;stroke:none;stroke-width:0.264999;stroke-dasharray:0.264999, 0.264999;stroke-dashoffset:0;stroke-opacity:1"
       x="39.113365"
       y="14.516215"
       id="text2531"
       inkscape:label="CV"><tspan
         sodipodi:role="line"
         id="tspan2529"
         style="font-size:3.175px;stroke:none;stroke-width:0.265"
         x="39.113365"
         y="14.516215">CV</tspan></text>
    <text
       xml:space="preserve"
       style="font-style:normal;font-variant:normal;font-weight:normal;font-stretch:normal;font-size:3.175px;font-family:'C64 User';-inkscape-font-specification:'C64 User';fill:#ffffff;stroke:none;stroke-width:0.264999;stroke-dasharray:0.264999, 0.264999;stroke-dashoffset:0;stroke-opacity:1"
       x="29.081074"
       y="14.516215"
       id="text2513"
       inkscape:label="MIX"><tspan
         sodipodi:role="line"
         id="tspan2511"
         style="font-size:3.175px;stroke:none;stroke-width:0.265"
         x="29.081074"
         y="14.516215">MIX</tspan></text>
    <text
       xml:space="preserve"
       style="font-style:normal;font-variant:normal;font-weight:normal;font-stretch:normal;font-size:3.52778px;font-family:'C64 User';-inkscape-font-specification:'C64 User';display:inline;fill:#ffffff;stroke:none;stroke-width:0.264999;stroke-dasharray:0.264999, 0.264999;stroke-dashoffset:0;stroke-opacity:1"
       x="16.321527"
       y="14.469443"
       id="text2507"
       inkscape:label="in2"><tspan
         sodipodi:role="line"
         id="tspan2505"
         style="font-size:3.52778px;stroke:none;stroke-width:0.265"
         x="16.321527"
         y="14.469443">IN2</tspan></text>
    <text
       xml:space="preserve"
       style="font-style:normal;font-variant:normal;font-weight:normal;font-stretch:normal;font-size:3.52778px;font-family:'C64 User';-inkscape-font-specification:'C64 User';display:inline;fill:#ffffff;stroke:none;stroke-width:0.264999;stroke-dasharray:0.264999, 0.264999;stroke-dashoffset:0;stroke-opacity:1"
       x="3.2520807"
       y="14.469443"
       id="text2449"
       inkscape:label="in1"><tspan
         sodipodi:role="line"
         id="tspan2447"
         style="font-size:3.52778px;stroke:none;stroke-width:0.265"
         x="3.2520807"
         y="14.469443">IN1</tspan></text>
    <text
       xml:space="preserve"
       style="font-size:3.175px;font-family:'C64 User';-inkscape-font-specification:'C64 User';display:inline;fill:#000000;stroke:none;stroke-width:0.264999;stroke-dasharray:0.264999, 0.264999"
       x="55.559036"
       y="14.516035"
       id="text1443"
       inkscape:label="OUT"><tspan
         sodipodi:role="line"
         id="tspan1441"
         style="font-size:3.175px;fill:#000000;stroke:none;stroke-width:0.265"
         x="55.559036"
         y="14.516035">OUT</tspan></text>
    <text
       xml:space="preserve"
       style="font-style:normal;font-variant:normal;font-weight:normal;font-stretch:normal;font-size:3.175px;font-family:'C64 User';-inkscape-font-specification:'C64 User';fill:#ffffff;stroke:none;stroke-width:0.264999;stroke-dasharray:0.264999, 0.264999;stroke-dashoffset:0;stroke-opacity:1"
       x="45.861813"
       y="14.516215"
       id="text1189"
       inkscape:label="RNG"><tspan
         sodipodi:role="line"
         id="tspan1187"
         style="font-size:3.175px;stroke:none;stroke-width:0.265"
         x="45.861813"
         y="14.516215">RNG</tspan></text>
    <text
       xml:space="preserve"
       style="font-style:normal;font-variant:normal;font-weight:normal;font-stretch:normal;font-size:2.82222px;font-family:'C64 User';-inkscape-font-specification:'C64 User';display:none;fill:#ffffff;stroke:none;stroke-width:0.264999;stroke-dasharray:0.264999, 0.264999;stroke-dashoffset:0;stroke-opacity:1"
       x="20.290277"
       y="14.998609"
       id="text1206"
       inkscape:label="PHASE"><tspan
         sodipodi:role="line"
         id="tspan1204"
         style="font-size:2.82222px;stroke:none;stroke-width:0.265"
         x="0"
         y="0">PH.</tspan></text>
  </g>
  <g
     inkscape:groupmode="layer"
     id="g6561"
     inkscape:label="Etichette Path"
     style="display:inline">
    <g
       aria-label="IN2"
       id="text16488"
       style="font-size:3.52778px;font-family:'C64 User';-inkscape-font-specification:'C64 User';display:inline;fill:#ffffff;stroke-width:0.264999;stroke-dasharray:0.264999, 0.264999"
       inkscape:label="in2"
       transform="translate(0,-1.0583333)">
      <path
         d="m 18.085418,12.440967 v 0.440973 h -0.440973 v 2.204862 h 0.440973 v 0.440973 H 16.321527 V 15.086802 H 16.7625 V 12.88194 h -0.440973 v -0.440973 z"
         style="stroke-width:0.265"
         id="path16498" />
      <path
         d="m 18.52639,15.527775 v -3.086808 h 0.881945 v 0.440973 h 0.440973 v 0.440972 h 0.440972 v -0.881945 h 0.881945 v 3.086808 H 20.29028 V 14.64583 h -0.440972 v -0.440973 h -0.440973 v 1.322918 z"
         style="stroke-width:0.265"
         id="path16500" />
      <path
         d="M 21.613197,15.527775 V 14.64583 h 0.440973 v -0.440973 h 0.881945 v -0.440972 h 0.440972 V 12.88194 h -0.881945 v 0.440972 H 21.613197 V 12.88194 h 0.440973 v -0.440973 h 1.76389 v 0.440973 h 0.440972 v 0.881945 H 23.81806 v 0.440972 h -0.881945 v 0.440973 l -0.440973,-0.0017 v 0.442695 h 1.76389 v 0.440973 z"
         style="stroke-width:0.265"
         id="path16502" />
    </g>
    <g
       aria-label="CV"
       id="text16623"
       style="font-size:3.175px;font-family:'C64 User';-inkscape-font-specification:'C64 User';display:inline;fill:#ffffff;stroke-width:0.264999;stroke-dasharray:0.264999, 0.264999"
       inkscape:label="CV"
       transform="translate(0,-1.5875)">
      <path
         d="m 39.51024,16.103714 v -0.396875 h -0.396875 v -1.984375 h 0.396875 v -0.396875 h 1.5875 v 0.396875 h 0.396875 v 0.396875 h -0.79375 v -0.396875 h -0.79375 v 1.984375 h 0.79375 v -0.396875 h 0.79375 v 0.396875 H 41.09774 v 0.396875 z"
         style="stroke-width:0.265"
         id="path16674" />
      <path
         d="M 42.68524,16.103714 V 15.706839 H 42.288365 V 15.309964 H 41.89149 v -1.984375 h 0.79375 v 1.984375 h 0.79375 v -1.984375 h 0.79375 v 1.984375 h -0.396875 v 0.396875 H 43.47899 v 0.396875 z"
         style="stroke-width:0.265"
         id="path16676" />
    </g>
    <g
       aria-label="MIX"
       id="text16627"
       style="font-size:3.175px;font-family:'C64 User';-inkscape-font-specification:'C64 User';display:inline;fill:#ffffff;stroke-width:0.264999;stroke-dasharray:0.264999, 0.264999"
       inkscape:label="MIX"
       transform="translate(0,-1.5875)">
      <path
         d="m 29.081074,16.103714 v -2.778125 h 0.79375 v 0.396875 h 0.396875 v 0.396875 h 0.396875 v -0.396875 h 0.396875 v -0.396875 h 0.79375 v 2.778125 h -0.79375 v -1.5875 h -0.396875 v 0.396875 h -0.396875 v -0.396875 h -0.396875 v 1.5875 z"
         style="stroke-width:0.265"
         id="path16667" />
      <path
         d="m 33.843574,13.325589 v 0.396875 h -0.396875 v 1.984375 h 0.396875 v 0.396875 h -1.5875 v -0.396875 h 0.396875 v -1.984375 h -0.396875 v -0.396875 z"
         style="stroke-width:0.265"
         id="path16669" />
      <path
         d="m 36.621699,13.325589 v 0.79375 h -0.396875 v 0.396875 h -0.396875 v 0.396875 h 0.396875 v 0.396875 h 0.396875 v 0.79375 h -0.79375 v -0.79375 h -0.79375 v 0.79375 h -0.79375 v -0.79375 h 0.396875 v -0.396875 h 0.396875 v -0.396875 h -0.396875 v -0.396875 h -0.396875 v -0.79375 h 0.79375 v 0.79375 h 0.79375 v -0.79375 z"
         style="stroke-width:0.265"
         id="path16671" />
    </g>
    <g
       aria-label="OUT"
       id="text16631"
       style="font-size:3.175px;font-family:'C64 User';-inkscape-font-specification:'C64 User';display:inline;fill:#ffffff;stroke-width:0.264999;stroke-dasharray:0.264999, 0.264999"
       inkscape:label="OUT"
       transform="translate(0,-1.5875)">
      <path
         d="M 55.955911,16.103535 V 15.70666 h -0.396875 v -1.984375 h 0.396875 V 13.32541 h 1.5875 v 0.396875 h 0.396875 v 1.984375 h -0.396875 v 0.396875 z m 0.396875,-0.396875 h 0.79375 v -1.984375 h -0.79375 z"
         style="fill:#ffffff;stroke-width:0.265"
         id="path16660" />
      <path
         d="M 58.734036,16.103535 V 15.70666 h -0.396875 v -2.38125 h 0.79375 v 2.38125 h 0.79375 v -2.38125 h 0.79375 v 2.38125 h -0.396875 v 0.396875 z"
         style="fill:#ffffff;stroke-width:0.265"
         id="path16662" />
      <path
         d="m 61.909036,16.103535 v -2.38125 h -0.79375 V 13.32541 h 2.38125 v 0.396875 h -0.79375 v 2.38125 z"
         style="fill:#ffffff;stroke-width:0.265"
         id="path16664" />
    </g>
    <g
       aria-label="RNG"
       id="text16635"
       style="font-size:3.175px;font-family:'C64 User';-inkscape-font-specification:'C64 User';display:inline;fill:#ffffff;stroke-width:0.264999;stroke-dasharray:0.264999, 0.264999"
       inkscape:label="RNG"
       transform="translate(0,-1.5875)">
      <path
         d="m 45.861813,16.103714 v -2.778125 h 1.984375 v 0.396875 h 0.396875 v 0.79375 h -0.396875 v 0.396875 h -0.396875 v 0.396875 h 0.396875 v 0.396875 h 0.396875 v 0.396875 h -0.79375 v -0.396875 h -0.396875 v -0.396875 h -0.396875 v 0.79375 z m 0.79375,-1.5875 h 0.79375 v -0.79375 h -0.79375 z"
         style="stroke-width:0.265"
         id="path16653" />
      <path
         d="m 48.639938,16.103714 v -2.778125 h 0.79375 v 0.396875 h 0.396875 v 0.396875 h 0.396875 v -0.79375 h 0.79375 v 2.778125 h -0.79375 v -0.79375 h -0.396875 v -0.396875 h -0.396875 v 1.190625 z"
         style="stroke-width:0.265"
         id="path16655" />
      <path
         d="m 51.814938,16.103714 v -0.396875 h -0.396875 v -1.984375 h 0.396875 v -0.396875 h 1.5875 v 0.396875 h 0.396875 v 0.396875 h -0.79375 v -0.396875 h -0.79375 v 1.984375 h 0.79375 v -0.79375 h -0.396875 v -0.396875 h 1.190625 v 1.190625 h -0.396875 v 0.396875 z"
         style="stroke-width:0.265"
         id="path16657" />
    </g>
    <g
       aria-label="IN1"
       id="text16492"
       style="font-size:3.52778px;font-family:'C64 User';-inkscape-font-specification:'C64 User';display:inline;fill:#ffffff;stroke-width:0.264999;stroke-dasharray:0.264999, 0.264999"
       inkscape:label="in1"
       transform="translate(0,-1.0583333)">
      <path
         d="M 5.0159707,12.440967 V 12.88194 H 4.5749982 v 2.204862 h 0.4409725 v 0.440973 h -1.76389 V 15.086802 H 3.6930532 V 12.88194 H 3.2520807 v -0.440973 z"
         style="stroke-width:0.265"
         id="path16505" />
      <path
         d="m 5.4569433,15.527775 v -3.086808 h 0.881945 v 0.440973 h 0.4409725 v 0.440972 h 0.4409725 v -0.881945 h 0.881945 v 3.086808 H 7.2208333 V 14.64583 H 6.7798608 V 14.204857 H 6.3388883 v 1.322918 z"
         style="stroke-width:0.265"
         id="path16507" />
      <path
         d="m 8.5437505,15.527775 v -0.440973 h 0.881945 V 13.763885 H 8.984723 v -0.440973 h 0.4409725 v -0.881945 h 0.8819455 v 2.645835 h 0.881945 v 0.440973 z"
         style="stroke-width:0.265"
         id="path16509" />
    </g>
  </g>
  <g
     inkscape:label="header footer"
     inkscape:groupmode="layer"
     id="layer1"
     style="display:inline">
    <text
       xml:space="preserve"
       style="font-style:normal;font-variant:normal;font-weight:normal;font-stretch:normal;font-size:3.88056px;font-family:'C64 User';-inkscape-font-specification:'C64 User';display:none;fill:#0000ff;stroke-width:0.264583"
       x="17.140575"
       y="126.50616"
       id="text183"
       inkscape:label="sickozell"><tspan
         sodipodi:role="line"
         id="tspan181"
         style="font-size:3.88056px;fill:#f9f9f9;stroke-width:0.264583"
         x="17.140575"
         y="126.50616">sickozell</tspan></text>
    <text
       xml:space="preserve"
       style="font-style:normal;font-variant:normal;font-weight:normal;font-stretch:normal;font-size:3.175px;font-family:'C64 User';-inkscape-font-specification:'C64 User';display:none;fill:#ffffff;stroke-width:0.264583"
       x="19.962812"
       y="4.8914113"
       id="text1341"
       inkscape:label="blender8"><tspan
         sodipodi:role="line"
         id="tspan1339"
         style="font-size:3.175px;fill:#ffffff;stroke-width:0.264583"
         x="0"
         y="0">blender8</tspan></text>
    <rect
       style="display:inline;fill:#00001a;stroke:#b3b3b3;stroke-width:0.4;stroke-dasharray:none;stroke-dashoffset:0;stroke-opacity:1;fill-opacity:1"
       id="rect1447-8"
       width="24.287165"
       height="3.6871655"
       x="20.876419"
       y="124.256"
       inkscape:label="footer rect"
       ry="1.2" />
    <rect
       style="display:inline;fill:#000014;stroke:#b3b3b3;stroke-width:0.4;stroke-dasharray:none;stroke-dashoffset:0;stroke-opacity:1;fill-opacity:1"
       id="rect2138"
       width="27.911444"
       height="5.2190423"
       x="19.064278"
       y="1.219647"
       ry="1.8"
       inkscape:label="header rect" />
    <g
       aria-label="sickozell"
       id="text1308"
       style="font-size:3.175px;font-family:'C64 User';-inkscape-font-specification:'C64 User';display:inline;fill:#e6e6e6;stroke-width:0.264583"
       inkscape:label="sickozell"
       transform="translate(20.425847,0.784049)">
      <path
         d="m 4.0613409,124.52178 v 0.39688 h -1.5875 v 0.39687 h 1.190625 v 0.39688 h 0.396875 v 0.39687 h -0.396875 v 0.39688 h -1.984375 v -0.39688 h 1.5875 v -0.39687 h -1.190625 v -0.39688 h -0.396875 v -0.39687 h 0.396875 v -0.39688 z"
         style="fill:#e6e6e6"
         id="path1312" />
      <path
         d="m 4.458216,126.50616 v -0.39688 h 0.3968749 v -0.79375 H 4.458216 v -0.39687 h 1.1906249 v 1.19062 h 0.396875 v 0.39688 z m 0.3968749,-1.98438 v -0.39687 h 0.79375 v 0.39687 z"
         style="fill:#e6e6e6"
         id="path1314" />
      <path
         d="m 6.8394657,126.50616 v -0.39688 h -0.396875 v -1.19062 h 0.396875 v -0.39688 h 1.5875 v 0.39688 h -1.190625 v 1.19062 h 1.190625 v 0.39688 z"
         style="fill:#e6e6e6"
         id="path1316" />
      <path
         d="m 8.8238411,126.50616 v -2.38125 h 0.79375 v 1.19062 h 0.3968749 v -0.39687 h 0.79375 v 0.39687 h -0.396875 v 0.39688 h 0.396875 v 0.39687 h 0.396875 v 0.39688 h -0.79375 v -0.39688 h -0.396875 v -0.39687 H 9.6175911 v 0.79375 z"
         style="fill:#e6e6e6"
         id="path1318" />
      <path
         d="m 11.998841,126.50616 v -0.39688 h -0.396875 v -1.19062 h 0.396875 v -0.39688 h 1.5875 v 0.39688 h 0.396875 v 1.19062 h -0.396875 v 0.39688 z m 0.396875,-0.39688 h 0.79375 v -1.19062 h -0.79375 z"
         style="fill:#e6e6e6"
         id="path1320" />
      <path
         d="m 14.380091,126.50616 v -0.39688 h 0.396875 v -0.39687 h 0.396875 v -0.39688 h 0.396875 v -0.39687 h -1.190625 v -0.39688 h 2.38125 v 0.39688 h -0.396875 v 0.39687 h -0.396875 v 0.39688 h -0.396875 v 0.39687 h 1.190625 v 0.39688 z"
         style="fill:#e6e6e6"
         id="path1322" />
      <path
         d="m 18.745715,124.91866 h -0.793749 v 0.39687 h 0.793749 z m 0.396875,-0.39688 v 0.39688 h 0.396875 v 0.79375 h -1.587499 v 0.39687 h 1.190624 v 0.39688 h -1.587499 v -0.39688 h -0.396875 v -1.19062 h 0.396875 v -0.39688 z"
         style="fill:#e6e6e6"
         id="path1324" />
      <path
         d="m 21.126966,124.12491 v 1.98437 h 0.396875 v 0.39688 h -1.5875 v -0.39688 h 0.396875 v -1.5875 h -0.396875 v -0.39687 z"
         style="fill:#e6e6e6"
         id="path1326" />
      <path
         d="m 23.111341,124.12491 v 1.98437 h 0.396875 v 0.39688 h -1.5875 v -0.39688 h 0.396875 v -1.5875 h -0.396875 v -0.39687 z"
         style="fill:#e6e6e6"
         id="path1328" />
    </g>
    <g
       aria-label="blender8"
       id="text959"
       style="font-size:3.175px;font-family:'C64 User';-inkscape-font-specification:'C64 User';display:inline;fill:#e6e6e6;stroke:none;stroke-width:0.264583"
       inkscape:label="blender8"
       transform="translate(2.5400005,0.0867137)">
      <path
         d="m 20.756562,4.4945363 h 0.79375 v -0.79375 h -0.79375 z m -0.79375,0.396875 v -2.38125 h 0.79375 v 0.79375 h 1.190625 v 0.396875 h 0.396875 v 0.79375 h -0.396875 v 0.396875 z"
         id="path1023"
         style="fill:#e6e6e6;stroke:none" />
      <path
         d="m 23.931562,2.5101613 v 1.984375 h 0.396875 v 0.396875 h -1.5875 v -0.396875 h 0.396875 v -1.5875 h -0.396875 v -0.396875 z"
         id="path1025"
         style="fill:#e6e6e6;stroke:none" />
      <path
         d="m 26.312812,3.3039113 h -0.79375 v 0.396875 h 0.79375 z m 0.396875,-0.396875 v 0.396875 h 0.396875 v 0.79375 h -1.5875 v 0.396875 h 1.190625 v 0.396875 h -1.5875 v -0.396875 h -0.396875 v -1.190625 h 0.396875 v -0.396875 z"
         id="path1027"
         style="fill:#e6e6e6;stroke:none" />
      <path
         d="m 27.503438,4.8914113 v -1.984375 h 1.984374 v 0.396875 h 0.396875 v 1.5875 h -0.79375 v -1.5875 h -0.793749 v 1.5875 z"
         id="path1030"
         style="fill:#e6e6e6;stroke:none" />
      <path
         d="m 30.678438,4.8914113 v -0.396875 h -0.396875 v -0.79375 h 0.396875 v -0.396875 h 1.190625 v -0.79375 h 0.79375 v 2.38125 z m 0.396875,-0.396875 h 0.79375 v -0.79375 h -0.79375 z"
         id="path1032"
         style="fill:#e6e6e6;stroke:none" />
      <path
         d="m 34.647188,3.3039113 h -0.79375 v 0.396875 h 0.79375 z m 0.396875,-0.396875 v 0.396875 h 0.396875 v 0.79375 h -1.5875 v 0.396875 h 1.190625 v 0.396875 h -1.5875 v -0.396875 h -0.396875 v -1.190625 h 0.396875 v -0.396875 z"
         id="path1034"
         style="fill:#e6e6e6;stroke:none" />
      <path
         d="m 35.837812,4.8914113 v -1.984375 h 1.984375 v 0.396875 h 0.396875 v 0.396875 h -0.79375 v -0.396875 h -0.79375 v 1.5875 z"
         id="path1037"
         style="fill:#e6e6e6;stroke:none" />
      <path
         d="m 39.012813,4.8914113 v -0.396875 h -0.396875 v -0.79375 h 0.396875 v -0.396875 h -0.396875 v -0.79375 h 0.396875 v -0.396875 h 1.5875 v 0.396875 h 0.396875 v 0.79375 h -0.396875 v 0.396875 h 0.396875 v 0.79375 h -0.396875 v 0.396875 z m 0.396875,-1.5875 h 0.79375 v -0.79375 h -0.79375 z m 0,1.190625 h 0.79375 v -0.79375 h -0.79375 z"
         id="path1039"
         style="fill:#e6e6e6;stroke:none" />
    </g>
  </g>
  <g
     inkscape:groupmode="layer"
     id="layer2"
     inkscape:label="components"
     style="display:none" />
</svg>
