<?xml version="1.0" encoding="UTF-8" standalone="no"?>
<!-- Created with Inkscape (http://www.inkscape.org/) -->

<svg
   width="45.720001mm"
   height="128.5mm"
   viewBox="0 0 45.720001 128.5"
   version="1.1"
   id="svg5"
   inkscape:version="1.2.1 (9c6d41e410, 2022-07-14)"
   sodipodi:docname="Btoggler.svg"
   xmlns:inkscape="http://www.inkscape.org/namespaces/inkscape"
   xmlns:sodipodi="http://sodipodi.sourceforge.net/DTD/sodipodi-0.dtd"
   xmlns="http://www.w3.org/2000/svg"
   xmlns:svg="http://www.w3.org/2000/svg">
  <sodipodi:namedview
     id="namedview7"
     pagecolor="#ffffff"
     bordercolor="#000000"
     borderopacity="0.25"
     inkscape:showpageshadow="2"
     inkscape:pageopacity="0.0"
     inkscape:pagecheckerboard="0"
     inkscape:deskcolor="#d1d1d1"
     inkscape:document-units="mm"
     showgrid="false"
     inkscape:zoom="2.0000003"
     inkscape:cx="5.2499993"
     inkscape:cy="423.99994"
     inkscape:window-width="1366"
     inkscape:window-height="705"
     inkscape:window-x="-8"
     inkscape:window-y="-8"
     inkscape:window-maximized="1"
     inkscape:current-layer="g7864"
     showguides="true" />
  <defs
     id="defs2">
    <rect
       x="22.799086"
       y="440.55881"
       width="6.0350523"
       height="22.128525"
       id="rect289" />
  </defs>
  <g
     inkscape:groupmode="layer"
     id="layer3"
     inkscape:label="Sfondo">
    <rect
       style="fill:#00001f;stroke-width:0.280633;image-rendering:auto;fill-opacity:1"
       id="sfondo"
       width="45.720001"
       height="128.5"
       x="0"
       y="6.6613381e-16"
       inkscape:label="background"
       ry="0"
       sodipodi:insensitive="true" />
  </g>
  <g
     inkscape:groupmode="layer"
     id="layer7"
     inkscape:label="stripes"
     transform="matrix(0.55,0,0,1,4.6990003,0.59166683)"
     style="display:inline;fill:#000000;stroke:none">
    <rect
       style="display:inline;fill:#0088ff;fill-opacity:1;stroke-width:0.40253"
       id="rect1316"
       width="60"
       height="0.40000001"
       x="3.0200005"
       y="5.0580001"
       inkscape:label="azzurro" />
    <rect
       style="display:inline;fill:#00cc55;fill-opacity:1;stroke-width:0.40253"
       id="rect1313"
       width="60"
       height="0.40000001"
       x="3.0200005"
       y="4.0580001"
       inkscape:label="verde" />
    <rect
       style="display:inline;fill:#eeee77;fill-opacity:1;stroke-width:0.40253"
       id="rect1310"
       width="60"
       height="0.40000001"
       x="3.0200005"
       y="3.0580001"
       inkscape:label="giallo" />
    <rect
       style="display:inline;fill:#ff7777;fill-opacity:1;stroke-width:0.40253"
       id="rect989"
       width="60"
       height="0.40000001"
       x="3.0200005"
       y="2.0580001"
       inkscape:label="rosa" />
    <rect
       style="display:inline;fill:#bd0000;fill-opacity:1;stroke-width:0.40253"
       id="rect1308"
       width="60"
       height="0.40000001"
       x="2.7204449"
       y="0.65833217"
       transform="translate(0.29955559,0.400001)"
       inkscape:label="rosso" />
  </g>
  <g
     inkscape:groupmode="layer"
     id="g7864"
     inkscape:label="stripes copy"
     transform="matrix(0.53333333,0,0,0.77278577,5.2493337,123.58213)"
     style="display:inline;fill:#000000;stroke:none">
    <rect
       style="display:inline;fill:#0088ff;fill-opacity:1;stroke-width:0.40253"
       id="rect7854"
       width="60"
       height="0.40000001"
       x="3.0200005"
       y="5.0580001"
       inkscape:label="azzurro" />
    <rect
       style="display:inline;fill:#00cc55;fill-opacity:1;stroke-width:0.40253"
       id="rect7856"
       width="60"
       height="0.40000001"
       x="3.0200005"
       y="4.0580001"
       inkscape:label="verde" />
    <rect
       style="display:inline;fill:#eeee77;fill-opacity:1;stroke-width:0.40253"
       id="rect7858"
       width="60"
       height="0.40000001"
       x="3.0200005"
       y="3.0580001"
       inkscape:label="giallo" />
    <rect
       style="display:inline;fill:#ff7777;fill-opacity:1;stroke-width:0.40253"
       id="rect7860"
       width="60"
       height="0.40000001"
       x="3.0200005"
       y="2.0580001"
       inkscape:label="rosa" />
    <rect
       style="display:inline;fill:#bd0000;fill-opacity:1;stroke-width:0.40253"
       id="rect7862"
       width="60"
       height="0.40000001"
       x="3.0200007"
       y="1.0583332"
       inkscape:label="rosso" />
  </g>
  <g
     inkscape:groupmode="layer"
     id="layer4"
     inkscape:label="Elementi"
     style="fill:#f9f9f9">
    <rect
       style="display:inline;fill:#000033;stroke:#666699;stroke-width:0.5;stroke-dasharray:none;stroke-dashoffset:0;stroke-opacity:1;fill-opacity:1"
       id="rect930"
       width="43.314045"
       height="20.434549"
       x="1.2029781"
       y="9.2347002"
       ry="2.5"
       inkscape:label="clk rect" />
    <path
       style="display:inline;fill:none;stroke:#ededed;stroke-width:0.4;stroke-dasharray:none;stroke-dashoffset:0;stroke-opacity:1"
       id="path896"
       inkscape:label="circle fade"
       sodipodi:type="arc"
       sodipodi:cx="23.02636"
       sodipodi:cy="21.700001"
       sodipodi:rx="5.6999998"
       sodipodi:ry="5.6999998"
       sodipodi:start="2.0943951"
       sodipodi:end="1.0471976"
       sodipodi:arc-type="arc"
       d="m 20.17636,26.636345 a 5.6999998,5.6999998 0 0 1 -2.655777,-6.411613 5.6999998,5.6999998 0 0 1 5.505777,-4.224731 5.6999998,5.6999998 0 0 1 5.505777,4.224731 5.6999998,5.6999998 0 0 1 -2.655778,6.411614"
       sodipodi:open="true" />
    <rect
       style="fill:#000033;stroke:#666699;stroke-width:0.45;stroke-dasharray:none;stroke-dashoffset:0;stroke-opacity:1;fill-opacity:1"
       id="rect1002"
       width="44.148975"
       height="9.5219727"
       x="0.82551157"
       y="36.226326"
       inkscape:label="line 1"
       ry="2.5016332" />
    <rect
       style="display:inline;fill:#484884;fill-opacity:1;stroke:none;stroke-width:0.17588;stroke-dasharray:0.17588, 0.17588;stroke-dashoffset:0;stroke-opacity:1"
       id="rect1628"
       width="17.799999"
       height="9.1000004"
       x="18.450001"
       y="36.437313"
       inkscape:label="out 1" />
    <rect
       style="fill:#000033;stroke:#666699;stroke-width:0.45;stroke-dasharray:none;stroke-dashoffset:0;stroke-opacity:1;fill-opacity:1"
       id="rect18564"
       width="44.148975"
       height="9.5219727"
       x="0.82551157"
       y="47.032272"
       inkscape:label="line 2"
       ry="2.5016332" />
    <rect
       style="display:inline;fill:#484884;fill-opacity:1;stroke:none;stroke-width:0.178756;stroke-dasharray:0.178756, 0.178756;stroke-dashoffset:0;stroke-opacity:1"
       id="rect18566"
       width="17.799999"
       height="9.4000015"
       x="18.450001"
       y="47.093258"
       inkscape:label="out 2" />
    <rect
       style="fill:#000033;stroke:#666699;stroke-width:0.45;stroke-dasharray:none;stroke-dashoffset:0;stroke-opacity:1;fill-opacity:1"
       id="rect19208"
       width="44.148975"
       height="9.5219727"
       x="0.82551157"
       y="57.838226"
       inkscape:label="line 3"
       ry="2.5016332" />
    <rect
       style="display:inline;fill:#484884;fill-opacity:1;stroke:none;stroke-width:0.17588;stroke-dasharray:0.17588, 0.17588;stroke-dashoffset:0;stroke-opacity:1"
       id="rect19210"
       width="17.799999"
       height="9.1000004"
       x="18.450001"
       y="58.049213"
       inkscape:label="out 3" />
    <rect
       style="fill:#000033;stroke:#666699;stroke-width:0.45;stroke-dasharray:none;stroke-dashoffset:0;stroke-opacity:1;fill-opacity:1"
       id="rect19212"
       width="44.148975"
       height="9.5219727"
       x="0.82551157"
       y="68.644173"
       inkscape:label="line 4"
       ry="2.5016332" />
    <rect
       style="display:inline;fill:#484884;fill-opacity:1;stroke:none;stroke-width:0.17588;stroke-dasharray:0.17588, 0.17588;stroke-dashoffset:0;stroke-opacity:1"
       id="rect19214"
       width="17.799999"
       height="9.1000004"
       x="18.450001"
       y="68.855156"
       inkscape:label="out 4" />
    <rect
       style="fill:#000033;stroke:#666699;stroke-width:0.45;stroke-dasharray:none;stroke-dashoffset:0;stroke-opacity:1;fill-opacity:1"
       id="rect19348"
       width="44.148975"
       height="9.5219727"
       x="0.82551157"
       y="79.450127"
       inkscape:label="line 5"
       ry="2.5016332" />
    <rect
       style="display:inline;fill:#484884;fill-opacity:1;stroke:none;stroke-width:0.17588;stroke-dasharray:0.17588, 0.17588;stroke-dashoffset:0;stroke-opacity:1"
       id="rect19350"
       width="17.799999"
       height="9.1000004"
       x="18.450001"
       y="79.66111"
       inkscape:label="out 5" />
    <rect
       style="fill:#000033;stroke:#666699;stroke-width:0.45;stroke-dasharray:none;stroke-dashoffset:0;stroke-opacity:1;fill-opacity:1"
       id="rect19352"
       width="44.148975"
       height="9.5219727"
       x="0.82551157"
       y="90.256081"
       inkscape:label="line 6"
       ry="2.5016332" />
    <rect
       style="display:inline;fill:#484884;fill-opacity:1;stroke:none;stroke-width:0.17588;stroke-dasharray:0.17588, 0.17588;stroke-dashoffset:0;stroke-opacity:1"
       id="rect19354"
       width="17.799999"
       height="9.1000004"
       x="18.450001"
       y="90.467064"
       inkscape:label="out 6" />
    <rect
       style="fill:#000033;stroke:#666699;stroke-width:0.45;stroke-dasharray:none;stroke-dashoffset:0;stroke-opacity:1;fill-opacity:1"
       id="rect19356"
       width="44.148975"
       height="9.5219727"
       x="0.82551157"
       y="101.06202"
       inkscape:label="line 7"
       ry="2.5016332" />
    <rect
       style="display:inline;fill:#484884;fill-opacity:1;stroke:none;stroke-width:0.17588;stroke-dasharray:0.17588, 0.17588;stroke-dashoffset:0;stroke-opacity:1"
       id="rect19358"
       width="17.799999"
       height="9.1000004"
       x="18.450001"
       y="101.273"
       inkscape:label="out 7" />
    <rect
       style="fill:#000033;stroke:#666699;stroke-width:0.45;stroke-dasharray:none;stroke-dashoffset:0;stroke-opacity:1;fill-opacity:1"
       id="rect19360"
       width="44.148975"
       height="9.5219727"
       x="0.82551157"
       y="111.86798"
       inkscape:label="line 8"
       ry="2.5016332" />
    <rect
       style="display:inline;fill:#484884;fill-opacity:1;stroke:none;stroke-width:0.17588;stroke-dasharray:0.17588, 0.17588;stroke-dashoffset:0;stroke-opacity:1"
       id="rect19362"
       width="17.799999"
       height="9.1000004"
       x="18.450001"
       y="112.07896"
       inkscape:label="out 8" />
  </g>
  <g
     inkscape:groupmode="layer"
     id="layer5"
     inkscape:label="Etichette testo"
     style="display:none">
    <text
       xml:space="preserve"
       style="font-size:2.46944px;font-family:'C64 User';-inkscape-font-specification:'C64 User';text-align:center;text-anchor:middle;display:inline;fill:#ffffff;stroke:none;stroke-width:0.264999;stroke-dasharray:0.264999, 0.264999"
       x="41.128147"
       y="34.590702"
       id="text1443"
       inkscape:label="rst"><tspan
         sodipodi:role="line"
         id="tspan1441"
         style="font-size:2.46944px;text-align:center;text-anchor:middle;stroke:none;stroke-width:0.265"
         x="41.128147"
         y="34.590702">RST</tspan></text>
    <text
       xml:space="preserve"
       style="font-style:normal;font-variant:normal;font-weight:normal;font-stretch:normal;font-size:2.46944px;font-family:'C64 User';-inkscape-font-specification:'C64 User';text-align:center;text-anchor:middle;fill:#ffffff;stroke:none;stroke-width:0.264999;stroke-dasharray:0.264999, 0.264999;stroke-dashoffset:0;stroke-opacity:1"
       x="31.662497"
       y="34.590881"
       id="text2531"
       inkscape:label="gate"><tspan
         sodipodi:role="line"
         id="tspan2529"
         style="font-size:2.46944px;text-align:center;text-anchor:middle;stroke:none;stroke-width:0.265"
         x="31.662497"
         y="34.590881">GATE</tspan></text>
    <text
       xml:space="preserve"
       style="font-style:normal;font-variant:normal;font-weight:normal;font-stretch:normal;font-size:2.46944px;font-family:'C64 User';-inkscape-font-specification:'C64 User';text-align:center;text-anchor:middle;fill:#ffffff;stroke:none;stroke-width:0.264999;stroke-dasharray:0.264999, 0.264999;stroke-dashoffset:0;stroke-opacity:1"
       x="22.328146"
       y="34.590881"
       id="text2513"
       inkscape:label="out"><tspan
         sodipodi:role="line"
         id="tspan2511"
         style="font-size:2.46944px;text-align:center;text-anchor:middle;stroke:none;stroke-width:0.265"
         x="22.328146"
         y="34.590881">OUT</tspan></text>
    <text
       xml:space="preserve"
       style="font-style:normal;font-variant:normal;font-weight:normal;font-stretch:normal;font-size:2.46944px;font-family:'C64 User';-inkscape-font-specification:'C64 User';text-align:center;text-anchor:middle;display:inline;fill:#ffffff;stroke:none;stroke-width:0.264999;stroke-dasharray:0.264999, 0.264999;stroke-dashoffset:0;stroke-opacity:1"
       x="13.940276"
       y="34.544109"
       id="text2507"
       inkscape:label="in"><tspan
         sodipodi:role="line"
         id="tspan2505"
         style="font-size:2.46944px;text-align:center;text-anchor:middle;stroke:none;stroke-width:0.265"
         x="13.940276"
         y="34.544109">IN</tspan></text>
    <text
       xml:space="preserve"
       style="font-style:normal;font-variant:normal;font-weight:normal;font-stretch:normal;font-size:2.46944px;font-family:'C64 User';-inkscape-font-specification:'C64 User';text-align:center;text-anchor:middle;display:inline;fill:#ffffff;stroke:none;stroke-width:0.264999;stroke-dasharray:0.264999, 0.264999;stroke-dashoffset:0;stroke-opacity:1"
       x="5.1041636"
       y="34.544109"
       id="text2449"
       inkscape:label="arm"><tspan
         sodipodi:role="line"
         id="tspan2447"
         style="font-size:2.46944px;text-align:center;text-anchor:middle;stroke:none;stroke-width:0.265"
         x="5.1041636"
         y="34.544109">ARM</tspan></text>
    <text
       xml:space="preserve"
       style="font-size:2.82223px;line-height:1.1;font-family:'C64 User';-inkscape-font-specification:'C64 User';text-align:center;text-anchor:middle;white-space:pre;inline-size:8.11391;display:inline;fill:#ffffff;stroke:none;stroke-width:0.264999;stroke-dasharray:0.264999, 0.264999"
       x="50.800026"
       y="16.668739"
       id="text2570"
       inkscape:label="RESET ALL"
       transform="translate(-12.895628,-2.8520671)"><tspan
         x="50.800026"
         y="16.668739"
         id="tspan7749"><tspan
           style="stroke-width:0.265"
           id="tspan7747">RST
</tspan></tspan><tspan
         x="50.800026"
         y="19.773192"
         id="tspan7753"><tspan
           style="stroke-width:0.265"
           id="tspan7751">ALL</tspan></tspan></text>
    <text
       xml:space="preserve"
       style="font-style:normal;font-variant:normal;font-weight:normal;font-stretch:normal;font-size:2.82222px;font-family:'C64 User';-inkscape-font-specification:'C64 User';text-align:center;text-anchor:middle;fill:#ffffff;stroke:none;stroke-width:0.264999;stroke-dasharray:0.264999, 0.264999;stroke-dashoffset:0;stroke-opacity:1"
       x="22.707005"
       y="14.022901"
       id="text474"
       inkscape:label="fade"><tspan
         sodipodi:role="line"
         id="tspan472"
         style="font-size:2.82222px;text-align:center;text-anchor:middle;stroke:none;stroke-width:0.265"
         x="22.707005"
         y="14.022901">FADE</tspan></text>
    <text
       xml:space="preserve"
       style="font-style:normal;font-variant:normal;font-weight:normal;font-stretch:normal;font-size:2.82222px;font-family:'C64 User';-inkscape-font-specification:'C64 User';text-align:center;text-anchor:middle;display:inline;fill:#ffffff;stroke:none;stroke-width:0.264999;stroke-dasharray:0.264999, 0.264999;stroke-dashoffset:0;stroke-opacity:1"
       x="7.9731641"
       y="15.58125"
       id="text2453"
       inkscape:label="clock"><tspan
         sodipodi:role="line"
         id="tspan2451"
         style="font-size:2.82222px;text-align:center;text-anchor:middle;stroke:none;stroke-width:0.265"
         x="7.9731641"
         y="15.58125">CLK</tspan></text>
  </g>
  <g
     inkscape:groupmode="layer"
     id="g12491"
     inkscape:label="Etichette Path nere"
     style="display:inline;fill:#000000;stroke:none"
     transform="translate(0.3003226,0.399779)">
    <g
       aria-label="RST"
       id="g12425"
       style="font-size:2.46944px;font-family:'C64 User';-inkscape-font-specification:'C64 User';text-align:center;text-anchor:middle;display:inline;fill:#000000;stroke:none;stroke-width:0.264999;stroke-dasharray:0.264999, 0.264999"
       inkscape:label="rst"
       transform="translate(-0.099641)">
      <path
         d="m 37.986641,34.590702 v -2.160764 h 1.543403 v 0.308681 h 0.30868 v 0.617361 h -0.30868 v 0.30868 h -0.308681 v 0.308681 h 0.308681 v 0.30868 h 0.30868 v 0.308681 h -0.617361 v -0.308681 h -0.30868 v -0.30868 h -0.308681 v 0.617361 z m 0.617361,-1.234722 h 0.617361 v -0.617361 h -0.617361 z"
         style="fill:#000000;stroke:none;stroke-width:0.265"
         id="path12419" />
      <path
         d="m 40.456086,34.590702 v -0.308681 h -0.308681 v -0.30868 h 0.617361 v 0.30868 h 0.617361 V 33.66466 h -0.926041 v -0.30868 h -0.308681 v -0.617361 h 0.308681 v -0.308681 h 1.234722 v 0.308681 h 0.30868 v 0.30868 h -0.617361 v -0.30868 h -0.617361 v 0.617361 h 0.926042 v 0.30868 h 0.30868 v 0.617361 h -0.30868 v 0.308681 z"
         style="fill:#000000;stroke:none;stroke-width:0.265"
         id="path12421" />
      <path
         d="m 42.92553,34.590702 v -1.852083 h -0.617361 v -0.308681 h 1.852083 v 0.308681 h -0.617361 v 1.852083 z"
         style="fill:#000000;stroke:none;stroke-width:0.265"
         id="path12423" />
    </g>
    <g
       aria-label="GATE"
       id="g12435"
       style="font-size:2.46944px;font-family:'C64 User';-inkscape-font-specification:'C64 User';text-align:center;text-anchor:middle;display:inline;fill:#000000;stroke:none;stroke-width:0.264999;stroke-dasharray:0.264999, 0.264999"
       inkscape:label="gate">
      <path
         d="m 27.649649,34.590881 v -0.30868 h -0.30868 v -1.543403 h 0.30868 v -0.308681 h 1.234722 v 0.308681 h 0.308681 v 0.308681 H 28.575691 V 32.738798 H 27.95833 v 1.543403 h 0.617361 V 33.66484 H 28.26701 v -0.308681 h 0.926042 v 0.926042 h -0.308681 v 0.30868 z"
         style="fill:#000000;stroke:none;stroke-width:0.265"
         id="path12427" />
      <path
         d="m 29.501733,34.590881 v -1.543402 h 0.30868 v -0.308681 h 0.308681 v -0.308681 h 0.617361 v 0.308681 h 0.30868 v 0.308681 h 0.308681 v 1.543402 H 30.736455 V 33.66484 h -0.617361 v 0.926041 z m 0.617361,-1.234722 h 0.617361 v -0.30868 h -0.617361 z"
         style="fill:#000000;stroke:none;stroke-width:0.265"
         id="path12429" />
      <path
         d="m 32.279858,34.590881 v -1.852083 h -0.617361 v -0.308681 h 1.852083 v 0.308681 h -0.617361 v 1.852083 z"
         style="fill:#000000;stroke:none;stroke-width:0.265"
         id="path12431" />
      <path
         d="m 35.675344,32.430117 v 0.308681 h -1.234722 v 0.617361 h 0.617361 v 0.308681 h -0.617361 v 0.617361 h 1.234722 v 0.30868 h -1.852083 v -2.160764 z"
         style="fill:#000000;stroke:none;stroke-width:0.265"
         id="path12433" />
    </g>
    <g
       aria-label="OUT"
       id="g12443"
       style="font-size:2.46944px;font-family:'C64 User';-inkscape-font-specification:'C64 User';text-align:center;text-anchor:middle;display:inline;fill:#000000;stroke:none;stroke-width:0.264999;stroke-dasharray:0.264999, 0.264999"
       inkscape:label="out"
       transform="translate(0.200371)">
      <path
         d="m 19.19531,34.590881 v -0.30868 h -0.308681 v -1.543403 h 0.308681 v -0.308681 h 1.234722 v 0.308681 h 0.308681 v 1.543403 h -0.308681 v 0.30868 z m 0.30868,-0.30868 h 0.617362 V 32.738798 H 19.50399 Z"
         style="fill:#000000;stroke:none;stroke-width:0.265"
         id="path12437" />
      <path
         d="m 21.356074,34.590881 v -0.30868 h -0.308681 v -1.852084 h 0.617361 v 1.852084 h 0.617362 v -1.852084 h 0.617361 v 1.852084 h -0.308681 v 0.30868 z"
         style="fill:#000000;stroke:none;stroke-width:0.265"
         id="path12439" />
      <path
         d="m 23.825518,34.590881 v -1.852083 h -0.617361 v -0.308681 h 1.852084 v 0.308681 h -0.617362 v 1.852083 z"
         style="fill:#000000;stroke:none;stroke-width:0.265"
         id="path12441" />
    </g>
    <g
       aria-label="IN"
       id="g12449"
       style="font-size:2.46944px;font-family:'C64 User';-inkscape-font-specification:'C64 User';text-align:center;text-anchor:middle;display:inline;fill:#000000;stroke:none;stroke-width:0.264999;stroke-dasharray:0.264999, 0.264999"
       inkscape:label="in">
      <path
         d="m 13.322915,32.383345 v 0.308681 h -0.308681 v 1.543403 h 0.308681 v 0.30868 h -1.234722 v -0.30868 h 0.30868 v -1.543403 h -0.30868 v -0.308681 z"
         style="fill:#000000;stroke:none;stroke-width:0.265"
         id="path12445" />
      <path
         d="m 13.631596,34.544109 v -2.160764 h 0.617361 v 0.308681 h 0.30868 v 0.308681 h 0.308681 v -0.617362 h 0.617361 v 2.160764 h -0.617361 v -0.617361 h -0.308681 v -0.30868 h -0.30868 v 0.926041 z"
         style="fill:#000000;stroke:none;stroke-width:0.265"
         id="path12447" />
    </g>
    <g
       aria-label="ARM"
       id="g12457"
       style="font-size:2.46944px;font-family:'C64 User';-inkscape-font-specification:'C64 User';text-align:center;text-anchor:middle;display:inline;fill:#000000;stroke:none;stroke-width:0.264999;stroke-dasharray:0.264999, 0.264999"
       inkscape:label="arm">
      <path
         d="M 1.7086774,34.544109 V 33.000707 H 2.017358 v -0.308681 h 0.3086806 v -0.308681 h 0.6173611 v 0.308681 h 0.3086806 v 0.308681 h 0.3086805 v 1.543402 H 2.9433997 V 33.618068 H 2.3260386 v 0.926041 z m 0.6173612,-1.234722 h 0.6173611 v -0.30868 H 2.3260386 Z"
         style="fill:#000000;stroke:none;stroke-width:0.265"
         id="path12451" />
      <path
         d="m 3.8694414,34.544109 v -2.160764 h 1.5434028 v 0.308681 h 0.3086806 v 0.617361 H 5.4128442 v 0.308681 H 5.1041637 v 0.30868 h 0.3086805 v 0.308681 h 0.3086806 v 0.30868 H 5.1041637 v -0.30868 H 4.7954831 V 33.926748 H 4.4868025 v 0.617361 z M 4.4868025,33.309387 H 5.1041637 V 32.692026 H 4.4868025 Z"
         style="fill:#000000;stroke:none;stroke-width:0.265"
         id="path12453" />
      <path
         d="m 6.0302054,34.544109 v -2.160764 h 0.6173611 v 0.308681 h 0.3086806 v 0.308681 h 0.3086806 v -0.308681 h 0.3086805 v -0.308681 h 0.6173611 v 2.160764 H 7.5736082 V 33.309387 H 7.2649277 v 0.308681 H 6.9562471 V 33.309387 H 6.6475665 v 1.234722 z"
         style="fill:#000000;stroke:none;stroke-width:0.265"
         id="path12455" />
    </g>
    <g
       aria-label="RST ALL"
       transform="translate(-12.895628,-2.852067)"
       id="g12471"
       style="font-size:2.82223px;line-height:1.1;font-family:'C64 User';-inkscape-font-specification:'C64 User';text-align:center;text-anchor:middle;white-space:pre;inline-size:8.11391;display:inline;fill:#000000;stroke:none;stroke-width:0.264999;stroke-dasharray:0.264999, 0.264999"
       inkscape:label="RESET ALL">
      <path
         d="m 47.095628,16.668739 v -2.469451 h 1.763893 v 0.352779 H 49.2123 v 0.705557 h -0.352779 v 0.352779 h -0.352778 v 0.352779 h 0.352778 v 0.352779 H 49.2123 v 0.352778 h -0.705557 v -0.352778 h -0.352779 v -0.352779 h -0.352779 v 0.705557 z m 0.705557,-1.411115 h 0.705558 v -0.705557 h -0.705558 z"
         style="fill:#000000;stroke:none;stroke-width:0.265"
         id="path12459" />
      <path
         d="m 49.917858,16.668739 v -0.352778 h -0.352779 v -0.352779 h 0.705558 v 0.352779 h 0.705557 v -0.705558 h -1.058336 v -0.352779 h -0.352779 v -0.705557 h 0.352779 v -0.352779 h 1.411115 v 0.352779 h 0.352779 v 0.352779 h -0.705558 v -0.352779 h -0.705557 v 0.705557 h 1.058336 v 0.352779 h 0.352779 v 0.705558 h -0.352779 v 0.352778 z"
         style="fill:#000000;stroke:none;stroke-width:0.265"
         id="path12461" />
      <path
         d="m 52.740088,16.668739 v -2.116672 h -0.705557 v -0.352779 h 2.116672 v 0.352779 h -0.705557 v 2.116672 z"
         style="fill:#000000;stroke:none;stroke-width:0.265"
         id="path12463" />
      <path
         d="m 47.095628,19.773192 v -1.763894 h 0.352778 v -0.352779 h 0.352779 v -0.352778 h 0.705558 v 0.352778 h 0.352778 v 0.352779 H 49.2123 v 1.763894 h -0.705557 v -1.058336 h -0.705558 v 1.058336 z m 0.705557,-1.411115 h 0.705558 v -0.352779 h -0.705558 z"
         style="fill:#000000;stroke:none;stroke-width:0.265"
         id="path12465" />
      <path
         d="m 50.270637,17.303741 v 2.116672 h 1.411115 v 0.352779 h -2.116673 v -2.469451 z"
         style="fill:#000000;stroke:none;stroke-width:0.265"
         id="path12467" />
      <path
         d="m 52.740088,17.303741 v 2.116672 h 1.411115 v 0.352779 h -2.116672 v -2.469451 z"
         style="fill:#000000;stroke:none;stroke-width:0.265"
         id="path12469" />
    </g>
    <g
       aria-label="FADE"
       id="g12481"
       style="font-size:2.82222px;font-family:'C64 User';-inkscape-font-specification:'C64 User';text-align:center;text-anchor:middle;display:inline;fill:#000000;stroke:none;stroke-width:0.264999;stroke-dasharray:0.264999, 0.264999"
       inkscape:label="fade">
      <path
         d="m 17.768119,14.022901 v -2.469443 h 2.116665 v 0.352778 h -1.41111 v 0.705555 h 0.705555 v 0.352777 h -0.705555 v 1.058333 z"
         style="fill:#000000;stroke:none;stroke-width:0.265"
         id="path12473" />
      <path
         d="m 20.237562,14.022901 v -1.763888 h 0.352778 v -0.352777 h 0.352777 v -0.352778 h 0.705555 v 0.352778 h 0.352778 v 0.352777 h 0.352777 v 1.763888 h -0.705555 v -1.058333 h -0.705555 v 1.058333 z m 0.705555,-1.41111 h 0.705555 v -0.352778 h -0.705555 z"
         style="fill:#000000;stroke:none;stroke-width:0.265"
         id="path12475" />
      <path
         d="m 22.707005,14.022901 v -2.469443 h 1.41111 v 0.352778 h 0.352777 v 0.352777 h 0.352778 v 1.058333 h -0.352778 v 0.352777 h -0.352777 v 0.352778 z m 0.705555,-0.352778 h 0.352777 v -0.352777 h 0.352778 V 12.259013 H 23.765337 V 11.906236 H 23.41256 Z"
         style="fill:#000000;stroke:none;stroke-width:0.265"
         id="path12477" />
      <path
         d="m 27.293113,11.553458 v 0.352778 h -1.411111 v 0.705555 h 0.705555 v 0.352777 h -0.705555 v 0.705555 h 1.411111 v 0.352778 h -2.116666 v -2.469443 z"
         style="fill:#000000;stroke:none;stroke-width:0.265"
         id="path12479" />
    </g>
    <g
       aria-label="CLK"
       id="g12489"
       style="font-size:2.82222px;font-family:'C64 User';-inkscape-font-specification:'C64 User';text-align:center;text-anchor:middle;display:inline;fill:#000000;stroke:none;stroke-width:0.264999;stroke-dasharray:0.264999, 0.264999"
       inkscape:label="clock"
       transform="translate(0.9997266)">
      <path
         d="M 3.622051,15.58125 V 15.228473 H 3.2692734 V 13.464585 H 3.622051 v -0.352777 h 1.41111 v 0.352777 h 0.3527775 v 0.352778 h -0.705555 v -0.352778 h -0.705555 v 1.763888 h 0.705555 v -0.352778 h 0.705555 v 0.352778 H 5.033161 v 0.352777 z"
         style="fill:#000000;stroke:none;stroke-width:0.265"
         id="path12483" />
      <path
         d="m 6.4442711,13.111808 v 2.116665 h 1.41111 v 0.352777 h -2.116665 v -2.469442 z"
         style="fill:#000000;stroke:none;stroke-width:0.265"
         id="path12485" />
      <path
         d="m 8.2081587,15.58125 v -2.469442 h 0.705555 v 0.705555 h 0.3527775 v -0.352778 h 0.3527775 v -0.352777 h 0.7055553 v 0.352777 H 9.9720462 v 0.352778 H 9.6192687 V 14.17014 H 9.2664912 v 0.352778 h 0.3527775 v 0.352777 h 0.3527775 v 0.352778 H 10.324824 V 15.58125 H 9.6192687 V 15.228473 H 9.2664912 V 14.875695 H 8.9137137 v 0.705555 z"
         style="fill:#000000;stroke:none;stroke-width:0.265"
         id="path12487" />
    </g>
  </g>
  <g
     inkscape:groupmode="layer"
     id="g6561"
     inkscape:label="Etichette Path"
     style="display:inline">
    <g
       aria-label="RST"
       id="text16946"
       style="font-size:2.46944px;font-family:'C64 User';-inkscape-font-specification:'C64 User';text-align:center;text-anchor:middle;display:inline;fill:#ffffff;stroke-width:0.264999;stroke-dasharray:0.264999, 0.264999"
       inkscape:label="rst"
       transform="translate(-0.099641)">
      <path
         d="m 37.986641,34.590702 v -2.160764 h 1.543403 v 0.308681 h 0.30868 v 0.617361 h -0.30868 v 0.30868 h -0.308681 v 0.308681 h 0.308681 v 0.30868 h 0.30868 v 0.308681 h -0.617361 v -0.308681 h -0.30868 v -0.30868 h -0.308681 v 0.617361 z m 0.617361,-1.234722 h 0.617361 v -0.617361 h -0.617361 z"
         style="stroke-width:0.265"
         id="path17058" />
      <path
         d="m 40.456086,34.590702 v -0.308681 h -0.308681 v -0.30868 h 0.617361 v 0.30868 h 0.617361 V 33.66466 h -0.926041 v -0.30868 h -0.308681 v -0.617361 h 0.308681 v -0.308681 h 1.234722 v 0.308681 h 0.30868 v 0.30868 h -0.617361 v -0.30868 h -0.617361 v 0.617361 h 0.926042 v 0.30868 h 0.30868 v 0.617361 h -0.30868 v 0.308681 z"
         style="stroke-width:0.265"
         id="path17060" />
      <path
         d="m 42.92553,34.590702 v -1.852083 h -0.617361 v -0.308681 h 1.852083 v 0.308681 h -0.617361 v 1.852083 z"
         style="stroke-width:0.265"
         id="path17062" />
    </g>
    <g
       aria-label="GATE"
       id="text16950"
       style="font-size:2.46944px;font-family:'C64 User';-inkscape-font-specification:'C64 User';text-align:center;text-anchor:middle;display:inline;fill:#ffffff;stroke-width:0.264999;stroke-dasharray:0.264999, 0.264999"
       inkscape:label="gate">
      <path
         d="m 27.649649,34.590881 v -0.30868 h -0.30868 v -1.543403 h 0.30868 v -0.308681 h 1.234722 v 0.308681 h 0.308681 v 0.308681 H 28.575691 V 32.738798 H 27.95833 v 1.543403 h 0.617361 V 33.66484 H 28.26701 v -0.308681 h 0.926042 v 0.926042 h -0.308681 v 0.30868 z"
         style="stroke-width:0.265"
         id="path17049" />
      <path
         d="m 29.501733,34.590881 v -1.543402 h 0.30868 v -0.308681 h 0.308681 v -0.308681 h 0.617361 v 0.308681 h 0.30868 v 0.308681 h 0.308681 v 1.543402 H 30.736455 V 33.66484 h -0.617361 v 0.926041 z m 0.617361,-1.234722 h 0.617361 v -0.30868 h -0.617361 z"
         style="stroke-width:0.265"
         id="path17051" />
      <path
         d="m 32.279858,34.590881 v -1.852083 h -0.617361 v -0.308681 h 1.852083 v 0.308681 h -0.617361 v 1.852083 z"
         style="stroke-width:0.265"
         id="path17053" />
      <path
         d="m 35.675344,32.430117 v 0.308681 h -1.234722 v 0.617361 h 0.617361 v 0.308681 h -0.617361 v 0.617361 h 1.234722 v 0.30868 h -1.852083 v -2.160764 z"
         style="stroke-width:0.265"
         id="path17055" />
    </g>
    <g
       aria-label="OUT"
       id="text16954"
       style="font-size:2.46944px;font-family:'C64 User';-inkscape-font-specification:'C64 User';text-align:center;text-anchor:middle;display:inline;fill:#ffffff;stroke-width:0.264999;stroke-dasharray:0.264999, 0.264999"
       inkscape:label="out"
       transform="translate(0.200371)">
      <path
         d="m 19.19531,34.590881 v -0.30868 h -0.308681 v -1.543403 h 0.308681 v -0.308681 h 1.234722 v 0.308681 h 0.308681 v 1.543403 h -0.308681 v 0.30868 z m 0.30868,-0.30868 h 0.617362 V 32.738798 H 19.50399 Z"
         style="stroke-width:0.265"
         id="path17042" />
      <path
         d="m 21.356074,34.590881 v -0.30868 h -0.308681 v -1.852084 h 0.617361 v 1.852084 h 0.617362 v -1.852084 h 0.617361 v 1.852084 h -0.308681 v 0.30868 z"
         style="stroke-width:0.265"
         id="path17044" />
      <path
         d="m 23.825518,34.590881 v -1.852083 h -0.617361 v -0.308681 h 1.852084 v 0.308681 h -0.617362 v 1.852083 z"
         style="stroke-width:0.265"
         id="path17046" />
    </g>
    <g
       aria-label="IN"
       id="text16958"
       style="font-size:2.46944px;font-family:'C64 User';-inkscape-font-specification:'C64 User';text-align:center;text-anchor:middle;display:inline;fill:#ffffff;stroke-width:0.264999;stroke-dasharray:0.264999, 0.264999"
       inkscape:label="in">
      <path
         d="m 13.322915,32.383345 v 0.308681 h -0.308681 v 1.543403 h 0.308681 v 0.30868 h -1.234722 v -0.30868 h 0.30868 v -1.543403 h -0.30868 v -0.308681 z"
         style="stroke-width:0.265"
         id="path17037" />
      <path
         d="m 13.631596,34.544109 v -2.160764 h 0.617361 v 0.308681 h 0.30868 v 0.308681 h 0.308681 v -0.617362 h 0.617361 v 2.160764 h -0.617361 v -0.617361 h -0.308681 v -0.30868 h -0.30868 v 0.926041 z"
         style="stroke-width:0.265"
         id="path17039" />
    </g>
    <g
       aria-label="ARM"
       id="text16962"
       style="font-size:2.46944px;font-family:'C64 User';-inkscape-font-specification:'C64 User';text-align:center;text-anchor:middle;display:inline;fill:#ffffff;stroke-width:0.264999;stroke-dasharray:0.264999, 0.264999"
       inkscape:label="arm">
      <path
         d="M 1.7086774,34.544109 V 33.000707 H 2.017358 v -0.308681 h 0.3086806 v -0.308681 h 0.6173611 v 0.308681 h 0.3086806 v 0.308681 h 0.3086805 v 1.543402 H 2.9433997 V 33.618068 H 2.3260386 v 0.926041 z m 0.6173612,-1.234722 h 0.6173611 v -0.30868 H 2.3260386 Z"
         style="stroke-width:0.265"
         id="path17030" />
      <path
         d="m 3.8694414,34.544109 v -2.160764 h 1.5434028 v 0.308681 h 0.3086806 v 0.617361 H 5.4128442 v 0.308681 H 5.1041637 v 0.30868 h 0.3086805 v 0.308681 h 0.3086806 v 0.30868 H 5.1041637 v -0.30868 H 4.7954831 V 33.926748 H 4.4868025 v 0.617361 z M 4.4868025,33.309387 H 5.1041637 V 32.692026 H 4.4868025 Z"
         style="stroke-width:0.265"
         id="path17032" />
      <path
         d="m 6.0302054,34.544109 v -2.160764 h 0.6173611 v 0.308681 h 0.3086806 v 0.308681 h 0.3086806 v -0.308681 h 0.3086805 v -0.308681 h 0.6173611 v 2.160764 H 7.5736082 V 33.309387 H 7.2649277 v 0.308681 H 6.9562471 V 33.309387 H 6.6475665 v 1.234722 z"
         style="stroke-width:0.265"
         id="path17034" />
    </g>
    <g
       aria-label="RST ALL"
       transform="translate(-12.895628,-2.852067)"
       id="text16972"
       style="font-size:2.82223px;line-height:1.1;font-family:'C64 User';-inkscape-font-specification:'C64 User';text-align:center;text-anchor:middle;white-space:pre;inline-size:8.11391;display:inline;fill:#ffffff;stroke-width:0.264999;stroke-dasharray:0.264999, 0.264999"
       inkscape:label="RESET ALL">
      <path
         d="m 47.095628,16.668739 v -2.469451 h 1.763893 v 0.352779 H 49.2123 v 0.705557 h -0.352779 v 0.352779 h -0.352778 v 0.352779 h 0.352778 v 0.352779 H 49.2123 v 0.352778 h -0.705557 v -0.352778 h -0.352779 v -0.352779 h -0.352779 v 0.705557 z m 0.705557,-1.411115 h 0.705558 v -0.705557 h -0.705558 z"
         style="stroke-width:0.265"
         id="path17017" />
      <path
         d="m 49.917858,16.668739 v -0.352778 h -0.352779 v -0.352779 h 0.705558 v 0.352779 h 0.705557 v -0.705558 h -1.058336 v -0.352779 h -0.352779 v -0.705557 h 0.352779 v -0.352779 h 1.411115 v 0.352779 h 0.352779 v 0.352779 h -0.705558 v -0.352779 h -0.705557 v 0.705557 h 1.058336 v 0.352779 h 0.352779 v 0.705558 h -0.352779 v 0.352778 z"
         style="stroke-width:0.265"
         id="path17019" />
      <path
         d="m 52.740088,16.668739 v -2.116672 h -0.705557 v -0.352779 h 2.116672 v 0.352779 h -0.705557 v 2.116672 z"
         style="stroke-width:0.265"
         id="path17021" />
      <path
         d="m 47.095628,19.773192 v -1.763894 h 0.352778 v -0.352779 h 0.352779 v -0.352778 h 0.705558 v 0.352778 h 0.352778 v 0.352779 H 49.2123 v 1.763894 h -0.705557 v -1.058336 h -0.705558 v 1.058336 z m 0.705557,-1.411115 h 0.705558 v -0.352779 h -0.705558 z"
         style="stroke-width:0.265"
         id="path17023" />
      <path
         d="m 50.270637,17.303741 v 2.116672 h 1.411115 v 0.352779 h -2.116673 v -2.469451 z"
         style="stroke-width:0.265"
         id="path17025" />
      <path
         d="m 52.740088,17.303741 v 2.116672 h 1.411115 v 0.352779 h -2.116672 v -2.469451 z"
         style="stroke-width:0.265"
         id="path17027" />
    </g>
    <g
       aria-label="FADE"
       id="text16976"
       style="font-size:2.82222px;font-family:'C64 User';-inkscape-font-specification:'C64 User';text-align:center;text-anchor:middle;display:inline;fill:#ffffff;stroke-width:0.264999;stroke-dasharray:0.264999, 0.264999"
       inkscape:label="fade">
      <path
         d="m 17.768119,14.022901 v -2.469443 h 2.116665 v 0.352778 h -1.41111 v 0.705555 h 0.705555 v 0.352777 h -0.705555 v 1.058333 z"
         style="stroke-width:0.265"
         id="path17008" />
      <path
         d="m 20.237562,14.022901 v -1.763888 h 0.352778 v -0.352777 h 0.352777 v -0.352778 h 0.705555 v 0.352778 h 0.352778 v 0.352777 h 0.352777 v 1.763888 h -0.705555 v -1.058333 h -0.705555 v 1.058333 z m 0.705555,-1.41111 h 0.705555 v -0.352778 h -0.705555 z"
         style="stroke-width:0.265"
         id="path17010" />
      <path
         d="m 22.707005,14.022901 v -2.469443 h 1.41111 v 0.352778 h 0.352777 v 0.352777 h 0.352778 v 1.058333 h -0.352778 v 0.352777 h -0.352777 v 0.352778 z m 0.705555,-0.352778 h 0.352777 v -0.352777 h 0.352778 V 12.259013 H 23.765337 V 11.906236 H 23.41256 Z"
         style="stroke-width:0.265"
         id="path17012" />
      <path
         d="m 27.293113,11.553458 v 0.352778 h -1.411111 v 0.705555 h 0.705555 v 0.352777 h -0.705555 v 0.705555 h 1.411111 v 0.352778 h -2.116666 v -2.469443 z"
         style="stroke-width:0.265"
         id="path17014" />
    </g>
    <g
       aria-label="CLK"
       id="text16980"
       style="font-size:2.82222px;font-family:'C64 User';-inkscape-font-specification:'C64 User';text-align:center;text-anchor:middle;display:inline;fill:#ffffff;stroke-width:0.264999;stroke-dasharray:0.264999, 0.264999"
       inkscape:label="clock"
       transform="translate(0.9997266)">
      <path
         d="M 3.622051,15.58125 V 15.228473 H 3.2692734 V 13.464585 H 3.622051 v -0.352777 h 1.41111 v 0.352777 h 0.3527775 v 0.352778 h -0.705555 v -0.352778 h -0.705555 v 1.763888 h 0.705555 v -0.352778 h 0.705555 v 0.352778 H 5.033161 v 0.352777 z"
         style="stroke-width:0.265"
         id="path17001" />
      <path
         d="m 6.4442711,13.111808 v 2.116665 h 1.41111 v 0.352777 h -2.116665 v -2.469442 z"
         style="stroke-width:0.265"
         id="path17003" />
      <path
         d="m 8.2081587,15.58125 v -2.469442 h 0.705555 v 0.705555 h 0.3527775 v -0.352778 h 0.3527775 v -0.352777 h 0.7055553 v 0.352777 H 9.9720462 v 0.352778 H 9.6192687 V 14.17014 H 9.2664912 v 0.352778 h 0.3527775 v 0.352777 h 0.3527775 v 0.352778 H 10.324824 V 15.58125 H 9.6192687 V 15.228473 H 9.2664912 V 14.875695 H 8.9137137 v 0.705555 z"
         style="stroke-width:0.265"
         id="path17005" />
    </g>
  </g>
  <g
     inkscape:label="header footer"
     inkscape:groupmode="layer"
     id="layer1"
     style="display:inline">
    <text
       xml:space="preserve"
       style="font-style:normal;font-variant:normal;font-weight:normal;font-stretch:normal;font-size:3.175px;font-family:'C64 User';-inkscape-font-specification:'C64 User';display:none;fill:#ffffff;stroke-width:0.264583"
       x="10.953751"
       y="4.9781251"
       id="text1341"
       inkscape:label="btoggler"><tspan
         sodipodi:role="line"
         id="tspan1339"
         style="font-size:3.175px;fill:#ffffff;stroke-width:0.264583"
         x="10.953751"
         y="4.9781251">btoggler8</tspan></text>
    <rect
       style="display:inline;fill:#00000a;fill-opacity:1;stroke:#666699;stroke-width:0.4;stroke-dasharray:none;stroke-dashoffset:0;stroke-opacity:1"
       id="rect1447-8"
       width="24.287165"
       height="3.6871655"
       x="10.716417"
       y="124.256"
       inkscape:label="footer rect"
       ry="1.2" />
    <g
       aria-label="sickozell"
       id="text1308"
       style="font-size:3.175px;font-family:'C64 User';-inkscape-font-specification:'C64 User';display:inline;fill:#cccccc;fill-opacity:1;stroke-width:0.264583"
       inkscape:label="sickozell"
       transform="translate(10.265847,0.78404275)">
      <path
         d="m 4.0613409,124.52178 v 0.39688 h -1.5875 v 0.39687 h 1.190625 v 0.39688 h 0.396875 v 0.39687 h -0.396875 v 0.39688 h -1.984375 v -0.39688 h 1.5875 v -0.39687 h -1.190625 v -0.39688 h -0.396875 v -0.39687 h 0.396875 v -0.39688 z"
         style="fill:#cccccc;fill-opacity:1"
         id="path1312" />
      <path
         d="m 4.458216,126.50616 v -0.39688 h 0.3968749 v -0.79375 H 4.458216 v -0.39687 h 1.1906249 v 1.19062 h 0.396875 v 0.39688 z m 0.3968749,-1.98438 v -0.39687 h 0.79375 v 0.39687 z"
         style="fill:#cccccc;fill-opacity:1"
         id="path1314" />
      <path
         d="m 6.8394657,126.50616 v -0.39688 h -0.396875 v -1.19062 h 0.396875 v -0.39688 h 1.5875 v 0.39688 h -1.190625 v 1.19062 h 1.190625 v 0.39688 z"
         style="fill:#cccccc;fill-opacity:1"
         id="path1316" />
      <path
         d="m 8.8238411,126.50616 v -2.38125 h 0.79375 v 1.19062 h 0.3968749 v -0.39687 h 0.79375 v 0.39687 h -0.396875 v 0.39688 h 0.396875 v 0.39687 h 0.396875 v 0.39688 h -0.79375 v -0.39688 h -0.396875 v -0.39687 H 9.6175911 v 0.79375 z"
         style="fill:#cccccc;fill-opacity:1"
         id="path1318" />
      <path
         d="m 11.998841,126.50616 v -0.39688 h -0.396875 v -1.19062 h 0.396875 v -0.39688 h 1.5875 v 0.39688 h 0.396875 v 1.19062 h -0.396875 v 0.39688 z m 0.396875,-0.39688 h 0.79375 v -1.19062 h -0.79375 z"
         style="fill:#cccccc;fill-opacity:1"
         id="path1320" />
      <path
         d="m 14.380091,126.50616 v -0.39688 h 0.396875 v -0.39687 h 0.396875 v -0.39688 h 0.396875 v -0.39687 h -1.190625 v -0.39688 h 2.38125 v 0.39688 h -0.396875 v 0.39687 h -0.396875 v 0.39688 h -0.396875 v 0.39687 h 1.190625 v 0.39688 z"
         style="fill:#cccccc;fill-opacity:1"
         id="path1322" />
      <path
         d="m 18.745715,124.91866 h -0.793749 v 0.39687 h 0.793749 z m 0.396875,-0.39688 v 0.39688 h 0.396875 v 0.79375 h -1.587499 v 0.39687 h 1.190624 v 0.39688 h -1.587499 v -0.39688 h -0.396875 v -1.19062 h 0.396875 v -0.39688 z"
         style="fill:#cccccc;fill-opacity:1"
         id="path1324" />
      <path
         d="m 21.126966,124.12491 v 1.98437 h 0.396875 v 0.39688 h -1.5875 v -0.39688 h 0.396875 v -1.5875 h -0.396875 v -0.39687 z"
         style="fill:#cccccc;fill-opacity:1"
         id="path1326" />
      <path
         d="m 23.111341,124.12491 v 1.98437 h 0.396875 v 0.39688 h -1.5875 v -0.39688 h 0.396875 v -1.5875 h -0.396875 v -0.39687 z"
         style="fill:#cccccc;fill-opacity:1"
         id="path1328" />
    </g>
    <rect
       style="display:inline;fill:#00000a;stroke:#666699;stroke-width:0.5;stroke-dasharray:none;stroke-dashoffset:0;stroke-opacity:1;fill-opacity:1"
       id="rect2138"
       width="28.999594"
       height="5.2117929"
       x="8.3602037"
       y="1.2232717"
       ry="1.8"
       inkscape:label="header rect" />
    <g
       aria-label="btoggler8"
       id="text1713"
       style="font-size:3.175px;font-family:'C64 User';-inkscape-font-specification:'C64 User';display:inline;fill:#e6e6e6;stroke-width:0.264583"
       inkscape:label="btoggler"
       transform="translate(0,0.1867137)">
      <path
         d="m 11.747501,4.4945363 h 0.79375 v -0.79375 h -0.79375 z m -0.79375,0.396875 v -2.38125 h 0.79375 v 0.79375 h 1.190625 v 0.396875 h 0.396875 v 0.79375 h -0.396875 v 0.396875 z"
         id="path1715"
         style="fill:#e6e6e6" />
      <path
         d="m 15.319376,2.5101613 v 0.396875 h 0.79375 v 0.396875 h -0.79375 v 1.190625 h 0.79375 v 0.396875 h -1.190625 v -0.396875 h -0.396875 v -1.190625 h -0.79375 v -0.396875 h 0.79375 v -0.396875 z"
         id="path1717"
         style="fill:#e6e6e6" />
      <path
         d="m 16.906876,4.8914113 v -0.396875 h -0.396875 v -1.190625 h 0.396875 v -0.396875 h 1.5875 v 0.396875 h 0.396875 v 1.190625 h -0.396875 v 0.396875 z m 0.396875,-0.396875 h 0.79375 v -1.190625 h -0.79375 z"
         id="path1719"
         style="fill:#e6e6e6" />
      <path
         d="m 19.288126,5.2882863 v -0.396875 h 1.5875 v -0.396875 h -1.190625 v -0.396875 h -0.396875 v -0.79375 h 0.396875 v -0.396875 h 1.984375 v 1.984375 h -0.396875 v 0.396875 z m 0.79375,-1.190625 h 0.79375 v -0.79375 h -0.79375 z"
         id="path1721"
         style="fill:#e6e6e6" />
      <path
         d="m 22.066251,5.2882863 v -0.396875 h 1.5875 v -0.396875 h -1.190625 v -0.396875 h -0.396875 v -0.79375 h 0.396875 v -0.396875 h 1.984375 v 1.984375 h -0.396875 v 0.396875 z m 0.79375,-1.190625 h 0.79375 v -0.79375 h -0.79375 z"
         id="path1723"
         style="fill:#e6e6e6" />
      <path
         d="m 26.035001,2.5101613 v 1.984375 h 0.396875 v 0.396875 h -1.5875 v -0.396875 h 0.396875 v -1.5875 h -0.396875 v -0.396875 z"
         id="path1725"
         style="fill:#e6e6e6" />
      <path
         d="m 28.416251,3.3039113 h -0.79375 v 0.396875 h 0.79375 z m 0.396875,-0.396875 v 0.396875 h 0.396875 v 0.79375 h -1.5875 v 0.396875 h 1.190625 v 0.396875 h -1.5875 v -0.396875 h -0.396875 v -1.190625 h 0.396875 v -0.396875 z"
         id="path1727"
         style="fill:#e6e6e6" />
      <path
         d="m 29.606876,4.8914113 v -1.984375 h 1.984375 v 0.396875 h 0.396875 v 0.396875 h -0.79375 v -0.396875 h -0.79375 v 1.5875 z"
         id="path1729"
         style="fill:#e6e6e6" />
      <path
         d="M 32.781875,4.8914113 V 4.4945363 H 32.385 v -0.79375 h 0.396875 V 3.3039113 H 32.385 v -0.79375 h 0.396875 v -0.396875 h 1.5875 v 0.396875 h 0.396875 v 0.79375 h -0.396875 v 0.396875 h 0.396875 v 0.79375 h -0.396875 v 0.396875 z m 0.396875,-1.5875 h 0.79375 v -0.79375 h -0.79375 z m 0,1.190625 h 0.79375 v -0.79375 h -0.79375 z"
         id="path1731"
         style="fill:#e6e6e6" />
    </g>
  </g>
</svg>
