<?xml version="1.0" encoding="UTF-8" standalone="no"?>
<!-- Created with Inkscape (http://www.inkscape.org/) -->

<svg
   width="45.720001mm"
   height="128.5mm"
   viewBox="0 0 45.720002 128.5"
   version="1.1"
   id="svg5"
   inkscape:version="1.2.1 (9c6d41e410, 2022-07-14)"
   sodipodi:docname="BtogglerSt.svg"
   xmlns:inkscape="http://www.inkscape.org/namespaces/inkscape"
   xmlns:sodipodi="http://sodipodi.sourceforge.net/DTD/sodipodi-0.dtd"
   xmlns="http://www.w3.org/2000/svg"
   xmlns:svg="http://www.w3.org/2000/svg">
  <sodipodi:namedview
     id="namedview7"
     pagecolor="#ffffff"
     bordercolor="#000000"
     borderopacity="0.25"
     inkscape:showpageshadow="2"
     inkscape:pageopacity="0.0"
     inkscape:pagecheckerboard="0"
     inkscape:deskcolor="#d1d1d1"
     inkscape:document-units="mm"
     showgrid="false"
     inkscape:zoom="1.4142136"
     inkscape:cx="-90.863219"
     inkscape:cy="221.32442"
     inkscape:window-width="1920"
     inkscape:window-height="1017"
     inkscape:window-x="-8"
     inkscape:window-y="-8"
     inkscape:window-maximized="1"
     inkscape:current-layer="layer5"
     showguides="true" />
  <defs
     id="defs2">
    <rect
       x="22.799086"
       y="440.55881"
       width="6.0350523"
       height="22.128525"
       id="rect289" />
  </defs>
  <g
     inkscape:groupmode="layer"
     id="layer3"
     inkscape:label="sfondo">
    <rect
       style="display:inline;fill:#000000;stroke-width:0.280634;image-rendering:auto"
       id="sfondo"
       width="45.720001"
       height="128.5"
       x="0"
       y="6.6613381e-16"
       inkscape:label="background"
       ry="0"
       sodipodi:insensitive="true" />
  </g>
  <g
     inkscape:groupmode="layer"
     id="layer4"
     inkscape:label="elementi"
     style="fill:#f9f9f9">
    <rect
       style="display:inline;fill:#e6e6e6;stroke:#e6e6e6;stroke-width:0.636531"
       id="rect2634"
       width="19.631727"
       height="32.363472"
       x="24.27582"
       y="88.989265"
       ry="2.000273"
       inkscape:label="output rect" />
    <rect
       style="display:inline;fill:none;stroke:#cccccc;stroke-width:0.640555;stroke-dasharray:none"
       id="rect2037"
       width="20.254904"
       height="32.359447"
       x="1.665871"
       y="88.99173"
       ry="2"
       inkscape:label="input rect" />
    <rect
       style="display:inline;fill:none;stroke:#999999;stroke-width:0.6;stroke-dasharray:none"
       id="rect12722"
       width="42.878559"
       height="28.984398"
       x="1.4207203"
       y="57.530537"
       ry="2"
       inkscape:label="asr rect" />
    <rect
       style="display:inline;fill:none;stroke:#b3b3b3;stroke-width:0.6;stroke-dasharray:none"
       id="rect33317"
       width="42.319069"
       height="23.766956"
       x="1.7004651"
       y="31.323502"
       ry="2"
       inkscape:label="trg gate rect" />
    <path
       style="display:inline;fill:none;stroke:#ededed;stroke-width:0.4;stroke-dasharray:none;stroke-dashoffset:0;stroke-opacity:1"
       id="path896"
       inkscape:label="circle R"
       sodipodi:type="arc"
       sodipodi:cx="37.306244"
       sodipodi:cy="65.085838"
       sodipodi:rx="5.6999998"
       sodipodi:ry="5.6999998"
       sodipodi:start="2.0943951"
       sodipodi:end="1.0471976"
       sodipodi:arc-type="arc"
       d="m 34.456244,70.022183 a 5.6999998,5.6999998 0 0 1 -2.655777,-6.411613 5.6999998,5.6999998 0 0 1 5.505777,-4.224731 5.6999998,5.6999998 0 0 1 5.505777,4.224731 5.6999998,5.6999998 0 0 1 -2.655777,6.411613"
       sodipodi:open="true" />
    <path
       style="display:inline;fill:none;stroke:#ededed;stroke-width:0.4;stroke-dasharray:none;stroke-dashoffset:0;stroke-opacity:1"
       id="path10363"
       inkscape:label="circle S"
       sodipodi:type="arc"
       sodipodi:cx="22.886454"
       sodipodi:cy="64.953545"
       sodipodi:rx="5.6999998"
       sodipodi:ry="5.6999998"
       sodipodi:start="2.0943951"
       sodipodi:end="1.0471976"
       sodipodi:arc-type="arc"
       d="m 20.036454,69.889889 a 5.6999998,5.6999998 0 0 1 -2.655777,-6.411613 5.6999998,5.6999998 0 0 1 5.505777,-4.224731 5.6999998,5.6999998 0 0 1 5.505777,4.224731 5.6999998,5.6999998 0 0 1 -2.655778,6.411613"
       sodipodi:open="true" />
    <path
       style="display:inline;fill:none;stroke:#ededed;stroke-width:0.4;stroke-dasharray:none;stroke-dashoffset:0;stroke-opacity:1"
       id="path10365"
       inkscape:label="circle A"
       sodipodi:type="arc"
       sodipodi:cx="8.4666615"
       sodipodi:cy="65.019691"
       sodipodi:rx="5.6999998"
       sodipodi:ry="5.6999998"
       sodipodi:start="2.0943951"
       sodipodi:end="1.0471976"
       sodipodi:arc-type="arc"
       d="m 5.6166616,69.956036 a 5.6999998,5.6999998 0 0 1 -2.6557772,-6.411613 5.6999998,5.6999998 0 0 1 5.5057771,-4.224731 5.6999998,5.6999998 0 0 1 5.5057775,4.224731 5.6999998,5.6999998 0 0 1 -2.655778,6.411613"
       sodipodi:open="true" />
    <rect
       style="display:inline;fill:none;stroke:#999999;stroke-width:0.6;stroke-dasharray:none"
       id="rect11308"
       width="42.365955"
       height="20.259157"
       x="1.6770222"
       y="8.5458927"
       ry="2"
       inkscape:label="mode rect" />
  </g>
  <g
     inkscape:groupmode="layer"
     id="layer5"
     inkscape:label="etichette testo"
     style="display:none">
    <text
       xml:space="preserve"
       style="font-style:normal;font-variant:normal;font-weight:normal;font-stretch:normal;font-size:3.52778px;font-family:'C64 User';-inkscape-font-specification:'C64 User';display:inline;fill:#000000;stroke:none;stroke-width:0.264999;stroke-dasharray:0.264999, 0.264999;stroke-dashoffset:0;stroke-opacity:1"
       x="28.019371"
       y="111.59441"
       id="text2531"
       inkscape:label="gate out"><tspan
         sodipodi:role="line"
         id="tspan2529"
         style="font-size:3.52778px;fill:#000000;stroke:none;stroke-width:0.265"
         x="28.019371"
         y="111.59441">GATE</tspan></text>
    <text
       xml:space="preserve"
       style="font-style:normal;font-variant:normal;font-weight:normal;font-stretch:normal;font-size:3.88056px;font-family:'C64 User';-inkscape-font-specification:'C64 User';fill:#ffffff;stroke:none;stroke-width:0.264999;stroke-dasharray:0.264999, 0.264999;stroke-dashoffset:0;stroke-opacity:1"
       x="29.121799"
       y="94.348793"
       id="text2513"
       inkscape:label="out"><tspan
         sodipodi:role="line"
         id="tspan2511"
         style="font-size:3.88056px;fill:#000000;stroke:none;stroke-width:0.265"
         x="29.121799"
         y="94.348793">OUT</tspan></text>
    <text
       xml:space="preserve"
       style="font-style:normal;font-variant:normal;font-weight:normal;font-stretch:normal;font-size:3.88056px;font-family:'C64 User';-inkscape-font-specification:'C64 User';fill:#ffffff;stroke:none;stroke-width:0.264999;stroke-dasharray:0.264999, 0.264999;stroke-dashoffset:0;stroke-opacity:1"
       x="24.667984"
       y="39.667912"
       id="text2453"
       inkscape:label="reset"><tspan
         sodipodi:role="line"
         id="tspan2451"
         style="font-size:3.88056px;stroke:none;stroke-width:0.265"
         x="24.667984"
         y="39.667912">RESET</tspan></text>
    <text
       xml:space="preserve"
       style="font-style:normal;font-variant:normal;font-weight:normal;font-stretch:normal;font-size:3.88056px;font-family:'C64 User';-inkscape-font-specification:'C64 User';text-align:center;text-anchor:middle;display:inline;fill:#ffffff;stroke:none;stroke-width:0.262153;stroke-dasharray:0.262153, 0.262153;stroke-dashoffset:0;stroke-opacity:1"
       x="12.65253"
       y="39.259975"
       id="text778"
       inkscape:label="ARM"
       transform="scale(0.98925648,1.0108602)"><tspan
         sodipodi:role="line"
         style="font-size:3.88056px;text-align:center;text-anchor:middle;stroke:none;stroke-width:0.262154"
         x="12.65253"
         y="39.259975"
         id="tspan11114">ARM</tspan></text>
    <text
       xml:space="preserve"
       style="font-style:normal;font-variant:normal;font-weight:normal;font-stretch:normal;font-size:3.52778px;font-family:'C64 User';-inkscape-font-specification:'C64 User';fill:#ffffff;stroke:none;stroke-width:0.264999;stroke-dasharray:0.264999, 0.264999;stroke-dashoffset:0;stroke-opacity:1"
       x="27.357916"
       y="98.941521"
       id="text1320"
       inkscape:label="L out"><tspan
         sodipodi:role="line"
         id="tspan1318"
         style="font-size:3.52778px;fill:#000000;stroke:none;stroke-width:0.265"
         x="27.357916"
         y="98.941521">L</tspan></text>
    <text
       xml:space="preserve"
       style="font-style:normal;font-variant:normal;font-weight:normal;font-stretch:normal;font-size:3.52778px;font-family:'C64 User';-inkscape-font-specification:'C64 User';fill:#000000;stroke:none;stroke-width:0.264999;stroke-dasharray:0.264999, 0.264999;stroke-dashoffset:0;stroke-opacity:1"
       x="35.736385"
       y="98.941521"
       id="text445"
       inkscape:label="(R) out"><tspan
         sodipodi:role="line"
         id="tspan443"
         style="font-size:3.52778px;fill:#000000;stroke:none;stroke-width:0.265"
         x="35.736385"
         y="98.941521">(R)</tspan></text>
    <text
       xml:space="preserve"
       style="font-style:normal;font-variant:normal;font-weight:normal;font-stretch:normal;font-size:3.88056px;font-family:'C64 User';-inkscape-font-specification:'C64 User';display:inline;fill:#ffffff;stroke:none;stroke-width:0.264999;stroke-dasharray:0.264999, 0.264999;stroke-dashoffset:0;stroke-opacity:1"
       x="7.0114517"
       y="76.53109"
       id="text12423"
       inkscape:label="A att"><tspan
         sodipodi:role="line"
         id="tspan12421"
         style="font-size:3.88056px;stroke:none;stroke-width:0.265"
         x="7.0114517"
         y="76.53109">A</tspan></text>
    <text
       xml:space="preserve"
       style="font-style:normal;font-variant:normal;font-weight:normal;font-stretch:normal;font-size:3.88056px;font-family:'C64 User';-inkscape-font-specification:'C64 User';display:inline;fill:#ffffff;stroke:none;stroke-width:0.264999;stroke-dasharray:0.264999, 0.264999;stroke-dashoffset:0;stroke-opacity:1"
       x="21.431244"
       y="76.53109"
       id="text12427"
       inkscape:label="S sus"><tspan
         sodipodi:role="line"
         id="tspan12425"
         style="font-size:3.88056px;stroke:none;stroke-width:0.265"
         x="21.431244"
         y="76.53109">S</tspan></text>
    <text
       xml:space="preserve"
       style="font-style:normal;font-variant:normal;font-weight:normal;font-stretch:normal;font-size:3.88056px;font-family:'C64 User';-inkscape-font-specification:'C64 User';display:inline;fill:#ffffff;stroke:none;stroke-width:0.264999;stroke-dasharray:0.264999, 0.264999;stroke-dashoffset:0;stroke-opacity:1"
       x="35.851032"
       y="76.53109"
       id="text12431"
       inkscape:label="R rel"><tspan
         sodipodi:role="line"
         id="tspan12429"
         style="font-size:3.88056px;stroke:none;stroke-width:0.265"
         x="35.851032"
         y="76.53109">R</tspan></text>
    <text
       xml:space="preserve"
       style="font-style:normal;font-variant:normal;font-weight:normal;font-stretch:normal;font-size:3.88056px;font-family:'C64 User';-inkscape-font-specification:'C64 User';display:inline;fill:#ffffff;stroke:none;stroke-width:0.262153;stroke-dasharray:0.262153, 0.262153;stroke-dashoffset:0;stroke-opacity:1"
       x="8.9279175"
       y="20.205078"
       id="text11118"
       inkscape:label="CLOCK"
       transform="scale(0.98925647,1.0108602)"><tspan
         sodipodi:role="line"
         id="tspan11116"
         style="font-size:3.88056px;stroke:none;stroke-width:0.262154"
         x="8.9279175"
         y="20.205078">CLOCK</tspan></text>
    <text
       xml:space="preserve"
       style="font-style:normal;font-variant:normal;font-weight:normal;font-stretch:normal;font-size:3.88056px;font-family:'C64 User';-inkscape-font-specification:'C64 User';fill:#ffffff;stroke:none;stroke-width:0.264999;stroke-dasharray:0.264999, 0.264999;stroke-dashoffset:0;stroke-opacity:1"
       x="9.0796156"
       y="100.16963"
       id="text11122"
       inkscape:label="IN"><tspan
         sodipodi:role="line"
         id="tspan11120"
         style="font-size:3.88056px;fill:#ffffff;stroke:none;stroke-width:0.265"
         x="9.0796156"
         y="100.16963">IN</tspan></text>
    <text
       xml:space="preserve"
       style="font-style:normal;font-variant:normal;font-weight:normal;font-stretch:normal;font-size:3.52778px;font-family:'C64 User';-inkscape-font-specification:'C64 User';fill:#ffffff;stroke:none;stroke-width:0.264999;stroke-dasharray:0.264999, 0.264999;stroke-dashoffset:0;stroke-opacity:1"
       x="5.6620836"
       y="104.76236"
       id="text11228"
       inkscape:label="L in"><tspan
         sodipodi:role="line"
         id="tspan11226"
         style="font-size:3.52778px;fill:#ffffff;stroke:none;stroke-width:0.265"
         x="5.6620836"
         y="104.76236">L</tspan></text>
    <text
       xml:space="preserve"
       style="font-style:normal;font-variant:normal;font-weight:normal;font-stretch:normal;font-size:3.52778px;font-family:'C64 User';-inkscape-font-specification:'C64 User';fill:#ffffff;stroke:none;stroke-width:0.264999;stroke-dasharray:0.264999, 0.264999;stroke-dashoffset:0;stroke-opacity:1"
       x="12.982222"
       y="104.76236"
       id="text11232"
       inkscape:label="(R) in"><tspan
         sodipodi:role="line"
         id="tspan11230"
         style="font-size:3.52778px;fill:#ffffff;stroke:none;stroke-width:0.265"
         x="12.982222"
         y="104.76236">(R)</tspan></text>
  </g>
  <g
     inkscape:groupmode="layer"
     id="g2106"
     inkscape:label="etichette path"
     style="display:inline">
    <g
       aria-label="GATE"
       id="text14343"
       style="font-size:3.52778px;font-family:'C64 User';-inkscape-font-specification:'C64 User';display:inline;stroke-width:0.264999;stroke-dasharray:0.264999, 0.264999"
       inkscape:label="gate out"
       transform="translate(0,0.49239)">
      <path
         d="m 28.460344,111.59441 v -0.44097 h -0.440973 v -2.20486 h 0.440973 v -0.44097 h 1.76389 v 0.44097 h 0.440972 v 0.44097 h -0.881945 v -0.44097 h -0.881945 v 2.20486 h 0.881945 v -0.88194 h -0.440972 v -0.44098 h 1.322917 v 1.32292 h -0.440972 v 0.44097 z"
         style="stroke-width:0.265"
         id="path14434" />
      <path
         d="m 31.106179,111.59441 v -2.20486 h 0.440972 v -0.44097 h 0.440973 v -0.44097 h 0.881945 v 0.44097 h 0.440972 v 0.44097 h 0.440973 v 2.20486 h -0.881945 v -1.32291 h -0.881945 v 1.32291 z m 0.881945,-1.76389 h 0.881945 v -0.44097 h -0.881945 z"
         style="stroke-width:0.265"
         id="path14436" />
      <path
         d="m 35.074931,111.59441 v -2.64583 h -0.881945 v -0.44097 h 2.645835 v 0.44097 h -0.881945 v 2.64583 z"
         style="stroke-width:0.265"
         id="path14438" />
      <path
         d="m 39.925629,108.50761 v 0.44097 h -1.76389 v 0.88194 h 0.881945 v 0.44098 h -0.881945 v 0.88194 h 1.76389 v 0.44097 h -2.645835 v -3.0868 z"
         style="stroke-width:0.265"
         id="path14440" />
    </g>
    <g
       aria-label="OUT"
       id="text14347"
       style="font-size:3.88056px;font-family:'C64 User';-inkscape-font-specification:'C64 User';display:inline;fill:#ffffff;stroke-width:0.264999;stroke-dasharray:0.264999, 0.264999"
       inkscape:label="out"
       transform="translate(0,-0.453303)">
      <path
         d="m 29.606869,94.348793 v -0.48507 h -0.48507 v -2.42535 h 0.48507 v -0.48507 h 1.94028 v 0.48507 h 0.48507 v 2.42535 h -0.48507 v 0.48507 z m 0.48507,-0.48507 h 0.97014 v -2.42535 h -0.97014 z"
         style="fill:#000000;stroke-width:0.265"
         id="path14443" />
      <path
         d="m 33.002359,94.348793 v -0.48507 h -0.48507 v -2.91042 h 0.97014 v 2.91042 h 0.97014 v -2.91042 h 0.97014 v 2.91042 h -0.48507 v 0.48507 z"
         style="fill:#000000;stroke-width:0.265"
         id="path14445" />
      <path
         d="m 36.882919,94.348793 v -2.91042 h -0.97014 v -0.48507 h 2.91042 v 0.48507 h -0.97014 v 2.91042 z"
         style="fill:#000000;stroke-width:0.265"
         id="path14447" />
    </g>
    <g
       aria-label="RESET"
       id="text2009"
       style="font-size:3.88056px;font-family:'C64 User';-inkscape-font-specification:'C64 User';display:inline;fill:#ffffff;stroke-width:0.264999;stroke-dasharray:0.264999, 0.264999"
       inkscape:label="reset"
       transform="translate(-0.52916667)">
      <path
         d="m 25.197151,39.667912 v -3.39549 h 2.42535 v 0.48507 h 0.48507 v 0.97014 h -0.48507 v 0.48507 h -0.48507 v 0.48507 h 0.48507 v 0.48507 h 0.48507 v 0.48507 h -0.97014 v -0.48507 h -0.48507 v -0.48507 h -0.48507 v 0.97014 z m 0.97014,-1.94028 h 0.97014 v -0.97014 h -0.97014 z"
         style="stroke-width:0.265"
         id="path2013" />
      <path
         d="m 31.503061,36.272422 v 0.48507 h -1.94028 v 0.97014 h 0.97014 v 0.48507 h -0.97014 v 0.97014 h 1.94028 v 0.48507 h -2.91042 v -3.39549 z"
         style="stroke-width:0.265"
         id="path2015" />
      <path
         d="m 32.473201,39.667912 v -0.48507 h -0.48507 v -0.48507 h 0.97014 v 0.48507 h 0.97014 v -0.97014 h -1.45521 v -0.48507 h -0.48507 v -0.97014 h 0.48507 v -0.48507 h 1.94028 v 0.48507 h 0.48507 v 0.48507 h -0.97014 v -0.48507 h -0.97014 v 0.97014 h 1.45521 v 0.48507 h 0.48507 v 0.97014 h -0.48507 v 0.48507 z"
         style="stroke-width:0.265"
         id="path2017" />
      <path
         d="m 38.294041,36.272422 v 0.48507 h -1.94028 v 0.97014 h 0.97014 v 0.48507 h -0.97014 v 0.97014 h 1.94028 v 0.48507 h -2.91042 v -3.39549 z"
         style="stroke-width:0.265"
         id="path2019" />
      <path
         d="m 39.749251,39.667912 v -2.91042 h -0.97014 v -0.48507 h 2.91042 v 0.48507 h -0.97014 v 2.91042 z"
         style="stroke-width:0.265"
         id="path2021" />
    </g>
    <g
       aria-label="ARM"
       transform="scale(0.98925647,1.0108602)"
       id="text1989"
       style="font-size:3.88056px;font-family:'C64 User';-inkscape-font-specification:'C64 User';text-align:center;text-anchor:middle;display:inline;fill:#ffffff;stroke-width:0.262153;stroke-dasharray:0.262153, 0.262153"
       inkscape:label="ARM">
      <path
         d="m 7.3167598,39.259975 v -2.42535 h 0.48507 v -0.48507 h 0.48507 v -0.485069 h 0.97014 v 0.485069 h 0.48507 v 0.48507 H 10.22718 v 2.42535 H 9.2570398 v -1.45521 h -0.97014 v 1.45521 z m 0.97014,-1.94028 h 0.97014 v -0.48507 h -0.97014 z"
         style="stroke-width:0.262154"
         id="path1993" />
      <path
         d="m 10.71225,39.259975 v -3.395489 h 2.42535 v 0.485069 h 0.48507 v 0.97014 H 13.1376 v 0.48507 h -0.48507 v 0.48507 h 0.48507 v 0.48507 h 0.48507 v 0.48507 h -0.97014 v -0.48507 h -0.48507 v -0.48507 h -0.48507 v 0.97014 z m 0.97014,-1.94028 h 0.97014 v -0.97014 h -0.97014 z"
         style="stroke-width:0.262154"
         id="path1995" />
      <path
         d="m 14.10774,39.259975 v -3.395489 h 0.97014 v 0.485069 h 0.48507 v 0.48507 h 0.48507 v -0.48507 h 0.48507 v -0.485069 h 0.97014 v 3.395489 h -0.97014 v -1.94028 h -0.48507 v 0.48507 h -0.48507 v -0.48507 h -0.48507 v 1.94028 z"
         style="stroke-width:0.262154"
         id="path1997" />
    </g>
    <g
       aria-label="CLOCK"
       transform="matrix(0.98925647,0,0,1.0108602,0.99959445,0)"
       id="text1972"
       style="font-size:3.88056px;font-family:'C64 User';-inkscape-font-specification:'C64 User';display:inline;fill:#ffffff;stroke-width:0.262153;stroke-dasharray:0.262153, 0.262153"
       inkscape:label="CLOCK">
      <path
         d="m 8.4025371,20.205078 v -0.48507 h -0.48507 v -2.42535 h 0.48507 v -0.48507 h 1.9402799 v 0.48507 h 0.48507 v 0.48507 H 9.8577471 v -0.48507 h -0.97014 v 2.42535 h 0.97014 v -0.48507 h 0.9701399 v 0.48507 h -0.48507 v 0.48507 z"
         style="stroke-width:0.262154"
         id="path1976" />
      <path
         d="m 12.283097,16.809588 v 2.91042 h 1.94028 v 0.48507 h -2.91042 v -3.39549 z"
         style="stroke-width:0.262154"
         id="path1978" />
      <path
         d="m 15.193517,20.205078 v -0.48507 h -0.48507 v -2.42535 h 0.48507 v -0.48507 h 1.94028 v 0.48507 h 0.48507 v 2.42535 h -0.48507 v 0.48507 z m 0.48507,-0.48507 h 0.97014 v -2.42535 h -0.97014 z"
         style="stroke-width:0.262154"
         id="path1980" />
      <path
         d="m 18.589007,20.205078 v -0.48507 h -0.48507 v -2.42535 h 0.48507 v -0.48507 h 1.94028 v 0.48507 h 0.48507 v 0.48507 h -0.97014 v -0.48507 h -0.97014 v 2.42535 h 0.97014 v -0.48507 h 0.97014 v 0.48507 h -0.48507 v 0.48507 z"
         style="stroke-width:0.262154"
         id="path1982" />
      <path
         d="m 21.499427,20.205078 v -3.39549 h 0.97014 v 0.97014 h 0.48507 v -0.48507 h 0.48507 v -0.48507 h 0.97014 v 0.48507 h -0.48507 v 0.48507 h -0.48507 v 0.48507 h -0.48507 v 0.48507 h 0.48507 v 0.48507 h 0.48507 v 0.48507 h 0.48507 v 0.48507 h -0.97014 v -0.48507 h -0.48507 v -0.48507 h -0.48507 v 0.97014 z"
         style="stroke-width:0.262154"
         id="path1984" />
    </g>
    <g
       aria-label="L"
       id="text14369"
       style="font-size:3.52778px;font-family:'C64 User';-inkscape-font-specification:'C64 User';display:inline;fill:#ffffff;stroke-width:0.264999;stroke-dasharray:0.264999, 0.264999"
       inkscape:label="L out"
       transform="translate(0,-0.453303)">
      <path
         d="m 28.239861,95.854713 v 2.645835 h 1.76389 v 0.440973 h -2.645835 v -3.086808 z"
         style="fill:#000000;stroke-width:0.265"
         id="path14496" />
    </g>
    <g
       aria-label="(R)"
       id="text14373"
       style="font-size:3.52778px;font-family:'C64 User';-inkscape-font-specification:'C64 User';display:inline;stroke-width:0.264999;stroke-dasharray:0.264999, 0.264999"
       inkscape:label="(R) out"
       transform="translate(0,-0.453303)">
      <path
         d="m 36.61833,98.941521 v -0.440973 h -0.440972 v -0.440972 h -0.440973 v -1.322918 h 0.440973 v -0.440972 h 0.440972 v -0.440973 h 0.881945 v 0.440973 h -0.440972 v 0.440972 H 36.61833 v 1.322918 h 0.440973 v 0.440972 h 0.440972 v 0.440973 z"
         style="stroke-width:0.265"
         id="path14499" />
      <path
         d="m 37.941248,98.941521 v -3.086808 h 2.204862 v 0.440973 h 0.440973 v 0.881945 H 40.14611 v 0.440972 h -0.440972 v 0.440973 h 0.440972 v 0.440972 h 0.440973 v 0.440973 h -0.881945 v -0.440973 h -0.440973 v -0.440972 h -0.440972 v 0.881945 z m 0.881945,-1.76389 h 0.881945 v -0.881945 h -0.881945 z"
         style="stroke-width:0.265"
         id="path14501" />
      <path
         d="m 41.028055,98.941521 v -0.440973 h 0.440973 V 98.059576 H 41.91 V 96.736658 H 41.469028 V 96.295686 H 41.028055 V 95.854713 H 41.91 v 0.440973 h 0.440973 v 0.440972 h 0.440972 v 1.322918 h -0.440972 v 0.440972 H 41.91 v 0.440973 z"
         style="stroke-width:0.265"
         id="path14503" />
    </g>
    <g
       aria-label="A"
       id="text14377"
       style="font-size:3.88056px;font-family:'C64 User';-inkscape-font-specification:'C64 User';display:inline;fill:#ffffff;stroke-width:0.264999;stroke-dasharray:0.264999, 0.264999"
       inkscape:label="A att"
       transform="translate(0,-1.3356)">
      <path
         d="m 7.0114517,76.53109 v -2.42535 h 0.48507 v -0.48507 h 0.48507 V 73.1356 h 0.97014 v 0.48507 h 0.48507 v 0.48507 h 0.48507 v 2.42535 h -0.97014 v -1.45521 h -0.97014 v 1.45521 z m 0.97014,-1.94028 h 0.97014 v -0.48507 h -0.97014 z"
         style="stroke-width:0.265"
         id="path14506" />
    </g>
    <g
       aria-label="S"
       id="text14381"
       style="font-size:3.88056px;font-family:'C64 User';-inkscape-font-specification:'C64 User';display:inline;fill:#ffffff;stroke-width:0.264999;stroke-dasharray:0.264999, 0.264999"
       inkscape:label="S sus"
       transform="translate(-0.131244,-1.3356)">
      <path
         d="m 21.916314,76.53109 v -0.48507 h -0.48507 v -0.48507 h 0.97014 v 0.48507 h 0.97014 v -0.97014 h -1.45521 v -0.48507 h -0.48507 v -0.97014 h 0.48507 V 73.1356 h 1.94028 v 0.48507 h 0.48507 v 0.48507 h -0.97014 v -0.48507 h -0.97014 v 0.97014 h 1.45521 v 0.48507 h 0.48507 v 0.97014 h -0.48507 v 0.48507 z"
         style="stroke-width:0.265"
         id="path14509" />
    </g>
    <g
       aria-label="R"
       id="text14385"
       style="font-size:3.88056px;font-family:'C64 User';-inkscape-font-specification:'C64 User';display:inline;fill:#ffffff;stroke-width:0.264999;stroke-dasharray:0.264999, 0.264999"
       inkscape:label="R rel"
       transform="translate(0,-1.3356)">
      <path
         d="M 35.851032,76.53109 V 73.1356 h 2.42535 v 0.48507 h 0.48507 v 0.97014 h -0.48507 v 0.48507 h -0.48507 v 0.48507 h 0.48507 v 0.48507 h 0.48507 v 0.48507 h -0.97014 v -0.48507 h -0.48507 v -0.48507 h -0.48507 v 0.97014 z m 0.97014,-1.94028 h 0.97014 v -0.97014 h -0.97014 z"
         style="stroke-width:0.265"
         id="path14512" />
    </g>
    <g
       aria-label="IN"
       id="text14393"
       style="font-size:3.88056px;font-family:'C64 User';-inkscape-font-specification:'C64 User';display:inline;fill:#ffffff;stroke-width:0.264999;stroke-dasharray:0.264999, 0.264999"
       inkscape:label="IN"
       transform="translate(0,-1.000142)">
      <path
         d="m 11.019896,96.774142 v 0.48507 h -0.48507 v 2.42535 h 0.48507 v 0.485068 H 9.0796156 v -0.485068 h 0.48507 v -2.42535 h -0.48507 v -0.48507 z"
         style="stroke-width:0.265"
         id="path14524" />
      <path
         d="m 11.504966,100.16963 v -3.395488 h 0.97014 v 0.48507 h 0.48507 v 0.48507 h 0.48507 v -0.97014 h 0.970139 v 3.395488 h -0.970139 v -0.970138 h -0.48507 v -0.48507 h -0.48507 v 1.455208 z"
         style="stroke-width:0.265"
         id="path14526" />
    </g>
    <g
       aria-label="L"
       id="text14397"
       style="font-size:3.52778px;font-family:'C64 User';-inkscape-font-specification:'C64 User';display:inline;fill:#ffffff;stroke-width:0.264999;stroke-dasharray:0.264999, 0.264999"
       inkscape:label="L in"
       transform="translate(0,-1.000142)">
      <path
         d="m 6.5440286,101.67555 v 2.64584 h 1.7638901 v 0.44097 H 5.6620836 v -3.08681 z"
         style="stroke-width:0.265"
         id="path14529" />
    </g>
    <g
       aria-label="(R)"
       id="text14401"
       style="font-size:3.52778px;font-family:'C64 User';-inkscape-font-specification:'C64 User';display:inline;fill:#ffffff;stroke-width:0.264999;stroke-dasharray:0.264999, 0.264999"
       inkscape:label="(R) in"
       transform="translate(0,-1.000142)">
      <path
         d="m 13.864167,104.76236 v -0.44097 h -0.440973 v -0.44098 h -0.440972 v -1.32291 h 0.440972 v -0.44098 h 0.440973 v -0.44097 h 0.881945 v 0.44097 h -0.440973 v 0.44098 h -0.440972 v 1.32291 h 0.440972 v 0.44098 h 0.440973 v 0.44097 z"
         style="stroke-width:0.265"
         id="path14532" />
      <path
         d="m 15.187084,104.76236 v -3.08681 h 2.204863 v 0.44097 h 0.440972 v 0.88195 h -0.440972 v 0.44097 h -0.440973 v 0.44097 h 0.440973 v 0.44098 h 0.440972 v 0.44097 h -0.881945 v -0.44097 h -0.440972 v -0.44098 h -0.440973 v 0.88195 z m 0.881945,-1.76389 h 0.881945 v -0.88195 h -0.881945 z"
         style="stroke-width:0.265"
         id="path14534" />
      <path
         d="m 18.273891,104.76236 v -0.44097 h 0.440973 v -0.44098 h 0.440972 v -1.32291 h -0.440972 v -0.44098 h -0.440973 v -0.44097 h 0.881945 v 0.44097 h 0.440973 v 0.44098 h 0.440972 v 1.32291 h -0.440972 v 0.44098 h -0.440973 v 0.44097 z"
         style="stroke-width:0.265"
         id="path14536" />
    </g>
  </g>
  <g
     inkscape:label="header footer"
     inkscape:groupmode="layer"
     id="layer1"
     style="display:inline">
    <text
       xml:space="preserve"
       style="font-style:normal;font-variant:normal;font-weight:normal;font-stretch:normal;font-size:3.175px;font-family:'C64 User';-inkscape-font-specification:'C64 User';display:none;fill:#ffffff;stroke-width:0.264583"
       x="9.5646877"
       y="4.8914113"
       id="text1341"
       inkscape:label="btogglerSt"><tspan
         sodipodi:role="line"
         id="tspan1339"
         style="font-size:3.175px;fill:#ffffff;stroke-width:0.264583"
         x="9.5646877"
         y="4.8914113">btogglerSt</tspan></text>
    <rect
       style="display:inline;fill:none;stroke:#ffffff;stroke-width:0.4;stroke-dasharray:none;stroke-dashoffset:0;stroke-opacity:1"
       id="rect2138"
       width="30.424017"
       height="5.113276"
       x="7.6479926"
       y="1.2725303"
       ry="1.7531205"
       inkscape:label="header rect" />
    <g
       aria-label="sickozell"
       id="text1308"
       style="font-size:3.175px;font-family:'C64 User';-inkscape-font-specification:'C64 User';display:inline;fill:#0000ff;stroke-width:0.264583"
       inkscape:label="sickozell"
       transform="translate(10.265847,0.78405215)">
      <path
         d="m 4.0613409,124.52178 v 0.39688 h -1.5875 v 0.39687 h 1.190625 v 0.39688 h 0.396875 v 0.39687 h -0.396875 v 0.39688 h -1.984375 v -0.39688 h 1.5875 v -0.39687 h -1.190625 v -0.39688 h -0.396875 v -0.39687 h 0.396875 v -0.39688 z"
         style="fill:#f9f9f9"
         id="path1312" />
      <path
         d="m 4.458216,126.50616 v -0.39688 h 0.3968749 v -0.79375 H 4.458216 v -0.39687 h 1.1906249 v 1.19062 h 0.396875 v 0.39688 z m 0.3968749,-1.98438 v -0.39687 h 0.79375 v 0.39687 z"
         style="fill:#f9f9f9"
         id="path1314" />
      <path
         d="m 6.8394657,126.50616 v -0.39688 h -0.396875 v -1.19062 h 0.396875 v -0.39688 h 1.5875 v 0.39688 h -1.190625 v 1.19062 h 1.190625 v 0.39688 z"
         style="fill:#f9f9f9"
         id="path1316" />
      <path
         d="m 8.8238411,126.50616 v -2.38125 h 0.79375 v 1.19062 h 0.3968749 v -0.39687 h 0.79375 v 0.39687 h -0.396875 v 0.39688 h 0.396875 v 0.39687 h 0.396875 v 0.39688 h -0.79375 v -0.39688 h -0.396875 v -0.39687 H 9.6175911 v 0.79375 z"
         style="fill:#f9f9f9"
         id="path1318" />
      <path
         d="m 11.998841,126.50616 v -0.39688 h -0.396875 v -1.19062 h 0.396875 v -0.39688 h 1.5875 v 0.39688 h 0.396875 v 1.19062 h -0.396875 v 0.39688 z m 0.396875,-0.39688 h 0.79375 v -1.19062 h -0.79375 z"
         style="fill:#f9f9f9"
         id="path1320" />
      <path
         d="m 14.380091,126.50616 v -0.39688 h 0.396875 v -0.39687 h 0.396875 v -0.39688 h 0.396875 v -0.39687 h -1.190625 v -0.39688 h 2.38125 v 0.39688 h -0.396875 v 0.39687 h -0.396875 v 0.39688 h -0.396875 v 0.39687 h 1.190625 v 0.39688 z"
         style="fill:#f9f9f9"
         id="path1322" />
      <path
         d="m 18.745715,124.91866 h -0.793749 v 0.39687 h 0.793749 z m 0.396875,-0.39688 v 0.39688 h 0.396875 v 0.79375 h -1.587499 v 0.39687 h 1.190624 v 0.39688 h -1.587499 v -0.39688 h -0.396875 v -1.19062 h 0.396875 v -0.39688 z"
         style="fill:#f9f9f9"
         id="path1324" />
      <path
         d="m 21.126966,124.12491 v 1.98437 h 0.396875 v 0.39688 h -1.5875 v -0.39688 h 0.396875 v -1.5875 h -0.396875 v -0.39687 z"
         style="fill:#f9f9f9"
         id="path1326" />
      <path
         d="m 23.111341,124.12491 v 1.98437 h 0.396875 v 0.39688 h -1.5875 v -0.39688 h 0.396875 v -1.5875 h -0.396875 v -0.39687 z"
         style="fill:#f9f9f9"
         id="path1328" />
    </g>
    <rect
       style="display:inline;fill:none;stroke:#ffffff;stroke-width:0.4;stroke-dasharray:none;stroke-dashoffset:0;stroke-opacity:1"
       id="rect1447-8-1"
       width="24.287165"
       height="3.6871655"
       x="10.716418"
       y="124.256"
       inkscape:label="footer rect"
       ry="1.2641692" />
    <g
       aria-label="btogglerSt"
       id="text1025"
       style="font-size:3.175px;font-family:'C64 User';-inkscape-font-specification:'C64 User';display:inline;fill:#ffffff;stroke-width:0.264583"
       inkscape:label="btogglerSt">
      <path
         d="m 10.358438,4.4945363 h 0.79375 v -0.79375 h -0.79375 z m -0.7937503,0.396875 v -2.38125 h 0.7937503 v 0.79375 h 1.190625 v 0.396875 h 0.396875 v 0.79375 h -0.396875 v 0.396875 z"
         id="path1027" />
      <path
         d="m 13.930313,2.5101613 v 0.396875 h 0.79375 v 0.396875 h -0.79375 v 1.190625 h 0.79375 v 0.396875 h -1.190625 v -0.396875 h -0.396875 v -1.190625 h -0.79375 v -0.396875 h 0.79375 v -0.396875 z"
         id="path1029" />
      <path
         d="m 15.517813,4.8914113 v -0.396875 h -0.396875 v -1.190625 h 0.396875 v -0.396875 h 1.5875 v 0.396875 h 0.396875 v 1.190625 h -0.396875 v 0.396875 z m 0.396875,-0.396875 h 0.79375 v -1.190625 h -0.79375 z"
         id="path1031" />
      <path
         d="m 17.899063,5.2882863 v -0.396875 h 1.5875 v -0.396875 h -1.190625 v -0.396875 h -0.396875 v -0.79375 h 0.396875 v -0.396875 h 1.984375 v 1.984375 h -0.396875 v 0.396875 z m 0.79375,-1.190625 h 0.79375 v -0.79375 h -0.79375 z"
         id="path1033" />
      <path
         d="m 20.677188,5.2882863 v -0.396875 h 1.5875 v -0.396875 h -1.190625 v -0.396875 h -0.396875 v -0.79375 h 0.396875 v -0.396875 h 1.984375 v 1.984375 h -0.396875 v 0.396875 z m 0.79375,-1.190625 h 0.79375 v -0.79375 h -0.79375 z"
         id="path1035" />
      <path
         d="m 24.645938,2.5101613 v 1.984375 h 0.396875 v 0.396875 h -1.5875 v -0.396875 h 0.396875 v -1.5875 h -0.396875 v -0.396875 z"
         id="path1037" />
      <path
         d="m 27.027188,3.3039113 h -0.79375 v 0.396875 h 0.79375 z m 0.396875,-0.396875 v 0.396875 h 0.396875 v 0.79375 h -1.5875 v 0.396875 h 1.190625 v 0.396875 h -1.5875 v -0.396875 h -0.396875 v -1.190625 h 0.396875 v -0.396875 z"
         id="path1039" />
      <path
         d="m 28.217813,4.8914113 v -1.984375 h 1.984375 v 0.396875 h 0.396875 v 0.396875 h -0.79375 v -0.396875 h -0.79375 v 1.5875 z"
         id="path1041" />
      <path
         d="m 31.392812,4.8914113 v -0.396875 h -0.396875 v -0.396875 h 0.79375 v 0.396875 h 0.79375 v -0.79375 h -1.190625 v -0.396875 h -0.396875 v -0.79375 h 0.396875 v -0.396875 h 1.5875 v 0.396875 h 0.396875 v 0.396875 h -0.79375 v -0.396875 h -0.79375 v 0.79375 h 1.190625 v 0.396875 h 0.396875 v 0.79375 h -0.396875 v 0.396875 z"
         id="path1043" />
      <path
         d="m 35.361563,2.5101613 v 0.396875 h 0.79375 v 0.396875 h -0.79375 v 1.190625 h 0.79375 v 0.396875 h -1.190625 v -0.396875 h -0.396875 v -1.190625 h -0.79375 v -0.396875 h 0.79375 v -0.396875 z"
         id="path1045" />
    </g>
  </g>
  <g
     inkscape:groupmode="layer"
     id="layer2"
     inkscape:label="components"
     style="display:inline"
     sodipodi:insensitive="true" />
</svg>
