<?xml version="1.0" encoding="UTF-8" standalone="no"?>
<!-- Created with Inkscape (http://www.inkscape.org/) -->

<svg
   width="40.639999mm"
   height="128.5mm"
   viewBox="0 0 40.64 128.5"
   version="1.1"
   id="svg5"
   inkscape:version="1.4 (86a8ad7, 2024-10-11)"
   sodipodi:docname="CVmeter.svg"
   xml:space="preserve"
   xmlns:inkscape="http://www.inkscape.org/namespaces/inkscape"
   xmlns:sodipodi="http://sodipodi.sourceforge.net/DTD/sodipodi-0.dtd"
   xmlns="http://www.w3.org/2000/svg"
   xmlns:svg="http://www.w3.org/2000/svg"><sodipodi:namedview
     id="namedview7"
     pagecolor="#ffffff"
     bordercolor="#000000"
     borderopacity="0.25"
     inkscape:showpageshadow="2"
     inkscape:pageopacity="0.0"
     inkscape:pagecheckerboard="0"
     inkscape:deskcolor="#d1d1d1"
     inkscape:document-units="mm"
     showgrid="false"
     inkscape:zoom="3.3520753"
     inkscape:cx="42.809301"
     inkscape:cy="331.88395"
     inkscape:window-width="1920"
     inkscape:window-height="1017"
     inkscape:window-x="-8"
     inkscape:window-y="-8"
     inkscape:window-maximized="1"
     inkscape:current-layer="g53"
     showguides="true" /><defs
     id="defs2"><rect
       x="22.799086"
       y="440.55881"
       width="6.0350523"
       height="22.128525"
       id="rect289" /></defs><g
     inkscape:groupmode="layer"
     id="layer3"
     inkscape:label="Sfondo"
     transform="scale(1.7272727,1)"><rect
       style="fill:#00001f;fill-opacity:1;stroke-width:0.180064;image-rendering:auto"
       id="sfondo"
       width="23.528421"
       height="128.5"
       x="0"
       y="6.6613381e-16"
       inkscape:label="background"
       ry="0"
       sodipodi:insensitive="true" /></g><g
     inkscape:groupmode="layer"
     id="layer7"
     inkscape:label="stripes"
     transform="matrix(0.53333333,0,0,1,6.3511511,0.59166683)"
     style="display:inline;fill:#000000;stroke:none"><rect
       style="display:inline;fill:#0088ff;fill-opacity:1;stroke-width:0.40253"
       id="rect1316"
       width="60"
       height="0.40000001"
       x="-3.8084087"
       y="5.0580001"
       inkscape:label="azzurro" /><rect
       style="display:inline;fill:#00cc55;fill-opacity:1;stroke-width:0.40253"
       id="rect1313"
       width="60"
       height="0.40000001"
       x="-3.8084087"
       y="4.0580001"
       inkscape:label="verde" /><rect
       style="display:inline;fill:#eeee77;fill-opacity:1;stroke-width:0.40253"
       id="rect1310"
       width="60"
       height="0.40000001"
       x="-3.8084087"
       y="3.0580001"
       inkscape:label="giallo" /><rect
       style="display:inline;fill:#ff7777;fill-opacity:1;stroke-width:0.40253"
       id="rect989"
       width="60"
       height="0.40000001"
       x="-3.8084087"
       y="2.0580001"
       inkscape:label="rosa" /><rect
       style="display:inline;fill:#bd0000;fill-opacity:1;stroke-width:0.40253"
       id="rect1308"
       width="60"
       height="0.40000001"
       x="-3.8084087"
       y="1.0583332"
       inkscape:label="rosso" /></g><g
     inkscape:groupmode="layer"
     id="g7864"
     inkscape:label="stripes copy"
     transform="matrix(0.53333333,0,0,0.77278577,6.3511511,123.58213)"
     style="display:inline;fill:#000000;stroke:none"><rect
       style="display:inline;fill:#0088ff;fill-opacity:1;stroke-width:0.40253"
       id="rect7854"
       width="60"
       height="0.40000001"
       x="-3.8084087"
       y="5.0580001"
       inkscape:label="azzurro" /><rect
       style="display:inline;fill:#00cc55;fill-opacity:1;stroke-width:0.40253"
       id="rect7856"
       width="60"
       height="0.40000001"
       x="-3.8084087"
       y="4.0580001"
       inkscape:label="verde" /><rect
       style="display:inline;fill:#eeee77;fill-opacity:1;stroke-width:0.40253"
       id="rect7858"
       width="60"
       height="0.40000001"
       x="-3.8084087"
       y="3.0580001"
       inkscape:label="giallo" /><rect
       style="display:inline;fill:#ff7777;fill-opacity:1;stroke-width:0.40253"
       id="rect7860"
       width="60"
       height="0.40000001"
       x="-3.8084087"
       y="2.0580001"
       inkscape:label="rosa" /><rect
       style="display:inline;fill:#bd0000;fill-opacity:1;stroke-width:0.40253"
       id="rect7862"
       width="60"
       height="0.40000001"
       x="-3.8084087"
       y="1.0583332"
       inkscape:label="rosso" /></g><g
     inkscape:groupmode="layer"
     id="layer4"
     inkscape:label="Elementi"
     style="display:inline;fill:#f9f9f9"><rect
       style="display:inline;fill:#000033;fill-opacity:1;stroke:#666699;stroke-width:0.4;stroke-dasharray:none;stroke-opacity:1"
       id="rect11308"
       width="11.596443"
       height="25.556786"
       x="1.2"
       y="10.96211"
       ry="2"
       inkscape:label="mode rect" /><rect
       style="display:inline;fill:none;stroke:#a3a3c2;stroke-width:0.545548;stroke-dasharray:none;stroke-opacity:1"
       id="rect1157"
       width="5.0544515"
       height="7.4544516"
       x="6.3727741"
       y="26.972775"
       ry="0.23370494"
       inkscape:label="switch" /><rect
       style="display:inline;fill:#000033;fill-opacity:1;stroke:#666699;stroke-width:0.4;stroke-dasharray:none;stroke-opacity:1"
       id="rect3"
       width="11.596443"
       height="25.556786"
       x="27.799904"
       y="10.96211"
       ry="2"
       inkscape:label="mode rect" /><rect
       style="display:inline;fill:#000033;fill-opacity:1;stroke:#666699;stroke-width:0.4;stroke-dasharray:none;stroke-opacity:1"
       id="rect4"
       width="11.596443"
       height="25.556786"
       x="14.521778"
       y="10.96211"
       ry="2"
       inkscape:label="mode rect" /><rect
       style="display:inline;fill:#000033;fill-opacity:1;stroke:#666699;stroke-width:0.400003;stroke-dasharray:none;stroke-opacity:1"
       id="rect5"
       width="38.099998"
       height="16.254498"
       x="1.2002594"
       y="106.33311"
       ry="1.9999361"
       inkscape:label="mode rect" /><rect
       style="display:inline;fill:none;stroke:#a3a3c2;stroke-width:0.545548;stroke-dasharray:none;stroke-opacity:1"
       id="rect28"
       width="5.0544515"
       height="7.4544516"
       x="29.072775"
       y="26.972775"
       ry="0.23370494"
       inkscape:label="switch" /><path
       style="display:inline;fill:#000000;fill-opacity:1;stroke:#51517a;stroke-width:0.4;stroke-dasharray:none;stroke-opacity:1"
       d="M 20.45,24.873363 20.45,26.5"
       id="path19081"
       sodipodi:nodetypes="cc" /><rect
       style="display:inline;fill:#000033;fill-opacity:1;stroke:#666699;stroke-width:0.4;stroke-dasharray:none;stroke-opacity:1"
       id="rect43"
       width="38.045181"
       height="21.045179"
       x="1.2"
       y="38.227409"
       ry="2"
       inkscape:label="mode rect" /><rect
       style="display:inline;fill:#000033;fill-opacity:1;stroke:#666699;stroke-width:0.4;stroke-dasharray:none;stroke-opacity:1"
       id="rect44"
       width="38.099762"
       height="15.654762"
       x="1.2"
       y="60.87262"
       ry="2"
       inkscape:label="mode rect" /><rect
       style="display:inline;fill:#000033;fill-opacity:1;stroke:#666699;stroke-width:0.4;stroke-dasharray:none;stroke-opacity:1"
       id="rect78"
       width="38.047417"
       height="15.232852"
       x="1.2"
       y="78.226166"
       ry="2"
       inkscape:label="mode rect"
       rx="2" /><rect
       style="display:inline;fill:#000033;fill-opacity:1;stroke:#666699;stroke-width:0.4;stroke-dasharray:none;stroke-opacity:1"
       id="rect79"
       width="38.29031"
       height="9.8978214"
       x="1.2"
       y="94.991516"
       ry="2"
       inkscape:label="mode rect"
       rx="2" /></g><g
     inkscape:groupmode="layer"
     id="layer5"
     inkscape:label="Etichette Testo"
     style="display:none"><text
       xml:space="preserve"
       style="font-style:normal;font-variant:normal;font-weight:normal;font-stretch:normal;font-size:3.175px;font-family:'C64 User';-inkscape-font-specification:'C64 User';text-align:center;text-anchor:middle;display:inline;fill:#ffffff;stroke:none;stroke-width:0.264999;stroke-dasharray:0.264999, 0.264999;stroke-dashoffset:0;stroke-opacity:1"
       x="33.833218"
       y="15.678125"
       id="text11122"
       inkscape:label="B"><tspan
         sodipodi:role="line"
         id="tspan11120"
         style="font-size:3.175px;text-align:center;text-anchor:middle;fill:#ffffff;stroke:none;stroke-width:0.265"
         x="33.833218"
         y="15.678125">B</tspan></text><text
       xml:space="preserve"
       style="font-style:normal;font-variant:normal;font-weight:normal;font-stretch:normal;font-size:3.175px;font-family:'C64 User';-inkscape-font-specification:'C64 User';text-align:center;text-anchor:middle;display:inline;fill:#ffffff;stroke:none;stroke-width:0.264999;stroke-dasharray:0.264999, 0.264999;stroke-dashoffset:0;stroke-opacity:1"
       x="7.2032189"
       y="15.678125"
       id="text4"
       inkscape:label="A"><tspan
         sodipodi:role="line"
         id="tspan4"
         style="font-size:3.175px;text-align:center;text-anchor:middle;fill:#ffffff;stroke:none;stroke-width:0.265"
         x="7.2032189"
         y="15.678125">A</tspan></text><text
       xml:space="preserve"
       style="font-style:normal;font-variant:normal;font-weight:normal;font-stretch:normal;font-size:2.11667px;font-family:'C64 User';-inkscape-font-specification:'C64 User';text-align:center;text-anchor:middle;display:inline;fill:#ffffff;stroke:none;stroke-width:0.264999;stroke-dasharray:0.264999, 0.264999;stroke-dashoffset:0;stroke-opacity:1"
       x="3.8881085"
       y="29.648947"
       id="text18"
       inkscape:label="TR1"><tspan
         sodipodi:role="line"
         id="tspan18"
         style="font-size:2.11667px;text-align:center;text-anchor:middle;fill:#ffffff;stroke:none;stroke-width:0.265"
         x="3.8881085"
         y="29.648947">CV</tspan></text><text
       xml:space="preserve"
       style="font-style:normal;font-variant:normal;font-weight:normal;font-stretch:normal;font-size:2.11667px;font-family:'C64 User';-inkscape-font-specification:'C64 User';text-align:center;text-anchor:middle;display:inline;fill:#ffffff;stroke:none;stroke-width:0.264999;stroke-dasharray:0.264999, 0.264999;stroke-dashoffset:0;stroke-opacity:1"
       x="4.8648324"
       y="33.493458"
       id="text2"
       inkscape:label="CV1"><tspan
         sodipodi:role="line"
         id="tspan1"
         style="font-size:2.11667px;text-align:center;text-anchor:middle;fill:#ffffff;stroke:none;stroke-width:0.265"
         x="4.8648324"
         y="33.493458">T</tspan></text><text
       xml:space="preserve"
       style="font-style:normal;font-variant:normal;font-weight:normal;font-stretch:normal;font-size:2.82222px;font-family:'C64 User';-inkscape-font-specification:'C64 User';text-align:center;text-anchor:middle;display:inline;fill:#ffffff;stroke:none;stroke-width:0.264999;stroke-dasharray:0.264999, 0.264999;stroke-dashoffset:0;stroke-opacity:1"
       x="20.496387"
       y="15.678125"
       id="text5"
       inkscape:label="RST"><tspan
         sodipodi:role="line"
         id="tspan5"
         style="font-size:2.82222px;text-align:center;text-anchor:middle;fill:#ffffff;stroke:none;stroke-width:0.265"
         x="20.496387"
         y="15.678125">RST</tspan></text><text
       xml:space="preserve"
       style="font-style:normal;font-variant:normal;font-weight:normal;font-stretch:normal;font-size:2.82222px;font-family:'C64 User';-inkscape-font-specification:'C64 User';text-align:center;text-anchor:middle;display:inline;fill:#ffffff;stroke:none;stroke-width:0.264999;stroke-dasharray:0.264999, 0.264999;stroke-dashoffset:0;stroke-opacity:1"
       x="20.496387"
       y="42.255806"
       id="text6"
       inkscape:label="VOLT"><tspan
         sodipodi:role="line"
         id="tspan6"
         style="font-size:2.82222px;text-align:center;text-anchor:middle;fill:#ffffff;stroke:none;stroke-width:0.265"
         x="20.496387"
         y="42.255806">VOLT/NOTE</tspan></text><text
       xml:space="preserve"
       style="font-style:normal;font-variant:normal;font-weight:normal;font-stretch:normal;font-size:2.82222px;font-family:'C64 User';-inkscape-font-specification:'C64 User';text-align:center;text-anchor:middle;display:inline;fill:#ffffff;stroke:none;stroke-width:0.264999;stroke-dasharray:0.264999, 0.264999;stroke-dashoffset:0;stroke-opacity:1"
       x="20.496389"
       y="65.294441"
       id="text8"
       inkscape:label="MIDI"><tspan
         sodipodi:role="line"
         id="tspan8"
         style="font-size:2.82222px;text-align:center;text-anchor:middle;fill:#ffffff;stroke:none;stroke-width:0.265"
         x="20.496389"
         y="65.294441">MIDI</tspan></text><text
       xml:space="preserve"
       style="font-style:normal;font-variant:normal;font-weight:normal;font-stretch:normal;font-size:2.82222px;font-family:'C64 User';-inkscape-font-specification:'C64 User';text-align:center;text-anchor:middle;display:inline;fill:#ffffff;stroke:none;stroke-width:0.264999;stroke-dasharray:0.264999, 0.264999;stroke-dashoffset:0;stroke-opacity:1"
       x="20.496387"
       y="82.446358"
       id="text9"
       inkscape:label="BPM"><tspan
         sodipodi:role="line"
         id="tspan9"
         style="font-size:2.82222px;text-align:center;text-anchor:middle;fill:#ffffff;stroke:none;stroke-width:0.265"
         x="20.496387"
         y="82.446358">BPM</tspan></text><text
       xml:space="preserve"
       style="font-style:normal;font-variant:normal;font-weight:normal;font-stretch:normal;font-size:2.82222px;font-family:'C64 User';-inkscape-font-specification:'C64 User';text-align:center;text-anchor:middle;display:inline;fill:#ffffff;stroke:none;stroke-width:0.264999;stroke-dasharray:0.264999, 0.264999;stroke-dashoffset:0;stroke-opacity:1"
       x="20.496387"
       y="111.39318"
       id="text3"
       inkscape:label="(SAMPLES)"><tspan
         sodipodi:role="line"
         id="tspan2"
         style="font-size:2.82222px;text-align:center;text-anchor:middle;fill:#ffffff;stroke:none;stroke-width:0.265"
         x="20.496387"
         y="111.39318">DELAY</tspan></text><text
       xml:space="preserve"
       style="font-style:normal;font-variant:normal;font-weight:normal;font-stretch:normal;font-size:2.11667px;font-family:'C64 User';-inkscape-font-specification:'C64 User';text-align:center;text-anchor:middle;display:inline;fill:#ffffff;stroke:none;stroke-width:0.264999;stroke-dasharray:0.264999, 0.264999;stroke-dashoffset:0;stroke-opacity:1"
       x="20.496387"
       y="114.74195"
       id="text10"
       inkscape:label="DELAY"><tspan
         sodipodi:role="line"
         id="tspan10"
         style="font-size:2.11667px;text-align:center;text-anchor:middle;fill:#ffffff;stroke:none;stroke-width:0.265"
         x="20.496387"
         y="114.74195">(samples)</tspan></text><text
       xml:space="preserve"
       style="font-style:normal;font-variant:normal;font-weight:normal;font-stretch:normal;font-size:2.11667px;font-family:'C64 User';-inkscape-font-specification:'C64 User';text-align:center;text-anchor:middle;display:inline;fill:#ffffff;stroke:none;stroke-width:0.264999;stroke-dasharray:0.264999, 0.264999;stroke-dashoffset:0;stroke-opacity:1"
       x="36.929279"
       y="29.648947"
       id="text29"
       inkscape:label="TR1"><tspan
         sodipodi:role="line"
         id="tspan29"
         style="font-size:2.11667px;text-align:center;text-anchor:middle;fill:#ffffff;stroke:none;stroke-width:0.265"
         x="36.929279"
         y="29.648947">CV</tspan></text><text
       xml:space="preserve"
       style="font-style:normal;font-variant:normal;font-weight:normal;font-stretch:normal;font-size:2.11667px;font-family:'C64 User';-inkscape-font-specification:'C64 User';text-align:center;text-anchor:middle;display:inline;fill:#ffffff;stroke:none;stroke-width:0.264999;stroke-dasharray:0.264999, 0.264999;stroke-dashoffset:0;stroke-opacity:1"
       x="36.119991"
       y="33.493458"
       id="text30"
       inkscape:label="CV1"><tspan
         sodipodi:role="line"
         id="tspan30"
         style="font-size:2.11667px;text-align:center;text-anchor:middle;fill:#ffffff;stroke:none;stroke-width:0.265"
         x="36.119991"
         y="33.493458">T</tspan></text><text
       xml:space="preserve"
       style="font-style:normal;font-variant:normal;font-weight:normal;font-stretch:normal;font-size:2.46944px;font-family:'C64 User';-inkscape-font-specification:'C64 User';text-align:center;text-anchor:middle;display:inline;fill:#ffffff;stroke:none;stroke-width:0.264999;stroke-dasharray:0.264999, 0.264999;stroke-dashoffset:0;stroke-opacity:1"
       x="6.5431924"
       y="69.647835"
       id="text44"
       inkscape:label="NOTE"><tspan
         sodipodi:role="line"
         id="tspan44"
         style="font-size:2.46944px;text-align:center;text-anchor:middle;fill:#ffffff;stroke:none;stroke-width:0.265"
         x="6.5431924"
         y="69.647835">NT</tspan></text><text
       xml:space="preserve"
       style="font-style:normal;font-variant:normal;font-weight:normal;font-stretch:normal;font-size:2.46944px;font-family:'C64 User';-inkscape-font-specification:'C64 User';text-align:center;text-anchor:middle;display:inline;fill:#ffffff;stroke:none;stroke-width:0.264999;stroke-dasharray:0.264999, 0.264999;stroke-dashoffset:0;stroke-opacity:1"
       x="14.245358"
       y="69.647835"
       id="text45"
       inkscape:label="CC"><tspan
         sodipodi:role="line"
         id="tspan45"
         style="font-size:2.46944px;text-align:center;text-anchor:middle;fill:#ffffff;stroke:none;stroke-width:0.265"
         x="14.245358"
         y="69.647835">CC</tspan></text><text
       xml:space="preserve"
       style="font-style:normal;font-variant:normal;font-weight:normal;font-stretch:normal;font-size:2.46944px;font-family:'C64 User';-inkscape-font-specification:'C64 User';text-align:center;text-anchor:middle;display:inline;fill:#ffffff;stroke:none;stroke-width:0.264999;stroke-dasharray:0.264999, 0.264999;stroke-dashoffset:0;stroke-opacity:1"
       x="26.859047"
       y="69.647835"
       id="text46"
       inkscape:label="NOTE"><tspan
         sodipodi:role="line"
         id="tspan46"
         style="font-size:2.46944px;text-align:center;text-anchor:middle;fill:#ffffff;stroke:none;stroke-width:0.265"
         x="26.859047"
         y="69.647835">NT</tspan></text><text
       xml:space="preserve"
       style="font-style:normal;font-variant:normal;font-weight:normal;font-stretch:normal;font-size:2.46944px;font-family:'C64 User';-inkscape-font-specification:'C64 User';text-align:center;text-anchor:middle;display:inline;fill:#ffffff;stroke:none;stroke-width:0.264999;stroke-dasharray:0.264999, 0.264999;stroke-dashoffset:0;stroke-opacity:1"
       x="34.561214"
       y="69.647835"
       id="text47"
       inkscape:label="CC"><tspan
         sodipodi:role="line"
         id="tspan47"
         style="font-size:2.46944px;text-align:center;text-anchor:middle;fill:#ffffff;stroke:none;stroke-width:0.265"
         x="34.561214"
         y="69.647835">CC</tspan></text><text
       xml:space="preserve"
       style="font-style:normal;font-variant:normal;font-weight:normal;font-stretch:normal;font-size:2.11667px;font-family:'C64 User';-inkscape-font-specification:'C64 User';text-align:center;text-anchor:middle;display:inline;fill:#ffffff;stroke:none;stroke-width:0.264999;stroke-dasharray:0.264999, 0.264999;stroke-dashoffset:0;stroke-opacity:1"
       x="20.496387"
       y="114.74195"
       id="text27"
       inkscape:label="DELAY"><tspan
         sodipodi:role="line"
         id="tspan3"
         style="font-size:2.11667px;text-align:center;text-anchor:middle;fill:#ffffff;stroke:none;stroke-width:0.265"
         x="20.496387"
         y="114.74195">(samples)</tspan></text><text
       xml:space="preserve"
       style="font-style:normal;font-variant:normal;font-weight:normal;font-stretch:normal;font-size:2.11667px;font-family:'C64 User';-inkscape-font-specification:'C64 User';text-align:center;text-anchor:middle;display:inline;fill:#ffffff;stroke:none;stroke-width:0.264999;stroke-dasharray:0.264999, 0.264999;stroke-dashoffset:0;stroke-opacity:1"
       x="20.496387"
       y="85.272797"
       id="text28"
       inkscape:label="current"><tspan
         sodipodi:role="line"
         id="tspan27"
         style="font-size:2.11667px;text-align:center;text-anchor:middle;fill:#ffffff;stroke:none;stroke-width:0.265"
         x="20.496387"
         y="85.272797">current clock</tspan></text><text
       xml:space="preserve"
       style="font-style:normal;font-variant:normal;font-weight:normal;font-stretch:normal;font-size:2.82222px;font-family:'C64 User';-inkscape-font-specification:'C64 User';text-align:center;text-anchor:middle;display:inline;fill:#ffffff;stroke:none;stroke-width:0.264999;stroke-dasharray:0.264999, 0.264999;stroke-dashoffset:0;stroke-opacity:1"
       x="29.851376"
       y="101.17515"
       id="text11"
       inkscape:label="FREEZE"><tspan
         sodipodi:role="line"
         id="tspan7"
         style="font-size:2.82222px;text-align:center;text-anchor:middle;fill:#ffffff;stroke:none;stroke-width:0.265"
         x="29.851376"
         y="101.17515">FREEZE</tspan></text></g><g
     inkscape:groupmode="layer"
     id="g53"
     inkscape:label="Etichette Testo nere"
     style="display:inline;fill:#000000"
     transform="translate(0.2999777,0.3)"><path
       style="font-size:3.175px;font-family:'C64 User';-inkscape-font-specification:'C64 User';text-align:center;text-anchor:middle;fill:#000000;stroke-width:0.265;stroke-dasharray:0.264999, 0.264999"
       d="M 32.444155,15.678125 V 12.9 h 1.984375 v 0.396875 h 0.396875 v 0.79375 H 34.42853 V 14.4875 h 0.396875 v 0.79375 H 34.42853 v 0.396875 z m 0.79375,-0.396875 h 0.79375 V 14.4875 h -0.79375 z m 0,-1.190625 h 0.79375 v -0.79375 h -0.79375 z"
       id="path35"
       inkscape:label="B"
       aria-label="B" /><path
       style="font-size:3.175px;font-family:'C64 User';-inkscape-font-specification:'C64 User';text-align:center;text-anchor:middle;fill:#000000;stroke-width:0.265;stroke-dasharray:0.264999, 0.264999"
       d="M 5.8141565,15.678125 V 13.69375 h 0.396875 V 13.296875 H 6.6079064 V 12.9 h 0.79375 v 0.396875 h 0.396875 v 0.396875 h 0.396875 v 1.984375 h -0.79375 V 14.4875 h -0.79375 v 1.190625 z m 0.7937499,-1.5875 h 0.79375 V 13.69375 h -0.79375 z"
       id="path36"
       inkscape:label="A"
       aria-label="A" /><path
       style="font-size:2.11667px;font-family:'C64 User';-inkscape-font-specification:'C64 User';text-align:center;text-anchor:middle;fill:#000000;stroke-width:0.265;stroke-dasharray:0.264999, 0.264999"
       d="M 2.3006061,29.648947 V 29.384363 H 2.0360223 V 28.061444 H 2.3006061 V 27.796861 H 3.358941 v 0.264583 h 0.2645838 v 0.264584 H 3.0943573 V 28.061444 H 2.5651898 v 1.322919 h 0.5291675 v -0.264584 h 0.5291675 v 0.264584 H 3.358941 v 0.264584 z m 2.1166699,0 V 29.384363 H 4.1526923 V 29.119779 H 3.8881085 V 27.796861 H 4.417276 v 1.322918 h 0.5291675 v -1.322918 h 0.5291674 v 1.322918 H 5.2110272 v 0.264584 H 4.9464435 v 0.264584 z"
       id="path37"
       inkscape:label="TR1"
       aria-label="CV" /><path
       style="font-size:2.11667px;font-family:'C64 User';-inkscape-font-specification:'C64 User';text-align:center;text-anchor:middle;fill:#000000;stroke-width:0.265;stroke-dasharray:0.264999, 0.264999"
       d="M 4.4679568,33.493458 V 31.905955 H 3.9387893 v -0.264583 h 1.5875024 v 0.264583 H 4.9971243 v 1.587503 z"
       id="path38"
       inkscape:label="CV1"
       aria-label="T" /><path
       style="font-size:2.82222px;font-family:'C64 User';-inkscape-font-specification:'C64 User';text-align:center;text-anchor:middle;fill:#000000;stroke-width:0.265;stroke-dasharray:0.264999, 0.264999"
       d="m 16.792224,15.678125 v -2.469442 h 1.763887 v 0.352777 h 0.352778 v 0.705555 h -0.352778 v 0.352778 h -0.352777 v 0.352777 h 0.352777 v 0.352778 h 0.352778 v 0.352777 H 18.203334 V 15.325348 H 17.850556 V 14.97257 h -0.352777 v 0.705555 z m 0.705555,-1.41111 h 0.705555 V 13.56146 h -0.705555 z m 2.116665,1.41111 V 15.325348 H 19.261666 V 14.97257 h 0.705555 v 0.352778 h 0.705555 V 14.619793 H 19.614444 V 14.267015 H 19.261666 V 13.56146 h 0.352778 v -0.352777 h 1.41111 v 0.352777 h 0.352777 v 0.352778 H 20.672776 V 13.56146 h -0.705555 v 0.705555 h 1.058333 v 0.352778 h 0.352777 v 0.705555 h -0.352777 v 0.352777 z m 2.82222,0 V 13.56146 h -0.705555 v -0.352777 h 2.116665 v 0.352777 h -0.705555 v 2.116665 z"
       id="path39"
       inkscape:label="RST"
       aria-label="RST" /><path
       style="font-size:2.82222px;font-family:'C64 User';-inkscape-font-specification:'C64 User';text-align:center;text-anchor:middle;fill:#000000;stroke-width:0.265;stroke-dasharray:0.264999, 0.264999"
       d="M 9.9130622,42.255806 V 41.903028 H 9.5602846 V 41.550251 H 9.2075071 v -1.763888 h 0.7055551 v 1.763888 h 0.7055548 v -1.763888 h 0.705555 v 1.763888 h -0.352777 v 0.352777 h -0.352778 v 0.352778 z m 2.1166648,0 V 41.903028 H 11.67695 v -1.763887 h 0.352777 v -0.352778 h 1.41111 v 0.352778 h 0.352778 v 1.763887 h -0.352778 v 0.352778 z m 0.352778,-0.352778 h 0.705555 v -1.763887 h -0.705555 z m 2.469442,-2.116665 v 2.116665 h 1.41111 v 0.352778 h -2.116665 v -2.469443 z m 2.469443,2.469443 V 40.139141 H 16.615835 V 39.786363 H 18.7325 v 0.352778 h -0.705555 v 2.116665 z m 1.763888,0 v -0.352778 h 0.352777 v -0.352777 h 0.352778 v -0.352778 h 0.352777 v -0.352777 h 0.352778 v -0.352778 h 0.352777 v -0.352777 h 0.705555 v 0.352777 h -0.352777 v 0.352778 h -0.352778 v 0.352777 h -0.352777 v 0.352778 H 20.14361 v 0.352777 h -0.352777 v 0.352778 z m 2.822219,0 v -2.469443 h 0.705555 v 0.352778 h 0.352778 v 0.352777 h 0.352777 v -0.705555 h 0.705555 v 2.469443 H 23.318607 V 41.550251 H 22.96583 v -0.352778 h -0.352778 v 1.058333 z m 2.822221,0 v -0.352778 h -0.352777 v -1.763887 h 0.352777 v -0.352778 h 1.41111 v 0.352778 h 0.352778 v 1.763887 h -0.352778 v 0.352778 z m 0.352778,-0.352778 h 0.705555 v -1.763887 h -0.705555 z m 2.469442,0.352778 v -2.116665 h -0.705555 v -0.352778 h 2.116665 v 0.352778 h -0.705555 v 2.116665 z m 3.880553,-2.469443 v 0.352778 H 30.02138 v 0.705555 h 0.705556 v 0.352777 H 30.02138 v 0.705555 h 1.411111 v 0.352778 h -2.116666 v -2.469443 z"
       id="path40"
       inkscape:label="VOLT"
       aria-label="VOLT/NOTE" /><path
       style="font-size:2.82222px;font-family:'C64 User';-inkscape-font-specification:'C64 User';text-align:center;text-anchor:middle;fill:#000000;stroke-width:0.265;stroke-dasharray:0.264999, 0.264999"
       d="m 16.086671,65.294441 v -2.469442 h 0.705555 v 0.352777 h 0.352777 v 0.352778 h 0.352778 v -0.352778 h 0.352777 v -0.352777 h 0.705555 v 2.469442 h -0.705555 v -1.41111 h -0.352777 v 0.352778 h -0.352778 v -0.352778 h -0.352777 v 1.41111 z m 4.23333,-2.469442 v 0.352777 h -0.352778 v 1.763888 h 0.352778 v 0.352777 h -1.41111 v -0.352777 h 0.352777 v -1.763888 h -0.352777 v -0.352777 z m 0.352777,2.469442 v -2.469442 h 1.41111 v 0.352777 h 0.352778 v 0.352778 h 0.352777 v 1.058332 h -0.352777 v 0.352778 h -0.352778 v 0.352777 z m 0.705555,-0.352777 h 0.352778 v -0.352778 h 0.352777 v -1.058332 h -0.352777 v -0.352778 h -0.352778 z m 3.174998,-2.116665 v 0.352777 h -0.352778 v 1.763888 h 0.352778 v 0.352777 h -1.41111 v -0.352777 h 0.352777 v -1.763888 h -0.352777 v -0.352777 z"
       id="path41"
       inkscape:label="MIDI"
       aria-label="MIDI" /><path
       style="font-size:2.82222px;font-family:'C64 User';-inkscape-font-specification:'C64 User';text-align:center;text-anchor:middle;fill:#000000;stroke-width:0.265;stroke-dasharray:0.264999, 0.264999"
       d="m 16.615835,82.446358 v -2.469443 h 1.763887 v 0.352778 H 18.7325 v 0.705555 h -0.352778 v 0.352777 H 18.7325 v 0.705555 h -0.352778 v 0.352778 z M 17.32139,82.09358 h 0.705555 V 81.388025 H 17.32139 Z m 0,-1.058332 h 0.705555 V 80.329693 H 17.32139 Z m 1.763887,1.41111 v -2.469443 h 1.763888 v 0.352778 h 0.352778 v 0.705555 h -0.352778 v 0.352777 h -1.058333 v 1.058333 z m 0.705555,-1.41111 h 0.705556 v -0.705555 h -0.705556 z m 1.763888,1.41111 v -2.469443 h 0.705555 v 0.352778 h 0.352778 v 0.352777 h 0.352777 v -0.352777 h 0.352778 v -0.352778 h 0.705555 v 2.469443 h -0.705555 v -1.41111 H 22.96583 v 0.352777 h -0.352777 v -0.352777 h -0.352778 v 1.41111 z"
       id="path42"
       inkscape:label="BPM"
       aria-label="BPM" /><path
       style="font-size:2.82222px;font-family:'C64 User';-inkscape-font-specification:'C64 User';text-align:center;text-anchor:middle;fill:#000000;stroke-width:0.265;stroke-dasharray:0.264999, 0.264999"
       d="m 14.322781,111.39318 v -2.46944 h 1.41111 v 0.35278 h 0.352778 v 0.35277 h 0.352777 v 1.05834 h -0.352777 v 0.35277 h -0.352778 v 0.35278 z m 0.705555,-0.35278 h 0.352778 v -0.35277 h 0.352777 v -1.05834 h -0.352777 v -0.35277 h -0.352778 z m 3.880553,-2.11666 v 0.35278 h -1.41111 v 0.70555 h 0.705555 v 0.35278 h -0.705555 v 0.70555 h 1.41111 v 0.35278 h -2.116665 v -2.46944 z m 1.058332,0 v 2.11666 h 1.41111 v 0.35278 h -2.116665 v -2.46944 z m 1.763888,2.46944 v -1.76389 h 0.352778 v -0.35277 h 0.352777 v -0.35278 h 0.705555 v 0.35278 h 0.352778 v 0.35277 h 0.352777 v 1.76389 h -0.705555 v -1.05833 h -0.705555 v 1.05833 z m 0.705555,-1.41111 h 0.705555 v -0.35278 h -0.705555 z m 2.469442,1.41111 v -1.05833 h -0.352777 v -0.35278 h -0.352778 v -1.05833 h 0.705555 v 1.05833 h 0.705556 v -1.05833 h 0.705555 v 1.05833 h -0.352778 v 0.35278 h -0.352777 v 1.05833 z"
       id="path43"
       inkscape:label="(SAMPLES)"
       aria-label="DELAY" /><path
       style="font-size:2.11667px;font-family:'C64 User';-inkscape-font-specification:'C64 User';text-align:center;text-anchor:middle;fill:#000000;stroke-width:0.265;stroke-dasharray:0.264999, 0.264999"
       d="m 13.352627,114.74195 v -0.26458 h -0.264584 v -0.26459 h -0.264584 v -0.79375 h 0.264584 v -0.26458 h 0.264584 v -0.26459 h 0.529167 v 0.26459 H 13.61721 v 0.26458 h -0.264583 v 0.79375 h 0.264583 v 0.26459 h 0.264584 v 0.26458 z m 2.381253,-1.32292 v 0.26459 h -1.058335 v 0.26458 h 0.793751 v 0.26458 h 0.264584 v 0.26459 h -0.264584 v 0.26458 h -1.322918 v -0.26458 h 1.058335 v -0.26459 h -0.793751 v -0.26458 h -0.264584 v -0.26458 h 0.264584 v -0.26459 z m 0.529168,1.32292 v -0.26458 h -0.264584 v -0.26459 h 0.264584 v -0.26458 h 0.793751 v -0.26458 h -0.793751 v -0.26459 h 1.058335 v 0.26459 h 0.264583 v 1.05833 z m 0.264584,-0.26458 h 0.529167 v -0.26459 h -0.529167 z m 1.322918,0.26458 v -1.32292 h 0.529168 v 0.26459 h 0.529167 v -0.26459 h 0.529168 v 0.26459 h 0.264583 v 1.05833 h -0.529167 v -0.52917 h -0.264584 v 0.26459 h -0.264584 v -0.26459 h -0.264583 v 0.52917 z m 2.11667,0.26458 v -1.5875 h 1.322918 v 0.26459 h 0.264584 v 0.52916 h -0.264584 v 0.26459 h -0.793751 v 0.52916 z m 0.529167,-0.79375 h 0.529168 v -0.52916 h -0.529168 z m 2.11667,-1.05833 v 1.32292 h 0.264584 v 0.26458 h -1.058335 v -0.26458 h 0.264584 v -1.05834 h -0.264584 v -0.26458 z m 1.587503,0.52917 h -0.529168 v 0.26458 h 0.529168 z m 0.264583,-0.26459 v 0.26459 h 0.264584 v 0.52916 h -1.058335 v 0.26459 h 0.793751 v 0.26458 h -1.058335 v -0.26458 h -0.264583 v -0.79375 h 0.264583 v -0.26459 z m 2.11667,0 v 0.26459 h -1.058335 v 0.26458 h 0.793752 v 0.26458 h 0.264583 v 0.26459 H 26.31723 v 0.26458 h -1.322919 v -0.26458 h 1.058335 v -0.26459 h -0.793751 v -0.26458 h -0.264584 v -0.26458 h 0.264584 v -0.26459 z m 0.264584,1.32292 v -0.26458 h 0.264584 v -0.26459 h 0.264583 v -0.79375 h -0.264583 v -0.26458 h -0.264584 v -0.26459 h 0.529167 v 0.26459 h 0.264584 v 0.26458 h 0.264584 v 0.79375 h -0.264584 v 0.26459 h -0.264584 v 0.26458 z"
       id="path44"
       inkscape:label="DELAY"
       aria-label="(samples)" /><path
       style="font-size:2.11667px;font-family:'C64 User';-inkscape-font-specification:'C64 User';text-align:center;text-anchor:middle;fill:#000000;stroke-width:0.265;stroke-dasharray:0.264999, 0.264999"
       d="m 35.341777,29.648947 v -0.264584 h -0.264584 v -1.322919 h 0.264584 v -0.264583 h 1.058335 v 0.264583 h 0.264584 v 0.264584 h -0.529168 v -0.264584 h -0.529167 v 1.322919 h 0.529167 v -0.264584 h 0.529168 v 0.264584 h -0.264584 v 0.264584 z m 2.11667,0 v -0.264584 h -0.264584 v -0.264584 h -0.264584 v -1.322918 h 0.529168 v 1.322918 h 0.529167 v -1.322918 h 0.529168 v 1.322918 h -0.264584 v 0.264584 h -0.264584 v 0.264584 z"
       id="path45"
       inkscape:label="TR1"
       aria-label="CV" /><path
       style="font-size:2.11667px;font-family:'C64 User';-inkscape-font-specification:'C64 User';text-align:center;text-anchor:middle;fill:#000000;stroke-width:0.265;stroke-dasharray:0.264999, 0.264999"
       d="m 35.723116,33.493458 v -1.587503 h -0.529168 v -0.264583 h 1.587503 v 0.264583 h -0.529168 v 1.587503 z"
       id="path46"
       inkscape:label="CV1"
       aria-label="T" /><path
       style="font-size:2.46944px;font-family:'C64 User';-inkscape-font-specification:'C64 User';text-align:center;text-anchor:middle;fill:#000000;stroke-width:0.265;stroke-dasharray:0.264999, 0.264999"
       d="m 4.3824324,69.647835 v -2.16076 h 0.61736 v 0.30868 h 0.30868 v 0.30868 h 0.30868 v -0.61736 h 0.61736 v 2.16076 h -0.61736 v -0.61736 h -0.30868 v -0.30868 h -0.30868 v 0.92604 z m 2.7781199,0 v -1.85208 h -0.61736 v -0.30868 h 1.85208 v 0.30868 h -0.61736 v 1.85208 z"
       id="path47"
       inkscape:label="NOTE"
       aria-label="NT" /><path
       style="font-size:2.46944px;font-family:'C64 User';-inkscape-font-specification:'C64 User';text-align:center;text-anchor:middle;fill:#000000;stroke-width:0.265;stroke-dasharray:0.264999, 0.264999"
       d="m 12.393278,69.647835 v -0.30868 h -0.30868 v -1.5434 h 0.30868 v -0.30868 h 1.23472 v 0.30868 h 0.30868 v 0.30868 h -0.61736 v -0.30868 h -0.61736 v 1.5434 h 0.61736 v -0.30868 h 0.61736 v 0.30868 h -0.30868 v 0.30868 z m 2.16076,0 v -0.30868 h -0.30868 v -1.5434 h 0.30868 v -0.30868 h 1.23472 v 0.30868 h 0.30868 v 0.30868 h -0.61736 v -0.30868 h -0.61736 v 1.5434 h 0.61736 v -0.30868 h 0.61736 v 0.30868 h -0.30868 v 0.30868 z"
       id="path48"
       inkscape:label="CC"
       aria-label="CC" /><path
       style="font-size:2.46944px;font-family:'C64 User';-inkscape-font-specification:'C64 User';text-align:center;text-anchor:middle;fill:#000000;stroke-width:0.265;stroke-dasharray:0.264999, 0.264999"
       d="m 24.698287,69.647835 v -2.16076 h 0.61736 v 0.30868 h 0.30868 v 0.30868 h 0.30868 v -0.61736 h 0.61736 v 2.16076 h -0.61736 v -0.61736 h -0.30868 v -0.30868 h -0.30868 v 0.92604 z m 2.77812,0 v -1.85208 h -0.61736 v -0.30868 h 1.85208 v 0.30868 h -0.61736 v 1.85208 z"
       id="path49"
       inkscape:label="NOTE"
       aria-label="NT" /><path
       style="font-size:2.46944px;font-family:'C64 User';-inkscape-font-specification:'C64 User';text-align:center;text-anchor:middle;fill:#000000;stroke-width:0.265;stroke-dasharray:0.264999, 0.264999"
       d="m 32.709134,69.647835 v -0.30868 h -0.30868 v -1.5434 h 0.30868 v -0.30868 h 1.23472 v 0.30868 h 0.30868 v 0.30868 h -0.61736 v -0.30868 h -0.61736 v 1.5434 h 0.61736 v -0.30868 h 0.61736 v 0.30868 h -0.30868 v 0.30868 z m 2.16076,0 v -0.30868 h -0.30868 v -1.5434 h 0.30868 v -0.30868 h 1.23472 v 0.30868 h 0.30868 v 0.30868 h -0.61736 v -0.30868 h -0.61736 v 1.5434 h 0.61736 v -0.30868 h 0.61736 v 0.30868 h -0.30868 v 0.30868 z"
       id="path50"
       inkscape:label="CC"
       aria-label="CC" /><path
       style="font-size:2.11667px;font-family:'C64 User';-inkscape-font-specification:'C64 User';text-align:center;text-anchor:middle;fill:#000000;stroke-width:0.265;stroke-dasharray:0.264999, 0.264999"
       d="m 13.352627,114.74195 v -0.26458 h -0.264584 v -0.26459 h -0.264584 v -0.79375 h 0.264584 v -0.26458 h 0.264584 v -0.26459 h 0.529167 v 0.26459 H 13.61721 v 0.26458 h -0.264583 v 0.79375 h 0.264583 v 0.26459 h 0.264584 v 0.26458 z m 2.381253,-1.32292 v 0.26459 h -1.058335 v 0.26458 h 0.793751 v 0.26458 h 0.264584 v 0.26459 h -0.264584 v 0.26458 h -1.322918 v -0.26458 h 1.058335 v -0.26459 h -0.793751 v -0.26458 h -0.264584 v -0.26458 h 0.264584 v -0.26459 z m 0.529168,1.32292 v -0.26458 h -0.264584 v -0.26459 h 0.264584 v -0.26458 h 0.793751 v -0.26458 h -0.793751 v -0.26459 h 1.058335 v 0.26459 h 0.264583 v 1.05833 z m 0.264584,-0.26458 h 0.529167 v -0.26459 h -0.529167 z m 1.322918,0.26458 v -1.32292 h 0.529168 v 0.26459 h 0.529167 v -0.26459 h 0.529168 v 0.26459 h 0.264583 v 1.05833 h -0.529167 v -0.52917 h -0.264584 v 0.26459 h -0.264584 v -0.26459 h -0.264583 v 0.52917 z m 2.11667,0.26458 v -1.5875 h 1.322918 v 0.26459 h 0.264584 v 0.52916 h -0.264584 v 0.26459 h -0.793751 v 0.52916 z m 0.529167,-0.79375 h 0.529168 v -0.52916 h -0.529168 z m 2.11667,-1.05833 v 1.32292 h 0.264584 v 0.26458 h -1.058335 v -0.26458 h 0.264584 v -1.05834 h -0.264584 v -0.26458 z m 1.587503,0.52917 h -0.529168 v 0.26458 h 0.529168 z m 0.264583,-0.26459 v 0.26459 h 0.264584 v 0.52916 h -1.058335 v 0.26459 h 0.793751 v 0.26458 h -1.058335 v -0.26458 h -0.264583 v -0.79375 h 0.264583 v -0.26459 z m 2.11667,0 v 0.26459 h -1.058335 v 0.26458 h 0.793752 v 0.26458 h 0.264583 v 0.26459 H 26.31723 v 0.26458 h -1.322919 v -0.26458 h 1.058335 v -0.26459 h -0.793751 v -0.26458 h -0.264584 v -0.26458 h 0.264584 v -0.26459 z m 0.264584,1.32292 v -0.26458 h 0.264584 v -0.26459 h 0.264583 v -0.79375 h -0.264583 v -0.26458 h -0.264584 v -0.26459 h 0.529167 v 0.26459 h 0.264584 v 0.26458 h 0.264584 v 0.79375 h -0.264584 v 0.26459 h -0.264584 v 0.26458 z"
       id="path51"
       inkscape:label="DELAY"
       aria-label="(samples)" /><path
       style="font-size:2.11667px;font-family:'C64 User';-inkscape-font-specification:'C64 User';text-align:center;text-anchor:middle;fill:#000000;stroke-width:0.265;stroke-dasharray:0.264999, 0.264999"
       d="M 9.7807461,85.272797 V 85.008213 H 9.5161624 v -0.793751 h 0.2645837 v -0.264584 h 1.0583349 v 0.264584 H 10.04533 v 0.793751 h 0.793751 v 0.264584 z m 1.5875029,0 v -0.264584 h -0.264584 v -1.058335 h 0.529167 v 1.058335 H 12.162 v -1.058335 h 0.529167 v 1.322919 z m 1.587502,0 v -1.322919 h 1.322919 v 0.264584 h 0.264583 v 0.264583 h -0.529167 v -0.264583 h -0.529168 v 1.058335 z m 1.852086,0 v -1.322919 h 1.322919 v 0.264584 h 0.264583 v 0.264583 h -0.529167 v -0.264583 h -0.529168 v 1.058335 z m 2.910422,-1.058335 h -0.529168 v 0.264583 h 0.529168 z m 0.264583,-0.264584 v 0.264584 h 0.264584 v 0.529167 h -1.058335 v 0.264584 h 0.793751 v 0.264584 h -1.058335 v -0.264584 h -0.264583 v -0.793751 h 0.264583 v -0.264584 z m 0.529168,1.322919 v -1.322919 h 1.322919 v 0.264584 h 0.264584 v 1.058335 h -0.529168 v -1.058335 h -0.529167 v 1.058335 z m 2.910421,-1.587503 v 0.264584 h 0.529168 v 0.264584 h -0.529168 v 0.793751 h 0.529168 v 0.264584 h -0.793752 v -0.264584 h -0.264583 v -0.793751 h -0.529168 v -0.264584 h 0.529168 V 83.685294 Z M 23.5391,85.272797 V 85.008213 H 23.274517 V 84.214462 H 23.5391 v -0.264584 h 1.058335 v 0.264584 h -0.793751 v 0.793751 h 0.793751 v 0.264584 z m 2.11667,-1.587503 v 1.322919 h 0.264584 v 0.264584 h -1.058335 v -0.264584 h 0.264584 v -1.058335 h -0.264584 v -0.264584 z m 0.793752,1.587503 v -0.264584 h -0.264584 v -0.793751 h 0.264584 v -0.264584 h 1.058335 v 0.264584 h 0.264583 v 0.793751 h -0.264583 v 0.264584 z m 0.264583,-0.264584 h 0.529168 v -0.793751 h -0.529168 z m 1.587504,0.264584 v -0.264584 h -0.264584 v -0.793751 h 0.264584 v -0.264584 h 1.058335 v 0.264584 h -0.793752 v 0.793751 h 0.793752 v 0.264584 z m 1.322918,0 v -1.587503 h 0.529167 v 0.793751 h 0.264584 v -0.264583 h 0.529167 v 0.264583 h -0.264584 v 0.264584 h 0.264584 v 0.264584 h 0.264584 v 0.264584 h -0.529168 v -0.264584 h -0.264583 v -0.264584 h -0.264584 v 0.529168 z"
       id="path52"
       inkscape:label="current"
       aria-label="current clock" /><path
       style="font-size:2.82222px;font-family:'C64 User';-inkscape-font-specification:'C64 User';text-align:center;text-anchor:middle;fill:#000000;stroke-width:0.265;stroke-dasharray:0.264999, 0.264999"
       d="m 22.443047,101.17515 v -2.469445 h 2.116665 v 0.352778 h -1.41111 v 0.705555 h 0.705555 v 0.352782 h -0.705555 v 1.05833 z m 2.469443,0 v -2.469445 h 1.763887 v 0.352778 h 0.352778 v 0.705555 h -0.352778 v 0.352782 H 26.3236 v 0.35277 h 0.352777 v 0.35278 h 0.352778 v 0.35278 H 26.3236 v -0.35278 h -0.352778 v -0.35278 h -0.352777 v 0.70556 z m 0.705555,-1.411112 H 26.3236 v -0.705555 h -0.705555 z m 3.880552,-1.058333 v 0.352778 h -1.41111 v 0.705555 h 0.705555 v 0.352782 h -0.705555 v 0.70555 h 1.41111 v 0.35278 h -2.116665 v -2.469445 z m 2.469443,0 v 0.352778 h -1.41111 v 0.705555 h 0.705555 v 0.352782 H 30.55693 v 0.70555 h 1.41111 v 0.35278 h -2.116665 v -2.469445 z m 0.352777,2.469445 v -0.70556 h 0.352778 v -0.35277 h 0.352777 V 99.764038 H 33.37915 V 99.41126 h 0.352777 v -0.352777 h -1.41111 v -0.352778 h 2.116665 v 0.705555 h -0.352777 v 0.352778 h -0.352778 v 0.352782 H 33.37915 v 0.35277 h -0.352778 v 0.35278 h 1.41111 v 0.35278 z m 4.586108,-2.469445 v 0.352778 h -1.41111 v 0.705555 h 0.705555 v 0.352782 h -0.705555 v 0.70555 h 1.41111 v 0.35278 H 34.79026 v -2.469445 z"
       id="path53"
       inkscape:label="FREEZE"
       aria-label="FREEZE" /></g><g
     inkscape:groupmode="layer"
     id="g35"
     inkscape:label="Etichette Testo  path"
     style="display:inline"><path
       style="font-size:3.175px;font-family:'C64 User';-inkscape-font-specification:'C64 User';text-align:center;text-anchor:middle;fill:#ffffff;stroke-width:0.265;stroke-dasharray:0.264999, 0.264999"
       d="M 32.444155,15.678125 V 12.9 h 1.984375 v 0.396875 h 0.396875 v 0.79375 H 34.42853 V 14.4875 h 0.396875 v 0.79375 H 34.42853 v 0.396875 z m 0.79375,-0.396875 h 0.79375 V 14.4875 h -0.79375 z m 0,-1.190625 h 0.79375 v -0.79375 h -0.79375 z"
       id="text12"
       inkscape:label="B"
       aria-label="B" /><path
       style="font-size:3.175px;font-family:'C64 User';-inkscape-font-specification:'C64 User';text-align:center;text-anchor:middle;fill:#ffffff;stroke-width:0.265;stroke-dasharray:0.264999, 0.264999"
       d="M 5.8141565,15.678125 V 13.69375 h 0.396875 V 13.296875 H 6.6079064 V 12.9 h 0.79375 v 0.396875 h 0.396875 v 0.396875 h 0.396875 v 1.984375 h -0.79375 V 14.4875 h -0.79375 v 1.190625 z m 0.7937499,-1.5875 h 0.79375 V 13.69375 h -0.79375 z"
       id="text13"
       inkscape:label="A"
       aria-label="A" /><path
       style="font-size:2.11667px;font-family:'C64 User';-inkscape-font-specification:'C64 User';text-align:center;text-anchor:middle;fill:#ffffff;stroke-width:0.265;stroke-dasharray:0.264999, 0.264999"
       d="M 2.3006061,29.648947 V 29.384363 H 2.0360223 V 28.061444 H 2.3006061 V 27.796861 H 3.358941 v 0.264583 h 0.2645838 v 0.264584 H 3.0943573 V 28.061444 H 2.5651898 v 1.322919 h 0.5291675 v -0.264584 h 0.5291675 v 0.264584 H 3.358941 v 0.264584 z m 2.1166699,0 V 29.384363 H 4.1526923 V 29.119779 H 3.8881085 V 27.796861 H 4.417276 v 1.322918 h 0.5291675 v -1.322918 h 0.5291674 v 1.322918 H 5.2110272 v 0.264584 H 4.9464435 v 0.264584 z"
       id="text14"
       inkscape:label="TR1"
       aria-label="CV" /><path
       style="font-size:2.11667px;font-family:'C64 User';-inkscape-font-specification:'C64 User';text-align:center;text-anchor:middle;fill:#ffffff;stroke-width:0.265;stroke-dasharray:0.264999, 0.264999"
       d="M 4.4679568,33.493458 V 31.905955 H 3.9387893 v -0.264583 h 1.5875024 v 0.264583 H 4.9971243 v 1.587503 z"
       id="text15"
       inkscape:label="CV1"
       aria-label="T" /><path
       style="font-size:2.82222px;font-family:'C64 User';-inkscape-font-specification:'C64 User';text-align:center;text-anchor:middle;fill:#ffffff;stroke-width:0.265;stroke-dasharray:0.264999, 0.264999"
       d="m 16.792224,15.678125 v -2.469442 h 1.763887 v 0.352777 h 0.352778 v 0.705555 h -0.352778 v 0.352778 h -0.352777 v 0.352777 h 0.352777 v 0.352778 h 0.352778 v 0.352777 H 18.203334 V 15.325348 H 17.850556 V 14.97257 h -0.352777 v 0.705555 z m 0.705555,-1.41111 h 0.705555 V 13.56146 h -0.705555 z m 2.116665,1.41111 V 15.325348 H 19.261666 V 14.97257 h 0.705555 v 0.352778 h 0.705555 V 14.619793 H 19.614444 V 14.267015 H 19.261666 V 13.56146 h 0.352778 v -0.352777 h 1.41111 v 0.352777 h 0.352777 v 0.352778 H 20.672776 V 13.56146 h -0.705555 v 0.705555 h 1.058333 v 0.352778 h 0.352777 v 0.705555 h -0.352777 v 0.352777 z m 2.82222,0 V 13.56146 h -0.705555 v -0.352777 h 2.116665 v 0.352777 h -0.705555 v 2.116665 z"
       id="text16"
       inkscape:label="RST"
       aria-label="RST" /><path
       style="font-size:2.82222px;font-family:'C64 User';-inkscape-font-specification:'C64 User';text-align:center;text-anchor:middle;fill:#ffffff;stroke-width:0.265;stroke-dasharray:0.264999, 0.264999"
       d="M 9.9130622,42.255806 V 41.903028 H 9.5602846 V 41.550251 H 9.2075071 v -1.763888 h 0.7055551 v 1.763888 h 0.7055548 v -1.763888 h 0.705555 v 1.763888 h -0.352777 v 0.352777 h -0.352778 v 0.352778 z m 2.1166648,0 V 41.903028 H 11.67695 v -1.763887 h 0.352777 v -0.352778 h 1.41111 v 0.352778 h 0.352778 v 1.763887 h -0.352778 v 0.352778 z m 0.352778,-0.352778 h 0.705555 v -1.763887 h -0.705555 z m 2.469442,-2.116665 v 2.116665 h 1.41111 v 0.352778 h -2.116665 v -2.469443 z m 2.469443,2.469443 V 40.139141 H 16.615835 V 39.786363 H 18.7325 v 0.352778 h -0.705555 v 2.116665 z m 1.763888,0 v -0.352778 h 0.352777 v -0.352777 h 0.352778 v -0.352778 h 0.352777 v -0.352777 h 0.352778 v -0.352778 h 0.352777 v -0.352777 h 0.705555 v 0.352777 h -0.352777 v 0.352778 h -0.352778 v 0.352777 h -0.352777 v 0.352778 H 20.14361 v 0.352777 h -0.352777 v 0.352778 z m 2.822219,0 v -2.469443 h 0.705555 v 0.352778 h 0.352778 v 0.352777 h 0.352777 v -0.705555 h 0.705555 v 2.469443 H 23.318607 V 41.550251 H 22.96583 v -0.352778 h -0.352778 v 1.058333 z m 2.822221,0 v -0.352778 h -0.352777 v -1.763887 h 0.352777 v -0.352778 h 1.41111 v 0.352778 h 0.352778 v 1.763887 h -0.352778 v 0.352778 z m 0.352778,-0.352778 h 0.705555 v -1.763887 h -0.705555 z m 2.469442,0.352778 v -2.116665 h -0.705555 v -0.352778 h 2.116665 v 0.352778 h -0.705555 v 2.116665 z m 3.880553,-2.469443 v 0.352778 H 30.02138 v 0.705555 h 0.705556 v 0.352777 H 30.02138 v 0.705555 h 1.411111 v 0.352778 h -2.116666 v -2.469443 z"
       id="text17"
       inkscape:label="VOLT"
       aria-label="VOLT/NOTE" /><path
       style="font-size:2.82222px;font-family:'C64 User';-inkscape-font-specification:'C64 User';text-align:center;text-anchor:middle;fill:#ffffff;stroke-width:0.265;stroke-dasharray:0.264999, 0.264999"
       d="m 16.086671,65.294441 v -2.469442 h 0.705555 v 0.352777 h 0.352777 v 0.352778 h 0.352778 v -0.352778 h 0.352777 v -0.352777 h 0.705555 v 2.469442 h -0.705555 v -1.41111 h -0.352777 v 0.352778 h -0.352778 v -0.352778 h -0.352777 v 1.41111 z m 4.23333,-2.469442 v 0.352777 h -0.352778 v 1.763888 h 0.352778 v 0.352777 h -1.41111 v -0.352777 h 0.352777 v -1.763888 h -0.352777 v -0.352777 z m 0.352777,2.469442 v -2.469442 h 1.41111 v 0.352777 h 0.352778 v 0.352778 h 0.352777 v 1.058332 h -0.352777 v 0.352778 h -0.352778 v 0.352777 z m 0.705555,-0.352777 h 0.352778 v -0.352778 h 0.352777 v -1.058332 h -0.352777 v -0.352778 h -0.352778 z m 3.174998,-2.116665 v 0.352777 h -0.352778 v 1.763888 h 0.352778 v 0.352777 h -1.41111 v -0.352777 h 0.352777 v -1.763888 h -0.352777 v -0.352777 z"
       id="text19"
       inkscape:label="MIDI"
       aria-label="MIDI" /><path
       style="font-size:2.82222px;font-family:'C64 User';-inkscape-font-specification:'C64 User';text-align:center;text-anchor:middle;fill:#ffffff;stroke-width:0.265;stroke-dasharray:0.264999, 0.264999"
       d="m 16.615835,82.446358 v -2.469443 h 1.763887 v 0.352778 H 18.7325 v 0.705555 h -0.352778 v 0.352777 H 18.7325 v 0.705555 h -0.352778 v 0.352778 z M 17.32139,82.09358 h 0.705555 V 81.388025 H 17.32139 Z m 0,-1.058332 h 0.705555 V 80.329693 H 17.32139 Z m 1.763887,1.41111 v -2.469443 h 1.763888 v 0.352778 h 0.352778 v 0.705555 h -0.352778 v 0.352777 h -1.058333 v 1.058333 z m 0.705555,-1.41111 h 0.705556 v -0.705555 h -0.705556 z m 1.763888,1.41111 v -2.469443 h 0.705555 v 0.352778 h 0.352778 v 0.352777 h 0.352777 v -0.352777 h 0.352778 v -0.352778 h 0.705555 v 2.469443 h -0.705555 v -1.41111 H 22.96583 v 0.352777 h -0.352777 v -0.352777 h -0.352778 v 1.41111 z"
       id="text20"
       inkscape:label="BPM"
       aria-label="BPM" /><path
       style="font-size:2.82222px;font-family:'C64 User';-inkscape-font-specification:'C64 User';text-align:center;text-anchor:middle;fill:#ffffff;stroke-width:0.265;stroke-dasharray:0.264999, 0.264999"
       d="m 14.322781,111.39318 v -2.46944 h 1.41111 v 0.35278 h 0.352778 v 0.35277 h 0.352777 v 1.05834 h -0.352777 v 0.35277 h -0.352778 v 0.35278 z m 0.705555,-0.35278 h 0.352778 v -0.35277 h 0.352777 v -1.05834 h -0.352777 v -0.35277 h -0.352778 z m 3.880553,-2.11666 v 0.35278 h -1.41111 v 0.70555 h 0.705555 v 0.35278 h -0.705555 v 0.70555 h 1.41111 v 0.35278 h -2.116665 v -2.46944 z m 1.058332,0 v 2.11666 h 1.41111 v 0.35278 h -2.116665 v -2.46944 z m 1.763888,2.46944 v -1.76389 h 0.352778 v -0.35277 h 0.352777 v -0.35278 h 0.705555 v 0.35278 h 0.352778 v 0.35277 h 0.352777 v 1.76389 h -0.705555 v -1.05833 h -0.705555 v 1.05833 z m 0.705555,-1.41111 h 0.705555 v -0.35278 h -0.705555 z m 2.469442,1.41111 v -1.05833 h -0.352777 v -0.35278 h -0.352778 v -1.05833 h 0.705555 v 1.05833 h 0.705556 v -1.05833 h 0.705555 v 1.05833 h -0.352778 v 0.35278 h -0.352777 v 1.05833 z"
       id="text21"
       inkscape:label="(SAMPLES)"
       aria-label="DELAY" /><path
       style="font-size:2.11667px;font-family:'C64 User';-inkscape-font-specification:'C64 User';text-align:center;text-anchor:middle;fill:#ffffff;stroke-width:0.265;stroke-dasharray:0.264999, 0.264999"
       d="m 13.352627,114.74195 v -0.26458 h -0.264584 v -0.26459 h -0.264584 v -0.79375 h 0.264584 v -0.26458 h 0.264584 v -0.26459 h 0.529167 v 0.26459 H 13.61721 v 0.26458 h -0.264583 v 0.79375 h 0.264583 v 0.26459 h 0.264584 v 0.26458 z m 2.381253,-1.32292 v 0.26459 h -1.058335 v 0.26458 h 0.793751 v 0.26458 h 0.264584 v 0.26459 h -0.264584 v 0.26458 h -1.322918 v -0.26458 h 1.058335 v -0.26459 h -0.793751 v -0.26458 h -0.264584 v -0.26458 h 0.264584 v -0.26459 z m 0.529168,1.32292 v -0.26458 h -0.264584 v -0.26459 h 0.264584 v -0.26458 h 0.793751 v -0.26458 h -0.793751 v -0.26459 h 1.058335 v 0.26459 h 0.264583 v 1.05833 z m 0.264584,-0.26458 h 0.529167 v -0.26459 h -0.529167 z m 1.322918,0.26458 v -1.32292 h 0.529168 v 0.26459 h 0.529167 v -0.26459 h 0.529168 v 0.26459 h 0.264583 v 1.05833 h -0.529167 v -0.52917 h -0.264584 v 0.26459 h -0.264584 v -0.26459 h -0.264583 v 0.52917 z m 2.11667,0.26458 v -1.5875 h 1.322918 v 0.26459 h 0.264584 v 0.52916 h -0.264584 v 0.26459 h -0.793751 v 0.52916 z m 0.529167,-0.79375 h 0.529168 v -0.52916 h -0.529168 z m 2.11667,-1.05833 v 1.32292 h 0.264584 v 0.26458 h -1.058335 v -0.26458 h 0.264584 v -1.05834 h -0.264584 v -0.26458 z m 1.587503,0.52917 h -0.529168 v 0.26458 h 0.529168 z m 0.264583,-0.26459 v 0.26459 h 0.264584 v 0.52916 h -1.058335 v 0.26459 h 0.793751 v 0.26458 h -1.058335 v -0.26458 h -0.264583 v -0.79375 h 0.264583 v -0.26459 z m 2.11667,0 v 0.26459 h -1.058335 v 0.26458 h 0.793752 v 0.26458 h 0.264583 v 0.26459 H 26.31723 v 0.26458 h -1.322919 v -0.26458 h 1.058335 v -0.26459 h -0.793751 v -0.26458 h -0.264584 v -0.26458 h 0.264584 v -0.26459 z m 0.264584,1.32292 v -0.26458 h 0.264584 v -0.26459 h 0.264583 v -0.79375 h -0.264583 v -0.26458 h -0.264584 v -0.26459 h 0.529167 v 0.26459 h 0.264584 v 0.26458 h 0.264584 v 0.79375 h -0.264584 v 0.26459 h -0.264584 v 0.26458 z"
       id="text22"
       inkscape:label="DELAY"
       aria-label="(samples)" /><path
       style="font-size:2.11667px;font-family:'C64 User';-inkscape-font-specification:'C64 User';text-align:center;text-anchor:middle;fill:#ffffff;stroke-width:0.265;stroke-dasharray:0.264999, 0.264999"
       d="m 35.341777,29.648947 v -0.264584 h -0.264584 v -1.322919 h 0.264584 v -0.264583 h 1.058335 v 0.264583 h 0.264584 v 0.264584 h -0.529168 v -0.264584 h -0.529167 v 1.322919 h 0.529167 v -0.264584 h 0.529168 v 0.264584 h -0.264584 v 0.264584 z m 2.11667,0 v -0.264584 h -0.264584 v -0.264584 h -0.264584 v -1.322918 h 0.529168 v 1.322918 h 0.529167 v -1.322918 h 0.529168 v 1.322918 h -0.264584 v 0.264584 h -0.264584 v 0.264584 z"
       id="text23"
       inkscape:label="TR1"
       aria-label="CV" /><path
       style="font-size:2.11667px;font-family:'C64 User';-inkscape-font-specification:'C64 User';text-align:center;text-anchor:middle;fill:#ffffff;stroke-width:0.265;stroke-dasharray:0.264999, 0.264999"
       d="m 35.723116,33.493458 v -1.587503 h -0.529168 v -0.264583 h 1.587503 v 0.264583 h -0.529168 v 1.587503 z"
       id="text24"
       inkscape:label="CV1"
       aria-label="T" /><path
       style="font-size:2.46944px;font-family:'C64 User';-inkscape-font-specification:'C64 User';text-align:center;text-anchor:middle;fill:#ffffff;stroke-width:0.265;stroke-dasharray:0.264999, 0.264999"
       d="m 4.3824324,69.647835 v -2.16076 h 0.61736 v 0.30868 h 0.30868 v 0.30868 h 0.30868 v -0.61736 h 0.61736 v 2.16076 h -0.61736 v -0.61736 h -0.30868 v -0.30868 h -0.30868 v 0.92604 z m 2.7781199,0 v -1.85208 h -0.61736 v -0.30868 h 1.85208 v 0.30868 h -0.61736 v 1.85208 z"
       id="text25"
       inkscape:label="NOTE"
       aria-label="NT" /><path
       style="font-size:2.46944px;font-family:'C64 User';-inkscape-font-specification:'C64 User';text-align:center;text-anchor:middle;fill:#ffffff;stroke-width:0.265;stroke-dasharray:0.264999, 0.264999"
       d="m 12.393278,69.647835 v -0.30868 h -0.30868 v -1.5434 h 0.30868 v -0.30868 h 1.23472 v 0.30868 h 0.30868 v 0.30868 h -0.61736 v -0.30868 h -0.61736 v 1.5434 h 0.61736 v -0.30868 h 0.61736 v 0.30868 h -0.30868 v 0.30868 z m 2.16076,0 v -0.30868 h -0.30868 v -1.5434 h 0.30868 v -0.30868 h 1.23472 v 0.30868 h 0.30868 v 0.30868 h -0.61736 v -0.30868 h -0.61736 v 1.5434 h 0.61736 v -0.30868 h 0.61736 v 0.30868 h -0.30868 v 0.30868 z"
       id="text26"
       inkscape:label="CC"
       aria-label="CC" /><path
       style="font-size:2.46944px;font-family:'C64 User';-inkscape-font-specification:'C64 User';text-align:center;text-anchor:middle;fill:#ffffff;stroke-width:0.265;stroke-dasharray:0.264999, 0.264999"
       d="m 24.698287,69.647835 v -2.16076 h 0.61736 v 0.30868 h 0.30868 v 0.30868 h 0.30868 v -0.61736 h 0.61736 v 2.16076 h -0.61736 v -0.61736 h -0.30868 v -0.30868 h -0.30868 v 0.92604 z m 2.77812,0 v -1.85208 h -0.61736 v -0.30868 h 1.85208 v 0.30868 h -0.61736 v 1.85208 z"
       id="text31"
       inkscape:label="NOTE"
       aria-label="NT" /><path
       style="font-size:2.46944px;font-family:'C64 User';-inkscape-font-specification:'C64 User';text-align:center;text-anchor:middle;fill:#ffffff;stroke-width:0.265;stroke-dasharray:0.264999, 0.264999"
       d="m 32.709134,69.647835 v -0.30868 h -0.30868 v -1.5434 h 0.30868 v -0.30868 h 1.23472 v 0.30868 h 0.30868 v 0.30868 h -0.61736 v -0.30868 h -0.61736 v 1.5434 h 0.61736 v -0.30868 h 0.61736 v 0.30868 h -0.30868 v 0.30868 z m 2.16076,0 v -0.30868 h -0.30868 v -1.5434 h 0.30868 v -0.30868 h 1.23472 v 0.30868 h 0.30868 v 0.30868 h -0.61736 v -0.30868 h -0.61736 v 1.5434 h 0.61736 v -0.30868 h 0.61736 v 0.30868 h -0.30868 v 0.30868 z"
       id="text32"
       inkscape:label="CC"
       aria-label="CC" /><path
       style="font-size:2.11667px;font-family:'C64 User';-inkscape-font-specification:'C64 User';text-align:center;text-anchor:middle;fill:#ffffff;stroke-width:0.265;stroke-dasharray:0.264999, 0.264999"
       d="m 13.352627,114.74195 v -0.26458 h -0.264584 v -0.26459 h -0.264584 v -0.79375 h 0.264584 v -0.26458 h 0.264584 v -0.26459 h 0.529167 v 0.26459 H 13.61721 v 0.26458 h -0.264583 v 0.79375 h 0.264583 v 0.26459 h 0.264584 v 0.26458 z m 2.381253,-1.32292 v 0.26459 h -1.058335 v 0.26458 h 0.793751 v 0.26458 h 0.264584 v 0.26459 h -0.264584 v 0.26458 h -1.322918 v -0.26458 h 1.058335 v -0.26459 h -0.793751 v -0.26458 h -0.264584 v -0.26458 h 0.264584 v -0.26459 z m 0.529168,1.32292 v -0.26458 h -0.264584 v -0.26459 h 0.264584 v -0.26458 h 0.793751 v -0.26458 h -0.793751 v -0.26459 h 1.058335 v 0.26459 h 0.264583 v 1.05833 z m 0.264584,-0.26458 h 0.529167 v -0.26459 h -0.529167 z m 1.322918,0.26458 v -1.32292 h 0.529168 v 0.26459 h 0.529167 v -0.26459 h 0.529168 v 0.26459 h 0.264583 v 1.05833 h -0.529167 v -0.52917 h -0.264584 v 0.26459 h -0.264584 v -0.26459 h -0.264583 v 0.52917 z m 2.11667,0.26458 v -1.5875 h 1.322918 v 0.26459 h 0.264584 v 0.52916 h -0.264584 v 0.26459 h -0.793751 v 0.52916 z m 0.529167,-0.79375 h 0.529168 v -0.52916 h -0.529168 z m 2.11667,-1.05833 v 1.32292 h 0.264584 v 0.26458 h -1.058335 v -0.26458 h 0.264584 v -1.05834 h -0.264584 v -0.26458 z m 1.587503,0.52917 h -0.529168 v 0.26458 h 0.529168 z m 0.264583,-0.26459 v 0.26459 h 0.264584 v 0.52916 h -1.058335 v 0.26459 h 0.793751 v 0.26458 h -1.058335 v -0.26458 h -0.264583 v -0.79375 h 0.264583 v -0.26459 z m 2.11667,0 v 0.26459 h -1.058335 v 0.26458 h 0.793752 v 0.26458 h 0.264583 v 0.26459 H 26.31723 v 0.26458 h -1.322919 v -0.26458 h 1.058335 v -0.26459 h -0.793751 v -0.26458 h -0.264584 v -0.26458 h 0.264584 v -0.26459 z m 0.264584,1.32292 v -0.26458 h 0.264584 v -0.26459 h 0.264583 v -0.79375 h -0.264583 v -0.26458 h -0.264584 v -0.26459 h 0.529167 v 0.26459 h 0.264584 v 0.26458 h 0.264584 v 0.79375 h -0.264584 v 0.26459 h -0.264584 v 0.26458 z"
       id="text33"
       inkscape:label="DELAY"
       aria-label="(samples)" /><path
       style="font-size:2.11667px;font-family:'C64 User';-inkscape-font-specification:'C64 User';text-align:center;text-anchor:middle;fill:#ffffff;stroke-width:0.265;stroke-dasharray:0.264999, 0.264999"
       d="M 9.7807461,85.272797 V 85.008213 H 9.5161624 v -0.793751 h 0.2645837 v -0.264584 h 1.0583349 v 0.264584 H 10.04533 v 0.793751 h 0.793751 v 0.264584 z m 1.5875029,0 v -0.264584 h -0.264584 v -1.058335 h 0.529167 v 1.058335 H 12.162 v -1.058335 h 0.529167 v 1.322919 z m 1.587502,0 v -1.322919 h 1.322919 v 0.264584 h 0.264583 v 0.264583 h -0.529167 v -0.264583 h -0.529168 v 1.058335 z m 1.852086,0 v -1.322919 h 1.322919 v 0.264584 h 0.264583 v 0.264583 h -0.529167 v -0.264583 h -0.529168 v 1.058335 z m 2.910422,-1.058335 h -0.529168 v 0.264583 h 0.529168 z m 0.264583,-0.264584 v 0.264584 h 0.264584 v 0.529167 h -1.058335 v 0.264584 h 0.793751 v 0.264584 h -1.058335 v -0.264584 h -0.264583 v -0.793751 h 0.264583 v -0.264584 z m 0.529168,1.322919 v -1.322919 h 1.322919 v 0.264584 h 0.264584 v 1.058335 h -0.529168 v -1.058335 h -0.529167 v 1.058335 z m 2.910421,-1.587503 v 0.264584 h 0.529168 v 0.264584 h -0.529168 v 0.793751 h 0.529168 v 0.264584 h -0.793752 v -0.264584 h -0.264583 v -0.793751 h -0.529168 v -0.264584 h 0.529168 V 83.685294 Z M 23.5391,85.272797 V 85.008213 H 23.274517 V 84.214462 H 23.5391 v -0.264584 h 1.058335 v 0.264584 h -0.793751 v 0.793751 h 0.793751 v 0.264584 z m 2.11667,-1.587503 v 1.322919 h 0.264584 v 0.264584 h -1.058335 v -0.264584 h 0.264584 v -1.058335 h -0.264584 v -0.264584 z m 0.793752,1.587503 v -0.264584 h -0.264584 v -0.793751 h 0.264584 v -0.264584 h 1.058335 v 0.264584 h 0.264583 v 0.793751 h -0.264583 v 0.264584 z m 0.264583,-0.264584 h 0.529168 v -0.793751 h -0.529168 z m 1.587504,0.264584 v -0.264584 h -0.264584 v -0.793751 h 0.264584 v -0.264584 h 1.058335 v 0.264584 h -0.793752 v 0.793751 h 0.793752 v 0.264584 z m 1.322918,0 v -1.587503 h 0.529167 v 0.793751 h 0.264584 v -0.264583 h 0.529167 v 0.264583 h -0.264584 v 0.264584 h 0.264584 v 0.264584 h 0.264584 v 0.264584 h -0.529168 v -0.264584 h -0.264583 v -0.264584 h -0.264584 v 0.529168 z"
       id="text34"
       inkscape:label="current"
       aria-label="current clock" /><path
       style="font-size:2.82222px;font-family:'C64 User';-inkscape-font-specification:'C64 User';text-align:center;text-anchor:middle;fill:#ffffff;stroke-width:0.265;stroke-dasharray:0.264999, 0.264999"
       d="m 22.443047,101.17515 v -2.469445 h 2.116665 v 0.352778 h -1.41111 v 0.705555 h 0.705555 v 0.352782 h -0.705555 v 1.05833 z m 2.469443,0 v -2.469445 h 1.763887 v 0.352778 h 0.352778 v 0.705555 h -0.352778 v 0.352782 H 26.3236 v 0.35277 h 0.352777 v 0.35278 h 0.352778 v 0.35278 H 26.3236 v -0.35278 h -0.352778 v -0.35278 h -0.352777 v 0.70556 z m 0.705555,-1.411112 H 26.3236 v -0.705555 h -0.705555 z m 3.880552,-1.058333 v 0.352778 h -1.41111 v 0.705555 h 0.705555 v 0.352782 h -0.705555 v 0.70555 h 1.41111 v 0.35278 h -2.116665 v -2.469445 z m 2.469443,0 v 0.352778 h -1.41111 v 0.705555 h 0.705555 v 0.352782 H 30.55693 v 0.70555 h 1.41111 v 0.35278 h -2.116665 v -2.469445 z m 0.352777,2.469445 v -0.70556 h 0.352778 v -0.35277 h 0.352777 V 99.764038 H 33.37915 V 99.41126 h 0.352777 v -0.352777 h -1.41111 v -0.352778 h 2.116665 v 0.705555 h -0.352777 v 0.352778 h -0.352778 v 0.352782 H 33.37915 v 0.35277 h -0.352778 v 0.35278 h 1.41111 v 0.35278 z m 4.586108,-2.469445 v 0.352778 h -1.41111 v 0.705555 h 0.705555 v 0.352782 h -0.705555 v 0.70555 h 1.41111 v 0.35278 H 34.79026 v -2.469445 z"
       id="text35"
       inkscape:label="FREEZE"
       aria-label="FREEZE" /></g><g
     inkscape:label="header footer"
     inkscape:groupmode="layer"
     id="layer1"
     style="display:inline"><rect
       style="display:inline;fill:#00000a;fill-opacity:1;stroke:#666699;stroke-width:0.4;stroke-dasharray:none;stroke-dashoffset:0;stroke-opacity:1"
       id="rect1447-8-1"
       width="24.287165"
       height="3.6871655"
       x="8.1764174"
       y="124.256"
       inkscape:label="footer rect"
       ry="1.2" /><rect
       style="display:inline;fill:#00000a;fill-opacity:1;stroke:#666699;stroke-width:0.4;stroke-dasharray:none;stroke-dashoffset:0;stroke-opacity:1"
       id="rect2138"
       width="25.291111"
       height="5.1958609"
       x="7.6744442"
       y="1.2312376"
       ry="1.8"
       inkscape:label="header rect"
       rx="1.8" /><g
       aria-label="sickozell"
       id="text1308"
       style="font-size:3.175px;font-family:'C64 User';-inkscape-font-specification:'C64 User';display:inline;fill:#cccccc;fill-opacity:1;stroke-width:0.264583"
       inkscape:label="sickozell"
       transform="translate(7.7258462,0.7840549)"><path
         d="m 4.0613409,124.52178 v 0.39688 h -1.5875 v 0.39687 h 1.190625 v 0.39688 h 0.396875 v 0.39687 h -0.396875 v 0.39688 h -1.984375 v -0.39688 h 1.5875 v -0.39687 h -1.190625 v -0.39688 h -0.396875 v -0.39687 h 0.396875 v -0.39688 z"
         style="fill:#cccccc;fill-opacity:1"
         id="path1312" /><path
         d="m 4.458216,126.50616 v -0.39688 h 0.3968749 v -0.79375 H 4.458216 v -0.39687 h 1.1906249 v 1.19062 h 0.396875 v 0.39688 z m 0.3968749,-1.98438 v -0.39687 h 0.79375 v 0.39687 z"
         style="fill:#cccccc;fill-opacity:1"
         id="path1314" /><path
         d="m 6.8394657,126.50616 v -0.39688 h -0.396875 v -1.19062 h 0.396875 v -0.39688 h 1.5875 v 0.39688 h -1.190625 v 1.19062 h 1.190625 v 0.39688 z"
         style="fill:#cccccc;fill-opacity:1"
         id="path1316" /><path
         d="m 8.8238411,126.50616 v -2.38125 h 0.79375 v 1.19062 h 0.3968749 v -0.39687 h 0.79375 v 0.39687 h -0.396875 v 0.39688 h 0.396875 v 0.39687 h 0.396875 v 0.39688 h -0.79375 v -0.39688 h -0.396875 v -0.39687 H 9.6175911 v 0.79375 z"
         style="fill:#cccccc;fill-opacity:1"
         id="path1318" /><path
         d="m 11.998841,126.50616 v -0.39688 h -0.396875 v -1.19062 h 0.396875 v -0.39688 h 1.5875 v 0.39688 h 0.396875 v 1.19062 h -0.396875 v 0.39688 z m 0.396875,-0.39688 h 0.79375 v -1.19062 h -0.79375 z"
         style="fill:#cccccc;fill-opacity:1"
         id="path1320" /><path
         d="m 14.380091,126.50616 v -0.39688 h 0.396875 v -0.39687 h 0.396875 v -0.39688 h 0.396875 v -0.39687 h -1.190625 v -0.39688 h 2.38125 v 0.39688 h -0.396875 v 0.39687 h -0.396875 v 0.39688 h -0.396875 v 0.39687 h 1.190625 v 0.39688 z"
         style="fill:#cccccc;fill-opacity:1"
         id="path1322" /><path
         d="m 18.745715,124.91866 h -0.793749 v 0.39687 h 0.793749 z m 0.396875,-0.39688 v 0.39688 h 0.396875 v 0.79375 h -1.587499 v 0.39687 h 1.190624 v 0.39688 h -1.587499 v -0.39688 h -0.396875 v -1.19062 h 0.396875 v -0.39688 z"
         style="fill:#cccccc;fill-opacity:1"
         id="path1324" /><path
         d="m 21.126966,124.12491 v 1.98437 h 0.396875 v 0.39688 h -1.5875 v -0.39688 h 0.396875 v -1.5875 h -0.396875 v -0.39687 z"
         style="fill:#cccccc;fill-opacity:1"
         id="path1326" /><path
         d="m 23.111341,124.12491 v 1.98437 h 0.396875 v 0.39688 h -1.5875 v -0.39688 h 0.396875 v -1.5875 h -0.396875 v -0.39687 z"
         style="fill:#cccccc;fill-opacity:1"
         id="path1328" /></g><text
       xml:space="preserve"
       style="font-style:normal;font-variant:normal;font-weight:normal;font-stretch:normal;font-size:3.175px;font-family:'C64 User';-inkscape-font-specification:'C64 User';text-align:center;text-anchor:middle;display:none;fill:#ffffff;stroke-width:0.264583"
       x="20.518436"
       y="5.2182307"
       id="text1341"
       inkscape:label="cvmeter"><tspan
         sodipodi:role="line"
         id="tspan1339"
         style="font-size:3.175px;text-align:center;text-anchor:middle;fill:#ffffff;stroke-width:0.264583"
         x="20.518436"
         y="5.2182307">cvMeter</tspan></text><path
       d="m 11.191874,5.2182307 v -0.396875 h -0.396875 v -1.190625 h 0.396875 V 3.2338558 h 1.5875 v 0.3968749 h -1.190625 v 1.190625 h 1.190625 v 0.396875 z m 2.778125,0 V 4.8213557 H 13.573124 V 4.4244807 H 13.176249 V 3.2338558 h 0.79375 v 1.1906249 h 0.79375 V 3.2338558 h 0.79375 v 1.1906249 h -0.396875 v 0.396875 h -0.396875 v 0.396875 z m 1.984375,0 V 2.4401058 h 0.79375 v 0.396875 h 0.396875 v 0.396875 h 0.396875 v -0.396875 h 0.396875 v -0.396875 h 0.79375 v 2.7781249 h -0.79375 v -1.5875 h -0.396875 v 0.396875 h -0.396875 v -0.396875 h -0.396875 v 1.5875 z m 4.7625,-1.5875 h -0.79375 v 0.396875 h 0.79375 z m 0.396875,-0.3968749 v 0.3968749 h 0.396875 v 0.79375 h -1.5875 v 0.396875 h 1.190625 v 0.396875 h -1.5875 v -0.396875 h -0.396875 v -1.190625 h 0.396875 V 3.2338558 Z m 2.38125,-0.396875 v 0.396875 h 0.79375 v 0.3968749 h -0.79375 v 1.190625 h 0.79375 v 0.396875 h -1.190625 v -0.396875 h -0.396875 v -1.190625 h -0.79375 V 3.2338558 h 0.79375 v -0.396875 z m 2.778125,0.7937499 h -0.79375 v 0.396875 h 0.79375 z m 0.396875,-0.3968749 v 0.3968749 h 0.396875 v 0.79375 h -1.5875 v 0.396875 h 1.190625 v 0.396875 h -1.5875 v -0.396875 h -0.396875 v -1.190625 h 0.396875 V 3.2338558 Z M 27.46375,5.2182307 V 3.2338558 h 1.984375 V 3.6307307 H 29.845 v 0.396875 H 29.05125 V 3.6307307 H 28.2575 v 1.5875 z"
       id="text7"
       style="font-size:3.175px;font-family:'C64 User';-inkscape-font-specification:'C64 User';text-align:center;text-anchor:middle;fill:#ffffff;stroke-width:0.264583"
       inkscape:label="cvmeter"
       aria-label="cvMeter" /></g></svg>
