<?xml version="1.0" encoding="UTF-8" standalone="no"?>
<!-- Created with Inkscape (http://www.inkscape.org/) -->

<svg
   width="15.24mm"
   height="128.5mm"
   viewBox="0 0 15.24 128.5"
   version="1.1"
   id="svg5"
   inkscape:version="1.4 (86a8ad7, 2024-10-11)"
   sodipodi:docname="DrumPlayer1.svg"
   xmlns:inkscape="http://www.inkscape.org/namespaces/inkscape"
   xmlns:sodipodi="http://sodipodi.sourceforge.net/DTD/sodipodi-0.dtd"
   xmlns="http://www.w3.org/2000/svg"
   xmlns:svg="http://www.w3.org/2000/svg">
  <sodipodi:namedview
     id="namedview7"
     pagecolor="#ffffff"
     bordercolor="#000000"
     borderopacity="0.25"
     inkscape:showpageshadow="2"
     inkscape:pageopacity="0.0"
     inkscape:pagecheckerboard="0"
     inkscape:deskcolor="#d1d1d1"
     inkscape:document-units="mm"
     showgrid="false"
     inkscape:zoom="3.9999998"
     inkscape:cx="9.8750005"
     inkscape:cy="429.87502"
     inkscape:window-width="1366"
     inkscape:window-height="705"
     inkscape:window-x="-8"
     inkscape:window-y="-8"
     inkscape:window-maximized="1"
     inkscape:current-layer="layer4"
     showguides="true" />
  <defs
     id="defs2">
    <rect
       x="22.799086"
       y="440.55881"
       width="6.0350523"
       height="22.128525"
       id="rect289" />
  </defs>
  <g
     inkscape:groupmode="layer"
     id="layer3"
     inkscape:label="Sfondo"
     style="fill:#f9f9f9">
    <rect
       style="fill:#00001f;stroke-width:0.162024;image-rendering:auto;fill-opacity:1"
       id="sfondo"
       width="15.24"
       height="128.5"
       x="0"
       y="6.6613381e-16"
       inkscape:label="background"
       ry="0"
       sodipodi:insensitive="true" />
  </g>
  <g
     inkscape:groupmode="layer"
     id="layer7"
     inkscape:label="stripes"
     transform="matrix(0.08333333,0,0,1,5.1083333,0.59166683)"
     style="display:inline;fill:#000000">
    <rect
       style="display:inline;fill:#0088ff;fill-opacity:1;stroke-width:0.40253"
       id="rect1316"
       width="60"
       height="0.40000001"
       x="3.0200005"
       y="5.0580001"
       inkscape:label="azzurro" />
    <rect
       style="display:inline;fill:#00cc55;fill-opacity:1;stroke-width:0.40253"
       id="rect1313"
       width="60"
       height="0.40000001"
       x="3.0200005"
       y="4.0580001"
       inkscape:label="verde" />
    <rect
       style="display:inline;fill:#eeee77;fill-opacity:1;stroke-width:0.40253"
       id="rect1310"
       width="60"
       height="0.40000001"
       x="3.0200005"
       y="3.0580001"
       inkscape:label="giallo" />
    <rect
       style="display:inline;fill:#ff7777;fill-opacity:1;stroke-width:0.40253"
       id="rect989"
       width="60"
       height="0.40000001"
       x="3.0200005"
       y="2.0580001"
       inkscape:label="rosa" />
    <rect
       style="display:inline;fill:#bd0000;fill-opacity:1;stroke-width:0.40253"
       id="rect1308"
       width="60"
       height="0.40000001"
       x="2.7204449"
       y="0.65833217"
       transform="translate(0.29955559,0.400001)"
       inkscape:label="rosso" />
  </g>
  <g
     inkscape:groupmode="layer"
     id="layer4"
     inkscape:label="Elementi"
     style="fill:#f9f9f9">
    <rect
       style="display:inline;fill:#000033;fill-opacity:1;stroke:#666699;stroke-width:0.399984;stroke-dasharray:none;stroke-dashoffset:0;stroke-opacity:1"
       id="rect930"
       width="12.800015"
       height="112.67715"
       x="1.1999922"
       y="8.9999924"
       ry="2.0000002"
       inkscape:label="rect" />
    <rect
       style="display:inline;fill:#494983;fill-opacity:1;stroke:#666699;stroke-width:0.400025;stroke-dasharray:none;stroke-dashoffset:0;stroke-opacity:1"
       id="rect6282"
       width="12.799975"
       height="6.9999752"
       x="1.2003033"
       y="114.70001"
       ry="2"
       inkscape:label="rect out round" />
    <rect
       style="display:inline;fill:#494983;fill-opacity:1;stroke:none;stroke-width:0.150631;stroke-dasharray:0.150631, 0.150631;stroke-dashoffset:0;stroke-opacity:1"
       id="rect19362"
       width="12.4"
       height="9.5814352"
       x="1.4"
       y="108"
       inkscape:label="rect out" />
    <circle
       style="display:inline;fill:#000000;fill-opacity:1;stroke:none;stroke-width:0.4;stroke-opacity:0.5"
       id="path1289"
       cx="7.5999999"
       cy="9"
       r="2" />
    <path
       style="display:inline;fill:#000000;stroke:#51517a;stroke-width:0.4;stroke-opacity:1"
       d="M 2.5738974,94.9 H 12.666102"
       id="path25231"
       sodipodi:nodetypes="cc" />
    <path
       style="display:inline;fill:#000000;stroke:#51517a;stroke-width:0.4;stroke-opacity:1"
       d="M 2.5738974,24.7 H 12.666102"
       id="path13714"
       sodipodi:nodetypes="cc" />
    <g
       id="g12"
       inkscape:label="TrimPot"
       style="display:inline;fill:#f9f9f9"
       transform="translate(2.5970907,-19.395631)">
      <path
         style="display:inline;fill:none;stroke:#ededed;stroke-width:0.4;stroke-dasharray:none;stroke-dashoffset:0;stroke-opacity:1"
         id="path34205"
         inkscape:label="trimPot"
         sodipodi:type="arc"
         sodipodi:cx="5.0229092"
         sodipodi:cy="62.295631"
         sodipodi:rx="3.5"
         sodipodi:ry="3.5"
         sodipodi:start="2.0943951"
         sodipodi:end="1.0471976"
         sodipodi:arc-type="arc"
         d="M 3.2729092,65.32672 A 3.5,3.5 0 0 1 1.6421688,61.389765 3.5,3.5 0 0 1 5.0229092,58.795631 3.5,3.5 0 0 1 8.4036496,61.389765 3.5,3.5 0 0 1 6.772909,65.32672"
         sodipodi:open="true" />
    </g>
    <g
       id="g14"
       inkscape:label="TrimPot rline"
       transform="translate(-16.717492,8.8627)"
       style="display:inline;fill:#f9f9f9">
      <path
         style="display:inline;fill:none;stroke:#ededed;stroke-width:0.4;stroke-dasharray:none;stroke-dashoffset:0;stroke-opacity:1"
         id="path13"
         inkscape:label="trimpot circle"
         sodipodi:type="arc"
         sodipodi:cx="24.337492"
         sodipodi:cy="48.5373"
         sodipodi:rx="3.5"
         sodipodi:ry="3.5"
         sodipodi:start="2.0943951"
         sodipodi:end="1.0471976"
         sodipodi:arc-type="arc"
         d="m 22.587492,51.568389 a 3.5,3.5 0 0 1 -1.63074,-3.936956 3.5,3.5 0 0 1 3.38074,-2.594133 3.5,3.5 0 0 1 3.38074,2.594134 3.5,3.5 0 0 1 -1.63074,3.936955"
         sodipodi:open="true" />
      <rect
         style="display:inline;fill:#f2f2f2;stroke:none;stroke-width:0.375045;stroke-dasharray:none"
         id="rect13"
         width="0.62838537"
         height="0.95759505"
         x="-6.3197465"
         y="57.27565"
         ry="0.087054096"
         inkscape:label="trimpot line"
         transform="rotate(-32.836866)" />
    </g>
    <path
       style="display:inline;fill:#000000;stroke:#51517a;stroke-width:0.4;stroke-opacity:1"
       d="M 2.5738974,48.4 H 12.666102"
       id="path12"
       sodipodi:nodetypes="cc" />
    <g
       id="g26"
       inkscape:label="TrimPot center"
       transform="translate(-16.717492,33.014586)"
       style="display:inline;fill:#f9f9f9">
      <path
         style="display:inline;fill:none;stroke:#ededed;stroke-width:0.4;stroke-dasharray:none;stroke-dashoffset:0;stroke-opacity:1"
         id="path25"
         inkscape:label="trimpot circle"
         sodipodi:type="arc"
         sodipodi:cx="24.337492"
         sodipodi:cy="48.5373"
         sodipodi:rx="3.5"
         sodipodi:ry="3.5"
         sodipodi:start="2.268928"
         sodipodi:end="0.87266463"
         sodipodi:arc-type="arc"
         d="m 22.087735,51.218456 a 3.5,3.5 0 0 1 -1.039167,-3.878226 3.5,3.5 0 0 1 3.288924,-2.30293 3.5,3.5 0 0 1 3.288924,2.30293 3.5,3.5 0 0 1 -1.039167,3.878226"
         sodipodi:open="true" />
      <rect
         style="display:inline;fill:#f2f2f2;stroke:none;stroke-width:0.375045;stroke-dasharray:none"
         id="rect25"
         width="0.62838537"
         height="0.95759505"
         x="24.023306"
         y="44.185417"
         ry="0.087054096"
         inkscape:label="trimpot line" />
    </g>
    <path
       style="display:inline;fill:#000000;stroke:#51517a;stroke-width:0.4;stroke-opacity:1"
       d="M 2.5738974,72.145828 H 12.666102"
       id="path22"
       sodipodi:nodetypes="cc" />
  </g>
  <g
     inkscape:groupmode="layer"
     id="layer5"
     inkscape:label="Etichette Testo"
     style="display:none">
    <text
       xml:space="preserve"
       style="font-style:normal;font-variant:normal;font-weight:normal;font-stretch:normal;font-size:2.82222px;font-family:'C64 User';-inkscape-font-specification:'C64 User';text-align:center;text-anchor:middle;display:inline;fill:#ffffff;stroke:none;stroke-width:0.264999;stroke-dasharray:0.264999, 0.264999;stroke-dashoffset:0;stroke-opacity:1"
       x="7.7963886"
       y="111.66946"
       id="text11212"
       inkscape:label="out"><tspan
         sodipodi:role="line"
         id="tspan11210"
         style="font-size:2.82222px;text-align:center;text-anchor:middle;stroke:none;stroke-width:0.265"
         x="7.7963886"
         y="111.66946">OUT</tspan></text>
    <text
       xml:space="preserve"
       style="font-style:normal;font-variant:normal;font-weight:normal;font-stretch:normal;font-size:2.82222px;font-family:'C64 User';-inkscape-font-specification:'C64 User';text-align:center;text-anchor:middle;display:inline;fill:#44a140;fill-opacity:1;stroke:none;stroke-width:0.262153;stroke-dasharray:0.262153, 0.262153;stroke-dashoffset:0;stroke-opacity:1"
       x="7.8791432"
       y="98.130547"
       id="text1"
       inkscape:label="rev"
       transform="scale(0.98925647,1.0108602)"><tspan
         sodipodi:role="line"
         id="tspan1"
         style="font-size:2.82222px;text-align:center;text-anchor:middle;fill:#44a140;fill-opacity:1;stroke:none;stroke-width:0.262154"
         x="7.8791432"
         y="98.130547">REV</tspan></text>
    <text
       xml:space="preserve"
       style="font-size:3.175px;font-family:'C64 User';-inkscape-font-specification:'C64 User';text-align:center;text-anchor:middle;display:inline;fill:#ffffff;stroke:none;stroke-width:0.264999;stroke-dasharray:0.264999, 0.264999"
       x="7.8184371"
       y="75.978119"
       id="text2"
       inkscape:label="tune"><tspan
         sodipodi:role="line"
         id="tspan2"
         style="font-size:3.175px;text-align:center;text-anchor:middle;stroke:none;stroke-width:0.265"
         x="7.8184371"
         y="75.978119">TUNE</tspan></text>
    <text
       xml:space="preserve"
       style="font-style:normal;font-variant:normal;font-weight:normal;font-stretch:normal;font-size:3.175px;font-family:'C64 User';-inkscape-font-specification:'C64 User';text-align:center;text-anchor:middle;display:inline;fill:#ffffff;stroke:none;stroke-width:0.264999;stroke-dasharray:0.264999, 0.264999;stroke-dashoffset:0;stroke-opacity:1"
       x="7.8184371"
       y="52.478127"
       id="text3"
       inkscape:label="dec"><tspan
         sodipodi:role="line"
         id="tspan3"
         style="font-size:3.175px;text-align:center;text-anchor:middle;stroke:none;stroke-width:0.265"
         x="7.8184376"
         y="52.478127">DEC</tspan></text>
    <text
       xml:space="preserve"
       style="font-style:normal;font-variant:normal;font-weight:normal;font-stretch:normal;font-size:3.175px;font-family:'C64 User';-inkscape-font-specification:'C64 User';text-align:center;text-anchor:middle;display:inline;fill:#ffffff;stroke:none;stroke-width:0.264999;stroke-dasharray:0.264999, 0.264999;stroke-dashoffset:0;stroke-opacity:1"
       x="7.8184371"
       y="28.77813"
       id="text5"
       inkscape:label="acc"><tspan
         sodipodi:role="line"
         id="tspan5"
         style="font-size:3.175px;text-align:center;text-anchor:middle;stroke:none;stroke-width:0.265"
         x="7.8184376"
         y="28.77813">ACC</tspan></text>
    <text
       xml:space="preserve"
       style="font-style:normal;font-variant:normal;font-weight:normal;font-stretch:normal;font-size:3.175px;font-family:'C64 User';-inkscape-font-specification:'C64 User';text-align:center;text-anchor:middle;display:inline;fill:#ffffff;stroke:none;stroke-width:0.264999;stroke-dasharray:0.264999, 0.264999;stroke-dashoffset:0;stroke-opacity:1"
       x="7.8184371"
       y="14.578125"
       id="text6"
       inkscape:label="trg"><tspan
         sodipodi:role="line"
         id="tspan6"
         style="font-size:3.175px;text-align:center;text-anchor:middle;stroke:none;stroke-width:0.265"
         x="7.8184376"
         y="14.578125">TRG</tspan></text>
    <text
       xml:space="preserve"
       style="font-style:normal;font-variant:normal;font-weight:normal;font-stretch:normal;font-size:2.11667px;font-family:'C64 User';-inkscape-font-specification:'C64 User';text-align:center;text-anchor:middle;display:inline;fill:#ffffff;fill-opacity:1;stroke:none;stroke-width:0.262153;stroke-dasharray:0.262153, 0.262153;stroke-dashoffset:0;stroke-opacity:1"
       x="11.891772"
       y="46.934483"
       id="text1116"
       inkscape:label="2x"
       transform="scale(0.98925647,1.0108602)"><tspan
         sodipodi:role="line"
         style="font-size:2.11667px;text-align:center;text-anchor:middle;fill:#ffffff;fill-opacity:1;stroke:none;stroke-width:0.262154"
         x="11.891772"
         y="46.934483"
         id="tspan1114">2</tspan></text>
  </g>
  <g
     inkscape:groupmode="layer"
     id="g20"
     inkscape:label="Etichette Testo nere"
     style="display:inline;fill:#000000"
     transform="translate(0.2998128,0.3)">
    <path
       style="font-size:2.82222px;font-family:'C64 User';-inkscape-font-specification:'C64 User';text-align:center;text-anchor:middle;fill:#000000;stroke-width:0.265;stroke-dasharray:0.264999, 0.264999"
       d="m 4.4450023,111.66946 v -0.35278 H 4.0922248 v -1.76389 h 0.3527775 v -0.35278 h 1.41111 v 0.35278 h 0.3527775 v 1.76389 H 5.8561123 v 0.35278 z m 0.3527775,-0.35278 h 0.705555 v -1.76389 h -0.705555 z m 2.1166651,0.35278 v -0.35278 H 6.5616674 v -2.11667 h 0.705555 v 2.11667 h 0.705555 v -2.11667 h 0.705555 v 2.11667 H 8.3255549 v 0.35278 z m 2.8222201,0 v -2.11667 H 9.03111 v -0.35278 h 2.116665 v 0.35278 H 10.44222 v 2.11667 z"
       id="path14"
       inkscape:label="out"
       aria-label="OUT" />
    <path
       style="font-size:2.82222px;font-family:'C64 User';-inkscape-font-specification:'C64 User';text-align:center;text-anchor:middle;fill:#000000;stroke-width:0.262154;stroke-dasharray:0.262153, 0.262153"
       d="m 4.1749794,98.130547 v -2.469443 h 1.7638875 v 0.352778 h 0.3527775 v 0.705555 H 5.9388669 v 0.352777 H 5.5860894 v 0.352778 h 0.3527775 v 0.352777 h 0.3527775 v 0.352778 H 5.5860894 V 97.777769 H 5.2333119 V 97.424992 H 4.8805344 v 0.705555 z m 0.705555,-1.41111 h 0.705555 V 96.013882 H 4.8805344 Z M 8.761087,95.661104 v 0.352778 h -1.41111 v 0.705555 h 0.705555 v 0.352777 H 7.349977 v 0.705555 h 1.41111 v 0.352778 H 6.644422 v -2.469443 z m 1.0583326,2.469443 V 97.777769 H 9.4666421 V 97.424992 H 9.1138646 v -1.763888 h 0.705555 v 1.763888 h 0.7055554 v -1.763888 h 0.705555 v 1.763888 h -0.352778 v 0.352777 h -0.352777 v 0.352778 z"
       id="path15"
       inkscape:label="rev"
       transform="scale(0.98925647,1.0108602)"
       aria-label="REV" />
    <path
       style="font-size:3.175px;font-family:'C64 User';-inkscape-font-specification:'C64 User';text-align:center;text-anchor:middle;fill:#000000;stroke-width:0.265;stroke-dasharray:0.264999, 0.264999"
       d="m 3.0559372,75.978119 v -2.38125 h -0.79375 v -0.396875 h 2.3812499 v 0.396875 H 3.8496872 v 2.38125 z m 2.38125,0 v -0.396875 h -0.396875 v -2.38125 h 0.79375 v 2.38125 h 0.79375 v -2.38125 h 0.79375 v 2.38125 h -0.396875 v 0.396875 z m 2.3812501,0 v -2.778125 h 0.79375 v 0.396875 h 0.396875 v 0.396875 h 0.396875 v -0.79375 h 0.7937497 v 2.778125 H 9.4059373 v -0.79375 h -0.396875 v -0.396875 h -0.396875 v 1.190625 z m 5.1593757,-2.778125 v 0.396875 h -1.5875 v 0.79375 h 0.79375 v 0.396875 h -0.79375 v 0.79375 h 1.5875 v 0.396875 h -2.38125 v -2.778125 z"
       id="path16"
       inkscape:label="tune"
       aria-label="TUNE" />
    <path
       style="font-size:3.175px;font-family:'C64 User';-inkscape-font-specification:'C64 User';text-align:center;text-anchor:middle;fill:#000000;stroke-width:0.265;stroke-dasharray:0.264999, 0.264999"
       d="m 3.6512497,52.478127 v -2.778125 h 1.5874999 v 0.396875 h 0.396875 v 0.396875 h 0.396875 v 1.190625 h -0.396875 v 0.396875 h -0.396875 v 0.396875 z m 0.79375,-0.396875 h 0.3968749 v -0.396875 h 0.396875 V 50.493752 H 4.8418746 V 50.096877 H 4.4449997 Z m 4.365625,-2.38125 v 0.396875 h -1.5875 v 0.79375 h 0.79375 v 0.396875 h -0.79375 v 0.79375 h 1.5875 v 0.396875 h -2.38125 v -2.778125 z m 0.7937501,2.778125 v -0.396875 h -0.396875 v -1.984375 h 0.396875 v -0.396875 h 1.5875002 v 0.396875 h 0.396875 v 0.396875 H 10.795 v -0.396875 h -0.79375 v 1.984375 H 10.795 v -0.396875 h 0.79375 v 0.396875 h -0.396875 v 0.396875 z"
       id="path17"
       inkscape:label="dec"
       aria-label="DEC" />
    <path
       style="font-size:3.175px;font-family:'C64 User';-inkscape-font-specification:'C64 User';text-align:center;text-anchor:middle;fill:#000000;stroke-width:0.265;stroke-dasharray:0.264999, 0.264999"
       d="m 3.6512497,28.77813 v -1.984375 h 0.396875 V 26.39688 h 0.396875 v -0.396875 h 0.7937499 v 0.396875 h 0.396875 v 0.396875 h 0.396875 v 1.984375 h -0.79375 V 27.587505 H 4.4449997 v 1.190625 z m 0.79375,-1.5875 H 5.2387496 V 26.793755 H 4.4449997 Z m 2.38125,1.5875 V 28.381255 H 6.4293747 V 26.39688 h 0.396875 v -0.396875 h 1.5875 v 0.396875 h 0.396875 v 0.396875 h -0.79375 V 26.39688 h -0.79375 v 1.984375 h 0.79375 V 27.98438 h 0.79375 v 0.396875 h -0.396875 v 0.396875 z m 2.7781251,0 V 28.381255 H 9.2074998 V 26.39688 h 0.396875 v -0.396875 h 1.5875002 v 0.396875 h 0.396875 v 0.396875 H 10.795 V 26.39688 h -0.79375 v 1.984375 H 10.795 V 27.98438 h 0.79375 v 0.396875 h -0.396875 v 0.396875 z"
       id="path18"
       inkscape:label="acc"
       aria-label="ACC" />
    <path
       style="font-size:3.175px;font-family:'C64 User';-inkscape-font-specification:'C64 User';text-align:center;text-anchor:middle;fill:#000000;stroke-width:0.265;stroke-dasharray:0.264999, 0.264999"
       d="m 4.4449997,14.578125 v -2.38125 h -0.79375 V 11.8 h 2.3812499 v 0.396875 h -0.79375 v 2.38125 z m 1.984375,0 V 11.8 h 1.984375 v 0.396875 h 0.396875 v 0.79375 H 8.4137497 V 13.3875 h -0.396875 v 0.396875 h 0.396875 v 0.396875 h 0.396875 v 0.396875 h -0.79375 V 14.18125 h -0.396875 v -0.396875 h -0.396875 v 0.79375 z m 0.79375,-1.5875 h 0.79375 v -0.79375 h -0.79375 z m 2.3812501,1.5875 V 14.18125 h -0.396875 v -1.984375 h 0.396875 V 11.8 h 1.5875002 v 0.396875 H 11.58875 V 12.59375 H 10.795 V 12.196875 H 10.00125 V 14.18125 H 10.795 V 13.3875 h -0.396875 v -0.396875 h 1.190625 v 1.190625 h -0.396875 v 0.396875 z"
       id="path19"
       inkscape:label="trg"
       aria-label="TRG" />
    <path
       style="font-size:2.11667px;font-family:'C64 User';-inkscape-font-specification:'C64 User';text-align:center;text-anchor:middle;fill:#000000;stroke-width:0.262154;stroke-dasharray:0.262153, 0.262153"
       d="m 10.965729,46.934483 v -0.529168 h 0.264584 v -0.264584 h 0.529167 v -0.264583 h 0.264584 V 45.34698 h -0.529167 v 0.264584 H 10.965729 V 45.34698 h 0.264584 v -0.264584 h 1.058335 v 0.264584 h 0.264584 v 0.529168 h -0.264584 v 0.264583 H 11.75948 v 0.264584 l -0.264583,-0.001 v 0.265617 h 1.058335 v 0.264584 z"
       id="path20"
       inkscape:label="2x"
       transform="scale(0.98925647,1.0108602)"
       aria-label="2" />
  </g>
  <g
     inkscape:groupmode="layer"
     id="g13"
     inkscape:label="Etichette Testo path"
     style="display:inline">
    <path
       style="font-size:2.82222px;font-family:'C64 User';-inkscape-font-specification:'C64 User';text-align:center;text-anchor:middle;fill:#ffffff;stroke-width:0.265;stroke-dasharray:0.264999, 0.264999"
       d="m 4.4450023,111.66946 v -0.35278 H 4.0922248 v -1.76389 h 0.3527775 v -0.35278 h 1.41111 v 0.35278 h 0.3527775 v 1.76389 H 5.8561123 v 0.35278 z m 0.3527775,-0.35278 h 0.705555 v -1.76389 h -0.705555 z m 2.1166651,0.35278 v -0.35278 H 6.5616674 v -2.11667 h 0.705555 v 2.11667 h 0.705555 v -2.11667 h 0.705555 v 2.11667 H 8.3255549 v 0.35278 z m 2.8222201,0 v -2.11667 H 9.03111 v -0.35278 h 2.116665 v 0.35278 H 10.44222 v 2.11667 z"
       id="text4"
       inkscape:label="out"
       aria-label="OUT" />
    <path
       style="font-size:2.82222px;font-family:'C64 User';-inkscape-font-specification:'C64 User';text-align:center;text-anchor:middle;fill:#44a140;stroke-width:0.262154;stroke-dasharray:0.262153, 0.262153"
       d="m 4.1749794,98.130547 v -2.469443 h 1.7638875 v 0.352778 h 0.3527775 v 0.705555 H 5.9388669 v 0.352777 H 5.5860894 v 0.352778 h 0.3527775 v 0.352777 h 0.3527775 v 0.352778 H 5.5860894 V 97.777769 H 5.2333119 V 97.424992 H 4.8805344 v 0.705555 z m 0.705555,-1.41111 h 0.705555 V 96.013882 H 4.8805344 Z M 8.761087,95.661104 v 0.352778 h -1.41111 v 0.705555 h 0.705555 v 0.352777 H 7.349977 v 0.705555 h 1.41111 v 0.352778 H 6.644422 v -2.469443 z m 1.0583326,2.469443 V 97.777769 H 9.4666421 V 97.424992 H 9.1138646 v -1.763888 h 0.705555 v 1.763888 h 0.7055554 v -1.763888 h 0.705555 v 1.763888 h -0.352778 v 0.352777 h -0.352777 v 0.352778 z"
       id="text7"
       inkscape:label="rev"
       transform="scale(0.98925647,1.0108602)"
       aria-label="REV" />
    <path
       style="font-size:3.175px;font-family:'C64 User';-inkscape-font-specification:'C64 User';text-align:center;text-anchor:middle;fill:#ffffff;stroke-width:0.265;stroke-dasharray:0.264999, 0.264999"
       d="m 3.0559372,75.978119 v -2.38125 h -0.79375 v -0.396875 h 2.3812499 v 0.396875 H 3.8496872 v 2.38125 z m 2.38125,0 v -0.396875 h -0.396875 v -2.38125 h 0.79375 v 2.38125 h 0.79375 v -2.38125 h 0.79375 v 2.38125 h -0.396875 v 0.396875 z m 2.3812501,0 v -2.778125 h 0.79375 v 0.396875 h 0.396875 v 0.396875 h 0.396875 v -0.79375 h 0.7937497 v 2.778125 H 9.4059373 v -0.79375 h -0.396875 v -0.396875 h -0.396875 v 1.190625 z m 5.1593757,-2.778125 v 0.396875 h -1.5875 v 0.79375 h 0.79375 v 0.396875 h -0.79375 v 0.79375 h 1.5875 v 0.396875 h -2.38125 v -2.778125 z"
       id="text8"
       inkscape:label="tune"
       aria-label="TUNE" />
    <path
       style="font-size:3.175px;font-family:'C64 User';-inkscape-font-specification:'C64 User';text-align:center;text-anchor:middle;fill:#ffffff;stroke-width:0.265;stroke-dasharray:0.264999, 0.264999"
       d="m 3.6512497,52.478127 v -2.778125 h 1.5874999 v 0.396875 h 0.396875 v 0.396875 h 0.396875 v 1.190625 h -0.396875 v 0.396875 h -0.396875 v 0.396875 z m 0.79375,-0.396875 h 0.3968749 v -0.396875 h 0.396875 V 50.493752 H 4.8418746 V 50.096877 H 4.4449997 Z m 4.365625,-2.38125 v 0.396875 h -1.5875 v 0.79375 h 0.79375 v 0.396875 h -0.79375 v 0.79375 h 1.5875 v 0.396875 h -2.38125 v -2.778125 z m 0.7937501,2.778125 v -0.396875 h -0.396875 v -1.984375 h 0.396875 v -0.396875 h 1.5875002 v 0.396875 h 0.396875 v 0.396875 H 10.795 v -0.396875 h -0.79375 v 1.984375 H 10.795 v -0.396875 h 0.79375 v 0.396875 h -0.396875 v 0.396875 z"
       id="text9"
       inkscape:label="dec"
       aria-label="DEC" />
    <path
       style="font-size:3.175px;font-family:'C64 User';-inkscape-font-specification:'C64 User';text-align:center;text-anchor:middle;fill:#ffffff;stroke-width:0.265;stroke-dasharray:0.264999, 0.264999"
       d="m 3.6512497,28.77813 v -1.984375 h 0.396875 V 26.39688 h 0.396875 v -0.396875 h 0.7937499 v 0.396875 h 0.396875 v 0.396875 h 0.396875 v 1.984375 h -0.79375 V 27.587505 H 4.4449997 v 1.190625 z m 0.79375,-1.5875 H 5.2387496 V 26.793755 H 4.4449997 Z m 2.38125,1.5875 V 28.381255 H 6.4293747 V 26.39688 h 0.396875 v -0.396875 h 1.5875 v 0.396875 h 0.396875 v 0.396875 h -0.79375 V 26.39688 h -0.79375 v 1.984375 h 0.79375 V 27.98438 h 0.79375 v 0.396875 h -0.396875 v 0.396875 z m 2.7781251,0 V 28.381255 H 9.2074998 V 26.39688 h 0.396875 v -0.396875 h 1.5875002 v 0.396875 h 0.396875 v 0.396875 H 10.795 V 26.39688 h -0.79375 v 1.984375 H 10.795 V 27.98438 h 0.79375 v 0.396875 h -0.396875 v 0.396875 z"
       id="text10"
       inkscape:label="acc"
       aria-label="ACC" />
    <path
       style="font-size:3.175px;font-family:'C64 User';-inkscape-font-specification:'C64 User';text-align:center;text-anchor:middle;fill:#ffffff;stroke-width:0.265;stroke-dasharray:0.264999, 0.264999"
       d="m 4.4449997,14.578125 v -2.38125 h -0.79375 V 11.8 h 2.3812499 v 0.396875 h -0.79375 v 2.38125 z m 1.984375,0 V 11.8 h 1.984375 v 0.396875 h 0.396875 v 0.79375 H 8.4137497 V 13.3875 h -0.396875 v 0.396875 h 0.396875 v 0.396875 h 0.396875 v 0.396875 h -0.79375 V 14.18125 h -0.396875 v -0.396875 h -0.396875 v 0.79375 z m 0.79375,-1.5875 h 0.79375 v -0.79375 h -0.79375 z m 2.3812501,1.5875 V 14.18125 h -0.396875 v -1.984375 h 0.396875 V 11.8 h 1.5875002 v 0.396875 H 11.58875 V 12.59375 H 10.795 V 12.196875 H 10.00125 V 14.18125 H 10.795 V 13.3875 h -0.396875 v -0.396875 h 1.190625 v 1.190625 h -0.396875 v 0.396875 z"
       id="text11"
       inkscape:label="trg"
       aria-label="TRG" />
    <path
       style="font-size:2.11667px;font-family:'C64 User';-inkscape-font-specification:'C64 User';text-align:center;text-anchor:middle;fill:#ffffff;stroke-width:0.262154;stroke-dasharray:0.262153, 0.262153"
       d="m 10.965729,46.934483 v -0.529168 h 0.264584 v -0.264584 h 0.529167 v -0.264583 h 0.264584 V 45.34698 h -0.529167 v 0.264584 H 10.965729 V 45.34698 h 0.264584 v -0.264584 h 1.058335 v 0.264584 h 0.264584 v 0.529168 h -0.264584 v 0.264583 H 11.75948 v 0.264584 l -0.264583,-0.001 v 0.265617 h 1.058335 v 0.264584 z"
       id="text12"
       inkscape:label="2x"
       transform="scale(0.98925647,1.0108602)"
       aria-label="2" />
  </g>
  <g
     inkscape:label="header footer"
     inkscape:groupmode="layer"
     id="layer1"
     style="display:inline">
    <rect
       style="display:inline;fill:#00000a;fill-opacity:1;stroke:#666699;stroke-width:0.4;stroke-dasharray:none;stroke-dashoffset:0;stroke-opacity:1"
       id="rect2138"
       width="7.1264729"
       height="5.3939409"
       x="6.7475638"
       y="1.132198"
       ry="1.2"
       inkscape:label="header rect" />
    <text
       xml:space="preserve"
       style="font-style:normal;font-variant:normal;font-weight:normal;font-stretch:normal;font-size:2.46944px;font-family:'C64 User';-inkscape-font-specification:'C64 User';text-align:center;text-anchor:middle;display:inline;fill:#e5e5e5;fill-opacity:1;stroke-width:0.258083"
       x="12.747074"
       y="5.5664172"
       id="text20"
       inkscape:label="1"
       transform="scale(0.97543485,1.0251838)"><tspan
         sodipodi:role="line"
         id="tspan20"
         style="font-size:2.46944px;text-align:center;text-anchor:middle;fill:#e5e5e5;fill-opacity:1;stroke-width:0.258083"
         x="12.747074"
         y="5.5664172">1</tspan></text>
    <text
       xml:space="preserve"
       style="font-style:normal;font-variant:normal;font-weight:normal;font-stretch:normal;font-size:3.175px;font-family:'C64 User';-inkscape-font-specification:'C64 User';text-align:center;text-anchor:middle;display:inline;fill:#e5e5e5;fill-opacity:1;stroke-width:0.258083"
       x="10.217477"
       y="4.3600883"
       id="text1341"
       inkscape:label="dP"
       transform="scale(0.97543484,1.0251838)"><tspan
         sodipodi:role="line"
         id="tspan1339"
         style="font-size:3.175px;text-align:center;text-anchor:middle;fill:#e5e5e5;fill-opacity:1;stroke-width:0.258083"
         x="10.217477"
         y="4.3600883">dP</tspan></text>
    <rect
       style="display:inline;fill:#00000a;fill-opacity:1;stroke:#666699;stroke-width:0.4;stroke-dasharray:none;stroke-dashoffset:0;stroke-opacity:1"
       id="rect1447-8"
       width="8.386981"
       height="3.8484273"
       x="1.3319837"
       y="124.21705"
       inkscape:label="footer rect"
       ry="1.2" />
    <text
       xml:space="preserve"
       style="font-style:normal;font-variant:normal;font-weight:normal;font-stretch:normal;font-size:2.82222px;font-family:'C64 User';-inkscape-font-specification:'C64 User';display:none;fill:#cccccc;fill-opacity:1;stroke-width:0.264583"
       x="1.6235188"
       y="127.19959"
       id="text183"
       inkscape:label="sickozell"><tspan
         sodipodi:role="line"
         id="tspan181"
         style="font-size:2.82222px;fill:#cccccc;fill-opacity:1;stroke-width:0.264583"
         x="1.6235188"
         y="127.19959">skz</tspan></text>
    <g
       aria-label="skz"
       id="text24111"
       style="font-size:2.82222px;font-family:'C64 User';-inkscape-font-specification:'C64 User';display:inline;fill:#cccccc;stroke-width:0.264583"
       inkscape:label="sickozell"
       transform="translate(0.37418024)">
      <path
         d="m 3.7401839,125.43571 v 0.35277 H 2.3290738 v 0.35278 h 1.0583326 v 0.35278 h 0.3527775 v 0.35278 H 3.3874064 v 0.35277 H 1.6235188 v -0.35277 h 1.4111101 v -0.35278 H 1.9762963 v -0.35278 H 1.6235188 v -0.35278 h 0.3527775 v -0.35277 z"
         id="path24113" />
      <path
         d="m 4.0929614,127.19959 v -2.11666 h 0.7055551 v 1.05833 H 5.151294 v -0.35278 h 0.705555 v 0.35278 H 5.5040715 v 0.35278 H 5.856849 v 0.35278 h 0.3527775 v 0.35277 h -0.705555 v -0.35277 H 5.151294 v -0.35278 H 4.7985165 v 0.70555 z"
         id="path24115" />
      <path
         d="m 6.562404,127.19959 v -0.35277 h 0.3527775 v -0.35278 h 0.3527776 v -0.35278 h 0.3527775 v -0.35278 H 6.562404 v -0.35277 h 2.1166651 v 0.35277 H 8.3262916 v 0.35278 H 7.9735141 v 0.35278 H 7.6207366 v 0.35278 h 1.0583325 v 0.35277 z"
         id="path24117" />
    </g>
    <path
       d="m 11.666694,5.5664172 v -0.30868 h 0.61736 v -0.92604 h -0.30868 v -0.30868 h 0.30868 v -0.61736 h 0.61736 v 1.85208 h 0.61736 v 0.30868 z"
       id="text21"
       style="font-size:2.46944px;font-family:'C64 User';-inkscape-font-specification:'C64 User';text-align:center;text-anchor:middle;fill:#e5e5e5;stroke-width:0.258083"
       inkscape:label="1"
       transform="scale(0.97543485,1.0251838)"
       aria-label="1" />
    <path
       d="M 7.8362269,4.3600883 V 3.9632134 h -0.396875 v -0.79375 h 0.396875 v -0.396875 h 1.190625 v -0.79375 h 0.79375 v 2.3812499 z m 0.396875,-0.3968749 h 0.79375 v -0.79375 h -0.79375 z M 10.217477,4.3600883 V 1.5819634 h 1.984375 v 0.396875 h 0.396875 v 0.79375 h -0.396875 v 0.396875 h -1.190625 v 1.1906249 z m 0.79375,-1.5874999 h 0.79375 v -0.79375 h -0.79375 z"
       id="text22"
       style="font-size:3.175px;font-family:'C64 User';-inkscape-font-specification:'C64 User';text-align:center;text-anchor:middle;fill:#e5e5e5;stroke-width:0.258083"
       inkscape:label="dP"
       transform="scale(0.97543484,1.0251838)"
       aria-label="dP" />
  </g>
</svg>
