<?xml version="1.0" encoding="UTF-8" standalone="no"?>
<!-- Created with Inkscape (http://www.inkscape.org/) -->

<svg
   width="10.16mm"
   height="128.5mm"
   viewBox="0 0 10.16 128.5"
   version="1.1"
   id="svg5"
   inkscape:version="1.4 (86a8ad7, 2024-10-11)"
   sodipodi:docname="DrumPlayerMini.svg"
   xmlns:inkscape="http://www.inkscape.org/namespaces/inkscape"
   xmlns:sodipodi="http://sodipodi.sourceforge.net/DTD/sodipodi-0.dtd"
   xmlns="http://www.w3.org/2000/svg"
   xmlns:svg="http://www.w3.org/2000/svg">
  <sodipodi:namedview
     id="namedview7"
     pagecolor="#ffffff"
     bordercolor="#000000"
     borderopacity="0.25"
     inkscape:showpageshadow="2"
     inkscape:pageopacity="0.0"
     inkscape:pagecheckerboard="0"
     inkscape:deskcolor="#d1d1d1"
     inkscape:document-units="mm"
     showgrid="false"
     inkscape:zoom="2.828427"
     inkscape:cx="11.844039"
     inkscape:cy="354.79084"
     inkscape:window-width="1366"
     inkscape:window-height="705"
     inkscape:window-x="-8"
     inkscape:window-y="-8"
     inkscape:window-maximized="1"
     inkscape:current-layer="svg5"
     showguides="true" />
  <defs
     id="defs2">
    <rect
       x="22.799086"
       y="440.55881"
       width="6.0350523"
       height="22.128525"
       id="rect289" />
  </defs>
  <rect
     style="display:inline;fill:#000033;fill-opacity:1;stroke-width:0.162024;image-rendering:auto"
     id="sfondo"
     width="15.24"
     height="128.5"
     x="0"
     y="6.6613381e-16"
     inkscape:label="background"
     ry="0"
     transform="scale(0.66666668,1)" />
  <g
     inkscape:groupmode="layer"
     id="layer2"
     inkscape:label="stripes bottom"
     transform="matrix(0.9409449,0,0,1,0.3,0)">
    <rect
       style="display:inline;fill:#0088ff;fill-opacity:1;stroke:none;stroke-width:0.145613"
       id="rect7854"
       width="10.16"
       height="0.30911431"
       x="0"
       y="127.49089"
       inkscape:label="azzurro" />
    <rect
       style="display:inline;fill:#00cc55;fill-opacity:1;stroke:none;stroke-width:0.145613"
       id="rect7856"
       width="10.16"
       height="0.30911431"
       x="0"
       y="126.7181"
       inkscape:label="verde" />
    <rect
       style="display:inline;fill:#eeee77;fill-opacity:1;stroke:none;stroke-width:0.145613"
       id="rect7858"
       width="10.16"
       height="0.30911431"
       x="0"
       y="125.94532"
       inkscape:label="giallo" />
    <rect
       style="display:inline;fill:#ff7777;fill-opacity:1;stroke:none;stroke-width:0.145613"
       id="rect7860"
       width="10.16"
       height="0.30911431"
       x="0"
       y="125.17253"
       inkscape:label="rosa" />
    <rect
       style="display:inline;fill:#bd0000;fill-opacity:1;stroke:none;stroke-width:0.145613"
       id="rect7862"
       width="10.16"
       height="0.30911431"
       x="0"
       y="124.4"
       inkscape:label="rosso" />
  </g>
  <g
     inkscape:groupmode="layer"
     id="layer7"
     inkscape:label="stripes top"
     transform="matrix(0.15933333,0,0,1,-0.18118673,0.44166683)"
     style="display:inline;fill:#000000;stroke:none">
    <rect
       style="display:inline;fill:#0088ff;fill-opacity:1;stroke-width:0.40253"
       id="rect1316"
       width="60"
       height="0.40000001"
       x="3.0200005"
       y="5.0580001"
       inkscape:label="azzurro" />
    <rect
       style="display:inline;fill:#00cc55;fill-opacity:1;stroke-width:0.40253"
       id="rect1313"
       width="60"
       height="0.40000001"
       x="3.0200005"
       y="4.0580001"
       inkscape:label="verde" />
    <rect
       style="display:inline;fill:#eeee77;fill-opacity:1;stroke-width:0.40253"
       id="rect1310"
       width="60"
       height="0.40000001"
       x="3.0200005"
       y="3.0580001"
       inkscape:label="giallo" />
    <rect
       style="display:inline;fill:#ff7777;fill-opacity:1;stroke-width:0.40253"
       id="rect989"
       width="60"
       height="0.40000001"
       x="3.0200005"
       y="2.0580001"
       inkscape:label="rosa" />
    <rect
       style="display:inline;fill:#bd0000;fill-opacity:1;stroke-width:0.40253"
       id="rect1308"
       width="60"
       height="0.40000001"
       x="2.7204449"
       y="0.65833217"
       transform="translate(0.29955559,0.400001)"
       inkscape:label="rosso" />
  </g>
  <g
     inkscape:groupmode="layer"
     id="layer4"
     inkscape:label="Elementi"
     style="fill:#f9f9f9">
    <rect
       style="display:inline;fill:#494983;fill-opacity:1;stroke:none;stroke-width:0.165487;stroke-dasharray:0.165487, 0.165487;stroke-dashoffset:0;stroke-opacity:1"
       id="rect19362"
       width="9.5600004"
       height="15"
       x="0.30000001"
       y="107.5"
       inkscape:label="rect out" />
    <circle
       style="display:inline;fill:#000000;fill-opacity:1;stroke:none;stroke-width:0.4;stroke-opacity:0.5"
       id="path1289"
       cx="5.0799999"
       cy="9"
       r="2" />
    <path
       style="display:inline;fill:#000000;stroke:#51517a;stroke-width:0.4;stroke-dasharray:none;stroke-opacity:1"
       d="m 1.0799999,94.9 h 8"
       id="path25231"
       sodipodi:nodetypes="cc" />
    <path
       style="display:inline;fill:#000000;stroke:#51517a;stroke-width:0.4;stroke-opacity:1;stroke-dasharray:none"
       d="m 1.0799999,24.7 h 8"
       id="path13714"
       sodipodi:nodetypes="cc" />
    <g
       id="g14"
       inkscape:label="TrimPot rline"
       transform="translate(-19.257492,8.8627)"
       style="display:inline;fill:#f9f9f9">
      <path
         style="display:inline;fill:none;stroke:#ededed;stroke-width:0.4;stroke-dasharray:none;stroke-dashoffset:0;stroke-opacity:1"
         id="path13"
         inkscape:label="trimpot circle"
         sodipodi:type="arc"
         sodipodi:cx="24.337492"
         sodipodi:cy="48.5373"
         sodipodi:rx="3.5"
         sodipodi:ry="3.5"
         sodipodi:start="2.0943951"
         sodipodi:end="1.0471976"
         sodipodi:arc-type="arc"
         d="m 22.587492,51.568389 a 3.5,3.5 0 0 1 -1.63074,-3.936956 3.5,3.5 0 0 1 3.38074,-2.594133 3.5,3.5 0 0 1 3.38074,2.594134 3.5,3.5 0 0 1 -1.63074,3.936955"
         sodipodi:open="true" />
      <rect
         style="display:inline;fill:#f2f2f2;stroke:none;stroke-width:0.375045;stroke-dasharray:none"
         id="rect13"
         width="0.62838537"
         height="0.95759505"
         x="-6.3197465"
         y="57.27565"
         ry="0.087054096"
         inkscape:label="trimpot line"
         transform="rotate(-32.836866)" />
    </g>
    <path
       style="display:inline;fill:#000000;stroke:#51517a;stroke-width:0.4;stroke-dasharray:none;stroke-opacity:1"
       d="m 1.0799999,48.4 h 8"
       id="path12"
       sodipodi:nodetypes="cc" />
    <g
       id="g26"
       inkscape:label="TrimPot center"
       transform="translate(-19.257492,33.014586)"
       style="display:inline;fill:#f9f9f9">
      <path
         style="display:inline;fill:none;stroke:#ededed;stroke-width:0.4;stroke-dasharray:none;stroke-dashoffset:0;stroke-opacity:1"
         id="path25"
         inkscape:label="trimpot circle"
         sodipodi:type="arc"
         sodipodi:cx="24.337492"
         sodipodi:cy="48.5373"
         sodipodi:rx="3.5"
         sodipodi:ry="3.5"
         sodipodi:start="2.0943951"
         sodipodi:end="1.0471976"
         sodipodi:arc-type="arc"
         d="m 22.587492,51.568389 a 3.5,3.5 0 0 1 -1.63074,-3.936956 3.5,3.5 0 0 1 3.38074,-2.594133 3.5,3.5 0 0 1 3.38074,2.594134 3.5,3.5 0 0 1 -1.63074,3.936955"
         sodipodi:open="true" />
      <rect
         style="display:inline;fill:#f2f2f2;stroke:none;stroke-width:0.375045;stroke-dasharray:none"
         id="rect25"
         width="0.62838537"
         height="0.95759505"
         x="24.023306"
         y="44.185417"
         ry="0.087054096"
         inkscape:label="trimpot line" />
    </g>
    <path
       style="display:inline;fill:#000000;stroke:#51517a;stroke-width:0.4;stroke-dasharray:none;stroke-opacity:1"
       d="m 1.0799999,71.7 h 8"
       id="path22"
       sodipodi:nodetypes="cc" />
    <g
       id="g2"
       inkscape:label="TrimPot center"
       transform="translate(-19.257492,-5.6354172)"
       style="display:inline;fill:#f9f9f9">
      <path
         style="display:inline;fill:none;stroke:#ededed;stroke-width:0.4;stroke-dasharray:none;stroke-dashoffset:0;stroke-opacity:1"
         id="path1"
         inkscape:label="trimpot circle"
         sodipodi:type="arc"
         sodipodi:cx="24.337492"
         sodipodi:cy="48.5373"
         sodipodi:rx="3.5"
         sodipodi:ry="3.5"
         sodipodi:start="2.0943951"
         sodipodi:end="1.0471976"
         sodipodi:arc-type="arc"
         d="m 22.587492,51.568389 a 3.5,3.5 0 0 1 -1.63074,-3.936956 3.5,3.5 0 0 1 3.38074,-2.594133 3.5,3.5 0 0 1 3.38074,2.594134 3.5,3.5 0 0 1 -1.63074,3.936955"
         sodipodi:open="true" />
      <rect
         style="display:inline;fill:#f2f2f2;stroke:none;stroke-width:0.375045;stroke-dasharray:none"
         id="rect2"
         width="0.62838537"
         height="0.95759505"
         x="24.023306"
         y="44.185417"
         ry="0.087054096"
         inkscape:label="trimpot line" />
    </g>
  </g>
  <g
     inkscape:groupmode="layer"
     id="layer5"
     inkscape:label="Etichette Testo"
     style="display:none"
     transform="translate(-2.5399999)">
    <text
       xml:space="preserve"
       style="font-style:normal;font-variant:normal;font-weight:normal;font-stretch:normal;font-size:2.82222px;font-family:'C64 User';-inkscape-font-specification:'C64 User';text-align:center;text-anchor:middle;display:inline;fill:#ffffff;stroke:none;stroke-width:0.264999;stroke-dasharray:0.264999, 0.264999;stroke-dashoffset:0;stroke-opacity:1"
       x="7.7963886"
       y="111.66946"
       id="text11212"
       inkscape:label="out"><tspan
         sodipodi:role="line"
         id="tspan11210"
         style="font-size:2.82222px;text-align:center;text-anchor:middle;stroke:none;stroke-width:0.265"
         x="7.7963886"
         y="111.66946">OUT</tspan></text>
    <text
       xml:space="preserve"
       style="font-style:normal;font-variant:normal;font-weight:normal;font-stretch:normal;font-size:2.82222px;font-family:'C64 User';-inkscape-font-specification:'C64 User';text-align:center;text-anchor:middle;display:inline;fill:#44a140;fill-opacity:1;stroke:none;stroke-width:0.262153;stroke-dasharray:0.262153, 0.262153;stroke-dashoffset:0;stroke-opacity:1"
       x="7.8791432"
       y="98.130547"
       id="text1"
       inkscape:label="rev"
       transform="scale(0.98925647,1.0108602)"><tspan
         sodipodi:role="line"
         id="tspan1"
         style="font-size:2.82222px;text-align:center;text-anchor:middle;fill:#44a140;fill-opacity:1;stroke:none;stroke-width:0.262154"
         x="7.8791432"
         y="98.130547">REV</tspan></text>
    <text
       xml:space="preserve"
       style="font-size:2.82222px;font-family:'C64 User';-inkscape-font-specification:'C64 User';text-align:center;text-anchor:middle;display:inline;fill:#ffffff;stroke:none;stroke-width:0.264999;stroke-dasharray:0.264999, 0.264999"
       x="7.8184371"
       y="75.978119"
       id="text2"
       inkscape:label="tune"><tspan
         sodipodi:role="line"
         id="tspan2"
         style="font-size:2.82222px;text-align:center;text-anchor:middle;stroke:none;stroke-width:0.265"
         x="7.8184371"
         y="75.978119">TUN</tspan></text>
    <text
       xml:space="preserve"
       style="font-style:normal;font-variant:normal;font-weight:normal;font-stretch:normal;font-size:2.82222px;font-family:'C64 User';-inkscape-font-specification:'C64 User';text-align:center;text-anchor:middle;display:inline;fill:#ffffff;stroke:none;stroke-width:0.264999;stroke-dasharray:0.264999, 0.264999;stroke-dashoffset:0;stroke-opacity:1"
       x="7.8184371"
       y="52.478127"
       id="text3"
       inkscape:label="dec"><tspan
         sodipodi:role="line"
         id="tspan3"
         style="font-size:2.82222px;text-align:center;text-anchor:middle;stroke:none;stroke-width:0.265"
         x="7.8184371"
         y="52.478127">DEC</tspan></text>
    <text
       xml:space="preserve"
       style="font-style:normal;font-variant:normal;font-weight:normal;font-stretch:normal;font-size:2.82222px;font-family:'C64 User';-inkscape-font-specification:'C64 User';text-align:center;text-anchor:middle;display:inline;fill:#ffffff;stroke:none;stroke-width:0.264999;stroke-dasharray:0.264999, 0.264999;stroke-dashoffset:0;stroke-opacity:1"
       x="7.8184371"
       y="28.77813"
       id="text5"
       inkscape:label="acc"><tspan
         sodipodi:role="line"
         id="tspan5"
         style="font-size:2.82222px;text-align:center;text-anchor:middle;stroke:none;stroke-width:0.265"
         x="7.8184371"
         y="28.77813">ACC</tspan></text>
    <text
       xml:space="preserve"
       style="font-style:normal;font-variant:normal;font-weight:normal;font-stretch:normal;font-size:2.82222px;font-family:'C64 User';-inkscape-font-specification:'C64 User';text-align:center;text-anchor:middle;display:inline;fill:#ffffff;stroke:none;stroke-width:0.264999;stroke-dasharray:0.264999, 0.264999;stroke-dashoffset:0;stroke-opacity:1"
       x="7.8184371"
       y="14.578125"
       id="text6"
       inkscape:label="trg"><tspan
         sodipodi:role="line"
         id="tspan6"
         style="font-size:2.82222px;text-align:center;text-anchor:middle;stroke:none;stroke-width:0.265"
         x="7.8184371"
         y="14.578125">TRG</tspan></text>
    <text
       xml:space="preserve"
       style="font-style:normal;font-variant:normal;font-weight:normal;font-stretch:normal;font-size:2.11667px;font-family:'C64 User';-inkscape-font-specification:'C64 User';text-align:center;text-anchor:middle;display:inline;fill:#ffffff;fill-opacity:1;stroke:none;stroke-width:0.262153;stroke-dasharray:0.262153, 0.262153;stroke-dashoffset:0;stroke-opacity:1"
       x="11.43899"
       y="47.061108"
       id="text1116"
       inkscape:label="2x"
       transform="scale(0.98925647,1.0108602)"><tspan
         sodipodi:role="line"
         style="font-size:2.11667px;text-align:center;text-anchor:middle;fill:#ffffff;fill-opacity:1;stroke:none;stroke-width:0.262154"
         x="11.43899"
         y="47.061108"
         id="tspan1114">2</tspan></text>
    <text
       xml:space="preserve"
       style="font-style:normal;font-variant:normal;font-weight:normal;font-stretch:normal;font-size:2.11667px;font-family:'C64 User';-inkscape-font-specification:'C64 User';text-align:center;text-anchor:middle;display:inline;fill:#ffffff;fill-opacity:1;stroke:none;stroke-width:0.262153;stroke-dasharray:0.262153, 0.262153;stroke-dashoffset:0;stroke-opacity:1"
       x="4.2618818"
       y="47.061108"
       id="text23"
       inkscape:label="1x"
       transform="scale(0.98925647,1.0108602)"><tspan
         sodipodi:role="line"
         style="font-size:2.11667px;text-align:center;text-anchor:middle;fill:#ffffff;fill-opacity:1;stroke:none;stroke-width:0.262154"
         x="4.2618818"
         y="47.061108"
         id="tspan22">0</tspan></text>
  </g>
  <g
     inkscape:groupmode="layer"
     id="g21"
     inkscape:label="Etichette Testo nere"
     style="display:inline;fill:#000000"
     transform="translate(-2.2400001,0.300318)">
    <path
       style="font-size:2.82222px;font-family:'C64 User';-inkscape-font-specification:'C64 User';text-align:center;text-anchor:middle;fill:#000000;stroke-width:0.265;stroke-dasharray:0.264999, 0.264999"
       d="m 4.4450023,111.66946 v -0.35278 H 4.0922248 v -1.76389 h 0.3527775 v -0.35278 h 1.41111 v 0.35278 h 0.3527775 v 1.76389 H 5.8561123 v 0.35278 z m 0.3527775,-0.35278 h 0.705555 v -1.76389 h -0.705555 z m 2.1166651,0.35278 v -0.35278 H 6.5616674 v -2.11667 h 0.705555 v 2.11667 h 0.705555 v -2.11667 h 0.705555 v 2.11667 H 8.3255549 v 0.35278 z m 2.8222201,0 v -2.11667 H 9.03111 v -0.35278 h 2.116665 v 0.35278 H 10.44222 v 2.11667 z"
       id="path14"
       inkscape:label="out"
       aria-label="OUT" />
    <path
       style="font-size:2.82222px;font-family:'C64 User';-inkscape-font-specification:'C64 User';text-align:center;text-anchor:middle;fill:#000000;stroke-width:0.262154;stroke-dasharray:0.262153, 0.262153"
       d="m 4.1749794,98.130547 v -2.469443 h 1.7638875 v 0.352778 h 0.3527775 v 0.705555 H 5.9388669 v 0.352777 H 5.5860894 v 0.352778 h 0.3527775 v 0.352777 h 0.3527775 v 0.352778 H 5.5860894 V 97.777769 H 5.2333119 V 97.424992 H 4.8805344 v 0.705555 z m 0.705555,-1.41111 h 0.705555 V 96.013882 H 4.8805344 Z M 8.761087,95.661104 v 0.352778 h -1.41111 v 0.705555 h 0.705555 v 0.352777 H 7.349977 v 0.705555 h 1.41111 v 0.352778 H 6.644422 v -2.469443 z m 1.0583326,2.469443 V 97.777769 H 9.4666421 V 97.424992 H 9.1138646 v -1.763888 h 0.705555 v 1.763888 h 0.7055554 v -1.763888 h 0.705555 v 1.763888 h -0.352778 v 0.352777 h -0.352777 v 0.352778 z"
       id="path15"
       inkscape:label="rev"
       transform="scale(0.98925647,1.0108602)"
       aria-label="REV" />
    <path
       style="font-size:2.82222px;font-family:'C64 User';-inkscape-font-specification:'C64 User';text-align:center;text-anchor:middle;fill:#000000;stroke-width:0.265;stroke-dasharray:0.264999, 0.264999"
       d="M 4.8198283,75.978119 V 73.861454 H 4.1142732 v -0.352778 h 2.1166651 v 0.352778 h -0.705555 v 2.116665 z m 2.1166651,0 V 75.625341 H 6.5837158 v -2.116665 h 0.7055551 v 2.116665 h 0.705555 v -2.116665 h 0.705555 v 2.116665 H 8.3476034 v 0.352778 z m 2.116665,0 v -2.469443 h 0.7055551 v 0.352778 h 0.3527775 v 0.352777 h 0.352777 v -0.705555 h 0.705556 v 2.469443 H 10.464268 V 75.272564 H 10.111491 V 74.919786 H 9.7587135 v 1.058333 z"
       id="path16"
       inkscape:label="tune"
       aria-label="TUN" />
    <path
       style="font-size:2.82222px;font-family:'C64 User';-inkscape-font-specification:'C64 User';text-align:center;text-anchor:middle;fill:#000000;stroke-width:0.265;stroke-dasharray:0.264999, 0.264999"
       d="m 4.1142732,52.478127 v -2.469443 h 1.4111101 v 0.352777 h 0.3527775 v 0.352778 h 0.3527775 v 1.058333 H 5.8781608 v 0.352777 H 5.5253833 v 0.352778 z M 4.8198283,52.125349 H 5.1726058 V 51.772572 H 5.5253833 V 50.714239 H 5.1726058 V 50.361461 H 4.8198283 Z m 3.8805526,-2.116665 v 0.352777 h -1.41111 v 0.705555 h 0.705555 v 0.352778 h -0.705555 v 0.705555 h 1.41111 v 0.352778 H 6.5837158 V 50.008684 Z M 9.405936,52.478127 V 52.125349 H 9.0531584 V 50.361461 H 9.405936 v -0.352777 h 1.41111 v 0.352777 h 0.352778 v 0.352778 H 10.464268 V 50.361461 H 9.7587135 v 1.763888 h 0.7055545 v -0.352777 h 0.705556 v 0.352777 h -0.352778 v 0.352778 z"
       id="path17"
       inkscape:label="dec"
       aria-label="DEC" />
    <path
       style="font-size:2.82222px;font-family:'C64 User';-inkscape-font-specification:'C64 User';text-align:center;text-anchor:middle;fill:#000000;stroke-width:0.265;stroke-dasharray:0.264999, 0.264999"
       d="m 4.1142732,28.77813 v -1.763888 h 0.3527775 v -0.352777 h 0.3527776 v -0.352778 h 0.705555 v 0.352778 h 0.3527775 v 0.352777 h 0.3527775 v 1.763888 h -0.705555 v -1.058333 h -0.705555 v 1.058333 z m 0.7055551,-1.41111 h 0.705555 v -0.352778 h -0.705555 z m 2.1166651,1.41111 V 28.425352 H 6.5837158 v -1.763887 h 0.3527776 v -0.352778 h 1.41111 v 0.352778 h 0.3527775 v 0.352777 h -0.705555 v -0.352777 h -0.705555 v 1.763887 h 0.705555 v -0.352777 h 0.705555 v 0.352777 H 8.3476034 v 0.352778 z m 2.4694426,0 V 28.425352 H 9.0531584 V 26.661465 H 9.405936 v -0.352778 h 1.41111 v 0.352778 h 0.352778 v 0.352777 H 10.464268 V 26.661465 H 9.7587135 v 1.763887 h 0.7055545 v -0.352777 h 0.705556 v 0.352777 h -0.352778 v 0.352778 z"
       id="path18"
       inkscape:label="acc"
       aria-label="ACC" />
    <path
       style="font-size:2.82222px;font-family:'C64 User';-inkscape-font-specification:'C64 User';text-align:center;text-anchor:middle;fill:#000000;stroke-width:0.265;stroke-dasharray:0.264999, 0.264999"
       d="M 4.8198283,14.578125 V 12.46146 H 4.1142732 v -0.352778 h 2.1166651 v 0.352778 h -0.705555 v 2.116665 z m 1.7638875,0 v -2.469443 h 1.7638876 v 0.352778 h 0.3527775 v 0.705555 H 8.3476034 v 0.352777 H 7.9948259 v 0.352778 h 0.3527775 v 0.352777 h 0.3527775 v 0.352778 H 7.9948259 V 14.225347 H 7.6420484 V 13.87257 H 7.2892709 v 0.705555 z m 0.7055551,-1.41111 h 0.705555 V 12.46146 h -0.705555 z m 2.1166651,1.41111 V 14.225347 H 9.0531584 V 12.46146 H 9.405936 v -0.352778 h 1.41111 v 0.352778 h 0.352778 v 0.352777 H 10.464268 V 12.46146 H 9.7587135 v 1.763887 h 0.7055545 v -0.705555 h -0.352777 v -0.352777 h 1.058333 v 1.058332 h -0.352778 v 0.352778 z"
       id="path19"
       inkscape:label="trg"
       aria-label="TRG" />
    <path
       style="font-size:2.11667px;font-family:'C64 User';-inkscape-font-specification:'C64 User';text-align:center;text-anchor:middle;fill:#000000;stroke-width:0.262154;stroke-dasharray:0.262153, 0.262153"
       d="M 10.512947,47.061108 V 46.53194 h 0.264583 v -0.264584 h 0.529168 v -0.264583 h 0.264584 v -0.529168 h -0.529168 v 0.264584 h -0.529167 v -0.264584 h 0.264583 v -0.264584 h 1.058335 v 0.264584 h 0.264584 v 0.529168 h -0.264584 v 0.264583 h -0.529167 v 0.264584 l -0.264584,-10e-4 v 0.265617 h 1.058335 v 0.264584 z"
       id="path20"
       inkscape:label="2x"
       transform="scale(0.98925647,1.0108602)"
       aria-label="2" />
    <path
       style="font-size:2.11667px;font-family:'C64 User';-inkscape-font-specification:'C64 User';text-align:center;text-anchor:middle;fill:#000000;stroke-width:0.262154;stroke-dasharray:0.262153, 0.262153"
       d="M 3.6004225,47.061108 V 46.796524 H 3.3358388 v -1.322919 h 0.2645837 v -0.264584 h 1.0583349 v 0.264584 h 0.2645838 v 1.322919 H 4.6587574 v 0.264584 z M 3.8650062,46.796524 H 4.3941737 V 46.002773 H 4.12959 V 45.738189 H 4.3941737 V 45.473605 H 3.8650062 v 0.529168 H 4.12959 v 0.264583 H 3.8650062 Z"
       id="path21"
       inkscape:label="1x"
       transform="scale(0.98925647,1.0108602)"
       aria-label="0" />
  </g>
  <g
     inkscape:groupmode="layer"
     id="g13"
     inkscape:label="Etichette Testo path"
     style="display:inline"
     transform="translate(-2.5399999)">
    <path
       style="font-size:2.82222px;font-family:'C64 User';-inkscape-font-specification:'C64 User';text-align:center;text-anchor:middle;fill:#ffffff;stroke-width:0.265;stroke-dasharray:0.264999, 0.264999"
       d="m 4.4450023,111.66946 v -0.35278 H 4.0922248 v -1.76389 h 0.3527775 v -0.35278 h 1.41111 v 0.35278 h 0.3527775 v 1.76389 H 5.8561123 v 0.35278 z m 0.3527775,-0.35278 h 0.705555 v -1.76389 h -0.705555 z m 2.1166651,0.35278 v -0.35278 H 6.5616674 v -2.11667 h 0.705555 v 2.11667 h 0.705555 v -2.11667 h 0.705555 v 2.11667 H 8.3255549 v 0.35278 z m 2.8222201,0 v -2.11667 H 9.03111 v -0.35278 h 2.116665 v 0.35278 H 10.44222 v 2.11667 z"
       id="text4"
       inkscape:label="out"
       aria-label="OUT" />
    <path
       style="font-size:2.82222px;font-family:'C64 User';-inkscape-font-specification:'C64 User';text-align:center;text-anchor:middle;fill:#44a140;stroke-width:0.262154;stroke-dasharray:0.262153, 0.262153"
       d="m 4.1749794,98.130547 v -2.469443 h 1.7638875 v 0.352778 h 0.3527775 v 0.705555 H 5.9388669 v 0.352777 H 5.5860894 v 0.352778 h 0.3527775 v 0.352777 h 0.3527775 v 0.352778 H 5.5860894 V 97.777769 H 5.2333119 V 97.424992 H 4.8805344 v 0.705555 z m 0.705555,-1.41111 h 0.705555 V 96.013882 H 4.8805344 Z M 8.761087,95.661104 v 0.352778 h -1.41111 v 0.705555 h 0.705555 v 0.352777 H 7.349977 v 0.705555 h 1.41111 v 0.352778 H 6.644422 v -2.469443 z m 1.0583326,2.469443 V 97.777769 H 9.4666421 V 97.424992 H 9.1138646 v -1.763888 h 0.705555 v 1.763888 h 0.7055554 v -1.763888 h 0.705555 v 1.763888 h -0.352778 v 0.352777 h -0.352777 v 0.352778 z"
       id="text7"
       inkscape:label="rev"
       transform="scale(0.98925647,1.0108602)"
       aria-label="REV" />
    <path
       style="font-size:2.82222px;font-family:'C64 User';-inkscape-font-specification:'C64 User';text-align:center;text-anchor:middle;fill:#ffffff;stroke-width:0.265;stroke-dasharray:0.264999, 0.264999"
       d="M 4.8198283,75.978119 V 73.861454 H 4.1142732 v -0.352778 h 2.1166651 v 0.352778 h -0.705555 v 2.116665 z m 2.1166651,0 V 75.625341 H 6.5837158 v -2.116665 h 0.7055551 v 2.116665 h 0.705555 v -2.116665 h 0.705555 v 2.116665 H 8.3476034 v 0.352778 z m 2.116665,0 v -2.469443 h 0.7055551 v 0.352778 h 0.3527775 v 0.352777 h 0.352777 v -0.705555 h 0.705556 v 2.469443 H 10.464268 V 75.272564 H 10.111491 V 74.919786 H 9.7587135 v 1.058333 z"
       id="text8"
       inkscape:label="tune"
       aria-label="TUN" />
    <path
       style="font-size:2.82222px;font-family:'C64 User';-inkscape-font-specification:'C64 User';text-align:center;text-anchor:middle;fill:#ffffff;stroke-width:0.265;stroke-dasharray:0.264999, 0.264999"
       d="m 4.1142732,52.478127 v -2.469443 h 1.4111101 v 0.352777 h 0.3527775 v 0.352778 h 0.3527775 v 1.058333 H 5.8781608 v 0.352777 H 5.5253833 v 0.352778 z M 4.8198283,52.125349 H 5.1726058 V 51.772572 H 5.5253833 V 50.714239 H 5.1726058 V 50.361461 H 4.8198283 Z m 3.8805526,-2.116665 v 0.352777 h -1.41111 v 0.705555 h 0.705555 v 0.352778 h -0.705555 v 0.705555 h 1.41111 v 0.352778 H 6.5837158 V 50.008684 Z M 9.405936,52.478127 V 52.125349 H 9.0531584 V 50.361461 H 9.405936 v -0.352777 h 1.41111 v 0.352777 h 0.352778 v 0.352778 H 10.464268 V 50.361461 H 9.7587135 v 1.763888 h 0.7055545 v -0.352777 h 0.705556 v 0.352777 h -0.352778 v 0.352778 z"
       id="text9"
       inkscape:label="dec"
       aria-label="DEC" />
    <path
       style="font-size:2.82222px;font-family:'C64 User';-inkscape-font-specification:'C64 User';text-align:center;text-anchor:middle;fill:#ffffff;stroke-width:0.265;stroke-dasharray:0.264999, 0.264999"
       d="m 4.1142732,28.77813 v -1.763888 h 0.3527775 v -0.352777 h 0.3527776 v -0.352778 h 0.705555 v 0.352778 h 0.3527775 v 0.352777 h 0.3527775 v 1.763888 h -0.705555 v -1.058333 h -0.705555 v 1.058333 z m 0.7055551,-1.41111 h 0.705555 v -0.352778 h -0.705555 z m 2.1166651,1.41111 V 28.425352 H 6.5837158 v -1.763887 h 0.3527776 v -0.352778 h 1.41111 v 0.352778 h 0.3527775 v 0.352777 h -0.705555 v -0.352777 h -0.705555 v 1.763887 h 0.705555 v -0.352777 h 0.705555 v 0.352777 H 8.3476034 v 0.352778 z m 2.4694426,0 V 28.425352 H 9.0531584 V 26.661465 H 9.405936 v -0.352778 h 1.41111 v 0.352778 h 0.352778 v 0.352777 H 10.464268 V 26.661465 H 9.7587135 v 1.763887 h 0.7055545 v -0.352777 h 0.705556 v 0.352777 h -0.352778 v 0.352778 z"
       id="text10"
       inkscape:label="acc"
       aria-label="ACC" />
    <path
       style="font-size:2.82222px;font-family:'C64 User';-inkscape-font-specification:'C64 User';text-align:center;text-anchor:middle;fill:#ffffff;stroke-width:0.265;stroke-dasharray:0.264999, 0.264999"
       d="M 4.8198283,14.578125 V 12.46146 H 4.1142732 v -0.352778 h 2.1166651 v 0.352778 h -0.705555 v 2.116665 z m 1.7638875,0 v -2.469443 h 1.7638876 v 0.352778 h 0.3527775 v 0.705555 H 8.3476034 v 0.352777 H 7.9948259 v 0.352778 h 0.3527775 v 0.352777 h 0.3527775 v 0.352778 H 7.9948259 V 14.225347 H 7.6420484 V 13.87257 H 7.2892709 v 0.705555 z m 0.7055551,-1.41111 h 0.705555 V 12.46146 h -0.705555 z m 2.1166651,1.41111 V 14.225347 H 9.0531584 V 12.46146 H 9.405936 v -0.352778 h 1.41111 v 0.352778 h 0.352778 v 0.352777 H 10.464268 V 12.46146 H 9.7587135 v 1.763887 h 0.7055545 v -0.705555 h -0.352777 v -0.352777 h 1.058333 v 1.058332 h -0.352778 v 0.352778 z"
       id="text11"
       inkscape:label="trg"
       aria-label="TRG" />
    <path
       style="font-size:2.11667px;font-family:'C64 User';-inkscape-font-specification:'C64 User';text-align:center;text-anchor:middle;fill:#ffffff;stroke-width:0.262154;stroke-dasharray:0.262153, 0.262153"
       d="M 10.512947,47.061108 V 46.53194 h 0.264583 v -0.264584 h 0.529168 v -0.264583 h 0.264584 v -0.529168 h -0.529168 v 0.264584 h -0.529167 v -0.264584 h 0.264583 v -0.264584 h 1.058335 v 0.264584 h 0.264584 v 0.529168 h -0.264584 v 0.264583 h -0.529167 v 0.264584 l -0.264584,-0.001 v 0.265617 h 1.058335 v 0.264584 z"
       id="text12"
       inkscape:label="2x"
       transform="scale(0.98925647,1.0108602)"
       aria-label="2" />
    <path
       style="font-size:2.11667px;font-family:'C64 User';-inkscape-font-specification:'C64 User';text-align:center;text-anchor:middle;fill:#ffffff;stroke-width:0.262154;stroke-dasharray:0.262153, 0.262153"
       d="M 3.6004225,47.061108 V 46.796524 H 3.3358388 v -1.322919 h 0.2645837 v -0.264584 h 1.0583349 v 0.264584 h 0.2645838 v 1.322919 H 4.6587574 v 0.264584 z M 3.8650062,46.796524 H 4.3941737 V 46.002773 H 4.12959 V 45.738189 H 4.3941737 V 45.473605 H 3.8650062 v 0.529168 H 4.12959 v 0.264583 H 3.8650062 Z"
       id="text13"
       inkscape:label="1x"
       transform="scale(0.98925647,1.0108602)"
       aria-label="0" />
  </g>
  <g
     inkscape:label="header footer"
     inkscape:groupmode="layer"
     id="layer1"
     style="display:inline"
     transform="translate(0,3.2560825e-4)">
    <rect
       style="display:inline;fill:#00000a;fill-opacity:1;stroke:#666699;stroke-width:0.399812;stroke-dasharray:none;stroke-dashoffset:0;stroke-opacity:1"
       id="rect1"
       width="8.5601883"
       height="3.8001883"
       x="0.79990602"
       y="124.19991"
       inkscape:label="footer rect"
       ry="1.2" />
    <rect
       style="display:inline;fill:#00000a;fill-opacity:1;stroke:#666699;stroke-width:0.399961;stroke-dasharray:none;stroke-dashoffset:0;stroke-opacity:1"
       id="rect2138"
       width="7.600039"
       height="5.4000387"
       x="1.2796549"
       y="0.99965489"
       ry="1.5000001"
       inkscape:label="header rect" />
    <text
       xml:space="preserve"
       style="font-style:normal;font-variant:normal;font-weight:normal;font-stretch:normal;font-size:2.82222px;font-family:'C64 User';-inkscape-font-specification:'C64 User';display:none;fill:#cccccc;fill-opacity:1;stroke-width:0.264583"
       x="1.5522223"
       y="127.01666"
       id="text10-8"
       inkscape:label="skz"><tspan
         sodipodi:role="line"
         id="tspan1-2"
         style="font-size:2.82222px;fill:#cccccc;fill-opacity:1;stroke-width:0.264583"
         x="0"
         y="0">skz</tspan></text>
    <path
       d="m 3.6688873,125.25278 v 0.35277 h -1.41111 v 0.35278 h 1.0583325 v 0.35278 h 0.3527775 v 0.35278 H 3.3161098 v 0.35277 H 1.5522223 v -0.35277 h 1.41111 v -0.35278 H 1.9049998 v -0.35278 H 1.5522223 v -0.35278 h 0.3527775 v -0.35277 z m 0.3527776,1.76388 V 124.9 h 0.705555 v 1.05833 h 0.3527775 v -0.35278 h 0.705555 v 0.35278 H 5.4327749 v 0.35278 h 0.3527775 v 0.35278 h 0.3527775 v 0.35277 h -0.705555 v -0.35277 H 5.0799974 v -0.35278 H 4.7272199 v 0.70555 z m 2.4694426,0 v -0.35277 H 6.843885 v -0.35278 h 0.3527775 v -0.35278 H 7.54944 v -0.35278 H 6.4911075 v -0.35277 h 2.116665 v 0.35277 H 8.254995 v 0.35278 H 7.9022175 v 0.35278 H 7.54944 v 0.35278 h 1.0583325 v 0.35277 z"
       id="text15"
       style="font-size:2.82222px;font-family:'C64 User';-inkscape-font-specification:'C64 User';fill:#cccccc;stroke-width:0.264583"
       inkscape:label="skz"
       aria-label="skz" />
    <text
       xml:space="preserve"
       style="font-style:normal;font-variant:normal;font-weight:normal;font-stretch:normal;font-size:2.82222px;font-family:'C64 User';-inkscape-font-specification:'C64 User';text-align:end;text-anchor:end;display:none;fill:#e5e5e5;fill-opacity:1;stroke-width:0.258083"
       x="7.8534312"
       y="4.8435125"
       id="text1341"
       inkscape:label="dP"
       transform="scale(0.97543485,1.0251838)"><tspan
         sodipodi:role="line"
         id="tspan1339"
         style="font-size:2.82222px;text-align:end;text-anchor:end;fill:#e5e5e5;fill-opacity:1;stroke-width:0.258083"
         x="7.8534312"
         y="4.8435125">dP</tspan></text>
    <path
       d="M 3.1870612,4.9654905 V 4.6038287 H 2.8429498 V 3.8805051 H 3.1870612 V 3.5188433 H 4.2193956 V 2.7955197 h 0.688223 V 4.9654905 Z M 3.5311727,4.6038287 H 4.2193956 V 3.8805051 H 3.5311727 Z M 5.2517301,4.9654905 V 2.433858 H 6.9722875 V 2.7955197 H 7.316399 V 3.5188433 H 6.9722875 V 3.8805051 H 5.9399531 V 4.9654905 Z M 5.9399531,3.5188433 H 6.628176 V 2.7955197 H 5.9399531 Z"
       id="text14"
       style="font-size:2.82222px;font-family:'C64 User';-inkscape-font-specification:'C64 User';text-align:end;text-anchor:end;fill:#e5e5e5;stroke-width:0.258083"
       inkscape:label="dP"
       aria-label="dP" />
  </g>
</svg>
