<?xml version="1.0" encoding="UTF-8" standalone="no"?>
<!-- Created with Inkscape (http://www.inkscape.org/) -->

<svg
   width="10.16mm"
   height="128.5mm"
   viewBox="0 0 10.16 128.5"
   version="1.1"
   id="svg5"
   inkscape:version="1.4 (86a8ad7, 2024-10-11)"
   sodipodi:docname="EnverMini.svg"
   xmlns:inkscape="http://www.inkscape.org/namespaces/inkscape"
   xmlns:sodipodi="http://sodipodi.sourceforge.net/DTD/sodipodi-0.dtd"
   xmlns="http://www.w3.org/2000/svg"
   xmlns:svg="http://www.w3.org/2000/svg">
  <sodipodi:namedview
     id="namedview7"
     pagecolor="#ffffff"
     bordercolor="#000000"
     borderopacity="0.25"
     inkscape:showpageshadow="2"
     inkscape:pageopacity="0.0"
     inkscape:pagecheckerboard="0"
     inkscape:deskcolor="#d1d1d1"
     inkscape:document-units="mm"
     showgrid="false"
     inkscape:zoom="1.4142135"
     inkscape:cx="71.064235"
     inkscape:cy="301.58106"
     inkscape:window-width="1920"
     inkscape:window-height="1017"
     inkscape:window-x="1352"
     inkscape:window-y="-8"
     inkscape:window-maximized="1"
     inkscape:current-layer="layer4"
     showguides="true" />
  <defs
     id="defs2">
    <rect
       x="22.799086"
       y="440.55881"
       width="6.0350523"
       height="22.128525"
       id="rect289" />
  </defs>
  <rect
     style="display:inline;fill:#000033;fill-opacity:1;stroke-width:0.162024;image-rendering:auto"
     id="sfondo"
     width="15.24"
     height="128.5"
     x="0"
     y="6.6613381e-16"
     inkscape:label="background"
     ry="0"
     transform="scale(0.66666668,1)" />
  <g
     inkscape:groupmode="layer"
     id="layer2"
     inkscape:label="stripes bottom"
     transform="matrix(0.9409449,0,0,1,0.3,0)">
    <rect
       style="display:inline;fill:#0088ff;fill-opacity:1;stroke:none;stroke-width:0.145613"
       id="rect7854"
       width="10.16"
       height="0.30911431"
       x="0"
       y="127.49089"
       inkscape:label="azzurro" />
    <rect
       style="display:inline;fill:#00cc55;fill-opacity:1;stroke:none;stroke-width:0.145613"
       id="rect7856"
       width="10.16"
       height="0.30911431"
       x="0"
       y="126.7181"
       inkscape:label="verde" />
    <rect
       style="display:inline;fill:#eeee77;fill-opacity:1;stroke:none;stroke-width:0.145613"
       id="rect7858"
       width="10.16"
       height="0.30911431"
       x="0"
       y="125.94532"
       inkscape:label="giallo" />
    <rect
       style="display:inline;fill:#ff7777;fill-opacity:1;stroke:none;stroke-width:0.145613"
       id="rect7860"
       width="10.16"
       height="0.30911431"
       x="0"
       y="125.17253"
       inkscape:label="rosa" />
    <rect
       style="display:inline;fill:#bd0000;fill-opacity:1;stroke:none;stroke-width:0.145613"
       id="rect7862"
       width="10.16"
       height="0.30911431"
       x="0"
       y="124.4"
       inkscape:label="rosso" />
  </g>
  <g
     inkscape:groupmode="layer"
     id="layer7"
     inkscape:label="stripes top"
     transform="matrix(0.15933333,0,0,1,-0.18118673,0.44166683)"
     style="display:inline;fill:#000000;stroke:none">
    <rect
       style="display:inline;fill:#0088ff;fill-opacity:1;stroke-width:0.40253"
       id="rect1316"
       width="60"
       height="0.40000001"
       x="3.0200005"
       y="5.0580001"
       inkscape:label="azzurro" />
    <rect
       style="display:inline;fill:#00cc55;fill-opacity:1;stroke-width:0.40253"
       id="rect1313"
       width="60"
       height="0.40000001"
       x="3.0200005"
       y="4.0580001"
       inkscape:label="verde" />
    <rect
       style="display:inline;fill:#eeee77;fill-opacity:1;stroke-width:0.40253"
       id="rect1310"
       width="60"
       height="0.40000001"
       x="3.0200005"
       y="3.0580001"
       inkscape:label="giallo" />
    <rect
       style="display:inline;fill:#ff7777;fill-opacity:1;stroke-width:0.40253"
       id="rect989"
       width="60"
       height="0.40000001"
       x="3.0200005"
       y="2.0580001"
       inkscape:label="rosa" />
    <rect
       style="display:inline;fill:#bd0000;fill-opacity:1;stroke-width:0.40253"
       id="rect1308"
       width="60"
       height="0.40000001"
       x="2.7204449"
       y="0.65833217"
       transform="translate(0.29955559,0.400001)"
       inkscape:label="rosso" />
  </g>
  <g
     inkscape:groupmode="layer"
     id="layer4"
     inkscape:label="Elementi"
     style="fill:#f9f9f9">
    <rect
       style="display:inline;fill:#494983;fill-opacity:1;stroke:none;stroke-width:0.219959;stroke-dasharray:0.219959, 0.219959;stroke-dashoffset:0;stroke-opacity:1"
       id="rect19362"
       width="9.5600004"
       height="26.5"
       x="0.30000001"
       y="96"
       inkscape:label="rect out" />
    <path
       style="display:inline;fill:#000000;stroke:#51517a;stroke-width:0.4;stroke-dasharray:none;stroke-opacity:1"
       d="m 1.0799999,69.699998 h 8"
       id="path12"
       sodipodi:nodetypes="cc"
       inkscape:label="line" />
    <path
       style="display:inline;fill:none;stroke:#ededed;stroke-width:0.4;stroke-dasharray:none;stroke-dashoffset:0;stroke-opacity:1"
       id="path2"
       inkscape:label="trimpot circle"
       sodipodi:type="arc"
       sodipodi:cx="5.0799999"
       sodipodi:cy="51.200001"
       sodipodi:rx="3.5"
       sodipodi:ry="3.5"
       sodipodi:start="2.0943951"
       sodipodi:end="1.0471976"
       sodipodi:arc-type="arc"
       d="M 3.3299999,54.23109 A 3.5,3.5 0 0 1 1.6992595,50.294134 3.5,3.5 0 0 1 5.0799999,47.700001 3.5,3.5 0 0 1 8.4607403,50.294134 3.5,3.5 0 0 1 6.8299998,54.23109"
       sodipodi:open="true" />
    <path
       style="display:inline;fill:none;stroke:#ededed;stroke-width:0.4;stroke-dasharray:none;stroke-dashoffset:0;stroke-opacity:1"
       id="path3"
       inkscape:label="trimpot circle"
       sodipodi:type="arc"
       sodipodi:cx="5.0799999"
       sodipodi:cy="43.200001"
       sodipodi:rx="3.5"
       sodipodi:ry="3.5"
       sodipodi:start="2.0943951"
       sodipodi:end="1.0471976"
       sodipodi:arc-type="arc"
       d="M 3.3299999,46.23109 A 3.5,3.5 0 0 1 1.6992595,42.294134 3.5,3.5 0 0 1 5.0799999,39.700001 3.5,3.5 0 0 1 8.4607403,42.294134 3.5,3.5 0 0 1 6.8299998,46.23109"
       sodipodi:open="true" />
    <path
       style="display:inline;fill:none;stroke:#ededed;stroke-width:0.4;stroke-dasharray:none;stroke-dashoffset:0;stroke-opacity:1"
       id="path4"
       inkscape:label="trimpot circle"
       sodipodi:type="arc"
       sodipodi:cx="5.0799999"
       sodipodi:cy="35.200001"
       sodipodi:rx="3.5"
       sodipodi:ry="3.5"
       sodipodi:start="2.0943951"
       sodipodi:end="1.0471976"
       sodipodi:arc-type="arc"
       d="M 3.3299999,38.23109 A 3.5,3.5 0 0 1 1.6992595,34.294134 3.5,3.5 0 0 1 5.0799999,31.700001 3.5,3.5 0 0 1 8.4607403,34.294134 3.5,3.5 0 0 1 6.8299998,38.23109"
       sodipodi:open="true" />
    <path
       style="display:inline;fill:none;stroke:#ededed;stroke-width:0.4;stroke-dasharray:none;stroke-dashoffset:0;stroke-opacity:1"
       id="path5"
       inkscape:label="trimpot circle"
       sodipodi:type="arc"
       sodipodi:cx="5.0799999"
       sodipodi:cy="27.200003"
       sodipodi:rx="3.5"
       sodipodi:ry="3.5"
       sodipodi:start="2.0943951"
       sodipodi:end="1.0471976"
       sodipodi:arc-type="arc"
       d="M 3.3299999,30.231092 A 3.5,3.5 0 0 1 1.6992595,26.294136 3.5,3.5 0 0 1 5.0799999,23.700003 3.5,3.5 0 0 1 8.4607403,26.294136 3.5,3.5 0 0 1 6.8299998,30.231092"
       sodipodi:open="true" />
    <path
       style="display:inline;fill:none;stroke:#ededed;stroke-width:0.4;stroke-dasharray:none;stroke-dashoffset:0;stroke-opacity:1"
       id="path7"
       inkscape:label="trimpot circle"
       sodipodi:type="arc"
       sodipodi:cx="5.0799999"
       sodipodi:cy="78.199997"
       sodipodi:rx="3.5"
       sodipodi:ry="3.5"
       sodipodi:start="2.0943951"
       sodipodi:end="1.0471976"
       sodipodi:arc-type="arc"
       d="M 3.3299999,81.231086 A 3.5,3.5 0 0 1 1.6992595,77.29413 3.5,3.5 0 0 1 5.0799999,74.699997 3.5,3.5 0 0 1 8.4607403,77.29413 3.5,3.5 0 0 1 6.8299998,81.231086"
       sodipodi:open="true" />
    <path
       style="display:inline;fill:none;stroke:#ededed;stroke-width:0.4;stroke-dasharray:none;stroke-dashoffset:0;stroke-opacity:1"
       id="path14"
       inkscape:label="trimpot circle"
       sodipodi:type="arc"
       sodipodi:cx="5.0799999"
       sodipodi:cy="64.199997"
       sodipodi:rx="3.5"
       sodipodi:ry="3.5"
       sodipodi:start="2.0943951"
       sodipodi:end="1.0471976"
       sodipodi:arc-type="arc"
       d="M 3.3299999,67.231086 A 3.5,3.5 0 0 1 1.6992595,63.29413 3.5,3.5 0 0 1 5.0799999,60.699997 3.5,3.5 0 0 1 8.4607403,63.29413 3.5,3.5 0 0 1 6.8299998,67.231086"
       sodipodi:open="true" />
    <path
       sodipodi:nodetypes="ccc"
       inkscape:connector-curvature="0"
       id="path4890"
       d="M 4.0433932,59.964324 5.0811113,58.888163 6.1165748,59.96248"
       style="display:inline;fill:none;stroke:#ffffff;stroke-width:0.4;stroke-linecap:butt;stroke-linejoin:miter;stroke-miterlimit:4;stroke-dasharray:none;stroke-dashoffset:0;stroke-opacity:1"
       inkscape:label="linear" />
    <path
       sodipodi:nodetypes="cc"
       inkscape:connector-curvature="0"
       id="path1088"
       d="M 9.524557,66.901304 C 8.597052,66.868564 8.053243,67.434472 8.103098,68.404501"
       style="display:inline;fill:none;stroke:#ffffff;stroke-width:0.4;stroke-linecap:butt;stroke-linejoin:miter;stroke-miterlimit:4;stroke-dasharray:none;stroke-dashoffset:0;stroke-opacity:1"
       inkscape:label="log" />
    <path
       sodipodi:nodetypes="cc"
       inkscape:connector-curvature="0"
       id="path1090"
       d="M 0.50705541,68.313462 C 1.4345604,68.346202 1.9783694,67.780294 1.9285144,66.810265"
       style="display:inline;fill:none;stroke:#ffffff;stroke-width:0.4;stroke-linecap:butt;stroke-linejoin:miter;stroke-miterlimit:4;stroke-dasharray:none;stroke-dashoffset:0;stroke-opacity:1"
       inkscape:label="exp" />
  </g>
  <g
     inkscape:groupmode="layer"
     id="layer5"
     inkscape:label="Etichette Testo"
     style="display:none"
     transform="translate(-2.5399999)">
    <text
       xml:space="preserve"
       style="font-style:normal;font-variant:normal;font-weight:normal;font-stretch:normal;font-size:2.82222px;font-family:'C64 User';-inkscape-font-specification:'C64 User';text-align:center;text-anchor:middle;display:inline;fill:#ffffff;stroke:none;stroke-width:0.264999;stroke-dasharray:0.264999, 0.264999;stroke-dashoffset:0;stroke-opacity:1"
       x="7.7963886"
       y="112.46945"
       id="text2"
       inkscape:label="env out"><tspan
         sodipodi:role="line"
         id="tspan1"
         style="font-size:2.82222px;text-align:center;text-anchor:middle;stroke:none;stroke-width:0.265"
         x="7.7963886"
         y="112.46945">ENV</tspan></text>
    <text
       xml:space="preserve"
       style="font-style:normal;font-variant:normal;font-weight:normal;font-stretch:normal;font-size:2.82222px;font-family:'C64 User';-inkscape-font-specification:'C64 User';text-align:center;text-anchor:middle;display:inline;fill:#ffffff;stroke:none;stroke-width:0.264999;stroke-dasharray:0.264999, 0.264999;stroke-dashoffset:0;stroke-opacity:1"
       x="7.7963886"
       y="99.469444"
       id="text2513"
       inkscape:label="out"><tspan
         sodipodi:role="line"
         id="tspan2511"
         style="font-size:2.82222px;text-align:center;text-anchor:middle;fill:#ffffff;stroke:none;stroke-width:0.265"
         x="7.7963886"
         y="99.469444">OUT</tspan></text>
    <text
       xml:space="preserve"
       style="font-style:normal;font-variant:normal;font-weight:normal;font-stretch:normal;font-size:2.82222px;font-family:'C64 User';-inkscape-font-specification:'C64 User';text-align:center;text-anchor:middle;display:inline;fill:#ffffff;stroke:none;stroke-width:0.264999;stroke-dasharray:0.264999, 0.264999;stroke-dashoffset:0;stroke-opacity:1"
       x="7.7963886"
       y="85.469444"
       id="text2507"
       inkscape:label="in"><tspan
         sodipodi:role="line"
         id="tspan2505"
         style="font-size:2.82222px;text-align:center;text-anchor:middle;stroke:none;stroke-width:0.265"
         x="7.7963886"
         y="85.469444">IN</tspan></text>
    <text
       xml:space="preserve"
       style="font-style:normal;font-variant:normal;font-weight:normal;font-stretch:normal;font-size:2.82222px;font-family:'C64 User';-inkscape-font-specification:'C64 User';text-align:center;text-anchor:middle;display:inline;fill:#ffffff;stroke:none;stroke-width:0.25;stroke-dasharray:0.25, 0.25;stroke-dashoffset:0;stroke-opacity:1"
       x="8.2535467"
       y="69.45092"
       id="text2255"
       inkscape:label="vca"
       transform="scale(0.94340113,1.0599945)"><tspan
         sodipodi:role="line"
         id="tspan2253"
         style="font-size:2.82222px;text-align:center;text-anchor:middle;stroke:none;stroke-width:0.250001"
         x="8.2535467"
         y="69.45092">VCA</tspan></text>
    <text
       xml:space="preserve"
       style="font-style:normal;font-variant:normal;font-weight:normal;font-stretch:normal;font-size:2.82222px;font-family:'C64 User';-inkscape-font-specification:'C64 User';text-align:center;text-anchor:middle;display:inline;fill:#ffffff;stroke:none;stroke-width:0.25;stroke-dasharray:0.25, 0.25;stroke-dashoffset:0;stroke-opacity:1"
       x="8.2535467"
       y="54.828205"
       id="text13"
       inkscape:label="shp"
       transform="scale(0.94340113,1.0599945)"><tspan
         sodipodi:role="line"
         id="tspan13"
         style="font-size:2.82222px;text-align:center;text-anchor:middle;stroke:none;stroke-width:0.250001"
         x="8.2535467"
         y="54.828205">SHP</tspan></text>
    <text
       xml:space="preserve"
       style="font-style:normal;font-variant:normal;font-weight:normal;font-stretch:normal;font-size:2.11667px;font-family:'C64 User';-inkscape-font-specification:'C64 User';text-align:center;text-anchor:middle;display:inline;fill:#ffffff;stroke:none;stroke-width:0.264999;stroke-dasharray:0.264999, 0.264999;stroke-dashoffset:0;stroke-opacity:1"
       x="11.466043"
       y="48.452087"
       id="text28"
       inkscape:label="rel"><tspan
         sodipodi:role="line"
         id="tspan28"
         style="font-size:2.11667px;text-align:center;text-anchor:middle;stroke:none;stroke-width:0.265"
         x="11.466043"
         y="48.452087">R</tspan></text>
    <text
       xml:space="preserve"
       style="font-style:normal;font-variant:normal;font-weight:normal;font-stretch:normal;font-size:2.11667px;font-family:'C64 User';-inkscape-font-specification:'C64 User';text-align:center;text-anchor:middle;display:inline;fill:#ffffff;stroke:none;stroke-width:0.264999;stroke-dasharray:0.264999, 0.264999;stroke-dashoffset:0;stroke-opacity:1"
       x="4.0660429"
       y="40.452087"
       id="text27"
       inkscape:label="sus"><tspan
         sodipodi:role="line"
         id="tspan27"
         style="font-size:2.11667px;text-align:center;text-anchor:middle;stroke:none;stroke-width:0.265"
         x="4.0660429"
         y="40.452087">S</tspan></text>
    <text
       xml:space="preserve"
       style="font-style:normal;font-variant:normal;font-weight:normal;font-stretch:normal;font-size:2.11667px;font-family:'C64 User';-inkscape-font-specification:'C64 User';text-align:center;text-anchor:middle;display:inline;fill:#ffffff;stroke:none;stroke-width:0.264999;stroke-dasharray:0.264999, 0.264999;stroke-dashoffset:0;stroke-opacity:1"
       x="11.466043"
       y="32.452087"
       id="text26"
       inkscape:label="dec"><tspan
         sodipodi:role="line"
         id="tspan26"
         style="font-size:2.11667px;text-align:center;text-anchor:middle;stroke:none;stroke-width:0.265"
         x="11.466043"
         y="32.452087">D</tspan></text>
    <text
       xml:space="preserve"
       style="font-style:normal;font-variant:normal;font-weight:normal;font-stretch:normal;font-size:2.11667px;font-family:'C64 User';-inkscape-font-specification:'C64 User';text-align:center;text-anchor:middle;display:inline;fill:#ffffff;stroke:none;stroke-width:0.264999;stroke-dasharray:0.264999, 0.264999;stroke-dashoffset:0;stroke-opacity:1"
       x="4.0660429"
       y="24.252087"
       id="text7"
       inkscape:label="att"><tspan
         sodipodi:role="line"
         id="tspan6"
         style="font-size:2.11667px;text-align:center;text-anchor:middle;stroke:none;stroke-width:0.265"
         x="4.0660429"
         y="24.252087">A</tspan></text>
    <text
       xml:space="preserve"
       style="font-style:normal;font-variant:normal;font-weight:normal;font-stretch:normal;font-size:2.46944px;font-family:'C64 User';-inkscape-font-specification:'C64 User';text-align:center;text-anchor:middle;display:inline;fill:#ffffff;stroke:none;stroke-width:0.262153;stroke-dasharray:0.262153, 0.262153;stroke-dashoffset:0;stroke-opacity:1"
       x="8.9423914"
       y="22.242666"
       id="text38"
       inkscape:label="env"
       transform="scale(0.98925647,1.0108602)"><tspan
         sodipodi:role="line"
         id="tspan38"
         style="font-size:2.46944px;text-align:center;text-anchor:middle;stroke:none;stroke-width:0.262154"
         x="8.9423914"
         y="22.242666">ENV</tspan></text>
    <text
       xml:space="preserve"
       style="font-style:normal;font-variant:normal;font-weight:normal;font-stretch:normal;font-size:2.82222px;font-family:'C64 User';-inkscape-font-specification:'C64 User';text-align:center;text-anchor:middle;display:inline;fill:#ffffff;stroke:none;stroke-width:0.262153;stroke-dasharray:0.262153, 0.262153;stroke-dashoffset:0;stroke-opacity:1"
       x="7.8791432"
       y="10.185643"
       id="text778"
       inkscape:label="gte"
       transform="scale(0.98925648,1.0108602)"><tspan
         sodipodi:role="line"
         id="tspan776"
         style="font-size:2.82222px;text-align:center;text-anchor:middle;stroke:none;stroke-width:0.262154"
         x="7.8791432"
         y="10.185643">GTE</tspan></text>
  </g>
  <g
     inkscape:groupmode="layer"
     id="g59"
     inkscape:label="Etichette Testo nere"
     style="display:inline;fill:#000000"
     transform="translate(-2.2399998,0.30000001)">
    <path
       style="font-size:2.82222px;font-family:'C64 User';-inkscape-font-specification:'C64 User';text-align:center;text-anchor:middle;fill:#000000;stroke-width:0.265;stroke-dasharray:0.264999, 0.264999"
       d="m 6.2088898,110.00001 v 0.35278 h -1.41111 v 0.70555 h 0.705555 v 0.35278 h -0.705555 v 0.70555 h 1.41111 v 0.35278 h -2.116665 v -2.46944 z m 0.3527776,2.46944 v -2.46944 h 0.705555 v 0.35278 h 0.3527775 v 0.35277 h 0.3527775 v -0.70555 h 0.705555 v 2.46944 H 7.9727774 V 111.7639 H 7.6199999 v -0.35278 H 7.2672224 v 1.05833 z m 3.1749976,0 v -0.35278 H 9.3838875 V 111.7639 H 9.03111 v -1.76389 h 0.705555 v 1.76389 h 0.705555 v -1.76389 h 0.705555 v 1.76389 h -0.352777 v 0.35277 H 10.44222 v 0.35278 z"
       id="text49"
       inkscape:label="env out"
       aria-label="ENV" />
    <path
       style="font-size:2.82222px;font-family:'C64 User';-inkscape-font-specification:'C64 User';text-align:center;text-anchor:middle;fill:#000000;stroke-width:0.265;stroke-dasharray:0.264999, 0.264999"
       d="M 4.4450023,99.469442 V 99.116665 H 4.0922248 V 97.352777 H 4.4450023 V 97 h 1.41111 v 0.352777 h 0.3527775 v 1.763888 H 5.8561123 v 0.352777 z m 0.3527775,-0.352777 h 0.705555 v -1.763888 h -0.705555 z m 2.1166651,0.352777 V 99.116665 H 6.5616674 V 97 h 0.705555 v 2.116665 h 0.705555 V 97 h 0.705555 v 2.116665 H 8.3255549 v 0.352777 z m 2.8222201,0 V 97.352777 H 9.03111 V 97 h 2.116665 v 0.352777 H 10.44222 v 2.116665 z"
       id="text50"
       inkscape:label="out"
       aria-label="OUT" />
    <path
       style="font-size:2.82222px;font-family:'C64 User';-inkscape-font-specification:'C64 User';text-align:center;text-anchor:middle;fill:#000000;stroke-width:0.265;stroke-dasharray:0.264999, 0.264999"
       d="m 7.0908336,83 v 0.352777 H 6.7380561 v 1.763888 h 0.3527775 v 0.352777 h -1.41111 V 85.116665 H 6.0325011 V 83.352777 H 5.6797236 V 83 Z m 0.3527775,2.469442 V 83 h 0.705555 v 0.352777 h 0.3527775 v 0.352778 H 8.8547211 V 83 h 0.7055551 v 2.469442 H 8.8547211 V 84.763887 H 8.5019436 V 84.41111 H 8.1491661 v 1.058332 z"
       id="text51"
       inkscape:label="in"
       aria-label="IN" />
    <path
       style="font-size:2.82222px;font-family:'C64 User';-inkscape-font-specification:'C64 User';text-align:center;text-anchor:middle;fill:#000000;stroke-width:0.250001;stroke-dasharray:0.25, 0.25"
       d="M 4.9575144,73.617593 V 73.243651 H 4.6247037 V 72.869709 H 4.291893 v -1.869712 h 0.6656214 v 1.869712 h 0.6656213 v -1.869712 h 0.6656214 v 1.869712 H 5.9559464 v 0.373942 H 5.6231357 v 0.373942 z m 1.9968642,0 V 73.243651 H 6.6215679 V 71.37394 h 0.3328107 v -0.373943 h 1.3312428 v 0.373943 h 0.3328107 v 0.373942 H 7.9528107 V 71.37394 H 7.2871893 v 1.869711 h 0.6656214 v -0.373942 h 0.6656214 v 0.373942 H 8.2856214 v 0.373942 z m 1.9968642,0 V 71.747882 H 9.2840535 V 71.37394 h 0.3328106 v -0.373943 h 0.6656219 v 0.373943 h 0.332811 v 0.373942 h 0.33281 v 1.869711 H 10.282486 V 72.495766 H 9.6168641 v 1.121827 z M 9.6168641,72.121825 H 10.282486 V 71.747882 H 9.6168641 Z"
       id="text52"
       inkscape:label="vca"
       aria-label="VCA" />
    <path
       style="font-size:2.82222px;font-family:'C64 User';-inkscape-font-specification:'C64 User';text-align:center;text-anchor:middle;fill:#000000;stroke-width:0.250001;stroke-dasharray:0.25, 0.25"
       d="M 4.6247037,58.117596 V 57.743653 H 4.291893 v -0.373941 h 0.6656214 v 0.373941 H 5.6231357 V 56.995769 H 4.6247037 V 56.621827 H 4.291893 V 55.873943 H 4.6247037 V 55.5 h 1.3312427 v 0.373943 h 0.3328107 v 0.373941 H 5.6231357 V 55.873943 H 4.9575144 v 0.747884 h 0.998432 v 0.373942 h 0.3328107 v 0.747884 H 5.9559464 v 0.373943 z m 1.9968642,0 V 55.5 h 0.6656214 v 1.121827 H 7.9528107 V 55.5 h 0.6656214 v 2.617596 H 7.9528107 V 56.995769 H 7.2871893 v 1.121827 z m 2.3296749,0 V 55.5 h 1.6640542 v 0.373943 h 0.33281 v 0.747884 h -0.33281 v 0.373942 H 9.6168641 v 1.121827 z M 9.6168641,56.621827 H 10.282486 V 55.873943 H 9.6168641 Z"
       id="text53"
       inkscape:label="shp"
       aria-label="SHP" />
    <path
       style="font-size:2.11667px;font-family:'C64 User';-inkscape-font-specification:'C64 User';text-align:center;text-anchor:middle;fill:#000000;stroke-width:0.265;stroke-dasharray:0.264999, 0.264999"
       d="m 10.54,48.452087 v -1.852086 h 1.322919 v 0.264584 h 0.264584 v 0.529167 h -0.264584 v 0.264584 h -0.264584 v 0.264584 h 0.264584 v 0.264584 h 0.264584 v 0.264583 H 11.598335 V 48.187504 H 11.333752 V 47.92292 h -0.264584 v 0.529167 z m 0.529168,-1.058335 h 0.529167 v -0.529167 h -0.529167 z"
       id="text54"
       inkscape:label="rel"
       aria-label="R" />
    <path
       style="font-size:2.11667px;font-family:'C64 User';-inkscape-font-specification:'C64 User';text-align:center;text-anchor:middle;fill:#000000;stroke-width:0.265;stroke-dasharray:0.264999, 0.264999"
       d="M 3.4045836,40.452087 V 40.187504 H 3.1399998 V 39.92292 h 0.5291675 v 0.264584 H 4.1983348 V 39.658336 H 3.4045836 V 39.393752 H 3.1399998 v -0.529167 h 0.2645838 v -0.264584 h 1.0583349 v 0.264584 h 0.2645837 v 0.264584 H 4.1983348 V 38.864585 H 3.6691673 v 0.529167 h 0.7937512 v 0.264584 h 0.2645837 v 0.529168 H 4.4629185 v 0.264583 z"
       id="text55"
       inkscape:label="sus"
       aria-label="S" />
    <path
       style="font-size:2.11667px;font-family:'C64 User';-inkscape-font-specification:'C64 User';text-align:center;text-anchor:middle;fill:#000000;stroke-width:0.265;stroke-dasharray:0.264999, 0.264999"
       d="m 10.54,32.452087 v -1.852086 h 1.058335 v 0.264584 h 0.264584 v 0.264584 h 0.264584 v 0.793751 h -0.264584 v 0.264584 h -0.264584 v 0.264583 z m 0.529168,-0.264583 h 0.264584 V 31.92292 h 0.264583 v -0.793751 h -0.264583 v -0.264584 h -0.264584 z"
       id="text56"
       inkscape:label="dec"
       aria-label="D" />
    <path
       style="font-size:2.11667px;font-family:'C64 User';-inkscape-font-specification:'C64 User';text-align:center;text-anchor:middle;fill:#000000;stroke-width:0.265;stroke-dasharray:0.264999, 0.264999"
       d="M 3.1399998,24.252086 V 22.929168 H 3.4045836 V 22.664584 H 3.6691673 V 22.4 h 0.5291675 v 0.264584 h 0.2645837 v 0.264584 h 0.2645837 v 1.322918 H 4.1983348 V 23.458335 H 3.6691673 v 0.793751 z M 3.6691673,23.193751 H 4.1983348 V 22.929168 H 3.6691673 Z"
       id="text57"
       inkscape:label="att"
       aria-label="A" />
    <path
       style="font-size:2.46944px;font-family:'C64 User';-inkscape-font-specification:'C64 User';text-align:center;text-anchor:middle;fill:#000000;stroke-width:0.262154;stroke-dasharray:0.262153, 0.262153"
       d="m 7.472182,20.3 v 0.312032 H 6.2507273 v 0.624065 h 0.6107273 v 0.312032 H 6.2507273 v 0.624065 H 7.472182 v 0.312032 H 5.6399999 V 20.3 Z m 0.3053636,2.184226 V 20.3 H 8.388273 v 0.312032 h 0.3053637 v 0.312033 H 8.9990004 V 20.3 h 0.6107273 v 2.184226 H 8.9990004 V 21.860162 H 8.6936367 V 21.548129 H 8.388273 v 0.936097 z m 2.7482734,0 V 22.172194 H 10.220456 V 21.860162 H 9.9150918 V 20.3 h 0.6107272 v 1.560162 h 0.610728 V 20.3 h 0.610727 v 1.560162 H 11.44191 v 0.312032 h -0.305363 v 0.312032 z"
       id="text58"
       inkscape:label="env"
       aria-label="ENV" />
    <path
       style="font-size:2.82222px;font-family:'C64 User';-inkscape-font-specification:'C64 User';text-align:center;text-anchor:middle;fill:#000000;stroke-width:0.262154;stroke-dasharray:0.262153, 0.262153"
       d="M 4.4791129,10.296261 V 9.9396526 H 4.1301254 V 8.1566087 H 4.4791129 V 7.8 H 5.8750626 V 8.1566087 H 6.22405 V 8.5132175 H 5.5260751 V 8.1566087 H 4.8281003 V 9.9396526 H 5.5260751 V 9.2264349 H 5.1770877 V 8.8698262 H 6.22405 V 9.9396526 H 5.8750626 v 0.3566084 z m 2.7918995,0 V 8.1566087 H 6.5730375 V 7.8 H 8.6669621 V 8.1566087 H 7.9689872 V 10.296261 Z M 11.109875,7.8 V 8.1566087 H 9.7139245 V 8.8698262 H 10.4119 V 9.2264349 H 9.7139245 V 9.9396526 H 11.109875 V 10.296261 H 9.0159496 V 7.8 Z"
       id="text59"
       inkscape:label="gte"
       aria-label="GTE" />
  </g>
  <g
     inkscape:groupmode="layer"
     id="g69"
     inkscape:label="Etichette Testo path"
     style="display:inline"
     transform="translate(-2.5399999)">
    <path
       style="font-size:2.82222px;font-family:'C64 User';-inkscape-font-specification:'C64 User';text-align:center;text-anchor:middle;fill:#ffffff;stroke-width:0.265;stroke-dasharray:0.264999, 0.264999"
       d="m 6.2088898,110.00001 v 0.35278 h -1.41111 v 0.70555 h 0.705555 v 0.35278 h -0.705555 v 0.70555 h 1.41111 v 0.35278 h -2.116665 v -2.46944 z m 0.3527776,2.46944 v -2.46944 h 0.705555 v 0.35278 h 0.3527775 v 0.35277 h 0.3527775 v -0.70555 h 0.705555 v 2.46944 H 7.9727774 V 111.7639 H 7.6199999 v -0.35278 H 7.2672224 v 1.05833 z m 3.1749976,0 v -0.35278 H 9.3838875 V 111.7639 H 9.03111 v -1.76389 h 0.705555 v 1.76389 h 0.705555 v -1.76389 h 0.705555 v 1.76389 h -0.352777 v 0.35277 H 10.44222 v 0.35278 z"
       id="path59"
       inkscape:label="env out"
       aria-label="ENV" />
    <path
       style="font-size:2.82222px;font-family:'C64 User';-inkscape-font-specification:'C64 User';text-align:center;text-anchor:middle;fill:#ffffff;stroke-width:0.265;stroke-dasharray:0.264999, 0.264999"
       d="M 4.4450023,99.469442 V 99.116665 H 4.0922248 V 97.352777 H 4.4450023 V 97 h 1.41111 v 0.352777 h 0.3527775 v 1.763888 H 5.8561123 v 0.352777 z m 0.3527775,-0.352777 h 0.705555 v -1.763888 h -0.705555 z m 2.1166651,0.352777 V 99.116665 H 6.5616674 V 97 h 0.705555 v 2.116665 h 0.705555 V 97 h 0.705555 v 2.116665 H 8.3255549 v 0.352777 z m 2.8222201,0 V 97.352777 H 9.03111 V 97 h 2.116665 v 0.352777 H 10.44222 v 2.116665 z"
       id="path60"
       inkscape:label="out"
       aria-label="OUT" />
    <path
       style="font-size:2.82222px;font-family:'C64 User';-inkscape-font-specification:'C64 User';text-align:center;text-anchor:middle;fill:#ffffff;stroke-width:0.265;stroke-dasharray:0.264999, 0.264999"
       d="m 7.0908336,83 v 0.352777 H 6.7380561 v 1.763888 h 0.3527775 v 0.352777 h -1.41111 V 85.116665 H 6.0325011 V 83.352777 H 5.6797236 V 83 Z m 0.3527775,2.469442 V 83 h 0.705555 v 0.352777 h 0.3527775 v 0.352778 H 8.8547211 V 83 h 0.7055551 v 2.469442 H 8.8547211 V 84.763887 H 8.5019436 V 84.41111 H 8.1491661 v 1.058332 z"
       id="path61"
       inkscape:label="in"
       aria-label="IN" />
    <path
       style="font-size:2.82222px;font-family:'C64 User';-inkscape-font-specification:'C64 User';text-align:center;text-anchor:middle;fill:#ffffff;stroke-width:0.250001;stroke-dasharray:0.25, 0.25"
       d="M 4.9575144,73.617593 V 73.243651 H 4.6247037 V 72.869709 H 4.291893 v -1.869712 h 0.6656214 v 1.869712 h 0.6656213 v -1.869712 h 0.6656214 v 1.869712 H 5.9559464 v 0.373942 H 5.6231357 v 0.373942 z m 1.9968642,0 V 73.243651 H 6.6215679 V 71.37394 h 0.3328107 v -0.373943 h 1.3312428 v 0.373943 h 0.3328107 v 0.373942 H 7.9528107 V 71.37394 H 7.2871893 v 1.869711 h 0.6656214 v -0.373942 h 0.6656214 v 0.373942 H 8.2856214 v 0.373942 z m 1.9968642,0 V 71.747882 H 9.2840535 V 71.37394 h 0.3328106 v -0.373943 h 0.6656219 v 0.373943 h 0.332811 v 0.373942 h 0.33281 v 1.869711 H 10.282486 V 72.495766 H 9.6168641 v 1.121827 z M 9.6168641,72.121825 H 10.282486 V 71.747882 H 9.6168641 Z"
       id="path62"
       inkscape:label="vca"
       aria-label="VCA" />
    <path
       style="font-size:2.82222px;font-family:'C64 User';-inkscape-font-specification:'C64 User';text-align:center;text-anchor:middle;fill:#ffffff;stroke-width:0.250001;stroke-dasharray:0.25, 0.25"
       d="M 4.6247037,58.117596 V 57.743653 H 4.291893 v -0.373941 h 0.6656214 v 0.373941 H 5.6231357 V 56.995769 H 4.6247037 V 56.621827 H 4.291893 V 55.873943 H 4.6247037 V 55.5 h 1.3312427 v 0.373943 h 0.3328107 v 0.373941 H 5.6231357 V 55.873943 H 4.9575144 v 0.747884 h 0.998432 v 0.373942 h 0.3328107 v 0.747884 H 5.9559464 v 0.373943 z m 1.9968642,0 V 55.5 h 0.6656214 v 1.121827 H 7.9528107 V 55.5 h 0.6656214 v 2.617596 H 7.9528107 V 56.995769 H 7.2871893 v 1.121827 z m 2.3296749,0 V 55.5 h 1.6640542 v 0.373943 h 0.33281 v 0.747884 h -0.33281 v 0.373942 H 9.6168641 v 1.121827 z M 9.6168641,56.621827 H 10.282486 V 55.873943 H 9.6168641 Z"
       id="path63"
       inkscape:label="shp"
       aria-label="SHP" />
    <path
       style="font-size:2.11667px;font-family:'C64 User';-inkscape-font-specification:'C64 User';text-align:center;text-anchor:middle;fill:#ffffff;stroke-width:0.265;stroke-dasharray:0.264999, 0.264999"
       d="m 10.54,48.452087 v -1.852086 h 1.322919 v 0.264584 h 0.264584 v 0.529167 h -0.264584 v 0.264584 h -0.264584 v 0.264584 h 0.264584 v 0.264584 h 0.264584 v 0.264583 H 11.598335 V 48.187504 H 11.333752 V 47.92292 h -0.264584 v 0.529167 z m 0.529168,-1.058335 h 0.529167 v -0.529167 h -0.529167 z"
       id="path64"
       inkscape:label="rel"
       aria-label="R" />
    <path
       style="font-size:2.11667px;font-family:'C64 User';-inkscape-font-specification:'C64 User';text-align:center;text-anchor:middle;fill:#ffffff;stroke-width:0.265;stroke-dasharray:0.264999, 0.264999"
       d="M 3.4045836,40.452087 V 40.187504 H 3.1399998 V 39.92292 h 0.5291675 v 0.264584 H 4.1983348 V 39.658336 H 3.4045836 V 39.393752 H 3.1399998 v -0.529167 h 0.2645838 v -0.264584 h 1.0583349 v 0.264584 h 0.2645837 v 0.264584 H 4.1983348 V 38.864585 H 3.6691673 v 0.529167 h 0.7937512 v 0.264584 h 0.2645837 v 0.529168 H 4.4629185 v 0.264583 z"
       id="path65"
       inkscape:label="sus"
       aria-label="S" />
    <path
       style="font-size:2.11667px;font-family:'C64 User';-inkscape-font-specification:'C64 User';text-align:center;text-anchor:middle;fill:#ffffff;stroke-width:0.265;stroke-dasharray:0.264999, 0.264999"
       d="m 10.54,32.452087 v -1.852086 h 1.058335 v 0.264584 h 0.264584 v 0.264584 h 0.264584 v 0.793751 h -0.264584 v 0.264584 h -0.264584 v 0.264583 z m 0.529168,-0.264583 h 0.264584 V 31.92292 h 0.264583 v -0.793751 h -0.264583 v -0.264584 h -0.264584 z"
       id="path66"
       inkscape:label="dec"
       aria-label="D" />
    <path
       style="font-size:2.11667px;font-family:'C64 User';-inkscape-font-specification:'C64 User';text-align:center;text-anchor:middle;fill:#ffffff;stroke-width:0.265;stroke-dasharray:0.264999, 0.264999"
       d="M 3.1399998,24.252086 V 22.929168 H 3.4045836 V 22.664584 H 3.6691673 V 22.4 h 0.5291675 v 0.264584 h 0.2645837 v 0.264584 h 0.2645837 v 1.322918 H 4.1983348 V 23.458335 H 3.6691673 v 0.793751 z M 3.6691673,23.193751 H 4.1983348 V 22.929168 H 3.6691673 Z"
       id="path67"
       inkscape:label="att"
       aria-label="A" />
    <path
       style="font-size:2.46944px;font-family:'C64 User';-inkscape-font-specification:'C64 User';text-align:center;text-anchor:middle;fill:#ffffff;stroke-width:0.262154;stroke-dasharray:0.262153, 0.262153"
       d="m 7.472182,20.3 v 0.312032 H 6.2507273 v 0.624065 h 0.6107273 v 0.312032 H 6.2507273 v 0.624065 H 7.472182 v 0.312032 H 5.6399999 V 20.3 Z m 0.3053636,2.184226 V 20.3 H 8.388273 v 0.312032 h 0.3053637 v 0.312033 H 8.9990004 V 20.3 h 0.6107273 v 2.184226 H 8.9990004 V 21.860162 H 8.6936367 V 21.548129 H 8.388273 v 0.936097 z m 2.7482734,0 V 22.172194 H 10.220456 V 21.860162 H 9.9150918 V 20.3 h 0.6107272 v 1.560162 h 0.610728 V 20.3 h 0.610727 v 1.560162 H 11.44191 v 0.312032 h -0.305363 v 0.312032 z"
       id="path68"
       inkscape:label="env"
       aria-label="ENV" />
    <path
       style="font-size:2.82222px;font-family:'C64 User';-inkscape-font-specification:'C64 User';text-align:center;text-anchor:middle;fill:#ffffff;stroke-width:0.262154;stroke-dasharray:0.262153, 0.262153"
       d="M 4.4791129,10.296261 V 9.9396526 H 4.1301254 V 8.1566087 H 4.4791129 V 7.8 H 5.8750626 V 8.1566087 H 6.22405 V 8.5132175 H 5.5260751 V 8.1566087 H 4.8281003 V 9.9396526 H 5.5260751 V 9.2264349 H 5.1770877 V 8.8698262 H 6.22405 V 9.9396526 H 5.8750626 v 0.3566084 z m 2.7918995,0 V 8.1566087 H 6.5730375 V 7.8 H 8.6669621 V 8.1566087 H 7.9689872 V 10.296261 Z M 11.109875,7.8 V 8.1566087 H 9.7139245 V 8.8698262 H 10.4119 V 9.2264349 H 9.7139245 V 9.9396526 H 11.109875 V 10.296261 H 9.0159496 V 7.8 Z"
       id="path69"
       inkscape:label="gte"
       aria-label="GTE" />
  </g>
  <g
     inkscape:label="header footer"
     inkscape:groupmode="layer"
     id="layer1"
     style="display:inline"
     transform="translate(0,3.2560825e-4)">
    <rect
       style="display:inline;fill:#00000a;fill-opacity:1;stroke:#666699;stroke-width:0.399812;stroke-dasharray:none;stroke-dashoffset:0;stroke-opacity:1"
       id="rect1"
       width="8.5601883"
       height="3.8001883"
       x="0.79990602"
       y="124.19991"
       inkscape:label="footer rect"
       ry="1.2" />
    <rect
       style="display:inline;fill:#00000a;fill-opacity:1;stroke:#666699;stroke-width:0.399961;stroke-dasharray:none;stroke-dashoffset:0;stroke-opacity:1"
       id="rect2138"
       width="7.600039"
       height="5.4000387"
       x="1.2796549"
       y="0.99965489"
       ry="1.5000001"
       inkscape:label="header rect" />
    <text
       xml:space="preserve"
       style="font-style:normal;font-variant:normal;font-weight:normal;font-stretch:normal;font-size:2.82222px;font-family:'C64 User';-inkscape-font-specification:'C64 User';display:none;fill:#cccccc;fill-opacity:1;stroke-width:0.264583"
       x="1.5522223"
       y="127.01666"
       id="text10-8"
       inkscape:label="skz"><tspan
         sodipodi:role="line"
         id="tspan1-2"
         style="font-size:2.82222px;fill:#cccccc;fill-opacity:1;stroke-width:0.264583"
         x="0"
         y="0">skz</tspan></text>
    <path
       d="m 3.6688873,125.25278 v 0.35277 h -1.41111 v 0.35278 h 1.0583325 v 0.35278 h 0.3527775 v 0.35278 H 3.3161098 v 0.35277 H 1.5522223 v -0.35277 h 1.41111 v -0.35278 H 1.9049998 v -0.35278 H 1.5522223 v -0.35278 h 0.3527775 v -0.35277 z m 0.3527776,1.76388 V 124.9 h 0.705555 v 1.05833 h 0.3527775 v -0.35278 h 0.705555 v 0.35278 H 5.4327749 v 0.35278 h 0.3527775 v 0.35278 h 0.3527775 v 0.35277 h -0.705555 v -0.35277 H 5.0799974 v -0.35278 H 4.7272199 v 0.70555 z m 2.4694426,0 v -0.35277 H 6.843885 v -0.35278 h 0.3527775 v -0.35278 H 7.54944 v -0.35278 H 6.4911075 v -0.35277 h 2.116665 v 0.35277 H 8.254995 v 0.35278 H 7.9022175 v 0.35278 H 7.54944 v 0.35278 h 1.0583325 v 0.35277 z"
       id="text15-5"
       style="font-size:2.82222px;font-family:'C64 User';-inkscape-font-specification:'C64 User';fill:#cccccc;stroke-width:0.264583"
       inkscape:label="skz"
       aria-label="skz" />
    <text
       xml:space="preserve"
       style="font-style:normal;font-variant:normal;font-weight:normal;font-stretch:normal;font-size:2.82222px;font-family:'C64 User';-inkscape-font-specification:'C64 User';text-align:center;text-anchor:middle;display:none;fill:#e5e5e5;fill-opacity:1;stroke-width:0.258083"
       x="5.3843222"
       y="4.4907351"
       id="text1341"
       inkscape:label="en"
       transform="scale(0.97543485,1.0251838)"><tspan
         sodipodi:role="line"
         id="tspan1339"
         style="font-size:2.82222px;text-align:center;text-anchor:middle;fill:#e5e5e5;fill-opacity:1;stroke-width:0.258083"
         x="5.3843222"
         y="4.4907351">en</tspan></text>
    <path
       d="m 4.3259896,3.079625 h -0.705555 v 0.3527775 h 0.705555 z M 4.6787671,2.7268475 V 3.079625 H 5.0315447 V 3.78518 H 3.6204346 v 0.3527775 h 1.0583325 v 0.3527776 h -1.41111 V 4.1379575 H 2.9148796 V 3.079625 H 3.2676571 V 2.7268475 Z M 5.3843222,4.4907351 V 2.7268475 H 7.1482098 V 3.079625 H 7.5009873 V 4.4907351 H 6.7954322 V 3.079625 h -0.705555 v 1.4111101 z"
       id="text1"
       style="font-size:2.82222px;font-family:'C64 User';-inkscape-font-specification:'C64 User';text-align:center;text-anchor:middle;fill:#e5e5e5;stroke-width:0.258083"
       inkscape:label="en"
       transform="scale(0.97543485,1.0251838)"
       aria-label="en" />
  </g>
</svg>
