<?xml version="1.0" encoding="UTF-8" standalone="no"?>
<!-- Created with Inkscape (http://www.inkscape.org/) -->

<svg
   width="15.24mm"
   height="128.5mm"
   viewBox="0 0 15.24 128.5"
   version="1.1"
   id="svg5"
   inkscape:version="1.2.1 (9c6d41e410, 2022-07-14)"
   sodipodi:docname="HolderCompact.svg"
   xmlns:inkscape="http://www.inkscape.org/namespaces/inkscape"
   xmlns:sodipodi="http://sodipodi.sourceforge.net/DTD/sodipodi-0.dtd"
   xmlns="http://www.w3.org/2000/svg"
   xmlns:svg="http://www.w3.org/2000/svg">
  <sodipodi:namedview
     id="namedview7"
     pagecolor="#ffffff"
     bordercolor="#000000"
     borderopacity="0.25"
     inkscape:showpageshadow="2"
     inkscape:pageopacity="0.0"
     inkscape:pagecheckerboard="0"
     inkscape:deskcolor="#d1d1d1"
     inkscape:document-units="mm"
     showgrid="false"
     inkscape:zoom="1.0336252"
     inkscape:cx="4.3536092"
     inkscape:cy="111.2589"
     inkscape:window-width="1366"
     inkscape:window-height="705"
     inkscape:window-x="-8"
     inkscape:window-y="-8"
     inkscape:window-maximized="1"
     inkscape:current-layer="g20421"
     showguides="true" />
  <defs
     id="defs2">
    <rect
       x="22.799086"
       y="440.55881"
       width="6.0350523"
       height="22.128525"
       id="rect289" />
  </defs>
  <g
     inkscape:groupmode="layer"
     id="layer3"
     inkscape:label="Sfondo"
     style="fill:#f9f9f9">
    <rect
       style="fill:#00001f;stroke-width:0.162024;image-rendering:auto;fill-opacity:1"
       id="sfondo"
       width="15.24"
       height="128.5"
       x="0"
       y="6.6613381e-16"
       inkscape:label="background"
       ry="0"
       sodipodi:insensitive="true" />
  </g>
  <g
     inkscape:groupmode="layer"
     id="layer7"
     inkscape:label="stripes"
     transform="matrix(0.08333333,0,0,1,5.1083333,0.59166683)"
     style="display:inline;fill:#000000">
    <rect
       style="display:inline;fill:#0088ff;fill-opacity:1;stroke-width:0.40253"
       id="rect1316"
       width="60"
       height="0.40000001"
       x="3.0200005"
       y="5.0580001"
       inkscape:label="azzurro" />
    <rect
       style="display:inline;fill:#00cc55;fill-opacity:1;stroke-width:0.40253"
       id="rect1313"
       width="60"
       height="0.40000001"
       x="3.0200005"
       y="4.0580001"
       inkscape:label="verde" />
    <rect
       style="display:inline;fill:#eeee77;fill-opacity:1;stroke-width:0.40253"
       id="rect1310"
       width="60"
       height="0.40000001"
       x="3.0200005"
       y="3.0580001"
       inkscape:label="giallo" />
    <rect
       style="display:inline;fill:#ff7777;fill-opacity:1;stroke-width:0.40253"
       id="rect989"
       width="60"
       height="0.40000001"
       x="3.0200005"
       y="2.0580001"
       inkscape:label="rosa" />
    <rect
       style="display:inline;fill:#bd0000;fill-opacity:1;stroke-width:0.40253"
       id="rect1308"
       width="60"
       height="0.40000001"
       x="2.7204449"
       y="0.65833217"
       transform="translate(0.29955559,0.400001)"
       inkscape:label="rosso" />
  </g>
  <g
     inkscape:groupmode="layer"
     id="layer4"
     inkscape:label="Elementi"
     style="fill:#f9f9f9">
    <rect
       style="display:inline;fill:#484884;fill-opacity:1;stroke:#666699;stroke-width:0.4;stroke-dasharray:none;stroke-opacity:1"
       id="rect2634"
       width="12.445167"
       height="27.775625"
       x="1.3974165"
       y="95.093964"
       ry="2"
       inkscape:label="output" />
    <rect
       style="display:inline;fill:#000033;fill-opacity:1;stroke:#666699;stroke-width:0.4;stroke-dasharray:none;stroke-opacity:1"
       id="rect12722"
       width="12.288774"
       height="41.265549"
       x="1.4756136"
       y="52.317223"
       ry="2"
       inkscape:label="asr" />
    <path
       style="display:inline;fill:none;stroke:#ededed;stroke-width:0.4;stroke-dasharray:none;stroke-dashoffset:0;stroke-opacity:1"
       id="path11620"
       inkscape:label="circle 1"
       sodipodi:type="arc"
       sodipodi:cx="7.6199999"
       sodipodi:cy="88.726044"
       sodipodi:rx="4.4000001"
       sodipodi:ry="4.4000001"
       sodipodi:start="2.0943951"
       sodipodi:end="1.0471976"
       sodipodi:arc-type="arc"
       d="M 5.4199998,92.536556 A 4.4000001,4.4000001 0 0 1 3.3699262,87.58724 4.4000001,4.4000001 0 0 1 7.6199999,84.326044 4.4000001,4.4000001 0 0 1 11.870074,87.58724 4.4000001,4.4000001 0 0 1 9.8199997,92.536556"
       sodipodi:open="true" />
    <rect
       style="display:inline;fill:#f2f2f2;stroke:none;stroke-width:0.300964;stroke-dasharray:none"
       id="rect11622"
       width="0.59676164"
       height="0.91414613"
       x="7.32162"
       y="83.5"
       ry="0.083104193"
       inkscape:label="line circle 1" />
    <rect
       style="display:inline;fill:#000033;fill-opacity:1;stroke:#666699;stroke-width:0.4;stroke-dasharray:none;stroke-opacity:1"
       id="rect2037"
       width="12.356729"
       height="15.202564"
       x="1.4416369"
       y="35.698719"
       ry="2"
       inkscape:label="input" />
    <rect
       style="display:inline;fill:#000033;fill-opacity:1;stroke:#666699;stroke-width:0.4;stroke-dasharray:none;stroke-opacity:1"
       id="rect33317"
       width="12.429105"
       height="26.701492"
       x="1.405448"
       y="7.6204119"
       ry="2"
       inkscape:label="trg gate" />
    <path
       style="display:inline;fill:none;stroke:#ededed;stroke-width:0.4;stroke-dasharray:none;stroke-dashoffset:0;stroke-opacity:1"
       id="path13101"
       inkscape:label="circle 1"
       sodipodi:type="arc"
       sodipodi:cx="7.6199999"
       sodipodi:cy="61"
       sodipodi:rx="3.5000069"
       sodipodi:ry="3.5"
       sodipodi:start="2.268928"
       sodipodi:end="0.87266463"
       sodipodi:arc-type="arc"
       d="M 5.3702389,63.681156 A 3.5000069,3.5 0 0 1 4.3310692,59.80293 3.5000069,3.5 0 0 1 7.6199999,57.5 a 3.5000069,3.5 0 0 1 3.2889311,2.302929 3.5000069,3.5 0 0 1 -1.03917,3.878227"
       sodipodi:open="true" />
    <path
       style="display:inline;fill:none;stroke:#ececec;stroke-width:0.399999;stroke-dasharray:none;stroke-dashoffset:0;stroke-opacity:1"
       id="path3137"
       inkscape:label="circle speed"
       sodipodi:type="arc"
       sodipodi:cx="7.6199999"
       sodipodi:cy="74.564148"
       sodipodi:rx="5.5"
       sodipodi:ry="5.5"
       sodipodi:start="2.0943951"
       sodipodi:end="1.0471976"
       sodipodi:arc-type="arc"
       d="M 4.8699999,79.327288 A 5.5,5.5 0 0 1 2.3074079,73.140643 5.5,5.5 0 0 1 7.6199999,69.064148 5.5,5.5 0 0 1 12.932592,73.140643 5.5,5.5 0 0 1 10.37,79.327288"
       sodipodi:open="true" />
    <rect
       style="display:inline;fill:#f2f2f2;stroke:none;stroke-width:0.375045;stroke-dasharray:none"
       id="rect3139"
       width="0.62838537"
       height="0.95759505"
       x="7.3058071"
       y="68.135979"
       ry="0.087054096"
       inkscape:label="speed line circle 1" />
  </g>
  <g
     inkscape:groupmode="layer"
     id="layer5"
     inkscape:label="Etichette Testo"
     style="display:none">
    <text
       xml:space="preserve"
       style="font-style:normal;font-variant:normal;font-weight:normal;font-stretch:normal;font-size:2.82222px;font-family:'C64 User';-inkscape-font-specification:'C64 User';text-align:center;text-anchor:middle;fill:#ffffff;stroke:none;stroke-width:0.264999;stroke-dasharray:0.264999, 0.264999;stroke-dashoffset:0;stroke-opacity:1"
       x="7.7963886"
       y="112.174"
       id="text2513"
       inkscape:label="TRG out"><tspan
         sodipodi:role="line"
         id="tspan2511"
         style="font-size:2.82222px;text-align:center;text-anchor:middle;fill:#ffffff;stroke:none;stroke-width:0.265"
         x="7.7963886"
         y="112.174">TRG</tspan></text>
    <text
       xml:space="preserve"
       style="font-style:normal;font-variant:normal;font-weight:normal;font-stretch:normal;font-size:2.82222px;font-family:'C64 User';-inkscape-font-specification:'C64 User';text-align:center;text-anchor:middle;fill:#ffffff;stroke:none;stroke-width:0.264999;stroke-dasharray:0.264999, 0.264999;stroke-dashoffset:0;stroke-opacity:1"
       x="7.7963886"
       y="98.944855"
       id="text2535"
       inkscape:label="out"><tspan
         sodipodi:role="line"
         id="tspan2533"
         style="font-size:2.82222px;text-align:center;text-anchor:middle;fill:#ffffff;stroke:none;stroke-width:0.265"
         x="7.7963886"
         y="98.944855">OUT</tspan></text>
    <text
       xml:space="preserve"
       style="font-style:normal;font-variant:normal;font-weight:normal;font-stretch:normal;font-size:3.175px;font-family:'C64 User';-inkscape-font-specification:'C64 User';text-align:center;text-anchor:middle;display:inline;fill:#ffffff;stroke:none;stroke-width:0.264999;stroke-dasharray:0.264999, 0.264999;stroke-dashoffset:0;stroke-opacity:1"
       x="7.7963886"
       y="40.078129"
       id="text2507"
       inkscape:label="in"><tspan
         sodipodi:role="line"
         id="tspan2505"
         style="font-size:3.175px;text-align:center;text-anchor:middle;stroke:none;stroke-width:0.265"
         x="7.7963886"
         y="40.078129">IN</tspan></text>
    <text
       xml:space="preserve"
       style="font-style:normal;font-variant:normal;font-weight:normal;font-stretch:normal;font-size:2.82222px;font-family:'C64 User';-inkscape-font-specification:'C64 User';text-align:center;text-anchor:middle;display:inline;fill:#ffffff;stroke:none;stroke-width:0.264999;stroke-dasharray:0.264999, 0.264999;stroke-dashoffset:0;stroke-opacity:1"
       x="7.7963886"
       y="82.862541"
       id="text2543"
       inkscape:label="OFS"><tspan
         sodipodi:role="line"
         id="tspan2541"
         style="font-size:2.82222px;text-align:center;text-anchor:middle;stroke:none;stroke-width:0.265"
         x="7.7963886"
         y="82.862541">OFS</tspan></text>
    <text
       xml:space="preserve"
       style="font-style:normal;font-variant:normal;font-weight:normal;font-stretch:normal;font-size:2.82222px;font-family:'C64 User';-inkscape-font-specification:'C64 User';text-align:center;text-anchor:middle;display:inline;fill:#ffffff;stroke:none;stroke-width:0.264999;stroke-dasharray:0.264999, 0.264999;stroke-dashoffset:0;stroke-opacity:1"
       x="7.7963886"
       y="67.516701"
       id="text2539"
       inkscape:label="SCL"><tspan
         sodipodi:role="line"
         id="tspan2537"
         style="font-size:2.82222px;text-align:center;text-anchor:middle;stroke:none;stroke-width:0.265"
         x="7.7963886"
         y="67.516701">SCL</tspan></text>
    <text
       xml:space="preserve"
       style="font-style:normal;font-variant:normal;font-weight:normal;font-stretch:normal;font-size:2.82222px;font-family:'C64 User';-inkscape-font-specification:'C64 User';text-align:center;text-anchor:middle;display:inline;fill:#ffffff;stroke:none;stroke-width:0.264999;stroke-dasharray:0.264999, 0.264999;stroke-dashoffset:0;stroke-opacity:1"
       x="7.7963886"
       y="56.40419"
       id="text12684"
       inkscape:label="PRB"><tspan
         sodipodi:role="line"
         id="tspan12682"
         style="font-size:2.82222px;text-align:center;text-anchor:middle;stroke:none;stroke-width:0.265"
         x="7.7963886"
         y="56.40419">PRB</tspan></text>
    <text
       xml:space="preserve"
       style="font-style:normal;font-variant:normal;font-weight:normal;font-stretch:normal;font-size:3.175px;font-family:'C64 User';-inkscape-font-specification:'C64 User';text-align:center;text-anchor:middle;display:inline;fill:#ffffff;stroke:none;stroke-width:0.264999;stroke-dasharray:0.264999, 0.264999;stroke-dashoffset:0;stroke-opacity:1"
       x="7.7963886"
       y="23.778126"
       id="text2601"
       inkscape:label="TRG"><tspan
         sodipodi:role="line"
         id="tspan2599"
         style="font-size:3.175px;text-align:center;text-anchor:middle;stroke:none;stroke-width:0.265"
         x="7.7963891"
         y="23.778126">TRG</tspan></text>
    <text
       xml:space="preserve"
       style="font-style:normal;font-variant:normal;font-weight:normal;font-stretch:normal;font-size:2.82222px;font-family:'C64 User';-inkscape-font-specification:'C64 User';text-align:center;text-anchor:middle;display:inline;fill:#ffffff;stroke:none;stroke-width:0.264999;stroke-dasharray:0.264999, 0.264999;stroke-dashoffset:0;stroke-opacity:1"
       x="7.8184376"
       y="12.269444"
       id="text2545"
       inkscape:label="T&amp;H"><tspan
         sodipodi:role="line"
         id="tspan2543"
         style="font-size:2.82222px;text-align:center;text-anchor:middle;stroke:none;stroke-width:0.265"
         x="7.8184376"
         y="12.269444">T&amp;H</tspan></text>
  </g>
  <g
     inkscape:groupmode="layer"
     id="g12720"
     inkscape:label="Etichette Testo nere"
     style="display:inline;fill:#000000"
     transform="translate(0.2997988,0.3)">
    <g
       aria-label="TRG"
       id="text12690"
       style="font-size:2.82222px;font-family:'C64 User';-inkscape-font-specification:'C64 User';text-align:center;text-anchor:middle;fill:#000000;stroke-width:0.264999;stroke-dasharray:0.264999, 0.264999"
       inkscape:label="TRG out">
      <path
         d="m 4.7977798,112.174 v -2.11666 h -0.705555 v -0.35278 h 2.116665 v 0.35278 h -0.705555 v 2.11666 z"
         style="fill:#000000;stroke-width:0.265"
         id="path12722" />
      <path
         d="m 6.5616674,112.174 v -2.46944 h 1.7638875 v 0.35278 h 0.3527775 v 0.70555 H 8.3255549 v 0.35278 H 7.9727774 v 0.35278 h 0.3527775 v 0.35278 h 0.3527775 v 0.35277 h -0.705555 v -0.35277 H 7.6199999 v -0.35278 H 7.2672224 v 0.70555 z m 0.705555,-1.41111 h 0.705555 v -0.70555 h -0.705555 z"
         style="fill:#000000;stroke-width:0.265"
         id="path12724" />
      <path
         d="m 9.3838875,112.174 v -0.35277 H 9.03111 v -1.76389 h 0.3527775 v -0.35278 h 1.4111105 v 0.35278 h 0.352777 v 0.35278 H 10.44222 v -0.35278 H 9.736665 v 1.76389 h 0.705555 v -0.70556 h -0.352777 v -0.35278 h 1.058332 v 1.05834 h -0.352777 v 0.35277 z"
         style="fill:#000000;stroke-width:0.265"
         id="path12726" />
    </g>
    <g
       aria-label="OUT"
       id="text12694"
       style="font-size:2.82222px;font-family:'C64 User';-inkscape-font-specification:'C64 User';text-align:center;text-anchor:middle;fill:#000000;stroke-width:0.264999;stroke-dasharray:0.264999, 0.264999"
       inkscape:label="out">
      <path
         d="M 4.4450023,98.944855 V 98.592077 H 4.0922248 V 96.82819 h 0.3527775 v -0.352778 h 1.41111 v 0.352778 h 0.3527775 v 1.763887 H 5.8561123 v 0.352778 z m 0.3527775,-0.352778 h 0.705555 V 96.82819 h -0.705555 z"
         style="fill:#000000;stroke-width:0.265"
         id="path12729" />
      <path
         d="M 6.9144449,98.944855 V 98.592077 H 6.5616674 v -2.116665 h 0.705555 v 2.116665 h 0.705555 v -2.116665 h 0.705555 v 2.116665 H 8.3255549 v 0.352778 z"
         style="fill:#000000;stroke-width:0.265"
         id="path12731" />
      <path
         d="M 9.736665,98.944855 V 96.82819 H 9.03111 v -0.352778 h 2.116665 V 96.82819 H 10.44222 v 2.116665 z"
         style="fill:#000000;stroke-width:0.265"
         id="path12733" />
    </g>
    <g
       aria-label="IN"
       id="text12698"
       style="font-size:3.175px;font-family:'C64 User';-inkscape-font-specification:'C64 User';text-align:center;text-anchor:middle;display:inline;fill:#000000;stroke-width:0.264999;stroke-dasharray:0.264999, 0.264999"
       inkscape:label="in"
       transform="translate(0,-0.164299)">
      <path
         d="m 7.0026386,37.464299 v 0.396875 h -0.396875 v 1.984375 h 0.396875 v 0.396875 H 5.4151387 v -0.396875 h 0.396875 v -1.984375 h -0.396875 v -0.396875 z"
         style="fill:#000000;stroke-width:0.265"
         id="path12736" />
      <path
         d="m 7.3995137,40.242424 v -2.778125 h 0.7937499 v 0.396875 h 0.396875 v 0.396875 h 0.396875 v -0.79375 h 0.79375 v 2.778125 h -0.79375 v -0.79375 h -0.396875 v -0.396875 h -0.396875 v 1.190625 z"
         style="fill:#000000;stroke-width:0.265"
         id="path12738" />
    </g>
    <g
       aria-label="OFS"
       id="text12702"
       style="font-size:2.82222px;font-family:'C64 User';-inkscape-font-specification:'C64 User';text-align:center;text-anchor:middle;display:inline;fill:#000000;stroke-width:0.264999;stroke-dasharray:0.264999, 0.264999"
       inkscape:label="OFS"
       transform="translate(0,-1.5875)">
      <path
         d="M 4.4450023,84.450043 V 84.097265 H 4.0922248 V 82.333378 H 4.4450023 V 81.9806 h 1.41111 v 0.352778 h 0.3527775 v 1.763887 H 5.8561123 v 0.352778 z m 0.3527775,-0.352778 h 0.705555 v -1.763887 h -0.705555 z"
         style="fill:#000000;stroke-width:0.265"
         id="path12741" />
      <path
         d="M 6.5616674,84.450043 V 81.9806 h 2.116665 v 0.352778 h -1.41111 v 0.705555 h 0.705555 v 0.352777 h -0.705555 v 1.058333 z"
         style="fill:#000000;stroke-width:0.265"
         id="path12743" />
      <path
         d="M 9.3838875,84.450043 V 84.097265 H 9.03111 v -0.352777 h 0.705555 v 0.352777 H 10.44222 V 83.39171 H 9.3838875 V 83.038933 H 9.03111 V 82.333378 H 9.3838875 V 81.9806 h 1.4111105 v 0.352778 h 0.352777 v 0.352777 H 10.44222 V 82.333378 H 9.736665 v 0.705555 h 1.058333 v 0.352777 h 0.352777 v 0.705555 h -0.352777 v 0.352778 z"
         style="fill:#000000;stroke-width:0.265"
         id="path12745" />
    </g>
    <g
       aria-label="SCL"
       id="text12706"
       style="font-size:2.82222px;font-family:'C64 User';-inkscape-font-specification:'C64 User';text-align:center;text-anchor:middle;display:inline;fill:#000000;stroke-width:0.264999;stroke-dasharray:0.264999, 0.264999"
       inkscape:label="SCL"
       transform="translate(0,-1.5875)">
      <path
         d="M 4.4450023,69.104202 V 68.751425 H 4.0922248 v -0.352778 h 0.705555 v 0.352778 h 0.705555 V 68.04587 H 4.4450023 V 67.693092 H 4.0922248 V 66.987537 H 4.4450023 V 66.63476 h 1.41111 v 0.352777 h 0.3527775 v 0.352778 h -0.705555 v -0.352778 h -0.705555 v 0.705555 h 1.0583325 v 0.352778 h 0.3527775 v 0.705555 H 5.8561123 v 0.352777 z"
         style="fill:#000000;stroke-width:0.265"
         id="path12748" />
      <path
         d="M 6.9144449,69.104202 V 68.751425 H 6.5616674 V 66.987537 H 6.9144449 V 66.63476 h 1.41111 v 0.352777 h 0.3527775 v 0.352778 h -0.705555 v -0.352778 h -0.705555 v 1.763888 h 0.705555 v -0.352778 h 0.705555 v 0.352778 H 8.3255549 v 0.352777 z"
         style="fill:#000000;stroke-width:0.265"
         id="path12750" />
      <path
         d="m 9.736665,66.63476 v 2.116665 h 1.41111 v 0.352777 H 9.03111 V 66.63476 Z"
         style="fill:#000000;stroke-width:0.265"
         id="path12752" />
    </g>
    <g
       aria-label="PRB"
       id="text12710"
       style="font-size:2.82222px;font-family:'C64 User';-inkscape-font-specification:'C64 User';text-align:center;text-anchor:middle;display:inline;fill:#000000;stroke-width:0.264999;stroke-dasharray:0.264999, 0.264999"
       inkscape:label="PRB"
       transform="translate(0,-1.5875)">
      <path
         d="m 4.0922248,57.991692 v -2.469443 h 1.7638875 v 0.352778 h 0.3527775 v 0.705555 H 5.8561123 v 0.352777 H 4.7977798 v 1.058333 z m 0.705555,-1.41111 h 0.705555 v -0.705555 h -0.705555 z"
         style="fill:#000000;stroke-width:0.265"
         id="path12755" />
      <path
         d="m 6.5616674,57.991692 v -2.469443 h 1.7638875 v 0.352778 h 0.3527775 v 0.705555 H 8.3255549 v 0.352777 H 7.9727774 v 0.352778 h 0.3527775 v 0.352777 h 0.3527775 v 0.352778 H 7.9727774 V 57.638914 H 7.6199999 V 57.286137 H 7.2672224 v 0.705555 z m 0.705555,-1.41111 h 0.705555 v -0.705555 h -0.705555 z"
         style="fill:#000000;stroke-width:0.265"
         id="path12757" />
      <path
         d="m 9.03111,57.991692 v -2.469443 h 1.763888 v 0.352778 h 0.352777 v 0.705555 h -0.352777 v 0.352777 h 0.352777 v 0.705555 h -0.352777 v 0.352778 z M 9.736665,57.638914 H 10.44222 V 56.933359 H 9.736665 Z m 0,-1.058332 H 10.44222 V 55.875027 H 9.736665 Z"
         style="fill:#000000;stroke-width:0.265"
         id="path12759" />
    </g>
    <g
       aria-label="TRG"
       id="text12714"
       style="font-size:3.175px;font-family:'C64 User';-inkscape-font-specification:'C64 User';text-align:center;text-anchor:middle;display:inline;fill:#000000;stroke-width:0.264999;stroke-dasharray:0.264999, 0.264999"
       inkscape:label="TRG"
       transform="translate(0,-0.19131666)">
      <path
         d="m 4.4229512,23.969442 v -2.38125 h -0.79375 v -0.396875 h 2.38125 v 0.396875 h -0.79375 v 2.38125 z"
         style="fill:#000000;stroke-width:0.265"
         id="path12762" />
      <path
         d="m 6.4073262,23.969442 v -2.778125 h 1.984375 v 0.396875 h 0.396875 v 0.79375 h -0.396875 v 0.396875 h -0.396875 v 0.396875 h 0.396875 v 0.396875 h 0.396875 v 0.396875 h -0.79375 v -0.396875 h -0.396875 v -0.396875 h -0.396875 v 0.79375 z m 0.79375,-1.5875 h 0.79375 v -0.79375 h -0.79375 z"
         style="fill:#000000;stroke-width:0.265"
         id="path12764" />
      <path
         d="m 9.5823263,23.969442 v -0.396875 h -0.396875 v -1.984375 h 0.396875 v -0.396875 h 1.5874997 v 0.396875 h 0.396875 v 0.396875 h -0.79375 V 21.588192 H 9.9792013 v 1.984375 h 0.7937497 v -0.79375 h -0.396875 v -0.396875 h 1.190625 v 1.190625 h -0.396875 v 0.396875 z"
         style="fill:#000000;stroke-width:0.265"
         id="path12766" />
    </g>
    <g
       aria-label="T&amp;H"
       id="text12718"
       style="font-size:2.82222px;font-family:'C64 User';-inkscape-font-specification:'C64 User';text-align:center;text-anchor:middle;display:inline;fill:#000000;stroke-width:0.264999;stroke-dasharray:0.264999, 0.264999"
       inkscape:label="T&amp;H"
       transform="translate(0,-0.0112791)">
      <path
         d="M 4.6434376,12.280724 V 10.164057 H 3.937882 V 9.8112791 H 6.0545487 V 10.164057 H 5.3489931 v 2.116667 z"
         style="fill:#000000;stroke-width:0.265"
         id="path12769" />
      <path
         d="M 6.7601043,12.280724 V 11.927946 H 6.4073265 V 11.22239 H 6.7601043 V 10.516835 H 6.4073265 V 10.164057 H 6.7601043 V 9.8112791 h 1.4111111 v 0.3527779 h 0.3527778 v 0.352778 H 8.1712154 v 0.352777 H 7.8184376 V 11.22239 H 7.1128821 v 0.705556 H 7.8184376 V 11.22239 H 8.876771 v 0.352778 H 8.5239932 v 0.352778 H 8.876771 v 0.352778 z M 7.1128821,10.516835 H 7.8184376 V 10.164057 H 7.1128821 Z"
         style="fill:#000000;stroke-width:0.265"
         id="path12771" />
      <path
         d="M 9.229549,12.280724 V 9.8112791 H 9.9351045 V 10.869612 H 10.64066 V 9.8112791 h 0.705556 V 12.280724 H 10.64066 V 11.22239 H 9.9351045 v 1.058334 z"
         style="fill:#000000;stroke-width:0.265"
         id="path12773" />
    </g>
  </g>
  <g
     inkscape:groupmode="layer"
     id="g20421"
     inkscape:label="Etichette Testo path"
     style="display:inline">
    <g
       aria-label="TRG"
       id="g20365"
       style="font-size:2.82222px;font-family:'C64 User';-inkscape-font-specification:'C64 User';text-align:center;text-anchor:middle;fill:#ffffff;stroke-width:0.264999;stroke-dasharray:0.264999, 0.264999"
       inkscape:label="TRG out">
      <path
         d="m 4.7977798,112.174 v -2.11666 h -0.705555 v -0.35278 h 2.116665 v 0.35278 h -0.705555 v 2.11666 z"
         style="stroke-width:0.265"
         id="path20359" />
      <path
         d="m 6.5616674,112.174 v -2.46944 h 1.7638875 v 0.35278 h 0.3527775 v 0.70555 H 8.3255549 v 0.35278 H 7.9727774 v 0.35278 h 0.3527775 v 0.35278 h 0.3527775 v 0.35277 h -0.705555 v -0.35277 H 7.6199999 v -0.35278 H 7.2672224 v 0.70555 z m 0.705555,-1.41111 h 0.705555 v -0.70555 h -0.705555 z"
         style="stroke-width:0.265"
         id="path20361" />
      <path
         d="m 9.3838875,112.174 v -0.35277 H 9.03111 v -1.76389 h 0.3527775 v -0.35278 h 1.4111105 v 0.35278 h 0.352777 v 0.35278 H 10.44222 v -0.35278 H 9.736665 v 1.76389 h 0.705555 v -0.70556 h -0.352777 v -0.35278 h 1.058332 v 1.05834 h -0.352777 v 0.35277 z"
         style="stroke-width:0.265"
         id="path20363" />
    </g>
    <g
       aria-label="OUT"
       id="g20373"
       style="font-size:2.82222px;font-family:'C64 User';-inkscape-font-specification:'C64 User';text-align:center;text-anchor:middle;fill:#ffffff;stroke-width:0.264999;stroke-dasharray:0.264999, 0.264999"
       inkscape:label="out">
      <path
         d="M 4.4450023,98.944855 V 98.592077 H 4.0922248 V 96.82819 h 0.3527775 v -0.352778 h 1.41111 v 0.352778 h 0.3527775 v 1.763887 H 5.8561123 v 0.352778 z m 0.3527775,-0.352778 h 0.705555 V 96.82819 h -0.705555 z"
         style="stroke-width:0.265"
         id="path20367" />
      <path
         d="M 6.9144449,98.944855 V 98.592077 H 6.5616674 v -2.116665 h 0.705555 v 2.116665 h 0.705555 v -2.116665 h 0.705555 v 2.116665 H 8.3255549 v 0.352778 z"
         style="stroke-width:0.265"
         id="path20369" />
      <path
         d="M 9.736665,98.944855 V 96.82819 H 9.03111 v -0.352778 h 2.116665 V 96.82819 H 10.44222 v 2.116665 z"
         style="stroke-width:0.265"
         id="path20371" />
    </g>
    <g
       aria-label="IN"
       id="g20379"
       style="font-size:3.175px;font-family:'C64 User';-inkscape-font-specification:'C64 User';text-align:center;text-anchor:middle;display:inline;fill:#ffffff;stroke-width:0.264999;stroke-dasharray:0.264999, 0.264999"
       inkscape:label="in"
       transform="translate(0,-0.164299)">
      <path
         d="m 7.0026386,37.464299 v 0.396875 h -0.396875 v 1.984375 h 0.396875 v 0.396875 H 5.4151387 v -0.396875 h 0.396875 v -1.984375 h -0.396875 v -0.396875 z"
         style="stroke-width:0.265"
         id="path20375" />
      <path
         d="m 7.3995137,40.242424 v -2.778125 h 0.7937499 v 0.396875 h 0.396875 v 0.396875 h 0.396875 v -0.79375 h 0.79375 v 2.778125 h -0.79375 v -0.79375 h -0.396875 v -0.396875 h -0.396875 v 1.190625 z"
         style="stroke-width:0.265"
         id="path20377" />
    </g>
    <g
       aria-label="OFS"
       id="g20387"
       style="font-size:2.82222px;font-family:'C64 User';-inkscape-font-specification:'C64 User';text-align:center;text-anchor:middle;display:inline;fill:#ffffff;stroke-width:0.264999;stroke-dasharray:0.264999, 0.264999"
       inkscape:label="OFS"
       transform="translate(0,-1.5875)">
      <path
         d="M 4.4450023,84.450043 V 84.097265 H 4.0922248 V 82.333378 H 4.4450023 V 81.9806 h 1.41111 v 0.352778 h 0.3527775 v 1.763887 H 5.8561123 v 0.352778 z m 0.3527775,-0.352778 h 0.705555 v -1.763887 h -0.705555 z"
         style="stroke-width:0.265"
         id="path20381" />
      <path
         d="M 6.5616674,84.450043 V 81.9806 h 2.116665 v 0.352778 h -1.41111 v 0.705555 h 0.705555 v 0.352777 h -0.705555 v 1.058333 z"
         style="stroke-width:0.265"
         id="path20383" />
      <path
         d="M 9.3838875,84.450043 V 84.097265 H 9.03111 v -0.352777 h 0.705555 v 0.352777 H 10.44222 V 83.39171 H 9.3838875 V 83.038933 H 9.03111 V 82.333378 H 9.3838875 V 81.9806 h 1.4111105 v 0.352778 h 0.352777 v 0.352777 H 10.44222 V 82.333378 H 9.736665 v 0.705555 h 1.058333 v 0.352777 h 0.352777 v 0.705555 h -0.352777 v 0.352778 z"
         style="stroke-width:0.265"
         id="path20385" />
    </g>
    <g
       aria-label="SCL"
       id="g20395"
       style="font-size:2.82222px;font-family:'C64 User';-inkscape-font-specification:'C64 User';text-align:center;text-anchor:middle;display:inline;fill:#ffffff;stroke-width:0.264999;stroke-dasharray:0.264999, 0.264999"
       inkscape:label="SCL"
       transform="translate(0,-1.5875)">
      <path
         d="M 4.4450023,69.104202 V 68.751425 H 4.0922248 v -0.352778 h 0.705555 v 0.352778 h 0.705555 V 68.04587 H 4.4450023 V 67.693092 H 4.0922248 V 66.987537 H 4.4450023 V 66.63476 h 1.41111 v 0.352777 h 0.3527775 v 0.352778 h -0.705555 v -0.352778 h -0.705555 v 0.705555 h 1.0583325 v 0.352778 h 0.3527775 v 0.705555 H 5.8561123 v 0.352777 z"
         style="stroke-width:0.265"
         id="path20389" />
      <path
         d="M 6.9144449,69.104202 V 68.751425 H 6.5616674 V 66.987537 H 6.9144449 V 66.63476 h 1.41111 v 0.352777 h 0.3527775 v 0.352778 h -0.705555 v -0.352778 h -0.705555 v 1.763888 h 0.705555 v -0.352778 h 0.705555 v 0.352778 H 8.3255549 v 0.352777 z"
         style="stroke-width:0.265"
         id="path20391" />
      <path
         d="m 9.736665,66.63476 v 2.116665 h 1.41111 v 0.352777 H 9.03111 V 66.63476 Z"
         style="stroke-width:0.265"
         id="path20393" />
    </g>
    <g
       aria-label="PRB"
       id="g20403"
       style="font-size:2.82222px;font-family:'C64 User';-inkscape-font-specification:'C64 User';text-align:center;text-anchor:middle;display:inline;fill:#ffffff;stroke-width:0.264999;stroke-dasharray:0.264999, 0.264999"
       inkscape:label="PRB"
       transform="translate(0,-1.5875)">
      <path
         d="m 4.0922248,57.991692 v -2.469443 h 1.7638875 v 0.352778 h 0.3527775 v 0.705555 H 5.8561123 v 0.352777 H 4.7977798 v 1.058333 z m 0.705555,-1.41111 h 0.705555 v -0.705555 h -0.705555 z"
         style="stroke-width:0.265"
         id="path20397" />
      <path
         d="m 6.5616674,57.991692 v -2.469443 h 1.7638875 v 0.352778 h 0.3527775 v 0.705555 H 8.3255549 v 0.352777 H 7.9727774 v 0.352778 h 0.3527775 v 0.352777 h 0.3527775 v 0.352778 H 7.9727774 V 57.638914 H 7.6199999 V 57.286137 H 7.2672224 v 0.705555 z m 0.705555,-1.41111 h 0.705555 v -0.705555 h -0.705555 z"
         style="stroke-width:0.265"
         id="path20399" />
      <path
         d="m 9.03111,57.991692 v -2.469443 h 1.763888 v 0.352778 h 0.352777 v 0.705555 h -0.352777 v 0.352777 h 0.352777 v 0.705555 h -0.352777 v 0.352778 z M 9.736665,57.638914 H 10.44222 V 56.933359 H 9.736665 Z m 0,-1.058332 H 10.44222 V 55.875027 H 9.736665 Z"
         style="stroke-width:0.265"
         id="path20401" />
    </g>
    <g
       aria-label="TRG"
       id="g20411"
       style="font-size:3.175px;font-family:'C64 User';-inkscape-font-specification:'C64 User';text-align:center;text-anchor:middle;display:inline;fill:#ffffff;stroke-width:0.264999;stroke-dasharray:0.264999, 0.264999"
       inkscape:label="TRG"
       transform="translate(0,-0.19131666)">
      <path
         d="m 4.4229512,23.969442 v -2.38125 h -0.79375 v -0.396875 h 2.38125 v 0.396875 h -0.79375 v 2.38125 z"
         style="stroke-width:0.265"
         id="path20405" />
      <path
         d="m 6.4073262,23.969442 v -2.778125 h 1.984375 v 0.396875 h 0.396875 v 0.79375 h -0.396875 v 0.396875 h -0.396875 v 0.396875 h 0.396875 v 0.396875 h 0.396875 v 0.396875 h -0.79375 v -0.396875 h -0.396875 v -0.396875 h -0.396875 v 0.79375 z m 0.79375,-1.5875 h 0.79375 v -0.79375 h -0.79375 z"
         style="stroke-width:0.265"
         id="path20407" />
      <path
         d="m 9.5823263,23.969442 v -0.396875 h -0.396875 v -1.984375 h 0.396875 v -0.396875 h 1.5874997 v 0.396875 h 0.396875 v 0.396875 h -0.79375 V 21.588192 H 9.9792013 v 1.984375 h 0.7937497 v -0.79375 h -0.396875 v -0.396875 h 1.190625 v 1.190625 h -0.396875 v 0.396875 z"
         style="stroke-width:0.265"
         id="path20409" />
    </g>
    <g
       aria-label="T&amp;H"
       id="g20419"
       style="font-size:2.82222px;font-family:'C64 User';-inkscape-font-specification:'C64 User';text-align:center;text-anchor:middle;display:inline;fill:#ffffff;stroke-width:0.264999;stroke-dasharray:0.264999, 0.264999"
       inkscape:label="T&amp;H"
       transform="translate(0,-0.0112791)">
      <path
         d="M 4.6434376,12.280724 V 10.164057 H 3.937882 V 9.8112791 H 6.0545487 V 10.164057 H 5.3489931 v 2.116667 z"
         style="stroke-width:0.265"
         id="path20413" />
      <path
         d="M 6.7601043,12.280724 V 11.927946 H 6.4073265 V 11.22239 H 6.7601043 V 10.516835 H 6.4073265 V 10.164057 H 6.7601043 V 9.8112791 h 1.4111111 v 0.3527779 h 0.3527778 v 0.352778 H 8.1712154 v 0.352777 H 7.8184376 V 11.22239 H 7.1128821 v 0.705556 H 7.8184376 V 11.22239 H 8.876771 v 0.352778 H 8.5239932 v 0.352778 H 8.876771 v 0.352778 z M 7.1128821,10.516835 H 7.8184376 V 10.164057 H 7.1128821 Z"
         style="stroke-width:0.265"
         id="path20415" />
      <path
         d="M 9.229549,12.280724 V 9.8112791 H 9.9351045 V 10.869612 H 10.64066 V 9.8112791 h 0.705556 V 12.280724 H 10.64066 V 11.22239 H 9.9351045 v 1.058334 z"
         style="stroke-width:0.265"
         id="path20417" />
    </g>
  </g>
  <g
     inkscape:label="header footer"
     inkscape:groupmode="layer"
     id="layer1"
     style="display:inline">
    <rect
       style="display:inline;fill:#00000a;fill-opacity:1;stroke:#666699;stroke-width:0.4;stroke-dasharray:none;stroke-dashoffset:0;stroke-opacity:1"
       id="rect2138"
       width="7.4012656"
       height="5.3881006"
       x="6.469851"
       y="1.135118"
       ry="1.5"
       inkscape:label="header rect" />
    <rect
       style="display:inline;fill:#00000a;fill-opacity:1;stroke:#666699;stroke-width:0.4;stroke-dasharray:none;stroke-dashoffset:0;stroke-opacity:1"
       id="rect1447-8"
       width="8.386981"
       height="3.8484273"
       x="1.3319837"
       y="124.21705"
       inkscape:label="footer rect"
       ry="1.2" />
    <text
       xml:space="preserve"
       style="font-style:normal;font-variant:normal;font-weight:normal;font-stretch:normal;font-size:2.82222px;font-family:'C64 User';-inkscape-font-specification:'C64 User';display:none;fill:#cccccc;fill-opacity:1;stroke-width:0.264583"
       x="1.6235188"
       y="127.19959"
       id="text183"
       inkscape:label="sickozell"><tspan
         sodipodi:role="line"
         id="tspan181"
         style="font-size:2.82222px;fill:#cccccc;fill-opacity:1;stroke-width:0.264583"
         x="1.6235188"
         y="127.19959">skz</tspan></text>
    <g
       aria-label="skz"
       id="text24111"
       style="font-size:2.82222px;font-family:'C64 User';-inkscape-font-specification:'C64 User';display:inline;fill:#cccccc;stroke-width:0.264583"
       inkscape:label="sickozell"
       transform="translate(0.37418024)">
      <path
         d="m 3.7401839,125.43571 v 0.35277 H 2.3290738 v 0.35278 h 1.0583326 v 0.35278 h 0.3527775 v 0.35278 H 3.3874064 v 0.35277 H 1.6235188 v -0.35277 h 1.4111101 v -0.35278 H 1.9762963 v -0.35278 H 1.6235188 v -0.35278 h 0.3527775 v -0.35277 z"
         id="path24113" />
      <path
         d="m 4.0929614,127.19959 v -2.11666 h 0.7055551 v 1.05833 H 5.151294 v -0.35278 h 0.705555 v 0.35278 H 5.5040715 v 0.35278 H 5.856849 v 0.35278 h 0.3527775 v 0.35277 h -0.705555 v -0.35277 H 5.151294 v -0.35278 H 4.7985165 v 0.70555 z"
         id="path24115" />
      <path
         d="m 6.562404,127.19959 v -0.35277 h 0.3527775 v -0.35278 h 0.3527776 v -0.35278 h 0.3527775 v -0.35278 H 6.562404 v -0.35277 h 2.1166651 v 0.35277 H 8.3262916 v 0.35278 H 7.9735141 v 0.35278 H 7.6207366 v 0.35278 h 1.0583325 v 0.35277 z"
         id="path24117" />
    </g>
    <text
       xml:space="preserve"
       style="display:none;font-style:normal;font-variant:normal;font-weight:normal;font-stretch:normal;font-size:3.175px;font-family:'C64 User';-inkscape-font-specification:'C64 User';text-align:center;text-anchor:middle;fill:#e5e5e5;fill-opacity:1;stroke-width:0.258083"
       x="10.625052"
       y="5.021625"
       id="text1341"
       inkscape:label="holder"
       transform="scale(0.97543485,1.0251838)"><tspan
         sodipodi:role="line"
         id="tspan1339"
         style="font-size:3.175px;text-align:center;text-anchor:middle;fill:#e5e5e5;fill-opacity:1;stroke-width:0.258083"
         x="10.625052"
         y="5.021625">hd</tspan></text>
    <g
       aria-label="hd"
       transform="scale(0.97543484,1.0251838)"
       id="text2647"
       style="font-size:3.175px;font-family:'C64 User';-inkscape-font-specification:'C64 User';text-align:center;text-anchor:middle;display:inline;fill:#e5e5e5;stroke-width:0.258083"
       inkscape:label="holder">
      <path
         d="M 7.8469275,5.021625 V 2.6403751 h 0.79375 v 0.79375 h 1.190625 v 0.396875 H 10.228177 V 5.021625 H 9.4344275 V 3.8310001 h -0.79375 V 5.021625 Z"
         id="path2649" />
      <path
         d="M 11.021928,5.021625 V 4.62475 H 10.625053 V 3.8310001 h 0.396875 v -0.396875 h 1.190625 v -0.79375 h 0.79375 V 5.021625 Z M 11.418803,4.62475 h 0.79375 V 3.8310001 h -0.79375 z"
         id="path2651" />
    </g>
  </g>
</svg>
