<?xml version="1.0" encoding="UTF-8" standalone="no"?>
<!-- Created with Inkscape (http://www.inkscape.org/) -->

<svg
   width="25.4mm"
   height="128.5mm"
   viewBox="0 0 25.4 128.5"
   version="1.1"
   id="svg5"
   inkscape:version="1.4 (86a8ad7, 2024-10-11)"
   sodipodi:docname="RandMod7Compact.svg"
   xmlns:inkscape="http://www.inkscape.org/namespaces/inkscape"
   xmlns:sodipodi="http://sodipodi.sourceforge.net/DTD/sodipodi-0.dtd"
   xmlns="http://www.w3.org/2000/svg"
   xmlns:svg="http://www.w3.org/2000/svg">
  <sodipodi:namedview
     id="namedview7"
     pagecolor="#ffffff"
     bordercolor="#000000"
     borderopacity="0.25"
     inkscape:showpageshadow="2"
     inkscape:pageopacity="0.0"
     inkscape:pagecheckerboard="0"
     inkscape:deskcolor="#d1d1d1"
     inkscape:document-units="mm"
     showgrid="false"
     inkscape:zoom="2.2859962"
     inkscape:cx="-62.554785"
     inkscape:cy="53.149695"
     inkscape:window-width="1920"
     inkscape:window-height="1017"
     inkscape:window-x="-8"
     inkscape:window-y="-8"
     inkscape:window-maximized="1"
     inkscape:current-layer="layer1"
     showguides="true" />
  <defs
     id="defs2">
    <rect
       x="22.799086"
       y="440.55881"
       width="6.0350523"
       height="22.128525"
       id="rect289" />
  </defs>
  <g
     inkscape:groupmode="layer"
     id="layer3"
     inkscape:label="sfondo">
    <rect
       style="display:inline;fill:#00001f;fill-opacity:1;stroke-width:0.209172;image-rendering:auto"
       id="sfondo"
       width="25.4"
       height="128.5"
       x="0"
       y="6.6613381e-16"
       inkscape:label="background"
       ry="0"
       sodipodi:insensitive="true" />
  </g>
  <g
     inkscape:groupmode="layer"
     id="layer7"
     inkscape:label="stripes"
     transform="matrix(0.67113748,0,0,1,-3.0507438,0.59166683)"
     style="display:inline;fill:#000000;stroke:none">
    <rect
       style="display:inline;fill:#0088ff;fill-opacity:1;stroke-width:0.160661"
       id="rect1316"
       width="9.5582113"
       height="0.40000001"
       x="13.176806"
       y="5.0580001"
       inkscape:label="azzurro" />
    <rect
       style="display:inline;fill:#00cc55;fill-opacity:1;stroke-width:0.160661"
       id="rect1313"
       width="9.5582113"
       height="0.40000001"
       x="13.176806"
       y="4.0580001"
       inkscape:label="verde" />
    <rect
       style="display:inline;fill:#eeee77;fill-opacity:1;stroke-width:0.160661"
       id="rect1310"
       width="9.5582113"
       height="0.40000001"
       x="13.176806"
       y="3.0580001"
       inkscape:label="giallo" />
    <rect
       style="display:inline;fill:#ff7777;fill-opacity:1;stroke-width:0.160661"
       id="rect989"
       width="9.5582113"
       height="0.40000001"
       x="13.176806"
       y="2.0580001"
       inkscape:label="rosa" />
    <rect
       style="display:inline;fill:#bd0000;fill-opacity:1;stroke-width:0.160661"
       id="rect1308"
       width="9.5582113"
       height="0.40000001"
       x="13.176806"
       y="1.0583332"
       inkscape:label="rosso" />
  </g>
  <g
     inkscape:groupmode="layer"
     id="g7864"
     inkscape:label="stripes copy"
     transform="matrix(0.51764707,0,0,0.77278577,0.10719488,123.58213)"
     style="display:inline;fill:#000000;stroke:none">
    <rect
       style="display:inline;fill:#0088ff;fill-opacity:1;stroke:none;stroke-width:0.207047"
       id="rect7854"
       width="15.8745"
       height="0.40000001"
       x="21.104595"
       y="5.0580106"
       inkscape:label="azzurro" />
    <rect
       style="display:inline;fill:#00cc55;fill-opacity:1;stroke:none;stroke-width:0.207047"
       id="rect7856"
       width="15.8745"
       height="0.40000001"
       x="21.104595"
       y="4.0580068"
       inkscape:label="verde" />
    <rect
       style="display:inline;fill:#eeee77;fill-opacity:1;stroke:none;stroke-width:0.207047"
       id="rect7858"
       width="15.8745"
       height="0.40000001"
       x="21.104595"
       y="3.0580032"
       inkscape:label="giallo" />
    <rect
       style="display:inline;fill:#ff7777;fill-opacity:1;stroke:none;stroke-width:0.207047"
       id="rect7860"
       width="15.8745"
       height="0.40000001"
       x="21.104595"
       y="2.058008"
       inkscape:label="rosa" />
    <rect
       style="display:inline;fill:#bd0000;fill-opacity:1;stroke:none;stroke-width:0.207047"
       id="rect7862"
       width="15.8745"
       height="0.40000001"
       x="21.104595"
       y="1.0583398"
       inkscape:label="rosso" />
  </g>
  <g
     inkscape:groupmode="layer"
     id="layer4"
     inkscape:label="elementi"
     style="fill:#f9f9f9">
    <rect
       style="display:inline;fill:#000033;fill-opacity:1;stroke:#666699;stroke-width:0.499998;stroke-dasharray:none;stroke-opacity:1"
       id="rect12722"
       width="22.847277"
       height="75.166"
       x="1.208999"
       y="47.162998"
       ry="2"
       inkscape:label="asr rect" />
    <rect
       style="display:inline;fill:#000033;fill-opacity:1;stroke:#666699;stroke-width:0.5;stroke-dasharray:none;stroke-opacity:1"
       id="rect11308"
       width="23.053055"
       height="36.652588"
       x="1.2195489"
       y="8.6037531"
       ry="2.0113072"
       inkscape:label="mode rect" />
    <path
       style="display:inline;fill:none;fill-opacity:1;stroke:#ededed;stroke-width:0.4;stroke-dasharray:none;stroke-dashoffset:0;stroke-opacity:1"
       id="path10127"
       inkscape:label="circle 1"
       sodipodi:type="arc"
       sodipodi:cx="6.7002797"
       sodipodi:cy="57.052155"
       sodipodi:rx="3.5"
       sodipodi:ry="3.5"
       sodipodi:start="2.268928"
       sodipodi:end="0.87266463"
       sodipodi:arc-type="arc"
       d="M 4.4505232,59.73331 A 3.5,3.5 0 0 1 3.4113555,55.855084 3.5,3.5 0 0 1 6.7002797,53.552155 3.5,3.5 0 0 1 9.9892039,55.855084 3.5,3.5 0 0 1 8.9500363,59.73331"
       sodipodi:open="true" />
    <rect
       style="display:inline;fill:#f2f2f2;fill-opacity:1;stroke:none;stroke-width:0.375045;stroke-dasharray:none;stroke-opacity:1"
       id="rect10129"
       width="0.62838537"
       height="0.95759505"
       x="6.3860898"
       y="52.700253"
       ry="0.087054096"
       inkscape:label="line circle 1" />
    <path
       style="display:inline;fill:none;fill-opacity:1;stroke:#ededed;stroke-width:0.4;stroke-dasharray:none;stroke-dashoffset:0;stroke-opacity:1"
       id="path10131"
       inkscape:label="circle 1"
       sodipodi:type="arc"
       sodipodi:cx="18.200279"
       sodipodi:cy="33.052135"
       sodipodi:rx="3.5"
       sodipodi:ry="3.5"
       sodipodi:start="2.268928"
       sodipodi:end="0.87266463"
       sodipodi:arc-type="arc"
       d="m 15.950523,35.733291 a 3.5,3.5 0 0 1 -1.039168,-3.878226 3.5,3.5 0 0 1 3.288924,-2.30293 3.5,3.5 0 0 1 3.288924,2.30293 3.5,3.5 0 0 1 -1.039167,3.878226"
       sodipodi:open="true" />
    <rect
       style="display:inline;fill:#f2f2f2;fill-opacity:1;stroke:none;stroke-width:0.375045;stroke-dasharray:none;stroke-opacity:1"
       id="rect10133"
       width="0.62838537"
       height="0.95759505"
       x="17.886087"
       y="28.700243"
       ry="0.087054096"
       inkscape:label="line circle 1" />
    <path
       style="display:inline;fill:#000000;fill-opacity:1;stroke:#51517a;stroke-width:0.4;stroke-dasharray:none;stroke-opacity:1"
       d="m 14.687329,28.390061 1.062853,1.433634"
       id="path15693"
       sodipodi:nodetypes="cc" />
    <path
       style="display:inline;fill:#000000;fill-opacity:1;stroke:#51517a;stroke-width:0.4;stroke-dasharray:none;stroke-opacity:1"
       d="m 12.867525,34.752075 1.296408,-0.464379"
       id="path19081"
       sodipodi:nodetypes="cc" />
    <rect
       style="display:inline;fill:#474785;fill-opacity:1;stroke:#666699;stroke-width:0.499833;stroke-dasharray:none;stroke-opacity:1"
       id="rect29933"
       width="8.7133551"
       height="75.166168"
       x="15.337781"
       y="47.162918"
       ry="2"
       inkscape:label="asr rect" />
    <rect
       style="display:inline;fill:#474785;fill-opacity:1;stroke:none;stroke-width:0.434165;stroke-dasharray:none;stroke-opacity:1"
       id="rect29935"
       width="6.6170163"
       height="74.68"
       x="12.733311"
       y="47.41"
       inkscape:label="asr rect" />
    <path
       style="display:inline;fill:#000000;fill-opacity:1;stroke:#51517a;stroke-width:0.4;stroke-dasharray:none;stroke-opacity:1"
       d="m 10.800286,56.899998 1.935428,0"
       id="path1574"
       sodipodi:nodetypes="cc" />
    <path
       style="display:inline;fill:none;fill-opacity:1;stroke:#ededed;stroke-width:0.4;stroke-dasharray:none;stroke-dashoffset:0;stroke-opacity:1"
       id="path72353"
       inkscape:label="circle 1"
       sodipodi:type="arc"
       sodipodi:cx="6.7002797"
       sodipodi:cy="67.051903"
       sodipodi:rx="3.5"
       sodipodi:ry="3.5"
       sodipodi:start="2.268928"
       sodipodi:end="0.87266463"
       sodipodi:arc-type="arc"
       d="M 4.4505232,69.733058 A 3.5,3.5 0 0 1 3.4113555,65.854832 3.5,3.5 0 0 1 6.7002797,63.551903 3.5,3.5 0 0 1 9.9892039,65.854832 3.5,3.5 0 0 1 8.9500363,69.733058"
       sodipodi:open="true" />
    <rect
       style="display:inline;fill:#f2f2f2;fill-opacity:1;stroke:none;stroke-width:0.375045;stroke-dasharray:none;stroke-opacity:1"
       id="rect72355"
       width="0.62838537"
       height="0.95759505"
       x="6.3860898"
       y="62.700001"
       ry="0.087054096"
       inkscape:label="line circle 1" />
    <path
       style="display:inline;fill:none;fill-opacity:1;stroke:#ededed;stroke-width:0.4;stroke-dasharray:none;stroke-dashoffset:0;stroke-opacity:1"
       id="path72369"
       inkscape:label="circle 1"
       sodipodi:type="arc"
       sodipodi:cx="6.7002797"
       sodipodi:cy="77.051903"
       sodipodi:rx="3.5"
       sodipodi:ry="3.5"
       sodipodi:start="2.268928"
       sodipodi:end="0.87266463"
       sodipodi:arc-type="arc"
       d="M 4.4505232,79.733058 A 3.5,3.5 0 0 1 3.4113555,75.854832 3.5,3.5 0 0 1 6.7002797,73.551903 3.5,3.5 0 0 1 9.9892039,75.854832 3.5,3.5 0 0 1 8.9500363,79.733058"
       sodipodi:open="true" />
    <rect
       style="display:inline;fill:#f2f2f2;fill-opacity:1;stroke:none;stroke-width:0.375045;stroke-dasharray:none;stroke-opacity:1"
       id="rect72371"
       width="0.62838537"
       height="0.95759505"
       x="6.3860898"
       y="72.699997"
       ry="0.087054096"
       inkscape:label="line circle 1" />
    <path
       style="display:inline;fill:none;fill-opacity:1;stroke:#ededed;stroke-width:0.4;stroke-dasharray:none;stroke-dashoffset:0;stroke-opacity:1"
       id="path72385"
       inkscape:label="circle 1"
       sodipodi:type="arc"
       sodipodi:cx="6.7002797"
       sodipodi:cy="87.051903"
       sodipodi:rx="3.5"
       sodipodi:ry="3.5"
       sodipodi:start="2.268928"
       sodipodi:end="0.87266463"
       sodipodi:arc-type="arc"
       d="M 4.4505232,89.733058 A 3.5,3.5 0 0 1 3.4113555,85.854832 3.5,3.5 0 0 1 6.7002797,83.551903 3.5,3.5 0 0 1 9.9892039,85.854832 3.5,3.5 0 0 1 8.9500363,89.733058"
       sodipodi:open="true" />
    <rect
       style="display:inline;fill:#f2f2f2;fill-opacity:1;stroke:none;stroke-width:0.375045;stroke-dasharray:none;stroke-opacity:1"
       id="rect72387"
       width="0.62838537"
       height="0.95759505"
       x="6.3860898"
       y="82.699997"
       ry="0.087054096"
       inkscape:label="line circle 1" />
    <path
       style="display:inline;fill:none;fill-opacity:1;stroke:#ededed;stroke-width:0.4;stroke-dasharray:none;stroke-dashoffset:0;stroke-opacity:1"
       id="path72401"
       inkscape:label="circle 1"
       sodipodi:type="arc"
       sodipodi:cx="6.7002797"
       sodipodi:cy="97.051903"
       sodipodi:rx="3.5"
       sodipodi:ry="3.5"
       sodipodi:start="2.268928"
       sodipodi:end="0.87266463"
       sodipodi:arc-type="arc"
       d="M 4.4505232,99.733058 A 3.5,3.5 0 0 1 3.4113555,95.854832 3.5,3.5 0 0 1 6.7002797,93.551903 3.5,3.5 0 0 1 9.9892039,95.854832 3.5,3.5 0 0 1 8.9500363,99.733058"
       sodipodi:open="true" />
    <rect
       style="display:inline;fill:#f2f2f2;fill-opacity:1;stroke:none;stroke-width:0.375045;stroke-dasharray:none;stroke-opacity:1"
       id="rect72403"
       width="0.62838537"
       height="0.95759505"
       x="6.3860898"
       y="92.699997"
       ry="0.087054096"
       inkscape:label="line circle 1" />
    <path
       style="display:inline;fill:none;fill-opacity:1;stroke:#ededed;stroke-width:0.4;stroke-dasharray:none;stroke-dashoffset:0;stroke-opacity:1"
       id="path72417"
       inkscape:label="circle 1"
       sodipodi:type="arc"
       sodipodi:cx="6.7002797"
       sodipodi:cy="107.0519"
       sodipodi:rx="3.5"
       sodipodi:ry="3.5"
       sodipodi:start="2.268928"
       sodipodi:end="0.87266463"
       sodipodi:arc-type="arc"
       d="m 4.4505232,109.73306 a 3.5,3.5 0 0 1 -1.0391677,-3.87823 3.5,3.5 0 0 1 3.2889242,-2.30293 3.5,3.5 0 0 1 3.2889242,2.30293 3.5,3.5 0 0 1 -1.0391676,3.87823"
       sodipodi:open="true" />
    <rect
       style="display:inline;fill:#f2f2f2;fill-opacity:1;stroke:none;stroke-width:0.375045;stroke-dasharray:none;stroke-opacity:1"
       id="rect72419"
       width="0.62838537"
       height="0.95759505"
       x="6.3860898"
       y="102.7"
       ry="0.087054096"
       inkscape:label="line circle 1" />
    <path
       style="display:inline;fill:none;fill-opacity:1;stroke:#ededed;stroke-width:0.4;stroke-dasharray:none;stroke-dashoffset:0;stroke-opacity:1"
       id="path72433"
       inkscape:label="circle 1"
       sodipodi:type="arc"
       sodipodi:cx="6.7002797"
       sodipodi:cy="117.0519"
       sodipodi:rx="3.5"
       sodipodi:ry="3.5"
       sodipodi:start="2.268928"
       sodipodi:end="0.87266463"
       sodipodi:arc-type="arc"
       d="m 4.4505232,119.73306 a 3.5,3.5 0 0 1 -1.0391677,-3.87823 3.5,3.5 0 0 1 3.2889242,-2.30293 3.5,3.5 0 0 1 3.2889242,2.30293 3.5,3.5 0 0 1 -1.0391676,3.87823"
       sodipodi:open="true" />
    <rect
       style="display:inline;fill:#f2f2f2;fill-opacity:1;stroke:none;stroke-width:0.375045;stroke-dasharray:none;stroke-opacity:1"
       id="rect72435"
       width="0.62838537"
       height="0.95759505"
       x="6.3860898"
       y="112.7"
       ry="0.087054096"
       inkscape:label="line circle 1" />
    <path
       style="display:inline;fill:#000000;fill-opacity:1;stroke:#8d8dc3;stroke-width:0.4;stroke-dasharray:none;stroke-opacity:1"
       d="m 12.733,56.899998 1.720868,0"
       id="path56473"
       sodipodi:nodetypes="cc" />
    <path
       style="display:inline;fill:#000000;fill-opacity:1;stroke:#51517a;stroke-width:0.4;stroke-dasharray:none;stroke-opacity:1"
       d="m 10.800286,66.9 h 1.935428"
       id="path5952"
       sodipodi:nodetypes="cc" />
    <path
       style="display:inline;fill:#000000;fill-opacity:1;stroke:#8d8dc3;stroke-width:0.4;stroke-dasharray:none;stroke-opacity:1"
       d="m 12.733,66.9 h 1.720868"
       id="path5954"
       sodipodi:nodetypes="cc" />
    <path
       style="display:inline;fill:#000000;fill-opacity:1;stroke:#51517a;stroke-width:0.4;stroke-dasharray:none;stroke-opacity:1"
       d="m 10.800286,76.9 h 1.935428"
       id="path6682"
       sodipodi:nodetypes="cc" />
    <path
       style="display:inline;fill:#000000;fill-opacity:1;stroke:#8d8dc3;stroke-width:0.4;stroke-dasharray:none;stroke-opacity:1"
       d="m 12.733,76.9 h 1.720868"
       id="path6684"
       sodipodi:nodetypes="cc" />
    <path
       style="display:inline;fill:#000000;fill-opacity:1;stroke:#51517a;stroke-width:0.4;stroke-dasharray:none;stroke-opacity:1"
       d="m 10.800286,86.9 h 1.935428"
       id="path6686"
       sodipodi:nodetypes="cc" />
    <path
       style="display:inline;fill:#000000;fill-opacity:1;stroke:#8d8dc3;stroke-width:0.4;stroke-dasharray:none;stroke-opacity:1"
       d="m 12.733,86.9 h 1.720868"
       id="path6688"
       sodipodi:nodetypes="cc" />
    <path
       style="display:inline;fill:#000000;fill-opacity:1;stroke:#51517a;stroke-width:0.4;stroke-dasharray:none;stroke-opacity:1"
       d="m 10.800286,96.9 h 1.935428"
       id="path6690"
       sodipodi:nodetypes="cc" />
    <path
       style="display:inline;fill:#000000;fill-opacity:1;stroke:#8d8dc3;stroke-width:0.4;stroke-dasharray:none;stroke-opacity:1"
       d="m 12.733,96.9 h 1.720868"
       id="path6692"
       sodipodi:nodetypes="cc" />
    <path
       style="display:inline;fill:#000000;fill-opacity:1;stroke:#51517a;stroke-width:0.4;stroke-dasharray:none;stroke-opacity:1"
       d="m 10.800286,106.9 h 1.935428"
       id="path6694"
       sodipodi:nodetypes="cc" />
    <path
       style="display:inline;fill:#000000;fill-opacity:1;stroke:#8d8dc3;stroke-width:0.4;stroke-dasharray:none;stroke-opacity:1"
       d="m 12.733,106.9 h 1.720868"
       id="path6696"
       sodipodi:nodetypes="cc" />
    <path
       style="display:inline;fill:#000000;fill-opacity:1;stroke:#51517a;stroke-width:0.4;stroke-dasharray:none;stroke-opacity:1"
       d="m 10.800286,116.9 h 1.935428"
       id="path6698"
       sodipodi:nodetypes="cc" />
    <path
       style="display:inline;fill:#000000;fill-opacity:1;stroke:#8d8dc3;stroke-width:0.4;stroke-dasharray:none;stroke-opacity:1"
       d="m 12.733,116.9 1.311662,0"
       id="path6700"
       sodipodi:nodetypes="cc" />
    <path
       style="display:inline;fill:none;stroke:#ededed;stroke-width:0.4;stroke-dasharray:none;stroke-dashoffset:0;stroke-opacity:1"
       id="path10363"
       inkscape:label="circle MIX"
       sodipodi:type="arc"
       sodipodi:cx="10.400477"
       sodipodi:cy="22.115517"
       sodipodi:rx="7"
       sodipodi:ry="7"
       sodipodi:start="2.0943951"
       sodipodi:end="1.0471976"
       sodipodi:arc-type="arc"
       d="m 6.9004774,28.177694 a 7,7 0 0 1 -3.2614808,-7.873911 7,7 0 0 1 6.7614804,-5.188266 7,7 0 0 1 6.761481,5.188267 7,7 0 0 1 -3.261481,7.873911"
       sodipodi:open="true" />
  </g>
  <g
     inkscape:groupmode="layer"
     id="layer5"
     inkscape:label="etichette testo"
     style="display:none">
    <text
       xml:space="preserve"
       style="font-style:normal;font-variant:normal;font-weight:normal;font-stretch:normal;font-size:2.11667px;font-family:'C64 User';-inkscape-font-specification:'C64 User';text-align:center;text-anchor:middle;display:inline;fill:#ffffff;stroke:none;stroke-width:0.264999;stroke-dasharray:0.264999, 0.264999;stroke-dashoffset:0;stroke-opacity:1"
       x="22.589573"
       y="113.40366"
       id="text2083"
       inkscape:label="P"><tspan
         sodipodi:role="line"
         id="tspan2081"
         style="font-size:2.11667px;text-align:center;text-anchor:middle;stroke:none;stroke-width:0.265"
         x="22.589573"
         y="113.40366">P</tspan></text>
    <text
       xml:space="preserve"
       style="font-style:normal;font-variant:normal;font-weight:normal;font-stretch:normal;font-size:2.82222px;font-family:'C64 User';-inkscape-font-specification:'C64 User';text-align:center;text-anchor:middle;display:inline;fill:#ffffff;stroke:none;stroke-width:0.264999;stroke-dasharray:0.264999, 0.264999;stroke-dashoffset:0;stroke-opacity:1"
       x="18.767452"
       y="51.678123"
       id="text1570"
       inkscape:label="OUT"><tspan
         sodipodi:role="line"
         id="tspan1568"
         style="font-size:2.82222px;text-align:center;text-anchor:middle;stroke:none;stroke-width:0.265"
         x="18.767452"
         y="51.678123">OUT</tspan></text>
    <text
       xml:space="preserve"
       style="font-style:normal;font-variant:normal;font-weight:normal;font-stretch:normal;font-size:3.175px;font-family:'C64 User';-inkscape-font-specification:'C64 User';text-align:center;text-anchor:middle;display:inline;fill:#ffffff;stroke:none;stroke-width:0.264999;stroke-dasharray:0.264999, 0.264999;stroke-dashoffset:0;stroke-opacity:1"
       x="14.289062"
       y="43.381248"
       id="text893"
       inkscape:label="b"><tspan
         sodipodi:role="line"
         id="tspan891"
         style="font-size:3.175px;text-align:center;text-anchor:middle;stroke:none;stroke-width:0.265"
         x="14.289062"
         y="43.381248">b</tspan></text>
    <text
       xml:space="preserve"
       style="font-style:normal;font-variant:normal;font-weight:normal;font-stretch:normal;font-size:3.175px;font-family:'C64 User';-inkscape-font-specification:'C64 User';text-align:center;text-anchor:middle;display:inline;fill:#ffffff;stroke:none;stroke-width:0.264999;stroke-dasharray:0.264999, 0.264999;stroke-dashoffset:0;stroke-opacity:1"
       x="6.8987164"
       y="51.678123"
       id="text12427"
       inkscape:label="xRT"><tspan
         sodipodi:role="line"
         id="tspan12425"
         style="font-size:3.175px;text-align:center;text-anchor:middle;stroke:none;stroke-width:0.265"
         x="6.8987164"
         y="51.678123">x</tspan></text>
    <text
       xml:space="preserve"
       style="font-style:normal;font-variant:normal;font-weight:normal;font-stretch:normal;font-size:2.82222px;font-family:'C64 User';-inkscape-font-specification:'C64 User';text-align:center;text-anchor:middle;display:inline;fill:#ffffff;stroke:none;stroke-width:0.262153;stroke-dasharray:0.262153, 0.262153;stroke-dashoffset:0;stroke-opacity:1"
       x="12.909125"
       y="12.955562"
       id="text865"
       inkscape:label="RATE"
       transform="scale(0.98925647,1.0108602)"><tspan
         sodipodi:role="line"
         id="tspan863"
         style="font-size:2.82222px;text-align:center;text-anchor:middle;stroke:none;stroke-width:0.262154"
         x="12.909125"
         y="12.955562">RATE</tspan></text>
  </g>
  <g
     inkscape:groupmode="layer"
     id="g1023"
     inkscape:label="etichette testo nere"
     style="display:inline;fill:#000000"
     transform="translate(0.300346,0.29999965)">
    <g
       aria-label="P"
       id="text1005"
       style="font-size:2.11667px;font-family:'C64 User';-inkscape-font-specification:'C64 User';text-align:center;text-anchor:middle;display:inline;fill:#000000;stroke-width:0.264999;stroke-dasharray:0.264999, 0.264999"
       inkscape:label="P">
      <path
         d="m 21.66353,113.40366 v -1.85208 h 1.322919 v 0.26458 h 0.264583 v 0.52917 h -0.264583 v 0.26458 h -0.793752 v 0.79375 z m 0.529167,-1.05833 h 0.529168 v -0.52917 h -0.529168 z"
         style="fill:#000000;stroke-width:0.265"
         id="path1025" />
    </g>
    <g
       aria-label="OUT"
       id="text1009"
       style="font-size:2.82222px;font-family:'C64 User';-inkscape-font-specification:'C64 User';text-align:center;text-anchor:middle;display:inline;fill:#000000;stroke-width:0.264999;stroke-dasharray:0.264999, 0.264999"
       inkscape:label="OUT">
      <path
         d="m 15.416066,51.678123 v -0.352777 h -0.352778 v -1.763888 h 0.352778 v -0.352777 h 1.41111 v 0.352777 h 0.352777 v 1.763888 h -0.352777 v 0.352777 z m 0.352777,-0.352777 h 0.705555 v -1.763888 h -0.705555 z"
         style="fill:#000000;stroke-width:0.265"
         id="path1028" />
      <path
         d="m 17.885508,51.678123 v -0.352777 h -0.352777 v -2.116665 h 0.705555 v 2.116665 h 0.705555 v -2.116665 h 0.705555 v 2.116665 h -0.352777 v 0.352777 z"
         style="fill:#000000;stroke-width:0.265"
         id="path1030" />
      <path
         d="m 20.707729,51.678123 v -2.116665 h -0.705555 v -0.352777 h 2.116665 v 0.352777 h -0.705555 v 2.116665 z"
         style="fill:#000000;stroke-width:0.265"
         id="path1032" />
    </g>
    <g
       aria-label="b"
       id="text1013"
       style="font-size:3.175px;font-family:'C64 User';-inkscape-font-specification:'C64 User';text-align:center;text-anchor:middle;display:inline;fill:#000000;stroke-width:0.264999;stroke-dasharray:0.264999, 0.264999"
       inkscape:label="b"
       transform="translate(6.3320173,0.69896265)">
      <path
         d="m 7.3617374,42.285414 h 0.7937499 v -0.79375 H 7.3617374 Z m -0.79375,0.396875 v -2.38125 h 0.79375 v 0.79375 h 1.1906249 v 0.396875 h 0.396875 v 0.79375 h -0.396875 v 0.396875 z"
         style="fill:#000000;stroke-width:0.265"
         id="path1035" />
    </g>
    <g
       aria-label="x"
       id="text1017"
       style="font-size:3.175px;font-family:'C64 User';-inkscape-font-specification:'C64 User';text-align:center;text-anchor:middle;display:inline;fill:#000000;stroke-width:0.264999;stroke-dasharray:0.264999, 0.264999"
       inkscape:label="xRT">
      <path
         d="M 5.509654,51.678123 V 51.281248 H 5.906529 V 50.884373 H 6.303404 V 50.487498 H 5.906529 V 50.090623 H 5.509654 v -0.396874 h 0.79375 v 0.396874 h 0.7937499 v -0.396874 h 0.79375 v 0.396874 h -0.396875 v 0.396875 h -0.396875 v 0.396875 h 0.396875 v 0.396875 h 0.396875 v 0.396875 h -0.79375 V 51.281248 H 6.303404 v 0.396875 z"
         style="fill:#000000;stroke-width:0.265"
         id="path1038" />
    </g>
    <g
       aria-label="RATE"
       transform="scale(0.98925647,1.0108602)"
       id="text1021"
       style="font-size:2.82222px;font-family:'C64 User';-inkscape-font-specification:'C64 User';text-align:center;text-anchor:middle;display:inline;fill:#000000;stroke-width:0.262153;stroke-dasharray:0.262153, 0.262153"
       inkscape:label="RATE">
      <path
         d="m 7.9702402,12.955562 v -2.469443 h 1.7638875 v 0.352778 h 0.3527773 v 0.705555 H 9.7341277 v 0.352777 H 9.3813502 v 0.352778 h 0.3527775 v 0.352777 h 0.3527773 v 0.352778 H 9.3813502 V 12.602784 H 9.0285727 V 12.250007 H 8.6757952 v 0.705555 z m 0.705555,-1.41111 h 0.705555 v -0.705555 h -0.705555 z"
         style="fill:#000000;stroke-width:0.262154"
         id="path1041" />
      <path
         d="m 10.439683,12.955562 v -1.763888 h 0.352777 v -0.352777 h 0.352778 v -0.352778 h 0.705555 v 0.352778 h 0.352777 v 0.352777 h 0.352778 v 1.763888 h -0.705555 v -1.058333 h -0.705555 v 1.058333 z m 0.705555,-1.41111 h 0.705555 v -0.352778 h -0.705555 z"
         style="fill:#000000;stroke-width:0.262154"
         id="path1043" />
      <path
         d="m 13.61468,12.955562 v -2.116665 h -0.705555 v -0.352778 h 2.116665 v 0.352778 h -0.705555 v 2.116665 z"
         style="fill:#000000;stroke-width:0.262154"
         id="path1045" />
      <path
         d="m 17.495233,10.486119 v 0.352778 h -1.41111 v 0.705555 h 0.705555 v 0.352777 h -0.705555 v 0.705555 h 1.41111 v 0.352778 h -2.116665 v -2.469443 z"
         style="fill:#000000;stroke-width:0.262154"
         id="path1047" />
    </g>
  </g>
  <g
     inkscape:groupmode="layer"
     id="g1080"
     inkscape:label="etichette testo path"
     style="display:inline">
    <g
       aria-label="P"
       id="g1052"
       style="font-size:2.11667px;font-family:'C64 User';-inkscape-font-specification:'C64 User';text-align:center;text-anchor:middle;display:inline;fill:#ffffff;stroke-width:0.264999;stroke-dasharray:0.264999, 0.264999"
       inkscape:label="P">
      <path
         d="m 21.66353,113.40366 v -1.85208 h 1.322919 v 0.26458 h 0.264583 v 0.52917 h -0.264583 v 0.26458 h -0.793752 v 0.79375 z m 0.529167,-1.05833 h 0.529168 v -0.52917 h -0.529168 z"
         style="stroke-width:0.265"
         id="path1050" />
    </g>
    <g
       aria-label="OUT"
       id="g1060"
       style="font-size:2.82222px;font-family:'C64 User';-inkscape-font-specification:'C64 User';text-align:center;text-anchor:middle;display:inline;fill:#ffffff;stroke-width:0.264999;stroke-dasharray:0.264999, 0.264999"
       inkscape:label="OUT">
      <path
         d="m 15.416066,51.678123 v -0.352777 h -0.352778 v -1.763888 h 0.352778 v -0.352777 h 1.41111 v 0.352777 h 0.352777 v 1.763888 h -0.352777 v 0.352777 z m 0.352777,-0.352777 h 0.705555 v -1.763888 h -0.705555 z"
         style="stroke-width:0.265"
         id="path1054" />
      <path
         d="m 17.885508,51.678123 v -0.352777 h -0.352777 v -2.116665 h 0.705555 v 2.116665 h 0.705555 v -2.116665 h 0.705555 v 2.116665 h -0.352777 v 0.352777 z"
         style="stroke-width:0.265"
         id="path1056" />
      <path
         d="m 20.707729,51.678123 v -2.116665 h -0.705555 v -0.352777 h 2.116665 v 0.352777 h -0.705555 v 2.116665 z"
         style="stroke-width:0.265"
         id="path1058" />
    </g>
    <g
       aria-label="b"
       id="g1064"
       style="font-size:3.175px;font-family:'C64 User';-inkscape-font-specification:'C64 User';text-align:center;text-anchor:middle;display:inline;fill:#ffffff;stroke-width:0.264999;stroke-dasharray:0.264999, 0.264999"
       inkscape:label="b"
       transform="translate(6.3320173,0.69896265)">
      <path
         d="m 7.3617374,42.285414 h 0.7937499 v -0.79375 H 7.3617374 Z m -0.79375,0.396875 v -2.38125 h 0.79375 v 0.79375 h 1.1906249 v 0.396875 h 0.396875 v 0.79375 h -0.396875 v 0.396875 z"
         style="stroke-width:0.265"
         id="path1062" />
    </g>
    <g
       aria-label="x"
       id="g1068"
       style="font-size:3.175px;font-family:'C64 User';-inkscape-font-specification:'C64 User';text-align:center;text-anchor:middle;display:inline;fill:#ffffff;stroke-width:0.264999;stroke-dasharray:0.264999, 0.264999"
       inkscape:label="xRT">
      <path
         d="M 5.509654,51.678123 V 51.281248 H 5.906529 V 50.884373 H 6.303404 V 50.487498 H 5.906529 V 50.090623 H 5.509654 v -0.396874 h 0.79375 v 0.396874 h 0.7937499 v -0.396874 h 0.79375 v 0.396874 h -0.396875 v 0.396875 h -0.396875 v 0.396875 h 0.396875 v 0.396875 h 0.396875 v 0.396875 h -0.79375 V 51.281248 H 6.303404 v 0.396875 z"
         style="stroke-width:0.265"
         id="path1066" />
    </g>
    <g
       aria-label="RATE"
       transform="scale(0.98925647,1.0108602)"
       id="g1078"
       style="font-size:2.82222px;font-family:'C64 User';-inkscape-font-specification:'C64 User';text-align:center;text-anchor:middle;display:inline;fill:#ffffff;stroke-width:0.262153;stroke-dasharray:0.262153, 0.262153"
       inkscape:label="RATE">
      <path
         d="m 7.9702402,12.955562 v -2.469443 h 1.7638875 v 0.352778 h 0.3527773 v 0.705555 H 9.7341277 v 0.352777 H 9.3813502 v 0.352778 h 0.3527775 v 0.352777 h 0.3527773 v 0.352778 H 9.3813502 V 12.602784 H 9.0285727 V 12.250007 H 8.6757952 v 0.705555 z m 0.705555,-1.41111 h 0.705555 v -0.705555 h -0.705555 z"
         style="stroke-width:0.262154"
         id="path1070" />
      <path
         d="m 10.439683,12.955562 v -1.763888 h 0.352777 v -0.352777 h 0.352778 v -0.352778 h 0.705555 v 0.352778 h 0.352777 v 0.352777 h 0.352778 v 1.763888 h -0.705555 v -1.058333 h -0.705555 v 1.058333 z m 0.705555,-1.41111 h 0.705555 v -0.352778 h -0.705555 z"
         style="stroke-width:0.262154"
         id="path1072" />
      <path
         d="m 13.61468,12.955562 v -2.116665 h -0.705555 v -0.352778 h 2.116665 v 0.352778 h -0.705555 v 2.116665 z"
         style="stroke-width:0.262154"
         id="path1074" />
      <path
         d="m 17.495233,10.486119 v 0.352778 h -1.41111 v 0.705555 h 0.705555 v 0.352777 h -0.705555 v 0.705555 h 1.41111 v 0.352778 h -2.116665 v -2.469443 z"
         style="stroke-width:0.262154"
         id="path1076" />
    </g>
  </g>
  <g
     inkscape:label="header footer"
     inkscape:groupmode="layer"
     id="layer1"
     style="display:inline">
    <rect
       style="display:inline;fill:#00000a;fill-opacity:1;stroke:#666699;stroke-width:0.4;stroke-dasharray:none;stroke-dashoffset:0;stroke-opacity:1"
       id="rect2138"
       width="16.525663"
       height="5.229661"
       x="7.7969418"
       y="1.2143376"
       ry="1.2"
       inkscape:label="header rect"
       rx="1.2" />
    <rect
       style="display:inline;fill:#00000a;fill-opacity:1;stroke:#666699;stroke-width:0.381932;stroke-dasharray:none;stroke-dashoffset:0;stroke-opacity:1"
       id="rect1447-8-1"
       width="11.118068"
       height="3.8235898"
       x="1.149966"
       y="124.12997"
       inkscape:label="footer rect"
       ry="1.2056972" />
    <text
       xml:space="preserve"
       style="font-style:normal;font-variant:normal;font-weight:normal;font-stretch:normal;font-size:3.175px;font-family:'C64 User';-inkscape-font-specification:'C64 User';text-align:center;text-anchor:middle;display:none;fill:#ffffff;stroke-width:0.264583"
       x="16.258211"
       y="5.2182307"
       id="text1341"
       inkscape:label="rMod"><tspan
         sodipodi:role="line"
         id="tspan1339"
         style="font-size:3.175px;text-align:center;text-anchor:middle;fill:#ffffff;stroke-width:0.264583"
         x="16.258211"
         y="5.2182307">rMod7</tspan></text>
    <g
       aria-label="skz"
       id="text3096"
       style="font-size:3.175px;font-family:Arial;-inkscape-font-specification:Arial;text-align:center;text-orientation:upright;text-anchor:middle;display:inline;fill:#cccccc;stroke-width:0.4"
       inkscape:label="skz"
       transform="translate(-11.071001,-0.05782828)">
      <path
         d="m 16.1925,125.30583 v 0.39688 H 14.605 v 0.39687 h 1.190625 v 0.39688 H 16.1925 v 0.39687 h -0.396875 v 0.39688 H 13.81125 v -0.39688 h 1.5875 v -0.39687 h -1.190625 v -0.39688 H 13.81125 v -0.39687 h 0.396875 v -0.39688 z"
         style="font-family:'C64 User';-inkscape-font-specification:'C64 User'"
         id="path3100" />
      <path
         d="m 16.589375,127.29021 v -2.38125 h 0.79375 v 1.19062 H 17.78 v -0.39687 h 0.79375 v 0.39687 h -0.396875 v 0.39688 h 0.396875 v 0.39687 h 0.396875 v 0.39688 h -0.79375 v -0.39688 H 17.78 v -0.39687 h -0.396875 v 0.79375 z"
         style="font-family:'C64 User';-inkscape-font-specification:'C64 User'"
         id="path3102" />
      <path
         d="m 19.3675,127.29021 v -0.39688 h 0.396875 v -0.39687 h 0.396875 v -0.39688 h 0.396875 v -0.39687 H 19.3675 v -0.39688 h 2.38125 v 0.39688 h -0.396875 v 0.39687 H 20.955 v 0.39688 h -0.396875 v 0.39687 h 1.190625 v 0.39688 z"
         style="font-family:'C64 User';-inkscape-font-specification:'C64 User'"
         id="path3104" />
    </g>
    <path
       d="M 9.1144612,5.2182307 V 3.2338558 h 1.9843748 v 0.3968749 h 0.396875 v 0.396875 h -0.79375 V 3.6307307 H 9.9082112 v 1.5875 z m 2.7781248,0 V 2.4401058 h 0.79375 v 0.396875 h 0.396875 v 0.396875 h 0.396875 v -0.396875 h 0.396875 v -0.396875 h 0.79375 v 2.7781249 h -0.79375 v -1.5875 h -0.396875 v 0.396875 h -0.396875 v -0.396875 h -0.396875 v 1.5875 z m 3.571875,0 v -0.396875 h -0.396875 v -1.190625 h 0.396875 V 3.2338558 h 1.5875 v 0.3968749 h 0.396875 v 1.190625 h -0.396875 v 0.396875 z m 0.396875,-0.396875 h 0.79375 v -1.190625 h -0.79375 z m 2.38125,0.396875 v -0.396875 h -0.396875 v -0.79375 h 0.396875 v -0.396875 h 1.190625 V 2.8369808 h 0.79375 v 2.3812499 z m 0.396875,-0.396875 h 0.79375 v -0.79375 h -0.79375 z m 2.778125,0.396875 v -1.5875 h 0.396875 V 3.2338558 h 0.396875 v -0.396875 h -0.79375 v 0.396875 h -0.79375 v -0.79375 h 2.38125 v 0.79375 h -0.396875 v 0.3968749 h -0.396875 v 1.5875 z"
       id="text2"
       style="font-size:3.175px;font-family:'C64 User';-inkscape-font-specification:'C64 User';text-align:center;text-anchor:middle;fill:#ffffff;stroke-width:0.264583"
       inkscape:label="rMod"
       aria-label="rMod7" />
  </g>
</svg>
