<?xml version="1.0" encoding="UTF-8" standalone="no"?>
<!-- Created with Inkscape (http://www.inkscape.org/) -->

<svg
   width="55.880001mm"
   height="128.5mm"
   viewBox="0 0 55.880002 128.5"
   version="1.1"
   id="svg5"
   inkscape:version="1.4 (86a8ad7, 2024-10-11)"
   sodipodi:docname="RandLoops.svg"
   xml:space="preserve"
   xmlns:inkscape="http://www.inkscape.org/namespaces/inkscape"
   xmlns:sodipodi="http://sodipodi.sourceforge.net/DTD/sodipodi-0.dtd"
   xmlns="http://www.w3.org/2000/svg"
   xmlns:svg="http://www.w3.org/2000/svg"><sodipodi:namedview
     id="namedview7"
     pagecolor="#ffffff"
     bordercolor="#000000"
     borderopacity="0.25"
     inkscape:showpageshadow="2"
     inkscape:pageopacity="0.0"
     inkscape:pagecheckerboard="0"
     inkscape:deskcolor="#d1d1d1"
     inkscape:document-units="mm"
     showgrid="false"
     inkscape:zoom="0.99999999"
     inkscape:cx="-211.5"
     inkscape:cy="240.5"
     inkscape:window-width="1920"
     inkscape:window-height="1017"
     inkscape:window-x="1352"
     inkscape:window-y="-8"
     inkscape:window-maximized="1"
     inkscape:current-layer="layer4"
     showguides="false" /><defs
     id="defs2"><rect
       x="22.799086"
       y="440.55881"
       width="6.0350523"
       height="22.128525"
       id="rect289" /></defs><g
     inkscape:groupmode="layer"
     id="layer3"
     inkscape:label="sfondo"
     transform="scale(1.7272727,1)"><rect
       style="fill:#00001f;fill-opacity:1;stroke-width:0.211144;image-rendering:auto"
       id="sfondo"
       width="32.351578"
       height="128.5"
       x="0"
       y="6.6613381e-16"
       inkscape:label="background"
       ry="0"
       sodipodi:insensitive="true" /></g><g
     inkscape:groupmode="layer"
     id="g7864"
     inkscape:label="stripes down"
     transform="matrix(0.53363033,0,0,0.77278577,15.282571,123.58213)"
     style="display:inline;fill:#000000;stroke:none"><rect
       style="display:inline;fill:#0088ff;fill-opacity:1;stroke-width:0.402418"
       id="rect7854"
       width="59.966606"
       height="0.40000001"
       x="-6.2638321"
       y="5.0580001"
       inkscape:label="azzurro" /><rect
       style="display:inline;fill:#00cc55;fill-opacity:1;stroke-width:0.402418"
       id="rect7856"
       width="59.966606"
       height="0.40000001"
       x="-6.2638321"
       y="4.0580001"
       inkscape:label="verde" /><rect
       style="display:inline;fill:#eeee77;fill-opacity:1;stroke-width:0.402418"
       id="rect7858"
       width="59.966606"
       height="0.40000001"
       x="-6.2638321"
       y="3.0580001"
       inkscape:label="giallo" /><rect
       style="display:inline;fill:#ff7777;fill-opacity:1;stroke-width:0.402418"
       id="rect7860"
       width="59.966606"
       height="0.40000001"
       x="-6.2638321"
       y="2.0580001"
       inkscape:label="rosa" /><rect
       style="display:inline;fill:#bd0000;fill-opacity:1;stroke-width:0.402418"
       id="rect7862"
       width="59.966606"
       height="0.40000001"
       x="-6.2638321"
       y="1.0583332"
       inkscape:label="rosso" /></g><g
     inkscape:groupmode="layer"
     id="layer7"
     inkscape:label="stripes up"
     transform="matrix(0.53363032,0,0,1,14.834336,0.59166683)"
     style="display:inline;fill:#000000;stroke:none"><rect
       style="display:inline;fill:#0088ff;fill-opacity:1;stroke-width:0.402418"
       id="rect1316"
       width="59.966606"
       height="0.40000001"
       x="-5.4238586"
       y="5.0580001"
       inkscape:label="azzurro" /><rect
       style="display:inline;fill:#00cc55;fill-opacity:1;stroke-width:0.402418"
       id="rect1313"
       width="59.966606"
       height="0.40000001"
       x="-5.4238586"
       y="4.0580001"
       inkscape:label="verde" /><rect
       style="display:inline;fill:#eeee77;fill-opacity:1;stroke-width:0.402418"
       id="rect1310"
       width="59.966606"
       height="0.40000001"
       x="-5.4238586"
       y="3.0580001"
       inkscape:label="giallo" /><rect
       style="display:inline;fill:#ff7777;fill-opacity:1;stroke-width:0.402418"
       id="rect989"
       width="59.966606"
       height="0.40000001"
       x="-5.4238586"
       y="2.0580001"
       inkscape:label="rosa" /><rect
       style="display:inline;fill:#bd0000;fill-opacity:1;stroke-width:0.402418"
       id="rect1308"
       width="59.966606"
       height="0.40000001"
       x="-5.4238586"
       y="1.0583332"
       inkscape:label="rosso" /></g><g
     inkscape:groupmode="layer"
     id="layer4"
     inkscape:label="Elementi"
     style="display:inline;fill:#f9f9f9"><rect
       style="display:inline;fill:#000033;fill-opacity:1;stroke:#666699;stroke-width:0.400212;stroke-dasharray:none;stroke-dashoffset:0;stroke-opacity:1"
       id="rect1"
       width="38.239788"
       height="16.599789"
       x="1.200106"
       y="87.700104"
       ry="2"
       inkscape:label="rect3" /><rect
       style="display:inline;fill:#000033;fill-opacity:1;stroke:#666699;stroke-width:0.399908;stroke-dasharray:none;stroke-dashoffset:0;stroke-opacity:1"
       id="rect930"
       width="38.240089"
       height="26.600092"
       x="1.1999538"
       y="59.199955"
       ry="2"
       inkscape:label="rect3" /><rect
       style="display:inline;fill:#000033;fill-opacity:1;stroke:#666699;stroke-width:0.400005;stroke-dasharray:none;stroke-dashoffset:0;stroke-opacity:1"
       id="rect6775"
       width="38.239994"
       height="49.099995"
       x="1.200264"
       y="8.200263"
       ry="2"
       inkscape:label="rect1" /><path
       style="display:inline;fill:none;stroke:#ededed;stroke-width:0.4;stroke-dasharray:none;stroke-dashoffset:0;stroke-opacity:1"
       id="path896-0"
       inkscape:label="circle3"
       sodipodi:type="arc"
       sodipodi:cx="30.900219"
       sodipodi:cy="51.400227"
       sodipodi:rx="4.4000001"
       sodipodi:ry="4.4000001"
       sodipodi:start="2.0943951"
       sodipodi:end="1.0471976"
       sodipodi:arc-type="arc"
       d="m 28.700219,55.210738 a 4.4000001,4.4000001 0 0 1 -2.050074,-4.949315 4.4000001,4.4000001 0 0 1 4.250074,-3.261197 4.4000001,4.4000001 0 0 1 4.250074,3.261197 4.4000001,4.4000001 0 0 1 -2.050074,4.949316"
       sodipodi:open="true" /><rect
       style="display:inline;fill:#ededed;fill-opacity:1;stroke:none;stroke-width:0.375045;stroke-dasharray:none"
       id="rect110"
       width="0.62838537"
       height="0.95759505"
       x="1.0873399"
       y="64.152565"
       ry="0.087054096"
       inkscape:label="line circle 2"
       transform="rotate(-29.745297)" /><path
       style="display:inline;fill:none;stroke:#ececec;stroke-width:0.399999;stroke-dasharray:none;stroke-dashoffset:0;stroke-opacity:1"
       id="path896"
       inkscape:label="circle2"
       sodipodi:type="arc"
       sodipodi:cx="11.700341"
       sodipodi:cy="46.000347"
       sodipodi:rx="5.5"
       sodipodi:ry="5.5"
       sodipodi:start="2.0943951"
       sodipodi:end="1.0471976"
       sodipodi:arc-type="arc"
       d="m 8.9503412,50.763487 a 5.5,5.5 0 0 1 -2.562592,-6.186645 5.5,5.5 0 0 1 5.3125918,-4.076495 5.5,5.5 0 0 1 5.312592,4.076496 5.5,5.5 0 0 1 -2.562592,6.186644"
       sodipodi:open="true" /><rect
       style="display:inline;fill:#ececec;fill-opacity:1;stroke:none;stroke-width:0.375045;stroke-dasharray:none"
       id="rect10514"
       width="0.62838537"
       height="0.95759505"
       x="25.679518"
       y="11.1"
       ry="0.087054096"
       inkscape:label="line circle 1" /><path
       style="display:inline;fill:none;stroke:#ececec;stroke-width:0.5;stroke-dasharray:none;stroke-dashoffset:0;stroke-opacity:1"
       id="path78329"
       inkscape:label="circle1"
       sodipodi:type="arc"
       sodipodi:cx="25.99371"
       sodipodi:cy="20.593142"
       sodipodi:rx="8.443141"
       sodipodi:ry="8.443141"
       sodipodi:start="2.0943951"
       sodipodi:end="1.0471976"
       sodipodi:arc-type="arc"
       d="m 21.772139,27.905116 a 8.443141,8.443141 0 0 1 -3.933877,-9.49722 8.443141,8.443141 0 0 1 8.155448,-6.257895 8.443141,8.443141 0 0 1 8.155448,6.257895 8.443141,8.443141 0 0 1 -3.933878,9.49722"
       sodipodi:open="true" /><path
       style="display:inline;fill:#000000;stroke:#51517a;stroke-width:0.4;stroke-opacity:1"
       d="m 8.4279548,75.170467 -9.09e-5,-1.870438"
       id="path43838"
       sodipodi:nodetypes="cc"
       inkscape:label="path2" /><path
       style="display:inline;fill:#000000;stroke:#51517a;stroke-width:0.4;stroke-opacity:1"
       d="m 32.428043,75.170467 -2.68e-4,-1.870438"
       id="path78"
       sodipodi:nodetypes="cc"
       inkscape:label="path1" /><path
       style="display:inline;fill:#000000;stroke:#51517a;stroke-width:0.4;stroke-opacity:1"
       d="m 14.37413,22.934174 2.171596,-0.717729"
       id="path1"
       sodipodi:nodetypes="cc"
       inkscape:label="path2" /><path
       style="display:inline;fill:#000000;stroke:#51517a;stroke-width:0.4;stroke-opacity:1"
       d="m 20.528043,75.170467 -2.68e-4,-1.870438"
       id="path2"
       sodipodi:nodetypes="cc"
       inkscape:label="path1" /><rect
       style="display:inline;fill:#494983;fill-opacity:1;stroke:#666699;stroke-width:0.400007;stroke-dasharray:none;stroke-dashoffset:0;stroke-opacity:1"
       id="rect6777"
       width="38.239994"
       height="15.541973"
       x="1.2000033"
       y="106.39809"
       ry="2"
       inkscape:label="rect4" /><rect
       style="display:inline;fill:#ececec;fill-opacity:1;stroke:none;stroke-width:0.375045;stroke-dasharray:none"
       id="rect11628"
       width="0.62838537"
       height="0.95759505"
       x="5.2980437"
       y="40.8493"
       ry="0.087054096"
       inkscape:label="line circle"
       transform="rotate(-7.2228801)" /><rect
       style="display:inline;fill:#f2f2f2;stroke:none;stroke-width:0.375045;stroke-dasharray:none"
       id="rect3"
       width="0.62838537"
       height="0.95759505"
       x="31.442327"
       y="40.376957"
       ry="0.087054096"
       inkscape:label="line circle"
       transform="rotate(28.06892)" /><rect
       style="display:inline;fill:#ececec;fill-opacity:1;stroke:none;stroke-width:0.375045;stroke-dasharray:none"
       id="rect7"
       width="0.62838537"
       height="0.95759505"
       x="42.975769"
       y="24.893711"
       ry="0.087054096"
       inkscape:label="line circle"
       transform="rotate(51.379125)" /><rect
       style="display:inline;fill:#ececec;fill-opacity:1;stroke:none;stroke-width:0.375045;stroke-dasharray:none"
       id="rect8"
       width="0.62838537"
       height="0.95759505"
       x="45.565914"
       y="-7.0887804"
       ry="0.087054096"
       inkscape:label="line circle"
       transform="rotate(90.872668)" /><rect
       style="display:inline;fill:#ececec;fill-opacity:1;stroke:none;stroke-width:0.375045;stroke-dasharray:none"
       id="rect9"
       width="0.62838537"
       height="0.95759505"
       x="27.412931"
       y="-33.259956"
       ry="0.087054096"
       inkscape:label="line circle"
       transform="rotate(130.07773)" /><rect
       style="display:inline;fill:#ececec;fill-opacity:1;stroke:none;stroke-width:0.375045;stroke-dasharray:none"
       id="rect10"
       width="0.62838537"
       height="0.95759505"
       x="33.037884"
       y="27.496508"
       ry="0.087054096"
       inkscape:label="line circle"
       transform="rotate(30.382698)" /><rect
       style="display:inline;fill:#ececec;fill-opacity:1;stroke:none;stroke-width:0.375045;stroke-dasharray:none"
       id="rect11"
       width="0.62838537"
       height="0.95759505"
       x="46.992878"
       y="-1.6845655"
       ry="0.087054096"
       inkscape:label="line circle"
       transform="rotate(70.176224)" /><rect
       style="display:inline;fill:#ececec;fill-opacity:1;stroke:none;stroke-width:0.375045;stroke-dasharray:none"
       id="rect12"
       width="0.62838537"
       height="0.95759505"
       x="40.072712"
       y="-31.380239"
       ry="0.087054096"
       inkscape:label="line circle"
       transform="rotate(107.67316)" /><rect
       style="display:inline;fill:#ececec;fill-opacity:1;stroke:none;stroke-width:0.375045;stroke-dasharray:none"
       id="rect13"
       width="0.62838537"
       height="0.95759505"
       x="11.831687"
       y="-52.100189"
       ry="0.087054096"
       inkscape:label="line circle"
       transform="rotate(150.75339)" /><rect
       style="display:inline;fill:#000000;fill-opacity:1;stroke:#666699;stroke-width:0.399991;stroke-dasharray:none;stroke-opacity:1"
       id="rect4393"
       width="13.690008"
       height="13.246439"
       x="40.799999"
       y="8.0189953"
       ry="2.0000012"
       inkscape:label="asr rect" /><rect
       style="fill:#000033;fill-opacity:1;stroke:#666699;stroke-width:0.396319;stroke-dasharray:none;stroke-dashoffset:0;stroke-opacity:1"
       id="rect40"
       width="13.693681"
       height="29.63368"
       x="40.798161"
       y="22.843367"
       ry="1.9670819"
       inkscape:label="line 1" /><rect
       style="fill:#000033;fill-opacity:1;stroke:#666699;stroke-width:0.402914;stroke-dasharray:none;stroke-dashoffset:0;stroke-opacity:1"
       id="rect2"
       width="13.687087"
       height="38.913086"
       x="40.80146"
       y="83.011452"
       ry="2.3008299"
       inkscape:label="line 1" /><rect
       style="fill:#000033;fill-opacity:1;stroke:#666699;stroke-width:0.396539;stroke-dasharray:none;stroke-dashoffset:0;stroke-opacity:1"
       id="rect43"
       width="13.693461"
       height="27.499462"
       x="40.798271"
       y="54.000267"
       ry="1.9645104"
       inkscape:label="line 1" /><circle
       style="display:inline;fill:#ff0000;fill-opacity:1;stroke-width:0.4;stroke-opacity:0.5"
       id="circle20540"
       cx="47.700359"
       cy="116.10001"
       r="4.0999999" /><path
       style="display:inline;fill:none;fill-opacity:1;stroke:#ededed;stroke-width:0.4;stroke-dasharray:none;stroke-dashoffset:0;stroke-opacity:1"
       id="path16705"
       inkscape:label="circle A"
       sodipodi:type="arc"
       sodipodi:cx="47.700359"
       sodipodi:cy="34.900002"
       sodipodi:rx="5.6999998"
       sodipodi:ry="5.6999998"
       sodipodi:start="2.0943951"
       sodipodi:end="1.0471976"
       sodipodi:arc-type="arc"
       d="m 44.850359,39.836346 a 5.6999998,5.6999998 0 0 1 -2.655777,-6.411613 5.6999998,5.6999998 0 0 1 5.505777,-4.224731 5.6999998,5.6999998 0 0 1 5.505777,4.224731 5.6999998,5.6999998 0 0 1 -2.655777,6.411613"
       sodipodi:open="true" /><path
       style="display:inline;fill:#000000;stroke:#51517a;stroke-width:0.4;stroke-opacity:1"
       d="M 47.700362,42.494 V 40.6"
       id="path4399"
       sodipodi:nodetypes="cc" /><path
       style="display:inline;fill:#000000;stroke:#51517a;stroke-width:0.4;stroke-opacity:1"
       d="M 47.700362,97.5 V 95.8"
       id="path3"
       sodipodi:nodetypes="cc" /></g><g
     inkscape:groupmode="layer"
     id="layer5"
     inkscape:label="Etichette Testo"
     style="display:none"><text
       xml:space="preserve"
       style="font-style:normal;font-variant:normal;font-weight:normal;font-stretch:normal;font-size:2.46944px;font-family:'C64 User';-inkscape-font-specification:'C64 User';text-align:center;text-anchor:middle;display:inline;fill:#ffffff;stroke:none;stroke-width:0.264999;stroke-dasharray:0.264999, 0.264999;stroke-dashoffset:0;stroke-opacity:1"
       x="47.799347"
       y="71.760765"
       id="text11-0"
       inkscape:label="auto"><tspan
         sodipodi:role="line"
         id="tspan10"
         style="font-size:2.46944px;text-align:center;text-anchor:middle;stroke:none;stroke-width:0.265"
         x="47.799347"
         y="71.760765">AUTO</tspan></text><text
       xml:space="preserve"
       style="font-style:normal;font-variant:normal;font-weight:normal;font-stretch:normal;font-size:2.82222px;font-family:'C64 User';-inkscape-font-specification:'C64 User';text-align:center;text-anchor:middle;display:inline;fill:#ffffff;stroke:none;stroke-width:0.264999;stroke-dasharray:0.264999, 0.264999;stroke-dashoffset:0;stroke-opacity:1"
       x="47.821396"
       y="58.769444"
       id="text12-9"
       inkscape:label="set"><tspan
         sodipodi:role="line"
         id="tspan6-4"
         style="font-size:2.82222px;text-align:center;text-anchor:middle;stroke:none;stroke-width:0.265"
         x="47.821396"
         y="58.769444">SET</tspan></text><text
       xml:space="preserve"
       style="font-style:normal;font-variant:normal;font-weight:normal;font-stretch:normal;font-size:2.82222px;font-family:'C64 User';-inkscape-font-specification:'C64 User';text-align:center;text-anchor:middle;display:inline;fill:#ffffff;stroke:none;stroke-width:0.264999;stroke-dasharray:0.264999, 0.264999;stroke-dashoffset:0;stroke-opacity:1"
       x="47.821396"
       y="110.46944"
       id="text10-8"
       inkscape:label="stor"><tspan
         sodipodi:role="line"
         id="tspan8"
         style="font-size:2.82222px;text-align:center;text-anchor:middle;stroke:none;stroke-width:0.265"
         x="47.821396"
         y="110.46944">STOR</tspan></text><text
       xml:space="preserve"
       style="font-style:normal;font-variant:normal;font-weight:normal;font-stretch:normal;font-size:2.82222px;font-family:'C64 User';-inkscape-font-specification:'C64 User';text-align:center;text-anchor:middle;display:inline;fill:#ffffff;stroke:none;stroke-width:0.264999;stroke-dasharray:0.264999, 0.264999;stroke-dashoffset:0;stroke-opacity:1"
       x="47.821396"
       y="87.469444"
       id="text8-8"
       inkscape:label="recl"><tspan
         sodipodi:role="line"
         id="tspan7-2"
         style="font-size:2.82222px;text-align:center;text-anchor:middle;stroke:none;stroke-width:0.265"
         x="47.821396"
         y="87.469444">RECL</tspan></text><text
       xml:space="preserve"
       style="font-style:normal;font-variant:normal;font-weight:normal;font-stretch:normal;font-size:2.82222px;font-family:'C64 User';-inkscape-font-specification:'C64 User';text-align:center;text-anchor:middle;display:inline;fill:#ffffff;stroke:none;stroke-width:0.264999;stroke-dasharray:0.264999, 0.264999;stroke-dashoffset:0;stroke-opacity:1"
       x="47.821396"
       y="27.469442"
       id="text7-4"
       inkscape:label="prog"><tspan
         sodipodi:role="line"
         id="tspan5-5"
         style="font-size:2.82222px;text-align:center;text-anchor:middle;stroke:none;stroke-width:0.265"
         x="47.821396"
         y="27.469442">PROG</tspan></text><text
       xml:space="preserve"
       style="font-size:2.82222px;font-family:'C64 User';-inkscape-font-specification:'C64 User';text-align:center;writing-mode:lr-tb;text-orientation:upright;text-anchor:middle;display:inline;fill:#ffffff;stroke-width:0.309999"
       x="30.104164"
       y="110.31383"
       id="text2"
       inkscape:label="OUT"><tspan
         sodipodi:role="line"
         id="tspan2"
         style="font-size:2.82222px;writing-mode:lr-tb;fill:#ffffff;stroke-width:0.31"
         x="30.104164"
         y="110.31383">OUT</tspan></text><text
       xml:space="preserve"
       style="font-size:2.82222px;font-family:'C64 User';-inkscape-font-specification:'C64 User';text-align:center;writing-mode:lr-tb;text-orientation:upright;text-anchor:middle;display:inline;fill:#ffffff;stroke-width:0.309999"
       x="10.886111"
       y="110.31383"
       id="text3"
       inkscape:label="TRIG"><tspan
         sodipodi:role="line"
         id="tspan3"
         style="font-size:2.82222px;writing-mode:lr-tb;fill:#ffffff;stroke-width:0.31"
         x="10.886111"
         y="110.31383">TRIG</tspan></text><text
       xml:space="preserve"
       style="font-size:2.82222px;font-family:'C64 User';-inkscape-font-specification:'C64 User';text-align:center;writing-mode:lr-tb;text-orientation:upright;text-anchor:middle;display:inline;fill:#ffffff;stroke-width:0.309999"
       x="32.604164"
       y="92.469444"
       id="text8"
       inkscape:label="CLR"><tspan
         sodipodi:role="line"
         id="tspan7"
         style="font-size:2.82222px;writing-mode:lr-tb;fill:#ffffff;stroke-width:0.31"
         x="32.604164"
         y="92.469444">CLR</tspan></text><text
       xml:space="preserve"
       style="font-size:2.82222px;font-family:'C64 User';-inkscape-font-specification:'C64 User';text-align:center;writing-mode:lr-tb;text-orientation:upright;text-anchor:middle;display:inline;fill:#ffffff;stroke-width:0.309999"
       x="20.704165"
       y="92.469444"
       id="text7"
       inkscape:label="RST"><tspan
         sodipodi:role="line"
         id="tspan1"
         style="font-size:2.82222px;writing-mode:lr-tb;fill:#ffffff;stroke-width:0.31"
         x="20.704165"
         y="92.469444">RST</tspan></text><text
       xml:space="preserve"
       style="font-size:3.175px;font-family:'C64 User';-inkscape-font-specification:'C64 User';text-align:center;writing-mode:lr-tb;text-orientation:upright;text-anchor:middle;display:inline;fill:#ffffff;stroke-width:0.309999"
       x="8.6262131"
       y="92.469444"
       id="text3245"
       inkscape:label="CLOCK"><tspan
         sodipodi:role="line"
         id="tspan3243"
         style="font-size:3.175px;writing-mode:lr-tb;fill:#ffffff;stroke-width:0.31"
         x="8.6262131"
         y="92.469444">CLK</tspan></text><text
       xml:space="preserve"
       style="font-size:2.82222px;font-family:'C64 User';-inkscape-font-specification:'C64 User';text-align:center;writing-mode:lr-tb;text-orientation:upright;text-anchor:middle;display:inline;fill:#ffffff;stroke-width:0.309999"
       x="32.604164"
       y="63.931084"
       id="text4"
       inkscape:label="RND"><tspan
         sodipodi:role="line"
         id="tspan4"
         style="font-size:2.82222px;writing-mode:lr-tb;fill:#ffffff;stroke-width:0.31"
         x="32.604164"
         y="63.931084">RND</tspan></text><text
       xml:space="preserve"
       style="font-size:2.82222px;font-family:'C64 User';-inkscape-font-specification:'C64 User';text-align:center;writing-mode:lr-tb;text-orientation:upright;text-anchor:middle;display:inline;fill:#ffffff;stroke-width:0.309999"
       x="20.704165"
       y="63.931084"
       id="text6"
       inkscape:label="ADD"><tspan
         sodipodi:role="line"
         id="tspan6"
         style="font-size:2.82222px;writing-mode:lr-tb;fill:#ffffff;stroke-width:0.31"
         x="20.704165"
         y="63.931084">ADD</tspan></text><text
       xml:space="preserve"
       style="font-size:2.82222px;font-family:'C64 User';-inkscape-font-specification:'C64 User';text-align:center;writing-mode:lr-tb;text-orientation:upright;text-anchor:middle;display:inline;fill:#ffffff;stroke-width:0.309999"
       x="8.6041641"
       y="63.931084"
       id="text5"
       inkscape:label="DEL"><tspan
         sodipodi:role="line"
         id="tspan5"
         style="font-size:2.82222px;writing-mode:lr-tb;fill:#ffffff;stroke-width:0.31"
         x="8.6041641"
         y="63.931084">DEL</tspan></text><text
       xml:space="preserve"
       style="font-size:2.82222px;font-family:'C64 User';-inkscape-font-specification:'C64 User';text-align:center;writing-mode:lr-tb;text-orientation:upright;text-anchor:middle;fill:#ffffff;stroke-width:0.309999"
       x="31.076607"
       y="45.369442"
       id="text3120"
       inkscape:label="SCALE"><tspan
         sodipodi:role="line"
         id="tspan3118"
         style="font-size:2.82222px;writing-mode:lr-tb;fill:#ffffff;stroke-width:0.31"
         x="31.076607"
         y="45.369442">SCALE</tspan></text><text
       xml:space="preserve"
       style="font-size:2.46944px;font-family:'C64 User';-inkscape-font-specification:'C64 User';text-align:center;writing-mode:lr-tb;text-orientation:upright;text-anchor:middle;display:inline;fill:#ffffff;stroke-width:0.309999"
       x="15.532688"
       y="54.46751"
       id="text18"
       inkscape:label="16"><tspan
         sodipodi:role="line"
         id="tspan18"
         style="font-size:2.46944px;writing-mode:lr-tb;fill:#ffffff;stroke-width:0.31"
         x="15.532688"
         y="54.46751">16</tspan></text><text
       xml:space="preserve"
       style="font-size:2.46944px;font-family:'C64 User';-inkscape-font-specification:'C64 User';text-align:center;writing-mode:lr-tb;text-orientation:upright;text-anchor:middle;display:inline;fill:#ffffff;stroke-width:0.309999"
       x="20.552162"
       y="49.75758"
       id="text16"
       inkscape:label="14"><tspan
         sodipodi:role="line"
         id="tspan16"
         style="font-size:2.46944px;writing-mode:lr-tb;fill:#ffffff;stroke-width:0.31"
         x="20.552162"
         y="49.75758">14</tspan></text><text
       xml:space="preserve"
       style="font-size:2.46944px;font-family:'C64 User';-inkscape-font-specification:'C64 User';text-align:center;writing-mode:lr-tb;text-orientation:upright;text-anchor:middle;display:inline;fill:#ffffff;stroke-width:0.309999"
       x="20.614624"
       y="44.441612"
       id="text17"
       inkscape:label="12"><tspan
         sodipodi:role="line"
         id="tspan17"
         style="font-size:2.46944px;writing-mode:lr-tb;fill:#ffffff;stroke-width:0.31"
         x="20.614624"
         y="44.441612">12</tspan></text><text
       xml:space="preserve"
       style="font-size:2.46944px;font-family:'C64 User';-inkscape-font-specification:'C64 User';text-align:center;writing-mode:lr-tb;text-orientation:upright;text-anchor:middle;display:inline;fill:#ffffff;stroke-width:0.309999"
       x="15.862605"
       y="39.670849"
       id="text11"
       inkscape:label="10"><tspan
         sodipodi:role="line"
         id="tspan11"
         style="font-size:2.46944px;writing-mode:lr-tb;fill:#ffffff;stroke-width:0.31"
         x="15.862605"
         y="39.670849">10</tspan></text><text
       xml:space="preserve"
       style="font-size:2.46944px;font-family:'C64 User';-inkscape-font-specification:'C64 User';text-align:center;writing-mode:lr-tb;text-orientation:upright;text-anchor:middle;display:inline;fill:#ffffff;stroke-width:0.309999"
       x="10.311429"
       y="39.189758"
       id="text15"
       inkscape:label="8"><tspan
         sodipodi:role="line"
         id="tspan15"
         style="font-size:2.46944px;writing-mode:lr-tb;fill:#ffffff;stroke-width:0.31"
         x="10.311429"
         y="39.189758">8</tspan></text><text
       xml:space="preserve"
       style="font-size:2.46944px;font-family:'C64 User';-inkscape-font-specification:'C64 User';text-align:center;writing-mode:lr-tb;text-orientation:upright;text-anchor:middle;display:inline;fill:#ffffff;stroke-width:0.309999"
       x="5.5675445"
       y="41.665997"
       id="text13"
       inkscape:label="6"><tspan
         sodipodi:role="line"
         id="tspan13"
         style="font-size:2.46944px;writing-mode:lr-tb;fill:#ffffff;stroke-width:0.31"
         x="5.5675445"
         y="41.665997">6</tspan></text><text
       xml:space="preserve"
       style="font-size:2.46944px;font-family:'C64 User';-inkscape-font-specification:'C64 User';text-align:center;writing-mode:lr-tb;text-orientation:upright;text-anchor:middle;display:inline;fill:#ffffff;stroke-width:0.309999"
       x="3.6034937"
       y="47.00071"
       id="text14"
       inkscape:label="4"><tspan
         sodipodi:role="line"
         id="tspan14"
         style="font-size:2.46944px;writing-mode:lr-tb;fill:#ffffff;stroke-width:0.31"
         x="3.6034937"
         y="47.00071">4</tspan></text><text
       xml:space="preserve"
       style="font-size:2.46944px;font-family:'C64 User';-inkscape-font-specification:'C64 User';text-align:center;writing-mode:lr-tb;text-orientation:upright;text-anchor:middle;display:inline;fill:#ffffff;stroke-width:0.309999"
       x="5.2352357"
       y="51.941814"
       id="text44"
       inkscape:label="2"><tspan
         sodipodi:role="line"
         id="tspan44"
         style="font-size:2.46944px;writing-mode:lr-tb;fill:#ffffff;stroke-width:0.31"
         x="5.2352357"
         y="51.941814">2</tspan></text><text
       xml:space="preserve"
       style="font-size:2.82222px;font-family:'C64 User';-inkscape-font-specification:'C64 User';text-align:center;writing-mode:lr-tb;text-orientation:upright;text-anchor:middle;display:inline;fill:#ffffff;stroke-width:0.309999"
       x="11.898779"
       y="34.717442"
       id="text3183"
       inkscape:label="LENGTH"><tspan
         sodipodi:role="line"
         id="tspan3181"
         style="font-size:2.82222px;writing-mode:lr-tb;fill:#ffffff;stroke-width:0.31"
         x="11.898779"
         y="34.717442">LENGTH</tspan></text><text
       xml:space="preserve"
       style="font-size:3.52778px;font-family:'C64 User';-inkscape-font-specification:'C64 User';text-align:center;writing-mode:lr-tb;text-orientation:upright;text-anchor:middle;fill:#ffffff;stroke-width:0.309999"
       x="10.627716"
       y="16.089876"
       id="text3124"
       inkscape:label="CTRL"><tspan
         sodipodi:role="line"
         id="tspan3122"
         style="font-size:3.52778px;writing-mode:lr-tb;fill:#ffffff;stroke-width:0.31"
         x="10.627716"
         y="16.089876">CTRL</tspan></text></g><g
     inkscape:groupmode="layer"
     id="g40"
     inkscape:label="Etichette Testo nere"
     style="display:inline;fill:#000000"
     transform="translate(0.30022631,0.29993101)"><path
       style="font-size:2.46944px;font-family:'C64 User';-inkscape-font-specification:'C64 User';text-align:center;text-anchor:middle;fill:#000000;stroke-width:0.265;stroke-dasharray:0.264999, 0.264999"
       d="m 43.477827,71.760766 v -1.5434 h 0.30868 v -0.30868 h 0.30868 v -0.30868 h 0.61736 v 0.30868 h 0.30868 v 0.30868 h 0.30868 v 1.5434 h -0.61736 v -0.92604 h -0.61736 v 0.92604 z m 0.61736,-1.23472 h 0.61736 v -0.30868 h -0.61736 z m 1.85208,1.23472 v -0.30868 h -0.30868 v -1.85208 h 0.61736 v 1.85208 h 0.61736 v -1.85208 h 0.61736 v 1.85208 h -0.30868 v 0.30868 z m 2.46944,0 v -1.85208 h -0.61736 v -0.30868 h 1.85208 v 0.30868 h -0.61736 v 1.85208 z m 1.85208,0 v -0.30868 h -0.30868 v -1.5434 h 0.30868 v -0.30868 h 1.23472 v 0.30868 h 0.30868 v 1.5434 h -0.30868 v 0.30868 z m 0.30868,-0.30868 h 0.61736 v -1.5434 h -0.61736 z"
       id="text9"
       inkscape:label="auto"
       aria-label="AUTO" /><path
       style="font-size:2.82222px;font-family:'C64 User';-inkscape-font-specification:'C64 User';text-align:center;text-anchor:middle;fill:#000000;stroke-width:0.265;stroke-dasharray:0.264999, 0.264999"
       d="M 44.47001,58.769448 V 58.41667 h -0.352778 v -0.352777 h 0.705555 v 0.352777 h 0.705555 V 57.711115 H 44.47001 v -0.352777 h -0.352778 v -0.705555 h 0.352778 v -0.352778 h 1.41111 v 0.352778 h 0.352777 v 0.352777 h -0.705555 v -0.352777 h -0.705555 v 0.705555 h 1.058333 v 0.352777 h 0.352777 V 58.41667 H 45.88112 v 0.352778 z m 4.23333,-2.469443 v 0.352778 h -1.41111 v 0.705555 h 0.705555 v 0.352777 H 47.29223 v 0.705555 h 1.41111 v 0.352778 h -2.116665 v -2.469443 z m 1.058332,2.469443 v -2.116665 h -0.705555 v -0.352778 h 2.116665 v 0.352778 h -0.705555 v 2.116665 z"
       id="text12"
       inkscape:label="set"
       aria-label="SET" /><path
       style="font-size:2.82222px;font-family:'C64 User';-inkscape-font-specification:'C64 User';text-align:center;text-anchor:middle;fill:#000000;stroke-width:0.265;stroke-dasharray:0.264999, 0.264999"
       d="m 43.235288,110.46945 v -0.35278 h -0.352777 v -0.35277 h 0.705555 v 0.35277 h 0.705555 v -0.70555 h -1.058333 v -0.35278 h -0.352777 v -0.70555 h 0.352777 v -0.35278 h 1.41111 v 0.35278 h 0.352778 v 0.35277 h -0.705555 v -0.35277 h -0.705555 v 0.70555 h 1.058332 v 0.35278 h 0.352778 v 0.70555 h -0.352778 v 0.35278 z m 2.82222,0 v -2.11666 h -0.705555 v -0.35278 h 2.116665 v 0.35278 h -0.705555 v 2.11666 z m 2.116665,0 v -0.35278 h -0.352777 v -1.76388 h 0.352777 v -0.35278 h 1.41111 v 0.35278 h 0.352778 v 1.76388 h -0.352778 v 0.35278 z m 0.352778,-0.35278 h 0.705555 v -1.76388 h -0.705555 z m 1.763888,0.35278 v -2.46944 h 1.763887 v 0.35278 h 0.352778 v 0.70555 h -0.352778 v 0.35278 h -0.352777 v 0.35278 h 0.352777 v 0.35277 h 0.352778 v 0.35278 h -0.705555 v -0.35278 h -0.352778 v -0.35277 h -0.352777 v 0.70555 z m 0.705555,-1.41111 h 0.705555 v -0.70555 h -0.705555 z"
       id="text19"
       inkscape:label="stor"
       aria-label="STOR" /><path
       style="font-size:2.82222px;font-family:'C64 User';-inkscape-font-specification:'C64 User';text-align:center;text-anchor:middle;fill:#000000;stroke-width:0.265;stroke-dasharray:0.264999, 0.264999"
       d="M 42.882511,87.469443 V 85 h 1.763887 v 0.352778 h 0.352778 v 0.705555 h -0.352778 v 0.352777 h -0.352777 v 0.352778 h 0.352777 v 0.352777 h 0.352778 v 0.352778 h -0.705555 v -0.352778 h -0.352778 v -0.352777 h -0.352777 v 0.705555 z m 0.705555,-1.41111 h 0.705555 V 85.352778 H 43.588066 Z M 47.468618,85 v 0.352778 h -1.41111 v 0.705555 h 0.705555 v 0.352777 h -0.705555 v 0.705555 h 1.41111 v 0.352778 H 45.351953 V 85 Z m 0.705555,2.469443 v -0.352778 h -0.352777 v -1.763887 h 0.352777 V 85 h 1.41111 v 0.352778 h 0.352778 v 0.352777 h -0.705555 v -0.352777 h -0.705555 v 1.763887 h 0.705555 v -0.352777 h 0.705555 v 0.352777 h -0.352778 v 0.352778 z M 50.996394,85 v 2.116665 h 1.41111 v 0.352778 H 50.290839 V 85 Z"
       id="text20"
       inkscape:label="recl"
       aria-label="RECL" /><path
       style="font-size:2.82222px;font-family:'C64 User';-inkscape-font-specification:'C64 User';text-align:center;text-anchor:middle;fill:#000000;stroke-width:0.265;stroke-dasharray:0.264999, 0.264999"
       d="M 42.882511,27.469442 V 25 h 1.763887 v 0.352777 h 0.352778 v 0.705555 h -0.352778 v 0.352778 h -1.058332 v 1.058332 z m 0.705555,-1.41111 h 0.705555 v -0.705555 h -0.705555 z m 1.763887,1.41111 V 25 h 1.763888 v 0.352777 h 0.352777 v 0.705555 h -0.352777 v 0.352778 h -0.352778 v 0.352777 h 0.352778 v 0.352778 h 0.352777 v 0.352777 h -0.705555 v -0.352777 h -0.352777 v -0.352778 h -0.352778 v 0.705555 z m 0.705555,-1.41111 h 0.705555 v -0.705555 h -0.705555 z m 2.116665,1.41111 v -0.352777 h -0.352777 v -1.763888 h 0.352777 V 25 h 1.41111 v 0.352777 h 0.352778 v 1.763888 h -0.352778 v 0.352777 z m 0.352778,-0.352777 h 0.705555 v -1.763888 h -0.705555 z m 2.116665,0.352777 v -0.352777 h -0.352777 v -1.763888 h 0.352777 V 25 h 1.41111 v 0.352777 h 0.352778 v 0.352778 h -0.705555 v -0.352778 h -0.705555 v 1.763888 h 0.705555 V 26.41111 h -0.352778 v -0.352778 h 1.058333 v 1.058333 h -0.352778 v 0.352777 z"
       id="text21"
       inkscape:label="prog"
       aria-label="PROG" /><path
       style="font-size:2.82222px;font-family:'C64 User';-inkscape-font-specification:'C64 User';text-align:center;text-orientation:upright;text-anchor:middle;fill:#000000;stroke-width:0.31"
       d="m 26.752778,110.31383 v -0.35278 H 26.4 v -1.76389 h 0.352778 v -0.35278 h 1.41111 v 0.35278 h 0.352777 v 1.76389 h -0.352777 v 0.35278 z m 0.352777,-0.35278 h 0.705555 v -1.76389 h -0.705555 z m 2.116665,0.35278 v -0.35278 h -0.352777 v -2.11667 h 0.705555 v 2.11667 h 0.705555 v -2.11667 h 0.705555 v 2.11667 H 30.63333 v 0.35278 z m 2.82222,0 v -2.11667 h -0.705555 v -0.35278 h 2.116666 v 0.35278 h -0.705555 v 2.11667 z"
       id="text22"
       inkscape:label="OUT"
       aria-label="OUT" /><path
       style="font-size:2.82222px;font-family:'C64 User';-inkscape-font-specification:'C64 User';text-align:center;text-orientation:upright;text-anchor:middle;fill:#000000;stroke-width:0.31"
       d="m 7.0055586,110.31383 v -2.11667 h -0.705555 v -0.35278 h 2.1166651 v 0.35278 h -0.705555 v 2.11667 z m 1.7638876,0 v -2.46945 h 1.7638878 v 0.35278 h 0.352777 v 0.70556 h -0.352777 v 0.35277 h -0.352778 v 0.35278 h 0.352778 v 0.35278 h 0.352777 v 0.35278 h -0.705555 v -0.35278 H 9.8277788 v -0.35278 H 9.4750012 v 0.70556 z m 0.705555,-1.41111 h 0.7055548 v -0.70556 H 9.4750012 Z m 3.1749978,-1.05834 v 0.35278 h -0.352778 v 1.76389 h 0.352778 v 0.35278 h -1.41111 v -0.35278 h 0.352777 v -1.76389 h -0.352777 v -0.35278 z m 0.705555,2.46945 v -0.35278 h -0.352778 v -1.76389 h 0.352778 v -0.35278 h 1.41111 v 0.35278 h 0.352777 v 0.35278 h -0.705555 v -0.35278 h -0.705555 v 1.76389 h 0.705555 v -0.70556 h -0.352777 v -0.35277 h 1.058332 v 1.05833 h -0.352777 v 0.35278 z"
       id="text23"
       inkscape:label="TRIG"
       aria-label="TRIG" /><path
       style="font-size:2.82222px;font-family:'C64 User';-inkscape-font-specification:'C64 User';text-align:center;text-orientation:upright;text-anchor:middle;fill:#000000;stroke-width:0.31"
       d="M 29.252778,92.469444 V 92.116667 H 28.9 v -1.763888 h 0.352778 v -0.352777 h 1.41111 v 0.352777 h 0.352777 v 0.352778 H 30.31111 v -0.352778 h -0.705555 v 1.763888 h 0.705555 v -0.352778 h 0.705555 v 0.352778 h -0.352777 v 0.352777 z m 2.82222,-2.469442 v 2.116665 h 1.41111 v 0.352777 h -2.116665 v -2.469442 z m 1.763887,2.469442 v -2.469442 h 1.763888 v 0.352777 h 0.352778 v 0.705555 h -0.352778 v 0.352778 h -0.352777 v 0.352777 h 0.352777 v 0.352778 h 0.352778 v 0.352777 H 35.249996 V 92.116667 H 34.897218 V 91.763889 H 34.54444 v 0.705555 z m 0.705555,-1.41111 h 0.705556 V 90.352779 H 34.54444 Z"
       id="text24"
       inkscape:label="CLR"
       aria-label="CLR" /><path
       style="font-size:2.82222px;font-family:'C64 User';-inkscape-font-specification:'C64 User';text-align:center;text-orientation:upright;text-anchor:middle;fill:#000000;stroke-width:0.31"
       d="m 17.000001,92.469444 v -2.469442 h 1.763887 v 0.352777 h 0.352778 v 0.705555 h -0.352778 v 0.352778 h -0.352777 v 0.352777 h 0.352777 v 0.352778 h 0.352778 v 0.352777 h -0.705555 v -0.352777 h -0.352778 v -0.352778 h -0.352777 v 0.705555 z m 0.705555,-1.41111 h 0.705555 v -0.705555 h -0.705555 z m 2.116665,1.41111 v -0.352777 h -0.352778 v -0.352778 h 0.705555 v 0.352778 h 0.705555 v -0.705555 h -1.058332 v -0.352778 h -0.352778 v -0.705555 h 0.352778 v -0.352777 h 1.41111 v 0.352777 h 0.352777 v 0.352778 h -0.705555 v -0.352778 h -0.705555 v 0.705555 h 1.058333 v 0.352778 h 0.352777 v 0.705555 h -0.352777 v 0.352777 z m 2.82222,0 v -2.116665 h -0.705555 v -0.352777 h 2.116665 v 0.352777 h -0.705555 v 2.116665 z"
       id="text25"
       inkscape:label="RST"
       aria-label="RST" /><path
       style="font-size:3.175px;font-family:'C64 User';-inkscape-font-specification:'C64 User';text-align:center;text-orientation:upright;text-anchor:middle;fill:#000000;stroke-width:0.31"
       d="m 4.8559006,92.469444 v -0.396875 h -0.396875 v -1.984375 h 0.396875 v -0.396875 h 1.5875 v 0.396875 h 0.396875 v 0.396875 h -0.79375 v -0.396875 h -0.79375 v 1.984375 h 0.79375 v -0.396875 h 0.79375 v 0.396875 h -0.396875 v 0.396875 z m 3.1750001,-2.778125 v 2.38125 h 1.5874999 v 0.396875 H 7.2371507 v -2.778125 z m 1.9843753,2.778125 v -2.778125 h 0.79375 v 0.79375 h 0.396875 v -0.396875 h 0.396875 v -0.396875 h 0.79375 v 0.396875 h -0.396875 v 0.396875 h -0.396875 v 0.396875 h -0.396875 v 0.396875 h 0.396875 v 0.396875 h 0.396875 v 0.396875 h 0.396875 v 0.396875 h -0.79375 v -0.396875 h -0.396875 v -0.396875 h -0.396875 v 0.79375 z"
       id="text26"
       inkscape:label="CLOCK"
       aria-label="CLK" /><path
       style="font-size:2.82222px;font-family:'C64 User';-inkscape-font-specification:'C64 User';text-align:center;text-orientation:upright;text-anchor:middle;fill:#000000;stroke-width:0.31"
       d="m 28.9,63.931084 v -2.469443 h 1.763888 v 0.352778 h 0.352777 v 0.705555 h -0.352777 v 0.352777 H 30.31111 v 0.352778 h 0.352778 v 0.352777 h 0.352777 v 0.352778 H 30.31111 v -0.352778 h -0.352777 v -0.352777 h -0.352778 v 0.705555 z m 0.705555,-1.41111 h 0.705555 v -0.705555 h -0.705555 z m 1.763888,1.41111 v -2.469443 h 0.705555 v 0.352778 h 0.352777 v 0.352777 h 0.352778 v -0.705555 h 0.705555 v 2.469443 h -0.705555 v -0.705555 h -0.352778 v -0.352778 h -0.352777 v 1.058333 z m 2.469442,0 v -2.469443 h 1.411111 v 0.352778 h 0.352777 v 0.352777 h 0.352778 v 1.058333 h -0.352778 v 0.352777 h -0.352777 v 0.352778 z m 0.705555,-0.352778 h 0.352778 v -0.352777 h 0.352778 V 62.167196 H 34.897218 V 61.814419 H 34.54444 Z"
       id="text27"
       inkscape:label="RND"
       aria-label="RND" /><path
       style="font-size:2.82222px;font-family:'C64 User';-inkscape-font-specification:'C64 User';text-align:center;text-orientation:upright;text-anchor:middle;fill:#000000;stroke-width:0.31"
       d="m 17.000001,63.931084 v -1.763888 h 0.352777 v -0.352777 h 0.352778 v -0.352778 h 0.705555 v 0.352778 h 0.352777 v 0.352777 h 0.352778 v 1.763888 h -0.705555 v -1.058333 h -0.705555 v 1.058333 z m 0.705555,-1.41111 h 0.705555 v -0.352778 h -0.705555 z m 1.763887,1.41111 v -2.469443 h 1.41111 v 0.352778 h 0.352778 v 0.352777 h 0.352777 v 1.058333 h -0.352777 v 0.352777 h -0.352778 v 0.352778 z m 0.705555,-0.352778 h 0.352778 v -0.352777 h 0.352777 v -1.058333 h -0.352777 v -0.352777 h -0.352778 z m 1.763888,0.352778 v -2.469443 h 1.41111 v 0.352778 h 0.352777 v 0.352777 h 0.352778 v 1.058333 h -0.352778 v 0.352777 h -0.352777 v 0.352778 z m 0.705555,-0.352778 h 0.352777 v -0.352777 h 0.352778 v -1.058333 h -0.352778 v -0.352777 h -0.352777 z"
       id="text28"
       inkscape:label="ADD"
       aria-label="ADD" /><path
       style="font-size:2.82222px;font-family:'C64 User';-inkscape-font-specification:'C64 User';text-align:center;text-orientation:upright;text-anchor:middle;fill:#000000;stroke-width:0.31"
       d="m 4.9000003,63.931084 v -2.469443 h 1.41111 v 0.352778 h 0.3527775 v 0.352777 h 0.3527775 v 1.058333 H 6.6638878 v 0.352777 H 6.3111103 v 0.352778 z m 0.705555,-0.352778 H 5.9583328 V 63.225529 H 6.3111103 V 62.167196 H 5.9583328 V 61.814419 H 5.6055553 Z m 3.8805526,-2.116665 v 0.352778 h -1.41111 v 0.705555 h 0.705555 v 0.352777 h -0.705555 v 0.705555 h 1.41111 v 0.352778 h -2.116665 v -2.469443 z m 1.0583321,0 v 2.116665 h 1.411111 v 0.352778 H 9.8388855 v -2.469443 z"
       id="text29"
       inkscape:label="DEL"
       aria-label="DEL" /><path
       style="font-size:2.82222px;font-family:'C64 User';-inkscape-font-specification:'C64 User';text-align:center;text-orientation:upright;text-anchor:middle;fill:#000000;stroke-width:0.31"
       d="M 25.255778,45.369442 V 45.016664 H 24.903 v -0.352777 h 0.705555 v 0.352777 H 26.31411 V 44.311109 H 25.255778 V 43.958332 H 24.903 v -0.705555 h 0.352778 v -0.352778 h 1.41111 v 0.352778 h 0.352777 v 0.352777 H 26.31411 v -0.352777 h -0.705555 v 0.705555 h 1.058333 v 0.352777 h 0.352777 v 0.705555 h -0.352777 v 0.352778 z m 2.469442,0 v -0.352778 h -0.352777 v -1.763887 h 0.352777 v -0.352778 h 1.41111 v 0.352778 h 0.352778 v 0.352777 h -0.705555 v -0.352777 h -0.705555 v 1.763887 h 0.705555 v -0.352777 h 0.705555 v 0.352777 H 29.13633 v 0.352778 z m 2.116666,0 v -1.763888 h 0.352777 v -0.352777 h 0.352778 v -0.352778 h 0.705555 v 0.352778 h 0.352777 v 0.352777 h 0.352778 v 1.763888 h -0.705555 v -1.058333 h -0.705555 v 1.058333 z m 0.705555,-1.41111 h 0.705555 v -0.352778 h -0.705555 z m 2.469442,-1.058333 v 2.116665 h 1.41111 v 0.352778 h -2.116665 v -2.469443 z m 3.880553,0 v 0.352778 h -1.41111 v 0.705555 h 0.705555 v 0.352777 h -0.705555 v 0.705555 h 1.41111 v 0.352778 h -2.116665 v -2.469443 z"
       id="text30"
       inkscape:label="SCALE"
       aria-label="SCALE" /><path
       style="font-size:2.46944px;font-family:'C64 User';-inkscape-font-specification:'C64 User';text-align:center;text-orientation:upright;text-anchor:middle;fill:#000000;stroke-width:0.31"
       d="m 13.371928,54.46751 v -0.30868 h 0.61736 v -0.92604 h -0.30868 v -0.30868 h 0.30868 v -0.61736 h 0.61736 v 1.85208 h 0.61736 v 0.30868 z m 2.77812,-0.30868 h 0.61736 v -0.61736 h -0.61736 z m -0.30868,0.30868 v -0.30868 h -0.30868 v -1.5434 h 0.30868 v -0.30868 h 1.23472 v 0.30868 h 0.30868 v 0.30868 h -0.61736 v -0.30868 h -0.61736 v 0.61736 h 0.92604 v 0.30868 h 0.30868 v 0.61736 h -0.30868 v 0.30868 z"
       id="text31"
       inkscape:label="16"
       aria-label="16" /><path
       style="font-size:2.46944px;font-family:'C64 User';-inkscape-font-specification:'C64 User';text-align:center;text-orientation:upright;text-anchor:middle;fill:#000000;stroke-width:0.31"
       d="M 18.237062,49.75758 V 49.4489 h 0.61736 v -0.92604 h -0.30868 v -0.30868 h 0.30868 v -0.61736 h 0.61736 v 1.85208 h 0.61736 v 0.30868 z m 3.39548,0 v -0.61736 h -1.23472 v -0.61736 h 0.61736 v 0.30868 h 0.61736 v -0.30868 h -0.61736 v -0.30868 h 0.30868 V 47.9055 h 0.30868 v -0.30868 h 0.61736 v 1.23472 h 0.30868 v 0.30868 h -0.30868 v 0.61736 z"
       id="text32"
       inkscape:label="14"
       aria-label="14" /><path
       style="font-size:2.46944px;font-family:'C64 User';-inkscape-font-specification:'C64 User';text-align:center;text-orientation:upright;text-anchor:middle;fill:#000000;stroke-width:0.31"
       d="m 18.453864,44.441612 v -0.30868 h 0.61736 v -0.92604 h -0.30868 v -0.30868 h 0.30868 v -0.61736 h 0.61736 v 1.85208 h 0.61736 v 0.30868 z m 2.16076,0 v -0.61736 h 0.30868 v -0.30868 h 0.61736 v -0.30868 h 0.30868 v -0.61736 h -0.61736 v 0.30868 h -0.61736 v -0.30868 h 0.30868 v -0.30868 h 1.23472 v 0.30868 h 0.30868 v 0.61736 h -0.30868 v 0.30868 h -0.61736 v 0.30868 l -0.30868,-0.0012 v 0.309886 h 1.23472 v 0.30868 z"
       id="text33"
       inkscape:label="12"
       aria-label="12" /><path
       style="font-size:2.46944px;font-family:'C64 User';-inkscape-font-specification:'C64 User';text-align:center;text-orientation:upright;text-anchor:middle;fill:#000000;stroke-width:0.31"
       d="m 13.701845,39.670849 v -0.30868 h 0.61736 v -0.92604 h -0.30868 v -0.30868 h 0.30868 v -0.61736 h 0.61736 v 1.85208 h 0.61736 v 0.30868 z m 2.46944,0 v -0.30868 h -0.30868 v -1.5434 h 0.30868 v -0.30868 h 1.23472 v 0.30868 h 0.30868 v 1.5434 h -0.30868 v 0.30868 z m 0.30868,-0.30868 h 0.61736 v -0.92604 h -0.30868 v -0.30868 h 0.30868 v -0.30868 h -0.61736 v 0.61736 h 0.30868 v 0.30868 h -0.30868 z"
       id="text34"
       inkscape:label="10"
       aria-label="10" /><path
       style="font-size:2.46944px;font-family:'C64 User';-inkscape-font-specification:'C64 User';text-align:center;text-orientation:upright;text-anchor:middle;fill:#000000;stroke-width:0.31"
       d="m 9.539729,39.189758 v -0.30868 h -0.30868 v -0.61736 h 0.30868 v -0.30868 h -0.30868 v -0.61736 h 0.30868 v -0.30868 h 1.23472 v 0.30868 h 0.30868 v 0.61736 h -0.30868 v 0.30868 h 0.30868 v 0.61736 h -0.30868 v 0.30868 z m 0.30868,-1.23472 h 0.61736 v -0.61736 h -0.61736 z m 0,0.92604 h 0.61736 v -0.61736 h -0.61736 z"
       id="text35"
       inkscape:label="8"
       aria-label="8" /><path
       style="font-size:2.46944px;font-family:'C64 User';-inkscape-font-specification:'C64 User';text-align:center;text-orientation:upright;text-anchor:middle;fill:#000000;stroke-width:0.31"
       d="m 5.1045245,41.357317 h 0.61736 v -0.61736 h -0.61736 z m -0.30868,0.30868 v -0.30868 h -0.30868 v -1.5434 h 0.30868 v -0.30868 h 1.23472 v 0.30868 h 0.30868 v 0.30868 h -0.61736 v -0.30868 h -0.61736 v 0.61736 h 0.92604 v 0.30868 h 0.30868 v 0.61736 h -0.30868 v 0.30868 z"
       id="text36"
       inkscape:label="6"
       aria-label="6" /><path
       style="font-size:2.46944px;font-family:'C64 User';-inkscape-font-specification:'C64 User';text-align:center;text-orientation:upright;text-anchor:middle;fill:#000000;stroke-width:0.31"
       d="m 3.6034937,47.00071 v -0.61736 h -1.23472 v -0.61736 h 0.61736 v 0.30868 h 0.61736 v -0.30868 h -0.61736 v -0.30868 h 0.30868 v -0.30868 h 0.30868 v -0.30868 h 0.61736 v 1.23472 h 0.30868 v 0.30868 h -0.30868 v 0.61736 z"
       id="text37"
       inkscape:label="4"
       aria-label="4" /><path
       style="font-size:2.46944px;font-family:'C64 User';-inkscape-font-specification:'C64 User';text-align:center;text-orientation:upright;text-anchor:middle;fill:#000000;stroke-width:0.31"
       d="m 4.1548557,51.941814 v -0.61736 h 0.30868 v -0.30868 h 0.61736 v -0.30868 h 0.30868 v -0.61736 h -0.61736 v 0.30868 h -0.61736 v -0.30868 h 0.30868 v -0.30868 h 1.23472 v 0.30868 h 0.30868 v 0.61736 h -0.30868 v 0.30868 h -0.61736 v 0.30868 l -0.30868,-0.0012 v 0.309885 h 1.23472 v 0.30868 z"
       id="text38"
       inkscape:label="2"
       aria-label="2" /><path
       style="font-size:2.82222px;font-family:'C64 User';-inkscape-font-specification:'C64 User';text-align:center;text-orientation:upright;text-anchor:middle;fill:#000000;stroke-width:0.31"
       d="m 5.1960062,32.247999 v 2.116665 h 1.4111101 v 0.352778 H 4.4904512 v -2.469443 z m 3.8805527,0 v 0.352777 H 7.6654488 v 0.705556 h 0.705555 v 0.352777 h -0.705555 v 0.705555 h 1.4111101 v 0.352778 H 6.9598938 v -2.469443 z m 0.3527775,2.469443 v -2.469443 h 0.7055546 v 0.352777 h 0.352778 v 0.352778 h 0.352777 v -0.705555 h 0.705555 v 2.469443 h -0.705555 v -0.705555 h -0.352777 v -0.352778 h -0.352778 v 1.058333 z m 2.8222206,0 v -0.352778 h -0.352778 v -1.763888 h 0.352778 v -0.352777 h 1.41111 v 0.352777 h 0.352777 v 0.352778 h -0.705555 v -0.352778 h -0.705555 v 1.763888 h 0.705555 v -0.705555 h -0.352777 v -0.352777 h 1.058332 v 1.058332 h -0.352777 v 0.352778 z m 2.82222,0 v -2.116666 h -0.705555 v -0.352777 h 2.116665 v 0.352777 h -0.705555 v 2.116666 z m 1.763887,0 v -2.469443 h 0.705555 v 1.058333 h 0.705555 v -1.058333 h 0.705555 v 2.469443 h -0.705555 v -1.058333 h -0.705555 v 1.058333 z"
       id="text39"
       inkscape:label="LENGTH"
       aria-label="LENGTH" /><path
       style="font-size:3.52778px;font-family:'C64 User';-inkscape-font-specification:'C64 User';text-align:center;text-orientation:upright;text-anchor:middle;fill:#000000;stroke-width:0.31"
       d="M 4.8950735,16.089876 V 15.648904 H 4.454101 v -2.204863 h 0.4409725 v -0.440972 h 1.76389 v 0.440972 H 7.099936 v 0.440973 H 6.217991 V 13.444041 H 5.336046 v 2.204863 h 0.881945 v -0.440973 h 0.881945 v 0.440973 H 6.6589635 v 0.440972 z m 3.52778,0 v -2.645835 h -0.881945 v -0.440972 h 2.6458345 v 0.440972 H 9.3047985 v 2.645835 z m 2.2048625,0 v -3.086807 h 2.204862 v 0.440972 h 0.440973 v 0.881945 h -0.440973 v 0.440973 h -0.440972 v 0.440972 h 0.440972 v 0.440973 h 0.440973 v 0.440972 h -0.881945 v -0.440972 h -0.440973 v -0.440973 h -0.440972 v 0.881945 z m 0.881945,-1.76389 h 0.881945 v -0.881945 h -0.881945 z m 3.086808,-1.322917 v 2.645835 h 1.76389 v 0.440972 h -2.645835 v -3.086807 z"
       id="text40"
       inkscape:label="CTRL"
       aria-label="CTRL" /></g><g
     inkscape:groupmode="layer"
     id="g63"
     inkscape:label="Etichette Testo path"
     style="display:inline"><path
       style="font-size:2.46944px;font-family:'C64 User';-inkscape-font-specification:'C64 User';text-align:center;text-anchor:middle;fill:#ffffff;stroke-width:0.265;stroke-dasharray:0.264999, 0.264999"
       d="m 43.477827,71.760766 v -1.5434 h 0.30868 v -0.30868 h 0.30868 v -0.30868 h 0.61736 v 0.30868 h 0.30868 v 0.30868 h 0.30868 v 1.5434 h -0.61736 v -0.92604 h -0.61736 v 0.92604 z m 0.61736,-1.23472 h 0.61736 v -0.30868 h -0.61736 z m 1.85208,1.23472 v -0.30868 h -0.30868 v -1.85208 h 0.61736 v 1.85208 h 0.61736 v -1.85208 h 0.61736 v 1.85208 h -0.30868 v 0.30868 z m 2.46944,0 v -1.85208 h -0.61736 v -0.30868 h 1.85208 v 0.30868 h -0.61736 v 1.85208 z m 1.85208,0 v -0.30868 h -0.30868 v -1.5434 h 0.30868 v -0.30868 h 1.23472 v 0.30868 h 0.30868 v 1.5434 h -0.30868 v 0.30868 z m 0.30868,-0.30868 h 0.61736 v -1.5434 h -0.61736 z"
       id="path40"
       inkscape:label="auto"
       aria-label="AUTO" /><path
       style="font-size:2.82222px;font-family:'C64 User';-inkscape-font-specification:'C64 User';text-align:center;text-anchor:middle;fill:#ffffff;stroke-width:0.265;stroke-dasharray:0.264999, 0.264999"
       d="M 44.47001,58.769448 V 58.41667 h -0.352778 v -0.352777 h 0.705555 v 0.352777 h 0.705555 V 57.711115 H 44.47001 v -0.352777 h -0.352778 v -0.705555 h 0.352778 v -0.352778 h 1.41111 v 0.352778 h 0.352777 v 0.352777 h -0.705555 v -0.352777 h -0.705555 v 0.705555 h 1.058333 v 0.352777 h 0.352777 V 58.41667 H 45.88112 v 0.352778 z m 4.23333,-2.469443 v 0.352778 h -1.41111 v 0.705555 h 0.705555 v 0.352777 H 47.29223 v 0.705555 h 1.41111 v 0.352778 h -2.116665 v -2.469443 z m 1.058332,2.469443 v -2.116665 h -0.705555 v -0.352778 h 2.116665 v 0.352778 h -0.705555 v 2.116665 z"
       id="path41"
       inkscape:label="set"
       aria-label="SET" /><path
       style="font-size:2.82222px;font-family:'C64 User';-inkscape-font-specification:'C64 User';text-align:center;text-anchor:middle;fill:#ffffff;stroke-width:0.265;stroke-dasharray:0.264999, 0.264999"
       d="m 43.235288,110.46945 v -0.35278 h -0.352777 v -0.35277 h 0.705555 v 0.35277 h 0.705555 v -0.70555 h -1.058333 v -0.35278 h -0.352777 v -0.70555 h 0.352777 v -0.35278 h 1.41111 v 0.35278 h 0.352778 v 0.35277 h -0.705555 v -0.35277 h -0.705555 v 0.70555 h 1.058332 v 0.35278 h 0.352778 v 0.70555 h -0.352778 v 0.35278 z m 2.82222,0 v -2.11666 h -0.705555 v -0.35278 h 2.116665 v 0.35278 h -0.705555 v 2.11666 z m 2.116665,0 v -0.35278 h -0.352777 v -1.76388 h 0.352777 v -0.35278 h 1.41111 v 0.35278 h 0.352778 v 1.76388 h -0.352778 v 0.35278 z m 0.352778,-0.35278 h 0.705555 v -1.76388 h -0.705555 z m 1.763888,0.35278 v -2.46944 h 1.763887 v 0.35278 h 0.352778 v 0.70555 h -0.352778 v 0.35278 h -0.352777 v 0.35278 h 0.352777 v 0.35277 h 0.352778 v 0.35278 h -0.705555 v -0.35278 h -0.352778 v -0.35277 h -0.352777 v 0.70555 z m 0.705555,-1.41111 h 0.705555 v -0.70555 h -0.705555 z"
       id="path42"
       inkscape:label="stor"
       aria-label="STOR" /><path
       style="font-size:2.82222px;font-family:'C64 User';-inkscape-font-specification:'C64 User';text-align:center;text-anchor:middle;fill:#ffffff;stroke-width:0.265;stroke-dasharray:0.264999, 0.264999"
       d="M 42.882511,87.469443 V 85 h 1.763887 v 0.352778 h 0.352778 v 0.705555 h -0.352778 v 0.352777 h -0.352777 v 0.352778 h 0.352777 v 0.352777 h 0.352778 v 0.352778 h -0.705555 v -0.352778 h -0.352778 v -0.352777 h -0.352777 v 0.705555 z m 0.705555,-1.41111 h 0.705555 V 85.352778 H 43.588066 Z M 47.468618,85 v 0.352778 h -1.41111 v 0.705555 h 0.705555 v 0.352777 h -0.705555 v 0.705555 h 1.41111 v 0.352778 H 45.351953 V 85 Z m 0.705555,2.469443 v -0.352778 h -0.352777 v -1.763887 h 0.352777 V 85 h 1.41111 v 0.352778 h 0.352778 v 0.352777 h -0.705555 v -0.352777 h -0.705555 v 1.763887 h 0.705555 v -0.352777 h 0.705555 v 0.352777 h -0.352778 v 0.352778 z M 50.996394,85 v 2.116665 h 1.41111 v 0.352778 H 50.290839 V 85 Z"
       id="path43"
       inkscape:label="recl"
       aria-label="RECL" /><path
       style="font-size:2.82222px;font-family:'C64 User';-inkscape-font-specification:'C64 User';text-align:center;text-anchor:middle;fill:#ffffff;stroke-width:0.265;stroke-dasharray:0.264999, 0.264999"
       d="M 42.882511,27.469442 V 25 h 1.763887 v 0.352777 h 0.352778 v 0.705555 h -0.352778 v 0.352778 h -1.058332 v 1.058332 z m 0.705555,-1.41111 h 0.705555 v -0.705555 h -0.705555 z m 1.763887,1.41111 V 25 h 1.763888 v 0.352777 h 0.352777 v 0.705555 h -0.352777 v 0.352778 h -0.352778 v 0.352777 h 0.352778 v 0.352778 h 0.352777 v 0.352777 h -0.705555 v -0.352777 h -0.352777 v -0.352778 h -0.352778 v 0.705555 z m 0.705555,-1.41111 h 0.705555 v -0.705555 h -0.705555 z m 2.116665,1.41111 v -0.352777 h -0.352777 v -1.763888 h 0.352777 V 25 h 1.41111 v 0.352777 h 0.352778 v 1.763888 h -0.352778 v 0.352777 z m 0.352778,-0.352777 h 0.705555 v -1.763888 h -0.705555 z m 2.116665,0.352777 v -0.352777 h -0.352777 v -1.763888 h 0.352777 V 25 h 1.41111 v 0.352777 h 0.352778 v 0.352778 h -0.705555 v -0.352778 h -0.705555 v 1.763888 h 0.705555 V 26.41111 h -0.352778 v -0.352778 h 1.058333 v 1.058333 h -0.352778 v 0.352777 z"
       id="path44"
       inkscape:label="prog"
       aria-label="PROG" /><path
       style="font-size:2.82222px;font-family:'C64 User';-inkscape-font-specification:'C64 User';text-align:center;text-orientation:upright;text-anchor:middle;fill:#ffffff;stroke-width:0.31"
       d="m 26.752778,110.31383 v -0.35278 H 26.4 v -1.76389 h 0.352778 v -0.35278 h 1.41111 v 0.35278 h 0.352777 v 1.76389 h -0.352777 v 0.35278 z m 0.352777,-0.35278 h 0.705555 v -1.76389 h -0.705555 z m 2.116665,0.35278 v -0.35278 h -0.352777 v -2.11667 h 0.705555 v 2.11667 h 0.705555 v -2.11667 h 0.705555 v 2.11667 H 30.63333 v 0.35278 z m 2.82222,0 v -2.11667 h -0.705555 v -0.35278 h 2.116666 v 0.35278 h -0.705555 v 2.11667 z"
       id="path45"
       inkscape:label="OUT"
       aria-label="OUT" /><path
       style="font-size:2.82222px;font-family:'C64 User';-inkscape-font-specification:'C64 User';text-align:center;text-orientation:upright;text-anchor:middle;fill:#ffffff;stroke-width:0.31"
       d="m 7.0055586,110.31383 v -2.11667 h -0.705555 v -0.35278 h 2.1166651 v 0.35278 h -0.705555 v 2.11667 z m 1.7638876,0 v -2.46945 h 1.7638878 v 0.35278 h 0.352777 v 0.70556 h -0.352777 v 0.35277 h -0.352778 v 0.35278 h 0.352778 v 0.35278 h 0.352777 v 0.35278 h -0.705555 v -0.35278 H 9.8277788 v -0.35278 H 9.4750012 v 0.70556 z m 0.705555,-1.41111 h 0.7055548 v -0.70556 H 9.4750012 Z m 3.1749978,-1.05834 v 0.35278 h -0.352778 v 1.76389 h 0.352778 v 0.35278 h -1.41111 v -0.35278 h 0.352777 v -1.76389 h -0.352777 v -0.35278 z m 0.705555,2.46945 v -0.35278 h -0.352778 v -1.76389 h 0.352778 v -0.35278 h 1.41111 v 0.35278 h 0.352777 v 0.35278 h -0.705555 v -0.35278 h -0.705555 v 1.76389 h 0.705555 v -0.70556 h -0.352777 v -0.35277 h 1.058332 v 1.05833 h -0.352777 v 0.35278 z"
       id="path46"
       inkscape:label="TRIG"
       aria-label="TRIG" /><path
       style="font-size:2.82222px;font-family:'C64 User';-inkscape-font-specification:'C64 User';text-align:center;text-orientation:upright;text-anchor:middle;fill:#ffffff;stroke-width:0.31"
       d="M 29.252778,92.469444 V 92.116667 H 28.9 v -1.763888 h 0.352778 v -0.352777 h 1.41111 v 0.352777 h 0.352777 v 0.352778 H 30.31111 v -0.352778 h -0.705555 v 1.763888 h 0.705555 v -0.352778 h 0.705555 v 0.352778 h -0.352777 v 0.352777 z m 2.82222,-2.469442 v 2.116665 h 1.41111 v 0.352777 h -2.116665 v -2.469442 z m 1.763887,2.469442 v -2.469442 h 1.763888 v 0.352777 h 0.352778 v 0.705555 h -0.352778 v 0.352778 h -0.352777 v 0.352777 h 0.352777 v 0.352778 h 0.352778 v 0.352777 H 35.249996 V 92.116667 H 34.897218 V 91.763889 H 34.54444 v 0.705555 z m 0.705555,-1.41111 h 0.705556 V 90.352779 H 34.54444 Z"
       id="path47"
       inkscape:label="CLR"
       aria-label="CLR" /><path
       style="font-size:2.82222px;font-family:'C64 User';-inkscape-font-specification:'C64 User';text-align:center;text-orientation:upright;text-anchor:middle;fill:#ffffff;stroke-width:0.31"
       d="m 17.000001,92.469444 v -2.469442 h 1.763887 v 0.352777 h 0.352778 v 0.705555 h -0.352778 v 0.352778 h -0.352777 v 0.352777 h 0.352777 v 0.352778 h 0.352778 v 0.352777 h -0.705555 v -0.352777 h -0.352778 v -0.352778 h -0.352777 v 0.705555 z m 0.705555,-1.41111 h 0.705555 v -0.705555 h -0.705555 z m 2.116665,1.41111 v -0.352777 h -0.352778 v -0.352778 h 0.705555 v 0.352778 h 0.705555 v -0.705555 h -1.058332 v -0.352778 h -0.352778 v -0.705555 h 0.352778 v -0.352777 h 1.41111 v 0.352777 h 0.352777 v 0.352778 h -0.705555 v -0.352778 h -0.705555 v 0.705555 h 1.058333 v 0.352778 h 0.352777 v 0.705555 h -0.352777 v 0.352777 z m 2.82222,0 v -2.116665 h -0.705555 v -0.352777 h 2.116665 v 0.352777 h -0.705555 v 2.116665 z"
       id="path48"
       inkscape:label="RST"
       aria-label="RST" /><path
       style="font-size:3.175px;font-family:'C64 User';-inkscape-font-specification:'C64 User';text-align:center;text-orientation:upright;text-anchor:middle;fill:#ffffff;stroke-width:0.31"
       d="m 4.8559006,92.469444 v -0.396875 h -0.396875 v -1.984375 h 0.396875 v -0.396875 h 1.5875 v 0.396875 h 0.396875 v 0.396875 h -0.79375 v -0.396875 h -0.79375 v 1.984375 h 0.79375 v -0.396875 h 0.79375 v 0.396875 h -0.396875 v 0.396875 z m 3.1750001,-2.778125 v 2.38125 h 1.5874999 v 0.396875 H 7.2371507 v -2.778125 z m 1.9843753,2.778125 v -2.778125 h 0.79375 v 0.79375 h 0.396875 v -0.396875 h 0.396875 v -0.396875 h 0.79375 v 0.396875 h -0.396875 v 0.396875 h -0.396875 v 0.396875 h -0.396875 v 0.396875 h 0.396875 v 0.396875 h 0.396875 v 0.396875 h 0.396875 v 0.396875 h -0.79375 v -0.396875 h -0.396875 v -0.396875 h -0.396875 v 0.79375 z"
       id="path49"
       inkscape:label="CLOCK"
       aria-label="CLK" /><path
       style="font-size:2.82222px;font-family:'C64 User';-inkscape-font-specification:'C64 User';text-align:center;text-orientation:upright;text-anchor:middle;fill:#ffffff;stroke-width:0.31"
       d="m 28.9,63.931084 v -2.469443 h 1.763888 v 0.352778 h 0.352777 v 0.705555 h -0.352777 v 0.352777 H 30.31111 v 0.352778 h 0.352778 v 0.352777 h 0.352777 v 0.352778 H 30.31111 v -0.352778 h -0.352777 v -0.352777 h -0.352778 v 0.705555 z m 0.705555,-1.41111 h 0.705555 v -0.705555 h -0.705555 z m 1.763888,1.41111 v -2.469443 h 0.705555 v 0.352778 h 0.352777 v 0.352777 h 0.352778 v -0.705555 h 0.705555 v 2.469443 h -0.705555 v -0.705555 h -0.352778 v -0.352778 h -0.352777 v 1.058333 z m 2.469442,0 v -2.469443 h 1.411111 v 0.352778 h 0.352777 v 0.352777 h 0.352778 v 1.058333 h -0.352778 v 0.352777 h -0.352777 v 0.352778 z m 0.705555,-0.352778 h 0.352778 v -0.352777 h 0.352778 V 62.167196 H 34.897218 V 61.814419 H 34.54444 Z"
       id="path50"
       inkscape:label="RND"
       aria-label="RND" /><path
       style="font-size:2.82222px;font-family:'C64 User';-inkscape-font-specification:'C64 User';text-align:center;text-orientation:upright;text-anchor:middle;fill:#ffffff;stroke-width:0.31"
       d="m 17.000001,63.931084 v -1.763888 h 0.352777 v -0.352777 h 0.352778 v -0.352778 h 0.705555 v 0.352778 h 0.352777 v 0.352777 h 0.352778 v 1.763888 h -0.705555 v -1.058333 h -0.705555 v 1.058333 z m 0.705555,-1.41111 h 0.705555 v -0.352778 h -0.705555 z m 1.763887,1.41111 v -2.469443 h 1.41111 v 0.352778 h 0.352778 v 0.352777 h 0.352777 v 1.058333 h -0.352777 v 0.352777 h -0.352778 v 0.352778 z m 0.705555,-0.352778 h 0.352778 v -0.352777 h 0.352777 v -1.058333 h -0.352777 v -0.352777 h -0.352778 z m 1.763888,0.352778 v -2.469443 h 1.41111 v 0.352778 h 0.352777 v 0.352777 h 0.352778 v 1.058333 h -0.352778 v 0.352777 h -0.352777 v 0.352778 z m 0.705555,-0.352778 h 0.352777 v -0.352777 h 0.352778 v -1.058333 h -0.352778 v -0.352777 h -0.352777 z"
       id="path51"
       inkscape:label="ADD"
       aria-label="ADD" /><path
       style="font-size:2.82222px;font-family:'C64 User';-inkscape-font-specification:'C64 User';text-align:center;text-orientation:upright;text-anchor:middle;fill:#ffffff;stroke-width:0.31"
       d="m 4.9000003,63.931084 v -2.469443 h 1.41111 v 0.352778 h 0.3527775 v 0.352777 h 0.3527775 v 1.058333 H 6.6638878 v 0.352777 H 6.3111103 v 0.352778 z m 0.705555,-0.352778 H 5.9583328 V 63.225529 H 6.3111103 V 62.167196 H 5.9583328 V 61.814419 H 5.6055553 Z m 3.8805526,-2.116665 v 0.352778 h -1.41111 v 0.705555 h 0.705555 v 0.352777 h -0.705555 v 0.705555 h 1.41111 v 0.352778 h -2.116665 v -2.469443 z m 1.0583321,0 v 2.116665 h 1.411111 v 0.352778 H 9.8388855 v -2.469443 z"
       id="path52"
       inkscape:label="DEL"
       aria-label="DEL" /><path
       style="font-size:2.82222px;font-family:'C64 User';-inkscape-font-specification:'C64 User';text-align:center;text-orientation:upright;text-anchor:middle;fill:#ffffff;stroke-width:0.31"
       d="M 25.255778,45.369442 V 45.016664 H 24.903 v -0.352777 h 0.705555 v 0.352777 H 26.31411 V 44.311109 H 25.255778 V 43.958332 H 24.903 v -0.705555 h 0.352778 v -0.352778 h 1.41111 v 0.352778 h 0.352777 v 0.352777 H 26.31411 v -0.352777 h -0.705555 v 0.705555 h 1.058333 v 0.352777 h 0.352777 v 0.705555 h -0.352777 v 0.352778 z m 2.469442,0 v -0.352778 h -0.352777 v -1.763887 h 0.352777 v -0.352778 h 1.41111 v 0.352778 h 0.352778 v 0.352777 h -0.705555 v -0.352777 h -0.705555 v 1.763887 h 0.705555 v -0.352777 h 0.705555 v 0.352777 H 29.13633 v 0.352778 z m 2.116666,0 v -1.763888 h 0.352777 v -0.352777 h 0.352778 v -0.352778 h 0.705555 v 0.352778 h 0.352777 v 0.352777 h 0.352778 v 1.763888 h -0.705555 v -1.058333 h -0.705555 v 1.058333 z m 0.705555,-1.41111 h 0.705555 v -0.352778 h -0.705555 z m 2.469442,-1.058333 v 2.116665 h 1.41111 v 0.352778 h -2.116665 v -2.469443 z m 3.880553,0 v 0.352778 h -1.41111 v 0.705555 h 0.705555 v 0.352777 h -0.705555 v 0.705555 h 1.41111 v 0.352778 h -2.116665 v -2.469443 z"
       id="path53"
       inkscape:label="SCALE"
       aria-label="SCALE" /><path
       style="font-size:2.46944px;font-family:'C64 User';-inkscape-font-specification:'C64 User';text-align:center;text-orientation:upright;text-anchor:middle;fill:#ffffff;stroke-width:0.31"
       d="m 13.371928,54.46751 v -0.30868 h 0.61736 v -0.92604 h -0.30868 v -0.30868 h 0.30868 v -0.61736 h 0.61736 v 1.85208 h 0.61736 v 0.30868 z m 2.77812,-0.30868 h 0.61736 v -0.61736 h -0.61736 z m -0.30868,0.30868 v -0.30868 h -0.30868 v -1.5434 h 0.30868 v -0.30868 h 1.23472 v 0.30868 h 0.30868 v 0.30868 h -0.61736 v -0.30868 h -0.61736 v 0.61736 h 0.92604 v 0.30868 h 0.30868 v 0.61736 h -0.30868 v 0.30868 z"
       id="path54"
       inkscape:label="16"
       aria-label="16" /><path
       style="font-size:2.46944px;font-family:'C64 User';-inkscape-font-specification:'C64 User';text-align:center;text-orientation:upright;text-anchor:middle;fill:#ffffff;stroke-width:0.31"
       d="M 18.237062,49.75758 V 49.4489 h 0.61736 v -0.92604 h -0.30868 v -0.30868 h 0.30868 v -0.61736 h 0.61736 v 1.85208 h 0.61736 v 0.30868 z m 3.39548,0 v -0.61736 h -1.23472 v -0.61736 h 0.61736 v 0.30868 h 0.61736 v -0.30868 h -0.61736 v -0.30868 h 0.30868 V 47.9055 h 0.30868 v -0.30868 h 0.61736 v 1.23472 h 0.30868 v 0.30868 h -0.30868 v 0.61736 z"
       id="path55"
       inkscape:label="14"
       aria-label="14" /><path
       style="font-size:2.46944px;font-family:'C64 User';-inkscape-font-specification:'C64 User';text-align:center;text-orientation:upright;text-anchor:middle;fill:#ffffff;stroke-width:0.31"
       d="m 18.453864,44.441612 v -0.30868 h 0.61736 v -0.92604 h -0.30868 v -0.30868 h 0.30868 v -0.61736 h 0.61736 v 1.85208 h 0.61736 v 0.30868 z m 2.16076,0 v -0.61736 h 0.30868 v -0.30868 h 0.61736 v -0.30868 h 0.30868 v -0.61736 h -0.61736 v 0.30868 h -0.61736 v -0.30868 h 0.30868 v -0.30868 h 1.23472 v 0.30868 h 0.30868 v 0.61736 h -0.30868 v 0.30868 h -0.61736 v 0.30868 l -0.30868,-0.0012 v 0.309886 h 1.23472 v 0.30868 z"
       id="path56"
       inkscape:label="12"
       aria-label="12" /><path
       style="font-size:2.46944px;font-family:'C64 User';-inkscape-font-specification:'C64 User';text-align:center;text-orientation:upright;text-anchor:middle;fill:#ffffff;stroke-width:0.31"
       d="m 13.701845,39.670849 v -0.30868 h 0.61736 v -0.92604 h -0.30868 v -0.30868 h 0.30868 v -0.61736 h 0.61736 v 1.85208 h 0.61736 v 0.30868 z m 2.46944,0 v -0.30868 h -0.30868 v -1.5434 h 0.30868 v -0.30868 h 1.23472 v 0.30868 h 0.30868 v 1.5434 h -0.30868 v 0.30868 z m 0.30868,-0.30868 h 0.61736 v -0.92604 h -0.30868 v -0.30868 h 0.30868 v -0.30868 h -0.61736 v 0.61736 h 0.30868 v 0.30868 h -0.30868 z"
       id="path57"
       inkscape:label="10"
       aria-label="10" /><path
       style="font-size:2.46944px;font-family:'C64 User';-inkscape-font-specification:'C64 User';text-align:center;text-orientation:upright;text-anchor:middle;fill:#ffffff;stroke-width:0.31"
       d="m 9.539729,39.189758 v -0.30868 h -0.30868 v -0.61736 h 0.30868 v -0.30868 h -0.30868 v -0.61736 h 0.30868 v -0.30868 h 1.23472 v 0.30868 h 0.30868 v 0.61736 h -0.30868 v 0.30868 h 0.30868 v 0.61736 h -0.30868 v 0.30868 z m 0.30868,-1.23472 h 0.61736 v -0.61736 h -0.61736 z m 0,0.92604 h 0.61736 v -0.61736 h -0.61736 z"
       id="path58"
       inkscape:label="8"
       aria-label="8" /><path
       style="font-size:2.46944px;font-family:'C64 User';-inkscape-font-specification:'C64 User';text-align:center;text-orientation:upright;text-anchor:middle;fill:#ffffff;stroke-width:0.31"
       d="m 5.1045245,41.357317 h 0.61736 v -0.61736 h -0.61736 z m -0.30868,0.30868 v -0.30868 h -0.30868 v -1.5434 h 0.30868 v -0.30868 h 1.23472 v 0.30868 h 0.30868 v 0.30868 h -0.61736 v -0.30868 h -0.61736 v 0.61736 h 0.92604 v 0.30868 h 0.30868 v 0.61736 h -0.30868 v 0.30868 z"
       id="path59"
       inkscape:label="6"
       aria-label="6" /><path
       style="font-size:2.46944px;font-family:'C64 User';-inkscape-font-specification:'C64 User';text-align:center;text-orientation:upright;text-anchor:middle;fill:#ffffff;stroke-width:0.31"
       d="m 3.6034937,47.00071 v -0.61736 h -1.23472 v -0.61736 h 0.61736 v 0.30868 h 0.61736 v -0.30868 h -0.61736 v -0.30868 h 0.30868 v -0.30868 h 0.30868 v -0.30868 h 0.61736 v 1.23472 h 0.30868 v 0.30868 h -0.30868 v 0.61736 z"
       id="path60"
       inkscape:label="4"
       aria-label="4" /><path
       style="font-size:2.46944px;font-family:'C64 User';-inkscape-font-specification:'C64 User';text-align:center;text-orientation:upright;text-anchor:middle;fill:#ffffff;stroke-width:0.31"
       d="m 4.1548557,51.941814 v -0.61736 h 0.30868 v -0.30868 h 0.61736 v -0.30868 h 0.30868 v -0.61736 h -0.61736 v 0.30868 h -0.61736 v -0.30868 h 0.30868 v -0.30868 h 1.23472 v 0.30868 h 0.30868 v 0.61736 h -0.30868 v 0.30868 h -0.61736 v 0.30868 l -0.30868,-0.0012 v 0.309885 h 1.23472 v 0.30868 z"
       id="path61"
       inkscape:label="2"
       aria-label="2" /><path
       style="font-size:2.82222px;font-family:'C64 User';-inkscape-font-specification:'C64 User';text-align:center;text-orientation:upright;text-anchor:middle;fill:#ffffff;stroke-width:0.31"
       d="m 5.1960062,32.247999 v 2.116665 h 1.4111101 v 0.352778 H 4.4904512 v -2.469443 z m 3.8805527,0 v 0.352777 H 7.6654488 v 0.705556 h 0.705555 v 0.352777 h -0.705555 v 0.705555 h 1.4111101 v 0.352778 H 6.9598938 v -2.469443 z m 0.3527775,2.469443 v -2.469443 h 0.7055546 v 0.352777 h 0.352778 v 0.352778 h 0.352777 v -0.705555 h 0.705555 v 2.469443 h -0.705555 v -0.705555 h -0.352777 v -0.352778 h -0.352778 v 1.058333 z m 2.8222206,0 v -0.352778 h -0.352778 v -1.763888 h 0.352778 v -0.352777 h 1.41111 v 0.352777 h 0.352777 v 0.352778 h -0.705555 v -0.352778 h -0.705555 v 1.763888 h 0.705555 v -0.705555 h -0.352777 v -0.352777 h 1.058332 v 1.058332 h -0.352777 v 0.352778 z m 2.82222,0 v -2.116666 h -0.705555 v -0.352777 h 2.116665 v 0.352777 h -0.705555 v 2.116666 z m 1.763887,0 v -2.469443 h 0.705555 v 1.058333 h 0.705555 v -1.058333 h 0.705555 v 2.469443 h -0.705555 v -1.058333 h -0.705555 v 1.058333 z"
       id="path62"
       inkscape:label="LENGTH"
       aria-label="LENGTH" /><path
       style="font-size:3.52778px;font-family:'C64 User';-inkscape-font-specification:'C64 User';text-align:center;text-orientation:upright;text-anchor:middle;fill:#ffffff;stroke-width:0.31"
       d="M 4.8950735,16.089876 V 15.648904 H 4.454101 v -2.204863 h 0.4409725 v -0.440972 h 1.76389 v 0.440972 H 7.099936 v 0.440973 H 6.217991 V 13.444041 H 5.336046 v 2.204863 h 0.881945 v -0.440973 h 0.881945 v 0.440973 H 6.6589635 v 0.440972 z m 3.52778,0 v -2.645835 h -0.881945 v -0.440972 h 2.6458345 v 0.440972 H 9.3047985 v 2.645835 z m 2.2048625,0 v -3.086807 h 2.204862 v 0.440972 h 0.440973 v 0.881945 h -0.440973 v 0.440973 h -0.440972 v 0.440972 h 0.440972 v 0.440973 h 0.440973 v 0.440972 h -0.881945 v -0.440972 h -0.440973 v -0.440973 h -0.440972 v 0.881945 z m 0.881945,-1.76389 h 0.881945 v -0.881945 h -0.881945 z m 3.086808,-1.322917 v 2.645835 h 1.76389 v 0.440972 h -2.645835 v -3.086807 z"
       id="path63"
       inkscape:label="CTRL"
       aria-label="CTRL" /></g><g
     inkscape:label="header footer"
     inkscape:groupmode="layer"
     id="layer1"
     style="display:inline"
     transform="translate(7.6200008)"><rect
       style="display:inline;fill:#00000a;fill-opacity:1;stroke:#666699;stroke-width:0.4;stroke-dasharray:none;stroke-dashoffset:0;stroke-opacity:1"
       id="rect1447-8"
       width="24.287165"
       height="3.6871655"
       x="8.1764174"
       y="124.256"
       inkscape:label="footer rect"
       ry="1.2" /><g
       aria-label="sickozell"
       id="text1308"
       style="font-size:3.175px;font-family:'C64 User';-inkscape-font-specification:'C64 User';display:inline;fill:#cccccc;fill-opacity:1;stroke-width:0.264583"
       inkscape:label="sickozell"
       transform="translate(7.7258462,0.78403698)"><path
         d="m 4.0613409,124.52178 v 0.39688 h -1.5875 v 0.39687 h 1.190625 v 0.39688 h 0.396875 v 0.39687 h -0.396875 v 0.39688 h -1.984375 v -0.39688 h 1.5875 v -0.39687 h -1.190625 v -0.39688 h -0.396875 v -0.39687 h 0.396875 v -0.39688 z"
         style="fill:#cccccc;fill-opacity:1"
         id="path1312" /><path
         d="m 4.458216,126.50616 v -0.39688 h 0.3968749 v -0.79375 H 4.458216 v -0.39687 h 1.1906249 v 1.19062 h 0.396875 v 0.39688 z m 0.3968749,-1.98438 v -0.39687 h 0.79375 v 0.39687 z"
         style="fill:#cccccc;fill-opacity:1"
         id="path1314" /><path
         d="m 6.8394657,126.50616 v -0.39688 h -0.396875 v -1.19062 h 0.396875 v -0.39688 h 1.5875 v 0.39688 h -1.190625 v 1.19062 h 1.190625 v 0.39688 z"
         style="fill:#cccccc;fill-opacity:1"
         id="path1316" /><path
         d="m 8.8238411,126.50616 v -2.38125 h 0.79375 v 1.19062 h 0.3968749 v -0.39687 h 0.79375 v 0.39687 h -0.396875 v 0.39688 h 0.396875 v 0.39687 h 0.396875 v 0.39688 h -0.79375 v -0.39688 h -0.396875 v -0.39687 H 9.6175911 v 0.79375 z"
         style="fill:#cccccc;fill-opacity:1"
         id="path1318" /><path
         d="m 11.998841,126.50616 v -0.39688 h -0.396875 v -1.19062 h 0.396875 v -0.39688 h 1.5875 v 0.39688 h 0.396875 v 1.19062 h -0.396875 v 0.39688 z m 0.396875,-0.39688 h 0.79375 v -1.19062 h -0.79375 z"
         style="fill:#cccccc;fill-opacity:1"
         id="path1320" /><path
         d="m 14.380091,126.50616 v -0.39688 h 0.396875 v -0.39687 h 0.396875 v -0.39688 h 0.396875 v -0.39687 h -1.190625 v -0.39688 h 2.38125 v 0.39688 h -0.396875 v 0.39687 h -0.396875 v 0.39688 h -0.396875 v 0.39687 h 1.190625 v 0.39688 z"
         style="fill:#cccccc;fill-opacity:1"
         id="path1322" /><path
         d="m 18.745715,124.91866 h -0.793749 v 0.39687 h 0.793749 z m 0.396875,-0.39688 v 0.39688 h 0.396875 v 0.79375 h -1.587499 v 0.39687 h 1.190624 v 0.39688 h -1.587499 v -0.39688 h -0.396875 v -1.19062 h 0.396875 v -0.39688 z"
         style="fill:#cccccc;fill-opacity:1"
         id="path1324" /><path
         d="m 21.126966,124.12491 v 1.98437 h 0.396875 v 0.39688 h -1.5875 v -0.39688 h 0.396875 v -1.5875 h -0.396875 v -0.39687 z"
         style="fill:#cccccc;fill-opacity:1"
         id="path1326" /><path
         d="m 23.111341,124.12491 v 1.98437 h 0.396875 v 0.39688 h -1.5875 v -0.39688 h 0.396875 v -1.5875 h -0.396875 v -0.39687 z"
         style="fill:#cccccc;fill-opacity:1"
         id="path1328" /></g><rect
       style="display:inline;fill:#00000a;fill-opacity:1;stroke:#666699;stroke-width:0.4;stroke-dasharray:none;stroke-dashoffset:0;stroke-opacity:1"
       id="rect2138"
       width="28.556297"
       height="5.2063303"
       x="6.041851"
       y="1.2260031"
       ry="1.8"
       inkscape:label="header rect" /><text
       xml:space="preserve"
       style="font-style:normal;font-variant:normal;font-weight:normal;font-stretch:normal;font-size:3.175px;font-family:'C64 User';-inkscape-font-specification:'C64 User';text-align:center;text-anchor:middle;display:none;fill:#ffffff;stroke-width:0.264583"
       x="20.518436"
       y="4.9781251"
       id="text1341"
       inkscape:label="randLoops"><tspan
         sodipodi:role="line"
         id="tspan1339"
         style="font-size:3.175px;text-align:center;text-anchor:middle;fill:#ffffff;stroke-width:0.264583"
         x="20.518436"
         y="4.9781251">randLoops</tspan></text><path
       d="m 8.0168741,4.9781251 v -1.984375 h 1.9843749 v 0.396875 h 0.396875 v 0.396875 H 9.6043741 v -0.396875 h -0.79375 v 1.5875 z m 3.1749999,0 v -0.396875 h -0.396875 v -0.396875 h 0.396875 v -0.396875 h 1.190625 v -0.396875 h -1.190625 v -0.396875 h 1.5875 v 0.396875 h 0.396875 v 1.5875 z m 0.396875,-0.396875 h 0.79375 v -0.396875 h -0.79375 z m 1.984375,0.396875 v -1.984375 h 1.984375 v 0.396875 h 0.396875 v 1.5875 h -0.79375 v -1.5875 h -0.79375 v 1.5875 z m 3.175,0 V 4.5812501 H 16.35125 v -0.79375 h 0.396874 v -0.396875 h 1.190625 v -0.79375 h 0.79375 v 2.38125 z m 0.396875,-0.396875 h 0.79375 v -0.79375 h -0.79375 z m 2.778125,-2.38125 v 2.38125 h 1.5875 v 0.396875 h -2.38125 v -2.778125 z m 2.38125,2.778125 v -0.396875 h -0.396875 v -1.190625 h 0.396875 v -0.396875 h 1.5875 v 0.396875 h 0.396875 v 1.190625 h -0.396875 v 0.396875 z m 0.396875,-0.396875 h 0.79375 v -1.190625 h -0.79375 z M 25.0825,4.9781251 V 4.5812501 H 24.685625 V 3.3906251 H 25.0825 V 2.9937501 H 26.67 v 0.396875 h 0.396875 v 1.190625 H 26.67 v 0.396875 z m 0.396875,-0.396875 h 0.79375 v -1.190625 h -0.79375 z m 1.984374,0.79375 v -2.38125 h 1.984375 v 0.396875 h 0.396875 v 0.79375 h -0.396875 v 0.396875 h -1.190625 v 0.79375 z m 0.79375,-1.190625 h 0.79375 v -0.79375 h -0.79375 z m 4.365625,-1.190625 v 0.396875 h -1.5875 v 0.396875 h 1.190625 v 0.396875 h 0.396875 v 0.396875 h -0.396875 v 0.396875 h -1.984374 v -0.396875 h 1.587499 v -0.396875 h -1.190625 v -0.396875 h -0.396874 v -0.396875 h 0.396874 v -0.396875 z"
       id="text1"
       style="font-size:3.175px;font-family:'C64 User';-inkscape-font-specification:'C64 User';text-align:center;text-anchor:middle;fill:#ffffff;stroke-width:0.264583"
       inkscape:label="randLoops"
       aria-label="randLoops" /></g></svg>
