<?xml version="1.0" encoding="UTF-8" standalone="no"?>
<!-- Created with Inkscape (http://www.inkscape.org/) -->

<svg
   width="40.639999mm"
   height="128.5mm"
   viewBox="0 0 40.64 128.5"
   version="1.1"
   id="svg5"
   inkscape:version="1.4 (86a8ad7, 2024-10-11)"
   sodipodi:docname="RandLoops.svg"
   xml:space="preserve"
   xmlns:inkscape="http://www.inkscape.org/namespaces/inkscape"
   xmlns:sodipodi="http://sodipodi.sourceforge.net/DTD/sodipodi-0.dtd"
   xmlns="http://www.w3.org/2000/svg"
   xmlns:svg="http://www.w3.org/2000/svg"><sodipodi:namedview
     id="namedview7"
     pagecolor="#ffffff"
     bordercolor="#000000"
     borderopacity="0.25"
     inkscape:showpageshadow="2"
     inkscape:pageopacity="0.0"
     inkscape:pagecheckerboard="0"
     inkscape:deskcolor="#d1d1d1"
     inkscape:document-units="mm"
     showgrid="false"
     inkscape:zoom="2.0000001"
     inkscape:cx="36.749998"
     inkscape:cy="336.74998"
     inkscape:window-width="1366"
     inkscape:window-height="705"
     inkscape:window-x="-8"
     inkscape:window-y="-8"
     inkscape:window-maximized="1"
     inkscape:current-layer="layer4"
     showguides="false" /><defs
     id="defs2"><rect
       x="22.799086"
       y="440.55881"
       width="6.0350523"
       height="22.128525"
       id="rect289" /></defs><g
     inkscape:groupmode="layer"
     id="layer3"
     inkscape:label="sfondo"
     transform="scale(1.7272727,1)"><rect
       style="fill:#00001f;fill-opacity:1;stroke-width:0.180064;image-rendering:auto"
       id="sfondo"
       width="23.528421"
       height="128.5"
       x="0"
       y="6.6613381e-16"
       inkscape:label="background"
       ry="0"
       sodipodi:insensitive="true" /></g><g
     inkscape:groupmode="layer"
     id="g7864"
     inkscape:label="stripes down"
     transform="matrix(0.53363033,0,0,0.77278577,7.6625706,123.58213)"
     style="display:inline;fill:#000000;stroke:none"><rect
       style="display:inline;fill:#0088ff;fill-opacity:1;stroke-width:0.402418"
       id="rect7854"
       width="59.966606"
       height="0.40000001"
       x="-6.2638321"
       y="5.0580001"
       inkscape:label="azzurro" /><rect
       style="display:inline;fill:#00cc55;fill-opacity:1;stroke-width:0.402418"
       id="rect7856"
       width="59.966606"
       height="0.40000001"
       x="-6.2638321"
       y="4.0580001"
       inkscape:label="verde" /><rect
       style="display:inline;fill:#eeee77;fill-opacity:1;stroke-width:0.402418"
       id="rect7858"
       width="59.966606"
       height="0.40000001"
       x="-6.2638321"
       y="3.0580001"
       inkscape:label="giallo" /><rect
       style="display:inline;fill:#ff7777;fill-opacity:1;stroke-width:0.402418"
       id="rect7860"
       width="59.966606"
       height="0.40000001"
       x="-6.2638321"
       y="2.0580001"
       inkscape:label="rosa" /><rect
       style="display:inline;fill:#bd0000;fill-opacity:1;stroke-width:0.402418"
       id="rect7862"
       width="59.966606"
       height="0.40000001"
       x="-6.2638321"
       y="1.0583332"
       inkscape:label="rosso" /></g><g
     inkscape:groupmode="layer"
     id="layer7"
     inkscape:label="stripes up"
     transform="matrix(0.53363032,0,0,1,7.2143353,0.59166683)"
     style="display:inline;fill:#000000;stroke:none"><rect
       style="display:inline;fill:#0088ff;fill-opacity:1;stroke-width:0.402418"
       id="rect1316"
       width="59.966606"
       height="0.40000001"
       x="-5.4238586"
       y="5.0580001"
       inkscape:label="azzurro" /><rect
       style="display:inline;fill:#00cc55;fill-opacity:1;stroke-width:0.402418"
       id="rect1313"
       width="59.966606"
       height="0.40000001"
       x="-5.4238586"
       y="4.0580001"
       inkscape:label="verde" /><rect
       style="display:inline;fill:#eeee77;fill-opacity:1;stroke-width:0.402418"
       id="rect1310"
       width="59.966606"
       height="0.40000001"
       x="-5.4238586"
       y="3.0580001"
       inkscape:label="giallo" /><rect
       style="display:inline;fill:#ff7777;fill-opacity:1;stroke-width:0.402418"
       id="rect989"
       width="59.966606"
       height="0.40000001"
       x="-5.4238586"
       y="2.0580001"
       inkscape:label="rosa" /><rect
       style="display:inline;fill:#bd0000;fill-opacity:1;stroke-width:0.402418"
       id="rect1308"
       width="59.966606"
       height="0.40000001"
       x="-5.4238586"
       y="1.0583332"
       inkscape:label="rosso" /></g><g
     inkscape:groupmode="layer"
     id="layer4"
     inkscape:label="Elementi"
     style="display:inline;fill:#f9f9f9"><rect
       style="display:inline;fill:#494983;fill-opacity:1;stroke:#666699;stroke-width:0.400005;stroke-dasharray:none;stroke-dashoffset:0;stroke-opacity:1"
       id="rect6777"
       width="38.239994"
       height="15.599995"
       x="1.2000027"
       y="106.36908"
       ry="2.0004508"
       inkscape:label="rect4" /><rect
       style="display:inline;fill:#000033;fill-opacity:1;stroke:#666699;stroke-width:0.400212;stroke-dasharray:none;stroke-dashoffset:0;stroke-opacity:1"
       id="rect1"
       width="38.239788"
       height="16.599789"
       x="1.200106"
       y="87.700104"
       ry="2"
       inkscape:label="rect3" /><rect
       style="display:inline;fill:#000033;fill-opacity:1;stroke:#666699;stroke-width:0.399908;stroke-dasharray:none;stroke-dashoffset:0;stroke-opacity:1"
       id="rect930"
       width="38.240089"
       height="26.600092"
       x="1.1999538"
       y="59.199955"
       ry="2"
       inkscape:label="rect3" /><rect
       style="display:inline;fill:#000033;fill-opacity:1;stroke:#666699;stroke-width:0.400005;stroke-dasharray:none;stroke-dashoffset:0;stroke-opacity:1"
       id="rect6775"
       width="38.239994"
       height="49.099995"
       x="1.200264"
       y="8.200263"
       ry="2"
       inkscape:label="rect1" /><path
       style="display:inline;fill:none;stroke:#ededed;stroke-width:0.4;stroke-dasharray:none;stroke-dashoffset:0;stroke-opacity:1"
       id="path896-0"
       inkscape:label="circle3"
       sodipodi:type="arc"
       sodipodi:cx="30.900219"
       sodipodi:cy="49.400227"
       sodipodi:rx="4.4000001"
       sodipodi:ry="4.4000001"
       sodipodi:start="2.0943951"
       sodipodi:end="1.0471976"
       sodipodi:arc-type="arc"
       d="m 28.700219,53.210738 a 4.4000001,4.4000001 0 0 1 -2.050074,-4.949315 4.4000001,4.4000001 0 0 1 4.250074,-3.261197 4.4000001,4.4000001 0 0 1 4.250074,3.261197 4.4000001,4.4000001 0 0 1 -2.050074,4.949316"
       sodipodi:open="true" /><rect
       style="display:inline;fill:#ededed;fill-opacity:1;stroke:none;stroke-width:0.375045;stroke-dasharray:none"
       id="rect110"
       width="0.62838537"
       height="0.95759505"
       x="2.0796309"
       y="62.416088"
       ry="0.087054096"
       inkscape:label="line circle 2"
       transform="rotate(-29.745297)" /><path
       style="display:inline;fill:none;stroke:#ececec;stroke-width:0.399999;stroke-dasharray:none;stroke-dashoffset:0;stroke-opacity:1"
       id="path896"
       inkscape:label="circle2"
       sodipodi:type="arc"
       sodipodi:cx="11.700341"
       sodipodi:cy="44.500317"
       sodipodi:rx="5.5"
       sodipodi:ry="5.5"
       sodipodi:start="2.0943951"
       sodipodi:end="1.0471976"
       sodipodi:arc-type="arc"
       d="m 8.9503412,49.263456 a 5.5,5.5 0 0 1 -2.562592,-6.186644 5.5,5.5 0 0 1 5.3125918,-4.076495 5.5,5.5 0 0 1 5.312592,4.076495 5.5,5.5 0 0 1 -2.562592,6.186644"
       sodipodi:open="true" /><rect
       style="display:inline;fill:#ececec;fill-opacity:1;stroke:none;stroke-width:0.375045;stroke-dasharray:none"
       id="rect10514"
       width="0.62838537"
       height="0.95759505"
       x="25.679518"
       y="11.1"
       ry="0.087054096"
       inkscape:label="line circle 1" /><path
       style="display:inline;fill:none;stroke:#ececec;stroke-width:0.5;stroke-dasharray:none;stroke-dashoffset:0;stroke-opacity:1"
       id="path78329"
       inkscape:label="circle1"
       sodipodi:type="arc"
       sodipodi:cx="25.99371"
       sodipodi:cy="20.593142"
       sodipodi:rx="8.443141"
       sodipodi:ry="8.443141"
       sodipodi:start="2.0943951"
       sodipodi:end="1.0471976"
       sodipodi:arc-type="arc"
       d="m 21.772139,27.905116 a 8.443141,8.443141 0 0 1 -3.933877,-9.49722 8.443141,8.443141 0 0 1 8.155448,-6.257895 8.443141,8.443141 0 0 1 8.155448,6.257895 8.443141,8.443141 0 0 1 -3.933878,9.49722"
       sodipodi:open="true" /><path
       style="display:inline;fill:#000000;stroke:#51517a;stroke-width:0.4;stroke-opacity:1"
       d="m 8.4279548,75.170467 -9.09e-5,-1.870438"
       id="path43838"
       sodipodi:nodetypes="cc"
       inkscape:label="path2" /><path
       style="display:inline;fill:#000000;stroke:#51517a;stroke-width:0.4;stroke-opacity:1"
       d="m 32.428043,75.170467 -2.68e-4,-1.870438"
       id="path78"
       sodipodi:nodetypes="cc"
       inkscape:label="path1" /><path
       style="display:inline;fill:#000000;stroke:#51517a;stroke-width:0.4;stroke-opacity:1"
       d="m 14.37413,22.934174 2.171596,-0.717729"
       id="path1"
       sodipodi:nodetypes="cc"
       inkscape:label="path2" /><path
       style="display:inline;fill:#000000;stroke:#51517a;stroke-width:0.4;stroke-opacity:1"
       d="m 20.528043,75.170467 -2.68e-4,-1.870438"
       id="path2"
       sodipodi:nodetypes="cc"
       inkscape:label="path1" /></g><g
     inkscape:groupmode="layer"
     id="layer5"
     inkscape:label="Etichette Testo"
     style="display:none"><text
       xml:space="preserve"
       style="font-size:2.82222px;font-family:'C64 User';-inkscape-font-specification:'C64 User';text-align:center;writing-mode:lr-tb;text-orientation:upright;text-anchor:middle;display:inline;fill:#ffffff;stroke-width:0.309999"
       x="30.176388"
       y="110.31383"
       id="text2"
       inkscape:label="OUT"><tspan
         sodipodi:role="line"
         id="tspan2"
         style="font-size:2.82222px;writing-mode:lr-tb;fill:#ffffff;stroke-width:0.31"
         x="30.176388"
         y="110.31383">OUT</tspan></text><text
       xml:space="preserve"
       style="font-size:2.82222px;font-family:'C64 User';-inkscape-font-specification:'C64 User';text-align:center;writing-mode:lr-tb;text-orientation:upright;text-anchor:middle;display:inline;fill:#ffffff;stroke-width:0.309999"
       x="11.176389"
       y="110.31383"
       id="text3"
       inkscape:label="PULSE"><tspan
         sodipodi:role="line"
         id="tspan3"
         style="font-size:2.82222px;writing-mode:lr-tb;fill:#ffffff;stroke-width:0.31"
         x="11.176389"
         y="110.31383">PULSE</tspan></text><text
       xml:space="preserve"
       style="font-size:2.46944px;font-family:'C64 User';-inkscape-font-specification:'C64 User';text-align:center;writing-mode:lr-tb;text-orientation:upright;text-anchor:middle;display:inline;fill:#ffffff;stroke-width:0.309999"
       x="29.401899"
       y="92.469444"
       id="text7"
       inkscape:label="RND"><tspan
         sodipodi:role="line"
         id="tspan1"
         style="font-size:2.46944px;writing-mode:lr-tb;fill:#ffffff;stroke-width:0.31"
         x="29.401899"
         y="92.469444">RESET</tspan></text><text
       xml:space="preserve"
       style="font-size:2.82222px;font-family:'C64 User';-inkscape-font-specification:'C64 User';text-align:center;writing-mode:lr-tb;text-orientation:upright;text-anchor:middle;display:inline;fill:#ffffff;stroke-width:0.309999"
       x="11.673607"
       y="92.469444"
       id="text3245"
       inkscape:label="CLOCK"><tspan
         sodipodi:role="line"
         id="tspan3243"
         style="font-size:2.82222px;writing-mode:lr-tb;fill:#ffffff;stroke-width:0.31"
         x="11.673607"
         y="92.469444">CLOCK</tspan></text><text
       xml:space="preserve"
       style="font-size:2.82222px;font-family:'C64 User';-inkscape-font-specification:'C64 User';text-align:center;writing-mode:lr-tb;text-orientation:upright;text-anchor:middle;display:inline;fill:#ffffff;stroke-width:0.309999"
       x="32.604164"
       y="63.931084"
       id="text4"
       inkscape:label="RND"><tspan
         sodipodi:role="line"
         id="tspan4"
         style="font-size:2.82222px;writing-mode:lr-tb;fill:#ffffff;stroke-width:0.31"
         x="32.604164"
         y="63.931084">RND</tspan></text><text
       xml:space="preserve"
       style="font-size:2.82222px;font-family:'C64 User';-inkscape-font-specification:'C64 User';text-align:center;writing-mode:lr-tb;text-orientation:upright;text-anchor:middle;display:inline;fill:#ffffff;stroke-width:0.309999"
       x="20.704165"
       y="63.931084"
       id="text6"
       inkscape:label="ADD"><tspan
         sodipodi:role="line"
         id="tspan6"
         style="font-size:2.82222px;writing-mode:lr-tb;fill:#ffffff;stroke-width:0.31"
         x="20.704165"
         y="63.931084">ADD</tspan></text><text
       xml:space="preserve"
       style="font-size:2.82222px;font-family:'C64 User';-inkscape-font-specification:'C64 User';text-align:center;writing-mode:lr-tb;text-orientation:upright;text-anchor:middle;display:inline;fill:#ffffff;stroke-width:0.309999"
       x="8.6041641"
       y="63.931084"
       id="text5"
       inkscape:label="DEL"><tspan
         sodipodi:role="line"
         id="tspan5"
         style="font-size:2.82222px;writing-mode:lr-tb;fill:#ffffff;stroke-width:0.31"
         x="8.6041641"
         y="63.931084">DEL</tspan></text><text
       xml:space="preserve"
       style="font-size:2.82222px;font-family:'C64 User';-inkscape-font-specification:'C64 User';text-align:center;writing-mode:lr-tb;text-orientation:upright;text-anchor:middle;fill:#ffffff;stroke-width:0.309999"
       x="31.076607"
       y="42.918442"
       id="text3120"
       inkscape:label="SCALE"><tspan
         sodipodi:role="line"
         id="tspan3118"
         style="font-size:2.82222px;writing-mode:lr-tb;fill:#ffffff;stroke-width:0.31"
         x="31.076607"
         y="42.918442">SCALE</tspan></text><text
       xml:space="preserve"
       style="font-size:2.46944px;font-family:'C64 User';-inkscape-font-specification:'C64 User';text-align:center;writing-mode:lr-tb;text-orientation:upright;text-anchor:middle;display:inline;fill:#ffffff;stroke-width:0.309999"
       x="16.187498"
       y="52.827164"
       id="text18"
       inkscape:label="16"><tspan
         sodipodi:role="line"
         id="tspan18"
         style="font-size:2.46944px;writing-mode:lr-tb;fill:#ffffff;stroke-width:0.31"
         x="16.187498"
         y="52.827164">16</tspan></text><text
       xml:space="preserve"
       style="font-size:2.46944px;font-family:'C64 User';-inkscape-font-specification:'C64 User';text-align:center;writing-mode:lr-tb;text-orientation:upright;text-anchor:middle;display:inline;fill:#ffffff;stroke-width:0.309999"
       x="20.33399"
       y="47.946205"
       id="text17"
       inkscape:label="12"><tspan
         sodipodi:role="line"
         id="tspan17"
         style="font-size:2.46944px;writing-mode:lr-tb;fill:#ffffff;stroke-width:0.31"
         x="20.33399"
         y="47.946205">12</tspan></text><text
       xml:space="preserve"
       style="font-size:2.46944px;font-family:'C64 User';-inkscape-font-specification:'C64 User';text-align:center;writing-mode:lr-tb;text-orientation:upright;text-anchor:middle;display:inline;fill:#ffffff;stroke-width:0.309999"
       x="19.338457"
       y="42.460487"
       id="text15"
       inkscape:label="8"><tspan
         sodipodi:role="line"
         id="tspan15"
         style="font-size:2.46944px;writing-mode:lr-tb;fill:#ffffff;stroke-width:0.31"
         x="19.338457"
         y="42.460487">8</tspan></text><text
       xml:space="preserve"
       style="font-size:2.46944px;font-family:'C64 User';-inkscape-font-specification:'C64 User';text-align:center;writing-mode:lr-tb;text-orientation:upright;text-anchor:middle;display:inline;fill:#ffffff;stroke-width:0.309999"
       x="15.155839"
       y="38.435398"
       id="text13"
       inkscape:label="6"><tspan
         sodipodi:role="line"
         id="tspan13"
         style="font-size:2.46944px;writing-mode:lr-tb;fill:#ffffff;stroke-width:0.31"
         x="15.155839"
         y="38.435398">6</tspan></text><text
       xml:space="preserve"
       style="font-size:2.46944px;font-family:'C64 User';-inkscape-font-specification:'C64 User';text-align:center;writing-mode:lr-tb;text-orientation:upright;text-anchor:middle;display:inline;fill:#ffffff;stroke-width:0.309999"
       x="8.5784883"
       y="38.435398"
       id="text16"
       inkscape:label="5"><tspan
         sodipodi:role="line"
         id="tspan16"
         style="font-size:2.46944px;writing-mode:lr-tb;fill:#ffffff;stroke-width:0.31"
         x="8.5784883"
         y="38.435398">5</tspan></text><text
       xml:space="preserve"
       style="font-size:2.46944px;font-family:'C64 User';-inkscape-font-specification:'C64 User';text-align:center;writing-mode:lr-tb;text-orientation:upright;text-anchor:middle;display:inline;fill:#ffffff;stroke-width:0.309999"
       x="4.3986206"
       y="42.460487"
       id="text14"
       inkscape:label="4"><tspan
         sodipodi:role="line"
         id="tspan14"
         style="font-size:2.46944px;writing-mode:lr-tb;fill:#ffffff;stroke-width:0.31"
         x="4.3986206"
         y="42.460487">4</tspan></text><text
       xml:space="preserve"
       style="font-size:2.46944px;font-family:'C64 User';-inkscape-font-specification:'C64 User';text-align:center;writing-mode:lr-tb;text-orientation:upright;text-anchor:middle;display:inline;fill:#ffffff;stroke-width:0.309999"
       x="7.7609329"
       y="52.827164"
       id="text44"
       inkscape:label="3"><tspan
         sodipodi:role="line"
         id="tspan44"
         style="font-size:2.46944px;writing-mode:lr-tb;fill:#ffffff;stroke-width:0.31"
         x="7.7609329"
         y="52.827164">2</tspan></text><text
       xml:space="preserve"
       style="font-size:2.46944px;font-family:'C64 User';-inkscape-font-specification:'C64 User';text-align:center;writing-mode:lr-tb;text-orientation:upright;text-anchor:middle;display:inline;fill:#ffffff;stroke-width:0.309999"
       x="4.1695633"
       y="47.946205"
       id="text11"
       inkscape:label="2"><tspan
         sodipodi:role="line"
         id="tspan11"
         style="font-size:2.46944px;writing-mode:lr-tb;fill:#ffffff;stroke-width:0.31"
         x="4.1695633"
         y="47.946205">3</tspan></text><text
       xml:space="preserve"
       style="font-size:2.82222px;font-family:'C64 User';-inkscape-font-specification:'C64 User';text-align:center;writing-mode:lr-tb;text-orientation:upright;text-anchor:middle;display:inline;fill:#ffffff;stroke-width:0.309999"
       x="11.898779"
       y="34.217442"
       id="text3183"
       inkscape:label="LENGTH"><tspan
         sodipodi:role="line"
         id="tspan3181"
         style="font-size:2.82222px;writing-mode:lr-tb;fill:#ffffff;stroke-width:0.31"
         x="11.898779"
         y="34.217442">LENGTH</tspan></text><text
       xml:space="preserve"
       style="font-size:3.52778px;font-family:'C64 User';-inkscape-font-specification:'C64 User';text-align:center;writing-mode:lr-tb;text-orientation:upright;text-anchor:middle;fill:#ffffff;stroke-width:0.309999"
       x="10.627716"
       y="16.089876"
       id="text3124"
       inkscape:label="CTRL"><tspan
         sodipodi:role="line"
         id="tspan3122"
         style="font-size:3.52778px;writing-mode:lr-tb;fill:#ffffff;stroke-width:0.31"
         x="10.627716"
         y="16.089876">CTRL</tspan></text></g><g
     inkscape:groupmode="layer"
     id="g49"
     inkscape:label="Etichette Testo nere"
     style="display:inline;fill:#000000"
     transform="translate(0.2998167,0.299931)"><path
       style="font-size:2.82222px;font-family:'C64 User';-inkscape-font-specification:'C64 User';text-align:center;text-orientation:upright;text-anchor:middle;fill:#000000;stroke-width:0.31"
       d="m 26.825001,110.31383 v -0.35278 h -0.352777 v -1.76389 h 0.352777 v -0.35278 h 1.41111 v 0.35278 h 0.352778 v 1.76389 h -0.352778 v 0.35278 z m 0.352778,-0.35278 h 0.705555 v -1.76389 h -0.705555 z m 2.116665,0.35278 v -0.35278 h -0.352777 v -2.11667 h 0.705555 v 2.11667 h 0.705555 v -2.11667 h 0.705555 v 2.11667 h -0.352778 v 0.35278 z m 2.82222,0 v -2.11667 h -0.705555 v -0.35278 h 2.116665 v 0.35278 h -0.705555 v 2.11667 z"
       id="path32"
       inkscape:label="OUT"
       aria-label="OUT" /><path
       style="font-size:2.82222px;font-family:'C64 User';-inkscape-font-specification:'C64 User';text-align:center;text-orientation:upright;text-anchor:middle;fill:#000000;stroke-width:0.31"
       d="m 5.0027823,110.31383 v -2.46945 h 1.7638876 v 0.35278 h 0.3527775 v 0.70556 H 6.7666699 v 0.35277 H 5.7083373 v 1.05834 z m 0.705555,-1.41111 h 0.705555 v -0.70556 h -0.705555 z m 2.1166651,1.41111 v -0.35278 H 7.4722249 v -2.11667 h 0.705555 v 2.11667 h 0.705555 v -2.11667 H 9.58889 v 2.11667 H 9.2361125 v 0.35278 z m 2.8222206,-2.46945 v 2.11667 h 1.41111 v 0.35278 H 9.9416675 v -2.46945 z m 2.116665,2.46945 v -0.35278 H 12.41111 v -0.35278 h 0.705555 v 0.35278 h 0.705555 v -0.70556 h -1.058332 v -0.35277 H 12.41111 v -0.70556 h 0.352778 v -0.35278 h 1.41111 v 0.35278 h 0.352777 v 0.35278 H 13.82222 v -0.35278 h -0.705555 v 0.70556 h 1.058333 v 0.35277 h 0.352777 v 0.70556 h -0.352777 v 0.35278 z m 4.23333,-2.46945 v 0.35278 h -1.41111 v 0.70556 h 0.705555 v 0.35277 h -0.705555 v 0.70556 h 1.41111 v 0.35278 h -2.116665 v -2.46945 z"
       id="path33"
       inkscape:label="PULSE"
       aria-label="PULSE" /><path
       style="font-size:2.46944px;font-family:'C64 User';-inkscape-font-specification:'C64 User';text-align:center;text-orientation:upright;text-anchor:middle;fill:#000000;stroke-width:0.31"
       d="m 23.999999,92.469446 v -2.16076 h 1.5434 v 0.30868 h 0.30868 v 0.61736 h -0.30868 v 0.30868 h -0.30868 v 0.30868 h 0.30868 v 0.30868 h 0.30868 v 0.30868 h -0.61736 v -0.30868 h -0.30868 v -0.30868 h -0.30868 v 0.61736 z m 0.61736,-1.23472 h 0.61736 v -0.61736 h -0.61736 z m 3.39548,-0.92604 v 0.30868 h -1.23472 v 0.61736 h 0.61736 v 0.30868 h -0.61736 v 0.61736 h 1.23472 v 0.30868 h -1.85208 v -2.16076 z m 0.61736,2.16076 v -0.30868 h -0.30868 v -0.30868 h 0.61736 v 0.30868 h 0.61736 v -0.61736 h -0.92604 v -0.30868 h -0.30868 v -0.61736 h 0.30868 v -0.30868 h 1.23472 v 0.30868 h 0.30868 v 0.30868 h -0.61736 v -0.30868 h -0.61736 v 0.61736 h 0.92604 v 0.30868 h 0.30868 v 0.61736 h -0.30868 v 0.30868 z m 3.70416,-2.16076 v 0.30868 h -1.23472 v 0.61736 h 0.61736 v 0.30868 h -0.61736 v 0.61736 h 1.23472 v 0.30868 h -1.85208 v -2.16076 z m 0.92604,2.16076 v -1.85208 h -0.61736 v -0.30868 h 1.85208 v 0.30868 h -0.61736 v 1.85208 z"
       id="path34"
       inkscape:label="RND"
       aria-label="RESET" /><path
       style="font-size:2.82222px;font-family:'C64 User';-inkscape-font-specification:'C64 User';text-align:center;text-orientation:upright;text-anchor:middle;fill:#000000;stroke-width:0.31"
       d="M 5.8527775,92.469446 V 92.116668 H 5.5 v -1.763887 h 0.3527775 v -0.352778 h 1.4111101 v 0.352778 h 0.3527775 v 0.352777 h -0.705555 v -0.352777 h -0.705555 v 1.763887 h 0.705555 v -0.352777 h 0.705555 v 0.352777 H 7.2638876 v 0.352778 z m 2.8222202,-2.469443 v 2.116665 h 1.4111103 v 0.352778 H 7.9694426 v -2.469443 z m 2.1166653,2.469443 v -0.352778 h -0.352778 v -1.763887 h 0.352778 v -0.352778 h 1.41111 v 0.352778 h 0.352778 v 1.763887 h -0.352778 v 0.352778 z m 0.352778,-0.352778 h 0.705555 v -1.763887 h -0.705555 z m 2.116665,0.352778 v -0.352778 h -0.352778 v -1.763887 h 0.352778 v -0.352778 h 1.41111 v 0.352778 h 0.352778 v 0.352777 h -0.705555 v -0.352777 h -0.705555 v 1.763887 h 0.705555 v -0.352777 h 0.705555 v 0.352777 h -0.352778 v 0.352778 z m 2.116665,0 v -2.469443 h 0.705555 v 0.705555 h 0.352777 v -0.352777 h 0.352778 v -0.352778 h 0.705555 v 0.352778 h -0.352778 v 0.352777 h -0.352777 v 0.352778 h -0.352778 v 0.352777 h 0.352778 v 0.352778 h 0.352777 v 0.352777 h 0.352778 v 0.352778 h -0.705555 v -0.352778 h -0.352778 v -0.352777 h -0.352777 v 0.705555 z"
       id="path35"
       inkscape:label="CLOCK"
       aria-label="CLOCK" /><path
       style="font-size:2.82222px;font-family:'C64 User';-inkscape-font-specification:'C64 User';text-align:center;text-orientation:upright;text-anchor:middle;fill:#000000;stroke-width:0.31"
       d="m 28.9,63.931084 v -2.469443 h 1.763887 v 0.352778 h 0.352778 v 0.705555 h -0.352778 v 0.352777 H 30.31111 v 0.352778 h 0.352777 v 0.352777 h 0.352778 v 0.352778 H 30.31111 v -0.352778 h -0.352778 v -0.352777 h -0.352777 v 0.705555 z m 0.705555,-1.41111 h 0.705555 v -0.705555 h -0.705555 z m 1.763887,1.41111 v -2.469443 h 0.705555 v 0.352778 h 0.352778 v 0.352777 h 0.352777 v -0.705555 h 0.705555 v 2.469443 h -0.705555 v -0.705555 h -0.352777 v -0.352778 h -0.352778 v 1.058333 z m 2.469443,0 v -2.469443 h 1.41111 v 0.352778 h 0.352778 v 0.352777 h 0.352777 v 1.058333 h -0.352777 v 0.352777 h -0.352778 v 0.352778 z m 0.705555,-0.352778 h 0.352778 v -0.352777 h 0.352777 V 62.167196 H 34.897218 V 61.814419 H 34.54444 Z"
       id="path36"
       inkscape:label="RND"
       aria-label="RND" /><path
       style="font-size:2.82222px;font-family:'C64 User';-inkscape-font-specification:'C64 User';text-align:center;text-orientation:upright;text-anchor:middle;fill:#000000;stroke-width:0.31"
       d="m 17,63.931084 v -1.763888 h 0.352777 v -0.352777 h 0.352778 v -0.352778 h 0.705555 v 0.352778 h 0.352777 v 0.352777 h 0.352778 v 1.763888 H 18.41111 v -1.058333 h -0.705555 v 1.058333 z m 0.705555,-1.41111 h 0.705555 v -0.352778 h -0.705555 z m 1.763887,1.41111 v -2.469443 h 1.41111 v 0.352778 h 0.352778 v 0.352777 h 0.352777 v 1.058333 H 21.23333 v 0.352777 h -0.352778 v 0.352778 z m 0.705555,-0.352778 h 0.352778 v -0.352777 h 0.352777 v -1.058333 h -0.352777 v -0.352777 h -0.352778 z m 1.763888,0.352778 v -2.469443 h 1.41111 v 0.352778 h 0.352777 v 0.352777 h 0.352778 v 1.058333 h -0.352778 v 0.352777 h -0.352777 v 0.352778 z m 0.705555,-0.352778 h 0.352777 v -0.352777 h 0.352778 V 62.167196 H 22.997217 V 61.814419 H 22.64444 Z"
       id="path37"
       inkscape:label="ADD"
       aria-label="ADD" /><path
       style="font-size:2.82222px;font-family:'C64 User';-inkscape-font-specification:'C64 User';text-align:center;text-orientation:upright;text-anchor:middle;fill:#000000;stroke-width:0.31"
       d="m 4.9000001,63.931084 v -2.469443 h 1.41111 v 0.352778 h 0.3527775 v 0.352777 h 0.3527775 v 1.058333 H 6.6638876 v 0.352777 H 6.3111101 v 0.352778 z m 0.705555,-0.352778 H 5.9583326 V 63.225529 H 6.3111101 V 62.167196 H 5.9583326 V 61.814419 H 5.6055551 Z m 3.8805526,-2.116665 v 0.352778 h -1.41111 v 0.705555 h 0.705555 v 0.352777 h -0.705555 v 0.705555 h 1.41111 v 0.352778 h -2.116665 v -2.469443 z m 1.0583333,0 v 2.116665 h 1.41111 v 0.352778 H 9.8388853 v -2.469443 z"
       id="path38"
       inkscape:label="DEL"
       aria-label="DEL" /><path
       style="font-size:2.82222px;font-family:'C64 User';-inkscape-font-specification:'C64 User';text-align:center;text-orientation:upright;text-anchor:middle;fill:#000000;stroke-width:0.31"
       d="M 25.255778,42.918442 V 42.565664 H 24.903 v -0.352777 h 0.705555 v 0.352777 H 26.31411 V 41.860109 H 25.255778 V 41.507332 H 24.903 v -0.705555 h 0.352778 v -0.352778 h 1.41111 v 0.352778 h 0.352777 v 0.352777 H 26.31411 v -0.352777 h -0.705555 v 0.705555 h 1.058333 v 0.352777 h 0.352777 v 0.705555 h -0.352777 v 0.352778 z m 2.469442,0 v -0.352778 h -0.352777 v -1.763887 h 0.352777 v -0.352778 h 1.41111 v 0.352778 h 0.352778 v 0.352777 h -0.705555 v -0.352777 h -0.705555 v 1.763887 h 0.705555 v -0.352777 h 0.705555 v 0.352777 H 29.13633 v 0.352778 z m 2.116666,0 v -1.763888 h 0.352777 v -0.352777 h 0.352778 v -0.352778 h 0.705555 v 0.352778 h 0.352777 v 0.352777 h 0.352778 v 1.763888 h -0.705555 v -1.058333 h -0.705555 v 1.058333 z m 0.705555,-1.41111 h 0.705555 v -0.352778 h -0.705555 z m 2.469442,-1.058333 v 2.116665 h 1.41111 v 0.352778 h -2.116665 v -2.469443 z m 3.880553,0 v 0.352778 h -1.41111 v 0.705555 h 0.705555 v 0.352777 h -0.705555 v 0.705555 h 1.41111 v 0.352778 h -2.116665 v -2.469443 z"
       id="path39"
       inkscape:label="SCALE"
       aria-label="SCALE" /><path
       style="font-size:2.46944px;font-family:'C64 User';-inkscape-font-specification:'C64 User';text-align:center;text-orientation:upright;text-anchor:middle;fill:#000000;stroke-width:0.31"
       d="m 14.026738,52.827164 v -0.30868 h 0.61736 v -0.92604 h -0.30868 v -0.30868 h 0.30868 v -0.61736 h 0.61736 v 1.85208 h 0.61736 v 0.30868 z m 2.77812,-0.30868 h 0.61736 v -0.61736 h -0.61736 z m -0.30868,0.30868 v -0.30868 h -0.30868 v -1.5434 h 0.30868 v -0.30868 h 1.23472 v 0.30868 h 0.30868 v 0.30868 h -0.61736 v -0.30868 h -0.61736 v 0.61736 h 0.92604 v 0.30868 h 0.30868 v 0.61736 h -0.30868 v 0.30868 z"
       id="path40"
       inkscape:label="16"
       aria-label="16" /><path
       style="font-size:2.46944px;font-family:'C64 User';-inkscape-font-specification:'C64 User';text-align:center;text-orientation:upright;text-anchor:middle;fill:#000000;stroke-width:0.31"
       d="m 18.17323,47.946205 v -0.30868 h 0.61736 v -0.92604 h -0.30868 v -0.30868 h 0.30868 v -0.61736 h 0.61736 v 1.85208 h 0.61736 v 0.30868 z m 2.16076,0 v -0.61736 h 0.30868 v -0.30868 h 0.61736 v -0.30868 h 0.30868 v -0.61736 h -0.61736 v 0.30868 h -0.61736 v -0.30868 h 0.30868 v -0.30868 h 1.23472 v 0.30868 h 0.30868 v 0.61736 h -0.30868 v 0.30868 h -0.61736 v 0.30868 l -0.30868,-0.0012 v 0.309886 h 1.23472 v 0.30868 z"
       id="path41"
       inkscape:label="12"
       aria-label="12" /><path
       style="font-size:2.46944px;font-family:'C64 User';-inkscape-font-specification:'C64 User';text-align:center;text-orientation:upright;text-anchor:middle;fill:#000000;stroke-width:0.31"
       d="m 18.566757,42.460487 v -0.30868 h -0.30868 v -0.61736 h 0.30868 v -0.30868 h -0.30868 v -0.61736 h 0.30868 v -0.30868 h 1.23472 v 0.30868 h 0.30868 v 0.61736 h -0.30868 v 0.30868 h 0.30868 v 0.61736 h -0.30868 v 0.30868 z m 0.30868,-1.23472 h 0.61736 v -0.61736 h -0.61736 z m 0,0.92604 h 0.61736 v -0.61736 h -0.61736 z"
       id="path42"
       inkscape:label="8"
       aria-label="8" /><path
       style="font-size:2.46944px;font-family:'C64 User';-inkscape-font-specification:'C64 User';text-align:center;text-orientation:upright;text-anchor:middle;fill:#000000;stroke-width:0.31"
       d="m 14.692819,38.126718 h 0.61736 v -0.61736 h -0.61736 z m -0.30868,0.30868 v -0.30868 h -0.30868 v -1.5434 h 0.30868 v -0.30868 h 1.23472 v 0.30868 h 0.30868 v 0.30868 h -0.61736 v -0.30868 h -0.61736 v 0.61736 h 0.92604 v 0.30868 h 0.30868 v 0.61736 h -0.30868 v 0.30868 z"
       id="path43"
       inkscape:label="6"
       aria-label="6" /><path
       style="font-size:2.46944px;font-family:'C64 User';-inkscape-font-specification:'C64 User';text-align:center;text-orientation:upright;text-anchor:middle;fill:#000000;stroke-width:0.31"
       d="m 7.8067884,38.435398 v -0.30868 h -0.30868 v -0.30868 h 0.61736 v 0.30868 h 0.6173599 v -0.92604 H 7.4981084 v -0.92604 h 1.8520799 v 0.30868 H 8.1154684 v 0.30868 h 0.9260399 v 0.30868 h 0.30868 v 0.92604 h -0.30868 v 0.30868 z"
       id="path44"
       inkscape:label="5"
       aria-label="5" /><path
       style="font-size:2.46944px;font-family:'C64 User';-inkscape-font-specification:'C64 User';text-align:center;text-orientation:upright;text-anchor:middle;fill:#000000;stroke-width:0.31"
       d="m 4.3986206,42.460487 v -0.61736 h -1.23472 v -0.61736 h 0.61736 v 0.30868 h 0.61736 v -0.30868 h -0.61736 v -0.30868 h 0.30868 v -0.30868 h 0.30868 v -0.30868 h 0.61736 v 1.23472 h 0.30868 v 0.30868 h -0.30868 v 0.61736 z"
       id="path45"
       inkscape:label="4"
       aria-label="4" /><path
       style="font-size:2.46944px;font-family:'C64 User';-inkscape-font-specification:'C64 User';text-align:center;text-orientation:upright;text-anchor:middle;fill:#000000;stroke-width:0.31"
       d="m 6.6805529,52.827164 v -0.61736 h 0.30868 v -0.30868 h 0.61736 v -0.30868 h 0.30868 v -0.61736 h -0.61736 v 0.30868 h -0.61736 v -0.30868 h 0.30868 v -0.30868 h 1.23472 v 0.30868 h 0.30868 v 0.61736 h -0.30868 v 0.30868 h -0.61736 v 0.30868 l -0.30868,-0.0012 v 0.309886 h 1.23472 v 0.30868 z"
       id="path46"
       inkscape:label="3"
       aria-label="2" /><path
       style="font-size:2.46944px;font-family:'C64 User';-inkscape-font-specification:'C64 User';text-align:center;text-orientation:upright;text-anchor:middle;fill:#000000;stroke-width:0.31"
       d="m 3.3978633,47.946205 v -0.30868 h -0.30868 v -0.30868 h 0.61736 v 0.30868 h 0.61736 v -0.61736 h -0.61736 v -0.30868 h 0.61736 v -0.61736 h -0.61736 v 0.30868 h -0.61736 v -0.30868 h 0.30868 v -0.30868 h 1.23472 v 0.30868 h 0.30868 v 0.61736 h -0.30868 v 0.30868 h 0.30868 v 0.61736 h -0.30868 v 0.30868 z"
       id="path47"
       inkscape:label="2"
       aria-label="3" /><path
       style="font-size:2.82222px;font-family:'C64 User';-inkscape-font-specification:'C64 User';text-align:center;text-orientation:upright;text-anchor:middle;fill:#000000;stroke-width:0.31"
       d="m 5.1960062,31.747999 v 2.116665 h 1.4111101 v 0.352778 H 4.4904512 v -2.469443 z m 3.8805527,0 v 0.352777 H 7.6654488 v 0.705556 h 0.705555 v 0.352777 h -0.705555 v 0.705555 h 1.4111101 v 0.352778 H 6.9598938 v -2.469443 z m 0.3527775,2.469443 v -2.469443 h 0.7055546 v 0.352777 h 0.352778 v 0.352778 h 0.352777 v -0.705555 h 0.705555 v 2.469443 h -0.705555 v -0.705555 h -0.352777 v -0.352778 h -0.352778 v 1.058333 z m 2.8222206,0 v -0.352778 h -0.352778 v -1.763888 h 0.352778 v -0.352777 h 1.41111 v 0.352777 h 0.352777 v 0.352778 h -0.705555 v -0.352778 h -0.705555 v 1.763888 h 0.705555 v -0.705555 h -0.352777 v -0.352777 h 1.058332 v 1.058332 h -0.352777 v 0.352778 z m 2.82222,0 v -2.116666 h -0.705555 v -0.352777 h 2.116665 v 0.352777 h -0.705555 v 2.116666 z m 1.763887,0 v -2.469443 h 0.705555 v 1.058333 h 0.705555 v -1.058333 h 0.705555 v 2.469443 h -0.705555 v -1.058333 h -0.705555 v 1.058333 z"
       id="path48"
       inkscape:label="LENGTH"
       aria-label="LENGTH" /><path
       style="font-size:3.52778px;font-family:'C64 User';-inkscape-font-specification:'C64 User';text-align:center;text-orientation:upright;text-anchor:middle;fill:#000000;stroke-width:0.31"
       d="M 4.8950735,16.089876 V 15.648904 H 4.454101 v -2.204863 h 0.4409725 v -0.440972 h 1.76389 v 0.440972 H 7.099936 v 0.440973 H 6.217991 V 13.444041 H 5.336046 v 2.204863 h 0.881945 v -0.440973 h 0.881945 v 0.440973 H 6.6589635 v 0.440972 z m 3.52778,0 v -2.645835 h -0.881945 v -0.440972 h 2.6458345 v 0.440972 H 9.3047985 v 2.645835 z m 2.2048625,0 v -3.086807 h 2.204862 v 0.440972 h 0.440973 v 0.881945 h -0.440973 v 0.440973 h -0.440972 v 0.440972 h 0.440972 v 0.440973 h 0.440973 v 0.440972 h -0.881945 v -0.440972 h -0.440973 v -0.440973 h -0.440972 v 0.881945 z m 0.881945,-1.76389 h 0.881945 v -0.881945 h -0.881945 z m 3.086808,-1.322917 v 2.645835 h 1.76389 v 0.440972 h -2.645835 v -3.086807 z"
       id="path49"
       inkscape:label="CTRL"
       aria-label="CTRL" /></g><g
     inkscape:groupmode="layer"
     id="g32"
     inkscape:label="Etichette Testo path"
     style="display:inline"><path
       style="font-size:2.82222px;font-family:'C64 User';-inkscape-font-specification:'C64 User';text-align:center;text-orientation:upright;text-anchor:middle;fill:#ffffff;stroke-width:0.31"
       d="m 26.825001,110.31383 v -0.35278 h -0.352777 v -1.76389 h 0.352777 v -0.35278 h 1.41111 v 0.35278 h 0.352778 v 1.76389 h -0.352778 v 0.35278 z m 0.352778,-0.35278 h 0.705555 v -1.76389 h -0.705555 z m 2.116665,0.35278 v -0.35278 h -0.352777 v -2.11667 h 0.705555 v 2.11667 h 0.705555 v -2.11667 h 0.705555 v 2.11667 h -0.352778 v 0.35278 z m 2.82222,0 v -2.11667 h -0.705555 v -0.35278 h 2.116665 v 0.35278 h -0.705555 v 2.11667 z"
       id="text8"
       inkscape:label="OUT"
       aria-label="OUT" /><path
       style="font-size:2.82222px;font-family:'C64 User';-inkscape-font-specification:'C64 User';text-align:center;text-orientation:upright;text-anchor:middle;fill:#ffffff;stroke-width:0.31"
       d="m 5.0027823,110.31383 v -2.46945 h 1.7638876 v 0.35278 h 0.3527775 v 0.70556 H 6.7666699 v 0.35277 H 5.7083373 v 1.05834 z m 0.705555,-1.41111 h 0.705555 v -0.70556 h -0.705555 z m 2.1166651,1.41111 v -0.35278 H 7.4722249 v -2.11667 h 0.705555 v 2.11667 h 0.705555 v -2.11667 H 9.58889 v 2.11667 H 9.2361125 v 0.35278 z m 2.8222206,-2.46945 v 2.11667 h 1.41111 v 0.35278 H 9.9416675 v -2.46945 z m 2.116665,2.46945 v -0.35278 H 12.41111 v -0.35278 h 0.705555 v 0.35278 h 0.705555 v -0.70556 h -1.058332 v -0.35277 H 12.41111 v -0.70556 h 0.352778 v -0.35278 h 1.41111 v 0.35278 h 0.352777 v 0.35278 H 13.82222 v -0.35278 h -0.705555 v 0.70556 h 1.058333 v 0.35277 h 0.352777 v 0.70556 h -0.352777 v 0.35278 z m 4.23333,-2.46945 v 0.35278 h -1.41111 v 0.70556 h 0.705555 v 0.35277 h -0.705555 v 0.70556 h 1.41111 v 0.35278 h -2.116665 v -2.46945 z"
       id="text9"
       inkscape:label="PULSE"
       aria-label="PULSE" /><path
       style="font-size:2.46944px;font-family:'C64 User';-inkscape-font-specification:'C64 User';text-align:center;text-orientation:upright;text-anchor:middle;fill:#ffffff;stroke-width:0.31"
       d="m 23.999999,92.469446 v -2.16076 h 1.5434 v 0.30868 h 0.30868 v 0.61736 h -0.30868 v 0.30868 h -0.30868 v 0.30868 h 0.30868 v 0.30868 h 0.30868 v 0.30868 h -0.61736 v -0.30868 h -0.30868 v -0.30868 h -0.30868 v 0.61736 z m 0.61736,-1.23472 h 0.61736 v -0.61736 h -0.61736 z m 3.39548,-0.92604 v 0.30868 h -1.23472 v 0.61736 h 0.61736 v 0.30868 h -0.61736 v 0.61736 h 1.23472 v 0.30868 h -1.85208 v -2.16076 z m 0.61736,2.16076 v -0.30868 h -0.30868 v -0.30868 h 0.61736 v 0.30868 h 0.61736 v -0.61736 h -0.92604 v -0.30868 h -0.30868 v -0.61736 h 0.30868 v -0.30868 h 1.23472 v 0.30868 h 0.30868 v 0.30868 h -0.61736 v -0.30868 h -0.61736 v 0.61736 h 0.92604 v 0.30868 h 0.30868 v 0.61736 h -0.30868 v 0.30868 z m 3.70416,-2.16076 v 0.30868 h -1.23472 v 0.61736 h 0.61736 v 0.30868 h -0.61736 v 0.61736 h 1.23472 v 0.30868 h -1.85208 v -2.16076 z m 0.92604,2.16076 v -1.85208 h -0.61736 v -0.30868 h 1.85208 v 0.30868 h -0.61736 v 1.85208 z"
       id="text10"
       inkscape:label="RND"
       aria-label="RESET" /><path
       style="font-size:2.82222px;font-family:'C64 User';-inkscape-font-specification:'C64 User';text-align:center;text-orientation:upright;text-anchor:middle;fill:#ffffff;stroke-width:0.31"
       d="M 5.8527775,92.469446 V 92.116668 H 5.5 v -1.763887 h 0.3527775 v -0.352778 h 1.4111101 v 0.352778 h 0.3527775 v 0.352777 h -0.705555 v -0.352777 h -0.705555 v 1.763887 h 0.705555 v -0.352777 h 0.705555 v 0.352777 H 7.2638876 v 0.352778 z m 2.8222202,-2.469443 v 2.116665 h 1.4111103 v 0.352778 H 7.9694426 v -2.469443 z m 2.1166653,2.469443 v -0.352778 h -0.352778 v -1.763887 h 0.352778 v -0.352778 h 1.41111 v 0.352778 h 0.352778 v 1.763887 h -0.352778 v 0.352778 z m 0.352778,-0.352778 h 0.705555 v -1.763887 h -0.705555 z m 2.116665,0.352778 v -0.352778 h -0.352778 v -1.763887 h 0.352778 v -0.352778 h 1.41111 v 0.352778 h 0.352778 v 0.352777 h -0.705555 v -0.352777 h -0.705555 v 1.763887 h 0.705555 v -0.352777 h 0.705555 v 0.352777 h -0.352778 v 0.352778 z m 2.116665,0 v -2.469443 h 0.705555 v 0.705555 h 0.352777 v -0.352777 h 0.352778 v -0.352778 h 0.705555 v 0.352778 h -0.352778 v 0.352777 h -0.352777 v 0.352778 h -0.352778 v 0.352777 h 0.352778 v 0.352778 h 0.352777 v 0.352777 h 0.352778 v 0.352778 h -0.705555 v -0.352778 h -0.352778 v -0.352777 h -0.352777 v 0.705555 z"
       id="text12"
       inkscape:label="CLOCK"
       aria-label="CLOCK" /><path
       style="font-size:2.82222px;font-family:'C64 User';-inkscape-font-specification:'C64 User';text-align:center;text-orientation:upright;text-anchor:middle;fill:#ffffff;stroke-width:0.31"
       d="m 28.9,63.931084 v -2.469443 h 1.763887 v 0.352778 h 0.352778 v 0.705555 h -0.352778 v 0.352777 H 30.31111 v 0.352778 h 0.352777 v 0.352777 h 0.352778 v 0.352778 H 30.31111 v -0.352778 h -0.352778 v -0.352777 h -0.352777 v 0.705555 z m 0.705555,-1.41111 h 0.705555 v -0.705555 h -0.705555 z m 1.763887,1.41111 v -2.469443 h 0.705555 v 0.352778 h 0.352778 v 0.352777 h 0.352777 v -0.705555 h 0.705555 v 2.469443 h -0.705555 v -0.705555 h -0.352777 v -0.352778 h -0.352778 v 1.058333 z m 2.469443,0 v -2.469443 h 1.41111 v 0.352778 h 0.352778 v 0.352777 h 0.352777 v 1.058333 h -0.352777 v 0.352777 h -0.352778 v 0.352778 z m 0.705555,-0.352778 h 0.352778 v -0.352777 h 0.352777 V 62.167196 H 34.897218 V 61.814419 H 34.54444 Z"
       id="text19"
       inkscape:label="RND"
       aria-label="RND" /><path
       style="font-size:2.82222px;font-family:'C64 User';-inkscape-font-specification:'C64 User';text-align:center;text-orientation:upright;text-anchor:middle;fill:#ffffff;stroke-width:0.31"
       d="m 17,63.931084 v -1.763888 h 0.352777 v -0.352777 h 0.352778 v -0.352778 h 0.705555 v 0.352778 h 0.352777 v 0.352777 h 0.352778 v 1.763888 H 18.41111 v -1.058333 h -0.705555 v 1.058333 z m 0.705555,-1.41111 h 0.705555 v -0.352778 h -0.705555 z m 1.763887,1.41111 v -2.469443 h 1.41111 v 0.352778 h 0.352778 v 0.352777 h 0.352777 v 1.058333 H 21.23333 v 0.352777 h -0.352778 v 0.352778 z m 0.705555,-0.352778 h 0.352778 v -0.352777 h 0.352777 v -1.058333 h -0.352777 v -0.352777 h -0.352778 z m 1.763888,0.352778 v -2.469443 h 1.41111 v 0.352778 h 0.352777 v 0.352777 h 0.352778 v 1.058333 h -0.352778 v 0.352777 h -0.352777 v 0.352778 z m 0.705555,-0.352778 h 0.352777 v -0.352777 h 0.352778 V 62.167196 H 22.997217 V 61.814419 H 22.64444 Z"
       id="text20"
       inkscape:label="ADD"
       aria-label="ADD" /><path
       style="font-size:2.82222px;font-family:'C64 User';-inkscape-font-specification:'C64 User';text-align:center;text-orientation:upright;text-anchor:middle;fill:#ffffff;stroke-width:0.31"
       d="m 4.9000001,63.931084 v -2.469443 h 1.41111 v 0.352778 h 0.3527775 v 0.352777 h 0.3527775 v 1.058333 H 6.6638876 v 0.352777 H 6.3111101 v 0.352778 z m 0.705555,-0.352778 H 5.9583326 V 63.225529 H 6.3111101 V 62.167196 H 5.9583326 V 61.814419 H 5.6055551 Z m 3.8805526,-2.116665 v 0.352778 h -1.41111 v 0.705555 h 0.705555 v 0.352777 h -0.705555 v 0.705555 h 1.41111 v 0.352778 h -2.116665 v -2.469443 z m 1.0583333,0 v 2.116665 h 1.41111 v 0.352778 H 9.8388853 v -2.469443 z"
       id="text21"
       inkscape:label="DEL"
       aria-label="DEL" /><path
       style="font-size:2.82222px;font-family:'C64 User';-inkscape-font-specification:'C64 User';text-align:center;text-orientation:upright;text-anchor:middle;fill:#ffffff;stroke-width:0.31"
       d="M 25.255778,42.918442 V 42.565664 H 24.903 v -0.352777 h 0.705555 v 0.352777 H 26.31411 V 41.860109 H 25.255778 V 41.507332 H 24.903 v -0.705555 h 0.352778 v -0.352778 h 1.41111 v 0.352778 h 0.352777 v 0.352777 H 26.31411 v -0.352777 h -0.705555 v 0.705555 h 1.058333 v 0.352777 h 0.352777 v 0.705555 h -0.352777 v 0.352778 z m 2.469442,0 v -0.352778 h -0.352777 v -1.763887 h 0.352777 v -0.352778 h 1.41111 v 0.352778 h 0.352778 v 0.352777 h -0.705555 v -0.352777 h -0.705555 v 1.763887 h 0.705555 v -0.352777 h 0.705555 v 0.352777 H 29.13633 v 0.352778 z m 2.116666,0 v -1.763888 h 0.352777 v -0.352777 h 0.352778 v -0.352778 h 0.705555 v 0.352778 h 0.352777 v 0.352777 h 0.352778 v 1.763888 h -0.705555 v -1.058333 h -0.705555 v 1.058333 z m 0.705555,-1.41111 h 0.705555 v -0.352778 h -0.705555 z m 2.469442,-1.058333 v 2.116665 h 1.41111 v 0.352778 h -2.116665 v -2.469443 z m 3.880553,0 v 0.352778 h -1.41111 v 0.705555 h 0.705555 v 0.352777 h -0.705555 v 0.705555 h 1.41111 v 0.352778 h -2.116665 v -2.469443 z"
       id="text22"
       inkscape:label="SCALE"
       aria-label="SCALE" /><path
       style="font-size:2.46944px;font-family:'C64 User';-inkscape-font-specification:'C64 User';text-align:center;text-orientation:upright;text-anchor:middle;fill:#ffffff;stroke-width:0.31"
       d="m 14.026738,52.827164 v -0.30868 h 0.61736 v -0.92604 h -0.30868 v -0.30868 h 0.30868 v -0.61736 h 0.61736 v 1.85208 h 0.61736 v 0.30868 z m 2.77812,-0.30868 h 0.61736 v -0.61736 h -0.61736 z m -0.30868,0.30868 v -0.30868 h -0.30868 v -1.5434 h 0.30868 v -0.30868 h 1.23472 v 0.30868 h 0.30868 v 0.30868 h -0.61736 v -0.30868 h -0.61736 v 0.61736 h 0.92604 v 0.30868 h 0.30868 v 0.61736 h -0.30868 v 0.30868 z"
       id="text23"
       inkscape:label="16"
       aria-label="16" /><path
       style="font-size:2.46944px;font-family:'C64 User';-inkscape-font-specification:'C64 User';text-align:center;text-orientation:upright;text-anchor:middle;fill:#ffffff;stroke-width:0.31"
       d="m 18.17323,47.946205 v -0.30868 h 0.61736 v -0.92604 h -0.30868 v -0.30868 h 0.30868 v -0.61736 h 0.61736 v 1.85208 h 0.61736 v 0.30868 z m 2.16076,0 v -0.61736 h 0.30868 v -0.30868 h 0.61736 v -0.30868 h 0.30868 v -0.61736 h -0.61736 v 0.30868 h -0.61736 v -0.30868 h 0.30868 v -0.30868 h 1.23472 v 0.30868 h 0.30868 v 0.61736 h -0.30868 v 0.30868 h -0.61736 v 0.30868 l -0.30868,-0.0012 v 0.309886 h 1.23472 v 0.30868 z"
       id="text24"
       inkscape:label="12"
       aria-label="12" /><path
       style="font-size:2.46944px;font-family:'C64 User';-inkscape-font-specification:'C64 User';text-align:center;text-orientation:upright;text-anchor:middle;fill:#ffffff;stroke-width:0.31"
       d="m 18.566757,42.460487 v -0.30868 h -0.30868 v -0.61736 h 0.30868 v -0.30868 h -0.30868 v -0.61736 h 0.30868 v -0.30868 h 1.23472 v 0.30868 h 0.30868 v 0.61736 h -0.30868 v 0.30868 h 0.30868 v 0.61736 h -0.30868 v 0.30868 z m 0.30868,-1.23472 h 0.61736 v -0.61736 h -0.61736 z m 0,0.92604 h 0.61736 v -0.61736 h -0.61736 z"
       id="text25"
       inkscape:label="8"
       aria-label="8" /><path
       style="font-size:2.46944px;font-family:'C64 User';-inkscape-font-specification:'C64 User';text-align:center;text-orientation:upright;text-anchor:middle;fill:#ffffff;stroke-width:0.31"
       d="m 14.692819,38.126718 h 0.61736 v -0.61736 h -0.61736 z m -0.30868,0.30868 v -0.30868 h -0.30868 v -1.5434 h 0.30868 v -0.30868 h 1.23472 v 0.30868 h 0.30868 v 0.30868 h -0.61736 v -0.30868 h -0.61736 v 0.61736 h 0.92604 v 0.30868 h 0.30868 v 0.61736 h -0.30868 v 0.30868 z"
       id="text26"
       inkscape:label="6"
       aria-label="6" /><path
       style="font-size:2.46944px;font-family:'C64 User';-inkscape-font-specification:'C64 User';text-align:center;text-orientation:upright;text-anchor:middle;fill:#ffffff;stroke-width:0.31"
       d="m 7.8067884,38.435398 v -0.30868 h -0.30868 v -0.30868 h 0.61736 v 0.30868 h 0.6173599 v -0.92604 H 7.4981084 v -0.92604 h 1.8520799 v 0.30868 H 8.1154684 v 0.30868 h 0.9260399 v 0.30868 h 0.30868 v 0.92604 h -0.30868 v 0.30868 z"
       id="text27"
       inkscape:label="5"
       aria-label="5" /><path
       style="font-size:2.46944px;font-family:'C64 User';-inkscape-font-specification:'C64 User';text-align:center;text-orientation:upright;text-anchor:middle;fill:#ffffff;stroke-width:0.31"
       d="m 4.3986206,42.460487 v -0.61736 h -1.23472 v -0.61736 h 0.61736 v 0.30868 h 0.61736 v -0.30868 h -0.61736 v -0.30868 h 0.30868 v -0.30868 h 0.30868 v -0.30868 h 0.61736 v 1.23472 h 0.30868 v 0.30868 h -0.30868 v 0.61736 z"
       id="text28"
       inkscape:label="4"
       aria-label="4" /><path
       style="font-size:2.46944px;font-family:'C64 User';-inkscape-font-specification:'C64 User';text-align:center;text-orientation:upright;text-anchor:middle;fill:#ffffff;stroke-width:0.31"
       d="m 6.6805529,52.827164 v -0.61736 h 0.30868 v -0.30868 h 0.61736 v -0.30868 h 0.30868 v -0.61736 h -0.61736 v 0.30868 h -0.61736 v -0.30868 h 0.30868 v -0.30868 h 1.23472 v 0.30868 h 0.30868 v 0.61736 h -0.30868 v 0.30868 h -0.61736 v 0.30868 l -0.30868,-0.0012 v 0.309886 h 1.23472 v 0.30868 z"
       id="text29"
       inkscape:label="3"
       aria-label="2" /><path
       style="font-size:2.46944px;font-family:'C64 User';-inkscape-font-specification:'C64 User';text-align:center;text-orientation:upright;text-anchor:middle;fill:#ffffff;stroke-width:0.31"
       d="m 3.3978633,47.946205 v -0.30868 h -0.30868 v -0.30868 h 0.61736 v 0.30868 h 0.61736 v -0.61736 h -0.61736 v -0.30868 h 0.61736 v -0.61736 h -0.61736 v 0.30868 h -0.61736 v -0.30868 h 0.30868 v -0.30868 h 1.23472 v 0.30868 h 0.30868 v 0.61736 h -0.30868 v 0.30868 h 0.30868 v 0.61736 h -0.30868 v 0.30868 z"
       id="text30"
       inkscape:label="2"
       aria-label="3" /><path
       style="font-size:2.82222px;font-family:'C64 User';-inkscape-font-specification:'C64 User';text-align:center;text-orientation:upright;text-anchor:middle;fill:#ffffff;stroke-width:0.31"
       d="m 5.1960062,31.747999 v 2.116665 h 1.4111101 v 0.352778 H 4.4904512 v -2.469443 z m 3.8805527,0 v 0.352777 H 7.6654488 v 0.705556 h 0.705555 v 0.352777 h -0.705555 v 0.705555 h 1.4111101 v 0.352778 H 6.9598938 v -2.469443 z m 0.3527775,2.469443 v -2.469443 h 0.7055546 v 0.352777 h 0.352778 v 0.352778 h 0.352777 v -0.705555 h 0.705555 v 2.469443 h -0.705555 v -0.705555 h -0.352777 v -0.352778 h -0.352778 v 1.058333 z m 2.8222206,0 v -0.352778 h -0.352778 v -1.763888 h 0.352778 v -0.352777 h 1.41111 v 0.352777 h 0.352777 v 0.352778 h -0.705555 v -0.352778 h -0.705555 v 1.763888 h 0.705555 v -0.705555 h -0.352777 v -0.352777 h 1.058332 v 1.058332 h -0.352777 v 0.352778 z m 2.82222,0 v -2.116666 h -0.705555 v -0.352777 h 2.116665 v 0.352777 h -0.705555 v 2.116666 z m 1.763887,0 v -2.469443 h 0.705555 v 1.058333 h 0.705555 v -1.058333 h 0.705555 v 2.469443 h -0.705555 v -1.058333 h -0.705555 v 1.058333 z"
       id="text31"
       inkscape:label="LENGTH"
       aria-label="LENGTH" /><path
       style="font-size:3.52778px;font-family:'C64 User';-inkscape-font-specification:'C64 User';text-align:center;text-orientation:upright;text-anchor:middle;fill:#ffffff;stroke-width:0.31"
       d="M 4.8950735,16.089876 V 15.648904 H 4.454101 v -2.204863 h 0.4409725 v -0.440972 h 1.76389 v 0.440972 H 7.099936 v 0.440973 H 6.217991 V 13.444041 H 5.336046 v 2.204863 h 0.881945 v -0.440973 h 0.881945 v 0.440973 H 6.6589635 v 0.440972 z m 3.52778,0 v -2.645835 h -0.881945 v -0.440972 h 2.6458345 v 0.440972 H 9.3047985 v 2.645835 z m 2.2048625,0 v -3.086807 h 2.204862 v 0.440972 h 0.440973 v 0.881945 h -0.440973 v 0.440973 h -0.440972 v 0.440972 h 0.440972 v 0.440973 h 0.440973 v 0.440972 h -0.881945 v -0.440972 h -0.440973 v -0.440973 h -0.440972 v 0.881945 z m 0.881945,-1.76389 h 0.881945 v -0.881945 h -0.881945 z m 3.086808,-1.322917 v 2.645835 h 1.76389 v 0.440972 h -2.645835 v -3.086807 z"
       id="text32"
       inkscape:label="CTRL"
       aria-label="CTRL" /></g><g
     inkscape:label="header footer"
     inkscape:groupmode="layer"
     id="layer1"
     style="display:inline"><rect
       style="display:inline;fill:#00000a;fill-opacity:1;stroke:#666699;stroke-width:0.4;stroke-dasharray:none;stroke-dashoffset:0;stroke-opacity:1"
       id="rect1447-8"
       width="24.287165"
       height="3.6871655"
       x="8.1764174"
       y="124.256"
       inkscape:label="footer rect"
       ry="1.2" /><g
       aria-label="sickozell"
       id="text1308"
       style="font-size:3.175px;font-family:'C64 User';-inkscape-font-specification:'C64 User';display:inline;fill:#cccccc;fill-opacity:1;stroke-width:0.264583"
       inkscape:label="sickozell"
       transform="translate(7.7258462,0.78403698)"><path
         d="m 4.0613409,124.52178 v 0.39688 h -1.5875 v 0.39687 h 1.190625 v 0.39688 h 0.396875 v 0.39687 h -0.396875 v 0.39688 h -1.984375 v -0.39688 h 1.5875 v -0.39687 h -1.190625 v -0.39688 h -0.396875 v -0.39687 h 0.396875 v -0.39688 z"
         style="fill:#cccccc;fill-opacity:1"
         id="path1312" /><path
         d="m 4.458216,126.50616 v -0.39688 h 0.3968749 v -0.79375 H 4.458216 v -0.39687 h 1.1906249 v 1.19062 h 0.396875 v 0.39688 z m 0.3968749,-1.98438 v -0.39687 h 0.79375 v 0.39687 z"
         style="fill:#cccccc;fill-opacity:1"
         id="path1314" /><path
         d="m 6.8394657,126.50616 v -0.39688 h -0.396875 v -1.19062 h 0.396875 v -0.39688 h 1.5875 v 0.39688 h -1.190625 v 1.19062 h 1.190625 v 0.39688 z"
         style="fill:#cccccc;fill-opacity:1"
         id="path1316" /><path
         d="m 8.8238411,126.50616 v -2.38125 h 0.79375 v 1.19062 h 0.3968749 v -0.39687 h 0.79375 v 0.39687 h -0.396875 v 0.39688 h 0.396875 v 0.39687 h 0.396875 v 0.39688 h -0.79375 v -0.39688 h -0.396875 v -0.39687 H 9.6175911 v 0.79375 z"
         style="fill:#cccccc;fill-opacity:1"
         id="path1318" /><path
         d="m 11.998841,126.50616 v -0.39688 h -0.396875 v -1.19062 h 0.396875 v -0.39688 h 1.5875 v 0.39688 h 0.396875 v 1.19062 h -0.396875 v 0.39688 z m 0.396875,-0.39688 h 0.79375 v -1.19062 h -0.79375 z"
         style="fill:#cccccc;fill-opacity:1"
         id="path1320" /><path
         d="m 14.380091,126.50616 v -0.39688 h 0.396875 v -0.39687 h 0.396875 v -0.39688 h 0.396875 v -0.39687 h -1.190625 v -0.39688 h 2.38125 v 0.39688 h -0.396875 v 0.39687 h -0.396875 v 0.39688 h -0.396875 v 0.39687 h 1.190625 v 0.39688 z"
         style="fill:#cccccc;fill-opacity:1"
         id="path1322" /><path
         d="m 18.745715,124.91866 h -0.793749 v 0.39687 h 0.793749 z m 0.396875,-0.39688 v 0.39688 h 0.396875 v 0.79375 h -1.587499 v 0.39687 h 1.190624 v 0.39688 h -1.587499 v -0.39688 h -0.396875 v -1.19062 h 0.396875 v -0.39688 z"
         style="fill:#cccccc;fill-opacity:1"
         id="path1324" /><path
         d="m 21.126966,124.12491 v 1.98437 h 0.396875 v 0.39688 h -1.5875 v -0.39688 h 0.396875 v -1.5875 h -0.396875 v -0.39687 z"
         style="fill:#cccccc;fill-opacity:1"
         id="path1326" /><path
         d="m 23.111341,124.12491 v 1.98437 h 0.396875 v 0.39688 h -1.5875 v -0.39688 h 0.396875 v -1.5875 h -0.396875 v -0.39687 z"
         style="fill:#cccccc;fill-opacity:1"
         id="path1328" /></g><rect
       style="display:inline;fill:#00000a;fill-opacity:1;stroke:#666699;stroke-width:0.4;stroke-dasharray:none;stroke-dashoffset:0;stroke-opacity:1"
       id="rect2138"
       width="28.556297"
       height="5.2063303"
       x="6.041851"
       y="1.2260031"
       ry="1.8"
       inkscape:label="header rect" /><text
       xml:space="preserve"
       style="font-style:normal;font-variant:normal;font-weight:normal;font-stretch:normal;font-size:3.175px;font-family:'C64 User';-inkscape-font-specification:'C64 User';text-align:center;text-anchor:middle;display:none;fill:#ffffff;stroke-width:0.264583"
       x="20.518436"
       y="4.9781251"
       id="text1341"
       inkscape:label="randLoops"><tspan
         sodipodi:role="line"
         id="tspan1339"
         style="font-size:3.175px;text-align:center;text-anchor:middle;fill:#ffffff;stroke-width:0.264583"
         x="20.518436"
         y="4.9781251">randLoops</tspan></text><path
       d="m 8.0168741,4.9781251 v -1.984375 h 1.9843749 v 0.396875 h 0.396875 v 0.396875 H 9.6043741 v -0.396875 h -0.79375 v 1.5875 z m 3.1749999,0 v -0.396875 h -0.396875 v -0.396875 h 0.396875 v -0.396875 h 1.190625 v -0.396875 h -1.190625 v -0.396875 h 1.5875 v 0.396875 h 0.396875 v 1.5875 z m 0.396875,-0.396875 h 0.79375 v -0.396875 h -0.79375 z m 1.984375,0.396875 v -1.984375 h 1.984375 v 0.396875 h 0.396875 v 1.5875 h -0.79375 v -1.5875 h -0.79375 v 1.5875 z m 3.175,0 V 4.5812501 H 16.35125 v -0.79375 h 0.396874 v -0.396875 h 1.190625 v -0.79375 h 0.79375 v 2.38125 z m 0.396875,-0.396875 h 0.79375 v -0.79375 h -0.79375 z m 2.778125,-2.38125 v 2.38125 h 1.5875 v 0.396875 h -2.38125 v -2.778125 z m 2.38125,2.778125 v -0.396875 h -0.396875 v -1.190625 h 0.396875 v -0.396875 h 1.5875 v 0.396875 h 0.396875 v 1.190625 h -0.396875 v 0.396875 z m 0.396875,-0.396875 h 0.79375 v -1.190625 h -0.79375 z M 25.0825,4.9781251 V 4.5812501 H 24.685625 V 3.3906251 H 25.0825 V 2.9937501 H 26.67 v 0.396875 h 0.396875 v 1.190625 H 26.67 v 0.396875 z m 0.396875,-0.396875 h 0.79375 v -1.190625 h -0.79375 z m 1.984374,0.79375 v -2.38125 h 1.984375 v 0.396875 h 0.396875 v 0.79375 h -0.396875 v 0.396875 h -1.190625 v 0.79375 z m 0.79375,-1.190625 h 0.79375 v -0.79375 h -0.79375 z m 4.365625,-1.190625 v 0.396875 h -1.5875 v 0.396875 h 1.190625 v 0.396875 h 0.396875 v 0.396875 h -0.396875 v 0.396875 h -1.984374 v -0.396875 h 1.587499 v -0.396875 h -1.190625 v -0.396875 h -0.396874 v -0.396875 h 0.396874 v -0.396875 z"
       id="text1"
       style="font-size:3.175px;font-family:'C64 User';-inkscape-font-specification:'C64 User';text-align:center;text-anchor:middle;fill:#ffffff;stroke-width:0.264583"
       inkscape:label="randLoops"
       aria-label="randLoops" /></g></svg>
