<?xml version="1.0" encoding="UTF-8" standalone="no"?>
<!-- Created with Inkscape (http://www.inkscape.org/) -->

<svg
   width="10.16mm"
   height="128.5mm"
   viewBox="0 0 10.16 128.5"
   version="1.1"
   id="svg5"
   inkscape:version="1.4 (86a8ad7, 2024-10-11)"
   sodipodi:docname="RandLoopsMini.svg"
   xmlns:inkscape="http://www.inkscape.org/namespaces/inkscape"
   xmlns:sodipodi="http://sodipodi.sourceforge.net/DTD/sodipodi-0.dtd"
   xmlns="http://www.w3.org/2000/svg"
   xmlns:svg="http://www.w3.org/2000/svg">
  <sodipodi:namedview
     id="namedview7"
     pagecolor="#ffffff"
     bordercolor="#000000"
     borderopacity="0.25"
     inkscape:showpageshadow="2"
     inkscape:pageopacity="0.0"
     inkscape:pagecheckerboard="0"
     inkscape:deskcolor="#d1d1d1"
     inkscape:document-units="mm"
     showgrid="false"
     inkscape:zoom="2.828427"
     inkscape:cx="51.442021"
     inkscape:cy="412.7736"
     inkscape:window-width="1366"
     inkscape:window-height="705"
     inkscape:window-x="-8"
     inkscape:window-y="-8"
     inkscape:window-maximized="1"
     inkscape:current-layer="layer4"
     showguides="true" />
  <defs
     id="defs2">
    <rect
       x="22.799086"
       y="440.55881"
       width="6.0350523"
       height="22.128525"
       id="rect289" />
  </defs>
  <rect
     style="display:inline;fill:#000033;fill-opacity:1;stroke-width:0.162024;image-rendering:auto"
     id="sfondo"
     width="15.24"
     height="128.5"
     x="0"
     y="6.6613381e-16"
     inkscape:label="background"
     ry="0"
     transform="scale(0.66666668,1)" />
  <g
     inkscape:groupmode="layer"
     id="layer2"
     inkscape:label="stripes bottom"
     transform="matrix(0.9409449,0,0,1,0.3,0)">
    <rect
       style="display:inline;fill:#0088ff;fill-opacity:1;stroke:none;stroke-width:0.145613"
       id="rect7854"
       width="10.16"
       height="0.30911431"
       x="0"
       y="127.49089"
       inkscape:label="azzurro" />
    <rect
       style="display:inline;fill:#00cc55;fill-opacity:1;stroke:none;stroke-width:0.145613"
       id="rect7856"
       width="10.16"
       height="0.30911431"
       x="0"
       y="126.7181"
       inkscape:label="verde" />
    <rect
       style="display:inline;fill:#eeee77;fill-opacity:1;stroke:none;stroke-width:0.145613"
       id="rect7858"
       width="10.16"
       height="0.30911431"
       x="0"
       y="125.94532"
       inkscape:label="giallo" />
    <rect
       style="display:inline;fill:#ff7777;fill-opacity:1;stroke:none;stroke-width:0.145613"
       id="rect7860"
       width="10.16"
       height="0.30911431"
       x="0"
       y="125.17253"
       inkscape:label="rosa" />
    <rect
       style="display:inline;fill:#bd0000;fill-opacity:1;stroke:none;stroke-width:0.145613"
       id="rect7862"
       width="10.16"
       height="0.30911431"
       x="0"
       y="124.4"
       inkscape:label="rosso" />
  </g>
  <g
     inkscape:groupmode="layer"
     id="layer7"
     inkscape:label="stripes top"
     transform="matrix(0.15933333,0,0,1,-0.18118673,0.44166683)"
     style="display:inline;fill:#000000;stroke:none">
    <rect
       style="display:inline;fill:#0088ff;fill-opacity:1;stroke-width:0.40253"
       id="rect1316"
       width="60"
       height="0.40000001"
       x="3.0200005"
       y="5.0580001"
       inkscape:label="azzurro" />
    <rect
       style="display:inline;fill:#00cc55;fill-opacity:1;stroke-width:0.40253"
       id="rect1313"
       width="60"
       height="0.40000001"
       x="3.0200005"
       y="4.0580001"
       inkscape:label="verde" />
    <rect
       style="display:inline;fill:#eeee77;fill-opacity:1;stroke-width:0.40253"
       id="rect1310"
       width="60"
       height="0.40000001"
       x="3.0200005"
       y="3.0580001"
       inkscape:label="giallo" />
    <rect
       style="display:inline;fill:#ff7777;fill-opacity:1;stroke-width:0.40253"
       id="rect989"
       width="60"
       height="0.40000001"
       x="3.0200005"
       y="2.0580001"
       inkscape:label="rosa" />
    <rect
       style="display:inline;fill:#bd0000;fill-opacity:1;stroke-width:0.40253"
       id="rect1308"
       width="60"
       height="0.40000001"
       x="2.7204449"
       y="0.65833217"
       transform="translate(0.29955559,0.400001)"
       inkscape:label="rosso" />
  </g>
  <g
     inkscape:groupmode="layer"
     id="layer4"
     inkscape:label="Elementi"
     style="fill:#f9f9f9">
    <rect
       style="display:inline;fill:#494983;fill-opacity:1;stroke:none;stroke-width:0.224072;stroke-dasharray:0.224072, 0.224072;stroke-dashoffset:0;stroke-opacity:1"
       id="rect19362"
       width="9.5600004"
       height="27.5"
       x="0.30000001"
       y="95"
       inkscape:label="rect out" />
    <path
       style="display:inline;fill:#000000;stroke:#51517a;stroke-width:0.4;stroke-dasharray:none;stroke-opacity:1"
       d="m 1.0799999,56.8 h 8"
       id="path12"
       sodipodi:nodetypes="cc" />
    <g
       id="g18"
       inkscape:label="TrimPot center"
       transform="translate(-19.257492,-30.985417)"
       style="display:inline;fill:#f9f9f9">
      <path
         style="display:inline;fill:none;stroke:#ededed;stroke-width:0.4;stroke-dasharray:none;stroke-dashoffset:0;stroke-opacity:1"
         id="path18"
         inkscape:label="trimpot circle"
         sodipodi:type="arc"
         sodipodi:cx="24.337492"
         sodipodi:cy="48.485416"
         sodipodi:rx="3.5"
         sodipodi:ry="3.5"
         sodipodi:start="2.0943951"
         sodipodi:end="1.0471976"
         sodipodi:arc-type="arc"
         d="m 22.587492,51.516505 a 3.5,3.5 0 0 1 -1.63074,-3.936955 3.5,3.5 0 0 1 3.38074,-2.594134 3.5,3.5 0 0 1 3.38074,2.594134 3.5,3.5 0 0 1 -1.63074,3.936955"
         sodipodi:open="true" />
      <rect
         style="display:inline;fill:#f2f2f2;stroke:none;stroke-width:0.375045;stroke-dasharray:none"
         id="rect18"
         width="0.62838537"
         height="0.95759505"
         x="24.023306"
         y="44.185417"
         ry="0.087054096"
         inkscape:label="trimpot line" />
    </g>
    <g
       id="g2"
       inkscape:label="gLen"
       transform="translate(-10.742571,20.011265)"
       style="display:inline;fill:#f9f9f9">
      <rect
         style="display:inline;fill:#f2f2f2;stroke:none;stroke-width:0.375045;stroke-dasharray:none"
         id="rect16204"
         width="0.62838537"
         height="0.95759505"
         x="12.431483"
         y="16.944109"
         ry="0.087054096"
         inkscape:label="line circle"
         transform="rotate(-8.6892563,7.2341913e-6,2.7560118e-6)" />
      <rect
         style="display:inline;fill:#f2f2f2;stroke:none;stroke-width:0.375045;stroke-dasharray:none"
         id="rect43242"
         width="0.62838537"
         height="0.95759505"
         x="-4.2112823"
         y="20.209141"
         ry="0.087054096"
         inkscape:label="line circle"
         transform="rotate(-48.6322)" />
      <rect
         style="display:inline;fill:#f2f2f2;stroke:none;stroke-width:0.375045;stroke-dasharray:none"
         id="rect44144"
         width="0.62838537"
         height="0.95759505"
         x="18.535782"
         y="11.875971"
         ry="0.087054096"
         inkscape:label="line circle"
         transform="matrix(-0.0147869,0.99989066,0.99989066,0.0147869,-3.3333334e-7,0)" />
      <rect
         style="display:inline;fill:#f2f2f2;stroke:none;stroke-width:0.375045;stroke-dasharray:none"
         id="rect44146"
         width="0.62838537"
         height="0.95759505"
         x="3.2767494"
         y="-28.760744"
         ry="0.087054096"
         inkscape:label="line circle"
         transform="matrix(0.85475175,-0.51903701,-0.51903701,-0.85475175,-3.3333334e-7,0)" />
      <rect
         style="display:inline;fill:#f2f2f2;stroke:none;stroke-width:0.375045;stroke-dasharray:none"
         id="rect44746"
         width="0.62838537"
         height="0.95759505"
         x="-23.810354"
         y="-12.283582"
         ry="0.087054096"
         inkscape:label="line circle"
         transform="rotate(-148.73232)" />
      <rect
         style="display:inline;fill:#f2f2f2;stroke:none;stroke-width:0.375045;stroke-dasharray:none"
         id="rect20045"
         width="0.62838537"
         height="0.95759505"
         x="-23.259159"
         y="4.9356165"
         ry="0.087054096"
         inkscape:label="line circle"
         transform="matrix(-0.87948188,-0.47593237,-0.47593237,0.87948188,-3.3333334e-7,0)" />
      <rect
         style="display:inline;fill:#f2f2f2;stroke:none;stroke-width:0.375045;stroke-dasharray:none"
         id="rect20047"
         width="0.62838537"
         height="0.95759505"
         x="-24.090155"
         y="-11.330038"
         ry="0.087054096"
         inkscape:label="line circle"
         transform="matrix(-0.3943967,-0.9189403,-0.9189403,0.3943967,-3.3333334e-7,0)" />
      <rect
         style="display:inline;fill:#f2f2f2;stroke:none;stroke-width:0.375045;stroke-dasharray:none"
         id="rect20049"
         width="0.62838537"
         height="0.95759505"
         x="12.809047"
         y="-25.231386"
         ry="0.087054096"
         inkscape:label="line circle"
         transform="rotate(108.06035)" />
      <rect
         style="display:inline;fill:#f2f2f2;stroke:none;stroke-width:0.375045;stroke-dasharray:none"
         id="rect48"
         width="0.62838537"
         height="0.95759505"
         x="24.450937"
         y="-2.3022661"
         ry="0.087054096"
         inkscape:label="line circle"
         transform="matrix(0.57752832,0.81637066,0.81637066,-0.57752832,-3.3333334e-7,0)" />
      <path
         style="display:inline;fill:none;stroke:#ededed;stroke-width:0.4;stroke-dasharray:none;stroke-dashoffset:0;stroke-opacity:1"
         id="path16556"
         inkscape:label="circle 1"
         sodipodi:type="arc"
         sodipodi:cx="15.862961"
         sodipodi:cy="19.032896"
         sodipodi:rx="3.5"
         sodipodi:ry="3.5"
         sodipodi:start="2.0943951"
         sodipodi:end="1.0471976"
         sodipodi:arc-type="arc"
         d="m 14.112961,22.063985 a 3.5,3.5 0 0 1 -1.630741,-3.936956 3.5,3.5 0 0 1 3.380741,-2.594133 3.5,3.5 0 0 1 3.38074,2.594134 3.5,3.5 0 0 1 -1.63074,3.936955"
         sodipodi:open="true" />
    </g>
    <g
       id="g4"
       transform="translate(-58.415995,37.673027)"
       inkscape:label="gScl"
       style="fill:#f9f9f9">
      <path
         style="display:inline;fill:none;stroke:#ededed;stroke-width:0.4;stroke-dasharray:none;stroke-dashoffset:0;stroke-opacity:1"
         id="path13829"
         inkscape:label="circle"
         sodipodi:type="arc"
         sodipodi:cx="63.495995"
         sodipodi:cy="14.283333"
         sodipodi:rx="3.5"
         sodipodi:ry="3.5"
         sodipodi:start="2.0943951"
         sodipodi:end="1.0471976"
         sodipodi:arc-type="arc"
         d="m 61.745995,17.314422 a 3.5,3.5 0 0 1 -1.630741,-3.936956 3.5,3.5 0 0 1 3.380741,-2.594133 3.5,3.5 0 0 1 3.38074,2.594133 3.5,3.5 0 0 1 -1.630741,3.936956"
         sodipodi:open="true" />
      <rect
         style="fill:#f2f2f2;stroke:none;stroke-width:0.375045;stroke-dasharray:none"
         id="rect49866"
         width="0.62838537"
         height="0.95759505"
         x="46.778786"
         y="-49.43507"
         ry="0.087054096"
         inkscape:label="line circle"
         transform="matrix(0.85475176,-0.51903702,-0.51903702,-0.85475176,0,0)" />
    </g>
  </g>
  <g
     inkscape:groupmode="layer"
     id="layer5"
     inkscape:label="Etichette Testo"
     style="display:none"
     transform="translate(-2.5399999)">
    <text
       xml:space="preserve"
       style="font-style:normal;font-variant:normal;font-weight:normal;font-stretch:normal;font-size:2.82222px;font-family:'C64 User';-inkscape-font-specification:'C64 User';text-align:center;text-anchor:middle;display:inline;fill:#ffffff;stroke:none;stroke-width:0.264999;stroke-dasharray:0.264999, 0.264999;stroke-dashoffset:0;stroke-opacity:1"
       x="7.7963886"
       y="112.174"
       id="text2513"
       inkscape:label="trg out"><tspan
         sodipodi:role="line"
         id="tspan2511"
         style="font-size:2.82222px;text-align:center;text-anchor:middle;fill:#ffffff;stroke:none;stroke-width:0.265"
         x="7.7963886"
         y="112.174">TRG</tspan></text>
    <text
       xml:space="preserve"
       style="font-style:normal;font-variant:normal;font-weight:normal;font-stretch:normal;font-size:2.82222px;font-family:'C64 User';-inkscape-font-specification:'C64 User';text-align:center;text-anchor:middle;display:inline;fill:#ffffff;stroke:none;stroke-width:0.264999;stroke-dasharray:0.264999, 0.264999;stroke-dashoffset:0;stroke-opacity:1"
       x="7.7963886"
       y="98.944847"
       id="text2535"
       inkscape:label="out"><tspan
         sodipodi:role="line"
         id="tspan2533"
         style="font-size:2.82222px;text-align:center;text-anchor:middle;fill:#ffffff;stroke:none;stroke-width:0.265"
         x="7.7963886"
         y="98.944847">OUT</tspan></text>
    <text
       xml:space="preserve"
       style="font-style:normal;font-variant:normal;font-weight:normal;font-stretch:normal;font-size:2.82222px;font-family:'C64 User';-inkscape-font-specification:'C64 User';text-align:center;text-anchor:middle;display:inline;fill:#ffffff;stroke:none;stroke-width:0.264999;stroke-dasharray:0.264999, 0.264999;stroke-dashoffset:0;stroke-opacity:1"
       x="7.8184371"
       y="47.187492"
       id="text2507"
       inkscape:label="in"><tspan
         sodipodi:role="line"
         id="tspan2505"
         style="font-size:2.82222px;text-align:center;text-anchor:middle;stroke:none;stroke-width:0.265"
         x="7.8184371"
         y="47.187492">SCL</tspan></text>
    <text
       xml:space="preserve"
       style="font-style:normal;font-variant:normal;font-weight:normal;font-stretch:normal;font-size:2.46944px;font-family:'C64 User';-inkscape-font-specification:'C64 User';text-align:center;text-anchor:middle;display:inline;fill:#ffffff;stroke:none;stroke-width:0.264999;stroke-dasharray:0.264999, 0.264999;stroke-dashoffset:0;stroke-opacity:1"
       x="7.7963886"
       y="60.160763"
       id="text2543"
       inkscape:label="ofs"><tspan
         sodipodi:role="line"
         id="tspan2541"
         style="font-size:2.46944px;text-align:center;text-anchor:middle;stroke:none;stroke-width:0.265"
         x="7.7963886"
         y="60.160763">CLR</tspan></text>
    <text
       xml:space="preserve"
       style="font-style:normal;font-variant:normal;font-weight:normal;font-stretch:normal;font-size:2.46944px;font-family:'C64 User';-inkscape-font-specification:'C64 User';text-align:center;text-anchor:middle;display:inline;fill:#ffffff;stroke:none;stroke-width:0.264999;stroke-dasharray:0.264999, 0.264999;stroke-dashoffset:0;stroke-opacity:1"
       x="7.7963886"
       y="72.092117"
       id="text2539"
       inkscape:label="rst"><tspan
         sodipodi:role="line"
         id="tspan2537"
         style="font-size:2.46944px;text-align:center;text-anchor:middle;stroke:none;stroke-width:0.265"
         x="7.7963886"
         y="72.092117">RST</tspan></text>
    <text
       xml:space="preserve"
       style="font-style:normal;font-variant:normal;font-weight:normal;font-stretch:normal;font-size:2.82222px;font-family:'C64 User';-inkscape-font-specification:'C64 User';text-align:center;text-anchor:middle;display:inline;fill:#ffffff;stroke:none;stroke-width:0.264999;stroke-dasharray:0.264999, 0.264999;stroke-dashoffset:0;stroke-opacity:1"
       x="7.7963886"
       y="84.594009"
       id="text12684"
       inkscape:label="prb"><tspan
         sodipodi:role="line"
         id="tspan12682"
         style="font-size:2.82222px;text-align:center;text-anchor:middle;stroke:none;stroke-width:0.265"
         x="7.7963886"
         y="84.594009">CLK</tspan></text>
    <text
       xml:space="preserve"
       style="font-style:normal;font-variant:normal;font-weight:normal;font-stretch:normal;font-size:2.82222px;font-family:'C64 User';-inkscape-font-specification:'C64 User';text-align:center;text-anchor:middle;display:inline;fill:#ffffff;stroke:none;stroke-width:0.264999;stroke-dasharray:0.264999, 0.264999;stroke-dashoffset:0;stroke-opacity:1"
       x="7.8184371"
       y="33.669445"
       id="text2601"
       inkscape:label="trg"><tspan
         sodipodi:role="line"
         id="tspan2599"
         style="font-size:2.82222px;text-align:center;text-anchor:middle;stroke:none;stroke-width:0.265"
         x="7.8184371"
         y="33.669445">LEN</tspan></text>
    <text
       xml:space="preserve"
       style="font-style:normal;font-variant:normal;font-weight:normal;font-stretch:normal;font-size:2.82222px;font-family:'C64 User';-inkscape-font-specification:'C64 User';text-align:center;text-anchor:middle;display:inline;fill:#ffffff;stroke:none;stroke-width:0.264999;stroke-dasharray:0.264999, 0.264999;stroke-dashoffset:0;stroke-opacity:1"
       x="7.7963886"
       y="11.969442"
       id="text2545"
       inkscape:label="t&amp;h"><tspan
         sodipodi:role="line"
         id="tspan2543"
         style="font-size:2.82222px;text-align:center;text-anchor:middle;stroke:none;stroke-width:0.265"
         x="7.7963886"
         y="11.969442">CTR</tspan></text>
  </g>
  <g
     inkscape:groupmode="layer"
     id="g17"
     inkscape:label="Etichette Testo path"
     style="display:inline;fill:#000000"
     transform="translate(-2.2402248,0.299645)">
    <path
       style="font-size:2.82222px;font-family:'C64 User';-inkscape-font-specification:'C64 User';text-align:center;text-anchor:middle;fill:#000000;stroke-width:0.265;stroke-dasharray:0.264999, 0.264999"
       d="m 4.7977798,112.174 v -2.11666 h -0.705555 v -0.35278 h 2.116665 v 0.35278 h -0.705555 v 2.11666 z m 1.7638876,0 v -2.46944 h 1.7638875 v 0.35278 h 0.3527775 v 0.70555 H 8.3255549 v 0.35278 H 7.9727774 v 0.35278 h 0.3527775 v 0.35278 h 0.3527775 v 0.35277 h -0.705555 v -0.35277 H 7.6199999 v -0.35278 H 7.2672224 v 0.70555 z m 0.705555,-1.41111 h 0.705555 v -0.70555 h -0.705555 z m 2.1166651,1.41111 v -0.35277 H 9.03111 v -1.76389 h 0.3527775 v -0.35278 h 1.4111105 v 0.35278 h 0.352777 v 0.35278 H 10.44222 v -0.35278 H 9.736665 v 1.76389 h 0.705555 v -0.70556 h -0.352777 v -0.35278 h 1.058332 v 1.05834 h -0.352777 v 0.35277 z"
       id="path9"
       inkscape:label="trg out"
       aria-label="TRG" />
    <path
       style="font-size:2.82222px;font-family:'C64 User';-inkscape-font-specification:'C64 User';text-align:center;text-anchor:middle;fill:#000000;stroke-width:0.265;stroke-dasharray:0.264999, 0.264999"
       d="M 4.4450023,98.944847 V 98.59207 H 4.0922248 v -1.763888 h 0.3527775 v -0.352777 h 1.41111 v 0.352777 H 6.2088898 V 98.59207 H 5.8561123 v 0.352777 z M 4.7977798,98.59207 h 0.705555 v -1.763888 h -0.705555 z m 2.1166651,0.352777 V 98.59207 H 6.5616674 v -2.116665 h 0.705555 v 2.116665 h 0.705555 v -2.116665 h 0.705555 V 98.59207 H 8.3255549 v 0.352777 z m 2.8222201,0 V 96.828182 H 9.03111 v -0.352777 h 2.116665 v 0.352777 H 10.44222 v 2.116665 z"
       id="path10"
       inkscape:label="out"
       aria-label="OUT" />
    <path
       style="font-size:2.82222px;font-family:'C64 User';-inkscape-font-specification:'C64 User';text-align:center;text-anchor:middle;fill:#000000;stroke-width:0.265;stroke-dasharray:0.264999, 0.264999"
       d="M 4.4670507,47.187492 V 46.834715 H 4.1142732 v -0.352778 h 0.7055551 v 0.352778 h 0.705555 V 46.12916 H 4.4670507 V 45.776382 H 4.1142732 V 45.070827 H 4.4670507 V 44.71805 h 1.4111101 v 0.352777 h 0.3527775 v 0.352778 h -0.705555 v -0.352778 h -0.705555 v 0.705555 h 1.0583325 v 0.352778 h 0.3527775 v 0.705555 H 5.8781608 v 0.352777 z m 2.4694427,0 V 46.834715 H 6.5837158 V 45.070827 H 6.9364934 V 44.71805 h 1.41111 v 0.352777 h 0.3527775 v 0.352778 h -0.705555 v -0.352778 h -0.705555 v 1.763888 h 0.705555 v -0.352778 h 0.705555 v 0.352778 H 8.3476034 v 0.352777 z M 9.7587135,44.71805 v 2.116665 h 1.4111105 v 0.352777 H 9.0531584 V 44.71805 Z"
       id="path11"
       inkscape:label="in"
       aria-label="SCL" />
    <path
       style="font-size:2.46944px;font-family:'C64 User';-inkscape-font-specification:'C64 User';text-align:center;text-anchor:middle;fill:#000000;stroke-width:0.265;stroke-dasharray:0.264999, 0.264999"
       d="m 4.8639286,60.16076 v -0.30868 h -0.30868 v -1.5434 h 0.30868 V 58 h 1.23472 v 0.30868 h 0.30868 v 0.30868 h -0.61736 v -0.30868 h -0.61736 v 1.5434 h 0.61736 V 59.5434 h 0.61736 v 0.30868 h -0.30868 v 0.30868 z M 7.3333686,58 v 1.85208 h 1.23472 v 0.30868 h -1.85208 V 58 Z m 1.5433999,2.16076 V 58 h 1.5433995 v 0.30868 h 0.30868 v 0.61736 h -0.30868 v 0.30868 h -0.30868 v 0.30868 h 0.30868 v 0.30868 h 0.30868 v 0.30868 h -0.61736 V 59.85208 H 9.8028085 V 59.5434 h -0.30868 v 0.61736 z m 0.61736,-1.23472 H 10.111488 V 58.30868 H 9.4941285 Z"
       id="path13"
       inkscape:label="ofs"
       aria-label="CLR" />
    <path
       style="font-size:2.46944px;font-family:'C64 User';-inkscape-font-specification:'C64 User';text-align:center;text-anchor:middle;fill:#000000;stroke-width:0.265;stroke-dasharray:0.264999, 0.264999"
       d="m 4.5552486,72.092123 v -2.16076 h 1.5434 v 0.30868 h 0.30868 v 0.61736 h -0.30868 v 0.30868 h -0.30868 v 0.30868 h 0.30868 v 0.30868 h 0.30868 v 0.30868 h -0.61736 v -0.30868 h -0.30868 v -0.30868 h -0.30868 v 0.61736 z m 0.61736,-1.23472 h 0.61736 v -0.61736 h -0.61736 z m 1.85208,1.23472 v -0.30868 h -0.30868 v -0.30868 h 0.61736 v 0.30868 h 0.61736 v -0.61736 h -0.92604 v -0.30868 h -0.30868 v -0.61736 h 0.30868 v -0.30868 h 1.23472 v 0.30868 h 0.30868 v 0.30868 h -0.61736 v -0.30868 h -0.61736 v 0.61736 h 0.92604 v 0.30868 h 0.30868 v 0.61736 h -0.30868 v 0.30868 z m 2.4694399,0 v -1.85208 h -0.61736 v -0.30868 h 1.8520795 v 0.30868 h -0.61736 v 1.85208 z"
       id="path14"
       inkscape:label="rst"
       aria-label="RST" />
    <path
       style="font-size:2.82222px;font-family:'C64 User';-inkscape-font-specification:'C64 User';text-align:center;text-anchor:middle;fill:#000000;stroke-width:0.265;stroke-dasharray:0.264999, 0.264999"
       d="M 4.4450023,84.594009 V 84.241232 H 4.0922248 v -1.763888 h 0.3527775 v -0.352777 h 1.41111 v 0.352777 h 0.3527775 v 0.352778 h -0.705555 v -0.352778 h -0.705555 v 1.763888 h 0.705555 v -0.352778 h 0.705555 v 0.352778 H 5.8561123 v 0.352777 z m 2.8222201,-2.469442 v 2.116665 h 1.41111 v 0.352777 H 6.5616674 V 82.124567 Z M 9.03111,84.594009 v -2.469442 h 0.705555 v 0.705555 h 0.352778 v -0.352778 h 0.352777 v -0.352777 h 0.705555 v 0.352777 h -0.352777 v 0.352778 H 10.44222 v 0.352777 h -0.352777 v 0.352778 h 0.352777 v 0.352777 h 0.352778 v 0.352778 h 0.352777 v 0.352777 H 10.44222 V 84.241232 H 10.089443 V 83.888454 H 9.736665 v 0.705555 z"
       id="path15"
       inkscape:label="prb"
       aria-label="CLK" />
    <path
       style="font-size:2.82222px;font-family:'C64 User';-inkscape-font-specification:'C64 User';text-align:center;text-anchor:middle;fill:#000000;stroke-width:0.265;stroke-dasharray:0.264999, 0.264999"
       d="m 4.8198283,31.2 v 2.116665 h 1.41111 v 0.352777 H 4.1142732 V 31.2 Z m 3.8805526,0 v 0.352777 h -1.41111 v 0.705555 h 0.705555 v 0.352778 h -0.705555 v 0.705555 h 1.41111 v 0.352777 H 6.5837158 V 31.2 Z m 0.3527775,2.469442 V 31.2 h 0.7055551 v 0.352777 h 0.3527775 v 0.352778 h 0.352777 V 31.2 h 0.705556 v 2.469442 H 10.464268 V 32.963887 H 10.111491 V 32.61111 H 9.7587135 v 1.058332 z"
       id="path16"
       inkscape:label="trg"
       aria-label="LEN" />
    <path
       style="font-size:2.82222px;font-family:'C64 User';-inkscape-font-specification:'C64 User';text-align:center;text-anchor:middle;fill:#000000;stroke-width:0.265;stroke-dasharray:0.264999, 0.264999"
       d="M 4.4450023,11.969442 V 11.616665 H 4.0922248 V 9.8527772 h 0.3527775 v -0.352777 h 1.41111 v 0.352777 H 6.2088898 V 10.205555 H 5.5033348 V 9.8527772 h -0.705555 v 1.7638878 h 0.705555 v -0.352778 h 0.705555 v 0.352778 H 5.8561123 v 0.352777 z m 2.8222201,0 V 9.8527772 h -0.705555 v -0.352777 h 2.116665 v 0.352777 h -0.705555 v 2.1166648 z m 1.7638876,0 V 9.5000002 h 1.763888 v 0.352777 h 0.352777 V 10.558332 H 10.794998 V 10.91111 H 10.44222 v 0.352777 h 0.352778 v 0.352778 h 0.352777 v 0.352777 H 10.44222 V 11.616665 H 10.089443 V 11.263887 H 9.736665 v 0.705555 z m 0.705555,-1.41111 H 10.44222 V 9.8527772 H 9.736665 Z"
       id="path17"
       inkscape:label="t&amp;h"
       aria-label="CTR" />
  </g>
  <g
     inkscape:groupmode="layer"
     id="g9"
     inkscape:label="Etichette Testo path"
     style="display:inline"
     transform="translate(-2.5399999)">
    <path
       style="font-size:2.82222px;font-family:'C64 User';-inkscape-font-specification:'C64 User';text-align:center;text-anchor:middle;fill:#ffffff;stroke-width:0.265;stroke-dasharray:0.264999, 0.264999"
       d="m 4.7977798,112.174 v -2.11666 h -0.705555 v -0.35278 h 2.116665 v 0.35278 h -0.705555 v 2.11666 z m 1.7638876,0 v -2.46944 h 1.7638875 v 0.35278 h 0.3527775 v 0.70555 H 8.3255549 v 0.35278 H 7.9727774 v 0.35278 h 0.3527775 v 0.35278 h 0.3527775 v 0.35277 h -0.705555 v -0.35277 H 7.6199999 v -0.35278 H 7.2672224 v 0.70555 z m 0.705555,-1.41111 h 0.705555 v -0.70555 h -0.705555 z m 2.1166651,1.41111 v -0.35277 H 9.03111 v -1.76389 h 0.3527775 v -0.35278 h 1.4111105 v 0.35278 h 0.352777 v 0.35278 H 10.44222 v -0.35278 H 9.736665 v 1.76389 h 0.705555 v -0.70556 h -0.352777 v -0.35278 h 1.058332 v 1.05834 h -0.352777 v 0.35277 z"
       id="text2"
       inkscape:label="trg out"
       aria-label="TRG" />
    <path
       style="font-size:2.82222px;font-family:'C64 User';-inkscape-font-specification:'C64 User';text-align:center;text-anchor:middle;fill:#ffffff;stroke-width:0.265;stroke-dasharray:0.264999, 0.264999"
       d="M 4.4450023,98.944847 V 98.59207 H 4.0922248 v -1.763888 h 0.3527775 v -0.352777 h 1.41111 v 0.352777 H 6.2088898 V 98.59207 H 5.8561123 v 0.352777 z M 4.7977798,98.59207 h 0.705555 v -1.763888 h -0.705555 z m 2.1166651,0.352777 V 98.59207 H 6.5616674 v -2.116665 h 0.705555 v 2.116665 h 0.705555 v -2.116665 h 0.705555 V 98.59207 H 8.3255549 v 0.352777 z m 2.8222201,0 V 96.828182 H 9.03111 v -0.352777 h 2.116665 v 0.352777 H 10.44222 v 2.116665 z"
       id="text3"
       inkscape:label="out"
       aria-label="OUT" />
    <path
       style="font-size:2.82222px;font-family:'C64 User';-inkscape-font-specification:'C64 User';text-align:center;text-anchor:middle;fill:#ffffff;stroke-width:0.265;stroke-dasharray:0.264999, 0.264999"
       d="M 4.4670507,47.187492 V 46.834715 H 4.1142732 v -0.352778 h 0.7055551 v 0.352778 h 0.705555 V 46.12916 H 4.4670507 V 45.776382 H 4.1142732 V 45.070827 H 4.4670507 V 44.71805 h 1.4111101 v 0.352777 h 0.3527775 v 0.352778 h -0.705555 v -0.352778 h -0.705555 v 0.705555 h 1.0583325 v 0.352778 h 0.3527775 v 0.705555 H 5.8781608 v 0.352777 z m 2.4694427,0 V 46.834715 H 6.5837158 V 45.070827 H 6.9364934 V 44.71805 h 1.41111 v 0.352777 h 0.3527775 v 0.352778 h -0.705555 v -0.352778 h -0.705555 v 1.763888 h 0.705555 v -0.352778 h 0.705555 v 0.352778 H 8.3476034 v 0.352777 z M 9.7587135,44.71805 v 2.116665 h 1.4111105 v 0.352777 H 9.0531584 V 44.71805 Z"
       id="text4"
       inkscape:label="in"
       aria-label="SCL" />
    <path
       style="font-size:2.46944px;font-family:'C64 User';-inkscape-font-specification:'C64 User';text-align:center;text-anchor:middle;fill:#ffffff;stroke-width:0.265;stroke-dasharray:0.264999, 0.264999"
       d="m 4.8639286,60.16076 v -0.30868 h -0.30868 v -1.5434 h 0.30868 V 58 h 1.23472 v 0.30868 h 0.30868 v 0.30868 h -0.61736 v -0.30868 h -0.61736 v 1.5434 h 0.61736 V 59.5434 h 0.61736 v 0.30868 h -0.30868 v 0.30868 z M 7.3333686,58 v 1.85208 h 1.23472 v 0.30868 h -1.85208 V 58 Z m 1.5433999,2.16076 V 58 h 1.5433995 v 0.30868 h 0.30868 v 0.61736 h -0.30868 v 0.30868 h -0.30868 v 0.30868 h 0.30868 v 0.30868 h 0.30868 v 0.30868 h -0.61736 V 59.85208 H 9.8028085 V 59.5434 h -0.30868 v 0.61736 z m 0.61736,-1.23472 H 10.111488 V 58.30868 H 9.4941285 Z"
       id="text5"
       inkscape:label="ofs"
       aria-label="CLR" />
    <path
       style="font-size:2.46944px;font-family:'C64 User';-inkscape-font-specification:'C64 User';text-align:center;text-anchor:middle;fill:#ffffff;stroke-width:0.265;stroke-dasharray:0.264999, 0.264999"
       d="m 4.5552486,72.092123 v -2.16076 h 1.5434 v 0.30868 h 0.30868 v 0.61736 h -0.30868 v 0.30868 h -0.30868 v 0.30868 h 0.30868 v 0.30868 h 0.30868 v 0.30868 h -0.61736 v -0.30868 h -0.30868 v -0.30868 h -0.30868 v 0.61736 z m 0.61736,-1.23472 h 0.61736 v -0.61736 h -0.61736 z m 1.85208,1.23472 v -0.30868 h -0.30868 v -0.30868 h 0.61736 v 0.30868 h 0.61736 v -0.61736 h -0.92604 v -0.30868 h -0.30868 v -0.61736 h 0.30868 v -0.30868 h 1.23472 v 0.30868 h 0.30868 v 0.30868 h -0.61736 v -0.30868 h -0.61736 v 0.61736 h 0.92604 v 0.30868 h 0.30868 v 0.61736 h -0.30868 v 0.30868 z m 2.4694399,0 v -1.85208 h -0.61736 v -0.30868 h 1.8520795 v 0.30868 h -0.61736 v 1.85208 z"
       id="text6"
       inkscape:label="rst"
       aria-label="RST" />
    <path
       style="font-size:2.82222px;font-family:'C64 User';-inkscape-font-specification:'C64 User';text-align:center;text-anchor:middle;fill:#ffffff;stroke-width:0.265;stroke-dasharray:0.264999, 0.264999"
       d="M 4.4450023,84.594009 V 84.241232 H 4.0922248 v -1.763888 h 0.3527775 v -0.352777 h 1.41111 v 0.352777 h 0.3527775 v 0.352778 h -0.705555 v -0.352778 h -0.705555 v 1.763888 h 0.705555 v -0.352778 h 0.705555 v 0.352778 H 5.8561123 v 0.352777 z m 2.8222201,-2.469442 v 2.116665 h 1.41111 v 0.352777 H 6.5616674 V 82.124567 Z M 9.03111,84.594009 v -2.469442 h 0.705555 v 0.705555 h 0.352778 v -0.352778 h 0.352777 v -0.352777 h 0.705555 v 0.352777 h -0.352777 v 0.352778 H 10.44222 v 0.352777 h -0.352777 v 0.352778 h 0.352777 v 0.352777 h 0.352778 v 0.352778 h 0.352777 v 0.352777 H 10.44222 V 84.241232 H 10.089443 V 83.888454 H 9.736665 v 0.705555 z"
       id="text7"
       inkscape:label="prb"
       aria-label="CLK" />
    <path
       style="font-size:2.82222px;font-family:'C64 User';-inkscape-font-specification:'C64 User';text-align:center;text-anchor:middle;fill:#ffffff;stroke-width:0.265;stroke-dasharray:0.264999, 0.264999"
       d="m 4.8198283,31.2 v 2.116665 h 1.41111 v 0.352777 H 4.1142732 V 31.2 Z m 3.8805526,0 v 0.352777 h -1.41111 v 0.705555 h 0.705555 v 0.352778 h -0.705555 v 0.705555 h 1.41111 v 0.352777 H 6.5837158 V 31.2 Z m 0.3527775,2.469442 V 31.2 h 0.7055551 v 0.352777 h 0.3527775 v 0.352778 h 0.352777 V 31.2 h 0.705556 v 2.469442 H 10.464268 V 32.963887 H 10.111491 V 32.61111 H 9.7587135 v 1.058332 z"
       id="text8"
       inkscape:label="trg"
       aria-label="LEN" />
    <path
       style="font-size:2.82222px;font-family:'C64 User';-inkscape-font-specification:'C64 User';text-align:center;text-anchor:middle;fill:#ffffff;stroke-width:0.265;stroke-dasharray:0.264999, 0.264999"
       d="M 4.4450023,11.969442 V 11.616665 H 4.0922248 V 9.8527772 h 0.3527775 v -0.352777 h 1.41111 v 0.352777 H 6.2088898 V 10.205555 H 5.5033348 V 9.8527772 h -0.705555 v 1.7638878 h 0.705555 v -0.352778 h 0.705555 v 0.352778 H 5.8561123 v 0.352777 z m 2.8222201,0 V 9.8527772 h -0.705555 v -0.352777 h 2.116665 v 0.352777 h -0.705555 v 2.1166648 z m 1.7638876,0 V 9.5000002 h 1.763888 v 0.352777 h 0.352777 V 10.558332 H 10.794998 V 10.91111 H 10.44222 v 0.352777 h 0.352778 v 0.352778 h 0.352777 v 0.352777 H 10.44222 V 11.616665 H 10.089443 V 11.263887 H 9.736665 v 0.705555 z m 0.705555,-1.41111 H 10.44222 V 9.8527772 H 9.736665 Z"
       id="text9"
       inkscape:label="t&amp;h"
       aria-label="CTR" />
  </g>
  <g
     inkscape:label="header footer"
     inkscape:groupmode="layer"
     id="layer1"
     style="display:inline">
    <rect
       style="display:inline;fill:#00000a;fill-opacity:1;stroke:#666699;stroke-width:0.399812;stroke-dasharray:none;stroke-dashoffset:0;stroke-opacity:1"
       id="rect1"
       width="8.5601883"
       height="3.8001883"
       x="0.79990602"
       y="124.19991"
       inkscape:label="footer rect"
       ry="1.2" />
    <rect
       style="display:inline;fill:#00000a;fill-opacity:1;stroke:#666699;stroke-width:0.399961;stroke-dasharray:none;stroke-dashoffset:0;stroke-opacity:1"
       id="rect2138"
       width="7.600039"
       height="5.4000387"
       x="1.2796549"
       y="0.99965489"
       ry="1.5000002"
       inkscape:label="header rect" />
    <text
       xml:space="preserve"
       style="font-style:normal;font-variant:normal;font-weight:normal;font-stretch:normal;font-size:2.82222px;font-family:'C64 User';-inkscape-font-specification:'C64 User';display:none;fill:#cccccc;fill-opacity:1;stroke-width:0.264583"
       x="1.5522223"
       y="127.01666"
       id="text10"
       inkscape:label="skz"><tspan
         sodipodi:role="line"
         id="tspan1"
         style="font-size:2.82222px;fill:#cccccc;fill-opacity:1;stroke-width:0.264583"
         x="1.5522223"
         y="127.01666">skz</tspan></text>
    <path
       d="m 3.6688873,125.25278 v 0.35277 h -1.41111 v 0.35278 h 1.0583325 v 0.35278 h 0.3527775 v 0.35278 H 3.3161098 v 0.35277 H 1.5522223 v -0.35277 h 1.41111 v -0.35278 H 1.9049998 v -0.35278 H 1.5522223 v -0.35278 h 0.3527775 v -0.35277 z m 0.3527776,1.76388 V 124.9 h 0.705555 v 1.05833 h 0.3527775 v -0.35278 h 0.705555 v 0.35278 H 5.4327749 v 0.35278 h 0.3527775 v 0.35278 h 0.3527775 v 0.35277 h -0.705555 v -0.35277 H 5.0799974 v -0.35278 H 4.7272199 v 0.70555 z m 2.4694426,0 v -0.35277 H 6.843885 v -0.35278 h 0.3527775 v -0.35278 H 7.54944 v -0.35278 H 6.4911075 v -0.35277 h 2.116665 v 0.35277 H 8.254995 v 0.35278 H 7.9022175 v 0.35278 H 7.54944 v 0.35278 h 1.0583325 v 0.35277 z"
       id="text15"
       style="font-size:2.82222px;font-family:'C64 User';-inkscape-font-specification:'C64 User';fill:#cccccc;stroke-width:0.264583"
       inkscape:label="skz"
       aria-label="skz" />
    <text
       xml:space="preserve"
       style="font-style:normal;font-variant:normal;font-weight:normal;font-stretch:normal;font-size:2.82222px;font-family:'C64 User';-inkscape-font-specification:'C64 User';text-align:end;text-anchor:end;display:none;fill:#e5e5e5;fill-opacity:1;stroke-width:0.258083"
       x="7.853765"
       y="4.8438301"
       id="text1341"
       inkscape:label="rL"
       transform="scale(0.97543485,1.0251838)"><tspan
         sodipodi:role="line"
         id="tspan1339"
         style="font-size:2.82222px;text-align:end;text-anchor:end;fill:#e5e5e5;fill-opacity:1;stroke-width:0.258083"
         x="0"
         y="0">rL</tspan></text>
    <path
       d="M 2.9148799,4.8438301 V 3.0799426 H 4.6787674 V 3.4327201 H 5.0315449 V 3.7854976 H 4.3259899 V 3.4327201 h -0.705555 v 1.41111 z M 6.0898775,2.3743875 v 2.1166651 h 1.41111 V 4.8438301 H 5.3843225 V 2.3743875 Z"
       id="text16"
       style="font-size:2.82222px;font-family:'C64 User';-inkscape-font-specification:'C64 User';text-align:end;text-anchor:end;fill:#e5e5e5;stroke-width:0.258083"
       inkscape:label="rL"
       transform="scale(0.97543485,1.0251838)"
       aria-label="rL" />
  </g>
</svg>
