<?xml version="1.0" encoding="UTF-8" standalone="no"?>
<!-- Created with Inkscape (http://www.inkscape.org/) -->

<svg
   width="15.24mm"
   height="128.5mm"
   viewBox="0 0 15.24 128.5"
   version="1.1"
   id="svg5"
   inkscape:version="1.2.1 (9c6d41e410, 2022-07-14)"
   sodipodi:docname="SickoAmp.svg"
   xmlns:inkscape="http://www.inkscape.org/namespaces/inkscape"
   xmlns:sodipodi="http://sodipodi.sourceforge.net/DTD/sodipodi-0.dtd"
   xmlns="http://www.w3.org/2000/svg"
   xmlns:svg="http://www.w3.org/2000/svg">
  <sodipodi:namedview
     id="namedview7"
     pagecolor="#ffffff"
     bordercolor="#000000"
     borderopacity="0.25"
     inkscape:showpageshadow="2"
     inkscape:pageopacity="0.0"
     inkscape:pagecheckerboard="0"
     inkscape:deskcolor="#d1d1d1"
     inkscape:document-units="mm"
     showgrid="false"
     inkscape:zoom="2.828427"
     inkscape:cx="23.688078"
     inkscape:cy="79.549516"
     inkscape:window-width="1920"
     inkscape:window-height="1017"
     inkscape:window-x="-8"
     inkscape:window-y="-8"
     inkscape:window-maximized="1"
     inkscape:current-layer="layer4"
     showguides="true" />
  <defs
     id="defs2">
    <rect
       x="22.799086"
       y="440.55881"
       width="6.0350523"
       height="22.128525"
       id="rect289" />
  </defs>
  <g
     inkscape:groupmode="layer"
     id="layer3"
     inkscape:label="Sfondo"
     style="fill:#f9f9f9">
    <rect
       style="fill:#00001f;stroke-width:0.162024;image-rendering:auto;fill-opacity:1"
       id="sfondo"
       width="15.24"
       height="128.5"
       x="0"
       y="6.6613381e-16"
       inkscape:label="background"
       ry="0"
       sodipodi:insensitive="true" />
  </g>
  <g
     inkscape:groupmode="layer"
     id="layer7"
     inkscape:label="stripes"
     transform="matrix(0.08333333,0,0,1,5.1083333,0.59166683)"
     style="display:inline;fill:#000000">
    <rect
       style="display:inline;fill:#0088ff;fill-opacity:1;stroke-width:0.40253"
       id="rect1316"
       width="60"
       height="0.40000001"
       x="3.0200005"
       y="5.0580001"
       inkscape:label="azzurro" />
    <rect
       style="display:inline;fill:#00cc55;fill-opacity:1;stroke-width:0.40253"
       id="rect1313"
       width="60"
       height="0.40000001"
       x="3.0200005"
       y="4.0580001"
       inkscape:label="verde" />
    <rect
       style="display:inline;fill:#eeee77;fill-opacity:1;stroke-width:0.40253"
       id="rect1310"
       width="60"
       height="0.40000001"
       x="3.0200005"
       y="3.0580001"
       inkscape:label="giallo" />
    <rect
       style="display:inline;fill:#ff7777;fill-opacity:1;stroke-width:0.40253"
       id="rect989"
       width="60"
       height="0.40000001"
       x="3.0200005"
       y="2.0580001"
       inkscape:label="rosa" />
    <rect
       style="display:inline;fill:#bd0000;fill-opacity:1;stroke-width:0.40253"
       id="rect1308"
       width="60"
       height="0.40000001"
       x="2.7204449"
       y="0.65833217"
       transform="translate(0.29955559,0.400001)"
       inkscape:label="rosso" />
  </g>
  <g
     inkscape:groupmode="layer"
     id="layer4"
     inkscape:label="Elementi"
     style="fill:#f9f9f9">
    <rect
       style="display:inline;fill:#484884;fill-opacity:1;stroke:#666699;stroke-width:0.4;stroke-dasharray:none;stroke-opacity:1"
       id="rect2634"
       width="12.491513"
       height="23.566645"
       x="1.3742429"
       y="99.267677"
       ry="2"
       inkscape:label="output" />
    <rect
       style="display:inline;fill:#000033;fill-opacity:1;stroke:#666699;stroke-width:0.4;stroke-dasharray:none;stroke-opacity:1"
       id="rect12722"
       width="12.518028"
       height="24.841869"
       x="1.3609855"
       y="72.959885"
       ry="2"
       inkscape:label="asr" />
    <rect
       style="display:inline;fill:#000033;fill-opacity:1;stroke:#666699;stroke-width:0.4;stroke-dasharray:none;stroke-opacity:1"
       id="rect2037"
       width="12.127814"
       height="38.718109"
       x="1.5560925"
       y="32.802654"
       ry="2"
       inkscape:label="input" />
    <rect
       style="display:inline;fill:#000033;fill-opacity:1;stroke:#666699;stroke-width:0.4;stroke-dasharray:none;stroke-opacity:1"
       id="rect33317"
       width="12.441892"
       height="23.68042"
       x="1.3990542"
       y="7.614018"
       ry="2"
       inkscape:label="trg gate" />
    <rect
       style="display:inline;fill:#f2f2f2;stroke:none;stroke-width:0.375045;stroke-dasharray:none"
       id="rect4690"
       width="0.62838537"
       height="0.95759505"
       x="7.3058057"
       y="38.599998"
       ry="0.087054096"
       inkscape:label="speed line circle 1" />
    <path
       style="display:inline;fill:none;stroke:#ececec;stroke-width:0.399999;stroke-dasharray:none;stroke-dashoffset:0;stroke-opacity:1"
       id="path4724"
       inkscape:label="circle speed"
       sodipodi:type="arc"
       sodipodi:cx="7.6199994"
       sodipodi:cy="44.904922"
       sodipodi:rx="5.5"
       sodipodi:ry="5.5"
       sodipodi:start="2.0943951"
       sodipodi:end="1.0471976"
       sodipodi:arc-type="arc"
       d="m 4.8699994,49.668062 a 5.5,5.5 0 0 1 -2.562592,-6.186644 5.5,5.5 0 0 1 5.312592,-4.076496 5.5,5.5 0 0 1 5.3125926,4.076496 5.5,5.5 0 0 1 -2.562593,6.186644"
       sodipodi:open="true" />
    <path
       style="display:inline;fill:none;stroke:#ededed;stroke-width:0.4;stroke-dasharray:none;stroke-dashoffset:0;stroke-opacity:1"
       id="path4700"
       inkscape:label="circle 1"
       sodipodi:type="arc"
       sodipodi:cx="7.6199994"
       sodipodi:cy="56.751904"
       sodipodi:rx="3.5000069"
       sodipodi:ry="3.5"
       sodipodi:start="2.268928"
       sodipodi:end="0.87266463"
       sodipodi:arc-type="arc"
       d="M 5.3702384,59.433059 A 3.5000069,3.5 0 0 1 4.3310687,55.554833 3.5000069,3.5 0 0 1 7.6199994,53.251904 3.5000069,3.5 0 0 1 10.90893,55.554833 3.5000069,3.5 0 0 1 9.8697605,59.433059"
       sodipodi:open="true" />
    <rect
       style="display:inline;fill:#f2f2f2;stroke:none;stroke-width:0.375045;stroke-dasharray:none"
       id="rect4702"
       width="0.62838662"
       height="0.95759505"
       x="7.3058062"
       y="52.400002"
       ry="0.087054096"
       inkscape:label="line circle 1" />
    <path
       style="display:inline;fill:none;stroke:#ededed;stroke-width:0.4;stroke-dasharray:none;stroke-dashoffset:0;stroke-opacity:1"
       id="path7977"
       inkscape:label="circle 1"
       sodipodi:type="arc"
       sodipodi:cx="7.6199999"
       sodipodi:cy="92"
       sodipodi:rx="4.4000001"
       sodipodi:ry="4.4000001"
       sodipodi:start="2.0943951"
       sodipodi:end="1.0471976"
       sodipodi:arc-type="arc"
       d="M 5.4199998,95.810512 A 4.4000001,4.4000001 0 0 1 3.3699262,90.861196 4.4000001,4.4000001 0 0 1 7.6199999,87.6 4.4000001,4.4000001 0 0 1 11.870074,90.861196 4.4000001,4.4000001 0 0 1 9.8199997,95.810512"
       sodipodi:open="true" />
    <path
       style="display:inline;fill:#000000;stroke:#51517a;stroke-width:0.4;stroke-opacity:1"
       d="m 7.6199996,60.085656 0,1.441023"
       id="path1921"
       sodipodi:nodetypes="cc" />
    <path
       style="display:inline;fill:#000000;stroke:#51517a;stroke-width:0.4;stroke-opacity:1"
       d="M 7.6199996,50.230128 V 51.64894"
       id="path10909"
       sodipodi:nodetypes="cc" />
    <path
       style="display:inline;fill:#000000;stroke:#51517a;stroke-width:0.4;stroke-opacity:1"
       d="M 7.6199996,85.751618 V 86.95428"
       id="path11007"
       sodipodi:nodetypes="cc" />
    <rect
       style="display:inline;fill:#f2f2f2;stroke:none;stroke-width:0.322514;stroke-dasharray:none"
       id="rect12150"
       width="0.46468404"
       height="0.95759505"
       x="55.229164"
       y="9.7596989"
       ry="0.087054096"
       inkscape:label="line circle 1"
       transform="rotate(68.148933)" />
  </g>
  <g
     inkscape:groupmode="layer"
     id="layer5"
     inkscape:label="Etichette Testo"
     style="display:none">
    <text
       xml:space="preserve"
       style="font-style:normal;font-variant:normal;font-weight:normal;font-stretch:normal;font-size:2.82222px;font-family:'C64 User';-inkscape-font-specification:'C64 User';text-align:center;text-anchor:middle;fill:#ffffff;stroke:none;stroke-width:0.264999;stroke-dasharray:0.264999, 0.264999;stroke-dashoffset:0;stroke-opacity:1"
       x="7.7963881"
       y="103.27402"
       id="text2513"
       inkscape:label="out"><tspan
         sodipodi:role="line"
         id="tspan2511"
         style="font-size:2.82222px;text-align:center;text-anchor:middle;fill:#ffffff;stroke:none;stroke-width:0.265"
         x="7.7963881"
         y="103.27402">OUTs</tspan></text>
    <text
       xml:space="preserve"
       style="font-style:normal;font-variant:normal;font-weight:normal;font-stretch:normal;font-size:2.82222px;font-family:'C64 User';-inkscape-font-specification:'C64 User';text-align:center;text-anchor:middle;display:inline;fill:#ffffff;stroke:none;stroke-width:0.25;stroke-dasharray:0.25, 0.25;stroke-dashoffset:0;stroke-opacity:1"
       x="8.2535467"
       y="73.224525"
       id="text2255"
       inkscape:label="LIM"
       transform="scale(0.94340113,1.0599945)"><tspan
         sodipodi:role="line"
         id="tspan2253"
         style="font-size:2.82222px;text-align:center;text-anchor:middle;stroke:none;stroke-width:0.250001"
         x="8.2535467"
         y="73.224525">LIM</tspan></text>
    <text
       xml:space="preserve"
       style="font-style:normal;font-variant:normal;font-weight:normal;font-stretch:normal;font-size:3.175px;font-family:'C64 User';-inkscape-font-specification:'C64 User';text-align:center;text-anchor:middle;display:inline;fill:#ffffff;stroke:none;stroke-width:0.25;stroke-dasharray:0.25, 0.25;stroke-dashoffset:0;stroke-opacity:1"
       x="8.2535467"
       y="35.231125"
       id="text1135"
       inkscape:label="VCA"
       transform="scale(0.94340113,1.0599945)"><tspan
         sodipodi:role="line"
         id="tspan1133"
         style="font-size:3.175px;text-align:center;text-anchor:middle;stroke:none;stroke-width:0.250001"
         x="8.2535467"
         y="35.231125">VCA</tspan></text>
    <text
       xml:space="preserve"
       style="font-style:normal;font-variant:normal;font-weight:normal;font-stretch:normal;font-size:2.82222px;font-family:'C64 User';-inkscape-font-specification:'C64 User';text-align:center;text-anchor:middle;display:inline;fill:#ffffff;stroke:none;stroke-width:0.264999;stroke-dasharray:0.264999, 0.264999;stroke-dashoffset:0;stroke-opacity:1"
       x="7.7963886"
       y="11.58364"
       id="text2507"
       inkscape:label="in"><tspan
         sodipodi:role="line"
         id="tspan2505"
         style="font-size:2.82222px;text-align:center;text-anchor:middle;stroke:none;stroke-width:0.265"
         x="7.7963886"
         y="11.58364">INs</tspan></text>
  </g>
  <g
     inkscape:groupmode="layer"
     id="g987"
     inkscape:label="Etichette Testo nere"
     style="display:inline;fill:#000000"
     transform="translate(0.300497,0.2998025)">
    <g
       aria-label="OUTs"
       id="text973"
       style="font-size:2.82222px;font-family:'C64 User';-inkscape-font-specification:'C64 User';text-align:center;text-anchor:middle;fill:#000000;stroke-width:0.264999;stroke-dasharray:0.264999, 0.264999"
       inkscape:label="out">
      <path
         d="m 3.2102805,103.27402 v -0.35278 H 2.857503 v -1.76389 h 0.3527775 v -0.35278 h 1.4111101 v 0.35278 h 0.3527775 v 1.76389 H 4.6213906 v 0.35278 z m 0.3527775,-0.35278 h 0.705555 v -1.76389 H 3.563058 Z"
         style="fill:#000000;stroke-width:0.265"
         id="path989" />
      <path
         d="m 5.6797231,103.27402 v -0.35278 H 5.3269456 v -2.11667 h 0.705555 v 2.11667 h 0.705555 v -2.11667 h 0.7055551 v 2.11667 H 7.0908332 v 0.35278 z"
         style="fill:#000000;stroke-width:0.265"
         id="path991" />
      <path
         d="m 8.5019432,103.27402 v -2.11667 h -0.705555 v -0.35278 h 2.1166651 v 0.35278 h -0.705555 v 2.11667 z"
         style="fill:#000000;stroke-width:0.265"
         id="path993" />
      <path
         d="m 12.382496,101.51013 v 0.35278 h -1.41111 v 0.35277 h 1.058333 v 0.35278 h 0.352777 v 0.35278 h -0.352777 v 0.35278 h -1.763888 v -0.35278 h 1.41111 v -0.35278 h -1.058332 v -0.35278 h -0.352778 v -0.35277 h 0.352778 v -0.35278 z"
         style="fill:#000000;stroke-width:0.265"
         id="path995" />
    </g>
    <g
       aria-label="LIM"
       transform="scale(0.94340113,1.0599945)"
       id="text977"
       style="font-size:2.82222px;font-family:'C64 User';-inkscape-font-specification:'C64 User';text-align:center;text-anchor:middle;display:inline;fill:#000000;stroke-width:0.25;stroke-dasharray:0.25, 0.25"
       inkscape:label="LIM">
      <path
         d="m 5.4313266,70.755083 v 2.116665 h 1.4111101 v 0.352777 H 4.7257716 v -2.469442 z"
         style="fill:#000000;stroke-width:0.250001"
         id="path998" />
      <path
         d="M 8.6063243,70.755083 V 71.10786 H 8.2535467 v 1.763888 h 0.3527776 v 0.352777 H 7.1952142 V 72.871748 H 7.5479917 V 71.10786 H 7.1952142 v -0.352777 z"
         style="fill:#000000;stroke-width:0.250001"
         id="path1000" />
      <path
         d="m 8.9591019,73.224525 v -2.469442 h 0.705555 v 0.352777 h 0.3527771 v 0.352778 h 0.352778 V 71.10786 h 0.352777 v -0.352777 h 0.705555 v 2.469442 h -0.705555 v -1.41111 h -0.352777 v 0.352778 H 10.017434 V 71.813415 H 9.6646569 v 1.41111 z"
         style="fill:#000000;stroke-width:0.250001"
         id="path1002" />
    </g>
    <g
       aria-label="VCA"
       transform="scale(0.94340113,1.0599945)"
       id="text981"
       style="font-size:3.175px;font-family:'C64 User';-inkscape-font-specification:'C64 User';text-align:center;text-anchor:middle;display:inline;fill:#000000;stroke-width:0.25;stroke-dasharray:0.25, 0.25"
       inkscape:label="VCA">
      <path
         d="M 4.8801093,35.231125 V 34.83425 H 4.4832343 V 34.437375 H 4.0863593 V 32.453 h 0.79375 v 1.984375 h 0.79375 V 32.453 h 0.7937499 v 1.984375 H 6.0707342 V 34.83425 H 5.6738593 v 0.396875 z"
         style="fill:#000000;stroke-width:0.250001"
         id="path1005" />
      <path
         d="M 7.2613593,35.231125 V 34.83425 h -0.396875 v -1.984375 h 0.396875 V 32.453 h 1.5875 v 0.396875 h 0.396875 v 0.396875 h -0.79375 v -0.396875 h -0.79375 v 1.984375 h 0.79375 v -0.396875 h 0.79375 v 0.396875 h -0.396875 v 0.396875 z"
         style="fill:#000000;stroke-width:0.250001"
         id="path1007" />
      <path
         d="M 9.6426094,35.231125 V 33.24675 h 0.3968746 v -0.396875 h 0.396875 V 32.453 h 0.79375 v 0.396875 h 0.396875 v 0.396875 h 0.396875 v 1.984375 h -0.79375 V 34.0405 h -0.79375 v 1.190625 z m 0.7937496,-1.5875 h 0.79375 V 33.24675 h -0.79375 z"
         style="fill:#000000;stroke-width:0.250001"
         id="path1009" />
    </g>
    <g
       aria-label="INs"
       id="text985"
       style="font-size:2.82222px;font-family:'C64 User';-inkscape-font-specification:'C64 User';text-align:center;text-anchor:middle;display:inline;fill:#000000;stroke-width:0.264999;stroke-dasharray:0.264999, 0.264999"
       inkscape:label="in">
      <path
         d="M 5.8561123,9.1141975 V 9.466975 H 5.5033348 v 1.763888 h 0.3527775 v 0.352777 h -1.41111 V 11.230863 H 4.7977798 V 9.466975 H 4.4450023 V 9.1141975 Z"
         style="fill:#000000;stroke-width:0.265"
         id="path1012" />
      <path
         d="M 6.2088898,11.58364 V 9.1141975 h 0.705555 V 9.466975 H 7.2672223 V 9.8197525 H 7.6199998 V 9.1141975 H 8.3255549 V 11.58364 H 7.6199998 V 10.878085 H 7.2672223 V 10.525308 H 6.9144448 v 1.058332 z"
         style="fill:#000000;stroke-width:0.265"
         id="path1014" />
      <path
         d="M 10.794998,9.8197525 V 10.17253 H 9.3838875 v 0.352778 H 10.44222 v 0.352777 h 0.352778 v 0.352778 H 10.44222 V 11.58364 H 8.6783325 V 11.230863 H 10.089443 V 10.878085 H 9.03111 V 10.525308 H 8.6783325 V 10.17253 H 9.03111 V 9.8197525 Z"
         style="fill:#000000;stroke-width:0.265"
         id="path1016" />
    </g>
  </g>
  <g
     inkscape:groupmode="layer"
     id="g1053"
     inkscape:label="Etichette Testo path"
     style="display:inline">
    <g
       aria-label="OUTs"
       id="g1027"
       style="font-size:2.82222px;font-family:'C64 User';-inkscape-font-specification:'C64 User';text-align:center;text-anchor:middle;fill:#ffffff;stroke-width:0.264999;stroke-dasharray:0.264999, 0.264999"
       inkscape:label="out">
      <path
         d="m 3.2102805,103.27402 v -0.35278 H 2.857503 v -1.76389 h 0.3527775 v -0.35278 h 1.4111101 v 0.35278 h 0.3527775 v 1.76389 H 4.6213906 v 0.35278 z m 0.3527775,-0.35278 h 0.705555 v -1.76389 H 3.563058 Z"
         style="stroke-width:0.265"
         id="path1019" />
      <path
         d="m 5.6797231,103.27402 v -0.35278 H 5.3269456 v -2.11667 h 0.705555 v 2.11667 h 0.705555 v -2.11667 h 0.7055551 v 2.11667 H 7.0908332 v 0.35278 z"
         style="stroke-width:0.265"
         id="path1021" />
      <path
         d="m 8.5019432,103.27402 v -2.11667 h -0.705555 v -0.35278 h 2.1166651 v 0.35278 h -0.705555 v 2.11667 z"
         style="stroke-width:0.265"
         id="path1023" />
      <path
         d="m 12.382496,101.51013 v 0.35278 h -1.41111 v 0.35277 h 1.058333 v 0.35278 h 0.352777 v 0.35278 h -0.352777 v 0.35278 h -1.763888 v -0.35278 h 1.41111 v -0.35278 h -1.058332 v -0.35278 h -0.352778 v -0.35277 h 0.352778 v -0.35278 z"
         style="stroke-width:0.265"
         id="path1025" />
    </g>
    <g
       aria-label="LIM"
       transform="scale(0.94340113,1.0599945)"
       id="g1035"
       style="font-size:2.82222px;font-family:'C64 User';-inkscape-font-specification:'C64 User';text-align:center;text-anchor:middle;display:inline;fill:#ffffff;stroke-width:0.25;stroke-dasharray:0.25, 0.25"
       inkscape:label="LIM">
      <path
         d="m 5.4313266,70.755083 v 2.116665 h 1.4111101 v 0.352777 H 4.7257716 v -2.469442 z"
         style="stroke-width:0.250001"
         id="path1029" />
      <path
         d="M 8.6063243,70.755083 V 71.10786 H 8.2535467 v 1.763888 h 0.3527776 v 0.352777 H 7.1952142 V 72.871748 H 7.5479917 V 71.10786 H 7.1952142 v -0.352777 z"
         style="stroke-width:0.250001"
         id="path1031" />
      <path
         d="m 8.9591019,73.224525 v -2.469442 h 0.705555 v 0.352777 h 0.3527771 v 0.352778 h 0.352778 V 71.10786 h 0.352777 v -0.352777 h 0.705555 v 2.469442 h -0.705555 v -1.41111 h -0.352777 v 0.352778 H 10.017434 V 71.813415 H 9.6646569 v 1.41111 z"
         style="stroke-width:0.250001"
         id="path1033" />
    </g>
    <g
       aria-label="VCA"
       transform="scale(0.94340113,1.0599945)"
       id="g1043"
       style="font-size:3.175px;font-family:'C64 User';-inkscape-font-specification:'C64 User';text-align:center;text-anchor:middle;display:inline;fill:#ffffff;stroke-width:0.25;stroke-dasharray:0.25, 0.25"
       inkscape:label="VCA">
      <path
         d="M 4.8801093,35.231125 V 34.83425 H 4.4832343 V 34.437375 H 4.0863593 V 32.453 h 0.79375 v 1.984375 h 0.79375 V 32.453 h 0.7937499 v 1.984375 H 6.0707342 V 34.83425 H 5.6738593 v 0.396875 z"
         style="stroke-width:0.250001"
         id="path1037" />
      <path
         d="M 7.2613593,35.231125 V 34.83425 h -0.396875 v -1.984375 h 0.396875 V 32.453 h 1.5875 v 0.396875 h 0.396875 v 0.396875 h -0.79375 v -0.396875 h -0.79375 v 1.984375 h 0.79375 v -0.396875 h 0.79375 v 0.396875 h -0.396875 v 0.396875 z"
         style="stroke-width:0.250001"
         id="path1039" />
      <path
         d="M 9.6426094,35.231125 V 33.24675 h 0.3968746 v -0.396875 h 0.396875 V 32.453 h 0.79375 v 0.396875 h 0.396875 v 0.396875 h 0.396875 v 1.984375 h -0.79375 V 34.0405 h -0.79375 v 1.190625 z m 0.7937496,-1.5875 h 0.79375 V 33.24675 h -0.79375 z"
         style="stroke-width:0.250001"
         id="path1041" />
    </g>
    <g
       aria-label="INs"
       id="g1051"
       style="font-size:2.82222px;font-family:'C64 User';-inkscape-font-specification:'C64 User';text-align:center;text-anchor:middle;display:inline;fill:#ffffff;stroke-width:0.264999;stroke-dasharray:0.264999, 0.264999"
       inkscape:label="in">
      <path
         d="M 5.8561123,9.1141975 V 9.466975 H 5.5033348 v 1.763888 h 0.3527775 v 0.352777 h -1.41111 V 11.230863 H 4.7977798 V 9.466975 H 4.4450023 V 9.1141975 Z"
         style="stroke-width:0.265"
         id="path1045" />
      <path
         d="M 6.2088898,11.58364 V 9.1141975 h 0.705555 V 9.466975 H 7.2672223 V 9.8197525 H 7.6199998 V 9.1141975 H 8.3255549 V 11.58364 H 7.6199998 V 10.878085 H 7.2672223 V 10.525308 H 6.9144448 v 1.058332 z"
         style="stroke-width:0.265"
         id="path1047" />
      <path
         d="M 10.794998,9.8197525 V 10.17253 H 9.3838875 v 0.352778 H 10.44222 v 0.352777 h 0.352778 v 0.352778 H 10.44222 V 11.58364 H 8.6783325 V 11.230863 H 10.089443 V 10.878085 H 9.03111 V 10.525308 H 8.6783325 V 10.17253 H 9.03111 V 9.8197525 Z"
         style="stroke-width:0.265"
         id="path1049" />
    </g>
  </g>
  <g
     inkscape:label="header footer"
     inkscape:groupmode="layer"
     id="layer1"
     style="display:inline">
    <rect
       style="display:inline;fill:#00000a;fill-opacity:1;stroke:#666699;stroke-width:0.4;stroke-dasharray:none;stroke-dashoffset:0;stroke-opacity:1"
       id="rect2138"
       width="7.1264729"
       height="5.3939409"
       x="6.7475638"
       y="1.132198"
       ry="1.2"
       inkscape:label="header rect" />
    <text
       xml:space="preserve"
       style="font-style:normal;font-variant:normal;font-weight:normal;font-stretch:normal;font-size:3.175px;font-family:'C64 User';-inkscape-font-specification:'C64 User';text-align:center;text-anchor:middle;display:none;fill:#e5e5e5;fill-opacity:1;stroke-width:0.258083"
       x="10.768903"
       y="5.021625"
       id="text1341"
       inkscape:label="A"
       transform="scale(0.97543484,1.0251838)"><tspan
         sodipodi:role="line"
         id="tspan1339"
         style="font-size:3.175px;text-align:center;text-anchor:middle;fill:#e5e5e5;fill-opacity:1;stroke-width:0.258083"
         x="10.768903"
         y="5.021625">sA</tspan></text>
    <rect
       style="display:inline;fill:#00000a;fill-opacity:1;stroke:#666699;stroke-width:0.4;stroke-dasharray:none;stroke-dashoffset:0;stroke-opacity:1"
       id="rect1447-8"
       width="8.386981"
       height="3.8484273"
       x="1.3319837"
       y="124.21705"
       inkscape:label="footer rect"
       ry="1.2" />
    <text
       xml:space="preserve"
       style="font-style:normal;font-variant:normal;font-weight:normal;font-stretch:normal;font-size:2.82222px;font-family:'C64 User';-inkscape-font-specification:'C64 User';display:none;fill:#cccccc;fill-opacity:1;stroke-width:0.264583"
       x="1.6235188"
       y="127.19959"
       id="text183"
       inkscape:label="sickozell"><tspan
         sodipodi:role="line"
         id="tspan181"
         style="font-size:2.82222px;fill:#cccccc;fill-opacity:1;stroke-width:0.264583"
         x="1.6235188"
         y="127.19959">skz</tspan></text>
    <g
       aria-label="skz"
       id="text24111"
       style="font-size:2.82222px;font-family:'C64 User';-inkscape-font-specification:'C64 User';display:inline;fill:#cccccc;stroke-width:0.264583"
       inkscape:label="sickozell"
       transform="translate(0.37418024)">
      <path
         d="m 3.7401839,125.43571 v 0.35277 H 2.3290738 v 0.35278 h 1.0583326 v 0.35278 h 0.3527775 v 0.35278 H 3.3874064 v 0.35277 H 1.6235188 v -0.35277 h 1.4111101 v -0.35278 H 1.9762963 v -0.35278 H 1.6235188 v -0.35278 h 0.3527775 v -0.35277 z"
         id="path24113" />
      <path
         d="m 4.0929614,127.19959 v -2.11666 h 0.7055551 v 1.05833 H 5.151294 v -0.35278 h 0.705555 v 0.35278 H 5.5040715 v 0.35278 H 5.856849 v 0.35278 h 0.3527775 v 0.35277 h -0.705555 v -0.35277 H 5.151294 v -0.35278 H 4.7985165 v 0.70555 z"
         id="path24115" />
      <path
         d="m 6.562404,127.19959 v -0.35277 h 0.3527775 v -0.35278 h 0.3527776 v -0.35278 h 0.3527775 v -0.35278 H 6.562404 v -0.35277 h 2.1166651 v 0.35277 H 8.3262916 v 0.35278 H 7.9735141 v 0.35278 H 7.6207366 v 0.35278 h 1.0583325 v 0.35277 z"
         id="path24117" />
    </g>
    <g
       aria-label="sA"
       transform="scale(0.97543484,1.0251838)"
       id="text1159"
       style="font-size:3.175px;font-family:'C64 User';-inkscape-font-specification:'C64 User';text-align:center;text-anchor:middle;display:inline;fill:#e5e5e5;stroke-width:0.258083"
       inkscape:label="A">
      <path
         d="m 10.372028,3.0372501 v 0.396875 H 8.7845278 v 0.396875 h 1.190625 v 0.396875 H 10.372028 V 4.62475 H 9.9751528 V 5.021625 H 7.9907778 V 4.62475 h 1.5875 V 4.2278751 h -1.190625 v -0.396875 h -0.396875 v -0.396875 h 0.396875 v -0.396875 z"
         id="path1161" />
      <path
         d="M 10.768903,5.021625 V 3.0372501 h 0.396875 v -0.396875 h 0.396875 v -0.396875 h 0.79375 v 0.396875 h 0.396875 v 0.396875 h 0.396875 V 5.021625 h -0.79375 V 3.8310001 h -0.79375 V 5.021625 Z m 0.79375,-1.5874999 h 0.79375 v -0.396875 h -0.79375 z"
         id="path1163" />
    </g>
  </g>
</svg>
