<?xml version="1.0" encoding="UTF-8" standalone="no"?>
<!-- Created with Inkscape (http://www.inkscape.org/) -->

<svg
   width="15.24mm"
   height="128.5mm"
   viewBox="0 0 15.24 128.5"
   version="1.1"
   id="svg5"
   inkscape:version="1.4 (86a8ad7, 2024-10-11)"
   sodipodi:docname="SimpleSeq4.svg"
   xmlns:inkscape="http://www.inkscape.org/namespaces/inkscape"
   xmlns:sodipodi="http://sodipodi.sourceforge.net/DTD/sodipodi-0.dtd"
   xmlns="http://www.w3.org/2000/svg"
   xmlns:svg="http://www.w3.org/2000/svg">
  <sodipodi:namedview
     id="namedview7"
     pagecolor="#ffffff"
     bordercolor="#000000"
     borderopacity="0.25"
     inkscape:showpageshadow="2"
     inkscape:pageopacity="0.0"
     inkscape:pagecheckerboard="0"
     inkscape:deskcolor="#d1d1d1"
     inkscape:document-units="mm"
     showgrid="false"
     inkscape:zoom="2.0672504"
     inkscape:cx="37.247544"
     inkscape:cy="150.19951"
     inkscape:window-width="1366"
     inkscape:window-height="705"
     inkscape:window-x="-8"
     inkscape:window-y="-8"
     inkscape:window-maximized="1"
     inkscape:current-layer="g13"
     showguides="true" />
  <defs
     id="defs2">
    <rect
       x="22.799086"
       y="440.55881"
       width="6.0350523"
       height="22.128525"
       id="rect289" />
  </defs>
  <g
     inkscape:groupmode="layer"
     id="layer3"
     inkscape:label="Sfondo"
     style="fill:#f9f9f9">
    <rect
       style="fill:#00001f;stroke-width:0.162024;image-rendering:auto;fill-opacity:1"
       id="sfondo"
       width="15.24"
       height="128.5"
       x="0"
       y="6.6613381e-16"
       inkscape:label="background"
       ry="0"
       sodipodi:insensitive="true" />
  </g>
  <g
     inkscape:groupmode="layer"
     id="layer7"
     inkscape:label="stripes"
     transform="matrix(0.08333333,0,0,1,5.1083333,0.59166683)"
     style="display:inline;fill:#000000">
    <rect
       style="display:inline;fill:#0088ff;fill-opacity:1;stroke-width:0.40253"
       id="rect1316"
       width="60"
       height="0.40000001"
       x="3.0200005"
       y="5.0580001"
       inkscape:label="azzurro" />
    <rect
       style="display:inline;fill:#00cc55;fill-opacity:1;stroke-width:0.40253"
       id="rect1313"
       width="60"
       height="0.40000001"
       x="3.0200005"
       y="4.0580001"
       inkscape:label="verde" />
    <rect
       style="display:inline;fill:#eeee77;fill-opacity:1;stroke-width:0.40253"
       id="rect1310"
       width="60"
       height="0.40000001"
       x="3.0200005"
       y="3.0580001"
       inkscape:label="giallo" />
    <rect
       style="display:inline;fill:#ff7777;fill-opacity:1;stroke-width:0.40253"
       id="rect989"
       width="60"
       height="0.40000001"
       x="3.0200005"
       y="2.0580001"
       inkscape:label="rosa" />
    <rect
       style="display:inline;fill:#bd0000;fill-opacity:1;stroke-width:0.40253"
       id="rect1308"
       width="60"
       height="0.40000001"
       x="2.7204449"
       y="0.65833217"
       transform="translate(0.29955559,0.400001)"
       inkscape:label="rosso" />
  </g>
  <g
     inkscape:groupmode="layer"
     id="layer4"
     inkscape:label="Elementi"
     style="fill:#f9f9f9">
    <rect
       style="display:inline;fill:#484884;fill-opacity:1;stroke:#666699;stroke-width:0.400084;stroke-dasharray:none;stroke-opacity:1"
       id="rect2634"
       width="12.909917"
       height="15.075219"
       x="1.2000419"
       y="107.84357"
       ry="1.9992532"
       inkscape:label="output" />
    <rect
       style="display:inline;fill:#000033;fill-opacity:1;stroke:#666699;stroke-width:0.4;stroke-dasharray:none;stroke-opacity:1"
       id="rect12722"
       width="12.909379"
       height="68.352249"
       x="1.2003107"
       y="37.997646"
       ry="1.9999818"
       inkscape:label="asr" />
    <path
       style="display:inline;fill:none;stroke:#ececec;stroke-width:0.399999;stroke-dasharray:none;stroke-dashoffset:0;stroke-opacity:1"
       id="path3137"
       inkscape:label="circle speed"
       sodipodi:type="arc"
       sodipodi:cx="7.6199999"
       sodipodi:cy="59.62817"
       sodipodi:rx="5.5"
       sodipodi:ry="5.5"
       sodipodi:start="2.0943951"
       sodipodi:end="1.0471976"
       sodipodi:arc-type="arc"
       d="M 4.8699999,64.39131 A 5.5,5.5 0 0 1 2.3074079,58.204665 5.5,5.5 0 0 1 7.6199999,54.12817 5.5,5.5 0 0 1 12.932592,58.204665 5.5,5.5 0 0 1 10.37,64.39131"
       sodipodi:open="true" />
    <rect
       style="display:inline;fill:#f2f2f2;stroke:none;stroke-width:0.375045;stroke-dasharray:none"
       id="rect3139"
       width="0.62838537"
       height="0.95759505"
       x="7.3058071"
       y="53.200001"
       ry="0.087054096"
       inkscape:label="speed line circle 1" />
    <rect
       style="display:inline;fill:#000033;fill-opacity:1;stroke:#666699;stroke-width:0.399866;stroke-dasharray:none;stroke-opacity:1"
       id="rect1"
       width="12.910134"
       height="28.369768"
       x="1.1999329"
       y="8.2677546"
       ry="1.6526507"
       inkscape:label="input" />
    <path
       style="display:inline;fill:none;stroke:#ececec;stroke-width:0.399999;stroke-dasharray:none;stroke-dashoffset:0;stroke-opacity:1"
       id="path1"
       inkscape:label="circle speed"
       sodipodi:type="arc"
       sodipodi:cx="7.6199999"
       sodipodi:cy="86.628166"
       sodipodi:rx="5.5"
       sodipodi:ry="5.5"
       sodipodi:start="2.0943951"
       sodipodi:end="1.0471976"
       sodipodi:arc-type="arc"
       d="M 4.8699999,91.391306 A 5.5,5.5 0 0 1 2.3074079,85.204661 5.5,5.5 0 0 1 7.6199999,81.128166 5.5,5.5 0 0 1 12.932592,85.204662 5.5,5.5 0 0 1 10.37,91.391306"
       sodipodi:open="true" />
    <rect
       style="display:inline;fill:#f2f2f2;stroke:none;stroke-width:0.375045;stroke-dasharray:none"
       id="rect2"
       width="0.62838537"
       height="0.95759505"
       x="7.3058071"
       y="80.199997"
       ry="0.087054096"
       inkscape:label="speed line circle 1" />
    <path
       style="display:inline;fill:none;stroke:#ececec;stroke-width:0.399999;stroke-dasharray:none;stroke-dashoffset:0;stroke-opacity:1"
       id="path2"
       inkscape:label="circle speed"
       sodipodi:type="arc"
       sodipodi:cx="7.6199999"
       sodipodi:cy="73.128166"
       sodipodi:rx="5.5"
       sodipodi:ry="5.5"
       sodipodi:start="2.0943951"
       sodipodi:end="1.0471976"
       sodipodi:arc-type="arc"
       d="M 4.8699999,77.891306 A 5.5,5.5 0 0 1 2.3074079,71.704661 5.5,5.5 0 0 1 7.6199999,67.628166 5.5,5.5 0 0 1 12.932592,71.704662 5.5,5.5 0 0 1 10.37,77.891306"
       sodipodi:open="true" />
    <rect
       style="display:inline;fill:#f2f2f2;stroke:none;stroke-width:0.375045;stroke-dasharray:none"
       id="rect3"
       width="0.62838537"
       height="0.95759505"
       x="7.3058071"
       y="66.699997"
       ry="0.087054096"
       inkscape:label="speed line circle 1" />
    <path
       style="display:inline;fill:none;stroke:#ececec;stroke-width:0.399999;stroke-dasharray:none;stroke-dashoffset:0;stroke-opacity:1"
       id="path3"
       inkscape:label="circle speed"
       sodipodi:type="arc"
       sodipodi:cx="7.6199999"
       sodipodi:cy="46.128174"
       sodipodi:rx="5.5"
       sodipodi:ry="5.5"
       sodipodi:start="2.0943951"
       sodipodi:end="1.0471976"
       sodipodi:arc-type="arc"
       d="M 4.8699999,50.891314 A 5.5,5.5 0 0 1 2.3074079,44.704669 5.5,5.5 0 0 1 7.6199999,40.628174 5.5,5.5 0 0 1 12.932592,44.704669 5.5,5.5 0 0 1 10.37,50.891314"
       sodipodi:open="true" />
    <rect
       style="display:inline;fill:#f2f2f2;stroke:none;stroke-width:0.375045;stroke-dasharray:none"
       id="rect4"
       width="0.62838537"
       height="0.95759505"
       x="7.3058071"
       y="39.700001"
       ry="0.087054096"
       inkscape:label="speed line circle 1" />
  </g>
  <g
     inkscape:groupmode="layer"
     id="layer5"
     inkscape:label="Etichette Testo"
     style="display:none">
    <text
       xml:space="preserve"
       style="font-style:normal;font-variant:normal;font-weight:normal;font-stretch:normal;font-size:3.175px;font-family:'C64 User';-inkscape-font-specification:'C64 User';text-align:center;text-anchor:middle;fill:#ffffff;stroke:none;stroke-width:0.264999;stroke-dasharray:0.264999, 0.264999;stroke-dashoffset:0;stroke-opacity:1"
       x="7.7963886"
       y="112.174"
       id="text2513"
       inkscape:label="OUT"><tspan
         sodipodi:role="line"
         id="tspan2511"
         style="font-size:3.175px;text-align:center;text-anchor:middle;fill:#ffffff;stroke:none;stroke-width:0.265"
         x="7.7963891"
         y="112.174">OUT</tspan></text>
    <text
       xml:space="preserve"
       style="font-style:normal;font-variant:normal;font-weight:normal;font-stretch:normal;font-size:3.175px;font-family:'C64 User';-inkscape-font-specification:'C64 User';text-align:center;text-anchor:middle;display:inline;fill:#ffffff;stroke:none;stroke-width:0.264999;stroke-dasharray:0.264999, 0.264999;stroke-dashoffset:0;stroke-opacity:1"
       x="7.7963886"
       y="95.978127"
       id="text4"
       inkscape:label="REV"><tspan
         sodipodi:role="line"
         id="tspan4"
         style="font-size:3.175px;text-align:center;text-anchor:middle;stroke:none;stroke-width:0.265"
         x="7.7963891"
         y="95.978127">REV</tspan></text>
    <text
       xml:space="preserve"
       style="font-style:normal;font-variant:normal;font-weight:normal;font-stretch:normal;font-size:2.82222px;font-family:'C64 User';-inkscape-font-specification:'C64 User';text-align:center;text-anchor:middle;display:inline;fill:#ffffff;stroke:none;stroke-width:0.264999;stroke-dasharray:0.264999, 0.264999;stroke-dashoffset:0;stroke-opacity:1"
       x="7.7963886"
       y="25.969442"
       id="text2507"
       inkscape:label="RST"><tspan
         sodipodi:role="line"
         id="tspan2505"
         style="font-size:2.82222px;text-align:center;text-anchor:middle;stroke:none;stroke-width:0.265"
         x="7.7963886"
         y="25.969442">RST</tspan></text>
    <text
       xml:space="preserve"
       style="font-style:normal;font-variant:normal;font-weight:normal;font-stretch:normal;font-size:3.175px;font-family:'C64 User';-inkscape-font-specification:'C64 User';text-align:center;text-anchor:middle;display:inline;fill:#ffffff;stroke:none;stroke-width:0.264999;stroke-dasharray:0.264999, 0.264999;stroke-dashoffset:0;stroke-opacity:1"
       x="7.7963886"
       y="12.665622"
       id="text2601"
       inkscape:label="TRG"><tspan
         sodipodi:role="line"
         id="tspan2599"
         style="font-size:3.175px;text-align:center;text-anchor:middle;stroke:none;stroke-width:0.265"
         x="7.7963891"
         y="12.665622">TRG</tspan></text>
  </g>
  <g
     inkscape:groupmode="layer"
     id="g13"
     inkscape:label="Etichette Testo nere"
     style="display:inline;fill:#000000"
     transform="translate(0.2997988,0.2995032)">
    <path
       style="font-size:3.175px;font-family:'C64 User';-inkscape-font-specification:'C64 User';text-align:center;text-anchor:middle;fill:#000000;stroke-width:0.265;stroke-dasharray:0.264999, 0.264999"
       d="m 4.0260762,112.174 v -0.39687 h -0.396875 v -1.98438 h 0.396875 v -0.39687 h 1.5875 v 0.39687 h 0.396875 v 1.98438 h -0.396875 v 0.39687 z m 0.396875,-0.39687 h 0.79375 v -1.98438 h -0.79375 z m 2.38125,0.39687 v -0.39687 h -0.396875 v -2.38125 h 0.79375 v 2.38125 h 0.79375 v -2.38125 h 0.79375 v 2.38125 h -0.396875 v 0.39687 z m 3.1750001,0 v -2.38125 h -0.79375 v -0.39687 h 2.3812497 v 0.39687 h -0.79375 v 2.38125 z"
       id="path10"
       inkscape:label="OUT"
       aria-label="OUT" />
    <path
       style="font-size:3.175px;font-family:'C64 User';-inkscape-font-specification:'C64 User';text-align:center;text-anchor:middle;fill:#000000;stroke-width:0.265;stroke-dasharray:0.264999, 0.264999"
       d="m 3.6292012,95.978127 v -2.778125 h 1.984375 v 0.396875 h 0.396875 v 0.79375 h -0.396875 v 0.396875 h -0.396875 v 0.396875 h 0.396875 v 0.396875 h 0.396875 v 0.396875 h -0.79375 v -0.396875 h -0.396875 v -0.396875 h -0.396875 v 0.79375 z m 0.79375,-1.5875 h 0.79375 v -0.79375 h -0.79375 z m 4.365625,-1.190625 v 0.396875 h -1.5875 v 0.79375 h 0.79375 v 0.396875 h -0.79375 v 0.79375 h 1.5875 v 0.396875 h -2.38125 v -2.778125 z m 1.1906251,2.778125 v -0.396875 h -0.396875 v -0.396875 h -0.396875 v -1.984375 h 0.79375 v 1.984375 h 0.7937497 v -1.984375 h 0.79375 v 1.984375 h -0.396875 v 0.396875 h -0.396875 v 0.396875 z"
       id="path11"
       inkscape:label="REV"
       aria-label="REV" />
    <path
       style="font-size:2.82222px;font-family:'C64 User';-inkscape-font-specification:'C64 User';text-align:center;text-anchor:middle;fill:#000000;stroke-width:0.265;stroke-dasharray:0.264999, 0.264999"
       d="M 4.0922248,25.969442 V 23.5 h 1.7638875 v 0.352777 h 0.3527775 v 0.705555 H 5.8561123 V 24.91111 H 5.5033348 v 0.352777 h 0.3527775 v 0.352778 h 0.3527775 v 0.352777 H 5.5033348 V 25.616665 H 5.1505573 V 25.263887 H 4.7977798 v 0.705555 z m 0.705555,-1.41111 h 0.705555 v -0.705555 h -0.705555 z m 2.1166651,1.41111 V 25.616665 H 6.5616674 v -0.352778 h 0.705555 v 0.352778 h 0.705555 V 24.91111 H 6.9144449 V 24.558332 H 6.5616674 V 23.852777 H 6.9144449 V 23.5 h 1.41111 v 0.352777 h 0.3527775 v 0.352778 h -0.705555 v -0.352778 h -0.705555 v 0.705555 h 1.0583325 v 0.352778 h 0.3527775 v 0.705555 H 8.3255549 v 0.352777 z m 2.8222201,0 V 23.852777 H 9.03111 V 23.5 h 2.116665 v 0.352777 H 10.44222 v 2.116665 z"
       id="path12"
       inkscape:label="RST"
       aria-label="RST" />
    <path
       style="font-size:3.175px;font-family:'C64 User';-inkscape-font-specification:'C64 User';text-align:center;text-anchor:middle;fill:#000000;stroke-width:0.265;stroke-dasharray:0.264999, 0.264999"
       d="m 4.4229512,12.665622 v -2.38125 h -0.79375 V 9.8874968 h 2.38125 v 0.3968752 h -0.79375 v 2.38125 z m 1.984375,0 V 9.8874968 h 1.984375 v 0.3968752 h 0.396875 v 0.79375 h -0.396875 v 0.396875 h -0.396875 v 0.396875 h 0.396875 v 0.396875 h 0.396875 v 0.396875 h -0.79375 v -0.396875 h -0.396875 v -0.396875 h -0.396875 v 0.79375 z m 0.79375,-1.5875 h 0.79375 v -0.79375 h -0.79375 z m 2.3812501,1.5875 v -0.396875 h -0.396875 v -1.984375 h 0.396875 V 9.8874968 h 1.5874997 v 0.3968752 h 0.396875 v 0.396875 h -0.79375 V 10.284372 H 9.9792013 v 1.984375 h 0.7937497 v -0.79375 h -0.396875 v -0.396875 h 1.190625 v 1.190625 h -0.396875 v 0.396875 z"
       id="path13"
       inkscape:label="TRG"
       aria-label="TRG" />
  </g>
  <g
     inkscape:groupmode="layer"
     id="g10"
     inkscape:label="Etichette Testo path"
     style="display:inline">
    <path
       style="font-size:3.175px;font-family:'C64 User';-inkscape-font-specification:'C64 User';text-align:center;text-anchor:middle;fill:#ffffff;stroke-width:0.265;stroke-dasharray:0.264999, 0.264999"
       d="m 4.0260762,112.174 v -0.39687 h -0.396875 v -1.98438 h 0.396875 v -0.39687 h 1.5875 v 0.39687 h 0.396875 v 1.98438 h -0.396875 v 0.39687 z m 0.396875,-0.39687 h 0.79375 v -1.98438 h -0.79375 z m 2.38125,0.39687 v -0.39687 h -0.396875 v -2.38125 h 0.79375 v 2.38125 h 0.79375 v -2.38125 h 0.79375 v 2.38125 h -0.396875 v 0.39687 z m 3.1750001,0 v -2.38125 h -0.79375 v -0.39687 h 2.3812497 v 0.39687 h -0.79375 v 2.38125 z"
       id="text1"
       inkscape:label="OUT"
       aria-label="OUT" />
    <path
       style="font-size:3.175px;font-family:'C64 User';-inkscape-font-specification:'C64 User';text-align:center;text-anchor:middle;fill:#ffffff;stroke-width:0.265;stroke-dasharray:0.264999, 0.264999"
       d="m 3.6292012,95.978127 v -2.778125 h 1.984375 v 0.396875 h 0.396875 v 0.79375 h -0.396875 v 0.396875 h -0.396875 v 0.396875 h 0.396875 v 0.396875 h 0.396875 v 0.396875 h -0.79375 v -0.396875 h -0.396875 v -0.396875 h -0.396875 v 0.79375 z m 0.79375,-1.5875 h 0.79375 v -0.79375 h -0.79375 z m 4.365625,-1.190625 v 0.396875 h -1.5875 v 0.79375 h 0.79375 v 0.396875 h -0.79375 v 0.79375 h 1.5875 v 0.396875 h -2.38125 v -2.778125 z m 1.1906251,2.778125 v -0.396875 h -0.396875 v -0.396875 h -0.396875 v -1.984375 h 0.79375 v 1.984375 h 0.7937497 v -1.984375 h 0.79375 v 1.984375 h -0.396875 v 0.396875 h -0.396875 v 0.396875 z"
       id="text2"
       inkscape:label="REV"
       aria-label="REV" />
    <path
       style="font-size:2.82222px;font-family:'C64 User';-inkscape-font-specification:'C64 User';text-align:center;text-anchor:middle;fill:#ffffff;stroke-width:0.265;stroke-dasharray:0.264999, 0.264999"
       d="M 4.0922248,25.969442 V 23.5 h 1.7638875 v 0.352777 h 0.3527775 v 0.705555 H 5.8561123 V 24.91111 H 5.5033348 v 0.352777 h 0.3527775 v 0.352778 h 0.3527775 v 0.352777 H 5.5033348 V 25.616665 H 5.1505573 V 25.263887 H 4.7977798 v 0.705555 z m 0.705555,-1.41111 h 0.705555 v -0.705555 h -0.705555 z m 2.1166651,1.41111 V 25.616665 H 6.5616674 v -0.352778 h 0.705555 v 0.352778 h 0.705555 V 24.91111 H 6.9144449 V 24.558332 H 6.5616674 V 23.852777 H 6.9144449 V 23.5 h 1.41111 v 0.352777 h 0.3527775 v 0.352778 h -0.705555 v -0.352778 h -0.705555 v 0.705555 h 1.0583325 v 0.352778 h 0.3527775 v 0.705555 H 8.3255549 v 0.352777 z m 2.8222201,0 V 23.852777 H 9.03111 V 23.5 h 2.116665 v 0.352777 H 10.44222 v 2.116665 z"
       id="text3"
       inkscape:label="RST"
       aria-label="RST" />
    <path
       style="font-size:3.175px;font-family:'C64 User';-inkscape-font-specification:'C64 User';text-align:center;text-anchor:middle;fill:#ffffff;stroke-width:0.265;stroke-dasharray:0.264999, 0.264999"
       d="m 4.4229512,12.665622 v -2.38125 h -0.79375 V 9.8874968 h 2.38125 v 0.3968752 h -0.79375 v 2.38125 z m 1.984375,0 V 9.8874968 h 1.984375 v 0.3968752 h 0.396875 v 0.79375 h -0.396875 v 0.396875 h -0.396875 v 0.396875 h 0.396875 v 0.396875 h 0.396875 v 0.396875 h -0.79375 v -0.396875 h -0.396875 v -0.396875 h -0.396875 v 0.79375 z m 0.79375,-1.5875 h 0.79375 v -0.79375 h -0.79375 z m 2.3812501,1.5875 v -0.396875 h -0.396875 v -1.984375 h 0.396875 V 9.8874968 h 1.5874997 v 0.3968752 h 0.396875 v 0.396875 h -0.79375 V 10.284372 H 9.9792013 v 1.984375 h 0.7937497 v -0.79375 h -0.396875 v -0.396875 h 1.190625 v 1.190625 h -0.396875 v 0.396875 z"
       id="text10"
       inkscape:label="TRG"
       aria-label="TRG" />
  </g>
  <g
     inkscape:label="header footer"
     inkscape:groupmode="layer"
     id="layer1"
     style="display:inline">
    <rect
       style="display:inline;fill:#00000a;fill-opacity:1;stroke:#666699;stroke-width:0.4;stroke-dasharray:none;stroke-dashoffset:0;stroke-opacity:1"
       id="rect2138"
       width="7.4012656"
       height="5.3881006"
       x="6.469851"
       y="1.135118"
       ry="1.5"
       inkscape:label="header rect" />
    <rect
       style="display:inline;fill:#00000a;fill-opacity:1;stroke:#666699;stroke-width:0.4;stroke-dasharray:none;stroke-dashoffset:0;stroke-opacity:1"
       id="rect1447-8"
       width="8.386981"
       height="3.8484273"
       x="1.3319837"
       y="124.21705"
       inkscape:label="footer rect"
       ry="1.2" />
    <text
       xml:space="preserve"
       style="font-style:normal;font-variant:normal;font-weight:normal;font-stretch:normal;font-size:2.82222px;font-family:'C64 User';-inkscape-font-specification:'C64 User';display:none;fill:#cccccc;fill-opacity:1;stroke-width:0.264583"
       x="1.6235188"
       y="127.19959"
       id="text183"
       inkscape:label="sickozell"><tspan
         sodipodi:role="line"
         id="tspan181"
         style="font-size:2.82222px;fill:#cccccc;fill-opacity:1;stroke-width:0.264583"
         x="1.6235188"
         y="127.19959">skz</tspan></text>
    <g
       aria-label="skz"
       id="text24111"
       style="font-size:2.82222px;font-family:'C64 User';-inkscape-font-specification:'C64 User';display:inline;fill:#cccccc;stroke-width:0.264583"
       inkscape:label="sickozell"
       transform="translate(0.37418024)">
      <path
         d="m 3.7401839,125.43571 v 0.35277 H 2.3290738 v 0.35278 h 1.0583326 v 0.35278 h 0.3527775 v 0.35278 H 3.3874064 v 0.35277 H 1.6235188 v -0.35277 h 1.4111101 v -0.35278 H 1.9762963 v -0.35278 H 1.6235188 v -0.35278 h 0.3527775 v -0.35277 z"
         id="path24113" />
      <path
         d="m 4.0929614,127.19959 v -2.11666 h 0.7055551 v 1.05833 H 5.151294 v -0.35278 h 0.705555 v 0.35278 H 5.5040715 v 0.35278 H 5.856849 v 0.35278 h 0.3527775 v 0.35277 h -0.705555 v -0.35277 H 5.151294 v -0.35278 H 4.7985165 v 0.70555 z"
         id="path24115" />
      <path
         d="m 6.562404,127.19959 v -0.35277 h 0.3527775 v -0.35278 h 0.3527776 v -0.35278 h 0.3527775 v -0.35278 H 6.562404 v -0.35277 h 2.1166651 v 0.35277 H 8.3262916 v 0.35278 H 7.9735141 v 0.35278 H 7.6207366 v 0.35278 h 1.0583325 v 0.35277 z"
         id="path24117" />
    </g>
    <text
       xml:space="preserve"
       style="font-style:normal;font-variant:normal;font-weight:normal;font-stretch:normal;font-size:3.175px;font-family:'C64 User';-inkscape-font-specification:'C64 User';text-align:center;text-anchor:middle;display:none;fill:#e5e5e5;fill-opacity:1;stroke-width:0.258083"
       x="12.249412"
       y="5.021625"
       id="text1341"
       inkscape:label="4"
       transform="scale(0.97543485,1.0251838)"><tspan
         sodipodi:role="line"
         id="tspan1339"
         style="font-size:3.175px;text-align:center;text-anchor:middle;fill:#e5e5e5;fill-opacity:1;stroke-width:0.258083"
         x="12.249412"
         y="5.021625">4</tspan></text>
    <text
       xml:space="preserve"
       style="font-style:normal;font-variant:normal;font-weight:normal;font-stretch:normal;font-size:3.175px;font-family:'C64 User';-inkscape-font-specification:'C64 User';text-align:center;text-anchor:middle;display:none;fill:#e5e5e5;fill-opacity:1;stroke-width:0.258083"
       x="9.0779409"
       y="5.8810415"
       id="text6"
       inkscape:label="s"
       transform="scale(0.97543485,1.0251838)"><tspan
         sodipodi:role="line"
         id="tspan6"
         style="font-size:3.175px;text-align:center;text-anchor:middle;fill:#e5e5e5;fill-opacity:1;stroke-width:0.258083"
         x="9.0779409"
         y="5.8810415">s</tspan></text>
    <text
       xml:space="preserve"
       style="font-style:normal;font-variant:normal;font-weight:normal;font-stretch:normal;font-size:3.175px;font-family:'C64 User';-inkscape-font-specification:'C64 User';text-align:center;text-anchor:middle;display:none;fill:#e5e5e5;fill-opacity:1;stroke-width:0.258083"
       x="9.0779409"
       y="3.5208983"
       id="text5"
       inkscape:label="s"
       transform="scale(0.97543485,1.0251838)"><tspan
         sodipodi:role="line"
         id="tspan5"
         style="font-size:3.175px;text-align:center;text-anchor:middle;fill:#e5e5e5;fill-opacity:1;stroke-width:0.258083"
         x="9.0779409"
         y="3.5208983">s</tspan></text>
    <path
       d="M 12.249412,5.021625 V 4.2278751 h -1.5875 v -0.79375 h 0.79375 v 0.396875 h 0.79375 v -0.396875 h -0.79375 v -0.396875 h 0.396875 v -0.396875 h 0.396875 v -0.396875 h 0.79375 v 1.5875 h 0.396875 v 0.396875 H 13.043162 V 5.021625 Z"
       id="text7"
       style="font-size:3.175px;font-family:'C64 User';-inkscape-font-specification:'C64 User';text-align:center;text-anchor:middle;fill:#e5e5e5;stroke-width:0.258083"
       inkscape:label="4"
       transform="scale(0.97543485,1.0251838)"
       aria-label="4" />
    <path
       d="m 10.070128,3.8966666 v 0.396875 H 8.4826284 v 0.3968749 h 1.190625 v 0.396875 h 0.3968746 v 0.396875 H 9.6732534 v 0.396875 H 7.6888785 V 5.4841665 H 9.2763784 V 5.0872915 H 8.0857535 V 4.6904165 H 7.6888785 V 4.2935416 h 0.396875 v -0.396875 z"
       id="text8"
       style="font-size:3.175px;font-family:'C64 User';-inkscape-font-specification:'C64 User';text-align:center;text-anchor:middle;fill:#e5e5e5;stroke-width:0.258083"
       inkscape:label="s"
       transform="scale(0.97543485,1.0251838)"
       aria-label="s" />
    <path
       d="m 10.070128,1.5365234 v 0.396875 H 8.4826284 v 0.396875 h 1.190625 v 0.396875 H 10.070128 V 3.1240233 H 9.6732534 v 0.396875 H 7.6888785 V 3.1240233 H 9.2763784 V 2.7271484 H 8.0857535 v -0.396875 h -0.396875 v -0.396875 h 0.396875 v -0.396875 z"
       id="text9"
       style="font-size:3.175px;font-family:'C64 User';-inkscape-font-specification:'C64 User';text-align:center;text-anchor:middle;fill:#e5e5e5;stroke-width:0.258083"
       inkscape:label="s"
       transform="scale(0.97543485,1.0251838)"
       aria-label="s" />
  </g>
</svg>
