<?xml version="1.0" encoding="UTF-8" standalone="no"?>
<!-- Created with Inkscape (http://www.inkscape.org/) -->

<svg
   width="25.4mm"
   height="128.5mm"
   viewBox="0 0 25.4 128.5"
   version="1.1"
   id="svg5"
   inkscape:version="1.2.1 (9c6d41e410, 2022-07-14)"
   sodipodi:docname="Slewer.svg"
   xml:space="preserve"
   xmlns:inkscape="http://www.inkscape.org/namespaces/inkscape"
   xmlns:sodipodi="http://sodipodi.sourceforge.net/DTD/sodipodi-0.dtd"
   xmlns="http://www.w3.org/2000/svg"
   xmlns:svg="http://www.w3.org/2000/svg"><sodipodi:namedview
     id="namedview7"
     pagecolor="#ffffff"
     bordercolor="#000000"
     borderopacity="0.25"
     inkscape:showpageshadow="2"
     inkscape:pageopacity="0.0"
     inkscape:pagecheckerboard="0"
     inkscape:deskcolor="#d1d1d1"
     inkscape:document-units="mm"
     showgrid="false"
     inkscape:zoom="2.0000001"
     inkscape:cx="-39.249999"
     inkscape:cy="156.5"
     inkscape:window-width="1366"
     inkscape:window-height="705"
     inkscape:window-x="-8"
     inkscape:window-y="-8"
     inkscape:window-maximized="1"
     inkscape:current-layer="g1326"
     showguides="true" /><defs
     id="defs2"><rect
       x="22.799086"
       y="440.55881"
       width="6.0350523"
       height="22.128525"
       id="rect289" /></defs><g
     inkscape:groupmode="layer"
     id="layer3"
     inkscape:label="Sfondo"
     transform="scale(1.7272727,1)"><rect
       style="fill:#00001f;fill-opacity:1;stroke-width:0.142354;image-rendering:auto"
       id="sfondo"
       width="14.705263"
       height="128.5"
       x="0"
       y="6.6613381e-16"
       inkscape:label="background"
       ry="0"
       sodipodi:insensitive="true" /></g><g
     inkscape:groupmode="layer"
     id="layer7"
     inkscape:label="stripes"
     transform="matrix(0.26587384,0,0,1,3.155729,0.59166683)"
     style="display:inline;fill:#000000;stroke:none"><rect
       style="display:inline;fill:#0088ff;fill-opacity:1;stroke-width:0.40313"
       id="rect1316"
       width="60.178917"
       height="0.40000001"
       x="5.8082848"
       y="5.0580001"
       inkscape:label="azzurro" /><rect
       style="display:inline;fill:#00cc55;fill-opacity:1;stroke-width:0.40313"
       id="rect1313"
       width="60.178917"
       height="0.40000001"
       x="5.8082848"
       y="4.0580001"
       inkscape:label="verde" /><rect
       style="display:inline;fill:#eeee77;fill-opacity:1;stroke-width:0.40313"
       id="rect1310"
       width="60.178917"
       height="0.40000001"
       x="5.8082848"
       y="3.0580001"
       inkscape:label="giallo" /><rect
       style="display:inline;fill:#ff7777;fill-opacity:1;stroke-width:0.40313"
       id="rect989"
       width="60.178917"
       height="0.40000001"
       x="5.8082848"
       y="2.0580001"
       inkscape:label="rosa" /><rect
       style="display:inline;fill:#bd0000;fill-opacity:1;stroke-width:0.40313"
       id="rect1308"
       width="60.178917"
       height="0.40000001"
       x="5.8082848"
       y="1.0583332"
       inkscape:label="rosso" /></g><g
     inkscape:groupmode="layer"
     id="g7864"
     inkscape:label="stripes copy"
     transform="matrix(0.26685131,0,0,0.77278577,3.3074048,123.58213)"
     style="display:inline;fill:#000000;stroke:none"><rect
       style="display:inline;fill:#0088ff;fill-opacity:1;stroke-width:0.376402"
       id="rect7854"
       width="52.463673"
       height="0.40000001"
       x="8.9660234"
       y="5.0580001"
       inkscape:label="azzurro" /><rect
       style="display:inline;fill:#00cc55;fill-opacity:1;stroke-width:0.376402"
       id="rect7856"
       width="52.463673"
       height="0.40000001"
       x="8.9660234"
       y="4.0580001"
       inkscape:label="verde" /><rect
       style="display:inline;fill:#eeee77;fill-opacity:1;stroke-width:0.376402"
       id="rect7858"
       width="52.463673"
       height="0.40000001"
       x="8.9660234"
       y="3.0580001"
       inkscape:label="giallo" /><rect
       style="display:inline;fill:#ff7777;fill-opacity:1;stroke-width:0.376402"
       id="rect7860"
       width="52.463673"
       height="0.40000001"
       x="8.9660234"
       y="2.0580001"
       inkscape:label="rosa" /><rect
       style="display:inline;fill:#bd0000;fill-opacity:1;stroke-width:0.376402"
       id="rect7862"
       width="52.463673"
       height="0.40000001"
       x="8.9660234"
       y="1.0583332"
       inkscape:label="rosso" /></g><g
     inkscape:groupmode="layer"
     id="layer4"
     inkscape:label="Elementi"
     style="display:inline;fill:#f9f9f9"><rect
       style="display:inline;fill:#000033;fill-opacity:1;stroke:#666699;stroke-width:0.399416;stroke-dasharray:none;stroke-dashoffset:0;stroke-opacity:1"
       id="rect980"
       width="23.000584"
       height="27.600584"
       x="1.199708"
       y="8.199708"
       ry="2.0000665"
       inkscape:label="rect" /><rect
       style="display:inline;fill:#000033;fill-opacity:1;stroke:#666699;stroke-width:0.399416;stroke-dasharray:none;stroke-dashoffset:0;stroke-opacity:1"
       id="rect1053"
       width="23.000584"
       height="27.600584"
       x="1.199708"
       y="37.199707"
       ry="2.0000665"
       inkscape:label="rect" /><rect
       style="display:inline;fill:#000033;fill-opacity:1;stroke:#666699;stroke-width:0.399416;stroke-dasharray:none;stroke-dashoffset:0;stroke-opacity:1"
       id="rect1076"
       width="23.000584"
       height="27.600584"
       x="1.199708"
       y="66.399712"
       ry="2.0000665"
       inkscape:label="rect" /><rect
       style="display:inline;fill:#494983;fill-opacity:1;stroke:#666699;stroke-width:0.399512;stroke-dasharray:none;stroke-dashoffset:0;stroke-opacity:1"
       id="rect3331"
       width="10.600488"
       height="12.600489"
       x="1.1997558"
       y="95.700233"
       ry="2"
       inkscape:label="slot1 rect" /><path
       style="display:inline;fill:none;stroke:#ededed;stroke-width:0.4;stroke-dasharray:none;stroke-dashoffset:0;stroke-opacity:1"
       id="path10512"
       inkscape:label="circle 1"
       sodipodi:type="arc"
       sodipodi:cx="18.00016"
       sodipodi:cy="30.651886"
       sodipodi:rx="3.5"
       sodipodi:ry="3.5"
       sodipodi:start="2.0943951"
       sodipodi:end="1.0471976"
       sodipodi:arc-type="arc"
       d="m 16.25016,33.682975 a 3.5,3.5 0 0 1 -1.63074,-3.936956 3.5,3.5 0 0 1 3.38074,-2.594133 3.5,3.5 0 0 1 3.380741,2.594133 3.5,3.5 0 0 1 -1.630741,3.936956"
       sodipodi:open="true" /><rect
       style="display:inline;fill:#f2f2f2;stroke:none;stroke-width:0.375045;stroke-dasharray:none"
       id="rect10514"
       width="0.62838537"
       height="0.95759505"
       x="17.685972"
       y="26.299999"
       ry="0.087054096"
       inkscape:label="line circle 1" /><path
       style="display:inline;fill:none;stroke:#ececec;stroke-width:0.399999;stroke-dasharray:none;stroke-dashoffset:0;stroke-opacity:1"
       id="path10520"
       inkscape:label="circle speed"
       sodipodi:type="arc"
       sodipodi:cx="12.900341"
       sodipodi:cy="20.199999"
       sodipodi:rx="5.5"
       sodipodi:ry="5.5"
       sodipodi:start="2.0943951"
       sodipodi:end="1.0471976"
       sodipodi:arc-type="arc"
       d="m 10.150341,24.963139 a 5.5,5.5 0 0 1 -2.562592,-6.186645 5.5,5.5 0 0 1 5.312592,-4.076495 5.5,5.5 0 0 1 5.312592,4.076495 5.5,5.5 0 0 1 -2.562592,6.186645"
       sodipodi:open="true" /><path
       style="display:inline;fill:#000000;stroke:#51517a;stroke-width:0.4;stroke-opacity:1"
       d="M 13.898776,30.5 H 11.3"
       id="path17004"
       sodipodi:nodetypes="cc"
       inkscape:transform-center-x="1.4552084"
       inkscape:transform-center-y="0.66145813" /><path
       style="display:inline;fill:#000000;stroke:#51517a;stroke-width:0.4;stroke-opacity:1"
       d="m 15.422443,25.758444 0.596001,1.08336"
       id="path17006"
       sodipodi:nodetypes="cc"
       inkscape:transform-center-x="1.4552084"
       inkscape:transform-center-y="0.66145813" /><rect
       style="display:inline;fill:#ededed;fill-opacity:1;stroke:none;stroke-width:0.375045;stroke-dasharray:none"
       id="rect1161"
       width="0.62838537"
       height="0.95759505"
       x="8.5861511"
       y="69.599998"
       ry="0.087054096"
       inkscape:label="line circle 1" /><rect
       style="display:inline;fill:#ededed;fill-opacity:1;stroke:none;stroke-width:0.375045;stroke-dasharray:none"
       id="rect1163"
       width="0.62838537"
       height="0.95759505"
       x="45.672279"
       y="66.383049"
       ry="0.087054096"
       inkscape:label="line circle 1"
       transform="rotate(30.297172)" /><path
       sodipodi:nodetypes="cc"
       inkscape:connector-curvature="0"
       id="path4896"
       d="m 12.444182,82.592061 c 0.927505,0.0327 1.471315,-0.53317 1.42146,-1.5032"
       style="display:inline;fill:none;stroke:#ffffff;stroke-width:0.4;stroke-linecap:butt;stroke-linejoin:miter;stroke-miterlimit:4;stroke-dasharray:none;stroke-dashoffset:0;stroke-opacity:1"
       inkscape:label="exp" /><g
       style="display:inline;fill:#f9f9f9;stroke:#ffffff;stroke-width:6.22934;stroke-miterlimit:4;stroke-dasharray:none;stroke-opacity:1"
       transform="matrix(0.06230059,0,0,0.06618262,10.991823,60.10745)"
       id="g4888"
       inkscape:label="linear"><path
         sodipodi:nodetypes="ccc"
         inkscape:connector-curvature="0"
         id="path4890"
         d="m -50.209641,130.60054 16.656634,-16.26049 16.620444,16.23263"
         style="fill:none;stroke:#ffffff;stroke-width:6.22934;stroke-linecap:butt;stroke-linejoin:miter;stroke-miterlimit:4;stroke-dasharray:none;stroke-dashoffset:0;stroke-opacity:1" /></g><path
       style="display:inline;fill:none;stroke:#ededed;stroke-width:0.4;stroke-dasharray:none;stroke-dashoffset:0;stroke-opacity:1"
       id="path3114"
       inkscape:label="circle 1"
       sodipodi:type="arc"
       sodipodi:cx="18.00016"
       sodipodi:cy="88.351883"
       sodipodi:rx="3.5"
       sodipodi:ry="3.5"
       sodipodi:start="2.0943951"
       sodipodi:end="1.0471976"
       sodipodi:arc-type="arc"
       d="m 16.25016,91.382972 a 3.5,3.5 0 0 1 -1.63074,-3.936956 3.5,3.5 0 0 1 3.38074,-2.594133 3.5,3.5 0 0 1 3.380741,2.594133 3.5,3.5 0 0 1 -1.630741,3.936956"
       sodipodi:open="true" /><rect
       style="display:inline;fill:#f2f2f2;stroke:none;stroke-width:0.375045;stroke-dasharray:none"
       id="rect3116"
       width="0.62838537"
       height="0.95759505"
       x="17.685976"
       y="84"
       ry="0.087054096"
       inkscape:label="line circle 1" /><rect
       style="display:inline;fill:#ededed;fill-opacity:1;stroke:none;stroke-width:0.375045;stroke-dasharray:none"
       id="rect7259"
       width="0.62838537"
       height="0.95759505"
       x="30.308603"
       y="75.378998"
       ry="0.087054096"
       inkscape:label="line circle 1"
       transform="matrix(-0.86342045,0.50448501,0.50448501,0.86342045,0,0)" /><path
       sodipodi:nodetypes="cc"
       inkscape:connector-curvature="0"
       id="path9825"
       d="m 4.8570604,81.139584 c -0.927505,-0.0327 -1.471314,0.53317 -1.421459,1.5032"
       style="display:inline;fill:none;stroke:#ffffff;stroke-width:0.4;stroke-linecap:butt;stroke-linejoin:miter;stroke-miterlimit:4;stroke-dasharray:none;stroke-dashoffset:0;stroke-opacity:1"
       inkscape:label="exp" /><rect
       style="display:inline;fill:#000033;fill-opacity:1;stroke:#666699;stroke-width:0.399967;stroke-dasharray:none;stroke-dashoffset:0;stroke-opacity:1"
       id="rect1134"
       width="10.600033"
       height="12.600032"
       x="1.1995007"
       y="109.69998"
       ry="2"
       inkscape:label="slot1 rect" /><path
       style="display:inline;fill:none;stroke:#ececec;stroke-width:0.399999;stroke-dasharray:none;stroke-dashoffset:0;stroke-opacity:1"
       id="path1056"
       inkscape:label="circle speed"
       sodipodi:type="arc"
       sodipodi:cx="12.900341"
       sodipodi:cy="57.700001"
       sodipodi:rx="5.5"
       sodipodi:ry="5.5"
       sodipodi:start="2.0943951"
       sodipodi:end="1.0471976"
       sodipodi:arc-type="arc"
       d="m 10.150341,62.46314 a 5.5,5.5 0 0 1 -2.562592,-6.186644 5.5,5.5 0 0 1 5.312592,-4.076495 5.5,5.5 0 0 1 5.312592,4.076495 5.5,5.5 0 0 1 -2.562592,6.186645"
       sodipodi:open="true" /><path
       style="display:inline;fill:none;stroke:#ededed;stroke-width:0.4;stroke-dasharray:none;stroke-dashoffset:0;stroke-opacity:1"
       id="path1058"
       inkscape:label="circle 1"
       sodipodi:type="arc"
       sodipodi:cx="18.00016"
       sodipodi:cy="47.351891"
       sodipodi:rx="3.5"
       sodipodi:ry="3.5"
       sodipodi:start="2.0943951"
       sodipodi:end="1.0471976"
       sodipodi:arc-type="arc"
       d="m 16.25016,50.382979 a 3.5,3.5 0 0 1 -1.63074,-3.936955 3.5,3.5 0 0 1 3.38074,-2.594133 3.5,3.5 0 0 1 3.380741,2.594133 3.5,3.5 0 0 1 -1.630741,3.936956"
       sodipodi:open="true" /><rect
       style="display:inline;fill:#f2f2f2;stroke:none;stroke-width:0.375045;stroke-dasharray:none"
       id="rect1060"
       width="0.62838537"
       height="0.95759505"
       x="17.68597"
       y="43"
       ry="0.087054096"
       inkscape:label="line circle 1" /><rect
       style="display:inline;fill:#494983;fill-opacity:1;stroke:#666699;stroke-width:0.399512;stroke-dasharray:none;stroke-dashoffset:0;stroke-opacity:1"
       id="rect1079"
       width="10.600488"
       height="12.600489"
       x="13.499756"
       y="109.69975"
       ry="2"
       inkscape:label="slot1 rect" /><rect
       style="display:inline;fill:#494983;fill-opacity:1;stroke:#666699;stroke-width:0.399512;stroke-dasharray:none;stroke-dashoffset:0;stroke-opacity:1"
       id="rect1081"
       width="10.600488"
       height="12.600489"
       x="13.499757"
       y="95.699753"
       ry="2"
       inkscape:label="slot1 rect" /><path
       style="display:inline;fill:#000000;stroke:#51517a;stroke-width:0.4;stroke-opacity:1"
       d="M 13.898776,47.2 H 11.3"
       id="path2491"
       sodipodi:nodetypes="cc"
       inkscape:transform-center-x="1.4552084"
       inkscape:transform-center-y="0.66145813" /><path
       style="display:inline;fill:#000000;stroke:#51517a;stroke-width:0.4;stroke-opacity:1"
       d="m 15.963161,51.045527 -0.500795,1.026414"
       id="path2493"
       sodipodi:nodetypes="cc"
       inkscape:transform-center-x="-1.4552087"
       inkscape:transform-center-y="0.66145813" /><path
       style="display:inline;fill:#000000;stroke:#51517a;stroke-width:0.4;stroke-opacity:1"
       d="M 13.898776,88.4 H 11.3"
       id="path2495"
       sodipodi:nodetypes="cc"
       inkscape:transform-center-x="1.4552084"
       inkscape:transform-center-y="0.66145813" /><path
       style="display:inline;fill:none;stroke:#ececec;stroke-width:0.399999;stroke-dasharray:none;stroke-dashoffset:0;stroke-opacity:1"
       id="path1009"
       inkscape:label="circle speed"
       sodipodi:type="arc"
       sodipodi:cx="8.900341"
       sodipodi:cy="75.974068"
       sodipodi:rx="5.5"
       sodipodi:ry="5.5"
       sodipodi:start="2.0943951"
       sodipodi:end="1.0471976"
       sodipodi:arc-type="arc"
       d="m 6.150341,80.737207 a 5.5,5.5 0 0 1 -2.562592,-6.186644 5.5,5.5 0 0 1 5.312592,-4.076495 5.5,5.5 0 0 1 5.312592,4.076495 5.5,5.5 0 0 1 -2.562592,6.186645"
       sodipodi:open="true" /><path
       style="display:inline;fill:#000000;stroke:#51517a;stroke-width:0.4;stroke-opacity:1"
       d="M 15.301941,84.93886 13.908379,83.153493"
       id="path1439"
       sodipodi:nodetypes="cc"
       inkscape:transform-center-x="1.4552084"
       inkscape:transform-center-y="0.66145813" /><rect
       style="display:inline;fill:#808080;fill-opacity:1;stroke:none;stroke-width:0.410049;stroke-dasharray:none"
       id="rect1489"
       width="0.62838537"
       height="1.1446837"
       x="12.586148"
       y="51.262913"
       ry="0.10406216"
       inkscape:label="line circle 1" /></g><g
     inkscape:groupmode="layer"
     id="layer5"
     inkscape:label="Etichette Testo"
     style="display:none"
     transform="translate(0,-0.200038)"><text
       xml:space="preserve"
       style="font-style:normal;font-variant:normal;font-weight:normal;font-stretch:normal;font-size:2.82222px;font-family:'C64 User';-inkscape-font-specification:'C64 User';text-align:center;text-anchor:middle;display:inline;fill:#ffffff;stroke:none;stroke-width:0.264999;stroke-dasharray:0.264999, 0.264999;stroke-dashoffset:0;stroke-opacity:1"
       x="18.976389"
       y="113.16948"
       id="text1140"
       inkscape:label="OUT"><tspan
         sodipodi:role="line"
         id="tspan1138"
         style="font-size:2.82222px;text-align:center;text-anchor:middle;stroke:none;stroke-width:0.265"
         x="18.976389"
         y="113.16948">OUT</tspan></text><text
       xml:space="preserve"
       style="font-style:normal;font-variant:normal;font-weight:normal;font-stretch:normal;font-size:2.82222px;font-family:'C64 User';-inkscape-font-specification:'C64 User';text-align:center;text-anchor:middle;display:inline;fill:#ffffff;stroke:none;stroke-width:0.264999;stroke-dasharray:0.264999, 0.264999;stroke-dashoffset:0;stroke-opacity:1"
       x="6.6148977"
       y="113.16948"
       id="text1013"
       inkscape:label="IN"><tspan
         sodipodi:role="line"
         id="tspan1011"
         style="font-size:2.82222px;text-align:center;text-anchor:middle;stroke:none;stroke-width:0.265"
         x="6.6148977"
         y="113.16948">IN</tspan></text><text
       xml:space="preserve"
       style="font-style:normal;font-variant:normal;font-weight:normal;font-stretch:normal;font-size:2.82222px;font-family:'C64 User';-inkscape-font-specification:'C64 User';text-align:center;text-anchor:middle;display:inline;fill:#ffffff;stroke:none;stroke-width:0.264999;stroke-dasharray:0.264999, 0.264999;stroke-dashoffset:0;stroke-opacity:1"
       x="18.976389"
       y="99.169479"
       id="text2928"
       inkscape:label="DEC"><tspan
         sodipodi:role="line"
         id="tspan2926"
         style="font-size:2.82222px;text-align:center;text-anchor:middle;stroke:none;stroke-width:0.265"
         x="18.976389"
         y="99.169479">DEC</tspan></text><text
       xml:space="preserve"
       style="font-style:normal;font-variant:normal;font-weight:normal;font-stretch:normal;font-size:2.82222px;font-family:'C64 User';-inkscape-font-specification:'C64 User';text-align:center;text-anchor:middle;display:inline;fill:#ffffff;stroke:none;stroke-width:0.264999;stroke-dasharray:0.264999, 0.264999;stroke-dashoffset:0;stroke-opacity:1"
       x="6.6763897"
       y="99.169479"
       id="text1246"
       inkscape:label="ATT"><tspan
         sodipodi:role="line"
         id="tspan1244"
         style="font-size:2.82222px;text-align:center;text-anchor:middle;stroke:none;stroke-width:0.265"
         x="6.6763897"
         y="99.169479">ATT</tspan></text><text
       xml:space="preserve"
       style="font-size:2.46944px;font-family:'C64 User';-inkscape-font-specification:'C64 User';text-align:center;writing-mode:lr-tb;text-orientation:upright;text-anchor:middle;display:inline;fill:#ffffff;stroke:none;stroke-width:0.264999;stroke-dasharray:0.264999, 0.264999"
       x="19.395487"
       y="71.860802"
       id="text1014"
       inkscape:label="SYM"><tspan
         sodipodi:role="line"
         id="tspan1012"
         style="font-size:2.46944px;text-align:center;writing-mode:lr-tb;text-orientation:upright;text-anchor:middle;stroke:none;stroke-width:0.265"
         x="19.395487"
         y="71.860802">SYM</tspan></text><text
       xml:space="preserve"
       style="font-size:2.11667px;font-family:'C64 User';-inkscape-font-specification:'C64 User';text-align:center;writing-mode:lr-tb;text-orientation:upright;text-anchor:middle;display:inline;fill:#b3b3b3;stroke:none;stroke-width:0.264999;stroke-dasharray:0.264999, 0.264999"
       x="17.390341"
       y="41.978165"
       id="text1035"
       inkscape:label="SLW"><tspan
         sodipodi:role="line"
         id="tspan1033"
         style="font-size:2.11667px;text-align:center;writing-mode:lr-tb;text-orientation:upright;text-anchor:middle;fill:#b3b3b3;stroke:none;stroke-width:0.265"
         x="17.390341"
         y="41.978165">(SLW)</tspan></text><text
       xml:space="preserve"
       style="font-size:3.175px;font-family:'C64 User';-inkscape-font-specification:'C64 User';text-align:center;writing-mode:lr-tb;text-orientation:upright;text-anchor:middle;display:inline;fill:#ffffff;stroke:none;stroke-width:0.264999;stroke-dasharray:0.264999, 0.264999"
       x="7.9083166"
       y="41.978165"
       id="text2032"
       inkscape:label="DEC"><tspan
         sodipodi:role="line"
         id="tspan2030"
         style="font-size:3.175px;text-align:center;writing-mode:lr-tb;text-orientation:upright;text-anchor:middle;stroke:none;stroke-width:0.265"
         x="7.9083171"
         y="41.978165">DEC</tspan></text><text
       xml:space="preserve"
       style="font-size:2.11667px;font-family:'C64 User';-inkscape-font-specification:'C64 User';text-align:center;writing-mode:lr-tb;text-orientation:upright;text-anchor:middle;display:inline;fill:#b3b3b3;stroke:none;stroke-width:0.264999;stroke-dasharray:0.264999, 0.264999"
       x="17.308146"
       y="12.978163"
       id="text977"
       inkscape:label="DUR"><tspan
         sodipodi:role="line"
         id="tspan975"
         style="font-size:2.11667px;text-align:center;writing-mode:lr-tb;text-orientation:upright;text-anchor:middle;fill:#b3b3b3;stroke:none;stroke-width:0.265"
         x="17.308146"
         y="12.978163">(DUR)</tspan></text><text
       xml:space="preserve"
       style="font-size:3.175px;font-family:'C64 User';-inkscape-font-specification:'C64 User';text-align:center;writing-mode:lr-tb;text-orientation:upright;text-anchor:middle;display:inline;fill:#ffffff;stroke:none;stroke-width:0.264999;stroke-dasharray:0.264999, 0.264999"
       x="8.1228037"
       y="12.978163"
       id="text10524"
       inkscape:label="ATT"><tspan
         sodipodi:role="line"
         id="tspan10522"
         style="font-size:3.175px;text-align:center;writing-mode:lr-tb;text-orientation:upright;text-anchor:middle;stroke:none;stroke-width:0.265"
         x="8.1228037"
         y="12.978163">ATT</tspan></text></g><g
     inkscape:groupmode="layer"
     id="g1177"
     inkscape:label="Etichette Testo nere"
     style="display:inline;fill:#000000"
     transform="translate(0.2997742,0.099962)"><g
       aria-label="OUT"
       id="text1143"
       style="font-size:2.82222px;font-family:'C64 User';-inkscape-font-specification:'C64 User';text-align:center;text-anchor:middle;display:inline;fill:#000000;stroke-width:0.264999;stroke-dasharray:0.264999, 0.264999"
       inkscape:label="OUT"><path
         d="m 15.625003,113.16948 v -0.35278 h -0.352778 v -1.76389 h 0.352778 v -0.35277 h 1.41111 v 0.35277 h 0.352777 v 1.76389 h -0.352777 v 0.35278 z m 0.352777,-0.35278 h 0.705555 v -1.76389 H 15.97778 Z"
         style="fill:#000000;stroke-width:0.265"
         id="path1179" /><path
         d="m 18.094445,113.16948 v -0.35278 h -0.352777 v -2.11666 h 0.705555 v 2.11666 h 0.705555 v -2.11666 h 0.705555 v 2.11666 h -0.352778 v 0.35278 z"
         style="fill:#000000;stroke-width:0.265"
         id="path1181" /><path
         d="m 20.916665,113.16948 v -2.11667 H 20.21111 v -0.35277 h 2.116665 v 0.35277 H 21.62222 v 2.11667 z"
         style="fill:#000000;stroke-width:0.265"
         id="path1183" /></g><g
       aria-label="IN"
       id="text1147"
       style="font-size:2.82222px;font-family:'C64 User';-inkscape-font-specification:'C64 User';text-align:center;text-anchor:middle;display:inline;fill:#000000;stroke-width:0.264999;stroke-dasharray:0.264999, 0.264999"
       inkscape:label="IN"><path
         d="m 5.9093427,110.70004 v 0.35277 H 5.5565652 v 1.76389 h 0.3527775 v 0.35278 h -1.41111 v -0.35278 h 0.3527775 v -1.76389 H 4.4982327 v -0.35277 z"
         style="fill:#000000;stroke-width:0.265"
         id="path1186" /><path
         d="m 6.2621202,113.16948 v -2.46944 h 0.705555 v 0.35277 h 0.3527775 v 0.35278 h 0.3527775 v -0.70555 h 0.7055551 v 2.46944 H 7.6732302 v -0.70556 H 7.3204527 v -0.35277 H 6.9676752 v 1.05833 z"
         style="fill:#000000;stroke-width:0.265"
         id="path1188" /></g><g
       aria-label="DEC"
       id="text1151"
       style="font-size:2.82222px;font-family:'C64 User';-inkscape-font-specification:'C64 User';text-align:center;text-anchor:middle;display:inline;fill:#000000;stroke-width:0.264999;stroke-dasharray:0.264999, 0.264999"
       inkscape:label="DEC"><path
         d="m 15.272225,99.169479 v -2.469442 h 1.41111 v 0.352777 h 0.352778 v 0.352778 h 0.352777 v 1.058332 h -0.352777 v 0.352778 h -0.352778 v 0.352777 z m 0.705555,-0.352777 h 0.352778 v -0.352778 h 0.352777 V 97.405592 H 16.330558 V 97.052814 H 15.97778 Z"
         style="fill:#000000;stroke-width:0.265"
         id="path1191" /><path
         d="m 19.858333,96.700037 v 0.352777 h -1.41111 v 0.705555 h 0.705555 v 0.352778 h -0.705555 v 0.705555 h 1.41111 v 0.352777 h -2.116665 v -2.469442 z"
         style="fill:#000000;stroke-width:0.265"
         id="path1193" /><path
         d="M 20.563888,99.169479 V 98.816702 H 20.21111 v -1.763888 h 0.352778 v -0.352777 h 1.41111 v 0.352777 h 0.352777 v 0.352778 H 21.62222 v -0.352778 h -0.705555 v 1.763888 h 0.705555 v -0.352778 h 0.705555 v 0.352778 h -0.352777 v 0.352777 z"
         style="fill:#000000;stroke-width:0.265"
         id="path1195" /></g><g
       aria-label="ATT"
       id="text1155"
       style="font-size:2.82222px;font-family:'C64 User';-inkscape-font-specification:'C64 User';text-align:center;text-anchor:middle;display:inline;fill:#000000;stroke-width:0.264999;stroke-dasharray:0.264999, 0.264999"
       inkscape:label="ATT"><path
         d="m 2.9722258,99.169479 v -1.763887 h 0.3527775 v -0.352778 h 0.3527776 v -0.352777 h 0.705555 v 0.352777 h 0.3527775 v 0.352778 h 0.3527775 v 1.763887 h -0.705555 v -1.058332 h -0.705555 v 1.058332 z m 0.7055551,-1.41111 h 0.705555 v -0.352777 h -0.705555 z"
         style="fill:#000000;stroke-width:0.265"
         id="path1198" /><path
         d="M 6.1472235,99.169479 V 97.052814 H 5.4416684 v -0.352777 h 2.1166651 v 0.352777 h -0.705555 v 2.116665 z"
         style="fill:#000000;stroke-width:0.265"
         id="path1200" /><path
         d="M 8.6166661,99.169479 V 97.052814 H 7.911111 v -0.352777 h 2.116665 v 0.352777 H 9.3222211 v 2.116665 z"
         style="fill:#000000;stroke-width:0.265"
         id="path1202" /></g><g
       aria-label="SYM"
       id="text1159"
       style="font-size:2.46944px;font-family:'C64 User';-inkscape-font-specification:'C64 User';text-align:center;text-orientation:upright;text-anchor:middle;display:inline;fill:#000000;stroke-width:0.264999;stroke-dasharray:0.264999, 0.264999"
       inkscape:label="SYM"><path
         d="m 16.308687,71.860802 v -0.30868 h -0.30868 v -0.30868 h 0.61736 v 0.30868 h 0.61736 v -0.61736 h -0.92604 v -0.30868 h -0.30868 v -0.61736 h 0.30868 v -0.30868 h 1.23472 v 0.30868 h 0.30868 v 0.30868 h -0.61736 v -0.30868 h -0.61736 v 0.61736 h 0.92604 v 0.30868 h 0.30868 v 0.61736 h -0.30868 v 0.30868 z"
         style="fill:#000000;stroke-width:0.265"
         id="path1205" /><path
         d="m 18.778127,71.860802 v -0.92604 h -0.30868 v -0.30868 h -0.30868 v -0.92604 h 0.61736 v 0.92604 h 0.61736 v -0.92604 h 0.61736 v 0.92604 h -0.30868 v 0.30868 h -0.30868 v 0.92604 z"
         style="fill:#000000;stroke-width:0.265"
         id="path1207" /><path
         d="m 20.321527,71.860802 v -2.16076 h 0.61736 v 0.30868 h 0.30868 v 0.30868 h 0.30868 v -0.30868 h 0.30868 v -0.30868 h 0.61736 v 2.16076 h -0.61736 v -1.23472 h -0.30868 v 0.30868 h -0.30868 v -0.30868 h -0.30868 v 1.23472 z"
         style="fill:#000000;stroke-width:0.265"
         id="path1209" /></g><g
       aria-label="(SLW)"
       id="text1163"
       style="font-size:2.11667px;font-family:'C64 User';-inkscape-font-specification:'C64 User';text-align:center;text-orientation:upright;text-anchor:middle;display:inline;fill:#000000;stroke-width:0.264999;stroke-dasharray:0.264999, 0.264999"
       inkscape:label="SLW"
       transform="translate(0.26871204)"><path
         d="m 13.417455,41.978165 v -0.264584 h -0.264583 v -0.264584 h -0.264584 v -0.793751 h 0.264584 v -0.264584 h 0.264583 v -0.264583 h 0.529168 v 0.264583 h -0.264584 v 0.264584 h -0.264584 v 0.793751 h 0.264584 v 0.264584 h 0.264584 v 0.264584 z"
         style="fill:#000000;stroke-width:0.265"
         id="path1212" /><path
         d="m 14.47579,41.978165 v -0.264584 h -0.264583 v -0.264584 h 0.529167 v 0.264584 h 0.529168 V 41.184413 H 14.47579 V 40.91983 h -0.264583 v -0.529168 h 0.264583 v -0.264583 h 1.058335 v 0.264583 h 0.264584 v 0.264584 h -0.529167 v -0.264584 h -0.529168 v 0.529168 h 0.793751 v 0.264583 h 0.264584 v 0.529168 h -0.264584 v 0.264584 z"
         style="fill:#000000;stroke-width:0.265"
         id="path1214" /><path
         d="m 16.59246,40.126079 v 1.587502 h 1.058335 v 0.264584 h -1.587502 v -1.852086 z"
         style="fill:#000000;stroke-width:0.265"
         id="path1216" /><path
         d="m 19.767465,40.126079 v 1.852086 H 19.238298 V 41.713581 H 18.973714 V 41.448997 H 18.70913 v 0.264584 h -0.264583 v 0.264584 h -0.529168 v -1.852086 h 0.529168 v 1.058334 H 18.70913 V 40.91983 h 0.264584 v 0.264583 h 0.264584 v -1.058334 z"
         style="fill:#000000;stroke-width:0.265"
         id="path1218" /><path
         d="m 20.032049,41.978165 v -0.264584 h 0.264583 v -0.264584 h 0.264584 v -0.793751 h -0.264584 v -0.264584 h -0.264583 v -0.264583 h 0.529167 v 0.264583 H 20.8258 v 0.264584 h 0.264584 v 0.793751 H 20.8258 v 0.264584 h -0.264584 v 0.264584 z"
         style="fill:#000000;stroke-width:0.265"
         id="path1220" /></g><g
       aria-label="DEC"
       id="text1167"
       style="font-size:3.175px;font-family:'C64 User';-inkscape-font-specification:'C64 User';text-align:center;text-orientation:upright;text-anchor:middle;display:inline;fill:#000000;stroke-width:0.264999;stroke-dasharray:0.264999, 0.264999"
       inkscape:label="DEC"
       transform="translate(-0.7007778)"><path
         d="M 4.4419072,41.978165 V 39.20004 h 1.5875 v 0.396875 h 0.396875 v 0.396875 h 0.3968749 v 1.190625 H 6.4262822 v 0.396875 h -0.396875 v 0.396875 z m 0.79375,-0.396875 h 0.396875 v -0.396875 h 0.396875 V 39.99379 h -0.396875 v -0.396875 h -0.396875 z"
         style="fill:#000000;stroke-width:0.265"
         id="path1223" /><path
         d="m 9.6012822,39.20004 v 0.396875 h -1.5875 v 0.79375 h 0.79375 v 0.396875 h -0.79375 v 0.79375 h 1.5875 v 0.396875 h -2.38125 V 39.20004 Z"
         style="fill:#000000;stroke-width:0.265"
         id="path1225" /><path
         d="M 10.395032,41.978165 V 41.58129 H 9.9981573 V 39.596915 H 10.395032 V 39.20004 h 1.5875 v 0.396875 h 0.396875 v 0.396875 h -0.79375 v -0.396875 h -0.79375 v 1.984375 h 0.79375 v -0.396875 h 0.79375 v 0.396875 h -0.396875 v 0.396875 z"
         style="fill:#000000;stroke-width:0.265"
         id="path1227" /></g><g
       aria-label="(DUR)"
       id="text1171"
       style="font-size:2.11667px;font-family:'C64 User';-inkscape-font-specification:'C64 User';text-align:center;text-orientation:upright;text-anchor:middle;display:inline;fill:#000000;stroke-width:0.264999;stroke-dasharray:0.264999, 0.264999"
       inkscape:label="DUR"
       transform="translate(0.28005762)"><path
         d="M 13.456207,12.978163 V 12.713579 H 13.191623 V 12.448995 H 12.92704 v -0.793751 h 0.264583 V 11.39066 h 0.264584 v -0.264583 h 0.529168 v 0.264583 h -0.264584 v 0.264584 h -0.264584 v 0.793751 h 0.264584 v 0.264584 h 0.264584 v 0.264584 z"
         style="fill:#000000;stroke-width:0.265"
         id="path1230" /><path
         d="m 14.249958,12.978163 v -1.852086 h 1.058335 v 0.264583 h 0.264584 v 0.264584 h 0.264584 v 0.793751 h -0.264584 v 0.264584 h -0.264584 v 0.264584 z m 0.529168,-0.264584 h 0.264584 v -0.264584 h 0.264583 V 11.655244 H 15.04371 V 11.39066 h -0.264584 z"
         style="fill:#000000;stroke-width:0.265"
         id="path1232" /><path
         d="m 16.366628,12.978163 v -0.264584 h -0.264583 v -1.587502 h 0.529167 v 1.587502 h 0.529168 v -1.587502 h 0.529167 v 1.587502 h -0.264584 v 0.264584 z"
         style="fill:#000000;stroke-width:0.265"
         id="path1234" /><path
         d="m 17.954131,12.978163 v -1.852086 h 1.322918 v 0.264583 h 0.264584 v 0.529168 h -0.264584 v 0.264584 h -0.264583 v 0.264583 h 0.264583 v 0.264584 h 0.264584 v 0.264584 h -0.529167 v -0.264584 h -0.264584 v -0.264584 h -0.264584 v 0.529168 z m 0.529167,-1.058335 h 0.529168 V 11.39066 h -0.529168 z"
         style="fill:#000000;stroke-width:0.265"
         id="path1236" /><path
         d="m 19.806217,12.978163 v -0.264584 h 0.264584 v -0.264584 h 0.264583 V 11.655244 H 20.070801 V 11.39066 h -0.264584 v -0.264583 h 0.529167 v 0.264583 h 0.264584 v 0.264584 h 0.264584 v 0.793751 h -0.264584 v 0.264584 h -0.264584 v 0.264584 z"
         style="fill:#000000;stroke-width:0.265"
         id="path1238" /></g><g
       aria-label="ATT"
       id="text1175"
       style="font-size:3.175px;font-family:'C64 User';-inkscape-font-specification:'C64 User';text-align:center;text-orientation:upright;text-anchor:middle;display:inline;fill:#000000;stroke-width:0.264999;stroke-dasharray:0.264999, 0.264999"
       inkscape:label="ATT"
       transform="translate(-0.57983821)"><path
         d="m 4.535454,12.978163 v -1.984375 h 0.396875 v -0.396875 h 0.396875 v -0.396875 h 0.79375 v 0.396875 h 0.396875 v 0.396875 h 0.396875 v 1.984375 h -0.79375 v -1.190625 h -0.79375 v 1.190625 z m 0.79375,-1.5875 h 0.79375 v -0.396875 h -0.79375 z"
         style="fill:#000000;stroke-width:0.265"
         id="path1241" /><path
         d="m 8.1073291,12.978163 v -2.38125 h -0.79375 v -0.396875 h 2.38125 v 0.396875 h -0.79375 v 2.38125 z"
         style="fill:#000000;stroke-width:0.265"
         id="path1243" /><path
         d="m 10.885454,12.978163 v -2.38125 h -0.79375 v -0.396875 h 2.38125 v 0.396875 h -0.79375 v 2.38125 z"
         style="fill:#000000;stroke-width:0.265"
         id="path1245" /></g></g><g
     inkscape:groupmode="layer"
     id="g1326"
     inkscape:label="Etichette Testo path"
     style="display:inline"
     transform="translate(0,-0.200038)"><g
       aria-label="OUT"
       id="g1254"
       style="font-size:2.82222px;font-family:'C64 User';-inkscape-font-specification:'C64 User';text-align:center;text-anchor:middle;display:inline;fill:#ffffff;stroke-width:0.264999;stroke-dasharray:0.264999, 0.264999"
       inkscape:label="OUT"><path
         d="m 15.625003,113.16948 v -0.35278 h -0.352778 v -1.76389 h 0.352778 v -0.35277 h 1.41111 v 0.35277 h 0.352777 v 1.76389 h -0.352777 v 0.35278 z m 0.352777,-0.35278 h 0.705555 v -1.76389 H 15.97778 Z"
         style="stroke-width:0.265"
         id="path1248" /><path
         d="m 18.094445,113.16948 v -0.35278 h -0.352777 v -2.11666 h 0.705555 v 2.11666 h 0.705555 v -2.11666 h 0.705555 v 2.11666 h -0.352778 v 0.35278 z"
         style="stroke-width:0.265"
         id="path1250" /><path
         d="m 20.916665,113.16948 v -2.11667 H 20.21111 v -0.35277 h 2.116665 v 0.35277 H 21.62222 v 2.11667 z"
         style="stroke-width:0.265"
         id="path1252" /></g><g
       aria-label="IN"
       id="g1260"
       style="font-size:2.82222px;font-family:'C64 User';-inkscape-font-specification:'C64 User';text-align:center;text-anchor:middle;display:inline;fill:#ffffff;stroke-width:0.264999;stroke-dasharray:0.264999, 0.264999"
       inkscape:label="IN"><path
         d="m 5.9093427,110.70004 v 0.35277 H 5.5565652 v 1.76389 h 0.3527775 v 0.35278 h -1.41111 v -0.35278 h 0.3527775 v -1.76389 H 4.4982327 v -0.35277 z"
         style="stroke-width:0.265"
         id="path1256" /><path
         d="m 6.2621202,113.16948 v -2.46944 h 0.705555 v 0.35277 h 0.3527775 v 0.35278 h 0.3527775 v -0.70555 h 0.7055551 v 2.46944 H 7.6732302 v -0.70556 H 7.3204527 v -0.35277 H 6.9676752 v 1.05833 z"
         style="stroke-width:0.265"
         id="path1258" /></g><g
       aria-label="DEC"
       id="g1268"
       style="font-size:2.82222px;font-family:'C64 User';-inkscape-font-specification:'C64 User';text-align:center;text-anchor:middle;display:inline;fill:#ffffff;stroke-width:0.264999;stroke-dasharray:0.264999, 0.264999"
       inkscape:label="DEC"><path
         d="m 15.272225,99.169479 v -2.469442 h 1.41111 v 0.352777 h 0.352778 v 0.352778 h 0.352777 v 1.058332 h -0.352777 v 0.352778 h -0.352778 v 0.352777 z m 0.705555,-0.352777 h 0.352778 v -0.352778 h 0.352777 V 97.405592 H 16.330558 V 97.052814 H 15.97778 Z"
         style="stroke-width:0.265"
         id="path1262" /><path
         d="m 19.858333,96.700037 v 0.352777 h -1.41111 v 0.705555 h 0.705555 v 0.352778 h -0.705555 v 0.705555 h 1.41111 v 0.352777 h -2.116665 v -2.469442 z"
         style="stroke-width:0.265"
         id="path1264" /><path
         d="M 20.563888,99.169479 V 98.816702 H 20.21111 v -1.763888 h 0.352778 v -0.352777 h 1.41111 v 0.352777 h 0.352777 v 0.352778 H 21.62222 v -0.352778 h -0.705555 v 1.763888 h 0.705555 v -0.352778 h 0.705555 v 0.352778 h -0.352777 v 0.352777 z"
         style="stroke-width:0.265"
         id="path1266" /></g><g
       aria-label="ATT"
       id="g1276"
       style="font-size:2.82222px;font-family:'C64 User';-inkscape-font-specification:'C64 User';text-align:center;text-anchor:middle;display:inline;fill:#ffffff;stroke-width:0.264999;stroke-dasharray:0.264999, 0.264999"
       inkscape:label="ATT"><path
         d="m 2.9722258,99.169479 v -1.763887 h 0.3527775 v -0.352778 h 0.3527776 v -0.352777 h 0.705555 v 0.352777 h 0.3527775 v 0.352778 h 0.3527775 v 1.763887 h -0.705555 v -1.058332 h -0.705555 v 1.058332 z m 0.7055551,-1.41111 h 0.705555 v -0.352777 h -0.705555 z"
         style="stroke-width:0.265"
         id="path1270" /><path
         d="M 6.1472235,99.169479 V 97.052814 H 5.4416684 v -0.352777 h 2.1166651 v 0.352777 h -0.705555 v 2.116665 z"
         style="stroke-width:0.265"
         id="path1272" /><path
         d="M 8.6166661,99.169479 V 97.052814 H 7.911111 v -0.352777 h 2.116665 v 0.352777 H 9.3222211 v 2.116665 z"
         style="stroke-width:0.265"
         id="path1274" /></g><g
       aria-label="SYM"
       id="g1284"
       style="font-size:2.46944px;font-family:'C64 User';-inkscape-font-specification:'C64 User';text-align:center;text-orientation:upright;text-anchor:middle;display:inline;fill:#ffffff;stroke-width:0.264999;stroke-dasharray:0.264999, 0.264999"
       inkscape:label="SYM"><path
         d="m 16.308687,71.860802 v -0.30868 h -0.30868 v -0.30868 h 0.61736 v 0.30868 h 0.61736 v -0.61736 h -0.92604 v -0.30868 h -0.30868 v -0.61736 h 0.30868 v -0.30868 h 1.23472 v 0.30868 h 0.30868 v 0.30868 h -0.61736 v -0.30868 h -0.61736 v 0.61736 h 0.92604 v 0.30868 h 0.30868 v 0.61736 h -0.30868 v 0.30868 z"
         style="stroke-width:0.265"
         id="path1278" /><path
         d="m 18.778127,71.860802 v -0.92604 h -0.30868 v -0.30868 h -0.30868 v -0.92604 h 0.61736 v 0.92604 h 0.61736 v -0.92604 h 0.61736 v 0.92604 h -0.30868 v 0.30868 h -0.30868 v 0.92604 z"
         style="stroke-width:0.265"
         id="path1280" /><path
         d="m 20.321527,71.860802 v -2.16076 h 0.61736 v 0.30868 h 0.30868 v 0.30868 h 0.30868 v -0.30868 h 0.30868 v -0.30868 h 0.61736 v 2.16076 h -0.61736 v -1.23472 h -0.30868 v 0.30868 h -0.30868 v -0.30868 h -0.30868 v 1.23472 z"
         style="stroke-width:0.265"
         id="path1282" /></g><g
       aria-label="(SLW)"
       id="g1296"
       style="font-size:2.11667px;font-family:'C64 User';-inkscape-font-specification:'C64 User';text-align:center;text-orientation:upright;text-anchor:middle;display:inline;fill:#b3b3b3;stroke-width:0.264999;stroke-dasharray:0.264999, 0.264999"
       inkscape:label="SLW"
       transform="translate(0.26871204)"><path
         d="m 13.417455,41.978165 v -0.264584 h -0.264583 v -0.264584 h -0.264584 v -0.793751 h 0.264584 v -0.264584 h 0.264583 v -0.264583 h 0.529168 v 0.264583 h -0.264584 v 0.264584 h -0.264584 v 0.793751 h 0.264584 v 0.264584 h 0.264584 v 0.264584 z"
         style="stroke-width:0.265"
         id="path1286" /><path
         d="m 14.47579,41.978165 v -0.264584 h -0.264583 v -0.264584 h 0.529167 v 0.264584 h 0.529168 V 41.184413 H 14.47579 V 40.91983 h -0.264583 v -0.529168 h 0.264583 v -0.264583 h 1.058335 v 0.264583 h 0.264584 v 0.264584 h -0.529167 v -0.264584 h -0.529168 v 0.529168 h 0.793751 v 0.264583 h 0.264584 v 0.529168 h -0.264584 v 0.264584 z"
         style="stroke-width:0.265"
         id="path1288" /><path
         d="m 16.59246,40.126079 v 1.587502 h 1.058335 v 0.264584 h -1.587502 v -1.852086 z"
         style="stroke-width:0.265"
         id="path1290" /><path
         d="m 19.767465,40.126079 v 1.852086 H 19.238298 V 41.713581 H 18.973714 V 41.448997 H 18.70913 v 0.264584 h -0.264583 v 0.264584 h -0.529168 v -1.852086 h 0.529168 v 1.058334 H 18.70913 V 40.91983 h 0.264584 v 0.264583 h 0.264584 v -1.058334 z"
         style="stroke-width:0.265"
         id="path1292" /><path
         d="m 20.032049,41.978165 v -0.264584 h 0.264583 v -0.264584 h 0.264584 v -0.793751 h -0.264584 v -0.264584 h -0.264583 v -0.264583 h 0.529167 v 0.264583 H 20.8258 v 0.264584 h 0.264584 v 0.793751 H 20.8258 v 0.264584 h -0.264584 v 0.264584 z"
         style="stroke-width:0.265"
         id="path1294" /></g><g
       aria-label="DEC"
       id="g1304"
       style="font-size:3.175px;font-family:'C64 User';-inkscape-font-specification:'C64 User';text-align:center;text-orientation:upright;text-anchor:middle;display:inline;fill:#ffffff;stroke-width:0.264999;stroke-dasharray:0.264999, 0.264999"
       inkscape:label="DEC"
       transform="translate(-0.7007778)"><path
         d="M 4.4419072,41.978165 V 39.20004 h 1.5875 v 0.396875 h 0.396875 v 0.396875 h 0.3968749 v 1.190625 H 6.4262822 v 0.396875 h -0.396875 v 0.396875 z m 0.79375,-0.396875 h 0.396875 v -0.396875 h 0.396875 V 39.99379 h -0.396875 v -0.396875 h -0.396875 z"
         style="stroke-width:0.265"
         id="path1298" /><path
         d="m 9.6012822,39.20004 v 0.396875 h -1.5875 v 0.79375 h 0.79375 v 0.396875 h -0.79375 v 0.79375 h 1.5875 v 0.396875 h -2.38125 V 39.20004 Z"
         style="stroke-width:0.265"
         id="path1300" /><path
         d="M 10.395032,41.978165 V 41.58129 H 9.9981573 V 39.596915 H 10.395032 V 39.20004 h 1.5875 v 0.396875 h 0.396875 v 0.396875 h -0.79375 v -0.396875 h -0.79375 v 1.984375 h 0.79375 v -0.396875 h 0.79375 v 0.396875 h -0.396875 v 0.396875 z"
         style="stroke-width:0.265"
         id="path1302" /></g><g
       aria-label="(DUR)"
       id="g1316"
       style="font-size:2.11667px;font-family:'C64 User';-inkscape-font-specification:'C64 User';text-align:center;text-orientation:upright;text-anchor:middle;display:inline;fill:#b3b3b3;stroke-width:0.264999;stroke-dasharray:0.264999, 0.264999"
       inkscape:label="DUR"
       transform="translate(0.28005762)"><path
         d="M 13.456207,12.978163 V 12.713579 H 13.191623 V 12.448995 H 12.92704 v -0.793751 h 0.264583 V 11.39066 h 0.264584 v -0.264583 h 0.529168 v 0.264583 h -0.264584 v 0.264584 h -0.264584 v 0.793751 h 0.264584 v 0.264584 h 0.264584 v 0.264584 z"
         style="stroke-width:0.265"
         id="path1306" /><path
         d="m 14.249958,12.978163 v -1.852086 h 1.058335 v 0.264583 h 0.264584 v 0.264584 h 0.264584 v 0.793751 h -0.264584 v 0.264584 h -0.264584 v 0.264584 z m 0.529168,-0.264584 h 0.264584 v -0.264584 h 0.264583 V 11.655244 H 15.04371 V 11.39066 h -0.264584 z"
         style="stroke-width:0.265"
         id="path1308" /><path
         d="m 16.366628,12.978163 v -0.264584 h -0.264583 v -1.587502 h 0.529167 v 1.587502 h 0.529168 v -1.587502 h 0.529167 v 1.587502 h -0.264584 v 0.264584 z"
         style="stroke-width:0.265"
         id="path1310" /><path
         d="m 17.954131,12.978163 v -1.852086 h 1.322918 v 0.264583 h 0.264584 v 0.529168 h -0.264584 v 0.264584 h -0.264583 v 0.264583 h 0.264583 v 0.264584 h 0.264584 v 0.264584 h -0.529167 v -0.264584 h -0.264584 v -0.264584 h -0.264584 v 0.529168 z m 0.529167,-1.058335 h 0.529168 V 11.39066 h -0.529168 z"
         style="stroke-width:0.265"
         id="path1312" /><path
         d="m 19.806217,12.978163 v -0.264584 h 0.264584 v -0.264584 h 0.264583 V 11.655244 H 20.070801 V 11.39066 h -0.264584 v -0.264583 h 0.529167 v 0.264583 h 0.264584 v 0.264584 h 0.264584 v 0.793751 h -0.264584 v 0.264584 h -0.264584 v 0.264584 z"
         style="stroke-width:0.265"
         id="path1314" /></g><g
       aria-label="ATT"
       id="g1324"
       style="font-size:3.175px;font-family:'C64 User';-inkscape-font-specification:'C64 User';text-align:center;text-orientation:upright;text-anchor:middle;display:inline;fill:#ffffff;stroke-width:0.264999;stroke-dasharray:0.264999, 0.264999"
       inkscape:label="ATT"
       transform="translate(-0.57983821)"><path
         d="m 4.535454,12.978163 v -1.984375 h 0.396875 v -0.396875 h 0.396875 v -0.396875 h 0.79375 v 0.396875 h 0.396875 v 0.396875 h 0.396875 v 1.984375 h -0.79375 v -1.190625 h -0.79375 v 1.190625 z m 0.79375,-1.5875 h 0.79375 v -0.396875 h -0.79375 z"
         style="stroke-width:0.265"
         id="path1318" /><path
         d="m 8.1073291,12.978163 v -2.38125 h -0.79375 v -0.396875 h 2.38125 v 0.396875 h -0.79375 v 2.38125 z"
         style="stroke-width:0.265"
         id="path1320" /><path
         d="m 10.885454,12.978163 v -2.38125 h -0.79375 v -0.396875 h 2.38125 v 0.396875 h -0.79375 v 2.38125 z"
         style="stroke-width:0.265"
         id="path1322" /></g></g><g
     inkscape:label="header footer"
     inkscape:groupmode="layer"
     id="layer1"
     style="display:inline"
     transform="translate(-5.1211015)"><rect
       style="display:inline;fill:#00000a;fill-opacity:1;stroke:#666699;stroke-width:0.4;stroke-dasharray:none;stroke-dashoffset:0;stroke-opacity:1"
       id="rect1447-8-2"
       width="8.386981"
       height="3.8484273"
       x="13.627611"
       y="124.17537"
       inkscape:label="footer rect"
       ry="1.2" /><g
       aria-label="skz"
       id="text24111"
       style="font-size:2.82222px;font-family:'C64 User';-inkscape-font-specification:'C64 User';display:inline;fill:#cccccc;stroke-width:0.264583"
       inkscape:label="sickozell"
       transform="translate(12.669806,-0.04169368)"><path
         d="m 3.7401839,125.43571 v 0.35277 H 2.3290738 v 0.35278 h 1.0583326 v 0.35278 h 0.3527775 v 0.35278 H 3.3874064 v 0.35277 H 1.6235188 v -0.35277 h 1.4111101 v -0.35278 H 1.9762963 v -0.35278 H 1.6235188 v -0.35278 h 0.3527775 v -0.35277 z"
         id="path24113" /><path
         d="m 4.0929614,127.19959 v -2.11666 h 0.7055551 v 1.05833 H 5.151294 v -0.35278 h 0.705555 v 0.35278 H 5.5040715 v 0.35278 H 5.856849 v 0.35278 h 0.3527775 v 0.35277 h -0.705555 v -0.35277 H 5.151294 v -0.35278 H 4.7985165 v 0.70555 z"
         id="path24115" /><path
         d="m 6.562404,127.19959 v -0.35277 h 0.3527775 v -0.35278 h 0.3527776 v -0.35278 h 0.3527775 v -0.35278 H 6.562404 v -0.35277 h 2.1166651 v 0.35277 H 8.3262916 v 0.35278 H 7.9735141 v 0.35278 H 7.6207366 v 0.35278 h 1.0583325 v 0.35277 z"
         id="path24117" /></g><rect
       style="display:inline;fill:#00000a;fill-opacity:1;stroke:#666699;stroke-width:0.4;stroke-dasharray:none;stroke-dashoffset:0;stroke-opacity:1"
       id="rect2138"
       width="12.757029"
       height="5.3419695"
       x="11.458723"
       y="1.1581835"
       ry="1.8"
       inkscape:label="header rect" /><text
       xml:space="preserve"
       style="font-style:normal;font-variant:normal;font-weight:normal;font-stretch:normal;font-size:3.175px;font-family:'C64 User';-inkscape-font-specification:'C64 User';text-align:center;text-anchor:middle;display:none;fill:#ffffff;stroke-width:0.264583"
       x="18.019539"
       y="4.9781251"
       id="text1341"
       inkscape:label="slewer"><tspan
         sodipodi:role="line"
         id="tspan1339"
         style="font-size:3.175px;text-align:center;text-anchor:middle;fill:#ffffff;stroke-width:0.264583"
         x="18.019539"
         y="4.9781251">slwr</tspan></text><g
       aria-label="slwr"
       id="text2173"
       style="font-size:3.175px;font-family:'C64 User';-inkscape-font-specification:'C64 User';text-align:center;text-anchor:middle;display:inline;fill:#ffffff;stroke-width:0.264583"
       inkscape:label="slewer"><path
         d="m 15.042976,2.9937501 v 0.396875 h -1.5875 v 0.396875 h 1.190625 v 0.396875 h 0.396875 v 0.396875 h -0.396875 v 0.396875 h -1.984375 v -0.396875 h 1.5875 v -0.396875 h -1.190625 v -0.396875 h -0.396875 v -0.396875 h 0.396875 v -0.396875 z"
         id="path2175" /><path
         d="m 16.630476,2.5968751 v 1.984375 h 0.396875 v 0.396875 h -1.587499 v -0.396875 h 0.396875 v -1.5875 h -0.396875 v -0.396875 z"
         id="path2177" /><path
         d="m 17.821101,4.9781251 v -0.79375 h -0.396875 v -1.190625 h 0.79375 v 0.79375 h 0.396875 v -0.396875 h 0.396875 v 0.396875 h 0.396875 v -0.79375 h 0.79375 v 1.190625 h -0.396875 v 0.79375 h -0.79375 v -0.396875 h -0.396875 v 0.396875 z"
         id="path2179" /><path
         d="m 20.599226,4.9781251 v -1.984375 h 1.984375 v 0.396875 h 0.396875 v 0.396875 h -0.79375 v -0.396875 h -0.79375 v 1.5875 z"
         id="path2181" /></g></g></svg>
