<?xml version="1.0" encoding="UTF-8" standalone="no"?>
<!-- Created with Inkscape (http://www.inkscape.org/) -->

<svg
   width="81.279999mm"
   height="128.5mm"
   viewBox="0 0 81.279999 128.5"
   version="1.1"
   id="svg5"
   inkscape:version="1.2.1 (9c6d41e410, 2022-07-14)"
   sodipodi:docname="Switcher8.svg"
   xmlns:inkscape="http://www.inkscape.org/namespaces/inkscape"
   xmlns:sodipodi="http://sodipodi.sourceforge.net/DTD/sodipodi-0.dtd"
   xmlns="http://www.w3.org/2000/svg"
   xmlns:svg="http://www.w3.org/2000/svg">
  <sodipodi:namedview
     id="namedview7"
     pagecolor="#ffffff"
     bordercolor="#000000"
     borderopacity="0.25"
     inkscape:showpageshadow="2"
     inkscape:pageopacity="0.0"
     inkscape:pagecheckerboard="0"
     inkscape:deskcolor="#d1d1d1"
     inkscape:document-units="mm"
     showgrid="false"
     inkscape:zoom="2.828427"
     inkscape:cx="127.456"
     inkscape:cy="532.45143"
     inkscape:window-width="1366"
     inkscape:window-height="705"
     inkscape:window-x="-8"
     inkscape:window-y="-8"
     inkscape:window-maximized="1"
     inkscape:current-layer="g7864"
     showguides="true" />
  <defs
     id="defs2">
    <rect
       x="22.799086"
       y="440.55881"
       width="6.0350523"
       height="22.128525"
       id="rect289" />
  </defs>
  <g
     inkscape:groupmode="layer"
     id="layer3"
     inkscape:label="Sfondo"
     transform="scale(1.1428571,1)">
    <rect
       style="fill:#00001f;fill-opacity:1;stroke-width:0.313059;image-rendering:auto"
       id="sfondo"
       width="71.120003"
       height="128.5"
       x="0"
       y="6.6613381e-16"
       inkscape:label="background"
       ry="0"
       sodipodi:insensitive="true" />
  </g>
  <g
     inkscape:groupmode="layer"
     id="layer7"
     inkscape:label="stripes"
     transform="matrix(0.79210528,0,0,1,0.44784189,0.59166683)"
     style="display:inline;fill:#000000;stroke:none">
    <rect
       style="display:inline;fill:#0088ff;fill-opacity:1;stroke-width:0.378403"
       id="rect1316"
       width="53.023254"
       height="0.40000001"
       x="24.229301"
       y="5.0580001"
       inkscape:label="azzurro" />
    <rect
       style="display:inline;fill:#00cc55;fill-opacity:1;stroke-width:0.378403"
       id="rect1313"
       width="53.023254"
       height="0.40000001"
       x="24.229301"
       y="4.0580001"
       inkscape:label="verde" />
    <rect
       style="display:inline;fill:#eeee77;fill-opacity:1;stroke-width:0.378403"
       id="rect1310"
       width="53.023254"
       height="0.40000001"
       x="24.229301"
       y="3.0580001"
       inkscape:label="giallo" />
    <rect
       style="display:inline;fill:#ff7777;fill-opacity:1;stroke-width:0.378403"
       id="rect989"
       width="53.023254"
       height="0.40000001"
       x="24.229301"
       y="2.0580001"
       inkscape:label="rosa" />
    <rect
       style="display:inline;fill:#bd0000;fill-opacity:1;stroke-width:0.378403"
       id="rect1308"
       width="53.023254"
       height="0.40000001"
       x="24.229301"
       y="1.0583332"
       inkscape:label="rosso" />
  </g>
  <g
     inkscape:groupmode="layer"
     id="g7864"
     inkscape:label="stripes copy"
     transform="matrix(0.67450981,0,0,0.77278577,6.4147452,123.58213)"
     style="display:inline;fill:#000000;stroke:none">
    <rect
       style="display:inline;fill:#0088ff;fill-opacity:1;stroke-width:0.357934"
       id="rect7854"
       width="47.44186"
       height="0.40000001"
       x="27.019999"
       y="5.0580001"
       inkscape:label="azzurro" />
    <rect
       style="display:inline;fill:#00cc55;fill-opacity:1;stroke-width:0.357934"
       id="rect7856"
       width="47.44186"
       height="0.40000001"
       x="27.019999"
       y="4.0580001"
       inkscape:label="verde" />
    <rect
       style="display:inline;fill:#eeee77;fill-opacity:1;stroke-width:0.357934"
       id="rect7858"
       width="47.44186"
       height="0.40000001"
       x="27.019999"
       y="3.0580001"
       inkscape:label="giallo" />
    <rect
       style="display:inline;fill:#ff7777;fill-opacity:1;stroke-width:0.357934"
       id="rect7860"
       width="47.44186"
       height="0.40000001"
       x="27.019999"
       y="2.0580001"
       inkscape:label="rosa" />
    <rect
       style="display:inline;fill:#bd0000;fill-opacity:1;stroke-width:0.357934"
       id="rect7862"
       width="47.44186"
       height="0.40000001"
       x="27.019999"
       y="1.0583332"
       inkscape:label="rosso" />
  </g>
  <g
     inkscape:groupmode="layer"
     id="layer4"
     inkscape:label="Elementi"
     style="fill:#f9f9f9">
    <rect
       style="display:none;fill:#e6e6e6;stroke:none;stroke-width:0.651372;stroke-dasharray:0.651372, 0.651372;stroke-dashoffset:0;stroke-opacity:1"
       id="rect2291"
       width="26.700001"
       height="83.210373"
       x="19.200001"
       y="37.177361"
       ry="2.5"
       inkscape:label="out rect" />
    <rect
       style="fill:#000033;fill-opacity:1;stroke:#666699;stroke-width:0.5;stroke-dasharray:none;stroke-dashoffset:0;stroke-opacity:1"
       id="rect1002"
       width="78.027733"
       height="11.977757"
       x="1.4733484"
       y="12.671622"
       inkscape:label="line 1"
       ry="2.5" />
    <path
       style="display:inline;fill:none;fill-opacity:1;stroke:#ededed;stroke-width:0.4;stroke-dasharray:none;stroke-dashoffset:0;stroke-opacity:1"
       id="path10131"
       inkscape:label="circle 1"
       sodipodi:type="arc"
       sodipodi:cx="54.099995"
       sodipodi:cy="18.9"
       sodipodi:rx="3.5"
       sodipodi:ry="3.5"
       sodipodi:start="2.268928"
       sodipodi:end="0.87266463"
       sodipodi:arc-type="arc"
       d="M 51.850238,21.581155 A 3.5,3.5 0 0 1 50.81107,17.702929 3.5,3.5 0 0 1 54.099995,15.4 a 3.5,3.5 0 0 1 3.288924,2.302929 3.5,3.5 0 0 1 -1.039168,3.878226"
       sodipodi:open="true" />
    <rect
       style="fill:#484884;fill-opacity:1;stroke:#666699;stroke-width:0.5;stroke-dasharray:none;stroke-dashoffset:0;stroke-opacity:1"
       id="rect1002-9"
       width="7.8187151"
       height="11.988567"
       x="71.867996"
       y="12.65"
       inkscape:label="line 1"
       ry="2.5" />
    <rect
       style="display:inline;fill:#484884;fill-opacity:1;stroke:none;stroke-width:0.18143;stroke-dasharray:0.18143, 0.18143;stroke-dashoffset:0;stroke-opacity:1"
       id="rect1628"
       width="15"
       height="11.491109"
       x="58.900002"
       y="12.901661"
       inkscape:label="out 1" />
    <rect
       style="fill:#000033;fill-opacity:1;stroke:#666699;stroke-width:0.5;stroke-dasharray:none;stroke-dashoffset:0;stroke-opacity:1"
       id="rect42094"
       width="78.027733"
       height="11.977757"
       x="1.4733484"
       y="26.667133"
       inkscape:label="line 1"
       ry="2.5" />
    <rect
       style="fill:#484884;fill-opacity:1;stroke:#666699;stroke-width:0.5;stroke-dasharray:none;stroke-dashoffset:0;stroke-opacity:1"
       id="rect42102"
       width="7.8187151"
       height="11.988567"
       x="71.867996"
       y="26.65"
       inkscape:label="line 1"
       ry="2.5" />
    <rect
       style="display:inline;fill:#484884;fill-opacity:1;stroke:none;stroke-width:0.18143;stroke-dasharray:0.18143, 0.18143;stroke-dashoffset:0;stroke-opacity:1"
       id="rect42104"
       width="15"
       height="11.491109"
       x="58.900002"
       y="26.901661"
       inkscape:label="out 1" />
    <rect
       style="fill:#000033;fill-opacity:1;stroke:#666699;stroke-width:0.5;stroke-dasharray:none;stroke-dashoffset:0;stroke-opacity:1"
       id="rect42110"
       width="78.027733"
       height="11.977757"
       x="1.4733484"
       y="40.662647"
       inkscape:label="line 1"
       ry="2.5" />
    <rect
       style="fill:#484884;fill-opacity:1;stroke:#666699;stroke-width:0.5;stroke-dasharray:none;stroke-dashoffset:0;stroke-opacity:1"
       id="rect42118"
       width="7.8187151"
       height="11.988567"
       x="71.867996"
       y="40.650002"
       inkscape:label="line 1"
       ry="2.5" />
    <rect
       style="display:inline;fill:#484884;fill-opacity:1;stroke:none;stroke-width:0.18143;stroke-dasharray:0.18143, 0.18143;stroke-dashoffset:0;stroke-opacity:1"
       id="rect42120"
       width="15"
       height="11.491109"
       x="58.900002"
       y="40.901661"
       inkscape:label="out 1" />
    <rect
       style="fill:#000033;fill-opacity:1;stroke:#666699;stroke-width:0.5;stroke-dasharray:none;stroke-dashoffset:0;stroke-opacity:1"
       id="rect42126"
       width="78.027733"
       height="11.977757"
       x="1.4733484"
       y="54.658157"
       inkscape:label="line 1"
       ry="2.5" />
    <rect
       style="fill:#484884;fill-opacity:1;stroke:#666699;stroke-width:0.5;stroke-dasharray:none;stroke-dashoffset:0;stroke-opacity:1"
       id="rect42134"
       width="7.8187151"
       height="11.988567"
       x="71.867996"
       y="54.650002"
       inkscape:label="line 1"
       ry="2.5" />
    <rect
       style="display:inline;fill:#484884;fill-opacity:1;stroke:none;stroke-width:0.18143;stroke-dasharray:0.18143, 0.18143;stroke-dashoffset:0;stroke-opacity:1"
       id="rect42136"
       width="15"
       height="11.491109"
       x="58.900002"
       y="54.901661"
       inkscape:label="out 1" />
    <rect
       style="fill:#000033;fill-opacity:1;stroke:#666699;stroke-width:0.5;stroke-dasharray:none;stroke-dashoffset:0;stroke-opacity:1"
       id="rect42142"
       width="78.027733"
       height="11.977757"
       x="1.4733484"
       y="68.653671"
       inkscape:label="line 1"
       ry="2.5" />
    <rect
       style="fill:#484884;fill-opacity:1;stroke:#666699;stroke-width:0.5;stroke-dasharray:none;stroke-dashoffset:0;stroke-opacity:1"
       id="rect42150"
       width="7.8187151"
       height="11.988567"
       x="71.867996"
       y="68.650002"
       inkscape:label="line 1"
       ry="2.5" />
    <rect
       style="display:inline;fill:#484884;fill-opacity:1;stroke:none;stroke-width:0.18143;stroke-dasharray:0.18143, 0.18143;stroke-dashoffset:0;stroke-opacity:1"
       id="rect42152"
       width="15"
       height="11.491109"
       x="58.900002"
       y="68.901657"
       inkscape:label="out 1" />
    <rect
       style="fill:#000033;fill-opacity:1;stroke:#666699;stroke-width:0.5;stroke-dasharray:none;stroke-dashoffset:0;stroke-opacity:1"
       id="rect42158"
       width="78.027733"
       height="11.977757"
       x="1.4733484"
       y="82.649178"
       inkscape:label="line 1"
       ry="2.5" />
    <rect
       style="fill:#484884;fill-opacity:1;stroke:#666699;stroke-width:0.5;stroke-dasharray:none;stroke-dashoffset:0;stroke-opacity:1"
       id="rect42166"
       width="7.8187151"
       height="11.988567"
       x="71.867996"
       y="82.650002"
       inkscape:label="line 1"
       ry="2.5" />
    <rect
       style="display:inline;fill:#484884;fill-opacity:1;stroke:none;stroke-width:0.18143;stroke-dasharray:0.18143, 0.18143;stroke-dashoffset:0;stroke-opacity:1"
       id="rect42168"
       width="15"
       height="11.491109"
       x="58.900002"
       y="82.901657"
       inkscape:label="out 1" />
    <rect
       style="fill:#000033;fill-opacity:1;stroke:#666699;stroke-width:0.5;stroke-dasharray:none;stroke-dashoffset:0;stroke-opacity:1"
       id="rect42174"
       width="78.027733"
       height="11.977757"
       x="1.4733484"
       y="96.644691"
       inkscape:label="line 1"
       ry="2.5" />
    <rect
       style="fill:#484884;fill-opacity:1;stroke:#666699;stroke-width:0.5;stroke-dasharray:none;stroke-dashoffset:0;stroke-opacity:1"
       id="rect42182"
       width="7.8187151"
       height="11.988567"
       x="71.867996"
       y="96.650002"
       inkscape:label="line 1"
       ry="2.5" />
    <rect
       style="display:inline;fill:#484884;fill-opacity:1;stroke:none;stroke-width:0.18143;stroke-dasharray:0.18143, 0.18143;stroke-dashoffset:0;stroke-opacity:1"
       id="rect42184"
       width="15"
       height="11.491109"
       x="58.900002"
       y="96.901657"
       inkscape:label="out 1" />
    <rect
       style="fill:#000033;fill-opacity:1;stroke:#666699;stroke-width:0.5;stroke-dasharray:none;stroke-dashoffset:0;stroke-opacity:1"
       id="rect42916"
       width="78.027733"
       height="11.977757"
       x="1.4733484"
       y="110.6402"
       inkscape:label="line 1"
       ry="2.5" />
    <rect
       style="fill:#484884;fill-opacity:1;stroke:#666699;stroke-width:0.5;stroke-dasharray:none;stroke-dashoffset:0;stroke-opacity:1"
       id="rect42924"
       width="7.8187151"
       height="11.988567"
       x="71.867996"
       y="110.65"
       inkscape:label="line 1"
       ry="2.5" />
    <rect
       style="display:inline;fill:#484884;fill-opacity:1;stroke:none;stroke-width:0.18143;stroke-dasharray:0.18143, 0.18143;stroke-dashoffset:0;stroke-opacity:1"
       id="rect42926"
       width="15"
       height="11.491109"
       x="58.900002"
       y="110.90166"
       inkscape:label="out 1" />
    <path
       style="display:inline;fill:none;fill-opacity:1;stroke:#ededed;stroke-width:0.4;stroke-dasharray:none;stroke-dashoffset:0;stroke-opacity:1"
       id="path46212"
       inkscape:label="circle 1"
       sodipodi:type="arc"
       sodipodi:cx="54.099995"
       sodipodi:cy="32.900002"
       sodipodi:rx="3.5"
       sodipodi:ry="3.5"
       sodipodi:start="2.268928"
       sodipodi:end="0.87266463"
       sodipodi:arc-type="arc"
       d="m 51.850238,35.581157 a 3.5,3.5 0 0 1 -1.039168,-3.878226 3.5,3.5 0 0 1 3.288925,-2.302929 3.5,3.5 0 0 1 3.288924,2.302929 3.5,3.5 0 0 1 -1.039168,3.878226"
       sodipodi:open="true" />
    <path
       style="display:inline;fill:none;fill-opacity:1;stroke:#ededed;stroke-width:0.4;stroke-dasharray:none;stroke-dashoffset:0;stroke-opacity:1"
       id="path46218"
       inkscape:label="circle 1"
       sodipodi:type="arc"
       sodipodi:cx="54.099995"
       sodipodi:cy="46.900002"
       sodipodi:rx="3.5"
       sodipodi:ry="3.5"
       sodipodi:start="2.268928"
       sodipodi:end="0.87266463"
       sodipodi:arc-type="arc"
       d="m 51.850238,49.581157 a 3.5,3.5 0 0 1 -1.039168,-3.878226 3.5,3.5 0 0 1 3.288925,-2.302929 3.5,3.5 0 0 1 3.288924,2.302929 3.5,3.5 0 0 1 -1.039168,3.878226"
       sodipodi:open="true" />
    <path
       style="display:inline;fill:none;fill-opacity:1;stroke:#ededed;stroke-width:0.4;stroke-dasharray:none;stroke-dashoffset:0;stroke-opacity:1"
       id="path46224"
       inkscape:label="circle 1"
       sodipodi:type="arc"
       sodipodi:cx="54.099995"
       sodipodi:cy="60.900002"
       sodipodi:rx="3.5"
       sodipodi:ry="3.5"
       sodipodi:start="2.268928"
       sodipodi:end="0.87266463"
       sodipodi:arc-type="arc"
       d="m 51.850238,63.581157 a 3.5,3.5 0 0 1 -1.039168,-3.878226 3.5,3.5 0 0 1 3.288925,-2.302929 3.5,3.5 0 0 1 3.288924,2.302929 3.5,3.5 0 0 1 -1.039168,3.878226"
       sodipodi:open="true" />
    <path
       style="display:inline;fill:none;fill-opacity:1;stroke:#ededed;stroke-width:0.4;stroke-dasharray:none;stroke-dashoffset:0;stroke-opacity:1"
       id="path46230"
       inkscape:label="circle 1"
       sodipodi:type="arc"
       sodipodi:cx="54.099995"
       sodipodi:cy="74.900002"
       sodipodi:rx="3.5"
       sodipodi:ry="3.5"
       sodipodi:start="2.268928"
       sodipodi:end="0.87266463"
       sodipodi:arc-type="arc"
       d="m 51.850238,77.581157 a 3.5,3.5 0 0 1 -1.039168,-3.878226 3.5,3.5 0 0 1 3.288925,-2.302929 3.5,3.5 0 0 1 3.288924,2.302929 3.5,3.5 0 0 1 -1.039168,3.878226"
       sodipodi:open="true" />
    <path
       style="display:inline;fill:none;fill-opacity:1;stroke:#ededed;stroke-width:0.4;stroke-dasharray:none;stroke-dashoffset:0;stroke-opacity:1"
       id="path46236"
       inkscape:label="circle 1"
       sodipodi:type="arc"
       sodipodi:cx="54.099995"
       sodipodi:cy="88.900002"
       sodipodi:rx="3.5"
       sodipodi:ry="3.5"
       sodipodi:start="2.268928"
       sodipodi:end="0.87266463"
       sodipodi:arc-type="arc"
       d="m 51.850238,91.581157 a 3.5,3.5 0 0 1 -1.039168,-3.878226 3.5,3.5 0 0 1 3.288925,-2.302929 3.5,3.5 0 0 1 3.288924,2.302929 3.5,3.5 0 0 1 -1.039168,3.878226"
       sodipodi:open="true" />
    <path
       style="display:inline;fill:none;fill-opacity:1;stroke:#ededed;stroke-width:0.4;stroke-dasharray:none;stroke-dashoffset:0;stroke-opacity:1"
       id="path46242"
       inkscape:label="circle 1"
       sodipodi:type="arc"
       sodipodi:cx="54.099995"
       sodipodi:cy="102.90001"
       sodipodi:rx="3.5"
       sodipodi:ry="3.5"
       sodipodi:start="2.268928"
       sodipodi:end="0.87266463"
       sodipodi:arc-type="arc"
       d="m 51.850238,105.58116 a 3.5,3.5 0 0 1 -1.039168,-3.87822 3.5,3.5 0 0 1 3.288925,-2.302931 3.5,3.5 0 0 1 3.288924,2.302931 3.5,3.5 0 0 1 -1.039168,3.87822"
       sodipodi:open="true" />
    <path
       style="display:inline;fill:none;fill-opacity:1;stroke:#ededed;stroke-width:0.4;stroke-dasharray:none;stroke-dashoffset:0;stroke-opacity:1"
       id="path46248"
       inkscape:label="circle 1"
       sodipodi:type="arc"
       sodipodi:cx="54.099995"
       sodipodi:cy="116.90001"
       sodipodi:rx="3.5"
       sodipodi:ry="3.5"
       sodipodi:start="2.268928"
       sodipodi:end="0.87266463"
       sodipodi:arc-type="arc"
       d="m 51.850238,119.58116 a 3.5,3.5 0 0 1 -1.039168,-3.87822 3.5,3.5 0 0 1 3.288925,-2.30293 3.5,3.5 0 0 1 3.288924,2.30293 3.5,3.5 0 0 1 -1.039168,3.87822"
       sodipodi:open="true" />
  </g>
  <g
     inkscape:groupmode="layer"
     id="layer5"
     inkscape:label="Etichette Testo"
     style="display:none">
    <text
       xml:space="preserve"
       style="font-size:2.82222px;font-family:'C64 User';-inkscape-font-specification:'C64 User';text-align:center;text-anchor:middle;display:inline;fill:#ffffff;stroke:none;stroke-width:0.264999;stroke-dasharray:0.264999, 0.264999"
       x="69.566666"
       y="10.723604"
       id="text43884"
       inkscape:label="out"><tspan
         sodipodi:role="line"
         id="tspan43882"
         style="font-size:2.82222px;text-align:center;text-anchor:middle;stroke:none;stroke-width:0.265"
         x="69.566666"
         y="10.723604">OUTs</tspan></text>
    <text
       xml:space="preserve"
       style="font-size:2.82222px;font-family:'C64 User';-inkscape-font-specification:'C64 User';text-align:center;text-anchor:middle;display:inline;fill:#ffffff;stroke:none;stroke-width:0.264999;stroke-dasharray:0.264999, 0.264999"
       x="54.276382"
       y="10.723604"
       id="text1443"
       inkscape:label="fd"><tspan
         sodipodi:role="line"
         id="tspan1441"
         style="font-size:2.82222px;text-align:center;text-anchor:middle;stroke:none;stroke-width:0.265"
         x="54.276382"
         y="10.723604">FD</tspan></text>
    <text
       xml:space="preserve"
       style="font-style:normal;font-variant:normal;font-weight:normal;font-stretch:normal;font-size:2.82222px;font-family:'C64 User';-inkscape-font-specification:'C64 User';text-align:center;text-anchor:middle;display:inline;fill:#ffffff;stroke:none;stroke-width:0.264999;stroke-dasharray:0.264999, 0.264999;stroke-dashoffset:0;stroke-opacity:1"
       x="40.146004"
       y="10.723604"
       id="text2531"
       inkscape:label="ins"><tspan
         sodipodi:role="line"
         id="tspan2529"
         style="font-size:2.82222px;text-align:center;text-anchor:middle;stroke:none;stroke-width:0.265"
         x="40.146004"
         y="10.723604">INs</tspan></text>
    <text
       xml:space="preserve"
       style="font-style:normal;font-variant:normal;font-weight:normal;font-stretch:normal;font-size:2.82222px;font-family:'C64 User';-inkscape-font-specification:'C64 User';text-align:center;text-anchor:middle;fill:#ffffff;stroke:none;stroke-width:0.264999;stroke-dasharray:0.264999, 0.264999;stroke-dashoffset:0;stroke-opacity:1"
       x="25.780554"
       y="10.770369"
       id="text2513"
       inkscape:label="gate"><tspan
         sodipodi:role="line"
         id="tspan2511"
         style="font-size:2.82222px;text-align:center;text-anchor:middle;stroke:none;stroke-width:0.265"
         x="25.780554"
         y="10.770369">GTE</tspan></text>
    <text
       xml:space="preserve"
       style="font-style:normal;font-variant:normal;font-weight:normal;font-stretch:normal;font-size:2.82222px;font-family:'C64 User';-inkscape-font-specification:'C64 User';text-align:center;text-anchor:middle;display:inline;fill:#ffffff;stroke:none;stroke-width:0.264999;stroke-dasharray:0.264999, 0.264999;stroke-dashoffset:0;stroke-opacity:1"
       x="16.604164"
       y="10.723443"
       id="text2507"
       inkscape:label="rst"><tspan
         sodipodi:role="line"
         id="tspan2505"
         style="font-size:2.82222px;text-align:center;text-anchor:middle;stroke:none;stroke-width:0.265"
         x="16.604164"
         y="10.723443">RST</tspan></text>
    <text
       xml:space="preserve"
       style="font-style:normal;font-variant:normal;font-weight:normal;font-stretch:normal;font-size:2.82222px;font-family:'C64 User';-inkscape-font-specification:'C64 User';text-align:center;text-anchor:middle;display:inline;fill:#ffffff;stroke:none;stroke-width:0.264999;stroke-dasharray:0.264999, 0.264999;stroke-dashoffset:0;stroke-opacity:1"
       x="6.5041666"
       y="10.723597"
       id="text2449"
       inkscape:label="trg"><tspan
         sodipodi:role="line"
         id="tspan2447"
         style="font-size:2.82222px;text-align:center;text-anchor:middle;stroke:none;stroke-width:0.265"
         x="6.5041666"
         y="10.723597">TRG</tspan></text>
  </g>
  <g
     inkscape:groupmode="layer"
     id="g1043"
     inkscape:label="Etichette Testo nere"
     style="display:inline;fill:#000000"
     transform="translate(0.2999973,0.2999995)">
    <g
       aria-label="OUTs"
       id="text1021"
       style="font-size:2.82222px;font-family:'C64 User';-inkscape-font-specification:'C64 User';text-align:center;text-anchor:middle;display:inline;fill:#000000;stroke-width:0.264999;stroke-dasharray:0.264999, 0.264999"
       inkscape:label="out">
      <path
         d="M 64.980558,10.723604 V 10.370827 H 64.62778 V 8.6069391 h 0.352778 V 8.2541616 h 1.41111 v 0.3527775 h 0.352778 v 1.7638879 h -0.352778 v 0.352777 z m 0.352778,-0.352777 h 0.705555 V 8.6069391 h -0.705555 z"
         style="fill:#000000;stroke-width:0.265"
         id="path1045" />
      <path
         d="M 67.450001,10.723604 V 10.370827 H 67.097223 V 8.2541616 h 0.705555 v 2.1166654 h 0.705555 V 8.2541616 h 0.705555 v 2.1166654 h -0.352777 v 0.352777 z"
         style="fill:#000000;stroke-width:0.265"
         id="path1047" />
      <path
         d="M 70.272221,10.723604 V 8.6069391 H 69.566666 V 8.2541616 h 2.116665 v 0.3527775 h -0.705555 v 2.1166649 z"
         style="fill:#000000;stroke-width:0.265"
         id="path1049" />
      <path
         d="m 74.152774,8.9597166 v 0.3527776 h -1.41111 v 0.3527775 h 1.058332 v 0.3527773 h 0.352778 v 0.352778 h -0.352778 v 0.352777 h -1.763887 v -0.352777 h 1.41111 V 10.018049 H 72.388886 V 9.6652717 H 72.036109 V 9.3124942 h 0.352777 V 8.9597166 Z"
         style="fill:#000000;stroke-width:0.265"
         id="path1051" />
    </g>
    <g
       aria-label="FD"
       id="text1025"
       style="font-size:2.82222px;font-family:'C64 User';-inkscape-font-specification:'C64 User';text-align:center;text-anchor:middle;display:inline;fill:#000000;stroke-width:0.264999;stroke-dasharray:0.264999, 0.264999"
       inkscape:label="fd">
      <path
         d="M 51.80694,10.723604 V 8.2541616 h 2.116665 v 0.3527775 h -1.41111 v 0.7055551 h 0.705555 v 0.3527775 h -0.705555 v 1.0583323 z"
         style="fill:#000000;stroke-width:0.265"
         id="path1054" />
      <path
         d="M 54.276382,10.723604 V 8.2541616 h 1.411111 v 0.3527775 h 0.352777 v 0.3527775 h 0.352778 V 10.018049 H 56.04027 v 0.352778 h -0.352777 v 0.352777 z m 0.705555,-0.352777 h 0.352778 v -0.352778 h 0.352778 V 8.9597166 H 55.334715 V 8.6069391 h -0.352778 z"
         style="fill:#000000;stroke-width:0.265"
         id="path1056" />
    </g>
    <g
       aria-label="INs"
       id="text1029"
       style="font-size:2.82222px;font-family:'C64 User';-inkscape-font-specification:'C64 User';text-align:center;text-anchor:middle;display:inline;fill:#000000;stroke-width:0.264999;stroke-dasharray:0.264999, 0.264999"
       inkscape:label="ins">
      <path
         d="M 38.205727,8.2541616 V 8.6069391 H 37.85295 v 1.7638879 h 0.352777 v 0.352777 h -1.41111 v -0.352777 h 0.352778 V 8.6069391 H 36.794617 V 8.2541616 Z"
         style="fill:#000000;stroke-width:0.265"
         id="path1059" />
      <path
         d="M 38.558505,10.723604 V 8.2541616 h 0.705555 v 0.3527775 h 0.352777 v 0.3527775 h 0.352778 V 8.2541616 H 40.67517 V 10.723604 H 39.969615 V 10.018049 H 39.616837 V 9.6652717 H 39.26406 v 1.0583323 z"
         style="fill:#000000;stroke-width:0.265"
         id="path1061" />
      <path
         d="m 43.144613,8.9597166 v 0.3527776 h -1.41111 v 0.3527775 h 1.058332 v 0.3527773 h 0.352778 v 0.352778 h -0.352778 v 0.352777 h -1.763887 v -0.352777 h 1.41111 V 10.018049 H 41.380725 V 9.6652717 H 41.027948 V 9.3124942 h 0.352777 V 8.9597166 Z"
         style="fill:#000000;stroke-width:0.265"
         id="path1063" />
    </g>
    <g
       aria-label="GTE"
       id="text1033"
       style="font-size:2.82222px;font-family:'C64 User';-inkscape-font-specification:'C64 User';text-align:center;text-anchor:middle;fill:#000000;stroke-width:0.264999;stroke-dasharray:0.264999, 0.264999"
       inkscape:label="gate">
      <path
         d="M 22.429167,10.770369 V 10.417591 H 22.07639 V 8.6537035 h 0.352777 V 8.300926 h 1.411111 v 0.3527775 h 0.352777 V 9.006481 H 23.4875 V 8.6537035 H 22.781945 V 10.417591 H 23.4875 V 9.712036 H 23.134722 V 9.3592585 h 1.058333 v 1.0583325 h -0.352777 v 0.352778 z"
         style="fill:#000000;stroke-width:0.265"
         id="path1066" />
      <path
         d="M 25.251388,10.770369 V 8.6537035 H 24.545833 V 8.300926 h 2.116665 v 0.3527775 h -0.705555 v 2.1166655 z"
         style="fill:#000000;stroke-width:0.265"
         id="path1068" />
      <path
         d="m 29.13194,8.300926 v 0.3527775 h -1.41111 v 0.705555 h 0.705555 V 9.712036 H 27.72083 v 0.705555 h 1.41111 v 0.352778 H 27.015275 V 8.300926 Z"
         style="fill:#000000;stroke-width:0.265"
         id="path1070" />
    </g>
    <g
       aria-label="RST"
       id="text1037"
       style="font-size:2.82222px;font-family:'C64 User';-inkscape-font-specification:'C64 User';text-align:center;text-anchor:middle;display:inline;fill:#000000;stroke-width:0.264999;stroke-dasharray:0.264999, 0.264999"
       inkscape:label="rst">
      <path
         d="M 12.9,10.723443 V 8.2540005 h 1.763888 V 8.606778 h 0.352777 V 9.312333 H 14.663888 V 9.6651105 H 14.31111 v 0.3527775 h 0.352778 v 0.352778 h 0.352777 v 0.352777 H 14.31111 v -0.352777 h -0.352777 v -0.352778 h -0.352778 v 0.705555 z m 0.705555,-1.41111 H 14.31111 V 8.606778 h -0.705555 z"
         style="fill:#000000;stroke-width:0.265"
         id="path1073" />
      <path
         d="m 15.72222,10.723443 v -0.352777 h -0.352777 v -0.352778 h 0.705555 v 0.352778 h 0.705555 V 9.6651105 H 15.72222 V 9.312333 H 15.369443 V 8.606778 H 15.72222 V 8.2540005 h 1.41111 V 8.606778 h 0.352778 V 8.9595555 H 16.780553 V 8.606778 h -0.705555 v 0.705555 h 1.058332 v 0.3527775 h 0.352778 V 10.370666 H 17.13333 v 0.352777 z"
         style="fill:#000000;stroke-width:0.265"
         id="path1075" />
      <path
         d="M 18.54444,10.723443 V 8.606778 H 17.838885 V 8.2540005 h 2.116666 V 8.606778 h -0.705555 v 2.116665 z"
         style="fill:#000000;stroke-width:0.265"
         id="path1077" />
    </g>
    <g
       aria-label="TRG"
       id="text1041"
       style="font-size:2.82222px;font-family:'C64 User';-inkscape-font-specification:'C64 User';text-align:center;text-anchor:middle;display:inline;fill:#000000;stroke-width:0.264999;stroke-dasharray:0.264999, 0.264999"
       inkscape:label="trg">
      <path
         d="M 3.5055578,10.723597 V 8.6069315 H 2.8000027 V 8.254154 h 2.1166651 v 0.3527775 h -0.705555 v 2.1166655 z"
         style="fill:#000000;stroke-width:0.265"
         id="path1080" />
      <path
         d="M 5.2694453,10.723597 V 8.254154 h 1.7638876 v 0.3527775 h 0.3527775 v 0.705555 H 7.0333329 V 9.665264 H 6.6805554 v 0.352778 h 0.3527775 v 0.352777 h 0.3527775 v 0.352778 H 6.6805554 V 10.370819 H 6.3277779 V 10.018042 H 5.9750004 v 0.705555 z M 5.9750004,9.3124865 h 0.705555 v -0.705555 h -0.705555 z"
         style="fill:#000000;stroke-width:0.265"
         id="path1082" />
      <path
         d="M 8.0916655,10.723597 V 10.370819 H 7.738888 V 8.6069315 H 8.0916655 V 8.254154 h 1.41111 V 8.6069315 H 9.855553 V 8.959709 H 9.149998 V 8.6069315 H 8.444443 V 10.370819 H 9.149998 V 9.665264 H 8.7972205 V 9.3124865 H 9.855553 V 10.370819 H 9.5027755 v 0.352778 z"
         style="fill:#000000;stroke-width:0.265"
         id="path1084" />
    </g>
  </g>
  <g
     inkscape:groupmode="layer"
     id="g1135"
     inkscape:label="Etichette Testo path"
     style="display:inline">
    <g
       aria-label="OUTs"
       id="g1095"
       style="font-size:2.82222px;font-family:'C64 User';-inkscape-font-specification:'C64 User';text-align:center;text-anchor:middle;display:inline;fill:#ffffff;stroke-width:0.264999;stroke-dasharray:0.264999, 0.264999"
       inkscape:label="out">
      <path
         d="M 64.980558,10.723604 V 10.370827 H 64.62778 V 8.6069391 h 0.352778 V 8.2541616 h 1.41111 v 0.3527775 h 0.352778 v 1.7638879 h -0.352778 v 0.352777 z m 0.352778,-0.352777 h 0.705555 V 8.6069391 h -0.705555 z"
         style="stroke-width:0.265"
         id="path1087" />
      <path
         d="M 67.450001,10.723604 V 10.370827 H 67.097223 V 8.2541616 h 0.705555 v 2.1166654 h 0.705555 V 8.2541616 h 0.705555 v 2.1166654 h -0.352777 v 0.352777 z"
         style="stroke-width:0.265"
         id="path1089" />
      <path
         d="M 70.272221,10.723604 V 8.6069391 H 69.566666 V 8.2541616 h 2.116665 v 0.3527775 h -0.705555 v 2.1166649 z"
         style="stroke-width:0.265"
         id="path1091" />
      <path
         d="m 74.152774,8.9597166 v 0.3527776 h -1.41111 v 0.3527775 h 1.058332 v 0.3527773 h 0.352778 v 0.352778 h -0.352778 v 0.352777 h -1.763887 v -0.352777 h 1.41111 V 10.018049 H 72.388886 V 9.6652717 H 72.036109 V 9.3124942 h 0.352777 V 8.9597166 Z"
         style="stroke-width:0.265"
         id="path1093" />
    </g>
    <g
       aria-label="FD"
       id="g1101"
       style="font-size:2.82222px;font-family:'C64 User';-inkscape-font-specification:'C64 User';text-align:center;text-anchor:middle;display:inline;fill:#ffffff;stroke-width:0.264999;stroke-dasharray:0.264999, 0.264999"
       inkscape:label="fd">
      <path
         d="M 51.80694,10.723604 V 8.2541616 h 2.116665 v 0.3527775 h -1.41111 v 0.7055551 h 0.705555 v 0.3527775 h -0.705555 v 1.0583323 z"
         style="stroke-width:0.265"
         id="path1097" />
      <path
         d="M 54.276382,10.723604 V 8.2541616 h 1.411111 v 0.3527775 h 0.352777 v 0.3527775 h 0.352778 V 10.018049 H 56.04027 v 0.352778 h -0.352777 v 0.352777 z m 0.705555,-0.352777 h 0.352778 v -0.352778 h 0.352778 V 8.9597166 H 55.334715 V 8.6069391 h -0.352778 z"
         style="stroke-width:0.265"
         id="path1099" />
    </g>
    <g
       aria-label="INs"
       id="g1109"
       style="font-size:2.82222px;font-family:'C64 User';-inkscape-font-specification:'C64 User';text-align:center;text-anchor:middle;display:inline;fill:#ffffff;stroke-width:0.264999;stroke-dasharray:0.264999, 0.264999"
       inkscape:label="ins">
      <path
         d="M 38.205727,8.2541616 V 8.6069391 H 37.85295 v 1.7638879 h 0.352777 v 0.352777 h -1.41111 v -0.352777 h 0.352778 V 8.6069391 H 36.794617 V 8.2541616 Z"
         style="stroke-width:0.265"
         id="path1103" />
      <path
         d="M 38.558505,10.723604 V 8.2541616 h 0.705555 v 0.3527775 h 0.352777 v 0.3527775 h 0.352778 V 8.2541616 H 40.67517 V 10.723604 H 39.969615 V 10.018049 H 39.616837 V 9.6652717 H 39.26406 v 1.0583323 z"
         style="stroke-width:0.265"
         id="path1105" />
      <path
         d="m 43.144613,8.9597166 v 0.3527776 h -1.41111 v 0.3527775 h 1.058332 v 0.3527773 h 0.352778 v 0.352778 h -0.352778 v 0.352777 h -1.763887 v -0.352777 h 1.41111 V 10.018049 H 41.380725 V 9.6652717 H 41.027948 V 9.3124942 h 0.352777 V 8.9597166 Z"
         style="stroke-width:0.265"
         id="path1107" />
    </g>
    <g
       aria-label="GTE"
       id="g1117"
       style="font-size:2.82222px;font-family:'C64 User';-inkscape-font-specification:'C64 User';text-align:center;text-anchor:middle;fill:#ffffff;stroke-width:0.264999;stroke-dasharray:0.264999, 0.264999"
       inkscape:label="gate">
      <path
         d="M 22.429167,10.770369 V 10.417591 H 22.07639 V 8.6537035 h 0.352777 V 8.300926 h 1.411111 v 0.3527775 h 0.352777 V 9.006481 H 23.4875 V 8.6537035 H 22.781945 V 10.417591 H 23.4875 V 9.712036 H 23.134722 V 9.3592585 h 1.058333 v 1.0583325 h -0.352777 v 0.352778 z"
         style="stroke-width:0.265"
         id="path1111" />
      <path
         d="M 25.251388,10.770369 V 8.6537035 H 24.545833 V 8.300926 h 2.116665 v 0.3527775 h -0.705555 v 2.1166655 z"
         style="stroke-width:0.265"
         id="path1113" />
      <path
         d="m 29.13194,8.300926 v 0.3527775 h -1.41111 v 0.705555 h 0.705555 V 9.712036 H 27.72083 v 0.705555 h 1.41111 v 0.352778 H 27.015275 V 8.300926 Z"
         style="stroke-width:0.265"
         id="path1115" />
    </g>
    <g
       aria-label="RST"
       id="g1125"
       style="font-size:2.82222px;font-family:'C64 User';-inkscape-font-specification:'C64 User';text-align:center;text-anchor:middle;display:inline;fill:#ffffff;stroke-width:0.264999;stroke-dasharray:0.264999, 0.264999"
       inkscape:label="rst">
      <path
         d="M 12.9,10.723443 V 8.2540005 h 1.763888 V 8.606778 h 0.352777 V 9.312333 H 14.663888 V 9.6651105 H 14.31111 v 0.3527775 h 0.352778 v 0.352778 h 0.352777 v 0.352777 H 14.31111 v -0.352777 h -0.352777 v -0.352778 h -0.352778 v 0.705555 z m 0.705555,-1.41111 H 14.31111 V 8.606778 h -0.705555 z"
         style="stroke-width:0.265"
         id="path1119" />
      <path
         d="m 15.72222,10.723443 v -0.352777 h -0.352777 v -0.352778 h 0.705555 v 0.352778 h 0.705555 V 9.6651105 H 15.72222 V 9.312333 H 15.369443 V 8.606778 H 15.72222 V 8.2540005 h 1.41111 V 8.606778 h 0.352778 V 8.9595555 H 16.780553 V 8.606778 h -0.705555 v 0.705555 h 1.058332 v 0.3527775 h 0.352778 V 10.370666 H 17.13333 v 0.352777 z"
         style="stroke-width:0.265"
         id="path1121" />
      <path
         d="M 18.54444,10.723443 V 8.606778 H 17.838885 V 8.2540005 h 2.116666 V 8.606778 h -0.705555 v 2.116665 z"
         style="stroke-width:0.265"
         id="path1123" />
    </g>
    <g
       aria-label="TRG"
       id="g1133"
       style="font-size:2.82222px;font-family:'C64 User';-inkscape-font-specification:'C64 User';text-align:center;text-anchor:middle;display:inline;fill:#ffffff;stroke-width:0.264999;stroke-dasharray:0.264999, 0.264999"
       inkscape:label="trg">
      <path
         d="M 3.5055578,10.723597 V 8.6069315 H 2.8000027 V 8.254154 h 2.1166651 v 0.3527775 h -0.705555 v 2.1166655 z"
         style="stroke-width:0.265"
         id="path1127" />
      <path
         d="M 5.2694453,10.723597 V 8.254154 h 1.7638876 v 0.3527775 h 0.3527775 v 0.705555 H 7.0333329 V 9.665264 H 6.6805554 v 0.352778 h 0.3527775 v 0.352777 h 0.3527775 v 0.352778 H 6.6805554 V 10.370819 H 6.3277779 V 10.018042 H 5.9750004 v 0.705555 z M 5.9750004,9.3124865 h 0.705555 v -0.705555 h -0.705555 z"
         style="stroke-width:0.265"
         id="path1129" />
      <path
         d="M 8.0916655,10.723597 V 10.370819 H 7.738888 V 8.6069315 H 8.0916655 V 8.254154 h 1.41111 V 8.6069315 H 9.855553 V 8.959709 H 9.149998 V 8.6069315 H 8.444443 V 10.370819 H 9.149998 V 9.665264 H 8.7972205 V 9.3124865 H 9.855553 V 10.370819 H 9.5027755 v 0.352778 z"
         style="stroke-width:0.265"
         id="path1131" />
    </g>
  </g>
  <g
     inkscape:label="header footer"
     inkscape:groupmode="layer"
     id="layer1"
     style="display:inline">
    <rect
       style="display:inline;fill:#00000a;fill-opacity:1;stroke:#666699;stroke-width:0.4;stroke-dasharray:none;stroke-dashoffset:0;stroke-opacity:1"
       id="rect1447-8"
       width="24.287165"
       height="3.6871655"
       x="28.496418"
       y="124.256"
       inkscape:label="footer rect"
       ry="1.2" />
    <g
       aria-label="sickozell"
       id="text1308"
       style="font-size:3.175px;font-family:'C64 User';-inkscape-font-specification:'C64 User';display:inline;fill:#cccccc;fill-opacity:1;stroke-width:0.264583"
       inkscape:label="sickozell"
       transform="translate(28.045848,0.78404261)">
      <path
         d="m 4.0613409,124.52178 v 0.39688 h -1.5875 v 0.39687 h 1.190625 v 0.39688 h 0.396875 v 0.39687 h -0.396875 v 0.39688 h -1.984375 v -0.39688 h 1.5875 v -0.39687 h -1.190625 v -0.39688 h -0.396875 v -0.39687 h 0.396875 v -0.39688 z"
         style="fill:#cccccc;fill-opacity:1"
         id="path1312" />
      <path
         d="m 4.458216,126.50616 v -0.39688 h 0.3968749 v -0.79375 H 4.458216 v -0.39687 h 1.1906249 v 1.19062 h 0.396875 v 0.39688 z m 0.3968749,-1.98438 v -0.39687 h 0.79375 v 0.39687 z"
         style="fill:#cccccc;fill-opacity:1"
         id="path1314" />
      <path
         d="m 6.8394657,126.50616 v -0.39688 h -0.396875 v -1.19062 h 0.396875 v -0.39688 h 1.5875 v 0.39688 h -1.190625 v 1.19062 h 1.190625 v 0.39688 z"
         style="fill:#cccccc;fill-opacity:1"
         id="path1316" />
      <path
         d="m 8.8238411,126.50616 v -2.38125 h 0.79375 v 1.19062 h 0.3968749 v -0.39687 h 0.79375 v 0.39687 h -0.396875 v 0.39688 h 0.396875 v 0.39687 h 0.396875 v 0.39688 h -0.79375 v -0.39688 h -0.396875 v -0.39687 H 9.6175911 v 0.79375 z"
         style="fill:#cccccc;fill-opacity:1"
         id="path1318" />
      <path
         d="m 11.998841,126.50616 v -0.39688 h -0.396875 v -1.19062 h 0.396875 v -0.39688 h 1.5875 v 0.39688 h 0.396875 v 1.19062 h -0.396875 v 0.39688 z m 0.396875,-0.39688 h 0.79375 v -1.19062 h -0.79375 z"
         style="fill:#cccccc;fill-opacity:1"
         id="path1320" />
      <path
         d="m 14.380091,126.50616 v -0.39688 h 0.396875 v -0.39687 h 0.396875 v -0.39688 h 0.396875 v -0.39687 h -1.190625 v -0.39688 h 2.38125 v 0.39688 h -0.396875 v 0.39687 h -0.396875 v 0.39688 h -0.396875 v 0.39687 h 1.190625 v 0.39688 z"
         style="fill:#cccccc;fill-opacity:1"
         id="path1322" />
      <path
         d="m 18.745715,124.91866 h -0.793749 v 0.39687 h 0.793749 z m 0.396875,-0.39688 v 0.39688 h 0.396875 v 0.79375 h -1.587499 v 0.39687 h 1.190624 v 0.39688 h -1.587499 v -0.39688 h -0.396875 v -1.19062 h 0.396875 v -0.39688 z"
         style="fill:#cccccc;fill-opacity:1"
         id="path1324" />
      <path
         d="m 21.126966,124.12491 v 1.98437 h 0.396875 v 0.39688 h -1.5875 v -0.39688 h 0.396875 v -1.5875 h -0.396875 v -0.39687 z"
         style="fill:#cccccc;fill-opacity:1"
         id="path1326" />
      <path
         d="m 23.111341,124.12491 v 1.98437 h 0.396875 v 0.39688 h -1.5875 v -0.39688 h 0.396875 v -1.5875 h -0.396875 v -0.39687 z"
         style="fill:#cccccc;fill-opacity:1"
         id="path1328" />
    </g>
    <rect
       style="display:inline;fill:#00000a;fill-opacity:1;stroke:#666699;stroke-width:0.401058;stroke-dasharray:none;stroke-dashoffset:0;stroke-opacity:1"
       id="rect2138"
       width="28.843824"
       height="5.2046962"
       x="26.218086"
       y="1.2268199"
       ry="1.7996341"
       inkscape:label="header rect" />
    <text
       xml:space="preserve"
       style="font-style:normal;font-variant:normal;font-weight:normal;font-stretch:normal;font-size:3.175px;font-family:'C64 User';-inkscape-font-specification:'C64 User';text-align:center;text-anchor:middle;display:none;fill:#ffffff;stroke-width:0.264583"
       x="35.758438"
       y="4.9781251"
       id="text1341"
       inkscape:label="holder8"><tspan
         sodipodi:role="line"
         id="tspan1339"
         style="font-size:3.175px;text-align:center;text-anchor:middle;fill:#ffffff;stroke-width:0.264583"
         x="0"
         y="0">switcher8</tspan></text>
    <g
       aria-label="switcher8"
       id="text1016"
       style="font-size:3.175px;font-family:'C64 User';-inkscape-font-specification:'C64 User';text-align:center;text-anchor:middle;display:inline;fill:#ffffff;stroke-width:0.264583"
       inkscape:label="holder8"
       transform="translate(5.0799989)">
      <path
         d="m 26.035001,2.9937501 v 0.396875 h -1.5875 v 0.396875 h 1.190625 v 0.396875 h 0.396875 v 0.396875 h -0.396875 v 0.396875 h -1.984375 v -0.396875 h 1.5875 v -0.396875 h -1.190625 v -0.396875 h -0.396875 v -0.396875 h 0.396875 v -0.396875 z"
         id="path1018" />
      <path
         d="m 26.828751,4.9781251 v -0.79375 h -0.396875 v -1.190625 h 0.79375 v 0.79375 h 0.396875 v -0.396875 h 0.396875 v 0.396875 h 0.396875 v -0.79375 h 0.79375 v 1.190625 h -0.396875 v 0.79375 h -0.79375 v -0.396875 h -0.396875 v 0.396875 z"
         id="path1020" />
      <path
         d="m 29.606876,4.9781251 v -0.396875 h 0.396875 v -0.79375 h -0.396875 v -0.396875 h 1.190625 v 1.190625 h 0.396875 v 0.396875 z m 0.396875,-1.984375 v -0.396875 h 0.79375 v 0.396875 z"
         id="path1022" />
      <path
         d="m 33.178751,2.5968751 v 0.396875 h 0.79375 v 0.396875 h -0.79375 v 1.190625 h 0.79375 v 0.396875 h -1.190625 v -0.396875 h -0.396875 v -1.190625 h -0.79375 v -0.396875 h 0.79375 v -0.396875 z"
         id="path1024" />
      <path
         d="m 34.766251,4.9781251 v -0.396875 h -0.396875 v -1.190625 h 0.396875 v -0.396875 h 1.5875 v 0.396875 h -1.190625 v 1.190625 h 1.190625 v 0.396875 z"
         id="path1026" />
      <path
         d="m 36.750626,4.9781251 v -2.38125 h 0.79375 v 0.79375 h 1.190625 v 0.396875 h 0.396875 v 1.190625 h -0.79375 v -1.190625 h -0.79375 v 1.190625 z"
         id="path1028" />
      <path
         d="m 41.116251,3.3906251 h -0.79375 v 0.396875 h 0.79375 z m 0.396875,-0.396875 v 0.396875 h 0.396875 v 0.79375 h -1.5875 v 0.396875 h 1.190625 v 0.396875 h -1.5875 v -0.396875 h -0.396875 v -1.190625 h 0.396875 v -0.396875 z"
         id="path1030" />
      <path
         d="m 42.306877,4.9781251 v -1.984375 h 1.984375 v 0.396875 h 0.396875 v 0.396875 h -0.79375 v -0.396875 h -0.79375 v 1.5875 z"
         id="path1032" />
      <path
         d="M 45.481875,4.9781251 V 4.5812501 H 45.085 v -0.79375 h 0.396875 V 3.3906251 H 45.085 v -0.79375 h 0.396875 v -0.396875 h 1.5875 v 0.396875 h 0.396875 v 0.79375 h -0.396875 v 0.396875 h 0.396875 v 0.79375 h -0.396875 v 0.396875 z m 0.396875,-1.5875 h 0.79375 v -0.79375 h -0.79375 z m 0,1.190625 h 0.79375 v -0.79375 h -0.79375 z"
         id="path1034" />
    </g>
  </g>
</svg>
