<?xml version="1.0" encoding="UTF-8" standalone="no"?>
<!-- Created with Inkscape (http://www.inkscape.org/) -->

<svg
   width="20.32mm"
   height="128.5mm"
   viewBox="0 0 20.32 128.5"
   version="1.1"
   id="svg5"
   inkscape:version="1.2.1 (9c6d41e410, 2022-07-14)"
   sodipodi:docname="TogglerCompact.svg"
   xmlns:inkscape="http://www.inkscape.org/namespaces/inkscape"
   xmlns:sodipodi="http://sodipodi.sourceforge.net/DTD/sodipodi-0.dtd"
   xmlns="http://www.w3.org/2000/svg"
   xmlns:svg="http://www.w3.org/2000/svg">
  <sodipodi:namedview
     id="namedview7"
     pagecolor="#ffffff"
     bordercolor="#000000"
     borderopacity="0.25"
     inkscape:showpageshadow="2"
     inkscape:pageopacity="0.0"
     inkscape:pagecheckerboard="0"
     inkscape:deskcolor="#d1d1d1"
     inkscape:document-units="mm"
     showgrid="false"
     inkscape:zoom="4"
     inkscape:cx="24.125"
     inkscape:cy="97.25"
     inkscape:window-width="1920"
     inkscape:window-height="1017"
     inkscape:window-x="-8"
     inkscape:window-y="-8"
     inkscape:window-maximized="1"
     inkscape:current-layer="layer1"
     showguides="true" />
  <defs
     id="defs2">
    <rect
       x="22.799086"
       y="440.55881"
       width="6.0350523"
       height="22.128525"
       id="rect289" />
  </defs>
  <g
     inkscape:groupmode="layer"
     id="layer3"
     inkscape:label="Sfondo"
     style="fill:#f9f9f9">
    <rect
       style="fill:#000000;stroke-width:0.187089;image-rendering:auto"
       id="sfondo"
       width="20.32"
       height="128.5"
       x="0"
       y="6.6613381e-16"
       inkscape:label="background"
       ry="0"
       sodipodi:insensitive="true" />
  </g>
  <g
     inkscape:groupmode="layer"
     id="layer4"
     inkscape:label="Elementi"
     style="fill:#f9f9f9">
    <rect
       style="fill:#e6e6e6;display:inline;stroke:none;stroke-width:0.549005"
       id="rect2634"
       width="17.4"
       height="27.163"
       x="1.6199999"
       y="96.418999"
       ry="2"
       inkscape:label="output" />
    <rect
       style="display:inline;fill:#000014;stroke:#999999;stroke-width:0.4;stroke-dasharray:none;fill-opacity:1"
       id="rect12722"
       width="17.499374"
       height="37.143101"
       x="1.5698137"
       y="58.512325"
       ry="2"
       inkscape:label="asr" />
    <rect
       style="display:inline;fill:#000014;stroke:#999999;stroke-width:0.4;stroke-dasharray:none;fill-opacity:1"
       id="rect2037"
       width="17.493345"
       height="15.879263"
       x="1.5733267"
       y="41.751999"
       ry="2"
       inkscape:label="input" />
    <rect
       style="display:inline;fill:#000014;stroke:#999999;stroke-width:0.4;stroke-dasharray:none;fill-opacity:1"
       id="rect33317"
       width="17.398718"
       height="24.449741"
       x="1.6206399"
       y="16.399288"
       ry="2"
       inkscape:label="trg gate" />
    <rect
       style="fill:#000000;display:inline;stroke:#b3b3b3;stroke-width:0.545548;stroke-dasharray:none"
       id="rect1157"
       width="5.0544515"
       height="7.4544516"
       x="1.4727744"
       y="7.5727744"
       ry="0.23370494"
       inkscape:label="switch" />
  </g>
  <g
     inkscape:groupmode="layer"
     id="layer5"
     inkscape:label="Etichette Testo"
     style="display:none">
    <text
       xml:space="preserve"
       style="font-style:normal;font-variant:normal;font-weight:normal;font-stretch:normal;font-size:2.82222px;font-family:'C64 User';-inkscape-font-specification:'C64 User';display:inline;fill:#ffffff;stroke:none;stroke-width:0.264999;stroke-dasharray:0.264999, 0.264999;stroke-dashoffset:0;stroke-opacity:1"
       x="4.6621532"
       y="89.006416"
       id="text353"
       inkscape:label="rel"><tspan
         sodipodi:role="line"
         id="tspan351"
         style="font-size:2.82222px;stroke:none;stroke-width:0.265"
         x="4.6621532"
         y="89.006416">REL</tspan></text>
    <text
       xml:space="preserve"
       style="font-style:normal;font-variant:normal;font-weight:normal;font-stretch:normal;font-size:2.82222px;font-family:'C64 User';-inkscape-font-specification:'C64 User';display:inline;fill:#ffffff;stroke:none;stroke-width:0.264999;stroke-dasharray:0.264999, 0.264999;stroke-dashoffset:0;stroke-opacity:1"
       x="12.641664"
       y="75.869438"
       id="text454"
       inkscape:label="sus"><tspan
         sodipodi:role="line"
         id="tspan452"
         style="font-size:2.82222px;stroke:none;stroke-width:0.265"
         x="12.641664"
         y="75.869438">SUS</tspan></text>
    <text
       xml:space="preserve"
       style="font-style:normal;font-variant:normal;font-weight:normal;font-stretch:normal;font-size:2.82222px;font-family:'C64 User';-inkscape-font-specification:'C64 User';display:inline;fill:#ffffff;stroke:none;stroke-width:0.264999;stroke-dasharray:0.264999, 0.264999;stroke-dashoffset:0;stroke-opacity:1"
       x="8.8000002"
       y="62.919441"
       id="text474"
       inkscape:label="att"><tspan
         sodipodi:role="line"
         id="tspan472"
         style="font-size:2.82222px;stroke:none;stroke-width:0.265"
         x="8.8000002"
         y="62.919441">ATT</tspan></text>
    <text
       xml:space="preserve"
       style="font-style:normal;font-variant:normal;font-weight:normal;font-stretch:normal;font-size:2.82222px;font-family:'C64 User';-inkscape-font-specification:'C64 User';display:inline;fill:#000000;stroke:none;stroke-width:0.264999;stroke-dasharray:0.264999, 0.264999;stroke-dashoffset:0;stroke-opacity:1"
       x="5.3975034"
       y="114.76942"
       id="text2531"
       inkscape:label="gate out"><tspan
         sodipodi:role="line"
         id="tspan2529"
         style="font-size:2.82222px;fill:#000000;stroke:none;stroke-width:0.265"
         x="5.3975034"
         y="114.76942">GATE</tspan></text>
    <text
       xml:space="preserve"
       style="font-style:normal;font-variant:normal;font-weight:normal;font-stretch:normal;font-size:2.82222px;font-family:'C64 User';-inkscape-font-specification:'C64 User';fill:#ffffff;stroke:none;stroke-width:0.264999;stroke-dasharray:0.264999, 0.264999;stroke-dashoffset:0;stroke-opacity:1"
       x="6.6322246"
       y="99.822037"
       id="text2513"
       inkscape:label="out"><tspan
         sodipodi:role="line"
         id="tspan2511"
         style="font-size:2.82222px;fill:#000000;stroke:none;stroke-width:0.265"
         x="6.6322246"
         y="99.822037">OUT</tspan></text>
    <text
       xml:space="preserve"
       style="font-style:normal;font-variant:normal;font-weight:normal;font-stretch:normal;font-size:2.82222px;font-family:'C64 User';-inkscape-font-specification:'C64 User';display:inline;fill:#ffffff;stroke:none;stroke-width:0.264999;stroke-dasharray:0.264999, 0.264999;stroke-dashoffset:0;stroke-opacity:1"
       x="8.2197237"
       y="43.169441"
       id="text2507"
       inkscape:label="in"><tspan
         sodipodi:role="line"
         id="tspan2505"
         style="font-size:2.82222px;stroke:none;stroke-width:0.265"
         x="8.2197237"
         y="43.169441">IN</tspan></text>
    <text
       xml:space="preserve"
       style="font-style:normal;font-variant:normal;font-weight:normal;font-stretch:normal;font-size:2.82222px;font-family:'C64 User';-inkscape-font-specification:'C64 User';fill:#ffffff;stroke:none;stroke-width:0.264999;stroke-dasharray:0.264999, 0.264999;stroke-dashoffset:0;stroke-opacity:1"
       x="4.1627822"
       y="30.769442"
       id="text2453"
       inkscape:label="rst"><tspan
         sodipodi:role="line"
         id="tspan2451"
         style="font-size:2.82222px;stroke:none;stroke-width:0.265"
         x="4.1627822"
         y="30.769442">RESET</tspan></text>
    <text
       xml:space="preserve"
       style="font-style:normal;font-variant:normal;font-weight:normal;font-stretch:normal;font-size:2.7919px;font-family:'C64 User';-inkscape-font-specification:'C64 User';display:inline;fill:#ffffff;stroke:none;stroke-width:0.262153;stroke-dasharray:0.262153, 0.262153;stroke-dashoffset:0;stroke-opacity:1"
       x="1.7201458"
       y="18.963495"
       id="text778"
       inkscape:label="TRG/GATE"
       transform="scale(0.98925648,1.0108602)"><tspan
         sodipodi:role="line"
         id="tspan776"
         style="font-size:2.7919px;stroke:none;stroke-width:0.262154"
         x="1.7201458"
         y="18.963495">TRG/GTE</tspan></text>
    <text
       xml:space="preserve"
       style="font-style:normal;font-variant:normal;font-weight:normal;font-stretch:normal;font-size:2.7919px;font-family:'C64 User';-inkscape-font-specification:'C64 User';display:inline;fill:#ffffff;stroke:none;stroke-width:0.262153;stroke-dasharray:0.262153, 0.262153;stroke-dashoffset:0;stroke-opacity:1"
       x="7.3792796"
       y="14.017213"
       id="text859"
       inkscape:label="GATE"
       transform="scale(0.98925647,1.0108602)"><tspan
         sodipodi:role="line"
         id="tspan857"
         style="font-size:2.7919px;stroke:none;stroke-width:0.262154"
         x="7.3792796"
         y="14.017213">GATE</tspan></text>
    <text
       xml:space="preserve"
       style="font-style:normal;font-variant:normal;font-weight:normal;font-stretch:normal;font-size:2.7919px;font-family:'C64 User';-inkscape-font-specification:'C64 User';display:inline;fill:#ffffff;stroke:none;stroke-width:0.262153;stroke-dasharray:0.262153, 0.262153;stroke-dashoffset:0;stroke-opacity:1"
       x="7.3792796"
       y="10.578172"
       id="text865"
       inkscape:label="TOGGL"
       transform="scale(0.98925647,1.0108602)"><tspan
         sodipodi:role="line"
         id="tspan863"
         style="font-size:2.7919px;stroke:none;stroke-width:0.262154"
         x="7.3792796"
         y="10.578172">TOGGL</tspan></text>
    <text
       xml:space="preserve"
       style="font-style:normal;font-variant:normal;font-weight:normal;font-stretch:normal;font-size:2.82222px;font-family:'C64 User';-inkscape-font-specification:'C64 User';fill:#ffffff;stroke:none;stroke-width:0.264999;stroke-dasharray:0.264999, 0.264999;stroke-dashoffset:0;stroke-opacity:1"
       x="5"
       y="103.17482"
       id="text1320"
       inkscape:label="L"><tspan
         sodipodi:role="line"
         id="tspan1318"
         style="font-size:2.82222px;fill:#000000;stroke:none;stroke-width:0.265"
         x="5"
         y="103.17482">L</tspan></text>
    <text
       xml:space="preserve"
       style="font-style:normal;font-variant:normal;font-weight:normal;font-stretch:normal;font-size:2.82222px;font-family:'C64 User';-inkscape-font-specification:'C64 User';fill:#000000;stroke:none;stroke-width:0.264999;stroke-dasharray:0.264999, 0.264999;stroke-dashoffset:0;stroke-opacity:1"
       x="11.736113"
       y="103.17481"
       id="text445"
       inkscape:label="(R)"><tspan
         sodipodi:role="line"
         id="tspan443"
         style="font-size:2.82222px;fill:#000000;stroke:none;stroke-width:0.265"
         x="11.736113"
         y="103.17481">(R)</tspan></text>
    <text
       xml:space="preserve"
       style="font-style:normal;font-variant:normal;font-weight:normal;font-stretch:normal;font-size:3.88056px;font-family:'C64 User';-inkscape-font-specification:'C64 User';display:inline;fill:#ffffff;stroke:none;stroke-width:0.264999;stroke-dasharray:0.264999, 0.264999;stroke-dashoffset:0;stroke-opacity:1"
       x="11.784376"
       y="64.969963"
       id="text12423"
       inkscape:label="A att"><tspan
         sodipodi:role="line"
         id="tspan12421"
         style="font-size:3.88056px;stroke:none;stroke-width:0.265"
         x="11.784376"
         y="64.969963">A</tspan></text>
    <text
       xml:space="preserve"
       style="font-style:normal;font-variant:normal;font-weight:normal;font-stretch:normal;font-size:3.88056px;font-family:'C64 User';-inkscape-font-specification:'C64 User';display:inline;fill:#ffffff;stroke:none;stroke-width:0.264999;stroke-dasharray:0.264999, 0.264999;stroke-dashoffset:0;stroke-opacity:1"
       x="6.5722089"
       y="77.3908"
       id="text12427"
       inkscape:label="S sus"><tspan
         sodipodi:role="line"
         id="tspan12425"
         style="font-size:3.88056px;stroke:none;stroke-width:0.265"
         x="6.5722089"
         y="77.3908">S</tspan></text>
    <text
       xml:space="preserve"
       style="font-style:normal;font-variant:normal;font-weight:normal;font-stretch:normal;font-size:3.88056px;font-family:'C64 User';-inkscape-font-specification:'C64 User';display:inline;fill:#ffffff;stroke:none;stroke-width:0.264999;stroke-dasharray:0.264999, 0.264999;stroke-dashoffset:0;stroke-opacity:1"
       x="11.784376"
       y="89.469444"
       id="text12431"
       inkscape:label="R rel"><tspan
         sodipodi:role="line"
         id="tspan12429"
         style="font-size:3.88056px;stroke:none;stroke-width:0.265"
         x="11.784376"
         y="89.469444">R</tspan></text>
  </g>
  <g
     inkscape:groupmode="layer"
     id="g2106"
     inkscape:label="Etichette Path"
     style="display:inline">
    <g
       aria-label="GATE"
       id="text386"
       style="display:inline;font-size:2.82222px;font-family:'C64 User';-inkscape-font-specification:'C64 User';fill:#000000;stroke-width:0.264999;stroke-dasharray:0.264999, 0.264999"
       inkscape:label="gate out"
       transform="translate(0,40.799983)">
      <path
         d="M 5.7502809,73.969444 V 73.616667 H 5.3975034 v -1.763888 h 0.3527775 v -0.352777 h 1.41111 v 0.352777 h 0.3527775 v 0.352778 h -0.705555 v -0.352778 h -0.705555 v 1.763888 h 0.705555 V 72.911112 H 6.4558359 v -0.352778 h 1.0583325 v 1.058333 H 7.1613909 v 0.352777 z"
         style="stroke-width:0.265;fill:#000000"
         id="path494" />
      <path
         d="M 7.866946,73.969444 V 72.205557 H 8.2197235 V 71.852779 H 8.572501 v -0.352777 h 0.705555 v 0.352777 h 0.3527775 v 0.352778 H 9.983611 v 1.763887 H 9.278056 V 72.911112 H 8.572501 v 1.058332 z m 0.705555,-1.41111 H 9.278056 V 72.205557 H 8.572501 Z"
         style="stroke-width:0.265;fill:#000000"
         id="path496" />
      <path
         d="m 11.041944,73.969444 v -2.116665 h -0.705555 v -0.352777 h 2.116665 v 0.352777 h -0.705555 v 2.116665 z"
         style="stroke-width:0.265;fill:#000000"
         id="path498" />
      <path
         d="m 14.922496,71.500002 v 0.352777 h -1.41111 v 0.705555 h 0.705555 v 0.352778 h -0.705555 v 0.705555 h 1.41111 v 0.352777 h -2.116665 v -2.469442 z"
         style="stroke-width:0.265;fill:#000000"
         id="path500" />
    </g>
    <g
       aria-label="(R)"
       id="text1324"
       style="font-size:2.82222px;font-family:'C64 User';-inkscape-font-specification:'C64 User';display:inline;stroke-width:0.264999;stroke-dasharray:0.264999, 0.264999"
       inkscape:label="(R)"
       transform="translate(0,40.999984)">
      <path
         d="M 12.441668,62.174831 V 61.822054 H 12.08889 v -0.352778 h -0.352777 v -1.058332 h 0.352777 v -0.352778 h 0.352778 v -0.352777 h 0.705555 v 0.352777 h -0.352778 v 0.352778 h -0.352777 v 1.058332 h 0.352777 v 0.352778 h 0.352778 v 0.352777 z"
         style="stroke-width:0.265"
         id="path452" />
      <path
         d="m 13.5,62.174831 v -2.469442 h 1.763888 v 0.352777 h 0.352777 v 0.705555 h -0.352777 v 0.352778 H 14.91111 v 0.352777 h 0.352778 v 0.352778 h 0.352777 v 0.352777 H 14.91111 v -0.352777 h -0.352777 v -0.352778 h -0.352778 v 0.705555 z m 0.705555,-1.41111 h 0.705555 v -0.705555 h -0.705555 z"
         style="stroke-width:0.265"
         id="path454" />
      <path
         d="m 15.969443,62.174831 v -0.352777 h 0.352777 v -0.352778 h 0.352778 V 60.410944 H 16.32222 v -0.352778 h -0.352777 v -0.352777 h 0.705555 v 0.352777 h 0.352777 v 0.352778 h 0.352778 v 1.058332 h -0.352778 v 0.352778 h -0.352777 v 0.352777 z"
         style="stroke-width:0.265"
         id="path457" />
    </g>
    <g
       aria-label="L"
       id="text1328"
       style="display:inline;font-size:2.82222px;font-family:'C64 User';-inkscape-font-specification:'C64 User';fill:#ffffff;stroke-width:0.264999;stroke-dasharray:0.264999, 0.264999"
       inkscape:label="L"
       transform="translate(1.9661088,43.058151)">
      <path
         d="m 3.7394462,57.647222 v 2.116665 h 1.4111101 v 0.352778 H 3.0338912 v -2.469443 z"
         style="fill:#000000;stroke-width:0.265"
         id="path1338" />
    </g>
    <g
       aria-label="OUT"
       id="text390"
       style="display:inline;font-size:2.82222px;font-family:'C64 User';-inkscape-font-specification:'C64 User';fill:#ffffff;stroke-width:0.264999;stroke-dasharray:0.264999, 0.264999"
       inkscape:label="out"
       transform="translate(0,40.999984)">
      <path
         d="M 6.9850021,58.822052 V 58.469274 H 6.6322246 v -1.763887 h 0.3527775 v -0.352778 h 1.41111 v 0.352778 h 0.3527775 v 1.763887 H 8.3961121 v 0.352778 z m 0.3527775,-0.352778 h 0.705555 v -1.763887 h -0.705555 z"
         style="fill:#000000;stroke-width:0.265"
         id="path487" />
      <path
         d="M 9.4544447,58.822052 V 58.469274 H 9.1016672 v -2.116665 h 0.705555 v 2.116665 h 0.7055548 v -2.116665 h 0.705555 v 2.116665 h -0.352777 v 0.352778 z"
         style="fill:#000000;stroke-width:0.265"
         id="path489" />
      <path
         d="M 12.276665,58.822052 V 56.705387 H 11.57111 v -0.352778 h 2.116665 v 0.352778 H 12.98222 v 2.116665 z"
         style="fill:#000000;stroke-width:0.265"
         id="path491" />
    </g>
    <g
       aria-label="R"
       id="text26566"
       style="font-size:3.88056px;font-family:'C64 User';-inkscape-font-specification:'C64 User';display:inline;fill:#ffffff;stroke-width:0.264999;stroke-dasharray:0.264999, 0.264999"
       inkscape:label="R rel"
       transform="translate(-0.48437599,0.41202696)">
      <path
         d="m 11.784376,89.469444 v -3.39549 h 2.42535 v 0.48507 h 0.48507 v 0.97014 h -0.48507 v 0.48507 h -0.48507 v 0.48507 h 0.48507 v 0.48507 h 0.48507 v 0.48507 h -0.97014 v -0.48507 h -0.48507 v -0.48507 h -0.48507 v 0.97014 z m 0.97014,-1.94028 h 0.97014 v -0.97014 h -0.97014 z"
         style="stroke-width:0.265"
         id="path26582" />
    </g>
    <g
       aria-label="S"
       id="text26562"
       style="display:inline;font-size:3.88056px;font-family:'C64 User';-inkscape-font-specification:'C64 User';fill:#ffffff;stroke-width:0.264999;stroke-dasharray:0.264999, 0.264999"
       inkscape:label="S sus"
       transform="translate(0,1.4703603)">
      <path
         d="m 7.0572789,77.3908 v -0.48507 h -0.48507 v -0.48507 h 0.97014 v 0.48507 H 8.5124888 V 75.935591 H 7.0572789 v -0.48507 h -0.48507 v -0.97014 h 0.48507 v -0.48507 h 1.9402799 v 0.48507 h 0.48507 v 0.48507 h -0.97014 v -0.48507 H 7.5423489 v 0.97014 h 1.4552099 v 0.48507 h 0.48507 v 0.970139 h -0.48507 v 0.48507 z"
         style="stroke-width:0.265"
         id="path26579" />
    </g>
    <g
       aria-label="A"
       id="text26558"
       style="display:inline;font-size:3.88056px;font-family:'C64 User';-inkscape-font-specification:'C64 User';fill:#ffffff;stroke-width:0.264999;stroke-dasharray:0.264999, 0.264999"
       inkscape:label="A att"
       transform="translate(-0.48437599,1.999527)">
      <path
         d="m 11.784376,64.969963 v -2.42535 h 0.48507 v -0.48507 h 0.48507 v -0.48507 h 0.97014 v 0.48507 h 0.48507 v 0.48507 h 0.48507 v 2.42535 h -0.97014 v -1.45521 h -0.97014 v 1.45521 z m 0.97014,-1.94028 h 0.97014 v -0.48507 h -0.97014 z"
         style="stroke-width:0.265"
         id="path26576" />
    </g>
    <g
       aria-label="(R)"
       id="g467"
       style="display:inline;font-size:2.82222px;font-family:'C64 User';-inkscape-font-specification:'C64 User';fill:#ffffff;stroke-width:0.264999;stroke-dasharray:0.264999, 0.264999"
       inkscape:label="(R)"
       transform="translate(-0.136113,-13.904891)">
      <path
         d="M 12.441668,62.174831 V 61.822054 H 12.08889 v -0.352778 h -0.352777 v -1.058332 h 0.352777 v -0.352778 h 0.352778 v -0.352777 h 0.705555 v 0.352777 h -0.352778 v 0.352778 h -0.352777 v 1.058332 h 0.352777 v 0.352778 h 0.352778 v 0.352777 z"
         style="fill:#ffffff;stroke-width:0.265"
         id="path461" />
      <path
         d="m 13.5,62.174831 v -2.469442 h 1.763888 v 0.352777 h 0.352777 v 0.705555 h -0.352777 v 0.352778 H 14.91111 v 0.352777 h 0.352778 v 0.352778 h 0.352777 v 0.352777 H 14.91111 v -0.352777 h -0.352777 v -0.352778 h -0.352778 v 0.705555 z m 0.705555,-1.41111 h 0.705555 v -0.705555 h -0.705555 z"
         style="fill:#ffffff;stroke-width:0.265"
         id="path463" />
      <path
         d="m 15.969443,62.174831 v -0.352777 h 0.352777 v -0.352778 h 0.352778 V 60.410944 H 16.32222 v -0.352778 h -0.352777 v -0.352777 h 0.705555 v 0.352777 h 0.352777 v 0.352778 h 0.352778 v 1.058332 h -0.352778 v 0.352778 h -0.352777 v 0.352777 z"
         style="fill:#ffffff;stroke-width:0.265"
         id="path465" />
    </g>
    <g
       aria-label="L"
       id="g2088"
       style="font-size:2.82222px;font-family:'C64 User';-inkscape-font-specification:'C64 User';display:inline;fill:#ffffff;stroke-width:0.264999;stroke-dasharray:0.264999, 0.264999"
       inkscape:label="L"
       transform="translate(2.0661088,-11.846724)">
      <path
         d="m 3.7394462,57.647222 v 2.116665 h 1.4111101 v 0.352778 H 3.0338912 v -2.469443 z"
         style="fill:#ffffff;stroke-width:0.265"
         id="path2086" />
    </g>
    <g
       aria-label="IN"
       id="text394"
       style="font-size:2.82222px;font-family:'C64 User';-inkscape-font-specification:'C64 User';display:inline;fill:#ffffff;stroke-width:0.264999;stroke-dasharray:0.264999, 0.264999"
       inkscape:label="in"
       transform="translate(0,1.8768881)">
      <path
         d="m 9.6308337,40.82361 v 0.352778 H 9.2780562 v 1.763887 h 0.3527775 v 0.352778 h -1.41111 V 42.940275 H 8.5725012 V 41.176388 H 8.2197237 V 40.82361 Z"
         style="stroke-width:0.265"
         id="path482" />
      <path
         d="M 9.9836112,43.293053 V 40.82361 h 0.7055548 v 0.352778 h 0.352778 v 0.352777 h 0.352777 V 40.82361 h 0.705555 v 2.469443 H 11.394721 V 42.587498 H 11.041944 V 42.23472 h -0.352778 v 1.058333 z"
         style="stroke-width:0.265"
         id="path484" />
    </g>
    <g
       aria-label="RESET"
       id="text398"
       style="font-size:2.82222px;font-family:'C64 User';-inkscape-font-specification:'C64 User';display:inline;fill:#ffffff;stroke-width:0.264999;stroke-dasharray:0.264999, 0.264999"
       inkscape:label="rst"
       transform="translate(0,-0.0236127)">
      <path
         d="m 4.1627822,31.793055 v -2.469443 h 1.7638875 v 0.352778 h 0.3527776 v 0.705555 H 5.9266697 v 0.352777 H 5.5738922 V 31.0875 h 0.3527775 v 0.352777 h 0.3527776 v 0.352778 H 5.5738922 V 31.440277 H 5.2211147 V 31.0875 H 4.8683372 v 0.705555 z m 0.705555,-1.41111 h 0.705555 V 29.67639 h -0.705555 z"
         style="stroke-width:0.265"
         id="path471" />
      <path
         d="M 8.7488899,29.323612 V 29.67639 H 7.3377798 v 0.705555 h 0.705555 v 0.352777 h -0.705555 v 0.705555 h 1.4111101 v 0.352778 H 6.6322248 v -2.469443 z"
         style="stroke-width:0.265"
         id="path473" />
      <path
         d="M 9.4544449,31.793055 V 31.440277 H 9.1016674 V 31.0875 h 0.705555 v 0.352777 H 10.512777 V 30.734722 H 9.4544449 V 30.381945 H 9.1016674 V 29.67639 h 0.3527775 v -0.352778 h 1.4111101 v 0.352778 h 0.352777 v 0.352777 H 10.512777 V 29.67639 H 9.8072224 v 0.705555 h 1.0583326 v 0.352777 h 0.352777 v 0.705555 h -0.352777 v 0.352778 z"
         style="stroke-width:0.265"
         id="path475" />
      <path
         d="m 13.687775,29.323612 v 0.352778 h -1.41111 v 0.705555 h 0.705555 v 0.352777 h -0.705555 v 0.705555 h 1.41111 v 0.352778 H 11.57111 v -2.469443 z"
         style="stroke-width:0.265"
         id="path477" />
      <path
         d="M 14.746108,31.793055 V 29.67639 h -0.705555 v -0.352778 h 2.116665 v 0.352778 h -0.705555 v 2.116665 z"
         style="stroke-width:0.265"
         id="path479" />
    </g>
    <g
       aria-label="TRG/GTE"
       transform="matrix(0.91963085,0,0,1.0108602,0.71507872,0.19999934)"
       id="text402"
       style="font-size:2.7919px;font-family:'C64 User';-inkscape-font-specification:'C64 User';display:inline;fill:#ffffff;stroke-width:0.262153;stroke-dasharray:0.262153, 0.262153"
       inkscape:label="TRG/GATE">
      <path
         d="m 2.4181209,19.754902 v -2.093925 h -0.697975 v -0.348988 h 2.093925 v 0.348988 h -0.697975 v 2.093925 z"
         style="stroke-width:0.262154"
         id="path456" />
      <path
         d="m 4.1630583,19.754902 v -2.442913 h 1.7449374 v 0.348988 h 0.3489875 v 0.697975 H 5.9079957 v 0.348987 H 5.5590082 v 0.348988 h 0.3489875 v 0.348987 h 0.3489875 v 0.348988 H 5.5590082 V 19.405914 H 5.2100208 V 19.056927 H 4.8610333 v 0.697975 z m 0.697975,-1.39595 H 5.5590082 V 17.660977 H 4.8610333 Z"
         style="stroke-width:0.262154"
         id="path458" />
      <path
         d="M 6.9549581,19.754902 V 19.405914 H 6.6059706 v -1.744937 h 0.3489875 v -0.348988 h 1.39595 v 0.348988 h 0.3489875 v 0.348987 h -0.697975 v -0.348987 h -0.697975 v 1.744937 h 0.697975 V 18.707939 H 7.6529331 v -0.348987 h 1.0469625 v 1.046962 H 8.3509081 v 0.348988 z"
         style="stroke-width:0.262154"
         id="path460" />
      <path
         d="m 9.0488832,19.754902 v -0.348988 h 0.3489875 v -0.348987 h 0.3489875 v -0.348988 h 0.3489878 v -0.348987 h 0.348987 v -0.348988 h 0.348988 v -0.348987 h 0.697975 v 0.348987 h -0.348988 v 0.348988 h -0.348987 v 0.348987 h -0.348988 v 0.348988 h -0.348987 v 0.348987 H 9.7468582 v 0.348988 z"
         style="stroke-width:0.262154"
         id="path462" />
      <path
         d="m 12.18977,19.754902 v -0.348988 h -0.348987 v -1.744937 h 0.348987 v -0.348988 h 1.39595 v 0.348988 h 0.348988 v 0.348987 h -0.697975 v -0.348987 h -0.697975 v 1.744937 h 0.697975 v -0.697975 h -0.348988 v -0.348987 h 1.046963 v 1.046962 H 13.58572 v 0.348988 z"
         style="stroke-width:0.262154"
         id="path464" />
      <path
         d="m 14.98167,19.754902 v -2.093925 h -0.697975 v -0.348988 h 2.093925 v 0.348988 h -0.697975 v 2.093925 z"
         style="stroke-width:0.262154"
         id="path466" />
      <path
         d="m 18.820533,17.311989 v 0.348988 h -1.39595 v 0.697975 h 0.697975 v 0.348987 h -0.697975 v 0.697975 h 1.39595 v 0.348988 h -2.093925 v -2.442913 z"
         style="stroke-width:0.262154"
         id="path468" />
    </g>
    <g
       aria-label="GATE"
       transform="matrix(0.98925647,0,0,1.0108602,0.09999999,-0.80000076)"
       id="text406"
       style="font-size:2.7919px;font-family:'C64 User';-inkscape-font-specification:'C64 User';display:inline;fill:#ffffff;stroke-width:0.262153;stroke-dasharray:0.262153, 0.262153"
       inkscape:label="GATE">
      <path
         d="M 7.627181,14.808619 V 14.459631 H 7.2781935 V 12.714694 H 7.627181 v -0.348988 h 1.3959499 v 0.348988 h 0.3489875 v 0.348987 H 8.6741434 V 12.714694 H 7.9761685 v 1.744937 H 8.6741434 V 13.761656 H 8.3251559 v -0.348987 h 1.0469625 v 1.046962 H 9.0231309 v 0.348988 z"
         style="stroke-width:0.262154"
         id="path447" />
      <path
         d="m 9.7211058,14.808619 v -1.744938 h 0.3489872 v -0.348987 h 0.348988 v -0.348988 h 0.697975 v 0.348988 h 0.348987 v 0.348987 h 0.348988 v 1.744938 h -0.697975 v -1.046963 h -0.697975 v 1.046963 z m 0.6979752,-1.39595 h 0.697975 v -0.348988 h -0.697975 z"
         style="stroke-width:0.262154"
         id="path449" />
      <path
         d="m 12.861993,14.808619 v -2.093925 h -0.697975 v -0.348988 h 2.093925 v 0.348988 h -0.697975 v 2.093925 z"
         style="stroke-width:0.262154"
         id="path451" />
      <path
         d="m 16.700856,12.365706 v 0.348988 h -1.39595 v 0.697975 h 0.697975 v 0.348987 h -0.697975 v 0.697975 h 1.39595 v 0.348988 h -2.093925 v -2.442913 z"
         style="stroke-width:0.262154"
         id="path453" />
    </g>
    <g
       aria-label="TOGGL"
       transform="matrix(0.98925647,0,0,1.0108602,0.09999999,-0.80000076)"
       id="text410"
       style="font-size:2.7919px;font-family:'C64 User';-inkscape-font-specification:'C64 User';display:inline;fill:#ffffff;stroke-width:0.262153;stroke-dasharray:0.262153, 0.262153"
       inkscape:label="TOGGL">
      <path
         d="M 7.9761685,11.369578 V 9.2756534 H 7.2781935 V 8.9266659 h 2.0939249 v 0.3489875 h -0.697975 v 2.0939246 z"
         style="stroke-width:0.262154"
         id="path436" />
      <path
         d="M 10.070093,11.369578 V 11.020591 H 9.7211058 V 9.2756534 H 10.070093 V 8.9266659 h 1.39595 v 0.3489875 h 0.348988 v 1.7449376 h -0.348988 v 0.348987 z m 0.348988,-0.348987 h 0.697975 V 9.2756534 h -0.697975 z"
         style="stroke-width:0.262154"
         id="path438" />
      <path
         d="M 12.513006,11.369578 V 11.020591 H 12.164018 V 9.2756534 h 0.348988 V 8.9266659 h 1.39595 v 0.3489875 h 0.348987 V 9.6246409 H 13.559968 V 9.2756534 h -0.697975 v 1.7449376 h 0.697975 V 10.322616 H 13.210981 V 9.9736284 h 1.046962 v 1.0469626 h -0.348987 v 0.348987 z"
         style="stroke-width:0.262154"
         id="path440" />
      <path
         d="M 14.955918,11.369578 V 11.020591 H 14.606931 V 9.2756534 h 0.348987 V 8.9266659 h 1.39595 v 0.3489875 h 0.348988 V 9.6246409 H 16.002881 V 9.2756534 h -0.697975 v 1.7449376 h 0.697975 V 10.322616 H 15.653893 V 9.9736284 h 1.046963 v 1.0469626 h -0.348988 v 0.348987 z"
         style="stroke-width:0.262154"
         id="path442" />
      <path
         d="m 17.747818,8.9266659 v 2.0939251 h 1.39595 v 0.348987 H 17.049843 V 8.9266659 Z"
         style="stroke-width:0.262154"
         id="path444" />
    </g>
  </g>
  <g
     inkscape:label="header footer"
     inkscape:groupmode="layer"
     id="layer1"
     style="display:inline">
    <text
       xml:space="preserve"
       style="font-style:normal;font-variant:normal;font-weight:normal;font-stretch:normal;font-size:3.175px;font-family:'C64 User';-inkscape-font-specification:'C64 User';display:none;fill:#0000ff;stroke-width:0.264583"
       x="1.7468749"
       y="127.33188"
       id="text183"
       inkscape:label="sickozell"><tspan
         sodipodi:role="line"
         id="tspan181"
         style="font-size:3.175px;fill:#f9f9f9;stroke-width:0.264583"
         x="1.7468749"
         y="127.33188">skzll</tspan></text>
    <rect
       style="display:inline;fill:#000014;stroke:#b3b3b3;stroke-width:0.4;stroke-dasharray:none;stroke-dashoffset:0;stroke-opacity:1;fill-opacity:1"
       id="rect2138"
       width="14.393212"
       height="5.2706776"
       x="5.3592582"
       y="1.1938297"
       ry="1.8"
       inkscape:label="header rect" />
    <text
       xml:space="preserve"
       style="font-style:normal;font-variant:normal;font-weight:normal;font-stretch:normal;font-size:3.175px;font-family:'C64 User';-inkscape-font-specification:'C64 User';display:none;fill:#ffffff;stroke-width:0.264583"
       x="6.205864"
       y="4.8914113"
       id="text1341"
       inkscape:label="toggler"><tspan
         sodipodi:role="line"
         id="tspan1339"
         style="font-size:3.175px;fill:#ffffff;stroke-width:0.264583"
         x="6.205864"
         y="4.8914113">tgglr</tspan></text>
    <rect
       style="display:inline;fill:#000014;stroke:#b3b3b3;stroke-width:0.4;stroke-dasharray:none;stroke-dashoffset:0;stroke-opacity:1;fill-opacity:1"
       id="rect1447-8"
       width="14.525927"
       height="3.7530918"
       x="0.43703687"
       y="124.26472"
       inkscape:label="footer rect"
       ry="1.2" />
    <g
       aria-label="skzll"
       id="text506"
       style="display:inline;font-size:3.175px;font-family:'C64 User';-inkscape-font-specification:'C64 User';fill:#e6e6e6;stroke-width:0.264583"
       inkscape:label="sickozell">
      <path
         d="m 4.1281249,125.3475 v 0.39688 h -1.5875 v 0.39687 h 1.190625 v 0.39688 h 0.396875 v 0.39687 h -0.396875 v 0.39688 H 1.7468749 V 126.935 h 1.5875 v -0.39687 h -1.190625 v -0.39688 h -0.396875 v -0.39687 h 0.396875 v -0.39688 z"
         style="fill:#e6e6e6"
         id="path508" />
      <path
         d="m 4.525,127.33188 v -2.38125 h 0.79375 v 1.19062 h 0.396875 v -0.39687 h 0.7937499 v 0.39687 H 6.1125 v 0.39688 h 0.3968749 v 0.39687 h 0.396875 v 0.39688 H 6.1125 V 126.935 H 5.715625 v -0.39687 H 5.31875 v 0.79375 z"
         style="fill:#e6e6e6"
         id="path510" />
      <path
         d="M 7.303125,127.33188 V 126.935 H 7.7 v -0.39687 h 0.396875 v -0.39688 H 8.49375 v -0.39687 H 7.303125 v -0.39688 h 2.38125 v 0.39688 H 9.2875 v 0.39687 H 8.890625 v 0.39688 H 8.49375 v 0.39687 h 1.190625 v 0.39688 z"
         style="fill:#e6e6e6"
         id="path512" />
      <path
         d="m 11.271875,124.95063 v 1.98437 h 0.396875 v 0.39688 h -1.5875 V 126.935 h 0.396875 v -1.5875 H 10.08125 v -0.39687 z"
         style="fill:#e6e6e6"
         id="path514" />
      <path
         d="m 13.25625,124.95063 v 1.98437 h 0.396875 v 0.39688 h -1.5875 V 126.935 H 12.4625 v -1.5875 h -0.396875 v -0.39687 z"
         style="fill:#e6e6e6"
         id="path516" />
    </g>
    <g
       aria-label="tgglr"
       id="text328"
       style="font-size:3.175px;font-family:'C64 User';-inkscape-font-specification:'C64 User';display:inline;fill:#e6e6e6;stroke-width:0.264583"
       inkscape:label="toggler">
      <path
         d="m 7.7933639,2.5101613 v 0.396875 h 0.79375 v 0.396875 h -0.79375 v 1.190625 h 0.79375 v 0.396875 H 7.3964889 V 4.4945363 H 6.9996139 V 3.3039113 H 6.205864 v -0.396875 h 0.7937499 v -0.396875 z"
         id="path330"
         style="fill:#e6e6e6" />
      <path
         d="m 8.983989,5.2882863 v -0.396875 h 1.5875 V 4.4945363 H 9.380864 V 4.0976613 H 8.983989 v -0.79375 h 0.396875 v -0.396875 h 1.984375 v 1.984375 h -0.396875 v 0.396875 z m 0.79375,-1.190625 h 0.79375 v -0.79375 h -0.79375 z"
         id="path332"
         style="fill:#e6e6e6" />
      <path
         d="m 11.762114,5.2882863 v -0.396875 h 1.5875 v -0.396875 h -1.190625 v -0.396875 h -0.396875 v -0.79375 h 0.396875 v -0.396875 h 1.984375 v 1.984375 h -0.396875 v 0.396875 z m 0.79375,-1.190625 h 0.79375 v -0.79375 h -0.79375 z"
         id="path334"
         style="fill:#e6e6e6" />
      <path
         d="m 15.730864,2.5101613 v 1.984375 h 0.396875 v 0.396875 h -1.5875 v -0.396875 h 0.396875 v -1.5875 h -0.396875 v -0.396875 z"
         id="path336"
         style="fill:#e6e6e6" />
      <path
         d="m 16.524614,4.8914113 v -1.984375 h 1.984375 v 0.396875 h 0.396875 v 0.396875 h -0.79375 v -0.396875 h -0.79375 v 1.5875 z"
         id="path338"
         style="fill:#e6e6e6" />
    </g>
  </g>
  <g
     inkscape:groupmode="layer"
     id="layer2"
     inkscape:label="components"
     style="display:inline"
     sodipodi:insensitive="true" />
</svg>
