<?xml version="1.0" encoding="UTF-8" standalone="no"?>
<!-- Generator: Adobe Illustrator 25.2.3, SVG Export Plug-In . SVG Version: 6.00 Build 0)  -->

<svg
   version="1.0"
   id="svg56722"
   sodipodi:docname="CKSS_H_0.svg"
   x="0px"
   y="0px"
   width="20.641001"
   height="14"
   viewBox="0 0 20.641001 14"
   enable-background="new 0 0 14 20.64111"
   xml:space="preserve"
   inkscape:version="1.2.1 (9c6d41e410, 2022-07-14)"
   xmlns:inkscape="http://www.inkscape.org/namespaces/inkscape"
   xmlns:sodipodi="http://sodipodi.sourceforge.net/DTD/sodipodi-0.dtd"
   xmlns="http://www.w3.org/2000/svg"
   xmlns:svg="http://www.w3.org/2000/svg"><defs
   id="defs20199" />
<sodipodi:namedview
   bordercolor="#666666"
   borderopacity="1.0"
   fit-margin-bottom="0"
   fit-margin-left="0"
   fit-margin-right="0"
   fit-margin-top="0"
   id="base"
   inkscape:current-layer="svg56722"
   inkscape:cx="-74.285714"
   inkscape:cy="-2.6785714"
   inkscape:document-units="mm"
   inkscape:pageopacity="0.0"
   inkscape:pageshadow="2"
   inkscape:window-height="1041"
   inkscape:window-maximized="0"
   inkscape:window-width="1920"
   inkscape:window-x="0"
   inkscape:window-y="0"
   inkscape:zoom="5.6"
   pagecolor="#ffffff"
   showgrid="false"
   units="px"
   inkscape:showpageshadow="2"
   inkscape:pagecheckerboard="0"
   inkscape:deskcolor="#d1d1d1">
	</sodipodi:namedview>
<path
   id="path5785"
   inkscape:connector-curvature="0"
   d="m 19.16595,0 c 0.81043,0 1.47508,0.66471 1.47508,1.47514 v 11.04979 c 0,0.81036 -0.66477,1.47514 -1.47508,1.47514 H 1.47406 C 0.66363,14.00007 0,13.33536 0,12.52493 V 1.47514 C 1e-5,0.66477 0.66364,0 1.47407,0 Z" />
<g
   id="g5795"
   opacity="0.54"
   transform="rotate(90,10.320515,10.320515)">
	<g
   id="g5797">
		<linearGradient
   id="path5805_1_"
   gradientUnits="userSpaceOnUse"
   x1="6.9992099"
   y1="1.33285"
   x2="6.9992099"
   y2="19.459539">
			<stop
   offset="0"
   style="stop-color:#3B3B3B"
   id="stop20173" />
			<stop
   offset="1"
   style="stop-color:#242424"
   id="stop20175" />
		</linearGradient>
		<path
   id="path5805"
   inkscape:connector-curvature="0"
   fill="url(#path5805_1_)"
   d="m 2.19312,1.33285 c -0.48687,0 -0.88421,0.39734 -0.88421,0.88421 v 0 16.35726 c 0,0.48687 0.3974,0.88522 0.88421,0.88522 v 0 h 9.6132 c 0.48477,0 0.88319,-0.39849 0.88319,-0.88522 v 0 -16.35726 c 0,-0.48687 -0.39842,-0.88421 -0.88319,-0.88421 v 0 z"
   style="fill:url(#path5805_1_)" />
	</g>
</g>
<rect
   x="1.3099302"
   y="-2.0567806"
   fill="none"
   width="0.68290001"
   height="0.89523"
   id="rect20181"
   transform="rotate(90)" />
<rect
   x="0.99908006"
   y="-19.82642"
   opacity="0.3"
   width="12.00026"
   height="1.71664"
   id="rect20183"
   transform="rotate(90)" />
<g
   id="g20196"
   transform="rotate(90,10.320515,10.320515)">
	<linearGradient
   id="path5815_2_"
   gradientUnits="userSpaceOnUse"
   x1="6.9992099"
   y1="10.61302"
   x2="6.9992099"
   y2="19.459539">
		<stop
   offset="0.00559"
   style="stop-color:#3D3B3B"
   id="stop20185" />
		<stop
   offset="1"
   style="stop-color:#2D2C2C"
   id="stop20187" />
	</linearGradient>
	<path
   id="path5815_1_"
   inkscape:connector-curvature="0"
   fill="url(#path5815_2_)"
   d="M 1.30891,10.61302 H 12.6895 v 8.84652 H 1.30891 Z"
   style="fill:url(#path5815_2_)" />
	<path
   id="path5817_1_"
   inkscape:connector-curvature="0"
   fill="#5e5e5e"
   d="M 1.30891,14.15995 H 12.6895 v 0.87738 H 1.30891 Z" />
	<path
   id="path5819_1_"
   inkscape:connector-curvature="0"
   fill="#5e5e5e"
   d="M 1.30891,17.70687 H 12.6895 v 0.87738 H 1.30891 Z" />
	<path
   id="path5821_1_"
   inkscape:connector-curvature="0"
   fill="#5e5e5e"
   d="M 1.30891,15.93427 H 12.6895 v 0.87738 H 1.30891 Z" />
	<path
   id="path5823_1_"
   inkscape:connector-curvature="0"
   fill="#5e5e5e"
   d="M 1.30891,12.38654 H 12.6895 v 0.87738 H 1.30891 Z" />
	<path
   id="path5825_1_"
   inkscape:connector-curvature="0"
   fill="#797979"
   d="M 1.30891,10.61302 H 12.6895 V 11.4904 H 1.30891 Z" />
</g>
</svg>
