<?xml version="1.0" encoding="UTF-8" standalone="no"?>
<!-- Generator: Adobe Illustrator 25.2.3, SVG Export Plug-In . SVG Version: 6.00 Build 0)  -->

<svg
   version="1.0"
   id="svg56722"
   sodipodi:docname="CKSSFour_H_1.svg"
   x="0px"
   y="0px"
   width="35.905514"
   height="14.00007"
   viewBox="0 0 35.905514 14.00007"
   enable-background="new 0 0 14 20.64111"
   xml:space="preserve"
   inkscape:version="1.2.1 (9c6d41e410, 2022-07-14)"
   xmlns:inkscape="http://www.inkscape.org/namespaces/inkscape"
   xmlns:sodipodi="http://sodipodi.sourceforge.net/DTD/sodipodi-0.dtd"
   xmlns:xlink="http://www.w3.org/1999/xlink"
   xmlns="http://www.w3.org/2000/svg"
   xmlns:svg="http://www.w3.org/2000/svg"><defs
   id="defs20199"><linearGradient
     inkscape:collect="always"
     xlink:href="#path5815_2_"
     id="linearGradient879"
     gradientUnits="userSpaceOnUse"
     x1="6.9992099"
     y1="10.61302"
     x2="6.9992099"
     y2="19.459539" /><linearGradient
     inkscape:collect="always"
     xlink:href="#path5815_2_"
     id="linearGradient901"
     gradientUnits="userSpaceOnUse"
     x1="6.9992099"
     y1="10.61302"
     x2="6.9992099"
     y2="19.459539" /><linearGradient
     inkscape:collect="always"
     xlink:href="#path5815_2_"
     id="linearGradient923"
     gradientUnits="userSpaceOnUse"
     x1="6.9992099"
     y1="10.61302"
     x2="6.9992099"
     y2="19.459539" /><linearGradient
     inkscape:collect="always"
     xlink:href="#path5815_2_"
     id="linearGradient1436"
     gradientUnits="userSpaceOnUse"
     x1="6.9992099"
     y1="10.61302"
     x2="6.9992099"
     y2="19.459539" /></defs>
<sodipodi:namedview
   bordercolor="#666666"
   borderopacity="1.0"
   fit-margin-bottom="0"
   fit-margin-left="0"
   fit-margin-right="0"
   fit-margin-top="0"
   id="base"
   inkscape:current-layer="svg56722"
   inkscape:cx="-11.785714"
   inkscape:cy="4.1071429"
   inkscape:document-units="mm"
   inkscape:pageopacity="0.0"
   inkscape:pageshadow="2"
   inkscape:window-height="729"
   inkscape:window-maximized="0"
   inkscape:window-width="1350"
   inkscape:window-x="0"
   inkscape:window-y="0"
   inkscape:zoom="5.6"
   pagecolor="#ffffff"
   showgrid="false"
   units="px"
   inkscape:showpageshadow="2"
   inkscape:pagecheckerboard="0"
   inkscape:deskcolor="#d1d1d1">
	</sodipodi:namedview>
<path
   id="path5785"
   inkscape:connector-curvature="0"
   d="m 34.585781,0 c 0.848683,0 1.319732,0.66471 1.319732,1.47514 v 11.04979 c 0,0.81036 -0.450201,1.47514 -1.319732,1.47514 H 1.3011092 C 0.50818711,14.00007 0,13.33536 0,12.52493 V 1.47514 C 1.7395213e-5,0.66477 0.56695101,0 1.3011266,0 Z"
   style="stroke-width:0.966137;stroke-dasharray:none"
   sodipodi:nodetypes="sssssscss" />
<g
   id="g5795"
   opacity="0.54"
   transform="matrix(0,1,-1.8609071,0,37.31177,0)">
	<g
   id="g5797">
		<linearGradient
   id="path5805_1_"
   gradientUnits="userSpaceOnUse"
   x1="6.9992099"
   y1="1.33285"
   x2="6.9992099"
   y2="19.459539">
			<stop
   offset="0"
   style="stop-color:#3B3B3B"
   id="stop20173" />
			<stop
   offset="1"
   style="stop-color:#242424"
   id="stop20175" />
		</linearGradient>
		<path
   id="path5805"
   inkscape:connector-curvature="0"
   fill="url(#path5805_1_)"
   d="m 2.19312,1.33285 c -0.48687,0 -0.88421,0.3159727 -0.88421,0.3159727 v 0 17.4054303 c 0,0.230162 0.3974,0.405287 0.88421,0.405287 v 0 h 9.6132 c 0.48477,0 0.88319,-0.349481 0.88319,-0.349481 v 0.01116 -17.3934754 c 0,-0.2974576 -0.39842,-0.3948946 -0.88319,-0.3948946 v 0 z"
   style="fill:url(#path5805_1_)"
   sodipodi:nodetypes="sscsscsscsscs" />
	</g>
</g>
<rect
   x="1.3099302"
   y="-1.913828"
   fill="none"
   width="0.68290001"
   height="0.83300877"
   id="rect20181"
   transform="rotate(90)"
   style="stroke-width:0.964623" />
<rect
   x="0.99908006"
   y="-34.898277"
   opacity="0.3"
   width="12.00026"
   height="1.5973283"
   id="rect20183"
   transform="rotate(90)"
   style="stroke-width:0.964623" />
<g
   id="g20196"
   transform="matrix(0,1,-0.93049694,0,19.206416,0)"
   style="display:none">
	<linearGradient
   id="path5815_2_"
   gradientUnits="userSpaceOnUse"
   x1="6.9992099"
   y1="10.61302"
   x2="6.9992099"
   y2="19.459539">
		<stop
   offset="0.00559"
   style="stop-color:#3D3B3B"
   id="stop20185" />
		<stop
   offset="1"
   style="stop-color:#2D2C2C"
   id="stop20187" />
	</linearGradient>
	<path
   id="path5815_1_"
   inkscape:connector-curvature="0"
   fill="url(#path5815_2_)"
   d="M 1.30891,10.61302 H 12.6895 v 8.84652 H 1.30891 Z"
   style="fill:url(#linearGradient1436)" />
	<path
   id="path5817_1_"
   inkscape:connector-curvature="0"
   fill="#5e5e5e"
   d="M 1.30891,14.15995 H 12.6895 v 0.87738 H 1.30891 Z" />
	<path
   id="path5819_1_"
   inkscape:connector-curvature="0"
   fill="#5e5e5e"
   d="M 1.30891,17.70687 H 12.6895 v 0.87738 H 1.30891 Z" />
	<path
   id="path5821_1_"
   inkscape:connector-curvature="0"
   fill="#5e5e5e"
   d="M 1.30891,15.93427 H 12.6895 v 0.87738 H 1.30891 Z" />
	<path
   id="path5823_1_"
   inkscape:connector-curvature="0"
   fill="#5e5e5e"
   d="M 1.30891,12.38654 H 12.6895 v 0.87738 H 1.30891 Z" />
	<path
   id="path5825_1_"
   inkscape:connector-curvature="0"
   fill="#797979"
   d="M 1.30891,10.61302 H 12.6895 V 11.4904 H 1.30891 Z" />
</g>
<g
   id="g877"
   transform="matrix(0,1,-0.93049694,0,27.763663,0)"
   style="display:inline">
	<linearGradient
   id="linearGradient863"
   gradientUnits="userSpaceOnUse"
   x1="6.9992099"
   y1="10.61302"
   x2="6.9992099"
   y2="19.459539">
		<stop
   offset="0.00559"
   style="stop-color:#3D3B3B"
   id="stop859" />
		<stop
   offset="1"
   style="stop-color:#2D2C2C"
   id="stop861" />
	</linearGradient>
	<path
   id="path865"
   inkscape:connector-curvature="0"
   fill="url(#path5815_2_)"
   d="M 1.30891,10.61302 H 12.6895 v 8.84652 H 1.30891 Z"
   style="fill:url(#linearGradient879)" />
	<path
   id="path867"
   inkscape:connector-curvature="0"
   fill="#5e5e5e"
   d="M 1.30891,14.15995 H 12.6895 v 0.87738 H 1.30891 Z" />
	<path
   id="path869"
   inkscape:connector-curvature="0"
   fill="#5e5e5e"
   d="M 1.30891,17.70687 H 12.6895 v 0.87738 H 1.30891 Z" />
	<path
   id="path871"
   inkscape:connector-curvature="0"
   fill="#5e5e5e"
   d="M 1.30891,15.93427 H 12.6895 v 0.87738 H 1.30891 Z" />
	<path
   id="path873"
   inkscape:connector-curvature="0"
   fill="#5e5e5e"
   d="M 1.30891,12.38654 H 12.6895 v 0.87738 H 1.30891 Z" />
	<path
   id="path875"
   inkscape:connector-curvature="0"
   fill="#797979"
   d="M 1.30891,10.61302 H 12.6895 V 11.4904 H 1.30891 Z" />
</g><g
   id="g899"
   transform="matrix(0,1,-0.93049694,0,36.154753,0)"
   style="display:none">
	<linearGradient
   id="linearGradient885"
   gradientUnits="userSpaceOnUse"
   x1="6.9992099"
   y1="10.61302"
   x2="6.9992099"
   y2="19.459539">
		<stop
   offset="0.00559"
   style="stop-color:#3D3B3B"
   id="stop881" />
		<stop
   offset="1"
   style="stop-color:#2D2C2C"
   id="stop883" />
	</linearGradient>
	<path
   id="path887"
   inkscape:connector-curvature="0"
   fill="url(#path5815_2_)"
   d="M 1.30891,10.61302 H 12.6895 v 8.84652 H 1.30891 Z"
   style="fill:url(#linearGradient901)" />
	<path
   id="path889"
   inkscape:connector-curvature="0"
   fill="#5e5e5e"
   d="M 1.30891,14.15995 H 12.6895 v 0.87738 H 1.30891 Z" />
	<path
   id="path891"
   inkscape:connector-curvature="0"
   fill="#5e5e5e"
   d="M 1.30891,17.70687 H 12.6895 v 0.87738 H 1.30891 Z" />
	<path
   id="path893"
   inkscape:connector-curvature="0"
   fill="#5e5e5e"
   d="M 1.30891,15.93427 H 12.6895 v 0.87738 H 1.30891 Z" />
	<path
   id="path895"
   inkscape:connector-curvature="0"
   fill="#5e5e5e"
   d="M 1.30891,12.38654 H 12.6895 v 0.87738 H 1.30891 Z" />
	<path
   id="path897"
   inkscape:connector-curvature="0"
   fill="#797979"
   d="M 1.30891,10.61302 H 12.6895 V 11.4904 H 1.30891 Z" />
</g><g
   id="g921"
   transform="matrix(0,1,-0.93049694,0,44.545842,0)"
   style="display:none">
	<linearGradient
   id="linearGradient907"
   gradientUnits="userSpaceOnUse"
   x1="6.9992099"
   y1="10.61302"
   x2="6.9992099"
   y2="19.459539">
		<stop
   offset="0.00559"
   style="stop-color:#3D3B3B"
   id="stop903" />
		<stop
   offset="1"
   style="stop-color:#2D2C2C"
   id="stop905" />
	</linearGradient>
	<path
   id="path909"
   inkscape:connector-curvature="0"
   fill="url(#path5815_2_)"
   d="M 1.30891,10.61302 H 12.6895 v 8.84652 H 1.30891 Z"
   style="fill:url(#linearGradient923)" />
	<path
   id="path911"
   inkscape:connector-curvature="0"
   fill="#5e5e5e"
   d="M 1.30891,14.15995 H 12.6895 v 0.87738 H 1.30891 Z" />
	<path
   id="path913"
   inkscape:connector-curvature="0"
   fill="#5e5e5e"
   d="M 1.30891,17.70687 H 12.6895 v 0.87738 H 1.30891 Z" />
	<path
   id="path915"
   inkscape:connector-curvature="0"
   fill="#5e5e5e"
   d="M 1.30891,15.93427 H 12.6895 v 0.87738 H 1.30891 Z" />
	<path
   id="path917"
   inkscape:connector-curvature="0"
   fill="#5e5e5e"
   d="M 1.30891,12.38654 H 12.6895 v 0.87738 H 1.30891 Z" />
	<path
   id="path919"
   inkscape:connector-curvature="0"
   fill="#797979"
   d="M 1.30891,10.61302 H 12.6895 V 11.4904 H 1.30891 Z" />
</g></svg>
