<?xml version="1.0" encoding="UTF-8" standalone="no"?>
<!-- Generator: Adobe Illustrator 25.2.3, SVG Export Plug-In . SVG Version: 6.00 Build 0)  -->

<svg
   version="1.0"
   id="svg111794"
   x="0px"
   y="0px"
   width="17.85552px"
   height="17.85938px"
   viewBox="0 0 17.85552 17.85938"
   enable-background="new 0 0 17.85552 17.85938"
   xml:space="preserve"
   sodipodi:docname="SickoTrimpot.svg"
   inkscape:version="1.2.1 (9c6d41e410, 2022-07-14)"
   xmlns:inkscape="http://www.inkscape.org/namespaces/inkscape"
   xmlns:sodipodi="http://sodipodi.sourceforge.net/DTD/sodipodi-0.dtd"
   xmlns="http://www.w3.org/2000/svg"
   xmlns:svg="http://www.w3.org/2000/svg"><defs
   id="defs13" /><sodipodi:namedview
   id="namedview11"
   pagecolor="#ffffff"
   bordercolor="#000000"
   borderopacity="0.25"
   inkscape:showpageshadow="2"
   inkscape:pageopacity="0.0"
   inkscape:pagecheckerboard="0"
   inkscape:deskcolor="#d1d1d1"
   showgrid="false"
   inkscape:zoom="46.866127"
   inkscape:cx="8.5882924"
   inkscape:cy="8.940359"
   inkscape:window-width="1920"
   inkscape:window-height="1017"
   inkscape:window-x="-8"
   inkscape:window-y="-8"
   inkscape:window-maximized="1"
   inkscape:current-layer="svg111794" />
<path
   opacity="0.99"
   fill="#EDEDED"
   enable-background="new    "
   d="M7.85074,2.01721H9.9412v4.45324   c0,0.29768-0.24131,0.53899-0.53899,0.53899H8.38973c-0.29768,0-0.53899-0.24131-0.53899-0.53899V2.01721z"
   id="path2" /><path
   opacity="0.4"
   d="M9.94122,0.89518v1.20435c3.33276,0.49072,5.89355,3.354,5.89355,6.823   c0,3.81384-3.09167,6.90552-6.9054,6.90552s-6.9054-3.09167-6.9054-6.90552c0-3.4458,2.52661-6.29382,5.82678-6.81274V0.90544   C3.88995,1.434,0.83209,4.8173,0.83209,8.92253c0,4.47217,3.62524,8.09741,8.09729,8.09741s8.09729-3.62525,8.09729-8.09741   C17.02667,4.79411,13.93463,1.39421,9.94122,0.89518z"
   id="path4"
   inkscape:label="path1" /><rect
   x="7.85074"
   y="0.82529"
   opacity="0.58"
   fill="#FFFFFF"
   width="2.09046"
   height="1.2845"
   id="rect6"
   inkscape:label="rect1" />
</svg>
