<?xml version="1.0" encoding="UTF-8" standalone="no"?>
<svg
   inkscape:version="1.2.1 (9c6d41e410, 2022-07-14)"
   sodipodi:docname="SickoMuteButton_3_red_green.svg"
   id="svg134177"
   viewBox="0 0 21 21"
   height="21"
   width="21"
   version="1.1"
   xmlns:inkscape="http://www.inkscape.org/namespaces/inkscape"
   xmlns:sodipodi="http://sodipodi.sourceforge.net/DTD/sodipodi-0.dtd"
   xmlns="http://www.w3.org/2000/svg"
   xmlns:svg="http://www.w3.org/2000/svg"
   xmlns:rdf="http://www.w3.org/1999/02/22-rdf-syntax-ns#"
   xmlns:cc="http://creativecommons.org/ns#"
   xmlns:dc="http://purl.org/dc/elements/1.1/">
  <metadata
     id="metadata134183">
    <rdf:RDF>
      <cc:Work
         rdf:about="">
        <dc:format>image/svg+xml</dc:format>
        <dc:type
           rdf:resource="http://purl.org/dc/dcmitype/StillImage" />
      </cc:Work>
    </rdf:RDF>
  </metadata>
  <defs
     id="defs134181">
    <linearGradient
       id="path5961-3_1_"
       gradientUnits="userSpaceOnUse"
       x1="-589.50763"
       y1="-2199.0154"
       x2="-571.96295"
       y2="-2199.0154"
       gradientTransform="rotate(90,-1389.7801,-800.2933)">
      <stop
         offset="0"
         style="stop-color:#787878"
         id="stop1282" />
      <stop
         offset="1"
         style="stop-color:#474747"
         id="stop1284" />
    </linearGradient>
    <linearGradient
       id="path5961-3_2_"
       gradientUnits="userSpaceOnUse"
       x1="-298.72598"
       y1="-1119.5521"
       x2="-283.88739"
       y2="-1119.5521"
       gradientTransform="rotate(-90,422.96951,-705.52457)">
      <stop
         offset="0.00559"
         style="stop-color:#6B6B6B"
         id="stop1289" />
      <stop
         offset="1"
         style="stop-color:#DEDEDE"
         id="stop1291" />
    </linearGradient>
    <linearGradient
       id="path5961-3_3_"
       gradientUnits="userSpaceOnUse"
       x1="-297.97351"
       y1="-1119.5521"
       x2="-284.63989"
       y2="-1119.5521"
       gradientTransform="rotate(-90,422.96951,-705.52457)">
      <stop
         offset="0.00559"
         style="stop-color:#5B5B5B"
         id="stop1298" />
      <stop
         offset="1"
         style="stop-color:#6C6C6C"
         id="stop1300" />
    </linearGradient>
    <linearGradient
       id="path5961-3_1_-8"
       gradientUnits="userSpaceOnUse"
       x1="-589.50763"
       y1="-2199.0154"
       x2="-571.96295"
       y2="-2199.0154"
       gradientTransform="rotate(90,-945.86723,-1544.453)">
      <stop
         offset="0"
         style="stop-color:#787878"
         id="stop1282-4" />
      <stop
         offset="1"
         style="stop-color:#474747"
         id="stop1284-2" />
    </linearGradient>
    <linearGradient
       id="path5961-3_2_-5"
       gradientUnits="userSpaceOnUse"
       x1="-298.72598"
       y1="-1119.5521"
       x2="-283.88739"
       y2="-1119.5521"
       gradientTransform="rotate(-90,-321.19019,-1149.4374)">
      <stop
         offset="0.00559"
         style="stop-color:#6B6B6B"
         id="stop1289-0" />
      <stop
         offset="1"
         style="stop-color:#DEDEDE"
         id="stop1291-3" />
    </linearGradient>
    <linearGradient
       id="path5961-3_3_-9"
       gradientUnits="userSpaceOnUse"
       x1="-297.97351"
       y1="-1119.5521"
       x2="-284.63989"
       y2="-1119.5521"
       gradientTransform="rotate(-90,-321.19019,-1149.4374)">
      <stop
         offset="0.00559"
         style="stop-color:#5B5B5B"
         id="stop1298-1" />
      <stop
         offset="1"
         style="stop-color:#6C6C6C"
         id="stop1300-8" />
    </linearGradient>
  </defs>
  <sodipodi:namedview
     inkscape:current-layer="svg134177"
     inkscape:window-maximized="0"
     inkscape:window-y="7"
     inkscape:window-x="450"
     inkscape:cy="9.09375"
     inkscape:cx="12.28125"
     inkscape:zoom="16"
     showgrid="false"
     id="namedview134179"
     inkscape:window-height="728"
     inkscape:window-width="897"
     inkscape:pageshadow="2"
     inkscape:pageopacity="0"
     guidetolerance="10"
     gridtolerance="10"
     objecttolerance="10"
     borderopacity="1"
     bordercolor="#666666"
     pagecolor="#ffffff"
     inkscape:showpageshadow="2"
     inkscape:pagecheckerboard="0"
     inkscape:deskcolor="#d1d1d1" />
  <g
     id="g5959-5_76_"
     transform="matrix(0.98775745,0,0,0.98776117,298.23866,1175.3874)"
     style="display:inline">
    <path
       id="path5961-3_82_"
       inkscape:connector-curvature="0"
       d="m -280.67484,-1179.3201 c 0,5.8704 -4.76059,10.6293 -10.63092,10.6293 -5.86954,0 -10.62936,-4.7589 -10.62936,-10.6293 0,-5.8728 4.75983,-10.6309 10.62936,-10.6309 5.87034,0 10.63092,4.7581 10.63092,10.6309" />
  </g>
  <g
     id="g5959-5_75_"
     transform="matrix(0.98775745,0,0,0.98776117,298.23866,1175.3874)"
     style="display:inline">
    <linearGradient
       id="linearGradient5224"
       gradientUnits="userSpaceOnUse"
       x1="-589.50763"
       y1="-2199.0154"
       x2="-571.96295"
       y2="-2199.0154"
       gradientTransform="rotate(90,-945.86723,-1544.453)">
      <stop
         offset="0"
         style="stop-color:#787878"
         id="stop5220" />
      <stop
         offset="1"
         style="stop-color:#474747"
         id="stop5222" />
    </linearGradient>
    <path
       id="path5961-3_81_"
       inkscape:connector-curvature="0"
       fill="url(#path5961-3_1_)"
       d="m -300.0773,-1179.3215 c 0,-4.8445 3.92859,-8.7718 8.77298,-8.7718 4.84375,0 8.7717,3.9273 8.7717,8.7718 0,4.8464 -3.92795,8.7729 -8.7717,8.7729 -4.84439,0 -8.77298,-3.9265 -8.77298,-8.7729"
       style="fill:url(#path5961-3_1_-8)" />
  </g>
  <g
     opacity="0.21"
     id="g1296"
     transform="matrix(0.98775745,0,0,0.98776117,-9.693356e-6,-4.247733e-5)"
     style="display:inline">
    <g
       id="g5959-5_72_"
       transform="translate(301.93513,1189.951)">
      <linearGradient
         id="linearGradient5232"
         gradientUnits="userSpaceOnUse"
         x1="-298.72598"
         y1="-1119.5521"
         x2="-283.88739"
         y2="-1119.5521"
         gradientTransform="rotate(-90,-321.19019,-1149.4374)">
        <stop
           offset="0.00559"
           style="stop-color:#6B6B6B"
           id="stop5228" />
        <stop
           offset="1"
           style="stop-color:#DEDEDE"
           id="stop5230" />
      </linearGradient>
      <path
         id="path5961-3_76_"
         inkscape:connector-curvature="0"
         fill="url(#path5961-3_2_)"
         d="m -291.30551,-1171.9016 c -4.09726,0 -7.41876,-3.3226 -7.41876,-7.4198 0,-4.0967 3.3215,-7.4188 7.41876,-7.4188 4.09888,0 7.41983,3.3221 7.41983,7.4188 3e-5,4.0972 -3.32095,7.4198 -7.41983,7.4198"
         style="fill:url(#path5961-3_2_-5)" />
    </g>
  </g>
  <g
     id="g1305"
     transform="matrix(0.98775745,0,0,0.98776117,-9.693356e-6,-4.247733e-5)"
     style="display:inline">
    <g
       id="g5959-5_71_"
       transform="translate(301.93513,1189.951)">
      <linearGradient
         id="linearGradient5241"
         gradientUnits="userSpaceOnUse"
         x1="-297.97351"
         y1="-1119.5521"
         x2="-284.63989"
         y2="-1119.5521"
         gradientTransform="rotate(-90,-321.19019,-1149.4374)">
        <stop
           offset="0.00559"
           style="stop-color:#5B5B5B"
           id="stop5237" />
        <stop
           offset="1"
           style="stop-color:#6C6C6C"
           id="stop5239" />
      </linearGradient>
      <path
         id="path5961-3_75_"
         inkscape:connector-curvature="0"
         fill="url(#path5961-3_3_)"
         d="m -291.30545,-1172.6541 c -3.6817,0 -6.66632,-2.9857 -6.66632,-6.6673 0,-3.6812 2.98462,-6.6663 6.66632,-6.6663 3.68317,0 6.6673,2.9851 6.6673,6.6663 0,3.6816 -2.98413,6.6673 -6.6673,6.6673"
         style="fill:url(#path5961-3_3_-9)" />
    </g>
  </g>
  <path
     id="path16415"
     inkscape:connector-curvature="0"
     fill="url(#path5961-3_1_)"
     d="m 1.835077,10.499392 c 0,-4.7852088 3.880494,-8.6644432 8.665576,-8.6644432 4.78445,0 8.664312,3.8792344 8.664312,8.6644432 0,4.787085 -3.879862,8.66553 -8.664312,8.66553 -4.785082,0 -8.665576,-3.878445 -8.665576,-8.66553"
     style="opacity:0.6;fill:#ff5353;fill-opacity:1;stroke-width:0.98776" />
  <path
     id="path16415-6"
     inkscape:connector-curvature="0"
     fill="url(#path5961-3_1_)"
     d="m 3.8350001,10.499582 c 0,-3.680723 2.9848426,-6.6645819 6.6654859,-6.6645819 3.680158,0 6.664514,2.9838589 6.664514,6.6645819 0,3.682167 -2.984356,6.665418 -6.664514,6.665418 -3.6806433,0 -6.6654859,-2.983251 -6.6654859,-6.665418"
     style="opacity:0.7;fill:#4aff4c;fill-opacity:1;stroke-width:0.759774" />
</svg>
